<svg width="24" height="24" viewBox="0 0 24 24" fill="none" xmlns="http://www.w3.org/2000/svg">
<g id="Chart=fin, Size=24px, stroke width=1.5px">
<path id="fin" d="M8.18179 4.87504V10.3558M15.8182 19.1249L15.8182 13.6442M15.8182 6.51923L15.8182 4.875M8.18179 19.1249L8.18179 17.4807M7.5 16.9327H8.86363C9.69206 16.9327 10.3636 16.2612 10.3636 15.4327V11.8558C10.3636 11.0274 9.69206 10.3558 8.86363 10.3558H7.5C6.67157 10.3558 6 11.0274 6 11.8558V15.4327C6 16.2612 6.67157 16.9327 7.5 16.9327ZM16.5 7.06731H15.1363C14.3079 7.06731 13.6363 7.73888 13.6363 8.56731V12.1442C13.6363 12.9727 14.3079 13.6442 15.1363 13.6442H16.5C17.3284 13.6442 18 12.9727 18 12.1442L18 8.56731C18 7.73888 17.3284 7.06731 16.5 7.06731Z" stroke="black" stroke-width="1.5" stroke-linecap="round" stroke-linejoin="round"/>
</g>
</svg>
