<svg width="16" height="16" viewBox="0 0 16 16" fill="none" xmlns="http://www.w3.org/2000/svg">
<g id="Chart=pie-chart, Size=16px, stroke width=1.5px">
<path id="pie-chart" d="M12.75 8C12.75 8.93946 12.4714 9.85783 11.9495 10.639C11.4275 11.4201 10.6857 12.0289 9.81775 12.3884C8.9498 12.7479 7.99473 12.842 7.07332 12.6587C6.15191 12.4755 5.30554 12.0231 4.64125 11.3588C3.97695 10.6945 3.52455 9.84809 3.34127 8.92668C3.15799 8.00527 3.25206 7.0502 3.61157 6.18225C3.97109 5.3143 4.57991 4.57246 5.36104 4.05052C6.14218 3.52858 7.06054 3.25 8 3.25M12.75 8H8L8 3.25M12.75 8C12.75 7.69035 12.7197 7.37997 12.6587 7.07332C12.4755 6.15191 12.0231 5.30554 11.3588 4.64124C10.6945 3.97694 9.84809 3.52455 8.92668 3.34127C8.62003 3.28027 8.30966 3.25 8 3.25" stroke="black" stroke-width="1.5" stroke-linecap="round"/>
</g>
</svg>
