<svg width="24" height="24" viewBox="0 0 24 24" fill="none" xmlns="http://www.w3.org/2000/svg">
<g id="Chart=pie-chart, Size=24px, stroke width=1.5px">
<path id="pie-chart" d="M19.125 12C19.125 13.4092 18.7071 14.7867 17.9242 15.9584C17.1413 17.1301 16.0285 18.0434 14.7266 18.5826C13.4247 19.1219 11.9921 19.263 10.61 18.9881C9.22787 18.7132 7.95832 18.0346 6.96187 17.0381C5.96542 16.0417 5.28683 14.7721 5.01191 13.39C4.73699 12.0079 4.87809 10.5753 5.41736 9.27338C5.95664 7.97146 6.86987 6.85868 8.04157 6.07578C9.21327 5.29287 10.5908 4.875 12 4.875M19.125 12H12L12 4.875M19.125 12C19.125 11.5355 19.0796 11.0699 18.9881 10.61C18.7132 9.22786 18.0346 7.95831 17.0381 6.96186C16.0417 5.96541 14.7721 5.28682 13.39 5.0119C12.93 4.9204 12.4645 4.875 12 4.875" stroke="black" stroke-width="1.5" stroke-linecap="round"/>
</g>
</svg>
