<svg width="16" height="16" viewBox="0 0 16 16" fill="none" xmlns="http://www.w3.org/2000/svg">
<g id="Chart=round, Size=16px, weight=light">
<path id="round" d="M3.25 8C3.25 10.6234 5.37665 12.75 8 12.75C10.6234 12.75 12.75 10.6234 12.75 8C12.75 5.37665 10.6234 3.25 8 3.25M3.25 8C3.25 5.37665 5.37665 3.25 8 3.25M3.25 8H5.80617M8 3.25V5.80617M5.80617 8C5.80617 9.21162 6.78838 10.1938 8 10.1938C9.21162 10.1938 10.1938 9.21162 10.1938 8C10.1938 6.78838 9.21162 5.80617 8 5.80617M5.80617 8C5.80617 6.78838 6.78838 5.80617 8 5.80617" stroke="black" stroke-linecap="round"/>
</g>
</svg>
