<svg width="16" height="16" viewBox="0 0 16 16" fill="none" xmlns="http://www.w3.org/2000/svg">
<g id="Chart=fin, Size=16px, stroke width=1.5px">
<path id="fin" d="M5.45452 3.25002V6.90387M10.5455 12.75L10.5455 9.09612M10.5455 4.34615L10.5455 3.25M5.45452 12.75L5.45452 11.6538M5 11.2885H5.90909C6.46137 11.2885 6.90909 10.8408 6.90909 10.2885V7.90388C6.90909 7.35159 6.46137 6.90388 5.90909 6.90388H5C4.44772 6.90388 4 7.3516 4 7.90388V10.2885C4 10.8408 4.44772 11.2885 5 11.2885ZM11 4.71154H10.0909C9.53861 4.71154 9.0909 5.15925 9.0909 5.71154V8.09615C9.0909 8.64844 9.53861 9.09615 10.0909 9.09615H11C11.5523 9.09615 12 8.64844 12 8.09615L12 5.71154C12 5.15925 11.5523 4.71154 11 4.71154Z" stroke="black" stroke-width="1.5" stroke-linecap="round" stroke-linejoin="round"/>
</g>
</svg>
