<svg width="16" height="16" viewBox="0 0 16 16" fill="none" xmlns="http://www.w3.org/2000/svg">
<g id="Chat=double-bubble, Size=16px, weight=light">
<g id="double-bubble">
<path d="M3.25 6.81708L3.25 5.25C3.25 4.14543 4.14543 3.25 5.25001 3.25L9.19681 3.25001C9.97929 3.25001 10.6136 3.88434 10.6136 4.66683C10.6136 5.44931 9.97929 6.08364 9.1968 6.08364L5.00324 6.08364L4.13569 7.13526C3.83731 7.49695 3.25 7.28596 3.25 6.81708Z" stroke="black" stroke-linecap="round" stroke-linejoin="round"/>
<path d="M12.25 11.5342V10.1453C12.25 9.04075 11.3545 8.14532 10.25 8.14532L6.30317 8.14533C5.52068 8.14534 4.88636 8.77967 4.88636 9.56215C4.88636 10.3446 5.52069 10.979 6.30317 10.979L10.4967 10.979L11.3946 11.886C11.7089 12.2034 12.25 11.9809 12.25 11.5342Z" stroke="black" stroke-linecap="round" stroke-linejoin="round"/>
</g>
</g>
</svg>
