<svg width="16" height="16" viewBox="0 0 16 16" fill="none" xmlns="http://www.w3.org/2000/svg">
<g id="Chat=double-bubble, Size=16px, stroke width=1.5px">
<g id="double-bubble">
<path d="M3.24976 6.81708L3.24976 5.25C3.24976 4.14543 4.14519 3.25 5.24976 3.25L9.19656 3.25001C9.97905 3.25001 10.6134 3.88434 10.6134 4.66683C10.6134 5.44931 9.97905 6.08364 9.19656 6.08364L5.003 6.08364L4.13545 7.13526C3.83707 7.49695 3.24976 7.28596 3.24976 6.81708Z" stroke="black" stroke-width="1.5" stroke-linecap="round" stroke-linejoin="round"/>
<path d="M12.2497 11.5342V10.1453C12.2497 9.04075 11.3543 8.14532 10.2497 8.14532L6.30292 8.14533C5.52044 8.14534 4.88611 8.77967 4.88611 9.56215C4.88611 10.3446 5.52044 10.979 6.30293 10.979L10.4965 10.979L11.3944 11.886C11.7086 12.2034 12.2497 11.9809 12.2497 11.5342Z" stroke="black" stroke-width="1.5" stroke-linecap="round" stroke-linejoin="round"/>
</g>
</g>
</svg>
