<svg width="16" height="16" viewBox="0 0 16 16" fill="none" xmlns="http://www.w3.org/2000/svg">
<g id="Chat=comment-bubble-question-mark, Size=16px, stroke width=1.5px">
<path id="comment-bubble-question-mark" d="M8 10.1111V10.4501M6.41667 6.94444C6.41667 6.06999 7.12555 5.36111 8 5.36111C8.87445 5.36111 9.58333 6.06999 9.58333 6.94444C9.58333 7.77843 8.4999 8.35926 8 8.92361V9.05556M7.98478 12.75C5.36143 12.75 3.25 10.5861 3.25 7.97599C3.25 5.3659 5.37665 3.25 8 3.25C10.6234 3.25 12.75 5.3659 12.75 7.97599C12.75 8.94224 12.4585 9.84077 11.9583 10.5893L12.7348 12.7171C11.1432 12.7326 9.57151 12.75 7.98478 12.75Z" stroke="black" stroke-width="1.5" stroke-linecap="round" stroke-linejoin="round"/>
</g>
</svg>
