<svg width="24" height="24" viewBox="0 0 24 24" fill="none" xmlns="http://www.w3.org/2000/svg">
<g id="Chat=double-bubble, Size=24px, weight=regular">
<g id="double-bubble">
<path d="M4.87451 10.2256L4.87451 7.875C4.87451 6.21814 6.21766 4.875 7.87452 4.875L13.7947 4.87501C14.9684 4.87502 15.9199 5.82651 15.9199 7.00024C15.9199 8.17397 14.9684 9.12546 13.7947 9.12546L7.50438 9.12546L6.20305 10.7029C5.75548 11.2454 4.87451 10.9289 4.87451 10.2256Z" stroke="black" stroke-width="1.5" stroke-linecap="round" stroke-linejoin="round"/>
<path d="M18.3745 17.3013V15.218C18.3745 13.5611 17.0313 12.218 15.3745 12.218L9.45426 12.218C8.28054 12.218 7.32905 13.1695 7.32905 14.3432C7.32905 15.517 8.28054 16.4684 9.45427 16.4685L15.7446 16.4685L17.0915 17.829C17.5628 18.3051 18.3745 17.9713 18.3745 17.3013Z" stroke="black" stroke-width="1.5" stroke-linecap="round" stroke-linejoin="round"/>
</g>
</g>
</svg>
