<svg width="32" height="32" viewBox="0 0 32 32" fill="none" xmlns="http://www.w3.org/2000/svg">
<g id="Controls=clear, Size=32px, weight=light">
<path id="Vector" d="M11.5451 9.31826L11.5451 9.31834L11.5525 9.31124L11.6924 9.1774C12.2375 8.74854 12.9063 8.5 13.558 8.5H24.0077C25.5849 8.5 26.7903 9.69651 26.7473 11.1351L26.7471 11.15V20.85C26.7471 22.3034 25.529 23.5 23.9555 23.5H13.558C12.8836 23.5 12.2247 23.2866 11.7011 22.8309L11.5525 22.6888L11.5526 22.6887L11.5451 22.6817L5.07041 16.7356C4.86174 16.5341 4.75781 16.2678 4.75781 16C4.75781 15.7322 4.86174 15.4659 5.0704 15.2645L11.5451 9.31826Z" stroke="black" stroke-linecap="round" stroke-linejoin="round"/>
</g>
</svg>
