<svg width="24" height="24" viewBox="0 0 24 24" fill="none" xmlns="http://www.w3.org/2000/svg">
<g id="Controls=clear, Size=24px, weight=light">
<path id="Vector" d="M8.74334 7.08076L8.74342 7.08084L8.75084 7.07374L8.8513 6.9776C9.23959 6.67369 9.71248 6.5 10.1685 6.5H18.0058C19.1258 6.5 19.9655 7.34651 19.9356 8.34758L19.9353 8.3625V15.6375C19.9353 16.6534 19.0829 17.5 17.9666 17.5H10.1685C9.68996 17.5 9.22695 17.3491 8.8601 17.0308L8.75083 16.9263L8.75091 16.9262L8.74334 16.9192L3.88855 12.4607C3.75816 12.3342 3.69336 12.1679 3.69336 12C3.69336 11.8321 3.75816 11.6658 3.88855 11.5393L8.74334 7.08076Z" stroke="black" stroke-linecap="round" stroke-linejoin="round"/>
</g>
</svg>
