<svg width="24" height="24" viewBox="0 0 24 24" fill="none" xmlns="http://www.w3.org/2000/svg">
<g id="Controls=clear, Size=24px, stroke width=1.5px">
<path id="Vector" d="M8.91294 7.26489L8.92417 7.25436L9.01541 7.16705C9.36256 6.89852 9.77819 6.75 10.169 6.75H18.0063C19.0006 6.75 19.7114 7.49477 19.6862 8.34012C19.6859 8.34758 19.6858 8.35504 19.6858 8.3625V15.6375C19.6858 16.505 18.9558 17.25 17.9671 17.25H10.169C9.74504 17.25 9.34418 17.1174 9.02888 16.8458L8.92417 16.7456L8.91294 16.7351L4.06094 12.2791C3.98249 12.2019 3.94385 12.1021 3.94385 12C3.94385 11.8979 3.98249 11.7981 4.06094 11.7209L8.91294 7.26489Z" stroke="black" stroke-width="1.5" stroke-linecap="round" stroke-linejoin="round"/>
</g>
</svg>
