<svg width="16" height="16" viewBox="0 0 16 16" fill="none" xmlns="http://www.w3.org/2000/svg">
<g id="Controls=clear, Size=16px, weight=regular">
<path id="Vector" d="M6.11073 5.02739L6.12197 5.01686L6.17285 4.96817C6.36292 4.82438 6.58296 4.75 6.77902 4.75H12.0039C12.541 4.75 12.8861 5.14477 12.8739 5.55262C12.8737 5.56008 12.8736 5.56754 12.8736 5.575V10.425C12.8736 10.855 12.5093 11.25 11.9777 11.25H6.77902C6.55096 11.25 6.34555 11.1798 6.18671 11.0451L6.12197 10.9831L6.11073 10.9726L2.88092 8.00641C2.87998 8.0053 2.87975 8.00472 2.87968 8.00454L2.87967 8.00451C2.87936 8.00377 2.87891 8.00222 2.87891 8C2.87891 7.99778 2.87936 7.99623 2.87967 7.99549C2.87972 7.99537 2.8799 7.99479 2.88092 7.99359L6.11073 5.02739Z" stroke="black" stroke-width="1.5" stroke-linecap="round" stroke-linejoin="round"/>
</g>
</svg>
