<svg width="24" height="24" viewBox="0 0 24 24" fill="none" xmlns="http://www.w3.org/2000/svg">
<g id="Controls=eye-crossed, Size=24px, stroke width=1px">
<path id="eye-crossed" d="M14.4107 16.9874C13.5963 17.3656 12.6923 17.6118 11.7405 17.6118C8.15598 17.6118 5.25017 14.1207 5.25017 13.2337C5.25017 12.7308 6.18382 11.3914 7.6455 10.3253M17.452 14.6368C17.9487 14.0392 18.2308 13.51 18.2308 13.2337C18.2308 12.3466 15.325 8.85553 11.7405 8.85553C13.3177 8.85553 14.5962 10.1239 14.5962 11.6884M11.7405 14.5214C10.1633 14.5214 8.88472 13.253 8.88472 11.6884M18.75 8.85562C16.7732 7.21954 14.4653 6.28025 12.0001 6.28025C11.1116 6.28025 10.2435 6.40227 9.40397 6.63496M5.25017 8.85562C5.43341 8.70396 5.6195 8.5583 5.8083 8.41881M5.25 5.25005L17.7856 17.9062" stroke="black" stroke-linecap="round" stroke-linejoin="round"/>
</g>
</svg>
