<svg width="16" height="16" viewBox="0 0 16 16" fill="none" xmlns="http://www.w3.org/2000/svg">
<g id="Controls=clear, Size=16px, stroke width=1px">
<path id="Vector" d="M5.94163 4.84326L5.9417 4.84334L5.94912 4.83624L6.00995 4.77803C6.24138 4.59902 6.51847 4.5 6.77902 4.5H12.0039C12.6667 4.5 13.1406 4.99651 13.1238 5.56008L13.1236 5.575V10.425C13.1236 11.0034 12.6369 11.5 11.9777 11.5H6.77902C6.49637 11.5 6.22912 11.4116 6.01892 11.2306L5.94912 11.1638L5.94919 11.1637L5.94163 11.1567L2.70696 8.18609C2.65467 8.13463 2.62891 8.06808 2.62891 8C2.62891 7.93192 2.65467 7.86537 2.70697 7.81391L5.94163 4.84326Z" stroke="black" stroke-linecap="round" stroke-linejoin="round"/>
</g>
</svg>
