<svg width="32" height="32" viewBox="0 0 32 32" fill="none" xmlns="http://www.w3.org/2000/svg">
<g id="Controls=clear, Size=32px, weight=regular">
<path id="Vector" d="M11.7142 9.50239L11.7254 9.49186L11.8563 9.36655C12.3604 8.97315 12.9718 8.75 13.558 8.75H24.0077C25.4592 8.75 26.5358 9.84477 26.4975 11.1276C26.4972 11.1351 26.4971 11.1425 26.4971 11.15V20.85C26.4971 22.155 25.4014 23.25 23.9555 23.25H13.558C12.9382 23.25 12.3415 23.0549 11.8696 22.6461L11.7254 22.5081L11.7142 22.4976L5.24195 16.5537C5.08546 16.4015 5.00781 16.2019 5.00781 16C5.00781 15.7981 5.08546 15.5985 5.24195 15.4463L11.7142 9.50239Z" stroke="black" stroke-width="1.5" stroke-linecap="round" stroke-linejoin="round"/>
</g>
</svg>
