<svg width="16" height="16" viewBox="0 0 16 16" fill="none" xmlns="http://www.w3.org/2000/svg">
<g id="Controls=eye-crossed, Size=16px, weight=regular">
<path id="eye-crossed" d="M9.60714 11.3249C9.06419 11.5771 8.46154 11.7412 7.82699 11.7412C5.43732 11.7412 3.50011 9.41379 3.50011 8.82241C3.50011 8.4872 4.12255 7.59421 5.097 6.88347M11.6346 9.75781C11.9658 9.35942 12.1539 9.00666 12.1539 8.82241C12.1539 8.23104 10.2167 5.90366 7.82699 5.90366C8.87844 5.90366 9.7308 6.74922 9.7308 7.79227M7.82697 9.68087C6.77552 9.68087 5.92315 8.83531 5.92315 7.79227M12.5 5.90372C11.1821 4.813 9.6435 4.1868 8.00007 4.1868C7.40772 4.1868 6.829 4.26815 6.26932 4.42328M3.50011 5.90372C3.62228 5.80261 3.74634 5.7055 3.8722 5.61251M3.5 3.5L11.857 11.9374" stroke="black" stroke-width="1.5" stroke-linecap="round" stroke-linejoin="round"/>
</g>
</svg>
