<svg width="32" height="32" viewBox="0 0 32 32" fill="none" xmlns="http://www.w3.org/2000/svg">
<g id="Controls=clear, Size=32px, stroke width=1.5px">
<path id="Vector" d="M11.7146 9.50239L11.7259 9.49186L11.8568 9.36655C12.3609 8.97315 12.9723 8.75 13.5585 8.75H24.0082C25.4597 8.75 26.5362 9.84477 26.4979 11.1276C26.4977 11.1351 26.4976 11.1425 26.4976 11.15V20.85C26.4976 22.155 25.4019 23.25 23.956 23.25H13.5585C12.9386 23.25 12.342 23.0549 11.8701 22.6461L11.7259 22.5081L11.7146 22.4976L5.24244 16.5537C5.08595 16.4015 5.0083 16.2019 5.0083 16C5.0083 15.7981 5.08595 15.5985 5.24244 15.4463L11.7146 9.50239Z" stroke="black" stroke-width="1.5" stroke-linecap="round" stroke-linejoin="round"/>
</g>
</svg>
