<svg width="24" height="24" viewBox="0 0 24 24" fill="none" xmlns="http://www.w3.org/2000/svg">
<g id="Controls=clear, Size=24px, stroke width=1px">
<path id="Vector" d="M8.74383 7.08076L8.7439 7.08084L8.75132 7.07374L8.85179 6.9776C9.24008 6.67369 9.71297 6.5 10.169 6.5H18.0063C19.1263 6.5 19.9659 7.34651 19.9361 8.34758L19.9358 8.3625V15.6375C19.9358 16.6534 19.0834 17.5 17.9671 17.5H10.169C9.69045 17.5 9.22744 17.3491 8.86059 17.0308L8.75132 16.9263L8.7514 16.9262L8.74383 16.9192L3.88904 12.4607C3.75865 12.3342 3.69385 12.1679 3.69385 12C3.69385 11.8321 3.75865 11.6658 3.88904 11.5393L8.74383 7.08076Z" stroke="black" stroke-linecap="round" stroke-linejoin="round"/>
</g>
</svg>
