<svg width="24" height="24" viewBox="0 0 24 24" fill="none" xmlns="http://www.w3.org/2000/svg">
<g id="Controls=clear, Size=24px, weight=regular">
<path id="Vector" d="M8.91245 7.26489L8.92368 7.25436L9.01492 7.16705C9.36207 6.89852 9.7777 6.75 10.1685 6.75H18.0058C19.0001 6.75 19.7109 7.49477 19.6857 8.34012C19.6854 8.34758 19.6853 8.35504 19.6853 8.3625V15.6375C19.6853 16.505 18.9553 17.25 17.9666 17.25H10.1685C9.74456 17.25 9.34369 17.1174 9.02839 16.8458L8.92368 16.7456L8.91245 16.7351L4.06045 12.2791C3.982 12.2019 3.94336 12.1021 3.94336 12C3.94336 11.8979 3.982 11.7981 4.06045 11.7209L8.91245 7.26489Z" stroke="black" stroke-width="1.5" stroke-linecap="round" stroke-linejoin="round"/>
</g>
</svg>
