<svg width="24" height="24" viewBox="0 0 24 24" fill="none" xmlns="http://www.w3.org/2000/svg">
<g id="Devices=ios, Size=24px, weight=regular">
<path id="Vector" d="M12.0002 5.31855C14.6543 5.78983 16.4689 5.05262 16.916 2.34547C14.3569 1.53966 12.922 2.92817 12.0002 5.31855Z" stroke="black" stroke-width="1.5" stroke-linecap="round" stroke-linejoin="round"/>
<path id="Subtract" d="M10.8145 7.18705C11.3045 7.41858 11.7866 7.64639 12.3747 7.64639C12.9628 7.64639 13.4455 7.41858 13.9355 7.18704C14.9493 6.70796 15.9969 6.21293 18.0875 7.68701C18.2198 7.78029 18.3439 7.88 18.4602 7.98563C16.7932 8.74793 15.635 10.4302 15.635 12.3831C15.635 14.3112 16.7641 15.9756 18.3972 16.7511C17.8509 17.6586 17.1874 18.4266 16.4666 18.9349C15.241 19.7991 14.2618 19.3994 13.4334 19.0613C13.0517 18.9055 12.702 18.7627 12.375 18.7627C12.048 18.7627 11.6983 18.9055 11.3166 19.0613C10.4882 19.3994 9.50904 19.7991 8.28345 18.9349C5.25841 16.8016 3.24342 10.0977 6.6625 7.68701C8.75314 6.21293 9.80071 6.70796 10.8145 7.18705Z" stroke="black" stroke-width="1.5" stroke-linecap="round" stroke-linejoin="round"/>
</g>
</svg>
