<svg width="16" height="16" viewBox="0 0 16 16" fill="none" xmlns="http://www.w3.org/2000/svg">
<g id="Devices=joystick, Size=16px, stroke width=1.5px">
<path id="joystick" d="M12.8017 10.4612L12.1996 6.54749C11.9963 5.22571 10.859 4.25 9.52164 4.25L6.47837 4.25C5.14104 4.25 4.00374 5.22572 3.80039 6.54749L3.19828 10.4612C3.09403 11.1388 3.61834 11.75 4.30398 11.75C4.68919 11.75 5.0473 11.5518 5.25188 11.2254L6.55225 9.15072C6.73512 8.85897 7.05523 8.68181 7.39956 8.68181L8.60043 8.68181C8.94477 8.6818 9.26489 8.85896 9.44776 9.15072L10.7481 11.2254C10.9527 11.5518 11.3108 11.75 11.696 11.75C12.3817 11.75 12.906 11.1388 12.8017 10.4612Z" stroke="black" stroke-width="1.5" stroke-linecap="round" stroke-linejoin="round"/>
</g>
</svg>
