<svg width="16" height="16" viewBox="0 0 16 16" fill="none" xmlns="http://www.w3.org/2000/svg">
<g id="Devices=ios, Size=32px, weight=regular">
<path id="Vector" d="M7.99999 3.5457C9.76934 3.85989 10.9791 3.36841 11.2771 1.56365C9.57113 1.02644 8.61451 1.95211 7.99999 3.5457Z" stroke="black" stroke-width="1.5" stroke-linecap="round" stroke-linejoin="round"/>
<path id="Subtract" d="M7.20968 4.79136C7.53632 4.94572 7.85771 5.0976 8.2498 5.0976C8.64189 5.0976 8.96368 4.94572 9.29032 4.79136C9.96619 4.47198 10.6646 4.14195 12.0583 5.12467C12.1465 5.18686 12.2293 5.25334 12.3068 5.32375C11.1955 5.83196 10.4233 6.95349 10.4233 8.25537C10.4233 9.54079 11.1761 10.6504 12.2648 11.1674C11.9006 11.7724 11.4583 12.2844 10.9777 12.6233C10.1606 13.1994 9.50787 12.933 8.95562 12.7075C8.70115 12.6037 8.46803 12.5085 8.25 12.5085C8.03197 12.5085 7.79885 12.6037 7.54438 12.7075C6.99213 12.933 6.33936 13.1994 5.5223 12.6233C3.5056 11.2011 2.16228 6.73181 4.44167 5.12467C5.83542 4.14195 6.53381 4.47198 7.20968 4.79136Z" stroke="black" stroke-width="1.5" stroke-linecap="round" stroke-linejoin="round"/>
</g>
</svg>
