<svg width="16" height="16" viewBox="0 0 16 16" fill="none" xmlns="http://www.w3.org/2000/svg">
<g id="Devices=macbook-and-iphone, Size=16px, weight=regular">
<path id="macbook-and-iphone" d="M9.93518 11.75H3.96428C3.5698 11.75 3.25 11.4302 3.25 11.0357C3.25 10.6412 3.5698 10.3214 3.96429 10.3214H9.05555M12.0463 6.75V5.25C12.0463 4.69771 11.5986 4.25 11.0463 4.25L4.9537 4.25001C4.40141 4.25001 3.9537 4.69772 3.9537 5.25001L3.9537 10.3214M11.75 6.75L10.5292 6.75C9.97692 6.75 9.5292 7.19771 9.5292 7.75V10.75C9.5292 11.3023 9.97692 11.75 10.5292 11.75H11.75C12.3023 11.75 12.75 11.3023 12.75 10.75L12.75 7.75C12.75 7.19771 12.3023 6.75 11.75 6.75Z" stroke="black" stroke-width="1.5" stroke-linecap="round" stroke-linejoin="round"/>
</g>
</svg>
