<svg width="32" height="32" viewBox="0 0 32 32" fill="none" xmlns="http://www.w3.org/2000/svg">
<g id="Devices=macbook-and-iphone, Size=32px, stroke width=1.5px">
<path id="macbook-and-iphone" d="M19.8704 23.4999H7.92857C7.13959 23.4999 6.5 22.8603 6.5 22.0714C6.5 21.2824 7.13959 20.6428 7.92857 20.6428H18.1111M24.0926 13.5V10.5C24.0926 9.39543 23.1971 8.5 22.0926 8.5L9.9074 8.50001C8.80283 8.50001 7.9074 9.39544 7.9074 10.5L7.9074 20.6429M23.5 13.5L21.0584 13.5C19.9538 13.5 19.0584 14.3954 19.0584 15.5V21.5C19.0584 22.6046 19.9538 23.5 21.0584 23.5H23.5C24.6045 23.5 25.5 22.6046 25.5 21.5L25.5 15.5C25.5 14.3954 24.6046 13.5 23.5 13.5Z" stroke="black" stroke-width="1.5" stroke-linecap="round" stroke-linejoin="round"/>
</g>
</svg>
