<svg width="16" height="16" viewBox="0 0 16 16" fill="none" xmlns="http://www.w3.org/2000/svg">
<g id="Devices=phone, Size=16px, weight=light">
<path id="phone" d="M6.94904 5.17726L5.51311 3.74134C5.37983 3.60805 5.15844 3.61334 5.01863 3.75315L4.01876 4.75301C2.75305 6.01873 4.66406 8.43603 6.1079 9.87988C7.5431 11.3151 9.98117 13.2469 11.2469 11.9811L12.2468 10.9813C12.3866 10.8415 12.3918 10.6201 12.2586 10.4868L10.8226 9.05086C10.6893 8.91757 10.468 8.92286 10.3281 9.06267L9.3283 10.0625C9.3283 10.0625 8.84654 10.0616 7.37969 8.62021C5.91285 7.17883 5.93738 6.6716 5.93738 6.6716L6.93723 5.67175C7.07704 5.53194 7.08233 5.31055 6.94904 5.17726Z" stroke="black" stroke-linecap="round" stroke-linejoin="round"/>
</g>
</svg>
