<svg width="16" height="16" viewBox="0 0 16 16" fill="none" xmlns="http://www.w3.org/2000/svg">
<g id="Devices=keyboard, Size=16px, weight=light">
<path id="keyboard" d="M10.9231 10.1819L5.0769 10.1819M5.5769 7.99231C5.5769 8.13038 5.46497 8.24231 5.3269 8.24231C5.18883 8.24231 5.0769 8.13038 5.0769 7.99231C5.0769 7.85424 5.18883 7.74231 5.3269 7.74231C5.46497 7.74231 5.5769 7.85424 5.5769 7.99231ZM5.5769 6.17413C5.5769 6.3122 5.46497 6.42413 5.3269 6.42413C5.18883 6.42413 5.0769 6.3122 5.0769 6.17413C5.0769 6.03606 5.18883 5.92413 5.3269 5.92413C5.46497 5.92413 5.5769 6.03606 5.5769 6.17413ZM7.40381 7.99231C7.40381 8.13038 7.29188 8.24231 7.15381 8.24231C7.01574 8.24231 6.90381 8.13038 6.90381 7.99231C6.90381 7.85424 7.01574 7.74231 7.15381 7.74231C7.29188 7.74231 7.40381 7.85424 7.40381 7.99231ZM7.40381 6.17413C7.40381 6.3122 7.29188 6.42413 7.15381 6.42413C7.01574 6.42413 6.90381 6.3122 6.90381 6.17413C6.90381 6.03606 7.01574 5.92413 7.15381 5.92413C7.29188 5.92413 7.40381 6.03606 7.40381 6.17413ZM9.23071 7.99231C9.23071 8.13038 9.11878 8.24231 8.98071 8.24231C8.84264 8.24231 8.73071 8.13038 8.73071 7.99231C8.73071 7.85424 8.84264 7.74231 8.98071 7.74231C9.11878 7.74231 9.23071 7.85424 9.23071 7.99231ZM9.23071 6.17413C9.23071 6.3122 9.11878 6.42413 8.98071 6.42413C8.84264 6.42413 8.73071 6.3122 8.73071 6.17413C8.73071 6.03606 8.84264 5.92413 8.98071 5.92413C9.11878 5.92413 9.23071 6.03606 9.23071 6.17413ZM11.0576 7.99231C11.0576 8.13038 10.9457 8.24231 10.8076 8.24231C10.6695 8.24231 10.5576 8.13038 10.5576 7.99231C10.5576 7.85424 10.6695 7.74231 10.8076 7.74231C10.9457 7.74231 11.0576 7.85424 11.0576 7.99231ZM11.0576 6.17413C11.0576 6.3122 10.9457 6.42413 10.8076 6.42413C10.6695 6.42413 10.5576 6.3122 10.5576 6.17413C10.5576 6.03606 10.6695 5.92413 10.8076 5.92413C10.9457 5.92413 11.0576 6.03606 11.0576 6.17413ZM3.25 5.5L3.25 10.5C3.25 11.3284 3.92157 12 4.75 12L11.25 12C12.0784 12 12.75 11.3284 12.75 10.5V5.50001C12.75 4.67159 12.0784 4.00001 11.25 4.00001L4.75 4C3.92157 4 3.25 4.67157 3.25 5.5Z" stroke="black" stroke-linecap="round" stroke-linejoin="round"/>
</g>
</svg>
