<svg width="16" height="16" viewBox="0 0 16 16" fill="none" xmlns="http://www.w3.org/2000/svg">
<g id="Devices=phone, Size=16px, stroke width=1px">
<path id="phone" d="M6.94928 5.17726L5.51336 3.74134C5.38007 3.60805 5.15868 3.61334 5.01887 3.75315L4.01901 4.75301C2.75329 6.01873 4.6643 8.43603 6.10815 9.87988C7.54334 11.3151 9.98142 13.2469 11.2471 11.9811L12.247 10.9813C12.3868 10.8415 12.3921 10.6201 12.2588 10.4868L10.8229 9.05086C10.6896 8.91757 10.4682 8.92286 10.3284 9.06267L9.32854 10.0625C9.32854 10.0625 8.84678 10.0616 7.37994 8.62021C5.91309 7.17883 5.93763 6.6716 5.93763 6.6716L6.93748 5.67175C7.07729 5.53194 7.08257 5.31055 6.94928 5.17726Z" stroke="black" stroke-linecap="round" stroke-linejoin="round"/>
</g>
</svg>
