<svg width="24" height="24" viewBox="0 0 24 24" fill="none" xmlns="http://www.w3.org/2000/svg">
<g id="Devices=joystick, Size=24px, weight=regular">
<path id="joystick" d="M19.2026 15.6918L18.291 9.76677C17.9908 7.81544 16.3118 6.375 14.3376 6.375L9.66245 6.375C7.68816 6.375 6.00916 7.81544 5.70896 9.76677L4.79742 15.6918C4.64104 16.7083 5.42751 17.625 6.45596 17.625C7.03378 17.625 7.57095 17.3277 7.87781 16.8381L9.85777 13.6792C10.1138 13.2707 10.5619 13.0227 11.044 13.0227L12.956 13.0227C13.4381 13.0227 13.8862 13.2707 14.1422 13.6792L16.1222 16.8381C16.4291 17.3277 16.9662 17.625 17.544 17.625C18.5725 17.625 19.359 16.7083 19.2026 15.6918Z" stroke="black" stroke-width="1.5" stroke-linecap="round" stroke-linejoin="round"/>
</g>
</svg>
