<svg width="24" height="24" viewBox="0 0 24 24" fill="none" xmlns="http://www.w3.org/2000/svg">
<g id="Devices=phone, Size=24px, stroke width=1px">
<path id="phone" d="M10.4238 7.7659L8.26992 5.61201C8.06998 5.41208 7.7379 5.42001 7.52818 5.62972L6.02839 7.12951C4.12981 9.02809 6.99633 12.654 9.1621 14.8198C11.3149 16.9726 14.972 19.8703 16.8706 17.9717L18.3704 16.4719C18.5801 16.2622 18.588 15.9301 18.3881 15.7302L16.2342 13.5763C16.0343 13.3764 15.7022 13.3843 15.4925 13.594L13.9927 15.0938C13.9927 15.0938 13.27 15.0924 11.0698 12.9303C8.86952 10.7682 8.90632 10.0074 8.90632 10.0074L10.4061 8.50763C10.6158 8.29792 10.6237 7.96583 10.4238 7.7659Z" stroke="black" stroke-linecap="round" stroke-linejoin="round"/>
</g>
</svg>
