<svg width="24" height="24" viewBox="0 0 24 24" fill="none" xmlns="http://www.w3.org/2000/svg">
<g id="Devices=macbook-and-iphone, Size=24px, weight=regular">
<path id="macbook-and-iphone" d="M14.9028 17.625H5.94643C5.35469 17.625 4.875 17.1453 4.875 16.5535C4.875 15.9618 5.35469 15.4821 5.94643 15.4821H13.5833M18.0694 10.125V7.875C18.0694 7.04657 17.3978 6.375 16.5694 6.375L7.43055 6.37501C6.60212 6.37501 5.93055 7.04658 5.93055 7.87501L5.93055 15.4821M17.625 10.125L15.7938 10.125C14.9654 10.125 14.2938 10.7966 14.2938 11.625V16.125C14.2938 16.9534 14.9654 17.625 15.7938 17.625H17.625C18.4534 17.625 19.125 16.9534 19.125 16.125L19.125 11.625C19.125 10.7966 18.4534 10.125 17.625 10.125Z" stroke="black" stroke-width="1.5" stroke-linecap="round" stroke-linejoin="round"/>
</g>
</svg>
