<svg width="24" height="24" viewBox="0 0 24 24" fill="none" xmlns="http://www.w3.org/2000/svg">
<g id="Devices=keyboard, Size=24px, stroke width=1.5px">
<path id="keyboard" d="M16.3846 15.2728L7.61536 15.2728M8.36536 11.9885C8.36536 12.1956 8.19746 12.3635 7.99036 12.3635C7.78325 12.3635 7.61536 12.1956 7.61536 11.9885C7.61536 11.7814 7.78325 11.6135 7.99036 11.6135C8.19746 11.6135 8.36536 11.7814 8.36536 11.9885ZM8.36536 9.2612C8.36536 9.4683 8.19746 9.6362 7.99036 9.6362C7.78325 9.6362 7.61536 9.4683 7.61536 9.2612C7.61536 9.05409 7.78325 8.8862 7.99036 8.8862C8.19746 8.8862 8.36536 9.05409 8.36536 9.2612ZM11.1057 11.9885C11.1057 12.1956 10.9378 12.3635 10.7307 12.3635C10.5236 12.3635 10.3557 12.1956 10.3557 11.9885C10.3557 11.7814 10.5236 11.6135 10.7307 11.6135C10.9378 11.6135 11.1057 11.7814 11.1057 11.9885ZM11.1057 9.2612C11.1057 9.4683 10.9378 9.6362 10.7307 9.6362C10.5236 9.6362 10.3557 9.4683 10.3557 9.2612C10.3557 9.05409 10.5236 8.8862 10.7307 8.8862C10.9378 8.8862 11.1057 9.05409 11.1057 9.2612ZM13.8461 11.9885C13.8461 12.1956 13.6782 12.3635 13.4711 12.3635C13.264 12.3635 13.0961 12.1956 13.0961 11.9885C13.0961 11.7814 13.264 11.6135 13.4711 11.6135C13.6782 11.6135 13.8461 11.7814 13.8461 11.9885ZM13.8461 9.2612C13.8461 9.4683 13.6782 9.6362 13.4711 9.6362C13.264 9.6362 13.0961 9.4683 13.0961 9.2612C13.0961 9.05409 13.264 8.8862 13.4711 8.8862C13.6782 8.8862 13.8461 9.05409 13.8461 9.2612ZM16.5864 11.9885C16.5864 12.1956 16.4185 12.3635 16.2114 12.3635C16.0043 12.3635 15.8364 12.1956 15.8364 11.9885C15.8364 11.7814 16.0043 11.6135 16.2114 11.6135C16.4185 11.6135 16.5864 11.7814 16.5864 11.9885ZM16.5864 9.2612C16.5864 9.4683 16.4185 9.6362 16.2114 9.6362C16.0043 9.6362 15.8364 9.4683 15.8364 9.2612C15.8364 9.05409 16.0043 8.8862 16.2114 8.8862C16.4185 8.8862 16.5864 9.05409 16.5864 9.2612ZM4.875 8.25L4.875 15.75C4.875 16.9926 5.88236 18 7.125 18L16.875 18C18.1176 18 19.125 16.9926 19.125 15.75V8.25002C19.125 7.00738 18.1176 6.00002 16.875 6.00002L7.125 6C5.88236 6 4.875 7.00736 4.875 8.25Z" stroke="black" stroke-width="1.5" stroke-linecap="round" stroke-linejoin="round"/>
</g>
</svg>
