<svg width="24" height="24" viewBox="0 0 24 24" fill="none" xmlns="http://www.w3.org/2000/svg">
<g id="Files=clipboard, Size=24px, stroke width=1.5px">
<path id="clipboard" d="M15.375 6.51923H16.125C16.9534 6.51923 17.625 7.1908 17.625 8.01923L17.625 17.625C17.625 18.4534 16.9534 19.125 16.125 19.125L7.87501 19.125C7.04659 19.125 6.37501 18.4534 6.37501 17.625L6.375 8.01923C6.375 7.19081 7.04657 6.51923 7.875 6.51923H8.625M12 4.875C12.3527 4.875 12.6674 5.03309 12.8737 5.2805C13.1389 5.59865 13.4608 5.97115 13.875 5.97115H14.625C15.0392 5.97115 15.375 6.30694 15.375 6.72115V7.41346C15.375 7.82768 15.0392 8.16346 14.625 8.16346H9.37501C8.9608 8.16346 8.62501 7.82768 8.62501 7.41346V6.72115C8.62501 6.30694 8.9608 5.97115 9.37501 5.97115H10.125C10.5392 5.97115 10.8611 5.59865 11.1264 5.2805C11.3326 5.03309 11.6474 4.875 12 4.875Z" stroke="black" stroke-width="1.5" stroke-linecap="round" stroke-linejoin="round"/>
</g>
</svg>
