<svg width="24" height="24" viewBox="0 0 24 24" fill="none" xmlns="http://www.w3.org/2000/svg">
<g id="Files=case, Size=24px, weight=light">
<path id="case" d="M10.3558 12.548L4.875 12.548M19.125 12.548L13.6442 12.548M15.2885 7.0673C15.2885 5.85653 14.307 4.875 13.0962 4.875L10.9039 4.875C9.6931 4.875 8.71157 5.85653 8.71157 7.06731M4.87501 9.31733L4.87501 16.875C4.87501 18.1177 5.88237 19.125 7.12501 19.125L16.875 19.125C18.1176 19.125 19.125 18.1177 19.125 16.875V9.31734C19.125 8.0747 18.1176 7.06735 16.875 7.06734L7.12501 7.06733C5.88237 7.06732 4.87501 8.07468 4.87501 9.31733ZM13.6442 13.0962C13.6442 14.0043 12.9081 14.7404 12 14.7404C11.0919 14.7404 10.3558 14.0043 10.3558 13.0962C10.3558 12.1881 11.0919 11.452 12 11.452C12.9081 11.452 13.6442 12.1881 13.6442 13.0962Z" stroke="black" stroke-linecap="round" stroke-linejoin="round"/>
</g>
</svg>
