<svg width="24" height="24" viewBox="0 0 24 24" fill="none" xmlns="http://www.w3.org/2000/svg">
<g id="Files=table, Size=24px, weight=light">
<path id="table" d="M10.875 4.875H10.3125L6.37502 8.71154L6.37502 9.25962M10.875 4.875H15.375C16.6176 4.875 17.625 5.85653 17.625 7.06731L17.625 16.9327C17.625 18.1435 16.6176 19.125 15.375 19.125H8.625C7.38236 19.125 6.375 18.1435 6.375 16.9327L6.37502 9.25962M10.875 4.875V9.25962H6.37502M12 11.4519H9.37501C8.9608 11.4519 8.62501 11.7877 8.62501 12.2019V14.1923M12 11.4519H14.625C15.0392 11.4519 15.375 11.7877 15.375 12.2019V14.1923M12 11.4519V14.1923M12 16.9327H9.37501C8.9608 16.9327 8.62501 16.5969 8.62501 16.1827V14.1923M12 16.9327H14.625C15.0392 16.9327 15.375 16.5969 15.375 16.1827V14.1923M12 16.9327V14.1923M12 14.1923H15.375M12 14.1923H8.62501" stroke="black" stroke-linecap="round" stroke-linejoin="round"/>
</g>
</svg>
