<svg width="24" height="24" viewBox="0 0 24 24" fill="none" xmlns="http://www.w3.org/2000/svg">
<g id="Files=print, Size=24px, weight=light">
<path id="print" d="M17.2067 16.3846H17.625C18.4534 16.3846 19.125 15.7131 19.125 14.8846V10.7596C19.125 9.93122 18.4534 9.25964 17.625 9.25964H6.375C5.54657 9.25964 4.875 9.93122 4.875 10.7596V14.8846C4.875 15.7131 5.54657 16.3846 6.375 16.3846H6.79327M6.51924 9.25962V6.375C6.51924 5.54657 7.19081 4.875 8.01924 4.875H15.9808C16.8092 4.875 17.4808 5.54657 17.4808 6.375V9.25962M16.9327 15.1442V17.625C16.9327 18.4534 16.2611 19.125 15.4327 19.125H8.56732C7.7389 19.125 7.06732 18.4534 7.06732 17.625V15.1442C7.06732 14.3158 7.73889 13.6442 8.56732 13.6442H15.4327C16.2611 13.6442 16.9327 14.3158 16.9327 15.1442Z" stroke="black" stroke-linecap="round" stroke-linejoin="round"/>
</g>
</svg>
