<svg width="16" height="16" viewBox="0 0 16 16" fill="none" xmlns="http://www.w3.org/2000/svg">
<g id="Files=share, Size=16px, stroke width=1px">
<path id="share" d="M3.94675 9.80172C3.81339 9.38892 3.74135 8.94856 3.74135 8.49137C3.74135 6.59659 4.9788 4.99082 6.68963 4.43815M5.46118 11.9108C6.1701 12.438 7.04861 12.75 7.99997 12.75C8.95134 12.75 9.82984 12.438 10.5388 11.9108M12.0532 9.80172C12.1865 9.38892 12.2586 8.94856 12.2586 8.49137C12.2586 6.59659 11.0211 4.99082 9.31032 4.43815M9.31031 4.56035C9.31031 5.28403 8.72365 5.87069 7.99997 5.87069C7.27628 5.87069 6.68962 5.28403 6.68962 4.56035C6.68962 3.83666 7.27628 3.25 7.99997 3.25C8.72365 3.25 9.31031 3.83666 9.31031 4.56035ZM5.87069 10.9483C5.87069 11.6719 5.28403 12.2586 4.56034 12.2586C3.83666 12.2586 3.25 11.6719 3.25 10.9483C3.25 10.2246 3.83666 9.63792 4.56034 9.63792C5.28403 9.63792 5.87069 10.2246 5.87069 10.9483ZM12.75 10.9483C12.75 11.6719 12.1634 12.2586 11.4397 12.2586C10.716 12.2586 10.1293 11.6719 10.1293 10.9483C10.1293 10.2246 10.716 9.63792 11.4397 9.63792C12.1634 9.63792 12.75 10.2246 12.75 10.9483Z" stroke="black" stroke-linecap="round" stroke-linejoin="round"/>
</g>
</svg>
