<svg width="16" height="16" viewBox="0 0 16 16" fill="none" xmlns="http://www.w3.org/2000/svg">
<g id="Files=table, Size=16px, weight=regular">
<path id="table" d="M7.24999 3.25H6.87501L4.25001 5.80769L4.25001 6.17308M7.24999 3.25H10.25C11.0784 3.25 11.75 3.90435 11.75 4.71154L11.75 11.2885C11.75 12.0956 11.0784 12.75 10.25 12.75H5.75C4.92157 12.75 4.25 12.0956 4.25 11.2885L4.25001 6.17308M7.24999 3.25V6.17308H4.25001M8 7.63461H6.25001C5.97386 7.63461 5.75001 7.85847 5.75001 8.13461V9.46154M8 7.63461H9.75C10.0261 7.63461 10.25 7.85847 10.25 8.13461V9.46154M8 7.63461V9.46154M8 11.2885H6.25001C5.97386 11.2885 5.75001 11.0646 5.75001 10.7885V9.46154M8 11.2885H9.75C10.0261 11.2885 10.25 11.0646 10.25 10.7885V9.46154M8 11.2885V9.46154M8 9.46154H10.25M8 9.46154H5.75001" stroke="black" stroke-width="1.5" stroke-linecap="round" stroke-linejoin="round"/>
</g>
</svg>
