<svg width="16" height="16" viewBox="0 0 16 16" fill="none" xmlns="http://www.w3.org/2000/svg">
<g id="Files=add-text, Size=16px, stroke width=1px">
<g id="Group 6881">
<g id="Group 6880">
<path id="Rectangle 889" d="M6.03212 9.60987C6.2166 9.09642 6.51125 8.63011 6.89517 8.24408L11.3734 3.74118C11.7803 3.332 12.4401 3.332 12.847 3.74119V3.74119C13.254 4.15037 13.254 4.81378 12.847 5.22296L8.36882 9.72586C7.9849 10.1119 7.52116 10.4082 7.01052 10.5937L6.52594 10.7697C6.10966 10.9209 5.70668 10.5157 5.85707 10.0971L6.03212 9.60987Z" stroke="black" stroke-linecap="round" stroke-linejoin="round"/>
<line id="Line 15" x1="0.5" y1="-0.5" x2="1.82567" y2="-0.5" transform="matrix(0.70516 0.709048 -0.70516 0.709048 10.6362 4.48169)" stroke="black" stroke-linecap="round" stroke-linejoin="round"/>
</g>
<path id="Rectangle 890" d="M8.96847 3.5H7.25C5.36438 3.5 4.42157 3.5 3.83579 4.08579C3.25 4.67157 3.25 5.61438 3.25 7.5V9C3.25 10.8856 3.25 11.8284 3.83579 12.4142C4.42157 13 5.36438 13 7.25 13H8.69791C10.5835 13 11.5263 13 12.1121 12.4142C12.6979 11.8284 12.6979 10.8856 12.6979 9V8" stroke="black" stroke-linecap="round" stroke-linejoin="round"/>
</g>
</g>
</svg>
