<svg width="16" height="16" viewBox="0 0 16 16" fill="none" xmlns="http://www.w3.org/2000/svg">
<g id="Files=case, Size=16px, weight=regular">
<path id="case" d="M6.90384 8.36537L3.25 8.36536M12.75 8.36537L9.09616 8.36536M10.1923 4.71154C10.1923 3.90435 9.53798 3.25 8.73079 3.25L7.26925 3.25C6.46206 3.25 5.80771 3.90435 5.80771 4.71154M3.25001 6.21155L3.25001 11.25C3.25001 12.0784 3.92158 12.75 4.75001 12.75L11.25 12.75C12.0784 12.75 12.75 12.0784 12.75 11.25V6.21156C12.75 5.38314 12.0784 4.71156 11.25 4.71156L4.75001 4.71155C3.92158 4.71155 3.25001 5.38312 3.25001 6.21155ZM9.09615 8.7308C9.09615 9.33619 8.60539 9.82695 8 9.82695C7.39461 9.82695 6.90384 9.33619 6.90384 8.7308C6.90384 8.12541 7.39461 7.63464 8 7.63464C8.60539 7.63464 9.09615 8.12541 9.09615 8.7308Z" stroke="black" stroke-width="1.5" stroke-linecap="round" stroke-linejoin="round"/>
</g>
</svg>
