<svg width="16" height="16" viewBox="0 0 16 16" fill="none" xmlns="http://www.w3.org/2000/svg">
<g id="Files=clipboard-text, Size=16px, stroke width=1px">
<path id="clipboard-text" d="M10.25 4.34615H10.75C11.3023 4.34615 11.75 4.79387 11.75 5.34615L11.75 11.75C11.75 12.3023 11.3023 12.75 10.75 12.75L5.25001 12.75C4.69772 12.75 4.25001 12.3023 4.25001 11.75L4.25 5.34616C4.25 4.79387 4.69771 4.34615 5.25 4.34615H5.75M6.12501 8.36539H9.12501M6.12501 10.1923H7.62501M8.00001 3.25C8.23511 3.25 8.44494 3.35539 8.58245 3.52033C8.75928 3.73243 8.97387 3.98077 9.25001 3.98077H9.75001C10.0262 3.98077 10.25 4.20463 10.25 4.48077V4.94231C10.25 5.21845 10.0262 5.44231 9.75001 5.44231H6.25001C5.97387 5.44231 5.75001 5.21845 5.75001 4.94231V4.48077C5.75001 4.20463 5.97387 3.98077 6.25001 3.98077H6.75001C7.02615 3.98077 7.24074 3.73243 7.41757 3.52033C7.55508 3.35539 7.76491 3.25 8.00001 3.25Z" stroke="black" stroke-linecap="round" stroke-linejoin="round"/>
</g>
</svg>
