<svg width="32" height="32" viewBox="0 0 32 32" fill="none" xmlns="http://www.w3.org/2000/svg">
<g id="Files=add-text, Size=32px, weight=light">
<g id="Group 6881">
<g id="Group 6880">
<path id="Rectangle 889" d="M12.0638 19.2193C12.4327 18.1924 13.022 17.2598 13.7898 16.4877L22.7463 7.48191C23.5601 6.66355 24.8797 6.66355 25.6936 7.48191V7.48191C26.5074 8.30028 26.5074 9.6271 25.6936 10.4455L16.7371 19.4513C15.9693 20.2233 15.0418 20.8159 14.0206 21.1869L13.0514 21.5389C12.2188 21.8413 11.4129 21.0309 11.7136 20.1938L12.0638 19.2193Z" stroke="black" stroke-linecap="round" stroke-linejoin="round"/>
<line id="Line 15" x1="0.5" y1="-0.5" x2="4.15134" y2="-0.5" transform="matrix(0.70516 0.709048 -0.70516 0.709048 21.2725 8.96362)" stroke="black" stroke-linecap="round" stroke-linejoin="round"/>
</g>
<path id="Rectangle 890" d="M17.9369 7.00003H14.5C10.7288 7.00003 8.84315 7.00003 7.67157 8.1716C6.5 9.34318 6.5 11.2288 6.5 15V18C6.5 21.7713 6.5 23.6569 7.67157 24.8285C8.84315 26 10.7288 26 14.5 26H17.3958C21.167 26 23.0527 26 24.2242 24.8285C25.3958 23.6569 25.3958 21.7713 25.3958 18V16" stroke="black" stroke-linecap="round" stroke-linejoin="round"/>
</g>
</g>
</svg>
