<svg width="24" height="24" viewBox="0 0 24 24" fill="none" xmlns="http://www.w3.org/2000/svg">
<g id="Files=save, Size=24px, weight=light">
<path id="save" d="M8.71154 7.06729V8.71152M14.7404 13.6442C14.7404 15.1577 13.5135 16.3846 12 16.3846C10.4865 16.3846 9.25961 15.1577 9.25961 13.6442C9.25961 12.1307 10.4865 10.9038 12 10.9038C13.5135 10.9038 14.7404 12.1307 14.7404 13.6442ZM7.875 19.125L16.125 19.125C17.7819 19.125 19.125 17.7818 19.125 16.125V9.40609C19.125 8.61044 18.8089 7.84737 18.2463 7.28476L16.7152 5.75367C16.1526 5.19107 15.3895 4.875 14.5939 4.875L7.875 4.87501C6.21814 4.87501 4.875 6.21816 4.875 7.87501L4.875 16.125C4.875 17.7818 6.21815 19.125 7.875 19.125Z" stroke="black" stroke-linecap="round" stroke-linejoin="round"/>
</g>
</svg>
