<svg width="24" height="24" viewBox="0 0 24 24" fill="none" xmlns="http://www.w3.org/2000/svg">
<g id="Files=add-text, Size=24px, stroke width=1px">
<g id="Group 6881">
<g id="Group 6880">
<path id="Rectangle 889" d="M9.04782 14.4146C9.32453 13.6444 9.76651 12.9449 10.3424 12.3659L17.0597 5.61153C17.6701 4.99776 18.6598 4.99776 19.2702 5.61153V5.61153C19.8806 6.22531 19.8806 7.22043 19.2702 7.8342L12.5529 14.5885C11.977 15.1676 11.2814 15.612 10.5154 15.8902L9.78854 16.1543C9.16413 16.3811 8.55966 15.7733 8.78523 15.1454L9.04782 14.4146Z" stroke="black" stroke-linecap="round" stroke-linejoin="round"/>
<line id="Line 15" x1="0.5" y1="-0.5" x2="2.98851" y2="-0.5" transform="matrix(0.70516 0.709048 -0.70516 0.709048 15.9543 6.72266)" stroke="black" stroke-linecap="round" stroke-linejoin="round"/>
</g>
<path id="Rectangle 890" d="M13.4527 5.25H10.875C8.04657 5.25 6.63236 5.25 5.75368 6.12868C4.875 7.00736 4.875 8.42157 4.875 11.25V13.5C4.875 16.3284 4.875 17.7426 5.75368 18.6213C6.63236 19.5 8.04657 19.5 10.875 19.5H13.0469C15.8753 19.5 17.2895 19.5 18.1682 18.6213C19.0469 17.7426 19.0469 16.3284 19.0469 13.5V12" stroke="black" stroke-linecap="round" stroke-linejoin="round"/>
</g>
</g>
</svg>
