<svg width="16" height="16" viewBox="0 0 16 16" fill="none" xmlns="http://www.w3.org/2000/svg">
<g id="Files=save, Size=16px, weight=light">
<path id="save" d="M5.80769 4.71153V5.80768M9.82692 9.09614C9.82692 10.1051 9.00898 10.9231 8 10.9231C6.99102 10.9231 6.17308 10.1051 6.17308 9.09614C6.17308 8.08716 6.99102 7.26922 8 7.26922C9.00898 7.26922 9.82692 8.08716 9.82692 9.09614ZM5.25 12.75L10.75 12.75C11.8546 12.75 12.75 11.8546 12.75 10.75V6.27073C12.75 5.74029 12.5393 5.23158 12.1642 4.85651L11.1435 3.83578C10.7684 3.46071 10.2597 3.25 9.72926 3.25L5.25 3.25001C4.14543 3.25001 3.25 4.14544 3.25 5.25001L3.25 10.75C3.25 11.8546 4.14543 12.75 5.25 12.75Z" stroke="black" stroke-linecap="round" stroke-linejoin="round"/>
</g>
</svg>
