<svg width="16" height="16" viewBox="0 0 16 16" fill="none" xmlns="http://www.w3.org/2000/svg">
<g id="Files=print, Size=16px, weight=light">
<path id="print" d="M11.4712 10.9231H11.75C12.3023 10.9231 12.75 10.4754 12.75 9.9231V7.1731C12.75 6.62081 12.3023 6.1731 11.75 6.1731H4.25C3.69772 6.1731 3.25 6.62081 3.25 7.1731V9.9231C3.25 10.4754 3.69772 10.9231 4.25 10.9231H4.52885M4.34616 6.17308V4.25C4.34616 3.69771 4.79388 3.25 5.34616 3.25H10.6539C11.2061 3.25 11.6539 3.69772 11.6539 4.25V6.17308M11.2885 10.0961V11.75C11.2885 12.3023 10.8408 12.75 10.2885 12.75H5.71155C5.15926 12.75 4.71155 12.3023 4.71155 11.75V10.0961C4.71155 9.54385 5.15926 9.09613 5.71155 9.09613H10.2885C10.8408 9.09613 11.2885 9.54385 11.2885 10.0961Z" stroke="black" stroke-linecap="round" stroke-linejoin="round"/>
</g>
</svg>
