<svg width="16" height="16" viewBox="0 0 16 16" fill="none" xmlns="http://www.w3.org/2000/svg">
<g id="Files=add-text, Size=16px, weight=regular">
<g id="Group 6881">
<g id="Group 6880">
<path id="Rectangle 889" d="M6.03188 9.60969C6.21635 9.09623 6.51101 8.62993 6.89492 8.2439L11.3731 3.741C11.7801 3.33182 12.4398 3.33182 12.8468 3.741V3.741C13.2537 4.15018 13.2537 4.8136 12.8468 5.22278L8.36857 9.72568C7.98466 10.1117 7.52091 10.408 7.01028 10.5935L6.5257 10.7695C6.10942 10.9207 5.70644 10.5155 5.85682 10.0969L6.03188 9.60969Z" stroke="black" stroke-width="1.5" stroke-linecap="round" stroke-linejoin="round"/>
<line id="Line 15" x1="0.75" y1="-0.75" x2="1.57567" y2="-0.75" transform="matrix(0.70516 0.709048 -0.70516 0.709048 10.6362 4.48175)" stroke="black" stroke-width="1.5" stroke-linecap="round" stroke-linejoin="round"/>
</g>
<path id="Rectangle 890" d="M8.96847 3.5H7.25C5.36438 3.5 4.42157 3.5 3.83579 4.08579C3.25 4.67157 3.25 5.61438 3.25 7.5V9C3.25 10.8856 3.25 11.8284 3.83579 12.4142C4.42157 13 5.36438 13 7.25 13H8.69791C10.5835 13 11.5263 13 12.1121 12.4142C12.6979 11.8284 12.6979 10.8856 12.6979 9V8" stroke="black" stroke-width="1.5" stroke-linecap="round" stroke-linejoin="round"/>
</g>
</g>
</svg>
