<svg width="32" height="32" viewBox="0 0 32 32" fill="none" xmlns="http://www.w3.org/2000/svg">
<g id="Files=case, Size=32px, weight=regular">
<path id="case" d="M13.8077 16.7307L6.5 16.7307M25.5 16.7307L18.1923 16.7307M20.3847 9.42307C20.3847 7.8087 19.076 6.5 17.4616 6.5L14.5385 6.5C12.9241 6.5 11.6154 7.80871 11.6154 9.42308M6.50001 12.4231L6.50001 22.5C6.50001 24.1569 7.84316 25.5 9.50001 25.5L22.5 25.5C24.1569 25.5 25.5 24.1569 25.5 22.5V12.4231C25.5 10.7663 24.1569 9.42313 22.5 9.42312L9.50002 9.4231C7.84316 9.4231 6.50001 10.7662 6.50001 12.4231ZM18.1923 17.4616C18.1923 18.6724 17.2108 19.6539 16 19.6539C14.7892 19.6539 13.8077 18.6724 13.8077 17.4616C13.8077 16.2508 14.7892 15.2693 16 15.2693C17.2108 15.2693 18.1923 16.2508 18.1923 17.4616Z" stroke="black" stroke-width="1.5" stroke-linecap="round" stroke-linejoin="round"/>
</g>
</svg>
