<svg width="24" height="24" viewBox="0 0 24 24" fill="none" xmlns="http://www.w3.org/2000/svg">
<g id="Files=add-text, Size=24px, weight=light">
<g id="Group 6881">
<g id="Group 6880">
<path id="Rectangle 889" d="M9.04758 14.4145C9.32428 13.6443 9.76627 12.9448 10.3421 12.3658L17.0594 5.61144C17.6699 4.99767 18.6595 4.99767 19.2699 5.61144V5.61144C19.8803 6.22522 19.8803 7.22034 19.2699 7.83411L12.5526 14.5885C11.9767 15.1675 11.2811 15.6119 10.5152 15.8902L9.7883 16.1542C9.16389 16.381 8.55942 15.7732 8.78499 15.1453L9.04758 14.4145Z" stroke="black" stroke-linecap="round" stroke-linejoin="round"/>
<line id="Line 15" x1="0.5" y1="-0.5" x2="2.98851" y2="-0.5" transform="matrix(0.70516 0.709048 -0.70516 0.709048 15.9546 6.72272)" stroke="black" stroke-linecap="round" stroke-linejoin="round"/>
</g>
<path id="Rectangle 890" d="M13.4527 5.25H10.875C8.04657 5.25 6.63236 5.25 5.75368 6.12868C4.875 7.00736 4.875 8.42157 4.875 11.25V13.5C4.875 16.3284 4.875 17.7426 5.75368 18.6213C6.63236 19.5 8.04657 19.5 10.875 19.5H13.0469C15.8753 19.5 17.2895 19.5 18.1682 18.6213C19.0469 17.7426 19.0469 16.3284 19.0469 13.5V12" stroke="black" stroke-linecap="round" stroke-linejoin="round"/>
</g>
</g>
</svg>
