<svg width="32" height="32" viewBox="0 0 32 32" fill="none" xmlns="http://www.w3.org/2000/svg">
<g id="Files=add-text, Size=32px, stroke width=1.5px">
<g id="Group 6881">
<g id="Group 6880">
<path id="Rectangle 889" d="M12.0642 19.2195C12.4332 18.1926 13.0225 17.26 13.7903 16.4879L22.7467 7.48212C23.5606 6.66376 24.8802 6.66376 25.694 7.48213V7.48213C26.5079 8.30049 26.5079 9.62732 25.694 10.4457L16.7376 19.4515C15.9698 20.2235 15.0423 20.8161 14.021 21.1871L13.0519 21.5391C12.2193 21.8415 11.4134 21.0311 11.7141 20.194L12.0642 19.2195Z" stroke="black" stroke-width="1.5" stroke-linecap="round" stroke-linejoin="round"/>
<line id="Line 15" x1="0.75" y1="-0.75" x2="3.90134" y2="-0.75" transform="matrix(0.70516 0.709048 -0.70516 0.709048 21.2727 8.96387)" stroke="black" stroke-width="1.5" stroke-linecap="round" stroke-linejoin="round"/>
</g>
<path id="Rectangle 890" d="M17.9369 7H14.5C10.7288 7 8.84315 7 7.67157 8.17157C6.5 9.34315 6.5 11.2288 6.5 15V18C6.5 21.7712 6.5 23.6569 7.67157 24.8284C8.84315 26 10.7288 26 14.5 26H17.3958C21.167 26 23.0527 26 24.2242 24.8284C25.3958 23.6569 25.3958 21.7712 25.3958 18V16" stroke="black" stroke-width="1.5" stroke-linecap="round" stroke-linejoin="round"/>
</g>
</g>
</svg>
