<svg width="24" height="24" viewBox="0 0 24 24" fill="none" xmlns="http://www.w3.org/2000/svg">
<g id="Files=share, Size=24px, stroke width=1.5px">
<path id="share" d="M5.92012 14.7026C5.72009 14.0834 5.61203 13.4228 5.61203 12.7371C5.61203 9.89488 7.4682 7.48624 10.0344 6.65722M8.19177 17.8662C9.25516 18.6571 10.5729 19.125 12 19.125C13.427 19.125 14.7448 18.657 15.8081 17.8662M18.0798 14.7026C18.2798 14.0834 18.3879 13.4228 18.3879 12.7371C18.3879 9.89488 16.5317 7.48624 13.9655 6.65722M13.9655 6.84052C13.9655 7.92604 13.0855 8.80604 11.9999 8.80604C10.9144 8.80604 10.0344 7.92604 10.0344 6.84052C10.0344 5.75499 10.9144 4.875 11.9999 4.875C13.0855 4.875 13.9655 5.75499 13.9655 6.84052ZM8.80603 16.4224C8.80603 17.5079 7.92604 18.3879 6.84052 18.3879C5.75499 18.3879 4.875 17.5079 4.875 16.4224C4.875 15.3369 5.75499 14.4569 6.84052 14.4569C7.92604 14.4569 8.80603 15.3369 8.80603 16.4224ZM19.125 16.4224C19.125 17.5079 18.245 18.3879 17.1595 18.3879C16.074 18.3879 15.194 17.5079 15.194 16.4224C15.194 15.3369 16.074 14.4569 17.1595 14.4569C18.245 14.4569 19.125 15.3369 19.125 16.4224Z" stroke="black" stroke-width="1.5" stroke-linecap="round" stroke-linejoin="round"/>
</g>
</svg>
