<svg width="32" height="32" viewBox="0 0 32 32" fill="none" xmlns="http://www.w3.org/2000/svg">
<g id="Files=table, Size=32px, stroke width=1px">
<path id="table" d="M14.5 6.5H13.75L8.50002 11.6154L8.50002 12.3462M14.5 6.5H20.5C22.1569 6.5 23.5 7.80871 23.5 9.42308L23.5 22.5769C23.5 24.1913 22.1569 25.5 20.5 25.5H11.5C9.84314 25.5 8.5 24.1913 8.5 22.5769L8.50002 12.3462M14.5 6.5V12.3462H8.50002M16 15.2692H12.5C11.9477 15.2692 11.5 15.7169 11.5 16.2692V18.9231M16 15.2692H19.5C20.0523 15.2692 20.5 15.7169 20.5 16.2692V18.9231M16 15.2692V18.9231M16 22.5769H12.5C11.9477 22.5769 11.5 22.1292 11.5 21.5769V18.9231M16 22.5769H19.5C20.0523 22.5769 20.5 22.1292 20.5 21.5769V18.9231M16 22.5769V18.9231M16 18.9231H20.5M16 18.9231H11.5" stroke="black" stroke-linecap="round" stroke-linejoin="round"/>
</g>
</svg>
