<svg width="24" height="24" viewBox="0 0 24 24" fill="none" xmlns="http://www.w3.org/2000/svg">
<g id="Files=glasses, Size=24px, weight=regular">
<path id="glasses" d="M10.3558 16.3846C10.3558 17.8981 9.12886 19.125 7.61538 19.125C6.10191 19.125 4.875 17.8981 4.875 16.3846C4.875 14.8711 6.10191 13.6442 7.61538 13.6442C9.12886 13.6442 10.3558 14.8711 10.3558 16.3846ZM10.3558 16.3846H13.6442M13.6442 16.3846C13.6442 17.8981 14.8711 19.125 16.3846 19.125C17.8981 19.125 19.125 17.8981 19.125 16.3846C19.125 14.8711 17.8981 13.6442 16.3846 13.6442C14.8711 13.6442 13.6442 14.8711 13.6442 16.3846ZM9.25962 4.875C8.04884 4.875 7.34135 5.69712 7.06731 7.06731L4.875 16.1107M14.7404 4.875C15.9512 4.875 16.6586 5.69712 16.9327 7.06731L19.125 16.1107" stroke="black" stroke-width="1.5" stroke-linecap="round" stroke-linejoin="round"/>
</g>
</svg>
