<svg width="16" height="16" viewBox="0 0 16 16" fill="none" xmlns="http://www.w3.org/2000/svg">
<g id="Files=glasses, Size=16px, stroke width=1px">
<path id="glasses" d="M6.90385 10.9231C6.90385 11.9321 6.0859 12.75 5.07692 12.75C4.06794 12.75 3.25 11.9321 3.25 10.9231C3.25 9.91409 4.06794 9.09615 5.07692 9.09615C6.0859 9.09615 6.90385 9.91409 6.90385 10.9231ZM6.90385 10.9231H9.09615M9.09615 10.9231C9.09615 11.9321 9.91409 12.75 10.9231 12.75C11.9321 12.75 12.75 11.9321 12.75 10.9231C12.75 9.91409 11.9321 9.09615 10.9231 9.09615C9.91409 9.09615 9.09615 9.91409 9.09615 10.9231ZM6.17308 3.25C5.36589 3.25 4.89423 3.79808 4.71154 4.71154L3.25 10.7405M9.82692 3.25C10.6341 3.25 11.1058 3.79808 11.2885 4.71154L12.75 10.7405" stroke="black" stroke-linecap="round" stroke-linejoin="round"/>
</g>
</svg>
