<svg width="16" height="16" viewBox="0 0 16 16" fill="none" xmlns="http://www.w3.org/2000/svg">
<g id="Generic=partners, Size=16px, weight=regular">
<path id="partners" d="M7.61184 9.76928L8.52179 11.4099M6.29676 10.8425L6.88642 11.869M9.69688 11.7839C9.43174 11.8966 8.9248 12.107 8.51755 11.4035M7.84516 12.2239C7.84516 12.2239 7.29155 12.6064 6.88855 11.869M5.49923 4.03555V4.03555C3.84319 4.03555 2.50107 5.37873 2.5024 7.03477L2.50351 8.41731C2.50391 8.92584 2.91627 9.33787 3.4248 9.33787V9.33787L4.9435 11.9497C5.30409 12.5596 5.8683 12.5278 6.12707 12.4725M12.0237 10.2921C11.9134 10.6066 11.1986 12.4491 10.2781 10.8361L8.99479 8.82145M12.0237 10.1922V10.1922C12.8383 10.1922 13.498 9.5305 13.4954 8.71591L13.4878 6.23085C13.4849 5.301 12.9328 4.4607 12.0806 4.08888V4.08888C11.1966 3.70325 10.2428 3.50349 9.27838 3.50203L7.94061 3.5C7.94061 3.5 7.31277 3.5085 6.68916 4.29482L5.57776 5.7461C5.1186 6.34568 5.00345 7.36328 5.75045 7.47426C6.01335 7.51332 6.33012 7.44335 6.69765 7.16168L7.81396 6.02685C8.02437 5.81294 8.19042 5.69309 8.4893 5.71967V5.71967C8.98459 5.76371 9.56262 6.0531 9.81675 6.4805L12.0237 10.1922Z" stroke="black" stroke-width="1.5" stroke-linecap="round" stroke-linejoin="round"/>
</g>
</svg>
