<svg width="32" height="32" viewBox="0 0 32 32" fill="none" xmlns="http://www.w3.org/2000/svg">
<g id="Generic=multi-bet, Size=32px, weight=light">
<path id="multi-bet" d="M21.3094 24.3273C21.2347 25.3598 21.1308 26.3816 20.9917 27.3745C20.9579 27.6158 20.6659 27.7217 20.4773 27.5632L19.0785 26.3877C18.8531 26.1982 18.5237 26.1877 18.2862 26.3624L16.5389 27.6472C16.3137 27.8128 16.004 27.8128 15.7788 27.6472L14.0051 26.3429C13.7798 26.1773 13.4701 26.1773 13.2449 26.3429L11.4712 27.6472C11.246 27.8128 10.9363 27.8128 10.7111 27.6472L8.9638 26.3624C8.72628 26.1877 8.3969 26.1982 8.17147 26.3877L6.76641 27.5685C6.57916 27.7259 6.28893 27.6225 6.25161 27.3835C5.24485 20.9361 5.68097 14.6477 6.15126 10.8388C6.25107 10.0304 6.89833 9.39914 7.72431 9.31436C8.14755 9.27092 8.57827 9.23422 9.0136 9.20358M13.4462 8.79588H18.1972M13.4462 12.5224H23.5817M13.4462 16.249H23.5817M8.15988 19.5973H10.1768M8.15988 15.8536H10.1768M24.2935 4.49478C21.3835 4.25301 16.6568 4.05368 12.6133 4.46868C11.7873 4.55346 11.14 5.18476 11.0402 5.99314C10.5699 9.80199 10.1338 16.0904 11.1406 22.5378C11.1779 22.7768 11.4681 22.8802 11.6554 22.7228L13.0604 21.542C13.2859 21.3525 13.6152 21.342 13.8528 21.5167L15.6 22.8015C15.8253 22.9672 16.1349 22.9672 16.3602 22.8015L18.1339 21.4972C18.3591 21.3316 18.6688 21.3316 18.894 21.4972L20.6677 22.8015C20.893 22.9672 21.2026 22.9672 21.4279 22.8015L23.1751 21.5167C23.4127 21.342 23.742 21.3525 23.9675 21.542L25.3662 22.7175C25.5548 22.876 25.8469 22.7701 25.8807 22.5288C26.6735 16.8686 26.3229 10.2674 25.9474 6.11407C25.8692 5.24893 25.1762 4.56811 24.2935 4.49478Z" stroke="black" stroke-linecap="round" stroke-linejoin="round"/>
</g>
</svg>
