<svg width="24" height="24" viewBox="0 0 24 24" fill="none" xmlns="http://www.w3.org/2000/svg">
<g id="Generic=multi-bet, Size=24px, weight=light">
<path id="multi-bet" d="M15.6703 17.7558C15.6186 18.4695 15.5468 19.1758 15.4507 19.8621C15.4273 20.0289 15.2254 20.1021 15.0951 19.9925L14.1282 19.18C13.9724 19.0491 13.7447 19.0418 13.5806 19.1625L12.3728 20.0506C12.2172 20.1651 12.0031 20.1651 11.8474 20.0506L10.6214 19.1491C10.4657 19.0346 10.2517 19.0346 10.096 19.1491L8.87 20.0506C8.71432 20.1651 8.50025 20.1651 8.34457 20.0506L7.13685 19.1625C6.97267 19.0418 6.745 19.0491 6.58919 19.18L5.618 19.9962C5.48857 20.105 5.28796 20.0335 5.26216 19.8683C4.56628 15.4118 4.86773 11.0652 5.1928 8.4325C5.26179 7.87374 5.70918 7.43738 6.28011 7.37879C6.57265 7.34876 6.87037 7.32339 7.17128 7.30222M10.2352 7.0204H13.5191M10.2352 9.59624H17.2408M10.2352 12.1721H17.2408M6.58118 14.4865H7.97532M6.58118 11.8988H7.97532M17.7329 4.04745C15.7215 3.88034 12.4543 3.74256 9.65941 4.02941C9.08848 4.08801 8.64109 4.52437 8.57209 5.08313C8.24703 7.71584 7.94558 12.0624 8.64146 16.5189C8.66726 16.6842 8.86787 16.7556 8.9973 16.6468L9.96849 15.8306C10.1243 15.6997 10.352 15.6924 10.5162 15.8131L11.7239 16.7012C11.8796 16.8157 12.0936 16.8157 12.2493 16.7012L13.4753 15.7997C13.631 15.6852 13.845 15.6852 14.0007 15.7997L15.2267 16.7012C15.3824 16.8157 15.5965 16.8157 15.7521 16.7012L16.9599 15.8131C17.124 15.6924 17.3517 15.6997 17.5075 15.8306L18.4744 16.6432C18.6047 16.7527 18.8066 16.6795 18.83 16.5128C19.378 12.6003 19.1356 8.03755 18.8761 5.16672C18.822 4.56873 18.343 4.09813 17.7329 4.04745Z" stroke="black" stroke-linecap="round" stroke-linejoin="round"/>
</g>
</svg>
