<svg width="16" height="16" viewBox="0 0 16 16" fill="none" xmlns="http://www.w3.org/2000/svg">
<g id="Generic=picture, Size=16px, weight=regular">
<path id="picture" d="M10.5577 12.75L8.54808 10.7404M12.75 10.9231L10.5577 8.73077L8.54808 10.7404M8.54808 10.7404L5.44231 7.63461L3.61538 9.46154L3.25 9.82692M3.25 9.82692L3.25 4.71154C3.25 3.90435 3.90436 3.25 4.71154 3.25L11.2885 3.25001C12.0957 3.25002 12.75 3.90437 12.75 4.71155L12.75 11.2885C12.75 12.0956 12.0956 12.75 11.2885 12.75L4.71154 12.75C3.90435 12.75 3.25 12.0956 3.25 11.2885L3.25 9.82692ZM11.2885 5.80769C11.2885 6.41308 10.7977 6.90384 10.1923 6.90384C9.58692 6.90384 9.09616 6.41308 9.09616 5.80769C9.09616 5.2023 9.58692 4.71154 10.1923 4.71154C10.7977 4.71154 11.2885 5.2023 11.2885 5.80769Z" stroke="black" stroke-width="1.5" stroke-linecap="round" stroke-linejoin="round"/>
</g>
</svg>
