<svg width="16" height="16" viewBox="0 0 16 16" fill="none" xmlns="http://www.w3.org/2000/svg">
<g id="Generic=bookmark-alternative, Size=16px, weight=light">
<path id="Vector" d="M7.99799 10.7308C7.7322 10.7308 7.45588 10.8577 7.24132 10.9751C7.00354 11.1052 6.74203 11.2814 6.47987 11.4746C5.95398 11.8622 5.38345 12.3497 4.92389 12.7595C4.81247 12.8588 4.69236 12.8739 4.60992 12.8524C4.53636 12.8333 4.47015 12.7818 4.44404 12.6661C4.23353 11.7331 4 10.2021 4 8C4 5.83748 4.25345 4.40406 4.46826 3.57731C4.58211 3.1391 4.94374 2.8178 5.42635 2.73231C6.07456 2.61748 6.98607 2.5 7.99799 2.5C8.99629 2.5 9.89691 2.61435 10.5434 2.72769C11.0394 2.81465 11.4166 3.14856 11.5386 3.60516C11.7684 4.46549 12.0357 5.9268 11.9961 7.9904C11.9522 10.2762 11.5783 11.8316 11.269 12.7406C11.2342 12.8426 11.1716 12.8813 11.1034 12.892C11.0247 12.9044 10.9103 12.8799 10.8094 12.7764C10.4096 12.366 9.90951 11.8775 9.43838 11.4883C9.20358 11.2943 8.96475 11.1156 8.74133 10.9829C8.53846 10.8623 8.27026 10.7308 7.99799 10.7308Z" stroke="black" stroke-linecap="round" stroke-linejoin="round"/>
</g>
</svg>
