<svg width="16" height="16" viewBox="0 0 16 16" fill="none" xmlns="http://www.w3.org/2000/svg">
<g id="Generic=ticket, Size=16px, stroke width=1.5px">
<path id="Subtract" d="M2.5 5C2.5 4.44772 2.92981 4 3.46 4H12.54C13.0702 4 13.5 4.44772 13.5 5V5.5C13.5 6.05228 13.0017 6.48292 12.5832 6.84328C12.2636 7.11841 12.06 7.53443 12.06 8C12.06 8.46557 12.2636 8.88159 12.5832 9.15672C13.0017 9.51708 13.5 9.94772 13.5 10.5V11C13.5 11.5523 13.0702 12 12.54 12H3.46C2.92981 12 2.5 11.5523 2.5 11V10.5C2.5 9.94772 2.99833 9.51708 3.41685 9.15672C3.73638 8.88159 3.94 8.46557 3.94 8C3.94 7.53443 3.73638 7.11841 3.41685 6.84328C2.99833 6.48292 2.5 6.05228 2.5 5.5V5Z" stroke="black" stroke-width="1.5" stroke-linecap="round" stroke-linejoin="round"/>
<line id="Line 1" x1="6.25" y1="4.75" x2="6.25" y2="11.25" stroke="black" stroke-width="1.5" stroke-linecap="round" stroke-linejoin="round"/>
</g>
</svg>
