<svg width="16" height="16" viewBox="0 0 16 16" fill="none" xmlns="http://www.w3.org/2000/svg">
<g id="Generic=mention, Size=16px, stroke width=1.5px">
<path id="mention" d="M10.1923 6.17308V9.64423C10.1923 10.5577 10.5822 10.9231 11.2885 10.9231C12.3846 10.9231 12.75 9.00763 12.75 8C12.75 5.37665 10.6234 3.25 8 3.25C5.37665 3.25 3.25 5.37665 3.25 8C3.25 10.6234 5.37665 12.75 8 12.75M8 10.1923C6.78922 10.1923 5.80769 9.21078 5.80769 8C5.80769 6.78922 6.78922 5.80769 8 5.80769C9.21078 5.80769 10.1923 6.78922 10.1923 8C10.1923 9.21078 9.21078 10.1923 8 10.1923Z" stroke="black" stroke-width="1.5" stroke-linecap="round" stroke-linejoin="round"/>
</g>
</svg>
