<svg width="24" height="24" viewBox="0 0 24 24" fill="none" xmlns="http://www.w3.org/2000/svg">
<g id="Generic=multi-bet, Size=24px, weight=regular">
<path id="multi-bet" d="M15.6703 17.756C15.6186 18.4696 15.5468 19.176 15.4507 19.8623C15.4273 20.029 15.2254 20.1022 15.0951 19.9927L14.1282 19.1801C13.9724 19.0492 13.7447 19.0419 13.5806 19.1626L12.3728 20.0507C12.2172 20.1652 12.0031 20.1652 11.8474 20.0507L10.6214 19.1492C10.4657 19.0347 10.2517 19.0347 10.096 19.1492L8.87 20.0507C8.71432 20.1652 8.50025 20.1652 8.34457 20.0507L7.13685 19.1626C6.97267 19.0419 6.745 19.0492 6.58919 19.1801L5.618 19.9963C5.48857 20.1051 5.28796 20.0337 5.26216 19.8684C4.56628 15.4119 4.86773 11.0653 5.1928 8.43263C5.26179 7.87387 5.70918 7.4375 6.28011 7.37891C6.57265 7.34888 6.87037 7.32351 7.17128 7.30234M10.2352 7.02053H13.5191M10.2352 9.59636H17.2408M10.2352 12.1722H17.2408M6.58118 14.4866H7.97532M6.58118 11.8989H7.97532M17.7329 4.04757C15.7215 3.88046 12.4543 3.74268 9.65941 4.02953C9.08848 4.08813 8.64109 4.52449 8.57209 5.08325C8.24703 7.71596 7.94558 12.0626 8.64146 16.5191C8.66726 16.6843 8.86787 16.7557 8.9973 16.6469L9.96849 15.8308C10.1243 15.6998 10.352 15.6925 10.5162 15.8133L11.7239 16.7014C11.8796 16.8159 12.0936 16.8159 12.2493 16.7014L13.4753 15.7998C13.631 15.6853 13.845 15.6853 14.0007 15.7998L15.2267 16.7014C15.3824 16.8159 15.5965 16.8159 15.7521 16.7014L16.9599 15.8133C17.124 15.6925 17.3517 15.6998 17.5075 15.8308L18.4744 16.6433C18.6047 16.7528 18.8066 16.6797 18.83 16.5129C19.378 12.6004 19.1356 8.03767 18.8761 5.16684C18.822 4.56885 18.343 4.09826 17.7329 4.04757Z" stroke="black" stroke-width="1.5" stroke-linecap="round" stroke-linejoin="round"/>
</g>
</svg>
