<svg width="16" height="16" viewBox="0 0 16 16" fill="none" xmlns="http://www.w3.org/2000/svg">
<g id="Generic=multi-bet, Size=16px, stroke width=1.5px">
<path id="multi-bet" d="M10.4426 11.8305C10.4082 12.3054 10.3604 12.7755 10.2964 13.2322C10.2809 13.3432 10.1465 13.3919 10.0598 13.319L9.41635 12.7783C9.31265 12.6911 9.16114 12.6863 9.05187 12.7666L8.24813 13.3577C8.14452 13.4339 8.00206 13.4339 7.89845 13.3577L7.08254 12.7577C6.97894 12.6815 6.83648 12.6815 6.73287 12.7577L5.91696 13.3577C5.81335 13.4339 5.67089 13.4339 5.56729 13.3577L4.76354 12.7666C4.65428 12.6863 4.50276 12.6911 4.39906 12.7783L3.75273 13.3215C3.66659 13.3938 3.53309 13.3463 3.51592 13.2363C3.0528 10.2705 3.25342 7.37782 3.46976 5.62573C3.51567 5.25387 3.81341 4.96347 4.19337 4.92447C4.38806 4.90449 4.58619 4.88761 4.78645 4.87352M6.82549 4.68597H9.01096M6.82549 6.40021H11.4878M6.82549 8.11444H11.4878M4.39373 9.65469H5.32155M4.39373 7.93257H5.32155M11.8153 2.70744C10.4767 2.59623 8.30237 2.50454 6.44232 2.69544C6.06236 2.73444 5.76462 3.02484 5.7187 3.3967C5.50237 5.14879 5.30175 8.04147 5.76487 11.0073C5.78204 11.1173 5.91554 11.1648 6.00168 11.0924L6.64801 10.5492C6.75171 10.4621 6.90323 10.4573 7.01249 10.5376L7.81623 11.1286C7.91984 11.2048 8.0623 11.2048 8.16591 11.1286L8.98182 10.5287C9.08542 10.4525 9.22788 10.4525 9.33149 10.5287L10.1474 11.1286C10.251 11.2048 10.3935 11.2048 10.4971 11.1286L11.3008 10.5376C11.4101 10.4573 11.5616 10.4621 11.6653 10.5492L12.3087 11.09C12.3955 11.1629 12.5298 11.1142 12.5454 11.0032C12.9101 8.39944 12.7488 5.36289 12.5761 3.45233C12.5401 3.05436 12.2213 2.74118 11.8153 2.70744Z" stroke="black" stroke-width="1.5" stroke-linecap="round" stroke-linejoin="round"/>
</g>
</svg>
