<svg width="16" height="16" viewBox="0 0 16 16" fill="none" xmlns="http://www.w3.org/2000/svg">
<g id="Generic=home, Size=16px, stroke width=1px">
<g id="home">
<path d="M3.25 12.0219L3.25 8.26187C3.25 7.89627 3.38804 7.54406 3.63669 7.27519L6.92515 3.71943C7.50401 3.09352 8.49599 3.09352 9.07485 3.71944L12.3633 7.27521C12.612 7.54408 12.75 7.89629 12.75 8.26189V12.0219C12.75 12.424 12.4228 12.75 12.0192 12.75L3.98077 12.75C3.57718 12.75 3.25 12.424 3.25 12.0219Z" stroke="black" stroke-linecap="round" stroke-linejoin="round"/>
<path d="M6.53846 12.386L6.53846 9.10972C6.53846 8.90867 6.70205 8.74569 6.90385 8.74569L9.09615 8.7457C9.29795 8.7457 9.46154 8.90868 9.46154 9.10973L9.46154 12.386C9.46154 12.587 9.29795 12.75 9.09615 12.75H6.90385C6.70205 12.75 6.53846 12.587 6.53846 12.386Z" stroke="black" stroke-linecap="round" stroke-linejoin="round"/>
</g>
</g>
</svg>
