<svg width="24" height="24" viewBox="0 0 24 24" fill="none" xmlns="http://www.w3.org/2000/svg">
<g id="Generic=dislike, Size=24px, stroke width=1.5px">
<path id="dislike" d="M14.7472 4.875L18.1088 4.875C18.673 4.875 19.1293 5.33547 19.125 5.90056L19.0785 12.0077C19.0742 12.5668 18.6205 13.0179 18.0623 13.0179L14.7472 13.0179M14.7472 4.875L7.75308 4.875C7.27678 4.875 6.86437 5.20625 6.76103 5.67194L4.89962 12.9535C4.75857 13.5892 5.24151 14.1923 5.89167 14.1923L8.72774 14.1923C9.3681 14.1923 9.87104 14.6217 9.74693 15.2509L9.22243 17.9098C9.09831 18.539 9.57908 19.125 10.2194 19.125L10.4192 19.125C10.7806 19.125 11.1148 18.9327 11.297 18.62L14.7472 13.0179M14.7472 4.875L14.7472 13.0179" stroke="black" stroke-width="1.5" stroke-linecap="round" stroke-linejoin="round"/>
</g>
</svg>
