<svg width="16" height="16" viewBox="0 0 16 16" fill="none" xmlns="http://www.w3.org/2000/svg">
<g id="Generic=about, Size=16px, stroke width=1.5px">
<g id="about">
<path d="M10.0729 11.4623C9.68307 11.8773 9.77768 11.8377 8.92184 12.2824C8.6796 12.3597 8.39352 12.3969 8.06361 12.3937C7.55776 12.3889 7.16234 12.2656 6.87729 12.0438C6.59224 11.822 6.46138 11.5419 6.46281 11.1835C6.46336 11.0441 6.46391 10.9046 6.48646 10.7654C6.509 10.6262 6.53163 10.4671 6.59832 10.2885L7.13281 8.62066C7.17742 8.46176 7.22204 8.30285 7.24459 8.16365C7.26714 8.02445 7.28968 7.88526 7.29016 7.76576C7.29103 7.54669 7.24759 7.40687 7.13794 7.32615C7.05028 7.24565 6.85249 7.20393 6.58857 7.20142C6.45661 7.20016 6.32456 7.21881 6.17045 7.25718C6.03833 7.29575 5.95929 7.29993 5.84924 7.31879L5.92499 7.22886C6.18199 6.91278 6.59094 6.60395 6.92116 6.52744C7.22947 6.4308 7.53754 6.3939 7.80146 6.39642C8.30732 6.40125 8.68074 6.52431 8.96579 6.7461C9.22885 6.96769 9.3817 7.24797 9.38028 7.60645C9.37996 7.68612 9.37949 7.80561 9.35678 7.98464C9.33408 8.16367 9.31137 8.3427 9.24484 8.48148L8.71036 10.1493C8.66582 10.2883 8.62127 10.4273 8.59857 10.6063C8.55387 10.7852 8.5534 10.9047 8.553 11.0042C8.55213 11.2233 8.59549 11.3831 8.70514 11.4638C8.8148 11.5445 9.01258 11.5862 9.27651 11.5887C9.40847 11.59 9.54051 11.5713 9.71662 11.5332C9.87073 11.4948 9.98086 11.456 10.0689 11.4369L10.0729 11.4623Z" stroke="black" stroke-width="1.5" stroke-miterlimit="10" stroke-linecap="round" stroke-linejoin="round"/>
<path d="M10.2069 4.15963C10.2981 4.73378 9.9145 5.27184 9.35019 5.36143C8.78588 5.45102 8.25452 5.05821 8.16337 4.48406C8.07222 3.90992 8.45579 3.37185 9.0201 3.28226C9.58441 3.19267 10.1158 3.58548 10.2069 4.15963Z" stroke="black" stroke-width="1.5" stroke-miterlimit="10" stroke-linecap="round" stroke-linejoin="round"/>
</g>
</g>
</svg>
