<svg width="24" height="24" viewBox="0 0 24 24" fill="none" xmlns="http://www.w3.org/2000/svg">
<g id="Generic=picture, Size=24px, weight=light">
<path id="picture" d="M15.8365 19.125L12.8221 16.1106M19.125 16.3846L15.8365 13.0962L12.8221 16.1106M12.8221 16.1106L8.16346 11.4519L5.42308 14.1923L4.875 14.7404M4.875 14.7404L4.875 7.06731C4.875 5.85653 5.85653 4.875 7.06731 4.875L16.9327 4.87502C18.1435 4.87502 19.125 5.85655 19.125 7.06733L19.125 16.9327C19.125 18.1435 18.1435 19.125 16.9327 19.125L7.06731 19.125C5.85653 19.125 4.875 18.1435 4.875 16.9327L4.875 14.7404ZM16.9327 8.71154C16.9327 9.61962 16.1965 10.3558 15.2885 10.3558C14.3804 10.3558 13.6442 9.61962 13.6442 8.71154C13.6442 7.80345 14.3804 7.0673 15.2885 7.0673C16.1965 7.0673 16.9327 7.80345 16.9327 8.71154Z" stroke="black" stroke-linecap="round" stroke-linejoin="round"/>
</g>
</svg>
