<svg width="24" height="24" viewBox="0 0 24 24" fill="none" xmlns="http://www.w3.org/2000/svg">
<g id="Generic=partners, Size=24px, weight=light">
<path id="partners" d="M11.4178 14.6539L12.7827 17.1149M9.44514 16.2637L10.3296 17.8034M14.5453 17.6759C14.1476 17.8449 13.3872 18.1605 12.7763 17.1053M11.7677 18.3358C11.7677 18.3358 10.9373 18.9096 10.3328 17.8034M8.24884 6.05332H6.7524C5.09461 6.05332 3.75108 7.39793 3.7524 9.05572L3.75556 13.0076C3.75601 13.5596 4.20359 14.0068 4.75556 14.0068H5.1372L7.41525 17.9246C7.95613 18.8395 8.80245 18.7916 9.19061 18.7088M18.0356 15.4381C17.8701 15.9099 16.7979 18.6737 15.4171 16.2542L13.4922 13.2322M18.0356 15.2883H18.2438C19.3508 15.2883 20.2472 14.3891 20.2438 13.2821L20.2306 9.00874C20.2269 7.81909 19.5206 6.74399 18.4302 6.26829L17.8252 6.00436C16.6943 5.51097 15.474 5.25541 14.2401 5.25354L11.9109 5.25C11.9109 5.25 10.9691 5.26275 10.0337 6.44223L7.99224 9.10805C7.53308 9.70763 7.41403 10.5942 8.05404 10.9951C8.52509 11.2901 9.19494 11.3951 10.0465 10.7425L11.7209 9.04028C12.0366 8.71941 12.2856 8.53964 12.7339 8.5795V8.5795C13.4769 8.64556 14.3439 9.07965 14.7251 9.72075L18.0356 15.2883Z" stroke="black" stroke-linecap="round" stroke-linejoin="round"/>
</g>
</svg>
