<svg width="16" height="16" viewBox="0 0 16 16" fill="none" xmlns="http://www.w3.org/2000/svg">
<g id="Generic=loyalty, Size=16px, weight=regular">
<path id="loyalty" d="M3.25 6.32858C3.45541 5.3 4.70495 4.18572 5.30405 3.75715C5.98874 3.58572 8.02568 3.34572 10.6959 3.75715C11.723 4.16858 12.4932 5.64286 12.75 6.32858M3.25 6.32858C3.42117 7.7 4.58513 10.8543 7.87162 12.5M3.25 6.32858C5.30405 6.07143 8.38514 5.81428 12.75 6.32858M7.87162 12.5C9.15541 11.9857 11.9284 10.0314 12.75 6.32858M7.87162 12.5C6.43378 9.62 5.6464 7.01428 5.56081 6.07143L7.10135 3.5M7.87162 12.5C9.30946 9.62 10.0968 7.01428 10.1824 6.07143L8.64189 3.5" stroke="black" stroke-width="1.5" stroke-linecap="round" stroke-linejoin="round"/>
</g>
</svg>
