<svg width="32" height="32" viewBox="0 0 32 32" fill="none" xmlns="http://www.w3.org/2000/svg">
<g id="Generic=bookmark-alternative, Size=32px, weight=regular">
<path id="Vector" d="M15.996 22.4615C14.97 22.4615 12.335 24.6408 10.5134 26.2653C9.58703 27.0914 8.18578 26.7631 7.91261 25.5524C7.47468 23.6115 7 20.4755 7 16C7 11.5962 7.51622 8.64449 7.96865 6.90316C8.30393 5.6127 9.36543 4.7125 10.6783 4.47994C12.0147 4.2432 13.8982 4 15.996 4C18.0656 4 19.9266 4.23672 21.2596 4.47041C22.604 4.70611 23.691 5.63353 24.0433 6.95223C24.5262 8.76011 25.0731 11.776 24.9919 16C24.9022 20.6738 24.1369 23.8867 23.4846 25.8033C23.0997 26.9342 21.7363 27.1062 20.9026 26.2506C19.3212 24.6277 17.0189 22.4615 15.996 22.4615Z" stroke="black" stroke-width="1.5" stroke-linecap="round" stroke-linejoin="round"/>
</g>
</svg>
