<svg width="16" height="16" viewBox="0 0 16 16" fill="none" xmlns="http://www.w3.org/2000/svg">
<g id="Generic=globe, Size=16px, stroke width=1px">
<path id="globe" d="M12.75 8C12.75 10.6234 10.6234 12.75 8 12.75M12.75 8C12.75 5.37665 10.6234 3.25 8 3.25M12.75 8H3.25M8 12.75C5.37665 12.75 3.25 10.6234 3.25 8M8 12.75V3.25M8 12.75C9.45742 12.75 10.6389 10.6234 10.6389 8M8 12.75C6.54258 12.75 5.36111 10.6234 5.36111 8M3.25 8C3.25 5.37665 5.37665 3.25 8 3.25M8 3.25C6.54258 3.25 5.36111 5.37665 5.36111 8M8 3.25C9.45742 3.25 10.6389 5.37665 10.6389 8M10.6389 8H5.36111" stroke="black" stroke-linecap="round" stroke-linejoin="round"/>
</g>
</svg>
