<svg width="24" height="24" viewBox="0 0 24 24" fill="none" xmlns="http://www.w3.org/2000/svg">
<g id="Generic=user-swapping, Size=24px, stroke width=1px">
<path id="Vector" d="M6.6647 5.73442C8.08658 4.43466 9.95432 3.646 11.9999 3.646C16.4546 3.646 20.0658 7.38607 20.0658 11.9997V14.9838M16.537 18.9075C15.2443 19.82 13.6823 20.3534 11.9999 20.3534C7.54526 20.3534 3.93405 16.6133 3.93405 11.9997V10.1194M18.5658 13.3677L20.0658 15.3677L21.5658 13.3677M5.4342 11.7799L3.9342 9.7799L2.4342 11.7799M7.37377 15.7648C7.4136 15.3008 7.57575 14.8373 7.74084 14.4696C7.95761 13.9869 8.45939 13.7248 8.98853 13.7248H15.0111C15.5403 13.7248 16.042 13.9869 16.2588 14.4696C16.4239 14.8373 16.5861 15.3008 16.6259 15.7648M14.3147 9.86663C14.3147 11.1451 13.2783 12.1815 11.9998 12.1815C10.7213 12.1815 9.68492 11.1451 9.68492 9.86663C9.68492 8.58814 10.7213 7.55172 11.9998 7.55172C13.2783 7.55172 14.3147 8.58814 14.3147 9.86663Z" stroke="black" stroke-linecap="round" stroke-linejoin="round"/>
</g>
</svg>
