<svg width="16" height="16" viewBox="0 0 16 16" fill="none" xmlns="http://www.w3.org/2000/svg">
<g id="Generic=betslip, Size=16px, stroke width=1.5px">
<path id="betslip" d="M13.25 11.1875C13.25 11.7743 12.8568 12.25 12.3718 12.25L4.28125 12.25M4.28125 3.75L12.3718 3.75C12.8568 3.75 13.25 4.2257 13.25 4.8125L13.25 5.18392C13.25 5.38029 13.0842 5.53286 12.9045 5.61194C12.593 5.74896 12.375 6.06555 12.375 6.43421C12.375 6.80287 12.593 7.11946 12.9045 7.25648C13.0842 7.33556 13.25 7.48813 13.25 7.6845L13.25 8.3155C13.25 8.51186 13.0842 8.66444 12.9045 8.74352C12.593 8.88054 12.375 9.19712 12.375 9.56579C12.375 9.93445 12.593 10.251 12.9045 10.3881C13.0842 10.4671 13.25 10.6197 13.25 10.8161L13.25 11.1316M2.75 11.1875C2.75 11.7743 3.14318 12.25 3.62818 12.25L4.49682 12.25M4.49682 3.75L3.62818 3.75C3.14318 3.75 2.75 4.2257 2.75 4.8125L2.75 5.18392C2.75 5.38029 2.91579 5.53286 3.09553 5.61194C3.40695 5.74896 3.625 6.06555 3.625 6.43421C3.625 6.80287 3.40695 7.11946 3.09553 7.25648C2.91579 7.33556 2.75 7.48813 2.75 7.6845L2.75 8.3155C2.75 8.51186 2.91579 8.66444 3.09553 8.74352C3.40695 8.88054 3.625 9.19712 3.625 9.56579C3.625 9.93445 3.40695 10.251 3.09553 10.3881C2.91579 10.4671 2.75 10.6197 2.75 10.8161L2.75 11.1316M9.85937 11.9145L9.85937 11.2434M9.85937 10.125L9.85937 9.45395M9.85937 8.33553L9.85937 7.66447M9.85937 6.54605L9.85937 5.875M9.85937 4.75658L9.85937 4.08553" stroke="black" stroke-width="1.5" stroke-linecap="round" stroke-linejoin="round"/>
</g>
</svg>
