<svg width="16" height="16" viewBox="0 0 16 16" fill="none" xmlns="http://www.w3.org/2000/svg">
<g id="Generic=tag, Size=16px, stroke width=1.5px">
<g id="tag">
<path d="M3.98832 3.25L7.52098 3.25C7.62244 3.25 7.71942 3.29151 7.78914 3.36477L12.346 8.15271C12.8955 8.73011 12.8829 9.63742 12.3175 10.1995L10.1843 12.3201C9.61405 12.8869 8.69185 12.8942 8.11267 12.3364L3.3623 7.76178C3.29052 7.69266 3.25 7.59756 3.25 7.49821L3.25 3.98394C3.25 3.5786 3.58056 3.25 3.98832 3.25Z" stroke="black" stroke-width="1.5" stroke-linecap="round" stroke-linejoin="round"/>
<path d="M6.57243 5.6353C6.57243 5.12862 6.15924 4.71788 5.64954 4.71788C5.13983 4.71788 4.72664 5.12862 4.72664 5.6353C4.72664 6.14198 5.13983 6.55273 5.64954 6.55273C6.15924 6.55273 6.57243 6.14198 6.57243 5.6353Z" stroke="black" stroke-width="1.5" stroke-linecap="round" stroke-linejoin="round"/>
</g>
</g>
</svg>
