<svg width="32" height="32" viewBox="0 0 32 32" fill="none" xmlns="http://www.w3.org/2000/svg">
<g id="Generic=user-swapping, Size=32px, weight=light">
<path id="Vector" d="M8.88676 7.64614C10.7826 5.91313 13.2729 4.86157 16.0004 4.86157C21.9399 4.86157 26.7549 9.84834 26.7549 15.9998V19.9787M22.0498 25.2102C20.3262 26.4268 18.2435 27.1381 16.0004 27.1381C10.0608 27.1381 5.24589 22.1513 5.24589 15.9998V13.4927M24.7549 17.8239L26.7549 20.4906L28.7549 17.8239M7.24609 15.7068L5.24609 13.0401L3.24609 15.7068M9.83218 21.02C9.88529 20.4013 10.1015 19.7833 10.3216 19.2931C10.6106 18.6495 11.2797 18.3 11.9852 18.3H20.0153C20.7208 18.3 21.3899 18.6495 21.6789 19.2931C21.899 19.7833 22.1152 20.4013 22.1683 21.02M19.0868 13.1558C19.0868 14.8604 17.7049 16.2423 16.0003 16.2423C14.2956 16.2423 12.9137 14.8604 12.9137 13.1558C12.9137 11.4511 14.2956 10.0692 16.0003 10.0692C17.7049 10.0692 19.0868 11.4511 19.0868 13.1558Z" stroke="black" stroke-linecap="round" stroke-linejoin="round"/>
</g>
</svg>
