<svg width="24" height="24" viewBox="0 0 24 24" fill="none" xmlns="http://www.w3.org/2000/svg">
<g id="Generic=user, Size=24px, stroke width=1.5px">
<g id="user">
<path d="M15.2879 8.16346C15.2879 9.97963 13.8156 11.4519 11.9994 11.4519C10.1832 11.4519 8.71095 9.97963 8.71095 8.16346C8.71095 6.34729 10.1832 4.875 11.9994 4.875C13.8156 4.875 15.2879 6.34729 15.2879 8.16346Z" stroke="black" stroke-width="1.5" stroke-linecap="round" stroke-linejoin="round"/>
<path d="M11.9994 19.125C15.2569 19.125 17.1337 18.2848 18.0043 17.7439C18.4116 17.4909 18.6124 17.0249 18.571 16.5422C18.5144 15.883 18.2841 15.2246 18.0495 14.7023C17.7416 14.0166 17.0288 13.6442 16.2771 13.6442H7.72168C6.97001 13.6442 6.2572 14.0166 5.94927 14.7023C5.71474 15.2245 5.4844 15.883 5.42782 16.5422C5.38639 17.0249 5.58718 17.4909 5.99456 17.7439C6.86516 18.2848 8.74193 19.125 11.9994 19.125Z" stroke="black" stroke-width="1.5" stroke-linecap="round" stroke-linejoin="round"/>
</g>
</g>
</svg>
