<svg width="24" height="24" viewBox="0 0 24 24" fill="none" xmlns="http://www.w3.org/2000/svg">
<g id="Generic=bookmark-alternative, Size=24px, stroke width=1.5px">
<path id="Vector" d="M11.997 16.0962C11.5983 16.0962 11.1838 16.2865 10.862 16.4626C10.5053 16.6578 10.113 16.9221 9.7198 17.2119C8.93097 17.7933 8.07518 18.5245 7.38584 19.1392C7.21871 19.2883 7.03855 19.3108 6.91487 19.2786C6.80454 19.2499 6.70522 19.1728 6.66606 18.9992C6.35029 17.5997 6 15.3032 6 12C6 8.75622 6.38018 6.60608 6.70238 5.36597C6.87317 4.70865 7.41561 4.22669 8.13953 4.09846C9.11184 3.92623 10.4791 3.75 11.997 3.75C13.4944 3.75 14.8454 3.92152 15.8152 4.09154C16.5591 4.22197 17.1249 4.72284 17.3079 5.40774C17.6526 6.69823 18.0535 8.89021 17.9941 11.9856C17.9283 15.4143 17.3675 17.7474 16.9034 19.1109C16.8513 19.2639 16.7573 19.322 16.6551 19.338C16.5371 19.3566 16.3655 19.3199 16.2141 19.1646C15.6143 18.549 14.8643 17.8162 14.1576 17.2324C13.8054 16.9415 13.4471 16.6734 13.112 16.4743C12.8077 16.2934 12.4054 16.0962 11.997 16.0962Z" stroke="black" stroke-width="1.5" stroke-linecap="round" stroke-linejoin="round"/>
</g>
</svg>
