<svg width="32" height="32" viewBox="0 0 32 32" fill="none" xmlns="http://www.w3.org/2000/svg">
<g id="Generic=user-swapping, Size=32px, stroke width=1.5px">
<path id="Vector" d="M8.88627 7.64614C10.7821 5.91313 13.2724 4.86157 15.9999 4.86157C21.9394 4.86157 26.7544 9.84834 26.7544 15.9998V19.9787M22.0493 25.2102C20.3257 26.4268 18.243 27.1381 15.9999 27.1381C10.0604 27.1381 5.2454 22.1513 5.2454 15.9998V13.4927M24.7544 17.8239L26.7544 20.4906L28.7544 17.8239M7.24561 15.7068L5.24561 13.0401L3.24561 15.7068M9.83169 21.02C9.8848 20.4013 10.101 19.7833 10.3211 19.2931C10.6101 18.6495 11.2792 18.3 11.9847 18.3H20.0148C20.7204 18.3 21.3894 18.6495 21.6784 19.2931C21.8985 19.7833 22.1147 20.4013 22.1678 21.02M19.0863 13.1558C19.0863 14.8604 17.7044 16.2423 15.9998 16.2423C14.2951 16.2423 12.9132 14.8604 12.9132 13.1558C12.9132 11.4511 14.2951 10.0692 15.9998 10.0692C17.7044 10.0692 19.0863 11.4511 19.0863 13.1558Z" stroke="black" stroke-width="1.5" stroke-linecap="round" stroke-linejoin="round"/>
</g>
</svg>
