<svg width="16" height="16" viewBox="0 0 16 16" fill="none" xmlns="http://www.w3.org/2000/svg">
<g id="Generic=settings, Size=16px, weight=light">
<g id="settings">
<path d="M8 3.25C8.60539 3.25 9.09615 3.74076 9.09615 4.34615C9.09615 4.4457 9.16104 4.53305 9.25454 4.56722C9.35166 4.60272 9.44686 4.64223 9.53993 4.68554C9.6303 4.72759 9.73808 4.71172 9.80857 4.64124C10.2366 4.21317 10.9307 4.21317 11.3588 4.64124C11.7868 5.06932 11.7868 5.76338 11.3588 6.19145C11.2883 6.26193 11.2724 6.36972 11.3145 6.46008C11.3578 6.55315 11.3973 6.64835 11.4328 6.74547C11.467 6.83896 11.5543 6.90385 11.6538 6.90385C12.2592 6.90385 12.75 7.39461 12.75 8C12.75 8.60539 12.2592 9.09615 11.6538 9.09615C11.5543 9.09615 11.467 9.16103 11.4328 9.25453C11.3973 9.35166 11.3578 9.44686 11.3145 9.53994C11.2724 9.63031 11.2883 9.73809 11.3588 9.80857C11.7868 10.2366 11.7868 10.9307 11.3588 11.3588C10.9307 11.7868 10.2366 11.7868 9.80857 11.3588C9.73808 11.2883 9.6303 11.2724 9.53993 11.3145C9.44686 11.3578 9.35166 11.3973 9.25454 11.4328C9.16104 11.467 9.09615 11.5543 9.09615 11.6538C9.09615 12.2592 8.60539 12.75 8 12.75C7.39461 12.75 6.90385 12.2592 6.90385 11.6538C6.90385 11.5543 6.83896 11.467 6.74546 11.4328C6.64834 11.3973 6.55315 11.3578 6.46008 11.3145C6.36971 11.2724 6.26193 11.2883 6.19144 11.3588C5.76337 11.7868 5.06932 11.7868 4.64124 11.3588C4.21317 10.9307 4.21317 10.2366 4.64124 9.80857C4.71173 9.73809 4.7276 9.63031 4.68555 9.53994C4.64223 9.44686 4.60272 9.35166 4.56721 9.25453C4.53303 9.16103 4.4457 9.09615 4.34615 9.09615C3.74076 9.09615 3.25 8.60539 3.25 8C3.25 7.39461 3.74076 6.90385 4.34615 6.90385C4.4457 6.90385 4.53303 6.83896 4.56721 6.74547C4.60272 6.64834 4.64223 6.55314 4.68554 6.46008C4.7276 6.36971 4.71172 6.26193 4.64124 6.19145C4.21317 5.76336 4.21317 5.06932 4.64124 4.64124C5.06932 4.21317 5.76337 4.21317 6.19144 4.64124C6.26192 4.71172 6.3697 4.72759 6.46006 4.68554C6.55313 4.64223 6.64833 4.60272 6.74546 4.56722C6.83896 4.53305 6.90385 4.4457 6.90385 4.34615C6.90385 3.74076 7.39461 3.25 8 3.25Z" stroke="black" stroke-linecap="round" stroke-linejoin="round"/>
<path d="M10.1111 8C10.1111 9.16593 9.16593 10.1111 8 10.1111C6.83407 10.1111 5.88889 9.16593 5.88889 8C5.88889 6.83407 6.83407 5.88889 8 5.88889C9.16593 5.88889 10.1111 6.83407 10.1111 8Z" stroke="black" stroke-linecap="round" stroke-linejoin="round"/>
</g>
</g>
</svg>
