<svg width="16" height="16" viewBox="0 0 16 16" fill="none" xmlns="http://www.w3.org/2000/svg">
<g id="Generic=browser, Size=16px, stroke width=1.5px">
<path id="browser" d="M3.25001 6.53849L12.5914 6.53849M5 5.05265C5 5.19072 4.88807 5.30265 4.75 5.30265C4.61193 5.30265 4.5 5.19072 4.5 5.05265C4.5 4.91458 4.61193 4.80265 4.75 4.80265C4.88807 4.80265 5 4.91458 5 5.05265ZM6.5 5.05265C6.5 5.19072 6.38807 5.30265 6.25 5.30265C6.11193 5.30265 6 5.19072 6 5.05265C6 4.91458 6.11193 4.80265 6.25 4.80265C6.38807 4.80265 6.5 4.91458 6.5 5.05265ZM8 5.05265C8 5.19072 7.88807 5.30265 7.75 5.30265C7.61193 5.30265 7.5 5.19072 7.5 5.05265C7.5 4.91458 7.61193 4.80265 7.75 4.80265C7.88807 4.80265 8 4.91458 8 5.05265ZM11.2885 3.25L4.71154 3.25C3.90435 3.25 3.25 3.90435 3.25 4.71154L3.25 11.2885C3.25 12.0956 3.90436 12.75 4.71154 12.75L11.2884 12.75C12.0956 12.75 12.75 12.0956 12.75 11.2885L12.75 4.71154C12.75 3.90435 12.0956 3.25 11.2885 3.25Z" stroke="black" stroke-width="1.5" stroke-linecap="round" stroke-linejoin="round"/>
</g>
</svg>
