<svg width="24" height="24" viewBox="0 0 24 24" fill="none" xmlns="http://www.w3.org/2000/svg">
<g id="Generic=bookmark-alternative, Size=24px, weight=regular">
<path id="Vector" d="M11.997 16.8462C11.2275 16.8462 9.25127 18.4806 7.88501 19.699C7.19027 20.3185 6.13934 20.0723 5.93446 19.1643C5.60601 17.7086 5.25 15.3566 5.25 12C5.25 8.69718 5.63716 6.48336 5.97648 5.17737C6.22794 4.20953 7.02407 3.53437 8.00871 3.35996C9.01106 3.1824 10.4236 3 11.997 3C13.5492 3 14.945 3.17754 15.9447 3.35281C16.953 3.52959 17.7683 4.22515 18.0325 5.21418C18.3947 6.57008 18.8048 8.83202 18.744 12C18.6766 15.5053 18.1027 17.9151 17.6134 19.3525C17.3248 20.2007 16.3023 20.3297 15.677 19.688C14.4909 18.4708 12.7642 16.8462 11.997 16.8462Z" stroke="black" stroke-width="1.5" stroke-linecap="round" stroke-linejoin="round"/>
</g>
</svg>
