<svg width="16" height="16" viewBox="0 0 16 16" fill="none" xmlns="http://www.w3.org/2000/svg">
<g id="Generic=bookmark-alternative, Size=16px, stroke width=1.5px">
<path id="Vector" d="M7.99799 10.4808C7.66343 10.4808 7.33822 10.6371 7.12131 10.7558C6.86959 10.8935 6.59795 11.077 6.33154 11.2734C5.79638 11.6678 5.21913 12.1612 4.7575 12.5729L5.25668 13.1327L4.7575 12.5729C4.73108 12.5965 4.70897 12.6053 4.69541 12.6087C4.69259 12.6094 4.69002 12.6099 4.68772 12.6103C4.48148 11.6959 4.25 10.1836 4.25 8C4.25 5.85716 4.50113 4.44496 4.71022 3.64018C4.79718 3.30547 5.07426 3.04857 5.46996 2.97847C6.10815 2.86543 7.00455 2.75 7.99799 2.75C8.97804 2.75 9.86371 2.86234 10.5003 2.97394C10.9081 3.04544 11.2022 3.31446 11.2971 3.66968C11.521 4.5082 11.7853 5.9462 11.7461 7.9856C11.7031 10.2279 11.3391 11.7513 11.0395 12.6388C11.0262 12.6332 11.0085 12.6224 10.9885 12.6019C10.5863 12.1892 10.079 11.6932 9.5976 11.2955C9.35804 11.0976 9.10808 10.91 8.86905 10.7679C8.66084 10.6442 8.34246 10.4808 7.99799 10.4808Z" stroke="black" stroke-width="1.5" stroke-linecap="round" stroke-linejoin="round"/>
</g>
</svg>
