<svg width="16" height="16" viewBox="0 0 16 16" fill="none" xmlns="http://www.w3.org/2000/svg">
<g id="Generic=news, Size=16px, weight=light">
<path id="news" d="M6.22319 8.35346H7.35415M6.22319 9.84118H7.35415M6.22319 6.83796H11.0486M6.22319 5.48477H11.0486M3.98016 12.2044H11.5575C12.0853 12.2044 12.5 11.791 12.5 11.2647V4.18795C12.5 4.07518 12.4246 4 12.3115 4H4.96032C4.84722 4 4.77183 4.07518 4.77183 4.18795V11.2647C4.77183 11.791 4.37599 12.2044 3.88591 12.2044C3.39583 12.2044 3 11.791 3 11.2647V5.22164M10.9543 10.8938H8.82434C8.71125 10.8938 8.63585 10.8186 8.63585 10.7059V8.39792C8.63585 8.28515 8.71125 8.20997 8.82434 8.20997H10.9543C11.0674 8.20997 11.1428 8.28515 11.1428 8.39792V10.7059C11.1428 10.8186 11.0674 10.8938 10.9543 10.8938Z" stroke="black" stroke-miterlimit="10" stroke-linecap="round" stroke-linejoin="round"/>
</g>
</svg>
