<svg width="16" height="16" viewBox="0 0 16 16" fill="none" xmlns="http://www.w3.org/2000/svg">
<g id="Generic=bookmark-alternative, Size=16px, weight=regular">
<path id="Vector" d="M7.99799 11.2308C7.48499 11.2308 6.16752 12.3204 5.25668 13.1327C4.79352 13.5457 4.09289 13.3816 3.9563 12.7762C3.73734 11.8057 3.5 10.2377 3.5 8C3.5 5.79812 3.75811 4.32224 3.98432 3.45158C4.15196 2.80635 4.68271 2.35625 5.33914 2.23997C6.00737 2.1216 6.9491 2 7.99799 2C9.0328 2 9.96331 2.11836 10.6298 2.23521C11.302 2.35306 11.8455 2.81676 12.0216 3.47612C12.2631 4.38006 12.5365 5.88802 12.496 8C12.4511 10.3369 12.0685 11.9434 11.7423 12.9017C11.5498 13.4671 10.8682 13.5531 10.4513 13.1253C9.66062 12.3139 8.50944 11.2308 7.99799 11.2308Z" stroke="black" stroke-width="1.5" stroke-linecap="round" stroke-linejoin="round"/>
</g>
</svg>
