<svg width="24" height="24" viewBox="0 0 24 24" fill="none" xmlns="http://www.w3.org/2000/svg">
<g id="Generic=help, Size=24px, weight=light">
<path id="help" d="M7.06731 7.06731L9.25962 9.25961M16.9327 16.9327L14.7404 14.7404M7.06731 16.9327L9.25961 14.7404M16.9327 7.06731L14.7404 9.25962M19.125 12C19.125 15.935 15.935 19.125 12 19.125C8.06497 19.125 4.875 15.935 4.875 12C4.875 8.06497 8.06497 4.875 12 4.875C15.935 4.875 19.125 8.06497 19.125 12ZM15.2885 12C15.2885 13.8162 13.8162 15.2885 12 15.2885C10.1838 15.2885 8.71154 13.8162 8.71154 12C8.71154 10.1838 10.1838 8.71154 12 8.71154C13.8162 8.71154 15.2885 10.1838 15.2885 12Z" stroke="black" stroke-linecap="round" stroke-linejoin="round"/>
</g>
</svg>
