<svg width="32" height="32" viewBox="0 0 32 32" fill="none" xmlns="http://www.w3.org/2000/svg">
<g id="Generic=user-swapping, Size=32px, weight=regular">
<path id="Vector" d="M8.88676 7.64589C10.7826 5.91288 13.2729 4.86133 16.0004 4.86133C21.9399 4.86133 26.7549 9.8481 26.7549 15.9996V19.9784M22.0498 25.21C20.3262 26.4266 18.2435 27.1379 16.0004 27.1379C10.0608 27.1379 5.24589 22.1511 5.24589 15.9996V13.4925M24.7549 17.8237L26.7549 20.4903L28.7549 17.8237M7.24609 15.7065L5.24609 13.0399L3.24609 15.7065M9.83218 21.0198C9.88529 20.401 10.1015 19.783 10.3216 19.2928C10.6106 18.6492 11.2797 18.2997 11.9852 18.2997H20.0153C20.7208 18.2997 21.3899 18.6492 21.6789 19.2928C21.899 19.783 22.1152 20.401 22.1683 21.0198M19.0868 13.1555C19.0868 14.8602 17.7049 16.2421 16.0003 16.2421C14.2956 16.2421 12.9137 14.8602 12.9137 13.1555C12.9137 11.4509 14.2956 10.069 16.0003 10.069C17.7049 10.069 19.0868 11.4509 19.0868 13.1555Z" stroke="black" stroke-width="1.5" stroke-linecap="round" stroke-linejoin="round"/>
</g>
</svg>
