<svg width="24" height="24" viewBox="0 0 24 24" fill="none" xmlns="http://www.w3.org/2000/svg">
<g id="Generic=multi-bet, Size=24px, weight=regular">
<path id="multi-bet" d="M15.6703 17.7557C15.6186 18.4694 15.5468 19.1757 15.4507 19.862C15.4273 20.0288 15.2254 20.102 15.0951 19.9924L14.1282 19.1799C13.9724 19.0489 13.7447 19.0417 13.5806 19.1624L12.3728 20.0505C12.2172 20.165 12.0031 20.165 11.8474 20.0505L10.6214 19.149C10.4657 19.0345 10.2517 19.0345 10.096 19.149L8.87 20.0505C8.71432 20.165 8.50025 20.165 8.34457 20.0505L7.13685 19.1624C6.97267 19.0417 6.745 19.0489 6.58919 19.1799L5.618 19.9961C5.48857 20.1049 5.28796 20.0334 5.26216 19.8682C4.56628 15.4117 4.86773 11.0651 5.1928 8.43238C5.26179 7.87362 5.70918 7.43726 6.28011 7.37866C6.57265 7.34864 6.87037 7.32327 7.17128 7.30209M10.2352 7.02028H13.5191M10.2352 9.59612H17.2408M10.2352 12.172H17.2408M6.58118 14.4864H7.97532M6.58118 11.8987H7.97532M17.7329 4.04732C15.7215 3.88021 12.4543 3.74243 9.65941 4.02929C9.08848 4.08788 8.64109 4.52424 8.57209 5.083C8.24703 7.71572 7.94558 12.0623 8.64146 16.5188C8.66726 16.684 8.86787 16.7555 8.9973 16.6467L9.96849 15.8305C10.1243 15.6996 10.352 15.6923 10.5162 15.813L11.7239 16.7011C11.8796 16.8156 12.0936 16.8156 12.2493 16.7011L13.4753 15.7996C13.631 15.6851 13.845 15.6851 14.0007 15.7996L15.2267 16.7011C15.3824 16.8156 15.5965 16.8156 15.7521 16.7011L16.9599 15.813C17.124 15.6923 17.3517 15.6996 17.5075 15.8305L18.4744 16.643C18.6047 16.7526 18.8066 16.6794 18.83 16.5126C19.378 12.6002 19.1356 8.03743 18.8761 5.1666C18.822 4.5686 18.343 4.09801 17.7329 4.04732Z" stroke="black" stroke-width="1.5" stroke-linecap="round" stroke-linejoin="round"/>
</g>
</svg>
