<svg width="16" height="16" viewBox="0 0 16 16" fill="none" xmlns="http://www.w3.org/2000/svg">
<g id="Generic=user-swapping, Size=16px, stroke width=1.5px">
<path id="Vector" d="M4.44301 3.82295C5.39093 2.95644 6.63609 2.43066 7.99983 2.43066C10.9696 2.43066 13.3771 4.92405 13.3771 7.9998V9.98921M11.0245 12.605C10.1628 13.2133 9.12139 13.5689 7.99983 13.5689C5.03005 13.5689 2.62258 11.0755 2.62258 7.9998V6.74625M12.3771 8.91183L13.3771 10.2452L14.3771 8.91183M3.62268 7.85327L2.62268 6.51994L1.62268 7.85327M4.91572 10.5099C4.94228 10.2005 5.05038 9.89152 5.16044 9.64642C5.30495 9.32462 5.63947 9.14987 5.99223 9.14987H10.0073C10.3601 9.14987 10.6946 9.32462 10.8391 9.64642C10.9491 9.89152 11.0572 10.2005 11.0838 10.5099M9.54303 6.57775C9.54303 7.43008 8.85209 8.12103 7.99976 8.12103C7.14744 8.12103 6.45649 7.43008 6.45649 6.57775C6.45649 5.72543 7.14744 5.03448 7.99976 5.03448C8.85209 5.03448 9.54303 5.72543 9.54303 6.57775Z" stroke="black" stroke-width="1.5" stroke-linecap="round" stroke-linejoin="round"/>
</g>
</svg>
