<svg width="16" height="16" viewBox="0 0 16 16" fill="none" xmlns="http://www.w3.org/2000/svg">
<g id="Generic=share-android, Size=16px, weight=light">
<path id="share" d="M9.542 5.40372C9.75646 6.06241 10.3755 6.53846 11.1058 6.53846C12.0139 6.53846 12.75 5.80231 12.75 4.89423C12.75 3.98615 12.0139 3.25 11.1058 3.25C10.1977 3.25 9.46154 3.98615 9.46154 4.89423C9.46154 5.07207 9.48977 5.24331 9.542 5.40372ZM9.542 5.40372L6.3286 7.01292M6.3286 7.01292C6.04691 6.5117 5.51012 6.17308 4.89423 6.17308C3.98615 6.17308 3.25 6.90922 3.25 7.81731C3.25 8.72539 3.98615 9.46154 4.89423 9.46154C5.47878 9.46154 5.99208 9.1565 6.28364 8.69692M6.3286 7.01292C6.62132 7.53377 6.60381 8.19225 6.28364 8.69692M6.28364 8.69692L9.67771 10.2903M9.67771 10.2903C9.54016 10.5306 9.46154 10.809 9.46154 11.1058C9.46154 12.0139 10.1977 12.75 11.1058 12.75C12.0139 12.75 12.75 12.0139 12.75 11.1058C12.75 10.1977 12.0139 9.46154 11.1058 9.46154C10.4944 9.46154 9.96105 9.79516 9.67771 10.2903Z" stroke="black" stroke-linecap="round" stroke-linejoin="round"/>
</g>
</svg>
