<svg width="16" height="16" viewBox="0 0 16 16" fill="none" xmlns="http://www.w3.org/2000/svg">
<g id="Generic=user, Size=16px, weight=regular">
<g id="user">
<path d="M10.1922 5.44231C10.1922 6.65309 9.21063 7.63462 7.99985 7.63462C6.78907 7.63462 5.80754 6.65309 5.80754 5.44231C5.80754 4.23153 6.78907 3.25 7.99985 3.25C9.21063 3.25 10.1922 4.23153 10.1922 5.44231Z" stroke="black" stroke-width="1.5" stroke-linecap="round" stroke-linejoin="round"/>
<path d="M7.99985 12.75C10.1715 12.75 11.4227 12.1898 12.0031 11.8293C12.2747 11.6606 12.4085 11.3499 12.3809 11.0281C12.3432 10.5886 12.1896 10.1497 12.0333 9.80153C11.828 9.34439 11.3528 9.09615 10.8517 9.09615H5.14803C4.64691 9.09615 4.17171 9.34439 3.96643 9.80153C3.81007 10.1497 3.65651 10.5886 3.61879 11.0281C3.59117 11.3499 3.72503 11.6606 3.99662 11.8293C4.57702 12.1898 5.8282 12.75 7.99985 12.75Z" stroke="black" stroke-width="1.5" stroke-linecap="round" stroke-linejoin="round"/>
</g>
</g>
</svg>
