<svg width="24" height="24" viewBox="0 0 24 24" fill="none" xmlns="http://www.w3.org/2000/svg">
<g id="Generic=user-swapping, Size=24px, weight=regular">
<path id="Vector" d="M6.66507 5.73442C8.08695 4.43466 9.95469 3.646 12.0003 3.646C16.4549 3.646 20.0662 7.38607 20.0662 11.9997V14.9838M16.5373 18.9075C15.2447 19.82 13.6826 20.3534 12.0003 20.3534C7.54563 20.3534 3.93442 16.6133 3.93442 11.9997V10.1194M18.5662 13.3677L20.0662 15.3677L21.5662 13.3677M5.43457 11.7799L3.93457 9.7799L2.43457 11.7799M7.37414 15.7648C7.41397 15.3008 7.57611 14.8373 7.74121 14.4696C7.95797 13.9869 8.45975 13.7248 8.9889 13.7248H15.0115C15.5406 13.7248 16.0424 13.9869 16.2592 14.4696C16.4243 14.8373 16.5864 15.3008 16.6262 15.7648M14.3151 9.86663C14.3151 11.1451 13.2787 12.1815 12.0002 12.1815C10.7217 12.1815 9.68529 11.1451 9.68529 9.86663C9.68529 8.58814 10.7217 7.55172 12.0002 7.55172C13.2787 7.55172 14.3151 8.58814 14.3151 9.86663Z" stroke="black" stroke-width="1.5" stroke-linecap="round" stroke-linejoin="round"/>
</g>
</svg>
