<svg width="16" height="16" viewBox="0 0 16 16" fill="none" xmlns="http://www.w3.org/2000/svg">
<g id="Generic=help, Size=16px, stroke width=1.5px">
<path id="help" d="M4.71154 4.71154L6.17308 6.17308M11.2885 11.2885L9.82692 9.82692M4.71154 11.2885L6.17308 9.82692M11.2885 4.71154L9.82692 6.17308M12.75 8C12.75 10.6234 10.6234 12.75 8 12.75C5.37665 12.75 3.25 10.6234 3.25 8C3.25 5.37665 5.37665 3.25 8 3.25C10.6234 3.25 12.75 5.37665 12.75 8ZM10.1923 8C10.1923 9.21078 9.21078 10.1923 8 10.1923C6.78922 10.1923 5.80769 9.21078 5.80769 8C5.80769 6.78922 6.78922 5.80769 8 5.80769C9.21078 5.80769 10.1923 6.78922 10.1923 8Z" stroke="black" stroke-width="1.5" stroke-linecap="round" stroke-linejoin="round"/>
</g>
</svg>
