<svg width="24" height="24" viewBox="0 0 24 24" fill="none" xmlns="http://www.w3.org/2000/svg">
<g id="Generic=news, Size=24px, stroke width=1px">
<path id="news" d="M9.33479 12.5302H11.0312M9.33479 14.7618H11.0312M9.33479 10.2569H16.5729M9.33479 8.22715H16.5729M5.97024 18.3066H17.3363C18.128 18.3066 18.75 17.6864 18.75 16.8971V6.28192C18.75 6.11277 18.6369 6 18.4673 6H7.44048C7.27083 6 7.15774 6.11277 7.15774 6.28192V16.8971C7.15774 17.6864 6.56399 18.3066 5.82887 18.3066C5.09375 18.3066 4.5 17.6864 4.5 16.8971V7.83247M16.4315 16.3407H13.2365C13.0669 16.3407 12.9538 16.228 12.9538 16.0588V12.5969C12.9538 12.4277 13.0669 12.315 13.2365 12.315H16.4315C16.6011 12.315 16.7142 12.4277 16.7142 12.5969V16.0588C16.7142 16.228 16.6011 16.3407 16.4315 16.3407Z" stroke="black" stroke-miterlimit="10" stroke-linecap="round" stroke-linejoin="round"/>
</g>
</svg>
