<svg width="24" height="24" viewBox="0 0 24 24" fill="none" xmlns="http://www.w3.org/2000/svg">
<g id="Generic=share-arrow, Size=24px, stroke width=1.5px">
<path id="Vector" d="M13.0455 13.4114C7.90384 13.1863 6.24746 15.4825 4.74922 18.2966L4.74802 18.2982C4.68093 18.4097 4.56899 18.4767 4.41219 18.4992C4.36632 18.5027 4.32028 18.495 4.27802 18.4767C4.18261 18.446 4.10212 18.3804 4.05249 18.2929C4.00286 18.2053 3.98772 18.1022 4.01008 18.0039C4.0548 17.8238 4.07716 17.5762 4.12189 17.261L4.12696 17.2214C4.44414 14.7478 5.17031 9.08463 13.0219 8.25613C13.0443 8.23362 13.0666 8.23362 13.0666 8.21111V5.98401C13.0666 5.80391 13.1784 5.64633 13.335 5.55628C13.4915 5.48874 13.7151 5.46623 13.8717 5.57879C13.8717 5.57879 19.7949 10.2906 19.8435 10.3273C19.8921 10.3639 19.9315 10.4115 19.9587 10.4662C19.9859 10.5209 20 10.5813 20 10.6424C20 10.7036 19.9859 10.7639 19.9587 10.8186C19.9315 10.8733 19.8921 10.9209 19.8435 10.9576L13.8729 16.0453C13.8168 16.1121 13.7409 16.159 13.6564 16.1793C13.5719 16.1995 13.4832 16.1921 13.4033 16.1579C13.202 16.0679 13.0678 15.8427 13.0678 15.6626V13.4339L13.0455 13.4114Z" stroke="black" stroke-width="1.5" stroke-linecap="round" stroke-linejoin="round"/>
</g>
</svg>
