<svg width="24" height="24" viewBox="0 0 24 24" fill="none" xmlns="http://www.w3.org/2000/svg">
<g id="Generic=user, Size=24px, weight=regular">
<g id="user">
<path d="M15.2882 8.16346C15.2882 9.97963 13.8159 11.4519 11.9998 11.4519C10.1836 11.4519 8.71131 9.97963 8.71131 8.16346C8.71131 6.34729 10.1836 4.875 11.9998 4.875C13.8159 4.875 15.2882 6.34729 15.2882 8.16346Z" stroke="black" stroke-width="1.5" stroke-linecap="round" stroke-linejoin="round"/>
<path d="M11.9998 19.125C15.2573 19.125 17.134 18.2848 18.0046 17.7439C18.412 17.4909 18.6128 17.0249 18.5714 16.5422C18.5148 15.883 18.2844 15.2246 18.0499 14.7023C17.742 14.0166 17.0292 13.6442 16.2775 13.6442H7.72205C6.97037 13.6442 6.25757 14.0166 5.94964 14.7023C5.71511 15.2245 5.48477 15.883 5.42819 16.5422C5.38676 17.0249 5.58755 17.4909 5.99493 17.7439C6.86553 18.2848 8.7423 19.125 11.9998 19.125Z" stroke="black" stroke-width="1.5" stroke-linecap="round" stroke-linejoin="round"/>
</g>
</g>
</svg>
