<svg width="16" height="16" viewBox="0 0 16 16" fill="none" xmlns="http://www.w3.org/2000/svg">
<g id="Generic=like, Size=16px, weight=regular">
<path id="like" d="M6.16853 12.75H3.92747C3.5513 12.75 3.24713 12.443 3.25002 12.0663L3.28099 7.99486C3.28385 7.62211 3.58633 7.32143 3.95849 7.32143H6.16853M6.16853 12.75H10.8313C11.1488 12.75 11.4238 12.5292 11.4926 12.2187L12.7336 7.36431C12.8276 6.94053 12.5057 6.53846 12.0722 6.53846H10.1815C9.7546 6.53846 9.41931 6.25221 9.50205 5.83275L9.85171 4.06011C9.93446 3.64064 9.61395 3.25 9.18708 3.25H9.05389C8.81293 3.25 8.59013 3.37823 8.46869 3.58664L6.16853 7.32143M6.16853 12.75V7.32143" stroke="black" stroke-width="1.5" stroke-linecap="round" stroke-linejoin="round"/>
</g>
</svg>
