<svg width="16" height="16" viewBox="0 0 16 16" fill="none" xmlns="http://www.w3.org/2000/svg">
<g id="Generic=star, Size=16px, stroke width=1.5px">
<path id="Star 1" d="M7.26134 2.77594C7.53462 2.11891 8.46538 2.11891 8.73866 2.77594L9.66387 5.00043C9.77908 5.27742 10.0396 5.46667 10.3386 5.49064L12.7401 5.68317C13.4494 5.74004 13.7371 6.62525 13.1966 7.08818L11.3669 8.65552C11.1391 8.85068 11.0396 9.1569 11.1092 9.44871L11.6682 11.7922C11.8333 12.4844 11.0803 13.0314 10.473 12.6605L8.417 11.4047C8.16099 11.2483 7.83901 11.2483 7.583 11.4047L5.52696 12.6605C4.91968 13.0314 4.16668 12.4844 4.33179 11.7922L4.8908 9.44871C4.9604 9.1569 4.8609 8.85068 4.63307 8.65552L2.80337 7.08818C2.26294 6.62525 2.55056 5.74004 3.25988 5.68317L5.6614 5.49064C5.96043 5.46667 6.22092 5.27742 6.33613 5.00043L7.26134 2.77594Z" stroke="black" stroke-width="1.5" stroke-linecap="round" stroke-linejoin="round"/>
</g>
</svg>
