<svg width="24" height="24" viewBox="0 0 24 24" fill="none" xmlns="http://www.w3.org/2000/svg">
<g id="Generic=betslip, Size=24px, weight=regular">
<path id="betslip" d="M19.875 16.7812C19.875 17.6615 19.2852 18.375 18.5577 18.375L6.42187 18.375M6.42187 5.625L18.5577 5.625C19.2852 5.625 19.875 6.33855 19.875 7.21875L19.875 7.95365C19.875 8.15002 19.7128 8.30427 19.5238 8.35779C18.9695 8.51481 18.5625 9.03446 18.5625 9.65131C18.5625 10.2682 18.9695 10.7878 19.5238 10.9448C19.7128 10.9984 19.875 11.1526 19.875 11.349L19.875 12.651C19.875 12.8474 19.7128 13.0016 19.5238 13.0552C18.9695 13.2122 18.5625 13.7318 18.5625 14.3487C18.5625 14.9655 18.9695 15.4852 19.5238 15.6422C19.7128 15.6957 19.875 15.85 19.875 16.0463L19.875 16.6974M4.125 16.7812C4.125 17.6615 4.71476 18.375 5.44227 18.375L6.74523 18.375M6.74523 5.625L5.44227 5.625C4.71476 5.625 4.125 6.33855 4.125 7.21875L4.125 7.95365C4.125 8.15002 4.28723 8.30427 4.47616 8.35779C5.03053 8.51481 5.4375 9.03446 5.4375 9.65132C5.4375 10.2682 5.03053 10.7878 4.47616 10.9448C4.28723 10.9984 4.125 11.1526 4.125 11.349L4.125 12.651C4.125 12.8474 4.28723 13.0016 4.47616 13.0552C5.03053 13.2122 5.4375 13.7318 5.4375 14.3487C5.4375 14.9655 5.03053 15.4852 4.47616 15.6422C4.28723 15.6957 4.125 15.85 4.125 16.0463L4.125 16.6974M14.7891 17.8717L14.7891 16.8651M14.7891 15.1875L14.7891 14.1809M14.7891 12.5033L14.7891 11.4967M14.7891 9.81908L14.7891 8.8125M14.7891 7.13487L14.7891 6.12829" stroke="black" stroke-width="1.5" stroke-linecap="round" stroke-linejoin="round"/>
</g>
</svg>
