<svg width="24" height="24" viewBox="0 0 24 24" fill="none" xmlns="http://www.w3.org/2000/svg">
<g id="Generic=about, Size=24px, weight=regular">
<g id="about">
<path d="M15.109 17.1936C14.5242 17.8163 14.6661 17.7569 13.3823 18.4238C13.019 18.5399 12.5899 18.5955 12.095 18.5908C11.3362 18.5836 10.7431 18.3987 10.3155 18.066C9.88793 17.7333 9.69165 17.3132 9.69378 16.7754C9.69461 16.5663 9.69544 16.3572 9.72926 16.1484C9.76308 15.9396 9.79702 15.7009 9.89706 15.433L10.6988 12.9312C10.7657 12.6929 10.8326 12.4545 10.8665 12.2457C10.9003 12.0369 10.9341 11.8281 10.9348 11.6489C10.9361 11.3203 10.871 11.1105 10.7065 10.9895C10.575 10.8687 10.2783 10.8061 9.88242 10.8024C9.68448 10.8005 9.48642 10.8285 9.25525 10.886C9.05707 10.9439 8.93851 10.9501 8.77344 10.9784L8.88705 10.8435C9.27257 10.3694 9.88598 9.90617 10.3813 9.7914C10.8438 9.64644 11.3059 9.5911 11.7018 9.59488C12.4606 9.60211 13.0207 9.7867 13.4483 10.1194C13.8428 10.4518 14.0721 10.8722 14.07 11.4099C14.0695 11.5294 14.0688 11.7087 14.0347 11.9772C14.0007 12.2457 13.9666 12.5143 13.8668 12.7225L13.0651 15.2243C12.9983 15.4327 12.9315 15.6412 12.8974 15.9098C12.8304 16.178 12.8297 16.3572 12.8291 16.5066C12.8278 16.8352 12.8928 17.0748 13.0573 17.1959C13.2218 17.317 13.5184 17.3795 13.9143 17.3833C14.1123 17.3852 14.3103 17.3572 14.5745 17.3C14.8057 17.2424 14.9709 17.1843 15.1029 17.1557L15.109 17.1936Z" stroke="black" stroke-width="1.5" stroke-miterlimit="10" stroke-linecap="round" stroke-linejoin="round"/>
<path d="M15.31 6.23969C15.4467 7.10091 14.8713 7.90801 14.0249 8.04239C13.1784 8.17678 12.3814 7.58756 12.2446 6.72634C12.1079 5.86512 12.6833 5.05802 13.5297 4.92364C14.3762 4.78925 15.1732 5.37847 15.31 6.23969Z" stroke="black" stroke-width="1.5" stroke-miterlimit="10" stroke-linecap="round" stroke-linejoin="round"/>
</g>
</g>
</svg>
