<svg width="24" height="24" viewBox="0 0 24 24" fill="none" xmlns="http://www.w3.org/2000/svg">
<g id="Generic=about, Size=24px, stroke width=1.5px">
<g id="about">
<path d="M15.1095 17.1936C14.5247 17.8163 14.6666 17.7569 13.3828 18.4238C13.0195 18.5399 12.5903 18.5955 12.0955 18.5908C11.3367 18.5836 10.7436 18.3987 10.316 18.066C9.88842 17.7333 9.69214 17.3132 9.69427 16.7754C9.6951 16.5663 9.69593 16.3572 9.72975 16.1484C9.76357 15.9396 9.79751 15.7009 9.89754 15.433L10.6993 12.9312C10.7662 12.6929 10.8331 12.4545 10.8669 12.2457C10.9008 12.0369 10.9346 11.8281 10.9353 11.6489C10.9366 11.3203 10.8714 11.1105 10.707 10.9895C10.5755 10.8687 10.2788 10.8061 9.88291 10.8024C9.68497 10.8005 9.48691 10.8285 9.25574 10.886C9.05755 10.9439 8.939 10.9501 8.77393 10.9784L8.88754 10.8435C9.27305 10.3694 9.88647 9.90617 10.3818 9.7914C10.8443 9.64644 11.3064 9.5911 11.7023 9.59488C12.461 9.60211 13.0212 9.7867 13.4487 10.1194C13.8433 10.4518 14.0726 10.8722 14.0705 11.4099C14.07 11.5294 14.0693 11.7087 14.0352 11.9772C14.0012 12.2457 13.9671 12.5143 13.8673 12.7225L13.0656 15.2243C12.9988 15.4327 12.932 15.6412 12.8979 15.9098C12.8309 16.178 12.8302 16.3572 12.8296 16.5066C12.8283 16.8352 12.8933 17.0748 13.0578 17.1959C13.2223 17.317 13.5189 17.3795 13.9148 17.3833C14.1128 17.3852 14.3108 17.3572 14.575 17.3C14.8062 17.2424 14.9714 17.1843 15.1034 17.1557L15.1095 17.1936Z" stroke="black" stroke-width="1.5" stroke-miterlimit="10" stroke-linecap="round" stroke-linejoin="round"/>
<path d="M15.3104 6.23969C15.4472 7.10091 14.8718 7.90801 14.0253 8.04239C13.1789 8.17678 12.3818 7.58756 12.2451 6.72634C12.1084 5.86512 12.6837 5.05802 13.5302 4.92364C14.3767 4.78925 15.1737 5.37847 15.3104 6.23969Z" stroke="black" stroke-width="1.5" stroke-miterlimit="10" stroke-linecap="round" stroke-linejoin="round"/>
</g>
</g>
</svg>
