<svg width="16" height="16" viewBox="0 0 16 16" fill="none" xmlns="http://www.w3.org/2000/svg">
<g id="Generic=multi-bet, Size=16px, weight=regular">
<path id="multi-bet" d="M10.4421 11.8305C10.4077 12.3054 10.3599 12.7755 10.2959 13.2322C10.2804 13.3432 10.1461 13.3919 10.0593 13.319L9.41586 12.7783C9.31216 12.6911 9.16065 12.6863 9.05139 12.7666L8.24764 13.3577C8.14403 13.4339 8.00157 13.4339 7.89796 13.3577L7.08206 12.7577C6.97845 12.6815 6.83599 12.6815 6.73238 12.7577L5.91647 13.3577C5.81286 13.4339 5.67041 13.4339 5.5668 13.3577L4.76305 12.7666C4.65379 12.6863 4.50227 12.6911 4.39858 12.7783L3.75224 13.3215C3.66611 13.3938 3.5326 13.3463 3.51543 13.2363C3.05232 10.2705 3.25294 7.37782 3.46927 5.62573C3.51518 5.25387 3.81292 4.96347 4.19288 4.92447C4.38757 4.90449 4.5857 4.88761 4.78596 4.87352M6.825 4.68597H9.01047M6.825 6.40021H11.4873M6.825 8.11444H11.4873M4.39324 9.65469H5.32106M4.39324 7.93257H5.32106M11.8148 2.70744C10.4762 2.59623 8.30188 2.50454 6.44183 2.69544C6.06187 2.73444 5.76413 3.02484 5.71822 3.3967C5.50188 5.14879 5.30126 8.04147 5.76438 11.0073C5.78155 11.1173 5.91505 11.1648 6.00119 11.0924L6.64752 10.5492C6.75122 10.4621 6.90274 10.4573 7.012 10.5376L7.81575 11.1286C7.91935 11.2048 8.06181 11.2048 8.16542 11.1286L8.98133 10.5287C9.08494 10.4525 9.2274 10.4525 9.331 10.5287L10.1469 11.1286C10.2505 11.2048 10.393 11.2048 10.4966 11.1286L11.3003 10.5376C11.4096 10.4573 11.5611 10.4621 11.6648 10.5492L12.3082 11.09C12.395 11.1629 12.5294 11.1142 12.5449 11.0032C12.9096 8.39944 12.7483 5.36289 12.5756 3.45233C12.5396 3.05436 12.2208 2.74118 11.8148 2.70744Z" stroke="black" stroke-width="1.5" stroke-linecap="round" stroke-linejoin="round"/>
</g>
</svg>
