<svg width="24" height="24" viewBox="0 0 24 24" fill="none" xmlns="http://www.w3.org/2000/svg">
<g id="Generic=tag, Size=24px, weight=light">
<g id="tag">
<path d="M5.98248 4.875L11.2815 4.875C11.4337 4.875 11.5791 4.93726 11.6837 5.04715L18.519 12.2291C19.3433 13.0952 19.3244 14.4561 18.4763 15.2992L15.2764 18.4801C14.4211 19.3303 13.0378 19.3412 12.169 18.5046L5.04345 11.6427C4.93578 11.539 4.875 11.3963 4.875 11.2473L4.875 5.97591C4.875 5.3679 5.37084 4.875 5.98248 4.875Z" stroke="black" stroke-linecap="round" stroke-linejoin="round"/>
<path d="M9.85865 8.45295C9.85865 7.69293 9.23886 7.07681 8.4743 7.07681C7.70975 7.07681 7.08996 7.69293 7.08996 8.45295C7.08996 9.21297 7.70975 9.82909 8.4743 9.82909C9.23886 9.82909 9.85865 9.21297 9.85865 8.45295Z" stroke="black" stroke-linecap="round" stroke-linejoin="round"/>
</g>
</g>
</svg>
