<svg width="24" height="24" viewBox="0 0 24 24" fill="none" xmlns="http://www.w3.org/2000/svg">
<g id="Generic=browser, Size=24px, stroke width=1.5px">
<path id="browser" d="M4.87501 9.80774L18.8872 9.80774M7.5 7.57898C7.5 7.78609 7.33211 7.95398 7.125 7.95398C6.91789 7.95398 6.75 7.78609 6.75 7.57898C6.75 7.37187 6.91789 7.20398 7.125 7.20398C7.33211 7.20398 7.5 7.37187 7.5 7.57898ZM9.75 7.57898C9.75 7.78609 9.58211 7.95398 9.375 7.95398C9.16789 7.95398 9 7.78609 9 7.57898C9 7.37187 9.16789 7.20398 9.375 7.20398C9.58211 7.20398 9.75 7.37187 9.75 7.57898ZM12 7.57898C12 7.78609 11.8321 7.95398 11.625 7.95398C11.4179 7.95398 11.25 7.78609 11.25 7.57898C11.25 7.37187 11.4179 7.20398 11.625 7.20398C11.8321 7.20398 12 7.37187 12 7.57898ZM16.9327 4.875L7.06731 4.875C5.85653 4.875 4.875 5.85653 4.875 7.06731L4.875 16.9327C4.875 18.1435 5.85653 19.125 7.06731 19.125L16.9327 19.125C18.1434 19.125 19.125 18.1435 19.125 16.9327L19.125 7.06731C19.125 5.85653 18.1435 4.875 16.9327 4.875Z" stroke="black" stroke-width="1.5" stroke-linecap="round" stroke-linejoin="round"/>
</g>
</svg>
