<svg width="32" height="32" viewBox="0 0 32 32" fill="none" xmlns="http://www.w3.org/2000/svg">
<g id="Generic=home, Size=32px, stroke width=1px">
<g id="home">
<path d="M6.5 24.0439L6.5 16.5237C6.5 15.7925 6.77608 15.0881 7.27339 14.5504L13.8503 7.43887C15.008 6.18704 16.992 6.18705 18.1497 7.43887L24.7266 14.5504C25.2239 15.0882 25.5 15.7926 25.5 16.5238V24.0439C25.5 24.8481 24.8456 25.5 24.0385 25.5L7.96154 25.5C7.15435 25.5 6.5 24.8481 6.5 24.0439Z" stroke="black" stroke-linecap="round" stroke-linejoin="round"/>
<path d="M13.0769 24.7719L13.0769 18.2194C13.0769 17.8173 13.4041 17.4914 13.8077 17.4914L18.1923 17.4914C18.5959 17.4914 18.9231 17.8174 18.9231 18.2195L18.9231 24.7719C18.9231 25.174 18.5959 25.5 18.1923 25.5H13.8077C13.4041 25.5 13.0769 25.174 13.0769 24.7719Z" stroke="black" stroke-linecap="round" stroke-linejoin="round"/>
</g>
</g>
</svg>
