<svg width="24" height="24" viewBox="0 0 24 24" fill="none" xmlns="http://www.w3.org/2000/svg">
<g id="Generic=globe, Size=24px, stroke width=1.5px">
<path id="globe" d="M19.125 12C19.125 15.935 15.935 19.125 12 19.125M19.125 12C19.125 8.06497 15.935 4.875 12 4.875M19.125 12H4.875M12 19.125C8.06497 19.125 4.875 15.935 4.875 12M12 19.125V4.875M12 19.125C14.1861 19.125 15.9583 15.935 15.9583 12M12 19.125C9.81387 19.125 8.04167 15.935 8.04167 12M4.875 12C4.875 8.06497 8.06497 4.875 12 4.875M12 4.875C9.81387 4.875 8.04167 8.06497 8.04167 12M12 4.875C14.1861 4.875 15.9583 8.06497 15.9583 12M15.9583 12H8.04167" stroke="black" stroke-width="1.5" stroke-linecap="round" stroke-linejoin="round"/>
</g>
</svg>
