<svg width="24" height="24" viewBox="0 0 24 24" fill="none" xmlns="http://www.w3.org/2000/svg">
<g id="Generic=bet, Size=24px, stroke width=1.5px">
<path id="bet" d="M7.50074 7.96383H11.7778M7.50074 11.4019H16.6252M7.50074 14.8401H16.6252M17.2661 3.99565C14.6463 3.7726 10.3911 3.5887 6.75086 3.97158C6.00726 4.04979 5.42456 4.63222 5.3347 5.37803C4.91132 8.89206 4.5187 14.6937 5.42504 20.6421C5.45864 20.8626 5.71992 20.9579 5.8885 20.8128L7.15341 19.7233C7.35635 19.5486 7.65288 19.5389 7.86671 19.7L9.43969 20.8854C9.64246 21.0382 9.92126 21.0382 10.124 20.8854L11.7208 19.6821C11.9236 19.5293 12.2024 19.5293 12.4051 19.6821L14.0019 20.8854C14.2047 21.0382 14.4835 21.0382 14.6863 20.8854L16.2592 19.7C16.4731 19.5389 16.7696 19.5486 16.9725 19.7233L18.2318 20.8079C18.4016 20.9541 18.6645 20.8564 18.6949 20.6338C19.4087 15.4117 19.093 9.32147 18.755 5.48961C18.6846 4.69143 18.0607 4.06331 17.2661 3.99565Z" stroke="black" stroke-width="1.5" stroke-linecap="round" stroke-linejoin="round"/>
</g>
</svg>
