<svg width="32" height="32" viewBox="0 0 32 32" fill="none" xmlns="http://www.w3.org/2000/svg">
<g id="Generic=bookmark-alternative, Size=32px, stroke width=1.5px">
<path id="Vector" d="M15.996 21.7115C15.5332 21.7115 15.0294 21.936 14.6026 22.1695C14.141 22.4221 13.6281 22.7672 13.1081 23.1505C12.0656 23.9189 10.9312 24.8878 10.0142 25.7055C9.73125 25.9579 9.40562 26.0115 9.15689 25.9468C8.92149 25.8856 8.71752 25.7122 8.64422 25.3873C8.21896 23.5026 7.75 20.422 7.75 16C7.75 11.6553 8.25924 8.76721 8.69454 7.09176C8.94915 6.11183 9.75697 5.40482 10.8091 5.21844C12.1155 4.98703 13.9536 4.75 15.996 4.75C18.0108 4.75 19.827 4.9807 21.1301 5.20914C22.2102 5.3985 23.0477 6.13122 23.3187 7.1458C23.7842 8.88825 24.3218 11.8342 24.2421 15.9856C24.1538 20.5828 23.4017 23.7191 22.7746 25.5617C22.6744 25.8561 22.4711 25.9956 22.2456 26.031C22.0043 26.0689 21.6953 25.9895 21.4398 25.7272C20.6423 24.9088 19.6495 23.9392 18.7175 23.1693C18.2527 22.7853 17.7862 22.4369 17.3549 22.1806C16.9545 21.9427 16.4683 21.7115 15.996 21.7115Z" stroke="black" stroke-width="1.5" stroke-linecap="round" stroke-linejoin="round"/>
</g>
</svg>
