<svg width="16" height="16" viewBox="0 0 16 16" fill="none" xmlns="http://www.w3.org/2000/svg">
<g id="Generic=bet, Size=16px, weight=light">
<path id="bet" d="M5.0005 5.30922H7.85189M5.0005 7.60129H11.0835M5.0005 9.89337H11.0835M11.5107 2.66377C9.76421 2.51507 6.92739 2.39247 4.50057 2.64772C4.00484 2.69986 3.61637 3.08815 3.55647 3.58536C3.27422 5.92804 3.01247 9.7958 3.6167 13.7614C3.6391 13.9084 3.81328 13.972 3.92567 13.8752L4.76894 13.1489C4.90424 13.0324 5.10192 13.0259 5.24448 13.1333L6.29313 13.9236C6.42831 14.0255 6.61418 14.0255 6.74935 13.9236L7.81387 13.1214C7.94905 13.0195 8.13492 13.0195 8.2701 13.1214L9.33462 13.9236C9.4698 14.0255 9.65567 14.0255 9.79084 13.9236L10.8395 13.1333C10.9821 13.0259 11.1797 13.0324 11.315 13.1489L12.1545 13.8719C12.2677 13.9694 12.443 13.9043 12.4633 13.7559C12.9391 10.2744 12.7287 6.21431 12.5034 3.65974C12.4564 3.12762 12.0405 2.70887 11.5107 2.66377Z" stroke="black" stroke-linecap="round" stroke-linejoin="round"/>
</g>
</svg>
