<svg width="16" height="16" viewBox="0 0 16 16" fill="none" xmlns="http://www.w3.org/2000/svg">
<g id="Generic=user-swapping, Size=16px, weight=light">
<path id="Vector" d="M4.44338 3.82295C5.3913 2.95644 6.63646 2.43066 8.00019 2.43066C10.97 2.43066 13.3774 4.92405 13.3774 7.9998V9.98921M11.0249 12.605C10.1631 13.2133 9.12175 13.5689 8.00019 13.5689C5.03042 13.5689 2.62295 11.0755 2.62295 7.9998V6.74625M12.3774 8.91183L13.3774 10.2452L14.3774 8.91183M3.62305 7.85327L2.62305 6.51994L1.62305 7.85327M4.91609 10.5099C4.94264 10.2005 5.05074 9.89152 5.16081 9.64642C5.30532 9.32462 5.63984 9.14987 5.9926 9.14987H10.0077C10.3604 9.14987 10.6949 9.32462 10.8394 9.64642C10.9495 9.89152 11.0576 10.2005 11.0842 10.5099M9.5434 6.57775C9.5434 7.43008 8.85245 8.12103 8.00013 8.12103C7.1478 8.12103 6.45686 7.43008 6.45686 6.57775C6.45686 5.72543 7.1478 5.03448 8.00013 5.03448C8.85245 5.03448 9.5434 5.72543 9.5434 6.57775Z" stroke="black" stroke-linecap="round" stroke-linejoin="round"/>
</g>
</svg>
