<svg width="24" height="24" viewBox="0 0 24 24" fill="none" xmlns="http://www.w3.org/2000/svg">
<g id="Generic=ticket, Size=24px, weight=light">
<path id="Subtract" d="M3.75 7.5C3.75 6.67157 4.39471 6 5.19 6H18.81C19.6053 6 20.25 6.67157 20.25 7.5V8.75C20.25 9.30228 19.7779 9.73056 19.2877 9.98505C18.5777 10.3537 18.09 11.1175 18.09 12C18.09 12.8825 18.5777 13.6463 19.2877 14.015C19.7779 14.2694 20.25 14.6977 20.25 15.25V16.5C20.25 17.3284 19.6053 18 18.81 18H5.19C4.39471 18 3.75 17.3284 3.75 16.5V15.25C3.75 14.6977 4.22209 14.2694 4.71225 14.015C5.42226 13.6463 5.91 12.8825 5.91 12C5.91 11.1175 5.42226 10.3537 4.71225 9.98505C4.22209 9.73056 3.75 9.30228 3.75 8.75V7.5Z" stroke="black" stroke-linecap="round" stroke-linejoin="round"/>
<line id="Line 1" x1="8.75" y1="6.5" x2="8.75" y2="17.5" stroke="black" stroke-linecap="round" stroke-linejoin="round"/>
</g>
</svg>
