<svg width="16" height="16" viewBox="0 0 16 16" fill="none" xmlns="http://www.w3.org/2000/svg">
<g id="Generic=about, Size=16px, weight=regular">
<g id="about">
<path d="M10.0733 11.4623C9.68344 11.8773 9.77805 11.8377 8.92221 12.2824C8.67996 12.3597 8.39389 12.3969 8.06398 12.3937C7.55812 12.3889 7.16271 12.2656 6.87766 12.0438C6.59261 11.822 6.46175 11.5419 6.46317 11.1835C6.46372 11.0441 6.46428 10.9046 6.48682 10.7654C6.50937 10.6262 6.532 10.4671 6.59869 10.2885L7.13317 8.62066C7.17779 8.46176 7.22241 8.30285 7.24496 8.16365C7.2675 8.02445 7.29005 7.88526 7.29052 7.76576C7.29139 7.54669 7.24796 7.40687 7.1383 7.32615C7.05065 7.24565 6.85286 7.20393 6.58893 7.20142C6.45697 7.20016 6.32493 7.21881 6.17082 7.25718C6.0387 7.29575 5.95966 7.29993 5.84961 7.31879L5.92535 7.22886C6.18236 6.91278 6.5913 6.60395 6.92153 6.52744C7.22983 6.4308 7.5379 6.3939 7.80183 6.39642C8.30769 6.40125 8.68111 6.52431 8.96616 6.7461C9.22921 6.96769 9.38206 7.24797 9.38064 7.60645C9.38033 7.68612 9.37985 7.80561 9.35715 7.98464C9.33444 8.16367 9.31174 8.3427 9.24521 8.48148L8.71072 10.1493C8.66618 10.2883 8.62164 10.4273 8.59894 10.6063C8.55424 10.7852 8.55376 10.9047 8.55337 11.0042C8.5525 11.2233 8.59586 11.3831 8.70551 11.4638C8.81516 11.5445 9.01295 11.5862 9.27687 11.5887C9.40884 11.59 9.54088 11.5713 9.71699 11.5332C9.8711 11.4948 9.98123 11.456 10.0693 11.4369L10.0733 11.4623Z" stroke="black" stroke-width="1.5" stroke-miterlimit="10" stroke-linecap="round" stroke-linejoin="round"/>
<path d="M10.2073 4.15963C10.2984 4.73378 9.91487 5.27184 9.35056 5.36143C8.78625 5.45102 8.25489 5.05821 8.16374 4.48406C8.07258 3.90992 8.45616 3.37185 9.02047 3.28226C9.58478 3.19267 10.1161 3.58548 10.2073 4.15963Z" stroke="black" stroke-width="1.5" stroke-miterlimit="10" stroke-linecap="round" stroke-linejoin="round"/>
</g>
</g>
</svg>
