<svg width="16" height="16" viewBox="0 0 16 16" fill="none" xmlns="http://www.w3.org/2000/svg">
<g id="Generic=share-arrow, Size=16px, stroke width=1.5px">
<path id="Vector" d="M9.21876 9.47714C5.68389 9.32128 4.54513 10.911 3.51509 12.8592L3.51426 12.8603C3.46814 12.9375 3.39118 12.9838 3.28338 12.9994C3.25184 13.0019 3.22019 12.9965 3.19114 12.9838C3.12555 12.9626 3.0702 12.9172 3.03608 12.8566C3.00197 12.796 2.99156 12.7246 3.00693 12.6565C3.03768 12.5319 3.05305 12.3604 3.0838 12.1422L3.08729 12.1148C3.30535 10.4024 3.80459 6.48167 9.20256 5.90809C9.21793 5.89251 9.23331 5.89251 9.23331 5.87692V4.33508C9.23331 4.2104 9.31018 4.1013 9.41779 4.03896C9.52541 3.99221 9.67915 3.97662 9.78676 4.05455C9.78676 4.05455 13.859 7.31654 13.8924 7.34194C13.9258 7.36735 13.9529 7.40029 13.9716 7.43816C13.9903 7.47604 14 7.5178 14 7.56014C14 7.60248 13.9903 7.64424 13.9716 7.68211C13.9529 7.71998 13.9258 7.75293 13.8924 7.77833L9.78759 11.3006C9.74902 11.3468 9.69688 11.3793 9.63879 11.3934C9.5807 11.4074 9.51971 11.4022 9.46474 11.3785C9.32637 11.3162 9.23413 11.1604 9.23413 11.0357V9.49272L9.21876 9.47714Z" stroke="black" stroke-width="1.5" stroke-linecap="round" stroke-linejoin="round"/>
</g>
</svg>
