<svg width="16" height="16" viewBox="0 0 16 16" fill="none" xmlns="http://www.w3.org/2000/svg">
<g id="Generic=user, Size=16px, stroke width=1px">
<g id="user">
<path d="M10.1919 5.44231C10.1919 6.65309 9.21038 7.63462 7.99961 7.63462C6.78883 7.63462 5.8073 6.65309 5.8073 5.44231C5.8073 4.23153 6.78883 3.25 7.99961 3.25C9.21038 3.25 10.1919 4.23153 10.1919 5.44231Z" stroke="black" stroke-linecap="round" stroke-linejoin="round"/>
<path d="M7.99961 12.75C10.1713 12.75 11.4224 12.1898 12.0028 11.8293C12.2744 11.6606 12.4083 11.3499 12.3807 11.0281C12.3429 10.5886 12.1894 10.1497 12.033 9.80153C11.8277 9.34439 11.3525 9.09615 10.8514 9.09615H5.14779C4.64667 9.09615 4.17147 9.34439 3.96618 9.80153C3.80983 10.1497 3.65627 10.5886 3.61855 11.0281C3.59093 11.3499 3.72479 11.6606 3.99638 11.8293C4.57678 12.1898 5.82795 12.75 7.99961 12.75Z" stroke="black" stroke-linecap="round" stroke-linejoin="round"/>
</g>
</g>
</svg>
