<svg width="24" height="24" viewBox="0 0 24 24" fill="none" xmlns="http://www.w3.org/2000/svg">
<g id="Generic=home, Size=24px, stroke width=1.5px">
<g id="home">
<path d="M4.875 18.0329L4.875 12.3928C4.875 11.8444 5.08206 11.3161 5.45504 10.9128L10.3877 5.57915C11.256 4.64028 12.744 4.64028 13.6123 5.57916L18.545 10.9128C18.9179 11.3161 19.125 11.8444 19.125 12.3928V18.0329C19.125 18.6361 18.6342 19.125 18.0288 19.125L5.97115 19.125C5.36576 19.125 4.875 18.6361 4.875 18.0329Z" stroke="black" stroke-width="1.5" stroke-linecap="round" stroke-linejoin="round"/>
<path d="M9.80769 18.579L9.80769 13.6646C9.80769 13.363 10.0531 13.1185 10.3558 13.1185L13.6442 13.1185C13.9469 13.1186 14.1923 13.363 14.1923 13.6646L14.1923 18.579C14.1923 18.8805 13.9469 19.125 13.6442 19.125H10.3558C10.0531 19.125 9.80769 18.8805 9.80769 18.579Z" stroke="black" stroke-width="1.5" stroke-linecap="round" stroke-linejoin="round"/>
</g>
</g>
</svg>
