<svg width="16" height="16" viewBox="0 0 16 16" fill="none" xmlns="http://www.w3.org/2000/svg">
<g id="Generic=users, Size=16px, stroke width=1px">
<path id="users" d="M10.1103 10.1365C11.2468 10.1365 12.1814 10.0734 12.4851 9.87034C12.6272 9.77532 12.7634 9.51915 12.7489 9.33793C12.7489 8.16522 10.7865 8.16522 10.7865 8.16522C10.7865 8.16522 10.7865 8.16522 10.7865 8.16522H10.1291C10.1166 8.16522 10.1043 8.16537 10.0918 8.16581C9.90575 8.17237 8.38278 8.24167 8.34199 8.75313M11.6935 5.61108C11.6935 6.19917 11.221 6.6759 10.6381 6.6759C10.0552 6.6759 9.58263 6.19917 9.58263 5.61108C9.58263 5.023 10.0552 4.54626 10.6381 4.54626C11.221 4.54626 11.6935 5.023 11.6935 5.61108ZM8.22563 5.6802C8.22563 6.60815 7.48001 7.3604 6.56023 7.3604C5.64046 7.3604 4.89484 6.60815 4.89484 5.6802C4.89484 4.75225 5.64046 4 6.56023 4C7.48001 4 8.22563 4.75225 8.22563 5.6802ZM9.62187 11.2473C9.18097 11.5421 8.2305 12 6.5808 12C4.93109 12 3.98063 11.5421 3.53972 11.2473C3.33341 11.1094 3.23172 10.8555 3.2527 10.5924C3.27572 10.3038 3.35553 10.0155 3.4476 9.76565C3.62705 9.27876 4.12076 9.013 4.63966 9.013H8.52193C9.04083 9.013 9.53454 9.27876 9.71399 9.76565C9.80607 10.0155 9.88587 10.3038 9.90889 10.5924C9.92987 10.8555 9.82819 11.1094 9.62187 11.2473Z" stroke="black" stroke-linecap="round" stroke-linejoin="round"/>
</g>
</svg>
