<svg width="16" height="16" viewBox="0 0 16 16" fill="none" xmlns="http://www.w3.org/2000/svg">
<g id="Generic=dislike, Size=16px, weight=light">
<path id="dislike" d="M9.83147 3.25L12.0725 3.25C12.4487 3.25 12.7529 3.55698 12.75 3.93371L12.719 8.00514C12.7162 8.37789 12.4137 8.67857 12.0415 8.67857L9.83147 8.67857M9.83147 3.25L5.16872 3.25C4.85119 3.25 4.57625 3.47083 4.50735 3.78129L3.26641 8.63569C3.17238 9.05946 3.49434 9.46154 3.92778 9.46154L5.81849 9.46154C6.2454 9.46154 6.58069 9.74778 6.49795 10.1673L6.14829 11.9399C6.06554 12.3594 6.38605 12.75 6.81292 12.75L6.94611 12.75C7.18707 12.75 7.40987 12.6218 7.53131 12.4134L9.83147 8.67857M9.83147 3.25L9.83147 8.67857" stroke="black" stroke-linecap="round" stroke-linejoin="round"/>
</g>
</svg>
