<svg width="16" height="16" viewBox="0 0 16 16" fill="none" xmlns="http://www.w3.org/2000/svg">
<g id="Mail=relink, Size=16px, weight=light">
<path id="Vector" d="M8.24174 5.13964L9.60873 3.77262C10.3274 3.05398 11.4925 3.05398 12.2111 3.77262C12.9298 4.49125 12.9298 5.65638 12.2111 6.37501C11.8534 6.84773 11.5995 7.06384 11.1465 7.43964M7.76186 10.857L6.39137 12.2275C5.67274 12.9461 4.5076 12.9461 3.78897 12.2275C3.07034 11.5089 3.07034 10.3437 3.78897 9.62511L5.09017 8.32391M7.18741 8.62591L8.6692 7.14412M5.50658 6.18317L4.11094 5.98187M6.39141 5.44509L6.31069 4.03603M9.73157 10.2825L10.0284 11.661M10.407 9.34901L11.8183 9.33256" stroke="black" stroke-linecap="round" stroke-linejoin="round"/>
</g>
</svg>
