<svg width="24" height="24" viewBox="0 0 24 24" fill="none" xmlns="http://www.w3.org/2000/svg">
<g id="Mail=box, Size=24px, weight=light">
<path id="box" d="M13.6442 11.452H10.3558M5.42308 8.91343L5.42308 16.125C5.42308 17.7818 6.76623 19.125 8.42308 19.125H15.5769C17.2338 19.125 18.5769 17.7818 18.5769 16.125V8.91345C18.5769 8.49924 18.2411 8.16346 17.8269 8.16345L6.17308 8.16343C5.75887 8.16343 5.42308 8.49922 5.42308 8.91343ZM4.875 6.375L4.875 6.66346C4.875 7.49189 5.54657 8.16346 6.375 8.16346H17.625C18.4534 8.16346 19.125 7.49189 19.125 6.66346V6.37501C19.125 5.54658 18.4534 4.87501 17.625 4.87501L6.375 4.875C5.54657 4.875 4.875 5.54657 4.875 6.375Z" stroke="black" stroke-linecap="round" stroke-linejoin="round"/>
</g>
</svg>
