<svg width="16" height="16" viewBox="0 0 16 16" fill="none" xmlns="http://www.w3.org/2000/svg">
<g id="Mail=box, Size=16px, stroke width=1px">
<path id="box" d="M9.09616 7.63464H6.90385M3.61539 5.94229L3.61539 10.75C3.61539 11.8546 4.51082 12.75 5.61539 12.75H10.3846C11.4892 12.75 12.3846 11.8546 12.3846 10.75V5.9423C12.3846 5.66616 12.1608 5.4423 11.8846 5.4423L4.11539 5.44229C3.83924 5.44229 3.61539 5.66615 3.61539 5.94229ZM3.25 4.25L3.25 4.44231C3.25 4.99459 3.69772 5.44231 4.25 5.44231H11.75C12.3023 5.44231 12.75 4.99459 12.75 4.44231V4.25C12.75 3.69772 12.3023 3.25 11.75 3.25L4.25 3.25C3.69772 3.25 3.25 3.69772 3.25 4.25Z" stroke="black" stroke-linecap="round" stroke-linejoin="round"/>
</g>
</svg>
