<svg width="24" height="24" viewBox="0 0 24 24" fill="none" xmlns="http://www.w3.org/2000/svg">
<g id="Mail=relink, Size=24px, weight=regular">
<path id="Vector" d="M12.3626 7.70933L14.4131 5.6588C15.491 4.58086 17.2387 4.58086 18.3167 5.6588C19.3946 6.73675 19.3946 8.48445 18.3167 9.56239C17.7801 10.2715 17.3993 10.5956 16.7198 11.1593M11.6428 16.2854L9.58705 18.3411C8.5091 19.4191 6.76141 19.4191 5.68346 18.3411C4.60551 17.2632 4.60551 15.5155 5.68346 14.4375L7.63525 12.4857M10.7811 12.9387L13.0038 10.7161M8.25987 9.27463L6.16641 8.97268M9.58711 8.16751L9.46603 6.05392M14.5974 15.4237L15.0427 17.4914M15.6105 14.0234L17.7274 13.9987" stroke="black" stroke-width="1.5" stroke-linecap="round" stroke-linejoin="round"/>
</g>
</svg>
