<svg width="24" height="24" viewBox="0 0 24 24" fill="none" xmlns="http://www.w3.org/2000/svg">
<g id="Maps=location, Size=24px, stroke width=1.5px">
<path id="location" d="M17.4808 12C17.4808 15.0269 15.0269 17.4808 12 17.4808M17.4808 12C17.4808 8.97305 15.0269 6.51923 12 6.51923M17.4808 12H19.125M12 17.4808C8.97305 17.4808 6.51923 15.0269 6.51923 12M12 17.4808V19.125M6.51923 12C6.51923 8.97305 8.97305 6.51923 12 6.51923M6.51923 12H4.875M12 6.51923V4.875M13.6442 12C13.6442 12.9081 12.9081 13.6442 12 13.6442C11.0919 13.6442 10.3558 12.9081 10.3558 12C10.3558 11.0919 11.0919 10.3558 12 10.3558C12.9081 10.3558 13.6442 11.0919 13.6442 12Z" stroke="black" stroke-width="1.5" stroke-linecap="round" stroke-linejoin="round"/>
</g>
</svg>
