<svg width="24" height="24" viewBox="0 0 24 24" fill="none" xmlns="http://www.w3.org/2000/svg">
<g id="Maps=world, Size=24px, weight=regular">
<path id="world" d="M12 19.125C15.935 19.125 19.125 15.935 19.125 12C19.125 8.06497 15.935 4.875 12 4.875M12 19.125C8.06497 19.125 4.875 15.935 4.875 12C4.875 8.06497 8.06497 4.875 12 4.875M12 19.125C10.1838 19.125 8.71154 15.935 8.71154 12C8.71154 8.06497 10.1838 4.875 12 4.875M12 19.125C13.8162 19.125 15.2885 15.935 15.2885 12C15.2885 8.06497 13.8162 4.875 12 4.875M4.875 11.4519C4.875 12.36 8.06497 13.0962 12 13.0962C15.935 13.0962 19.125 12.36 19.125 11.4519" stroke="black" stroke-width="1.5" stroke-linecap="round" stroke-linejoin="round"/>
</g>
</svg>
