<svg width="24" height="24" viewBox="0 0 24 24" fill="none" xmlns="http://www.w3.org/2000/svg">
<g id="Maps=map, Size=24px, weight=light">
<path id="map" d="M9.8075 17.264L9.82428 4.875L13.6467 6.40198C14.1835 6.61641 14.7822 6.61604 15.3187 6.40094L17.5812 5.49387C18.3203 5.19756 19.1248 5.7418 19.1248 6.53808V16.7563C19.1248 17.0629 18.9381 17.3387 18.6535 17.4526L15.309 18.791C14.7733 19.0054 14.1756 19.0058 13.6396 18.7921L9.8075 17.264ZM9.8075 17.264V4.875L5.85263 6.3698C5.26945 6.59023 4.88341 7.1484 4.88296 7.77185L4.87598 17.4969C4.87541 18.2837 5.66196 18.828 6.3981 18.5503L9.8075 17.264ZM14.1921 7.06731V18.5769" stroke="black" stroke-linecap="round" stroke-linejoin="round"/>
</g>
</svg>
