<svg width="24" height="24" viewBox="0 0 24 24" fill="none" xmlns="http://www.w3.org/2000/svg">
<g id="Maps=panorama, Size=24px, stroke width=1px">
<path id="panorama" d="M4.875 8.72455C4.875 6.5985 8.06497 4.875 12 4.875C15.935 4.875 19.125 6.5985 19.125 8.72455M4.875 8.72455V15.8737C4.875 17.1944 5.94729 18.3701 7.61538 19.125V11.9758C5.94729 11.2209 4.875 10.0452 4.875 8.72455ZM19.125 8.72455L19.125 15.8737C19.125 17.1944 18.0527 18.3701 16.3846 19.125V11.9758C18.0527 11.2209 19.125 10.0452 19.125 8.72455ZM7.88941 14.9288C9.05083 14.4848 10.469 14.2239 12 14.2239C13.5309 14.2239 14.9491 14.4848 16.1106 14.9288" stroke="black" stroke-linecap="round" stroke-linejoin="round"/>
</g>
</svg>
