<svg width="16" height="16" viewBox="0 0 16 16" fill="none" xmlns="http://www.w3.org/2000/svg">
<g id="Maps=map, Size=16px, stroke width=1.5px">
<path id="map" d="M6.53866 11.5093L6.54984 3.25L9.09814 4.26799C9.45598 4.41094 9.85512 4.41069 10.2128 4.2673L11.7211 3.66258C12.2138 3.46504 12.7502 3.82787 12.7502 4.35872V11.1709C12.7502 11.3753 12.6258 11.5591 12.436 11.6351L10.2063 12.5274C9.84917 12.6703 9.45075 12.6705 9.09341 12.5281L6.53866 11.5093ZM6.53866 11.5093V3.25L3.90208 4.24654C3.51329 4.39348 3.25593 4.7656 3.25563 5.18123L3.25098 11.6646C3.2506 12.1891 3.77497 12.552 4.26572 12.3669L6.53866 11.5093ZM9.46174 4.71154V12.3846" stroke="black" stroke-width="1.5" stroke-linecap="round" stroke-linejoin="round"/>
</g>
</svg>
