<svg width="32" height="32" viewBox="0 0 32 32" fill="none" xmlns="http://www.w3.org/2000/svg">
<g id="Maps=map, Size=32px, weight=light">
<path id="map" d="M13.0773 23.0186L13.0997 6.5L18.1963 8.53597C18.912 8.82188 19.7102 8.82138 20.4256 8.53459L23.4422 7.32517C24.4277 6.93008 25.5004 7.65574 25.5004 8.71744V22.3417C25.5004 22.7506 25.2515 23.1182 24.8719 23.2701L20.4127 25.0547C19.6983 25.3406 18.9015 25.3411 18.1868 25.0561L13.0773 23.0186ZM13.0773 23.0186V6.5L7.80416 8.49307C7.02658 8.78697 6.51186 9.5312 6.51127 10.3625L6.50195 23.3292C6.5012 24.3782 7.54994 25.104 8.53145 24.7337L13.0773 23.0186ZM18.9235 9.42308V24.7692" stroke="black" stroke-linecap="round" stroke-linejoin="round"/>
</g>
</svg>
