<svg width="16" height="16" viewBox="0 0 16 16" fill="none" xmlns="http://www.w3.org/2000/svg">
<g id="Maps=panorama, Size=16px, stroke width=1px">
<path id="panorama" d="M3.25 5.81637C3.25 4.399 5.37665 3.25 8 3.25C10.6234 3.25 12.75 4.399 12.75 5.81637M3.25 5.81637V10.5825C3.25 11.4629 3.96486 12.2467 5.07692 12.75V7.98389C3.96486 7.48063 3.25 6.69682 3.25 5.81637ZM12.75 5.81637L12.75 10.5825C12.75 11.4629 12.0351 12.2467 10.9231 12.75V7.98387C12.0351 7.48061 12.75 6.69682 12.75 5.81637ZM5.2596 9.95251C6.03389 9.65653 6.97934 9.4826 7.99999 9.4826C9.02063 9.4826 9.96609 9.65653 10.7404 9.95251" stroke="black" stroke-linecap="round" stroke-linejoin="round"/>
</g>
</svg>
