<svg width="16" height="16" viewBox="0 0 16 16" fill="none" xmlns="http://www.w3.org/2000/svg">
<g id="Maps=world, Size=16px, stroke width=1.5px">
<path id="world" d="M8 12.75C10.6234 12.75 12.75 10.6234 12.75 8C12.75 5.37665 10.6234 3.25 8 3.25M8 12.75C5.37665 12.75 3.25 10.6234 3.25 8C3.25 5.37665 5.37665 3.25 8 3.25M8 12.75C6.78922 12.75 5.80769 10.6234 5.80769 8C5.80769 5.37665 6.78922 3.25 8 3.25M8 12.75C9.21078 12.75 10.1923 10.6234 10.1923 8C10.1923 5.37665 9.21078 3.25 8 3.25M3.25 7.63462C3.25 8.24 5.37665 8.73077 8 8.73077C10.6234 8.73077 12.75 8.24 12.75 7.63462" stroke="black" stroke-width="1.5" stroke-linecap="round" stroke-linejoin="round"/>
</g>
</svg>
