<svg width="16" height="16" viewBox="0 0 16 16" fill="none" xmlns="http://www.w3.org/2000/svg">
<g id="Maps=location, Size=16px, stroke width=1px">
<path id="location" d="M11.6538 8C11.6538 10.018 10.018 11.6538 8 11.6538M11.6538 8C11.6538 5.98204 10.018 4.34615 8 4.34615M11.6538 8H12.75M8 11.6538C5.98204 11.6538 4.34615 10.018 4.34615 8M8 11.6538V12.75M4.34615 8C4.34615 5.98204 5.98204 4.34615 8 4.34615M4.34615 8H3.25M8 4.34615V3.25M9.09615 8C9.09615 8.60539 8.60539 9.09615 8 9.09615C7.39461 9.09615 6.90385 8.60539 6.90385 8C6.90385 7.39461 7.39461 6.90385 8 6.90385C8.60539 6.90385 9.09615 7.39461 9.09615 8Z" stroke="black" stroke-linecap="round" stroke-linejoin="round"/>
</g>
</svg>
