<svg width="24" height="24" viewBox="0 0 24 24" fill="none" xmlns="http://www.w3.org/2000/svg">
<g id="Media=megaphone, Size=24px, weight=light">
<path id="fast-forward" d="M9.77884 14.2984V17.5325C9.77884 18.1916 9.24457 18.7258 8.58552 18.7258C7.97958 18.7258 7.46983 18.2717 7.40012 17.6698L7.00961 14.2984M5.625 13.0453V10.9547C5.625 10.4702 5.90428 10.0292 6.34223 9.82198C6.50976 9.74272 6.69279 9.70161 6.87812 9.70161H9.94257C10.1369 9.70161 10.327 9.64499 10.4897 9.53867L15.3043 6.39179C16.302 5.73971 17.625 6.45551 17.625 7.64738V16.3526C17.625 17.5445 16.302 18.2603 15.3043 17.6082L10.4897 14.4613C10.327 14.355 10.1369 14.2984 9.94257 14.2984H6.87812C6.69279 14.2984 6.50976 14.2573 6.34223 14.178C5.90428 13.9708 5.625 13.5297 5.625 13.0453Z" stroke="black" stroke-linecap="round" stroke-linejoin="round"/>
</g>
</svg>
