<svg width="24" height="24" viewBox="0 0 24 24" fill="none" xmlns="http://www.w3.org/2000/svg">
<g id="Media=gif-alternative, Size=24px, stroke width=1.5px">
<path id="Vector" d="M14.7404 19.125H7.06731C5.85653 19.125 4.875 18.1435 4.875 16.9327V7.06731C4.875 5.85653 5.85653 4.875 7.0673 4.875H16.9327C18.1435 4.875 19.125 5.85653 19.125 7.06731L19.125 14.7404M14.7404 19.125V14.7404H19.125M14.7404 19.125C15.0913 19.125 15.4279 18.9856 15.676 18.7375L18.7375 15.676C18.9856 15.4279 19.125 15.0913 19.125 14.7404M12.4526 8.28801V12.75M14.5345 12.75V8.56689C14.5345 8.38097 14.625 8.28801 14.8061 8.28801H17.25M16.8879 10.5191H14.5345M9.10346 10.7049H10.2802C10.4612 10.7049 10.5517 10.7978 10.5517 10.9837V11.8203C10.5517 12.0992 10.3707 12.3781 10.0992 12.4711C9.8276 12.564 9.46553 12.657 8.74139 12.657C7.29312 12.657 6.75002 11.6344 6.75002 10.7049C6.75002 9.77527 7.02157 8.56682 8.46984 8.28794C9.73708 8.10203 10.3707 8.65977 10.3707 8.65977" stroke="black" stroke-width="1.5" stroke-linecap="round" stroke-linejoin="round"/>
</g>
</svg>
