<svg width="16" height="16" viewBox="0 0 16 16" fill="none" xmlns="http://www.w3.org/2000/svg">
<g id="Media=monitor, Size=16px, weight=light">
<path id="monitor" d="M6.75 10.3342V12.2144M9.30847 10.3342V12.2442M5.25 12.25H10.75M4.81576 10.1958H11.1842C11.9223 10.1958 12.2914 10.1958 12.5207 9.96723C12.75 9.73863 12.75 9.3707 12.75 8.63485V5.31099C12.75 4.57513 12.75 4.2072 12.5207 3.9786C12.2914 3.75 11.9223 3.75 11.1842 3.75H4.81576C4.07765 3.75 3.7086 3.75 3.4793 3.9786C3.25 4.2072 3.25 4.57513 3.25 5.31099V8.63485C3.25 9.37071 3.25 9.73863 3.4793 9.96723C3.7086 10.1958 4.07765 10.1958 4.81576 10.1958Z" stroke="black" stroke-linecap="round" stroke-linejoin="round"/>
</g>
</svg>
