<svg width="24" height="24" viewBox="0 0 24 24" fill="none" xmlns="http://www.w3.org/2000/svg">
<g id="Media=php, Size=24px, weight=light">
<path id="paper" d="M10.6414 3.75775V7.34346C10.6414 8.22659 9.94422 8.94307 9.08346 8.94307H5.2689M16.1537 20.25H7.84632C6.41262 20.25 5.25 19.0562 5.25 17.584V9.22656C5.25 8.63743 5.4876 8.07433 5.9061 7.67124L9.31512 4.32695C9.70014 3.95597 10.2083 3.75 10.7359 3.75H16.1537C17.5874 3.75 18.75 4.94376 18.75 6.41602V17.584C18.75 19.0562 17.5879 20.25 16.1537 20.25Z" stroke="black" stroke-linecap="round" stroke-linejoin="round"/>
<path id="Vector" d="M10.5309 12V15.2M10.6541 13.6H13.1506M13.1986 12V15.2M7.2002 15.2V12H8.40126C9.08233 12 9.37726 12.4544 9.37726 12.8635C9.37726 13.2725 9.08233 13.7269 8.40126 13.7269H7.2002M14.6231 15.2V12H15.8242C16.5047 12 16.8002 12.4544 16.8002 12.8635C16.8002 13.2725 16.5053 13.7269 15.8242 13.7269H14.6231" stroke="black" stroke-linecap="round" stroke-linejoin="round"/>
</g>
</svg>
