<svg width="24" height="24" viewBox="0 0 24 24" fill="none" xmlns="http://www.w3.org/2000/svg">
<g id="Media=photo, Size=24px, weight=regular">
<g id="photo">
<path d="M14.7404 13.0961C14.7404 14.6096 13.5135 15.8365 12 15.8365C10.4865 15.8365 9.25962 14.6096 9.25962 13.0961C9.25962 11.5827 10.4865 10.3558 12 10.3558C13.5135 10.3558 14.7404 11.5827 14.7404 13.0961Z" stroke="black" stroke-width="1.5" stroke-linecap="round" stroke-linejoin="round"/>
<path d="M4.875 16.875L4.875 10.1958C4.875 9.07338 5.78493 8.16345 6.90738 8.16345C7.67719 8.16345 8.38093 7.72852 8.7252 7.03998L9.18581 6.11877C9.56694 5.3565 10.346 4.875 11.1983 4.875L12.8017 4.87501C13.654 4.87501 14.4331 5.35652 14.8142 6.11878L15.2748 7.04C15.6191 7.72854 16.3228 8.16347 17.0926 8.16347C18.2151 8.16347 19.125 9.0734 19.125 10.1959V16.875C19.125 18.1176 18.1176 19.125 16.875 19.125H7.125C5.88236 19.125 4.875 18.1176 4.875 16.875Z" stroke="black" stroke-width="1.5" stroke-linecap="round" stroke-linejoin="round"/>
</g>
</g>
</svg>
