<svg width="24" height="24" viewBox="0 0 24 24" fill="none" xmlns="http://www.w3.org/2000/svg">
<g id="Media=js, Size=24px, stroke width=1px">
<path id="paper" d="M10.6414 3.75775V7.34346C10.6414 8.22659 9.94422 8.94307 9.08346 8.94307H5.2689M16.1537 20.25H7.84632C6.41262 20.25 5.25 19.0562 5.25 17.584V9.22656C5.25 8.63743 5.4876 8.07433 5.9061 7.67124L9.31512 4.32695C9.70014 3.95597 10.2083 3.75 10.7359 3.75H16.1537C17.5874 3.75 18.75 4.94376 18.75 6.41602V17.584C18.75 19.0562 17.5879 20.25 16.1537 20.25Z" stroke="black" stroke-linecap="round" stroke-linejoin="round"/>
<path id="Vector" d="M9 14.7071C9.28882 15.0556 9.67151 15.3501 10.1641 15.3501C10.5413 15.3501 11.1349 15.0931 11.1349 14.1948V11.6001H10.5104M14.6394 11.7302C13.5841 11.4005 12.8529 11.7275 12.8529 12.381C12.8529 13.4916 15 13.3317 15 14.4109C15 15.3688 13.7663 15.5558 12.6784 14.9277" stroke="black" stroke-linecap="round" stroke-linejoin="round"/>
</g>
</svg>
