<svg width="24" height="24" viewBox="0 0 24 24" fill="none" xmlns="http://www.w3.org/2000/svg">
<g id="Media=megaphone, Size=24px, stroke width=1.5px">
<path id="fast-forward" d="M9.77884 14.2986V17.5326C9.77884 18.1917 9.24457 18.726 8.58552 18.726C7.97958 18.726 7.46983 18.2719 7.40012 17.6699L7.00961 14.2986M5.625 13.0454V10.9549C5.625 10.4704 5.90428 10.0293 6.34223 9.8221C6.50976 9.74284 6.69279 9.70173 6.87812 9.70173H9.94257C10.1369 9.70173 10.327 9.64511 10.4897 9.53879L15.3043 6.39191C16.302 5.73983 17.625 6.45564 17.625 7.64751V16.3527C17.625 17.5446 16.302 18.2604 15.3043 17.6083L10.4897 14.4614C10.327 14.3551 10.1369 14.2985 9.94257 14.2985H6.87812C6.69279 14.2985 6.50976 14.2574 6.34223 14.1781C5.90428 13.971 5.625 13.5299 5.625 13.0454Z" stroke="black" stroke-width="1.5" stroke-linecap="round" stroke-linejoin="round"/>
</g>
</svg>
