<svg width="24" height="24" viewBox="0 0 24 24" fill="none" xmlns="http://www.w3.org/2000/svg">
<g id="Media=tuner-alternative, Size=24px, weight=regular">
<g id="tuner-alternative">
<path d="M10.3558 16.9615C10.3558 16.3402 10.8594 15.8365 11.4808 15.8365H12.5192C13.1406 15.8365 13.6442 16.3402 13.6442 16.9615V18C13.6442 18.6213 13.1406 19.125 12.5192 19.125H11.4808C10.8594 19.125 10.3558 18.6213 10.3558 18V16.9615Z" stroke="black" stroke-width="1.5" stroke-linecap="round" stroke-linejoin="round"/>
<path d="M10.3558 11.4808C10.3558 10.8594 10.8594 10.3558 11.4808 10.3558H12.5192C13.1406 10.3558 13.6442 10.8594 13.6442 11.4808V12.5192C13.6442 13.1406 13.1406 13.6442 12.5192 13.6442H11.4808C10.8594 13.6442 10.3558 13.1406 10.3558 12.5192V11.4808Z" stroke="black" stroke-width="1.5" stroke-linecap="round" stroke-linejoin="round"/>
<path d="M4.875 16.9615C4.875 16.3402 5.37868 15.8365 6 15.8365H7.03846C7.65978 15.8365 8.16346 16.3402 8.16346 16.9615V18C8.16346 18.6213 7.65978 19.125 7.03846 19.125H6C5.37868 19.125 4.875 18.6213 4.875 18V16.9615Z" stroke="black" stroke-width="1.5" stroke-linecap="round" stroke-linejoin="round"/>
<path d="M15.8365 16.9615C15.8365 16.3402 16.3402 15.8365 16.9615 15.8365H18C18.6213 15.8365 19.125 16.3402 19.125 16.9615V18C19.125 18.6213 18.6213 19.125 18 19.125H16.9615C16.3402 19.125 15.8365 18.6213 15.8365 18V16.9615Z" stroke="black" stroke-width="1.5" stroke-linecap="round" stroke-linejoin="round"/>
<path d="M15.8365 11.4808C15.8365 10.8594 16.3402 10.3558 16.9615 10.3558H18C18.6213 10.3558 19.125 10.8594 19.125 11.4808V12.5192C19.125 13.1406 18.6213 13.6442 18 13.6442H16.9615C16.3402 13.6442 15.8365 13.1406 15.8365 12.5192V11.4808Z" stroke="black" stroke-width="1.5" stroke-linecap="round" stroke-linejoin="round"/>
<path d="M10.3558 6C10.3558 5.37868 10.8594 4.875 11.4808 4.875H12.5192C13.1406 4.875 13.6442 5.37868 13.6442 6V7.03846C13.6442 7.65978 13.1406 8.16346 12.5192 8.16346H11.4808C10.8594 8.16346 10.3558 7.65978 10.3558 7.03846V6Z" stroke="black" stroke-width="1.5" stroke-linecap="round" stroke-linejoin="round"/>
</g>
</g>
</svg>
