<svg width="24" height="24" viewBox="0 0 24 24" fill="none" xmlns="http://www.w3.org/2000/svg">
<g id="Media=png, Size=24px, weight=regular">
<path id="paper" d="M10.6414 3.75775V7.34346C10.6414 8.22659 9.94422 8.94307 9.08346 8.94307H5.2689M16.1537 20.25H7.84632C6.41262 20.25 5.25 19.0562 5.25 17.584V9.22656C5.25 8.63743 5.4876 8.07433 5.9061 7.67124L9.31512 4.32695C9.70014 3.95597 10.2083 3.75 10.7359 3.75H16.1537C17.5874 3.75 18.75 4.94376 18.75 6.41602V17.584C18.75 19.0562 17.5879 20.25 16.1537 20.25Z" stroke="black" stroke-width="1.5" stroke-linecap="round" stroke-linejoin="round"/>
<path id="Vector" d="M7.5 15V12H8.61222C9.24273 12 9.51631 12.4262 9.51631 12.8095C9.51631 13.1928 9.24273 13.619 8.61222 13.619H7.5M13.0498 12V15L10.7252 12V15M16.5 12.2845C16.2857 12.1066 16.0653 12 15.6782 12C14.8427 12 14.2301 12.6471 14.2301 13.5C14.2301 14.3529 14.8432 15 15.6782 15C16.0659 15 16.2857 14.8929 16.5 14.715V13.6588H16.0781" stroke="black" stroke-width="1.5" stroke-linecap="round" stroke-linejoin="round"/>
</g>
</svg>
