<svg width="24" height="24" viewBox="0 0 24 24" fill="none" xmlns="http://www.w3.org/2000/svg">
<g id="Media=music, Size=24px, stroke width=1px">
<path id="music" d="M9.25962 16.6587V7.61538L19.125 4.875V14.7404M9.25962 16.9327C9.25962 18.1434 8.27809 19.125 7.06731 19.125C5.85653 19.125 4.875 18.1434 4.875 16.9327C4.875 15.7219 5.85653 14.7404 7.06731 14.7404C8.27809 14.7404 9.25962 15.7219 9.25962 16.9327ZM19.125 15.2885C19.125 16.4992 18.1435 17.4808 16.9327 17.4808C15.7219 17.4808 14.7404 16.4992 14.7404 15.2885C14.7404 14.0777 15.7219 13.0962 16.9327 13.0962C18.1435 13.0962 19.125 14.0777 19.125 15.2885Z" stroke="black" stroke-linecap="round" stroke-linejoin="round"/>
</g>
</svg>
