<svg width="16" height="16" viewBox="0 0 16 16" fill="none" xmlns="http://www.w3.org/2000/svg">
<g id="Media=css, Size=16px, weight=regular">
<path id="paper" d="M7.09424 2.50517V4.89564C7.09424 5.4844 6.62948 5.96205 6.05564 5.96205H3.5126M10.7691 13.5H5.23088C4.27508 13.5 3.5 12.7042 3.5 11.7227V6.15104C3.5 5.75829 3.6584 5.38289 3.9374 5.11416L6.21008 2.88463C6.46676 2.63732 6.80552 2.5 7.15724 2.5H10.7691C11.7249 2.5 12.5 3.29584 12.5 4.27735V11.7227C12.5 12.7042 11.7253 13.5 10.7691 13.5Z" stroke="black" stroke-width="1.5" stroke-linecap="round" stroke-linejoin="round"/>
<path id="Vector" d="M6.48431 9.94009C6.33718 10.0587 6.18625 10.1298 5.92021 10.1298C5.34692 10.1298 4.92614 9.69824 4.92614 9.12967C4.92614 8.56109 5.34723 8.12982 5.92053 8.12982C6.18625 8.12982 6.3375 8.20128 6.48463 8.31955M8.50908 8.22094C7.94181 8.04619 7.54925 8.21938 7.54925 8.56577C7.54925 9.15401 8.70313 9.06913 8.70313 9.64082C8.70313 10.1482 8.04042 10.2468 7.45571 9.9145M10.6985 8.22094C10.1312 8.04619 9.73866 8.21938 9.73866 8.56577C9.73866 9.15401 10.8925 9.06913 10.8925 9.64082C10.8925 10.1482 10.2298 10.2468 9.64512 9.9145" stroke="black" stroke-width="1.5" stroke-linecap="round" stroke-linejoin="round"/>
</g>
</svg>
