<svg width="32" height="32" viewBox="0 0 32 32" fill="none" xmlns="http://www.w3.org/2000/svg">
<g id="Media=music, Size=32px, weight=light">
<path id="music" d="M12.3462 22.2115V10.1538L25.5 6.5V19.6538M12.3462 22.5769C12.3462 24.1913 11.0374 25.5 9.42308 25.5C7.80871 25.5 6.5 24.1913 6.5 22.5769C6.5 20.9625 7.80871 19.6538 9.42308 19.6538C11.0374 19.6538 12.3462 20.9625 12.3462 22.5769ZM25.5 20.3846C25.5 21.999 24.1913 23.3077 22.5769 23.3077C20.9625 23.3077 19.6538 21.999 19.6538 20.3846C19.6538 18.7703 20.9625 17.4615 22.5769 17.4615C24.1913 17.4615 25.5 18.7703 25.5 20.3846Z" stroke="black" stroke-linecap="round" stroke-linejoin="round"/>
</g>
</svg>
