<svg width="32" height="32" viewBox="0 0 32 32" fill="none" xmlns="http://www.w3.org/2000/svg">
<g id="Media=megaphone, Size=32px, stroke width=1.5px">
<path id="fast-forward" d="M13.0385 19.0647V23.3769C13.0385 24.2556 12.3261 24.968 11.4474 24.968C10.6394 24.968 9.95978 24.3625 9.86682 23.5599L9.34615 19.0647M7.5 17.3938V14.6065C7.5 13.9605 7.87238 13.3724 8.45631 13.0961C8.67968 12.9905 8.92372 12.9356 9.17083 12.9356H13.356C13.5504 12.9356 13.7405 12.879 13.9031 12.7727L20.4058 8.52255C21.736 7.65311 23.5 8.60751 23.5 10.1967V21.8036C23.5 23.3928 21.736 24.3472 20.4058 23.4778L13.9031 19.2276C13.7405 19.1213 13.5504 19.0647 13.356 19.0647H9.17083C8.92372 19.0647 8.67968 19.0099 8.45631 18.9042C7.87238 18.6279 7.5 18.0398 7.5 17.3938Z" stroke="black" stroke-width="1.5" stroke-linecap="round" stroke-linejoin="round"/>
</g>
</svg>
