<svg width="24" height="24" viewBox="0 0 24 24" fill="none" xmlns="http://www.w3.org/2000/svg">
<g id="Media=csv, Size=24px, stroke width=1.5px">
<path id="paper" d="M10.6414 3.75775V7.34346C10.6414 8.22659 9.94422 8.94307 9.08346 8.94307H5.2689M16.1537 20.25H7.84632C6.41262 20.25 5.25 19.0562 5.25 17.584V9.22656C5.25 8.63743 5.4876 8.07433 5.9061 7.67124L9.31512 4.32695C9.70014 3.95597 10.2083 3.75 10.7359 3.75H16.1537C17.5874 3.75 18.75 4.94376 18.75 6.41602V17.584C18.75 19.0562 17.5879 20.25 16.1537 20.25Z" stroke="black" stroke-width="1.5" stroke-linecap="round" stroke-linejoin="round"/>
<path id="Vector" d="M9.84086 14.715C9.61992 14.893 9.39291 15 8.9935 15C8.13198 15 7.5 14.353 7.5 13.5C7.5 12.647 8.13249 12 8.994 12C9.39341 12 9.62042 12.107 9.84136 12.2845M12.6171 12.1035C11.7652 11.8415 11.1752 12.101 11.1752 12.6205C11.1752 13.503 12.9084 13.3755 12.9084 14.233C12.9084 14.994 11.9129 15.142 11.0342 14.6435M16.5 12L15.143 15L13.7865 12" stroke="black" stroke-width="1.5" stroke-linecap="round" stroke-linejoin="round"/>
</g>
</svg>
