<svg width="24" height="24" viewBox="0 0 24 24" fill="none" xmlns="http://www.w3.org/2000/svg">
<g id="Media=txt, Size=24px, stroke width=1.5px">
<path id="paper" d="M10.6414 3.75775V7.34346C10.6414 8.22659 9.94422 8.94307 9.08346 8.94307H5.2689M16.1537 20.25H7.84632C6.41262 20.25 5.25 19.0562 5.25 17.584V9.22656C5.25 8.63743 5.4876 8.07433 5.9061 7.67124L9.31512 4.32695C9.70014 3.95597 10.2083 3.75 10.7359 3.75H16.1537C17.5874 3.75 18.75 4.94376 18.75 6.41602V17.584C18.75 19.0562 17.5879 20.25 16.1537 20.25Z" stroke="black" stroke-width="1.5" stroke-linecap="round" stroke-linejoin="round"/>
<path id="Vector" d="M13.1864 12L10.814 15.1904M10.814 12L13.1864 15.1904M8.5059 15.2V12.0891M9.8116 12H7.2002M15.4945 15.2V12.0891M16.8002 12H14.1888" stroke="black" stroke-width="1.5" stroke-linecap="round" stroke-linejoin="round"/>
</g>
</svg>
