<svg width="16" height="16" viewBox="0 0 16 16" fill="none" xmlns="http://www.w3.org/2000/svg">
<g id="Media=photo, Size=16px, stroke width=1.5px">
<g id="photo">
<path d="M9.82692 8.73077C9.82692 9.73975 9.00898 10.5577 8 10.5577C6.99102 10.5577 6.17308 9.73975 6.17308 8.73077C6.17308 7.72178 6.99102 6.90384 8 6.90384C9.00898 6.90384 9.82692 7.72178 9.82692 8.73077Z" stroke="black" stroke-width="1.5" stroke-linecap="round" stroke-linejoin="round"/>
<path d="M3.25 11.25L3.25 6.79722C3.25 6.04892 3.85662 5.4423 4.60492 5.4423C5.11813 5.4423 5.58729 5.15235 5.8168 4.69332L6.12387 4.07918C6.37796 3.571 6.89736 3.25 7.46552 3.25L8.53449 3.25C9.10265 3.25001 9.62204 3.57101 9.87613 4.07918L10.1832 4.69333C10.4127 5.15236 10.8819 5.44232 11.3951 5.44232C12.1434 5.44232 12.75 6.04893 12.75 6.79724V11.25C12.75 12.0784 12.0784 12.75 11.25 12.75H4.75C3.92157 12.75 3.25 12.0784 3.25 11.25Z" stroke="black" stroke-width="1.5" stroke-linecap="round" stroke-linejoin="round"/>
</g>
</g>
</svg>
