<svg width="24" height="24" viewBox="0 0 24 24" fill="none" xmlns="http://www.w3.org/2000/svg">
<g id="Media=flashlight, Size=24px, weight=regular">
<path id="Vector" d="M14.2935 10.0572L14.2932 19.2952C14.2936 20.4438 13.355 21.375 12.1969 21.375L11.8902 21.375C10.7325 21.3755 9.794 20.4443 9.79404 19.2953L9.79481 10.0578L9.79342 10.0573M14.2935 10.0572L9.79342 10.0573M14.2935 10.0572L16.8628 6.096L7.12507 6.096M9.79342 10.0573L7.12507 6.096M7.12507 6.096L7.12502 3.37502C7.12501 2.9608 7.4608 2.625 7.87502 2.625L16.125 2.625C16.5392 2.625 16.875 2.96079 16.875 3.375V6.096M12.0418 14.7176V17.3272" stroke="black" stroke-width="1.5" stroke-linecap="round" stroke-linejoin="round"/>
</g>
</svg>
