<svg width="24" height="24" viewBox="0 0 24 24" fill="none" xmlns="http://www.w3.org/2000/svg">
<g id="Media=headphones, Size=24px, weight=light">
<path id="headphones" d="M17.4808 11.7869V10.2609C17.4808 7.28634 15.0269 4.875 12 4.875C8.97305 4.875 6.51923 7.28634 6.51923 10.2609V11.7869M16.9327 16.9327L15.9635 18.225C15.5385 18.7916 14.8717 19.125 14.1635 19.125H12M7.61538 16.9327C6.10191 16.9327 4.875 15.7058 4.875 14.1923C4.875 12.6789 6.10191 11.452 7.61538 11.452L7.75956 11.452C8.58801 11.4519 9.25962 12.1235 9.25962 12.952V15.4327C9.25962 16.2611 8.58807 16.9327 7.75967 16.9327L7.61538 16.9327ZM16.3846 16.9327C17.8981 16.9327 19.125 15.7058 19.125 14.1923C19.125 12.6789 17.8981 11.452 16.3846 11.452L16.2404 11.452C15.412 11.4519 14.7404 12.1235 14.7404 12.952V15.4327C14.7404 16.2611 15.4119 16.9327 16.2403 16.9327L16.3846 16.9327Z" stroke="black" stroke-linecap="round" stroke-linejoin="round"/>
</g>
</svg>
