<svg width="32" height="32" viewBox="0 0 32 32" fill="none" xmlns="http://www.w3.org/2000/svg">
<g id="Media=css, Size=32px, stroke width=1px">
<path id="paper" d="M14.1885 5.01034V9.79128C14.1885 10.9688 13.259 11.9241 12.1113 11.9241H7.0252M21.5382 27H10.4618C8.55016 27 7 25.4083 7 23.4453V12.3021C7 11.5166 7.3168 10.7658 7.8748 10.2283L12.4202 5.76926C12.9335 5.27463 13.611 5 14.3145 5H21.5382C23.4498 5 25 6.59168 25 8.5547V23.4453C25 25.4083 23.4506 27 21.5382 27Z" stroke="black" stroke-linecap="round" stroke-linejoin="round"/>
<path id="Vector" d="M13.428 19.3825C13.1043 19.6434 12.7722 19.7999 12.187 19.7999C10.9257 19.7999 10 18.8504 10 17.5996C10 16.3487 10.9264 15.3999 12.1877 15.3999C12.7722 15.3999 13.105 15.5571 13.4287 15.8173M17.3491 15.6004C16.1012 15.2159 15.2375 15.5969 15.2375 16.359C15.2375 17.6531 17.7761 17.4664 17.7761 18.7241C17.7761 19.8404 16.3181 20.0574 15.0317 19.3262M21.5731 15.6004C20.3251 15.2159 19.4615 15.5969 19.4615 16.359C19.4615 17.6531 22 17.4664 22 18.7241C22 19.8404 20.542 20.0574 19.2557 19.3262" stroke="black" stroke-linecap="round" stroke-linejoin="round"/>
</g>
</svg>
