<svg width="16" height="16" viewBox="0 0 16 16" fill="none" xmlns="http://www.w3.org/2000/svg">
<g id="Media=png, Size=16px, stroke width=1.5px">
<path id="paper" d="M7.09424 2.50517V4.89564C7.09424 5.4844 6.62948 5.96205 6.05564 5.96205H3.5126M10.7691 13.5H5.23088C4.27508 13.5 3.5 12.7042 3.5 11.7227V6.15104C3.5 5.75829 3.6584 5.38289 3.9374 5.11416L6.21008 2.88463C6.46676 2.63732 6.80552 2.5 7.15724 2.5H10.7691C11.7249 2.5 12.5 3.29584 12.5 4.27735V11.7227C12.5 12.7042 11.7253 13.5 10.7691 13.5Z" stroke="black" stroke-width="1.5" stroke-linecap="round" stroke-linejoin="round"/>
<path id="Vector" d="M5.00001 9.84672V8H5.68466C6.07279 8 6.2412 8.26236 6.2412 8.4983C6.2412 8.73423 6.07279 8.99659 5.68466 8.99659H5.00001M8.63421 8V9.84672L7.20321 8V9.84672M11 8.17512C10.8681 8.06559 10.7324 8 10.4941 8C9.97979 8 9.60268 8.39832 9.60268 8.92336C9.60268 9.4484 9.98011 9.84672 10.4941 9.84672C10.7327 9.84672 10.8681 9.78081 11 9.67128V9.02111H10.7403" stroke="black" stroke-width="1.5" stroke-linecap="round" stroke-linejoin="round"/>
</g>
</svg>
