<svg width="16" height="16" viewBox="0 0 16 16" fill="none" xmlns="http://www.w3.org/2000/svg">
<g id="Media=jpg, Size=16px, stroke width=1px">
<path id="paper" d="M7.09424 2.50517V4.89564C7.09424 5.4844 6.62948 5.96205 6.05564 5.96205H3.5126M10.7691 13.5H5.23088C4.27508 13.5 3.5 12.7042 3.5 11.7227V6.15104C3.5 5.75829 3.6584 5.38289 3.9374 5.11416L6.21008 2.88463C6.46676 2.63732 6.80552 2.5 7.15724 2.5H10.7691C11.7249 2.5 12.5 3.29584 12.5 4.27735V11.7227C12.5 12.7042 11.7253 13.5 10.7691 13.5Z" stroke="black" stroke-linecap="round" stroke-linejoin="round"/>
<path id="Vector" d="M5 9.66262C5.16103 9.84556 5.37483 10 5.65 10C5.86069 10 6.19172 9.86531 6.19172 9.39388V8.0327H5.8431M7.27172 9.9673V8M7.27172 9.06168H8.05793C8.50379 9.06168 8.6969 8.78226 8.6969 8.531C8.6969 8.27975 8.50379 8.00032 8.05793 8.00032H7.27172M11 8.18682C10.8486 8.07026 10.6931 8 10.419 8C9.82862 8 9.39517 8.42448 9.39517 8.98365C9.39517 9.54282 9.82828 9.9673 10.419 9.9673C10.6928 9.9673 10.8483 9.89704 11 9.78048V9.08791H10.7017" stroke="black" stroke-linecap="round" stroke-linejoin="round"/>
</g>
</svg>
