<svg width="24" height="24" viewBox="0 0 24 24" fill="none" xmlns="http://www.w3.org/2000/svg">
<g id="Media=psd, Size=24px, stroke width=1px">
<path id="paper" d="M10.6414 3.75775V7.34346C10.6414 8.22659 9.94422 8.94307 9.08346 8.94307H5.2689M16.1537 20.25H7.84632C6.41262 20.25 5.25 19.0562 5.25 17.584V9.22656C5.25 8.63743 5.4876 8.07433 5.9061 7.67124L9.31512 4.32695C9.70014 3.95597 10.2083 3.75 10.7359 3.75H16.1537C17.5874 3.75 18.75 4.94376 18.75 6.41602V17.584C18.75 19.0562 17.5879 20.25 16.1537 20.25Z" stroke="black" stroke-linecap="round" stroke-linejoin="round"/>
<path id="Vector" d="M7.5 15.2842V12.0001H8.73372C9.43268 12.0001 9.73645 12.4664 9.73645 12.8863C9.73645 13.3061 9.43322 13.7724 8.73372 13.7724H7.5M12.4387 12.114C11.5159 11.825 10.8766 12.1112 10.8766 12.6843C10.8766 13.6569 12.7545 13.5168 12.7545 14.4621C12.7545 15.3011 11.6757 15.4643 10.7244 14.9147M14.0643 12.0001V15.2842H14.8935C15.8197 15.2842 16.5 14.5759 16.5 13.6421C16.5 12.7084 15.8202 12.0001 14.8935 12.0001H14.0643Z" stroke="black" stroke-linecap="round" stroke-linejoin="round"/>
</g>
</svg>
