<svg width="16" height="16" viewBox="0 0 16 16" fill="none" xmlns="http://www.w3.org/2000/svg">
<g id="Media=csv, Size=16px, stroke width=1px">
<path id="paper" d="M7.09424 2.50517V4.89564C7.09424 5.4844 6.62948 5.96205 6.05564 5.96205H3.5126M10.7691 13.5H5.23088C4.27508 13.5 3.5 12.7042 3.5 11.7227V6.15104C3.5 5.75829 3.6584 5.38289 3.9374 5.11416L6.21008 2.88463C6.46676 2.63732 6.80552 2.5 7.15724 2.5H10.7691C11.7249 2.5 12.5 3.29584 12.5 4.27735V11.7227C12.5 12.7042 11.7253 13.5 10.7691 13.5Z" stroke="black" stroke-linecap="round" stroke-linejoin="round"/>
<path id="Vector" d="M6.4674 9.81913C6.3289 9.93071 6.1866 9.99778 5.93622 9.99778C5.39617 9.99778 5 9.5922 5 9.05748C5 8.52277 5.39648 8.11719 5.93654 8.11719C6.18691 8.11719 6.32922 8.18426 6.46772 8.29553M8.37312 8.18204C7.83909 8.01781 7.46923 8.18048 7.46923 8.50613C7.46923 9.05934 8.55567 8.97942 8.55567 9.51695C8.55567 9.994 7.93163 10.0868 7.3808 9.77428M11 8.11719L10.1494 9.99778L9.29902 8.11719" stroke="black" stroke-linecap="round" stroke-linejoin="round"/>
</g>
</svg>
