<svg width="24" height="24" viewBox="0 0 24 24" fill="none" xmlns="http://www.w3.org/2000/svg">
<g id="Media=html, Size=24px, weight=light">
<path id="paper" d="M10.6414 3.75775V7.34346C10.6414 8.22659 9.94422 8.94307 9.08346 8.94307H5.2689M16.1537 20.25H7.84632C6.41262 20.25 5.25 19.0562 5.25 17.584V9.22656C5.25 8.63743 5.4876 8.07433 5.9061 7.67124L9.31512 4.32695C9.70014 3.95597 10.2083 3.75 10.7359 3.75H16.1537C17.5874 3.75 18.75 4.94376 18.75 6.41602V17.584C18.75 19.0562 17.5879 20.25 16.1537 20.25Z" stroke="black" stroke-linecap="round" stroke-linejoin="round"/>
<path id="Vector" d="M15.6712 11.9535V14.1253H17M14.4502 14.1253V11.9535L13.3964 13.363L12.3427 11.9535V14.1253M7 11.9535V14.1253M7 12.9937H8.62482M8.62482 11.9535V14.1253M10.4417 14.1253V12.0027M11.228 11.9535H9.65537" stroke="black" stroke-linecap="round" stroke-linejoin="round"/>
</g>
</svg>
