<svg width="16" height="16" viewBox="0 0 16 16" fill="none" xmlns="http://www.w3.org/2000/svg">
<g id="Media=megaphone, Size=16px, stroke width=1px">
<path id="fast-forward" d="M6.51923 9.53237V11.6884C6.51923 12.1278 6.16305 12.484 5.72368 12.484C5.31972 12.484 4.97989 12.1812 4.93341 11.78L4.67308 9.53237M3.75 8.69692V7.30324C3.75 6.98024 3.93619 6.68619 4.22815 6.54807C4.33984 6.49523 4.46186 6.46782 4.58541 6.46782H6.52911C6.72343 6.46782 6.91355 6.4112 7.07621 6.30488L10.2029 4.26127C10.868 3.82655 11.75 4.30376 11.75 5.09834V10.9018C11.75 11.6964 10.868 12.1736 10.2029 11.7389L7.07621 9.69528C6.91355 9.58896 6.72343 9.53234 6.52911 9.53234H4.58541C4.46186 9.53234 4.33984 9.50493 4.22815 9.45209C3.93619 9.31397 3.75 9.01991 3.75 8.69692Z" stroke="black" stroke-linecap="round" stroke-linejoin="round"/>
</g>
</svg>
