<svg width="24" height="24" viewBox="0 0 24 24" fill="none" xmlns="http://www.w3.org/2000/svg">
<g id="Media=volume, Size=24px, stroke width=1px">
<path id="volume" d="M15.9231 8.06116C17.3943 8.92313 18.375 10.4692 18.375 12.233C18.375 13.9969 17.3943 15.5429 15.9231 16.4049M15.4327 11.0674C15.727 11.3083 15.9231 11.7403 15.9231 12.2332C15.9231 12.7261 15.727 13.1582 15.4327 13.3991M5.625 13.298V10.702C5.625 9.87356 6.29657 9.20198 7.125 9.20198H7.28377C7.79324 9.20198 8.28351 9.00755 8.6545 8.65838L12.2071 5.31472C12.6858 4.86424 13.4712 5.20358 13.4712 5.86086V18.1392C13.4712 18.7965 12.6858 19.1358 12.2071 18.6854L8.6545 15.3416C8.28351 14.9925 7.79324 14.798 7.28376 14.798H7.125C6.29657 14.798 5.625 14.1265 5.625 13.298Z" stroke="black" stroke-miterlimit="16" stroke-linecap="round" stroke-linejoin="round"/>
</g>
</svg>
