<svg width="32" height="32" viewBox="0 0 32 32" fill="none" xmlns="http://www.w3.org/2000/svg">
<g id="Media=auto-play, Size=32px, weight=light">
<path id="Vector" d="M21.2914 4.29119L22.6702 9.51426M22.6702 9.51426L17.7047 10.5186M22.6702 9.51426C18.4772 5.32126 11.7094 5.29088 7.55388 9.44638C3.39838 13.6019 3.42878 20.3697 7.62177 24.5627C11.8148 28.7557 18.5826 28.7861 22.7381 24.6306C24.9413 22.4273 25.9678 19.4897 25.8212 16.5909M11.9029 13.538V20.8916C11.9029 21.7276 12.8316 22.229 13.5305 21.7703L19.003 18.179C19.6274 17.7693 19.6372 16.8573 19.0218 16.4342L13.5493 12.6719C12.852 12.1925 11.9029 12.6917 11.9029 13.538Z" stroke="black" stroke-linecap="round" stroke-linejoin="round"/>
</g>
</svg>
