<svg width="24" height="24" viewBox="0 0 24 24" fill="none" xmlns="http://www.w3.org/2000/svg">
<g id="Media=monitor, Size=24px, stroke width=1px">
<path id="monitor" d="M10.125 15.5013V18.3216M13.9627 15.5013V18.3662M7.875 18.375H16.125M7.22364 15.2938H16.7764C17.8835 15.2938 18.4371 15.2938 18.781 14.9509C19.125 14.608 19.125 14.0561 19.125 12.9523V7.96648C19.125 6.8627 19.125 6.3108 18.781 5.9679C18.4371 5.625 17.8835 5.625 16.7764 5.625H7.22364C6.11648 5.625 5.5629 5.625 5.21895 5.9679C4.875 6.3108 4.875 6.8627 4.875 7.96648V12.9523C4.875 14.0561 4.875 14.608 5.21895 14.9509C5.5629 15.2938 6.11648 15.2938 7.22364 15.2938Z" stroke="black" stroke-linecap="round" stroke-linejoin="round"/>
</g>
</svg>
