<svg width="24" height="24" viewBox="0 0 24 24" fill="none" xmlns="http://www.w3.org/2000/svg">
<g id="Media=mp3, Size=24px, stroke width=1px">
<path id="paper" d="M10.6414 3.75775V7.34346C10.6414 8.22659 9.94422 8.94307 9.08346 8.94307H5.2689M16.1537 20.25H7.84632C6.41262 20.25 5.25 19.0562 5.25 17.584V9.22656C5.25 8.63743 5.4876 8.07433 5.9061 7.67124L9.31512 4.32695C9.70014 3.95597 10.2083 3.75 10.7359 3.75H16.1537C17.5874 3.75 18.75 4.94376 18.75 6.41602V17.584C18.75 19.0562 17.5879 20.25 16.1537 20.25Z" stroke="black" stroke-linecap="round" stroke-linejoin="round"/>
<path id="Vector" d="M11.5084 14.9995V12.0005M11.5084 13.6189H12.6248C13.2581 13.6189 13.5322 13.1931 13.5322 12.8094C13.5322 12.4258 13.2575 12 12.6248 12H11.5084M10.0101 14.9995V12.0005L8.56754 13.9473L7.125 12.0005V14.9995M14.654 12.3875C14.783 12.1672 15.1204 12.0005 15.6026 12.0005C16.2136 12.0005 16.6047 12.2547 16.6047 12.6427C16.6047 12.9291 16.3582 13.3817 15.6692 13.4095C16.3994 13.4095 16.875 13.6839 16.875 14.1769C16.875 14.6699 16.4341 15 15.5814 15C14.9964 15 14.5419 14.7912 14.4081 14.3988" stroke="black" stroke-linecap="round" stroke-linejoin="round"/>
</g>
</svg>
