<svg width="24" height="24" viewBox="0 0 24 24" fill="none" xmlns="http://www.w3.org/2000/svg">
<g id="Media=zip, Size=24px, weight=light">
<path id="paper" d="M10.6414 3.75775V7.34346C10.6414 8.22659 9.94422 8.94307 9.08346 8.94307H5.2689M16.1537 20.25H7.84632C6.41262 20.25 5.25 19.0562 5.25 17.584V9.22656C5.25 8.63743 5.4876 8.07433 5.9061 7.67124L9.31512 4.32695C9.70014 3.95597 10.2083 3.75 10.7359 3.75H16.1537C17.5874 3.75 18.75 4.94376 18.75 6.41602V17.584C18.75 19.0562 17.5879 20.25 16.1537 20.25Z" stroke="black" stroke-linecap="round" stroke-linejoin="round"/>
<path id="Vector" d="M13.8251 15.3V12M13.8251 13.8382H15.0937C15.8131 13.8382 16.125 13.3545 16.125 12.9194C16.125 12.4842 15.8131 12.0005 15.0937 12.0005H13.8251M11.9481 12V15.3M7.98186 12.0005L10.1416 12L7.875 15.2423H10.1785" stroke="black" stroke-linecap="round" stroke-linejoin="round"/>
</g>
</svg>
