<svg width="16" height="16" viewBox="0 0 16 16" fill="none" xmlns="http://www.w3.org/2000/svg">
<g id="Media=ppt, Size=16px, weight=regular">
<path id="paper" d="M7.09424 2.50517V4.89564C7.09424 5.4844 6.62948 5.96205 6.05564 5.96205H3.5126M10.7691 13.5H5.23088C4.27508 13.5 3.5 12.7042 3.5 11.7227V6.15104C3.5 5.75829 3.6584 5.38289 3.9374 5.11416L6.21008 2.88463C6.46676 2.63732 6.80552 2.5 7.15724 2.5H10.7691C11.7249 2.5 12.5 3.29584 12.5 4.27735V11.7227C12.5 12.7042 11.7253 13.5 10.7691 13.5Z" stroke="black" stroke-width="1.5" stroke-linecap="round" stroke-linejoin="round"/>
<path id="Vector" d="M5 9.85237V8H5.70117C6.09842 8 6.27107 8.26304 6.27107 8.49983C6.27107 8.73663 6.09873 8.99966 5.70117 8.99966H5M7.23734 9.85237V8H7.93851C8.33607 8 8.5084 8.26304 8.5084 8.49983C8.5084 8.73663 8.33607 8.99966 7.93851 8.99966H7.23734M10.1651 9.85237V8.05156M11 8H9.33044" stroke="black" stroke-width="1.5" stroke-linecap="round" stroke-linejoin="round"/>
</g>
</svg>
