<svg width="16" height="16" viewBox="0 0 16 16" fill="none" xmlns="http://www.w3.org/2000/svg">
<g id="Media=megaphone, Size=16px, weight=light">
<path id="fast-forward" d="M6.51923 9.53225V11.6883C6.51923 12.1277 6.16305 12.4839 5.72368 12.4839C5.31972 12.4839 4.97989 12.1811 4.93341 11.7798L4.67308 9.53225M3.75 8.6968V7.30311C3.75 6.98012 3.93619 6.68607 4.22815 6.54794C4.33984 6.49511 4.46186 6.4677 4.58541 6.4677H6.52911C6.72343 6.4677 6.91355 6.41108 7.07621 6.30476L10.2029 4.26115C10.868 3.82643 11.75 4.30364 11.75 5.09822V10.9017C11.75 11.6963 10.868 12.1735 10.2029 11.7388L7.07621 9.69515C6.91355 9.58884 6.72343 9.53222 6.52911 9.53222H4.58541C4.46186 9.53222 4.33984 9.50481 4.22815 9.45197C3.93619 9.31385 3.75 9.01979 3.75 8.6968Z" stroke="black" stroke-linecap="round" stroke-linejoin="round"/>
</g>
</svg>
