<svg width="24" height="24" viewBox="0 0 24 24" fill="none" xmlns="http://www.w3.org/2000/svg">
<g id="Media=css, Size=24px, stroke width=1.5px">
<path id="paper" d="M10.6414 3.75775V7.34346C10.6414 8.22659 9.94422 8.94307 9.08346 8.94307H5.2689M16.1537 20.25H7.84632C6.41262 20.25 5.25 19.0562 5.25 17.584V9.22656C5.25 8.63743 5.4876 8.07433 5.9061 7.67124L9.31512 4.32695C9.70014 3.95597 10.2083 3.75 10.7359 3.75H16.1537C17.5874 3.75 18.75 4.94376 18.75 6.41602V17.584C18.75 19.0562 17.5879 20.25 16.1537 20.25Z" stroke="black" stroke-width="1.5" stroke-linecap="round" stroke-linejoin="round"/>
<path id="Vector" d="M10.071 14.537C9.82822 14.7327 9.57918 14.85 9.14022 14.85C8.19428 14.85 7.5 14.1379 7.5 13.1998C7.5 12.2616 8.1948 11.55 9.14074 11.55C9.57918 11.55 9.82874 11.668 10.0715 11.8631M13.0119 11.7004C12.0759 11.4121 11.4281 11.6978 11.4281 12.2694C11.4281 13.24 13.3321 13.0999 13.3321 14.0432C13.3321 14.8804 12.2386 15.0431 11.2738 14.4948M16.1798 11.7004C15.2438 11.4121 14.5961 11.6978 14.5961 12.2694C14.5961 13.24 16.5 13.0999 16.5 14.0432C16.5 14.8804 15.4065 15.0431 14.4418 14.4948" stroke="black" stroke-width="1.5" stroke-linecap="round" stroke-linejoin="round"/>
</g>
</svg>
