<svg width="16" height="16" viewBox="0 0 16 16" fill="none" xmlns="http://www.w3.org/2000/svg">
<g id="Media=auto-play, Size=16px, weight=regular">
<path id="update" d="M10.6456 2.14559L11.335 4.75712M11.335 4.75712L8.85224 5.25931M11.335 4.75712C9.23847 2.66062 5.85457 2.64543 3.77682 4.72318C1.69907 6.80093 1.71427 10.1848 3.81077 12.2813C5.90726 14.3778 9.29116 14.393 11.3689 12.3153C12.4705 11.2137 12.9838 9.74487 12.9105 8.29546" stroke="black" stroke-width="1.5" stroke-linecap="round" stroke-linejoin="round"/>
<path id="play" d="M5.95117 10.4458V6.76903C5.95117 6.3459 6.42572 6.09627 6.7744 6.33599L9.51062 8.21714C9.81832 8.42869 9.81341 8.88466 9.50123 9.08953L6.76501 10.8852C6.41554 11.1145 5.95117 10.8638 5.95117 10.4458Z" stroke="black" stroke-width="1.5" stroke-linecap="round" stroke-linejoin="round"/>
</g>
</svg>
