<svg width="32" height="32" viewBox="0 0 32 32" fill="none" xmlns="http://www.w3.org/2000/svg">
<g id="Media=headphones, Size=32px, weight=regular">
<path id="headphones" d="M23.3077 15.7158V13.6812C23.3077 9.71511 20.0359 6.5 16 6.5C11.9641 6.5 8.69231 9.71511 8.69231 13.6812V15.7158M22.5769 22.5769L21.2846 24.3C20.7181 25.0554 19.8289 25.5 18.8846 25.5H16M10.1538 22.5769C8.13588 22.5769 6.5 20.9411 6.5 18.9231C6.5 16.9052 8.13588 15.2693 10.1538 15.2693L10.3461 15.2693C11.4507 15.2693 12.3462 16.1647 12.3462 17.2693V20.5769C12.3462 21.6815 11.4508 22.5769 10.3462 22.5769L10.1538 22.5769ZM21.8462 22.5769C23.8641 22.5769 25.5 20.9411 25.5 18.9231C25.5 16.9052 23.8641 15.2693 21.8462 15.2693L21.6539 15.2693C20.5493 15.2693 19.6538 16.1647 19.6538 17.2693V20.5769C19.6538 21.6815 20.5492 22.5769 21.6538 22.5769L21.8462 22.5769Z" stroke="black" stroke-width="1.5" stroke-linecap="round" stroke-linejoin="round"/>
</g>
</svg>
