<svg width="16" height="16" viewBox="0 0 16 16" fill="none" xmlns="http://www.w3.org/2000/svg">
<g id="Media=mp4, Size=16px, weight=light">
<path id="paper" d="M7.09424 2.50517V4.89564C7.09424 5.4844 6.62948 5.96205 6.05564 5.96205H3.5126M10.7691 13.5H5.23088C4.27508 13.5 3.5 12.7042 3.5 11.7227V6.15104C3.5 5.75829 3.6584 5.38289 3.9374 5.11416L6.21008 2.88463C6.46676 2.63732 6.80552 2.5 7.15724 2.5H10.7691C11.7249 2.5 12.5 3.29584 12.5 4.27735V11.7227C12.5 12.7042 11.7253 13.5 10.7691 13.5Z" stroke="black" stroke-linecap="round" stroke-linejoin="round"/>
<path id="Vector" d="M7.87123 10.0946V8.32898H8.51848C8.88553 8.32898 9.04455 8.57976 9.04455 8.8054C9.04455 9.03105 8.88553 9.28183 8.51848 9.28183H7.87123M6.6727 10.0946V8.32898L5.8362 9.47485L5 8.32898V10.0946M10.728 10.0946V8.32898L9.72985 9.58827H11" stroke="black" stroke-linecap="round" stroke-linejoin="round"/>
</g>
</svg>
