<svg width="16" height="16" viewBox="0 0 16 16" fill="none" xmlns="http://www.w3.org/2000/svg">
<g id="Media=tuner, Size=16px, stroke width=1.5px">
<path id="tuner" d="M5.44231 7.26923L5.44231 12.75M5.44231 3.25V4.71154M10.5577 11.2885V12.75M10.5577 3.25V8.73077M4.25 7.26924H6.63462C7.1869 7.26924 7.63461 6.82153 7.63461 6.26924V5.71155C7.63461 5.15926 7.1869 4.71155 6.63461 4.71155H4.25C3.69772 4.71155 3.25 5.15926 3.25 5.71155V6.26924C3.25 6.82152 3.69772 7.26924 4.25 7.26924ZM9.36538 11.2885H11.75C12.3023 11.2885 12.75 10.8408 12.75 10.2885V9.73077C12.75 9.17849 12.3023 8.73077 11.75 8.73077H9.36538C8.8131 8.73077 8.36538 9.17849 8.36538 9.73077V10.2885C8.36538 10.8408 8.8131 11.2885 9.36538 11.2885Z" stroke="black" stroke-width="1.5" stroke-linecap="round" stroke-linejoin="round"/>
</g>
</svg>
