<svg width="16" height="16" viewBox="0 0 16 16" fill="none" xmlns="http://www.w3.org/2000/svg">
<g id="Media=volume, Size=16px, stroke width=1px">
<path id="volume" d="M10.6154 5.37411C11.5962 5.94875 12.25 6.97944 12.25 8.15534C12.25 9.33125 11.5962 10.3619 10.6154 10.9366M10.2885 7.37826C10.4846 7.53885 10.6154 7.82688 10.6154 8.15549C10.6154 8.4841 10.4846 8.77213 10.2885 8.93272M3.75 8.86535V7.13466C3.75 6.58237 4.19772 6.13465 4.75 6.13465V6.13465C5.15764 6.13465 5.54991 5.97909 5.84675 5.69971L8.13809 3.54314C8.45718 3.24282 8.98078 3.46906 8.98078 3.90724V12.0928C8.98078 12.531 8.45718 12.7572 8.13809 12.4569L5.84674 10.3003C5.54991 10.0209 5.15764 9.86535 4.75 9.86535V9.86535C4.19772 9.86535 3.75 9.41764 3.75 8.86535Z" stroke="black" stroke-miterlimit="16" stroke-linecap="round" stroke-linejoin="round"/>
</g>
</svg>
