<svg width="24" height="24" viewBox="0 0 24 24" fill="none" xmlns="http://www.w3.org/2000/svg">
<g id="Media=ppt, Size=24px, weight=regular">
<path id="paper" d="M10.6414 3.75775V7.34346C10.6414 8.22659 9.94422 8.94307 9.08346 8.94307H5.2689M16.1537 20.25H7.84632C6.41262 20.25 5.25 19.0562 5.25 17.584V9.22656C5.25 8.63743 5.4876 8.07433 5.9061 7.67124L9.31512 4.32695C9.70014 3.95597 10.2083 3.75 10.7359 3.75H16.1537C17.5874 3.75 18.75 4.94376 18.75 6.41602V17.584C18.75 19.0562 17.5879 20.25 16.1537 20.25Z" stroke="black" stroke-width="1.5" stroke-linecap="round" stroke-linejoin="round"/>
<path id="Vector" d="M7.5 15V12H8.63558C9.27894 12 9.55855 12.426 9.55855 12.8095C9.55855 13.193 9.27944 13.619 8.63558 13.619H7.5M10.8574 15V12H11.9929C12.6368 12 12.9159 12.426 12.9159 12.8095C12.9159 13.193 12.6368 13.619 11.9929 13.619H10.8574M15.1478 15V12.0835M16.5 12H13.7961" stroke="black" stroke-width="1.5" stroke-linecap="round" stroke-linejoin="round"/>
</g>
</svg>
