<svg width="24" height="24" viewBox="0 0 24 24" fill="none" xmlns="http://www.w3.org/2000/svg">
<g id="Media=jpg, Size=24px, stroke width=1.5px">
<path id="paper" d="M10.6414 3.75775V7.34346C10.6414 8.22659 9.94422 8.94307 9.08346 8.94307H5.2689M16.1537 20.25H7.84632C6.41262 20.25 5.25 19.0562 5.25 17.584V9.22656C5.25 8.63743 5.4876 8.07433 5.9061 7.67124L9.31512 4.32695C9.70014 3.95597 10.2083 3.75 10.7359 3.75H16.1537C17.5874 3.75 18.75 4.94376 18.75 6.41602V17.584C18.75 19.0562 17.5879 20.25 16.1537 20.25Z" stroke="black" stroke-width="1.5" stroke-linecap="round" stroke-linejoin="round"/>
<path id="Vector" d="M7.5 14.4939C7.74155 14.7683 8.06224 15 8.475 15C8.79103 15 9.28759 14.798 9.28759 14.0908V12.0491H8.76466M10.9076 14.9509V12M10.9076 13.5925H12.0869C12.7557 13.5925 13.0453 13.1734 13.0453 12.7965C13.0453 12.4196 12.7557 12.0005 12.0869 12.0005H10.9076M16.5 12.2802C16.2729 12.1054 16.0397 12 15.6284 12C14.7429 12 14.0928 12.6367 14.0928 13.4755C14.0928 14.3142 14.7424 14.9509 15.6284 14.9509C16.0391 14.9509 16.2724 14.8456 16.5 14.6707V13.6319H16.0526" stroke="black" stroke-width="1.5" stroke-linecap="round" stroke-linejoin="round"/>
</g>
</svg>
