<svg width="16" height="16" viewBox="0 0 16 16" fill="none" xmlns="http://www.w3.org/2000/svg">
<g id="Media=php, Size=16px, weight=regular">
<path id="paper" d="M7.09424 2.50517V4.89564C7.09424 5.4844 6.62948 5.96205 6.05564 5.96205H3.5126M10.7691 13.5H5.23088C4.27508 13.5 3.5 12.7042 3.5 11.7227V6.15104C3.5 5.75829 3.6584 5.38289 3.9374 5.11416L6.21008 2.88463C6.46676 2.63732 6.80552 2.5 7.15724 2.5H10.7691C11.7249 2.5 12.5 3.29584 12.5 4.27735V11.7227C12.5 12.7042 11.7253 13.5 10.7691 13.5Z" stroke="black" stroke-width="1.5" stroke-linecap="round" stroke-linejoin="round"/>
<path id="Vector" d="M7.19258 8.09265V9.88486M7.26158 8.98875H8.6598M8.68668 8.09265V9.88486M4.99992 9.88486V8.09265H5.67259C6.05403 8.09265 6.21921 8.34714 6.21921 8.57625C6.21921 8.80535 6.05403 9.05984 5.67259 9.05984H4.99992M9.7807 9.88486V8.09265H10.4534C10.8345 8.09265 11 8.34714 11 8.57625C11 8.80535 10.8348 9.05984 10.4534 9.05984H9.7807" stroke="black" stroke-width="1.5" stroke-linecap="round" stroke-linejoin="round"/>
</g>
</svg>
