<svg width="16" height="16" viewBox="0 0 16 16" fill="none" xmlns="http://www.w3.org/2000/svg">
<g id="Media=js, Size=16px, weight=light">
<path id="paper" d="M7.09424 2.50517V4.89564C7.09424 5.4844 6.62948 5.96205 6.05564 5.96205H3.5126M10.7691 13.5H5.23088C4.27508 13.5 3.5 12.7042 3.5 11.7227V6.15104C3.5 5.75829 3.6584 5.38289 3.9374 5.11416L6.21008 2.88463C6.46676 2.63732 6.80552 2.5 7.15724 2.5H10.7691C11.7249 2.5 12.5 3.29584 12.5 4.27735V11.7227C12.5 12.7042 11.7253 13.5 10.7691 13.5Z" stroke="black" stroke-linecap="round" stroke-linejoin="round"/>
<path id="Vector" d="M5.86114 10.0713C6.05368 10.3037 6.30881 10.5 6.63721 10.5C6.88866 10.5 7.28442 10.3287 7.28442 9.72978V8H6.86804M9.89697 8.08678C9.19343 7.86692 8.70599 8.08494 8.70599 8.5206C8.70599 9.26104 10.1374 9.15442 10.1374 9.87391C10.1374 10.5125 9.31492 10.6371 8.58966 10.2184" stroke="black" stroke-linecap="round" stroke-linejoin="round"/>
</g>
</svg>
