<svg width="16" height="16" viewBox="0 0 16 16" fill="none" xmlns="http://www.w3.org/2000/svg">
<g id="Media=flashlight, Size=16px, weight=regular">
<path id="Vector" d="M9.52898 6.7048L9.52877 12.8635C9.52906 13.6292 8.90334 14.25 8.13125 14.25L7.9268 14.25C7.15502 14.2503 6.52933 13.6296 6.52936 12.8635L6.52987 6.70519L6.52894 6.70488M9.52898 6.7048L6.52894 6.70488M9.52898 6.7048L11.2419 4.064L4.75005 4.064M6.52894 6.70488L4.75005 4.064M4.75005 4.064L4.75001 2.25001C4.75 1.97386 4.97386 1.75 5.25001 1.75L10.75 1.75C11.0261 1.75 11.25 1.97386 11.25 2.25V4.064M8.0279 9.81171V11.5515" stroke="black" stroke-width="1.5" stroke-linecap="round" stroke-linejoin="round"/>
</g>
</svg>
