<svg width="16" height="16" viewBox="0 0 16 16" fill="none" xmlns="http://www.w3.org/2000/svg">
<g id="Media=css, Size=16px, stroke width=1px">
<path id="paper" d="M7.09424 2.50517V4.89564C7.09424 5.4844 6.62948 5.96205 6.05564 5.96205H3.5126M10.7691 13.5H5.23088C4.27508 13.5 3.5 12.7042 3.5 11.7227V6.15104C3.5 5.75829 3.6584 5.38289 3.9374 5.11416L6.21008 2.88463C6.46676 2.63732 6.80552 2.5 7.15724 2.5H10.7691C11.7249 2.5 12.5 3.29584 12.5 4.27735V11.7227C12.5 12.7042 11.7253 13.5 10.7691 13.5Z" stroke="black" stroke-linecap="round" stroke-linejoin="round"/>
<path id="Vector" d="M6.48431 9.94015C6.33718 10.0587 6.18625 10.1299 5.92021 10.1299C5.34692 10.1299 4.92614 9.6983 4.92614 9.12973C4.92614 8.56115 5.34723 8.12988 5.92053 8.12988C6.18625 8.12988 6.3375 8.20134 6.48463 8.31962M8.50908 8.221C7.94181 8.04625 7.54925 8.21944 7.54925 8.56583C7.54925 9.15407 8.70313 9.06919 8.70313 9.64088C8.70313 10.1483 8.04042 10.2469 7.45571 9.91456M10.6985 8.221C10.1312 8.04625 9.73866 8.21944 9.73866 8.56583C9.73866 9.15407 10.8925 9.06919 10.8925 9.64088C10.8925 10.1483 10.2298 10.2469 9.64512 9.91456" stroke="black" stroke-linecap="round" stroke-linejoin="round"/>
</g>
</svg>
