<svg width="32" height="32" viewBox="0 0 32 32" fill="none" xmlns="http://www.w3.org/2000/svg">
<g id="Media=monitor, Size=32px, weight=regular">
<path id="monitor" d="M13.5 20.6685V24.4288M18.6169 20.6685V24.4883M10.5 24.5H21.5M9.63152 20.3917H22.3685C23.8447 20.3917 24.5828 20.3917 25.0414 19.9345C25.5 19.4773 25.5 18.7414 25.5 17.2697V10.622C25.5 9.15026 25.5 8.41441 25.0414 7.9572C24.5828 7.5 23.8447 7.5 22.3685 7.5H9.63152C8.15531 7.5 7.4172 7.5 6.9586 7.9572C6.5 8.41441 6.5 9.15026 6.5 10.622V17.2697C6.5 18.7414 6.5 19.4773 6.9586 19.9345C7.4172 20.3917 8.15531 20.3917 9.63152 20.3917Z" stroke="black" stroke-width="1.5" stroke-linecap="round" stroke-linejoin="round"/>
</g>
</svg>
