<svg width="16" height="16" viewBox="0 0 16 16" fill="none" xmlns="http://www.w3.org/2000/svg">
<g id="Media=music, Size=16px, weight=regular">
<path id="music" d="M6.17308 11.1058V5.07692L12.75 3.25V9.82692M6.17308 11.2884C6.17308 12.0956 5.51872 12.75 4.71154 12.75C3.90435 12.75 3.25 12.0956 3.25 11.2884C3.25 10.4813 3.90435 9.8269 4.71154 9.8269C5.51872 9.8269 6.17308 10.4813 6.17308 11.2884ZM12.75 10.1923C12.75 10.9995 12.0956 11.6539 11.2885 11.6539C10.4813 11.6539 9.82692 10.9995 9.82692 10.1923C9.82692 9.38513 10.4813 8.73077 11.2885 8.73077C12.0956 8.73077 12.75 9.38513 12.75 10.1923Z" stroke="black" stroke-width="1.5" stroke-linecap="round" stroke-linejoin="round"/>
</g>
</svg>
