<svg width="24" height="24" viewBox="0 0 24 24" fill="none" xmlns="http://www.w3.org/2000/svg">
<g id="Media=mp4, Size=24px, stroke width=1px">
<path id="paper" d="M10.6414 3.75775V7.34346C10.6414 8.22659 9.94422 8.94307 9.08346 8.94307H5.2689M16.1537 20.25H7.84632C6.41262 20.25 5.25 19.0562 5.25 17.584V9.22656C5.25 8.63743 5.4876 8.07433 5.9061 7.67124L9.31512 4.32695C9.70014 3.95597 10.2083 3.75 10.7359 3.75H16.1537C17.5874 3.75 18.75 4.94376 18.75 6.41602V17.584C18.75 19.0562 17.5879 20.25 16.1537 20.25Z" stroke="black" stroke-linecap="round" stroke-linejoin="round"/>
<path id="Vector" d="M11.7598 15V12H12.8378C13.4491 12 13.7139 12.4261 13.7139 12.8095C13.7139 13.1929 13.4491 13.619 12.8378 13.619H11.7598M10.2858 15V12L8.89266 13.9469L7.5 12V15M16.047 15V12L14.3846 14.1397H16.5" stroke="black" stroke-linecap="round" stroke-linejoin="round"/>
</g>
</svg>
