<svg width="16" height="16" viewBox="0 0 16 16" fill="none" xmlns="http://www.w3.org/2000/svg">
<g id="Media=psd, Size=16px, weight=regular">
<path id="paper" d="M7.09424 2.50517V4.89564C7.09424 5.4844 6.62948 5.96205 6.05564 5.96205H3.5126M10.7691 13.5H5.23088C4.27508 13.5 3.5 12.7042 3.5 11.7227V6.15104C3.5 5.75829 3.6584 5.38289 3.9374 5.11416L6.21008 2.88463C6.46676 2.63732 6.80552 2.5 7.15724 2.5H10.7691C11.7249 2.5 12.5 3.29584 12.5 4.27735V11.7227C12.5 12.7042 11.7253 13.5 10.7691 13.5Z" stroke="black" stroke-width="1.5" stroke-linecap="round" stroke-linejoin="round"/>
<path id="Vector" d="M5 10.032V8.00007H5.76334C6.19581 8.00007 6.38376 8.28861 6.38376 8.54836C6.38376 8.80811 6.19615 9.09665 5.76334 9.09665H5M8.32038 8.07051C7.7494 7.8917 7.35384 8.06882 7.35384 8.42339C7.35384 9.02519 8.51579 8.93849 8.51579 9.52336C8.51579 10.0425 7.84829 10.1434 7.2597 9.80343M9.49297 8.00007V10.032H10.006C10.579 10.032 11 9.5938 11 9.01605C11 8.43829 10.5794 8.00007 10.006 8.00007H9.49297Z" stroke="black" stroke-width="1.5" stroke-linecap="round" stroke-linejoin="round"/>
</g>
</svg>
