<svg width="16" height="16" viewBox="0 0 16 16" fill="none" xmlns="http://www.w3.org/2000/svg">
<g id="Media=headphones, Size=16px, stroke width=1px">
<path id="headphones" d="M11.6538 7.85791V6.84058C11.6538 4.85756 10.018 3.25 8 3.25C5.98204 3.25 4.34615 4.85756 4.34615 6.84058V7.85791M11.2885 11.2885L10.6423 12.15C10.359 12.5277 9.91444 12.75 9.44231 12.75H8M5.07692 11.2885C4.06794 11.2885 3.25 10.4705 3.25 9.46156C3.25 8.45259 4.06794 7.63465 5.07692 7.63465L5.17304 7.63465C5.72534 7.63463 6.17308 8.08235 6.17308 8.63465V10.2885C6.17308 10.8407 5.72538 11.2884 5.17311 11.2885L5.07692 11.2885ZM10.9231 11.2885C11.9321 11.2885 12.75 10.4705 12.75 9.46156C12.75 8.45259 11.9321 7.63465 10.9231 7.63465L10.827 7.63465C10.2747 7.63463 9.82692 8.08235 9.82692 8.63465V10.2885C9.82692 10.8407 10.2746 11.2884 10.8269 11.2885L10.9231 11.2885Z" stroke="black" stroke-linecap="round" stroke-linejoin="round"/>
</g>
</svg>
