<svg width="24" height="24" viewBox="0 0 24 24" fill="none" xmlns="http://www.w3.org/2000/svg">
<g id="Media=auto-play, Size=24px, weight=regular">
<path id="update" d="M15.9684 3.21838L17.0025 7.13568M17.0025 7.13568L13.2784 7.88896M17.0025 7.13568C13.8577 3.99094 8.78185 3.96815 5.66523 7.08477C2.5486 10.2014 2.5714 15.2772 5.71615 18.422C8.8609 21.5667 13.9367 21.5895 17.0534 18.4729C18.7058 16.8205 19.4757 14.6173 19.3657 12.4432" stroke="black" stroke-width="1.5" stroke-linecap="round" stroke-linejoin="round"/>
<path id="play" d="M8.92676 15.6687V10.1535C8.92676 9.51885 9.63858 9.14441 10.1616 9.50398L14.2659 12.3257C14.7275 12.643 14.7201 13.327 14.2518 13.6343L10.1475 16.3278C9.62331 16.6718 8.92676 16.2957 8.92676 15.6687Z" stroke="black" stroke-width="1.5" stroke-linecap="round" stroke-linejoin="round"/>
</g>
</svg>
