<svg width="32" height="32" viewBox="0 0 32 32" fill="none" xmlns="http://www.w3.org/2000/svg">
<g id="Media=auto-play, Size=32px, stroke width=1px">
<path id="Vector" d="M21.2914 4.29126L22.6702 9.51433M22.6702 9.51433L17.7047 10.5187M22.6702 9.51433C18.4772 5.32133 11.7094 5.29094 7.55388 9.44645C3.39838 13.6019 3.42878 20.3697 7.62177 24.5627C11.8148 28.7557 18.5826 28.7861 22.7381 24.6306C24.9413 22.4274 25.9678 19.4898 25.8212 16.591M11.9029 13.5381V20.8916C11.9029 21.7276 12.8316 22.229 13.5305 21.7704L19.003 18.1791C19.6274 17.7693 19.6372 16.8574 19.0218 16.4343L13.5493 12.672C12.852 12.1925 11.9029 12.6918 11.9029 13.5381Z" stroke="black" stroke-linecap="round" stroke-linejoin="round"/>
</g>
</svg>
