<svg width="16" height="16" viewBox="0 0 16 16" fill="none" xmlns="http://www.w3.org/2000/svg">
<g id="Media=mp3, Size=16px, weight=light">
<path id="paper" d="M7.09424 2.50517V4.89564C7.09424 5.4844 6.62948 5.96205 6.05564 5.96205H3.5126M10.7691 13.5H5.23088C4.27508 13.5 3.5 12.7042 3.5 11.7227V6.15104C3.5 5.75829 3.6584 5.38289 3.9374 5.11416L6.21008 2.88463C6.46676 2.63732 6.80552 2.5 7.15724 2.5H10.7691C11.7249 2.5 12.5 3.29584 12.5 4.27735V11.7227C12.5 12.7042 11.7253 13.5 10.7691 13.5Z" stroke="black" stroke-linecap="round" stroke-linejoin="round"/>
<path id="Vector" d="M7.7141 9.74909V8.08819L8.33242 8.08789C8.68283 8.08789 8.83494 8.32369 8.83494 8.53618C8.83494 8.74868 8.68313 8.98448 8.33242 8.98448H7.7141M6.59785 9.74905V8.08816L5.79893 9.16636L5 8.08816V9.74905M9.76996 8.3025C9.84136 8.18052 10.0283 8.08819 10.2953 8.08819C10.6337 8.08819 10.8503 8.22895 10.8503 8.44386C10.8503 8.60247 10.7138 8.85311 10.3322 8.86854C10.7366 8.86854 11 9.0205 11 9.29353C11 9.56656 10.7558 9.74939 10.2836 9.74939C9.95957 9.74939 9.70786 9.63376 9.63376 9.41642" stroke="black" stroke-linecap="round" stroke-linejoin="round"/>
</g>
</svg>
