<svg width="16" height="16" viewBox="0 0 16 16" fill="none" xmlns="http://www.w3.org/2000/svg">
<g id="Media=gif-alternative, Size=16px, stroke width=1.5px">
<path id="Vector" d="M9.82694 12.75H4.71154C3.90435 12.75 3.25 12.0956 3.25 11.2885V4.71154C3.25 3.90435 3.90435 3.25 4.71154 3.25H11.2885C12.0957 3.25 12.75 3.90436 12.75 4.71154L12.75 9.82692M9.82694 12.75V9.82692H12.75M9.82694 12.75C10.0609 12.75 10.2852 12.6571 10.4507 12.4916L12.4916 10.4507C12.6571 10.2852 12.75 10.0609 12.75 9.82692M8.30172 5.52534V8.5M9.68967 8.5V5.71126C9.68967 5.58731 9.75001 5.52534 9.8707 5.52534H11.5M11.2586 7.01273H9.68967M6.06898 7.13657H6.85346C6.97415 7.13657 7.03449 7.19854 7.03449 7.32248V7.88023C7.03449 8.06615 6.9138 8.25207 6.73277 8.31404C6.55173 8.37601 6.31035 8.43798 5.8276 8.43798C4.86208 8.43798 4.50001 7.75629 4.50001 7.13657C4.50001 6.51685 4.68105 5.71121 5.64656 5.52529C6.49139 5.40135 6.9138 5.77318 6.9138 5.77318" stroke="black" stroke-width="1.5" stroke-linecap="round" stroke-linejoin="round"/>
</g>
</svg>
