<svg width="16" height="16" viewBox="0 0 16 16" fill="none" xmlns="http://www.w3.org/2000/svg">
<g id="Media=tuner-alternative, Size=16px, weight=light">
<g id="tuner-alternative">
<path d="M6.90385 11.3077C6.90385 10.8935 7.23963 10.5577 7.65385 10.5577H8.34615C8.76037 10.5577 9.09615 10.8935 9.09615 11.3077V12C9.09615 12.4142 8.76037 12.75 8.34615 12.75H7.65385C7.23963 12.75 6.90385 12.4142 6.90385 12V11.3077Z" stroke="black" stroke-linecap="round" stroke-linejoin="round"/>
<path d="M6.90385 7.65385C6.90385 7.23963 7.23963 6.90385 7.65385 6.90385H8.34615C8.76037 6.90385 9.09615 7.23963 9.09615 7.65385V8.34615C9.09615 8.76037 8.76037 9.09615 8.34615 9.09615H7.65385C7.23963 9.09615 6.90385 8.76037 6.90385 8.34615V7.65385Z" stroke="black" stroke-linecap="round" stroke-linejoin="round"/>
<path d="M3.25 11.3077C3.25 10.8935 3.58579 10.5577 4 10.5577H4.69231C5.10652 10.5577 5.44231 10.8935 5.44231 11.3077V12C5.44231 12.4142 5.10652 12.75 4.69231 12.75H4C3.58579 12.75 3.25 12.4142 3.25 12V11.3077Z" stroke="black" stroke-linecap="round" stroke-linejoin="round"/>
<path d="M10.5577 11.3077C10.5577 10.8935 10.8935 10.5577 11.3077 10.5577H12C12.4142 10.5577 12.75 10.8935 12.75 11.3077V12C12.75 12.4142 12.4142 12.75 12 12.75H11.3077C10.8935 12.75 10.5577 12.4142 10.5577 12V11.3077Z" stroke="black" stroke-linecap="round" stroke-linejoin="round"/>
<path d="M10.5577 7.65385C10.5577 7.23963 10.8935 6.90385 11.3077 6.90385H12C12.4142 6.90385 12.75 7.23963 12.75 7.65385V8.34615C12.75 8.76037 12.4142 9.09615 12 9.09615H11.3077C10.8935 9.09615 10.5577 8.76037 10.5577 8.34615V7.65385Z" stroke="black" stroke-linecap="round" stroke-linejoin="round"/>
<path d="M6.90385 4C6.90385 3.58579 7.23963 3.25 7.65385 3.25H8.34615C8.76037 3.25 9.09615 3.58579 9.09615 4V4.69231C9.09615 5.10652 8.76037 5.44231 8.34615 5.44231H7.65385C7.23963 5.44231 6.90385 5.10652 6.90385 4.69231V4Z" stroke="black" stroke-linecap="round" stroke-linejoin="round"/>
</g>
</g>
</svg>
