<svg width="32" height="32" viewBox="0 0 32 32" fill="none" xmlns="http://www.w3.org/2000/svg">
<g id="Notifications=bell-cross, Size=32px, weight=regular">
<path id="bell-cross" d="M13.3333 9.40215C13.5511 9.26214 13.7853 9.13578 14.037 9.02724V8.61111C14.037 7.44518 14.9822 6.5 16.1481 6.5C17.314 6.5 18.2592 7.44518 18.2592 8.61111V9.02725C20.3818 9.94271 21.2628 12.1255 21.5553 13.0786C21.6483 13.3817 21.6897 13.6955 21.7145 14.0116L21.8865 16.2027C21.9672 17.2307 22.2459 18.2334 22.7073 19.1556L22.8799 19.5006M10.4779 14.9444L10.3621 16.0989C10.2523 17.194 9.91766 18.2547 9.37921 19.2146L8.54226 20.7066C8.45275 20.8661 8.37931 21.0367 8.36027 21.2187C8.27861 21.9992 8.67458 22.6852 9.49188 22.6852H18.6111M7 7.2037L25.2963 25.5M18.7821 22.6852C18.7821 24.2398 17.5218 25.5 15.9672 25.5C14.4127 25.5 13.1524 24.2398 13.1524 22.6852H18.7821Z" stroke="black" stroke-width="1.5" stroke-linecap="round" stroke-linejoin="round"/>
</g>
</svg>
