<svg width="32" height="32" viewBox="0 0 32 32" fill="none" xmlns="http://www.w3.org/2000/svg">
<g id="Notifications=bell-ringing-alternative, Size=32px, weight=regular">
<g id="bell-ringing-alternative">
<path d="M13.5899 21.5334C12.7972 22.9064 11.0415 23.3768 9.66856 22.5841C8.29558 21.7914 7.82517 20.0358 8.61786 18.6628L13.5899 21.5334Z" stroke="black" stroke-width="1.5" stroke-linecap="round" stroke-linejoin="round"/>
<path d="M19.626 24.8238L7.99778 18.1103C7.2832 17.6977 7.2839 16.8978 7.75011 16.2571C7.85777 16.1091 8.00662 15.9981 8.16396 15.9047L9.66113 15.0155C10.6076 14.4535 11.4279 13.7021 12.0706 12.8085L13.3674 11.0058C13.5189 10.7951 13.6786 10.5922 13.8664 10.4131C14.5512 9.75969 16.4657 8.19548 18.8542 8.47495L19.064 8.11154C19.6519 7.09333 20.954 6.74457 21.9724 7.33255C22.9909 7.92054 23.3399 9.22262 22.752 10.2408L22.5422 10.6042C23.9458 12.4892 23.5982 14.8625 23.3731 15.8279C23.3042 16.1233 23.1892 16.4039 23.06 16.6783L22.2118 18.4797C21.7099 19.5456 21.4496 20.7093 21.4496 21.8875L21.4496 23.5645C21.4496 23.7558 21.4284 23.9489 21.3496 24.1232C21.0256 24.8401 20.3368 25.2342 19.626 24.8238Z" stroke="black" stroke-width="1.5" stroke-linecap="round" stroke-linejoin="round"/>
</g>
</g>
</svg>
