<svg width="24" height="24" viewBox="0 0 24 24" fill="none" xmlns="http://www.w3.org/2000/svg">
<g id="Notifications=bell-alarm, Size=24px, stroke width=1.5px">
<path id="bell-alarm" d="M12 14.375V14.9028M12 9.09719V12.2639M14.0265 17.0139C14.0265 18.1798 13.0569 19.125 11.8608 19.125C10.6647 19.125 9.69511 18.1798 9.69511 17.0139H14.0265ZM6.87873 17.0139H17.1213C17.742 17.0139 18.0469 16.5125 17.9942 15.9366C17.9803 15.785 17.9155 15.6442 17.8363 15.5142L16.8731 13.9321C16.6278 13.5294 16.481 13.0744 16.4445 12.6043L16.2831 10.5261C16.2638 10.2775 16.2308 10.0307 16.1552 9.79299C15.9251 9.07001 15.2453 7.45196 13.6243 6.77044V6.45833C13.6243 5.58388 12.8971 4.875 12 4.875C11.1029 4.875 10.3757 5.58388 10.3757 6.45833V6.77043C8.69857 7.47556 8.02891 9.1832 7.82254 9.86481C7.76477 10.0556 7.73573 10.2521 7.71533 10.4504L7.48554 12.6839C7.44244 13.1029 7.31158 13.5081 7.10149 13.8732L6.14939 15.5277C6.07968 15.6488 6.02225 15.7787 6.00769 15.9177C5.94654 16.5015 6.25123 17.0139 6.87873 17.0139Z" stroke="black" stroke-width="1.5" stroke-linecap="round" stroke-linejoin="round"/>
</g>
</svg>
