<svg width="16" height="16" viewBox="0 0 16 16" fill="none" xmlns="http://www.w3.org/2000/svg">
<g id="Notifications=app, Size=16px, stroke width=1.5px">
<g id="app">
<path d="M3.25 4.16346C3.25 3.65897 3.65897 3.25 4.16346 3.25H11.8365C12.341 3.25 12.75 3.65897 12.75 4.16346C12.75 4.66795 12.341 5.07692 11.8365 5.07692H4.16346C3.65897 5.07692 3.25 4.66795 3.25 4.16346Z" stroke="black" stroke-width="1.5" stroke-linecap="round" stroke-linejoin="round"/>
<path d="M3.25 7.53845C3.25 6.98617 3.69772 6.53845 4.25 6.53845H11.75C12.3023 6.53845 12.75 6.98617 12.75 7.53845V8.46153C12.75 9.01381 12.3023 9.46153 11.75 9.46153H4.25C3.69772 9.46153 3.25 9.01381 3.25 8.46153V7.53845Z" stroke="black" stroke-width="1.5" stroke-linecap="round" stroke-linejoin="round"/>
<path d="M3.25 11.8366C3.25 11.3321 3.65897 10.9231 4.16346 10.9231H11.8365C12.341 10.9231 12.75 11.3321 12.75 11.8366C12.75 12.341 12.341 12.75 11.8365 12.75H4.16346C3.65897 12.75 3.25 12.341 3.25 11.8366Z" stroke="black" stroke-width="1.5" stroke-linecap="round" stroke-linejoin="round"/>
</g>
</g>
</svg>
