<svg width="24" height="24" viewBox="0 0 24 24" fill="none" xmlns="http://www.w3.org/2000/svg">
<g id="Notifications=bell-cross, Size=24px, stroke width=1px">
<path id="bell-cross" d="M9.99997 7.05162C10.1633 6.94661 10.339 6.85184 10.5278 6.77043V6.45833C10.5278 5.58388 11.2366 4.875 12.1111 4.875C12.9855 4.875 13.6944 5.58388 13.6944 6.45833V6.77044C15.2863 7.45703 15.9471 9.09414 16.1664 9.80897C16.2362 10.0363 16.2672 10.2716 16.2859 10.5087L16.4149 12.152C16.4754 12.923 16.6845 13.6751 17.0304 14.3667L17.1599 14.6255M7.8584 11.2083L7.77157 12.0742C7.6892 12.8955 7.43825 13.691 7.03441 14.4109L6.4067 15.5299C6.33956 15.6496 6.28448 15.7775 6.27021 15.914C6.20896 16.4994 6.50593 17.0139 7.11891 17.0139H13.9583M5.25 5.40278L18.9722 19.125M14.0865 17.0139C14.0865 18.1798 13.1414 19.125 11.9754 19.125C10.8095 19.125 9.86432 18.1798 9.86432 17.0139H14.0865Z" stroke="black" stroke-linecap="round" stroke-linejoin="round"/>
</g>
</svg>
