<svg width="16" height="16" viewBox="0 0 16 16" fill="none" xmlns="http://www.w3.org/2000/svg">
<g id="Notifications=bell-cross, Size=16px, stroke width=1px">
<path id="bell-cross" d="M6.66664 4.70108C6.77557 4.63107 6.89267 4.56789 7.0185 4.51362V4.30556C7.0185 3.72259 7.49109 3.25 8.07406 3.25C8.65702 3.25 9.12961 3.72259 9.12961 4.30556V4.51362C10.1909 4.97135 10.6314 6.06276 10.7776 6.53932C10.8241 6.69086 10.8448 6.84774 10.8572 7.00578L10.9433 8.10136C10.9836 8.61536 11.123 9.1167 11.3536 9.57781L11.4399 9.75032M5.23893 7.47222L5.18104 8.04947C5.12613 8.59702 4.95883 9.12735 4.68961 9.60728L4.27113 10.3533C4.22637 10.4331 4.18966 10.5183 4.18014 10.6093C4.13931 10.9996 4.33729 11.3426 4.74594 11.3426H9.30553M3.5 3.60185L12.6481 12.75M9.39103 11.3426C9.39103 12.1199 8.76091 12.75 7.98362 12.75C7.20633 12.75 6.57621 12.1199 6.57621 11.3426H9.39103Z" stroke="black" stroke-linecap="round" stroke-linejoin="round"/>
</g>
</svg>
