<svg width="16" height="16" viewBox="0 0 16 16" fill="none" xmlns="http://www.w3.org/2000/svg">
<g id="Notifications=bell-ringing-alternative, Size=16px, weight=regular">
<g id="bell-ringing-alternative">
<path d="M6.79469 10.7667C6.39834 11.4532 5.52053 11.6884 4.83404 11.2921C4.14755 10.8957 3.91234 10.0179 4.30868 9.3314L6.79469 10.7667Z" stroke="black" stroke-width="1.5" stroke-linecap="round" stroke-linejoin="round"/>
<path d="M9.81274 12.4119L3.99864 9.05515C3.64136 8.84887 3.64171 8.44891 3.87481 8.12854C3.92864 8.05455 4.00307 7.99904 4.08174 7.95233L4.83032 7.50777C5.30355 7.22674 5.71369 6.85107 6.03508 6.40427L6.68346 5.50289C6.75921 5.39757 6.83908 5.2961 6.93294 5.20655C7.27537 4.87984 8.23263 4.09774 9.42685 4.23747L9.53176 4.05577C9.82569 3.54667 10.4768 3.37228 10.986 3.66628C11.4952 3.96027 11.6697 4.61131 11.3758 5.12041L11.2709 5.30212C11.9727 6.24458 11.7988 7.43125 11.6863 7.91394C11.6519 8.06163 11.5943 8.20194 11.5297 8.33913L11.1057 9.23983C10.8547 9.77281 10.7246 10.3547 10.7246 10.9438L10.7246 11.7823C10.7246 11.8779 10.7139 11.9745 10.6746 12.0616C10.5126 12.42 10.1681 12.6171 9.81274 12.4119Z" stroke="black" stroke-width="1.5" stroke-linecap="round" stroke-linejoin="round"/>
</g>
</g>
</svg>
