<svg width="16" height="16" viewBox="0 0 16 16" fill="none" xmlns="http://www.w3.org/2000/svg">
<g id="Notifications=settings, Size=16px, stroke width=1.5px">
<path id="settings" d="M5.40385 7.30769H10.5962C11.6476 7.30769 12.5 6.45531 12.5 5.40385C12.5 4.35238 11.6476 3.5 10.5962 3.5H5.40385M5.40385 7.30769C4.35238 7.30769 3.5 6.45531 3.5 5.40385C3.5 4.35238 4.35238 3.5 5.40385 3.5M5.40385 7.30769C6.45531 7.30769 7.30769 6.45531 7.30769 5.40385C7.30769 4.35238 6.45531 3.5 5.40385 3.5M10.5962 12.5H5.40385C4.35238 12.5 3.5 11.6476 3.5 10.5962C3.5 9.54469 4.35238 8.69231 5.40385 8.69231H10.5962M10.5962 12.5C11.6476 12.5 12.5 11.6476 12.5 10.5962C12.5 9.54469 11.6476 8.69231 10.5962 8.69231M10.5962 12.5C9.54469 12.5 8.69231 11.6476 8.69231 10.5962C8.69231 9.54469 9.54469 8.69231 10.5962 8.69231" stroke="black" stroke-width="1.5" stroke-linecap="round" stroke-linejoin="round"/>
</g>
</svg>
