<svg width="24" height="24" viewBox="0 0 24 24" fill="none" xmlns="http://www.w3.org/2000/svg">
<g id="Notifications=app, Size=24px, stroke width=1.5px">
<g id="app">
<path d="M4.875 6.24519C4.875 5.48846 5.48846 4.875 6.24519 4.875H17.7548C18.5115 4.875 19.125 5.48846 19.125 6.24519C19.125 7.00193 18.5115 7.61538 17.7548 7.61538H6.24519C5.48846 7.61538 4.875 7.00193 4.875 6.24519Z" stroke="black" stroke-width="1.5" stroke-linecap="round" stroke-linejoin="round"/>
<path d="M4.875 11.3077C4.875 10.4792 5.54657 9.80768 6.375 9.80768H17.625C18.4534 9.80768 19.125 10.4793 19.125 11.3077V12.6923C19.125 13.5207 18.4534 14.1923 17.625 14.1923H6.375C5.54657 14.1923 4.875 13.5207 4.875 12.6923V11.3077Z" stroke="black" stroke-width="1.5" stroke-linecap="round" stroke-linejoin="round"/>
<path d="M4.875 17.7548C4.875 16.9981 5.48846 16.3846 6.24519 16.3846H17.7548C18.5115 16.3846 19.125 16.9981 19.125 17.7548C19.125 18.5116 18.5115 19.125 17.7548 19.125H6.24519C5.48846 19.125 4.875 18.5116 4.875 17.7548Z" stroke="black" stroke-width="1.5" stroke-linecap="round" stroke-linejoin="round"/>
</g>
</g>
</svg>
