<svg width="16" height="16" viewBox="0 0 16 16" fill="none" xmlns="http://www.w3.org/2000/svg">
<g id="Notifications=add-bell, Size=16px, weight=regular">
<g id="bell">
<path d="M9.35101 11.3426C9.35101 12.1199 8.7046 12.75 7.90721 12.75C7.10982 12.75 6.4634 12.1199 6.4634 11.3426H9.35101Z" stroke="black" stroke-width="1.5" stroke-linecap="round" stroke-linejoin="round"/>
<path d="M11.4142 11.3426H4.58582C4.16749 11.3426 3.96436 11.001 4.00513 10.6118C4.01483 10.5191 4.05312 10.4326 4.09959 10.3518L4.73433 9.2488C4.87439 9.00541 4.96162 8.73526 4.99036 8.45593L5.14355 6.96695C5.15715 6.83474 5.17651 6.70374 5.21503 6.57654C5.35261 6.12214 5.79905 4.98371 6.91715 4.51362V4.30556C6.91715 3.72259 7.40196 3.25 8.00001 3.25C8.59805 3.25 9.08286 3.72259 9.08286 4.30556V4.51362C10.1635 4.96797 10.6168 6.04667 10.7701 6.52866C10.8205 6.68711 10.8425 6.85165 10.8554 7.01743L10.963 8.40284C10.9873 8.71628 11.0852 9.01957 11.2487 9.2881L11.8909 10.3428C11.9436 10.4294 11.9869 10.5233 11.9961 10.6244C12.0313 11.0084 11.828 11.3426 11.4142 11.3426Z" stroke="black" stroke-width="1.5" stroke-linecap="round" stroke-linejoin="round"/>
</g>
<path id="Vector" d="M13.25 0.75V4.75M11.25 2.75H15.25" stroke="black" stroke-width="1.5" stroke-linecap="round" stroke-linejoin="round"/>
</g>
</svg>
