<svg width="16" height="16" viewBox="0 0 16 16" fill="none" xmlns="http://www.w3.org/2000/svg">
<g id="Notifications=bell-alarm, Size=16px, weight=regular">
<path id="bell-alarm" d="M8 9.58333V9.93518M8 6.06479V8.1759M9.35101 11.3426C9.35101 12.1199 8.7046 12.75 7.90721 12.75C7.10982 12.75 6.4634 12.1199 6.4634 11.3426H9.35101ZM4.58582 11.3426H11.4142C11.828 11.3426 12.0313 11.0084 11.9961 10.6244C11.9869 10.5233 11.9436 10.4294 11.8909 10.3428L11.2487 9.2881C11.0852 9.01957 10.9873 8.71628 10.963 8.40284L10.8554 7.01743C10.8425 6.85165 10.8205 6.68711 10.7701 6.52866C10.6168 6.04667 10.1635 4.96797 9.08286 4.51362V4.30556C9.08286 3.72259 8.59805 3.25 8.00001 3.25C7.40196 3.25 6.91715 3.72259 6.91715 4.30556V4.51362C5.79905 4.98371 5.35261 6.12214 5.21503 6.57654C5.17651 6.70374 5.15715 6.83474 5.14355 6.96695L4.99036 8.45593C4.96162 8.73526 4.87439 9.00541 4.73433 9.2488L4.09959 10.3518C4.05312 10.4326 4.01483 10.5191 4.00513 10.6118C3.96436 11.001 4.16749 11.3426 4.58582 11.3426Z" stroke="black" stroke-width="1.5" stroke-linecap="round" stroke-linejoin="round"/>
</g>
</svg>
