<svg width="24" height="24" viewBox="0 0 24 24" fill="none" xmlns="http://www.w3.org/2000/svg">
<g id="Notifications=bell-ringing-alternative, Size=24px, weight=light">
<g id="bell-ringing-alternative">
<path d="M10.192 16.15C9.59751 17.1798 8.28079 17.5326 7.25106 16.9381C6.22132 16.3436 5.86851 15.0268 6.46303 13.9971L10.192 16.15Z" stroke="black" stroke-linecap="round" stroke-linejoin="round"/>
<path d="M14.7191 18.6179L5.99797 13.5827C5.46203 13.2733 5.46256 12.6734 5.81221 12.1928C5.89296 12.0818 6.0046 11.9986 6.1226 11.9285L7.24548 11.2617C7.95533 10.8401 8.57053 10.2766 9.05262 9.60641L10.0252 8.25433C10.1388 8.09636 10.2586 7.94415 10.3994 7.80982C10.9131 7.31977 12.3489 6.14661 14.1403 6.35621L14.2976 6.08366C14.7385 5.32 15.7151 5.05842 16.479 5.49941C17.2428 5.9404 17.5046 6.91696 17.0637 7.68062L16.9063 7.95318C17.959 9.36687 17.6983 11.1469 17.5295 11.8709C17.4778 12.0924 17.3915 12.3029 17.2946 12.5087L16.6585 13.8597C16.2821 14.6592 16.0869 15.532 16.0869 16.4156L16.0869 17.6734C16.0869 17.8168 16.0709 17.9617 16.0118 18.0924C15.7689 18.63 15.2522 18.9257 14.7191 18.6179Z" stroke="black" stroke-linecap="round" stroke-linejoin="round"/>
</g>
</g>
</svg>
