<svg width="16" height="16" viewBox="0 0 16 16" fill="none" xmlns="http://www.w3.org/2000/svg">
<g id="Notifications=bell-ringing-alternative, Size=16px, stroke width=1px">
<g id="bell-ringing-alternative">
<path d="M6.79481 10.7668C6.39846 11.4533 5.52065 11.6885 4.83416 11.2922C4.14767 10.8958 3.91246 10.018 4.30881 9.33153L6.79481 10.7668Z" stroke="black" stroke-linecap="round" stroke-linejoin="round"/>
<path d="M9.81286 12.412L3.99877 9.05527C3.64148 8.84899 3.64183 8.44903 3.87493 8.12866C3.92876 8.05468 4.00319 7.99917 4.08186 7.95245L4.83044 7.50789C5.30367 7.22686 5.71381 6.85119 6.0352 6.40439L6.68358 5.50301C6.75934 5.3977 6.8392 5.29622 6.93306 5.20667C7.2755 4.87997 8.23275 4.09786 9.42697 4.2376L9.53188 4.05589C9.82581 3.54679 10.4769 3.3724 10.9861 3.6664C11.4953 3.96039 11.6698 4.61143 11.3759 5.12053L11.271 5.30224C11.9728 6.2447 11.799 7.43137 11.6864 7.91406C11.652 8.06175 11.5945 8.20206 11.5299 8.33926L11.1058 9.23995C10.8548 9.77294 10.7247 10.3548 10.7247 10.9439L10.7247 11.7824C10.7247 11.878 10.7141 11.9746 10.6747 12.0617C10.5127 12.4201 10.1683 12.6172 9.81286 12.412Z" stroke="black" stroke-linecap="round" stroke-linejoin="round"/>
</g>
</g>
</svg>
