<svg width="16" height="16" viewBox="0 0 16 16" fill="none" xmlns="http://www.w3.org/2000/svg">
<g id="Other=claps, Size=16px, weight=regular">
<path id="Vector" d="M7.81245 8.89774L3.93079 7.1802C3.59926 7.03289 3.20913 7.17691 3.05892 7.50204C2.90872 7.82717 3.05557 8.20978 3.38709 8.35708L6.7784 9.87108M4.12235 8.68541C3.79082 8.5381 3.38665 8.68878 3.23645 9.0139C3.08624 9.33903 3.23309 9.72164 3.56462 9.86895L6.71349 11.2752M4.54655 10.3077C4.21503 10.1604 3.80705 10.309 3.65729 10.634C3.50709 10.9591 3.65394 11.3417 3.98546 11.489L7.6192 13.1107L8.05175 13.2829C9.53089 13.8713 11.2214 13.2251 11.9051 11.8107C12.0349 11.5424 12.11 11.3894 12.2534 11.086C12.6242 10.3023 12.3625 9.22602 11.6707 8.6955L11.6515 8.68089C10.7972 7.86574 10.2557 6.80843 9.98466 6.18473C9.85068 5.87626 9.49063 5.72666 9.16654 5.8463L9.16566 5.84662C8.81118 5.97747 8.64604 6.37369 8.8084 6.70373L9.57368 8.24838L5.20716 6.3154C4.87563 6.16809 4.48549 6.31211 4.33529 6.63724C4.18509 6.96236 4.33609 7.35971 4.66761 7.50702M8.31976 5.38617L5.56166 3.15774C5.28076 2.93012 4.86747 2.96929 4.63851 3.2451C4.40955 3.52091 4.45109 3.92908 4.732 4.1567L7.60389 6.493M5.35158 4.66159C5.07067 4.43398 4.64461 4.47786 4.41566 4.75367C4.21513 4.99482 4.23172 5.3629 4.42475 5.59732M12.7832 8.73679C13.1167 8.07725 13.0674 7.19568 12.6216 6.61183L12.6072 6.59251C11.9965 5.58438 11.7505 4.42195 11.6516 3.74901C11.6029 3.41645 11.2951 3.17904 10.9516 3.21164L10.9508 3.21196C10.5751 3.24708 10.313 3.58839 10.3835 3.94889L10.7188 5.63993L7.01569 2.64808C6.73479 2.42046 6.3215 2.45963 6.09254 2.73544C5.86358 3.01125 5.90343 3.43335 6.18417 3.66054" stroke="black" stroke-width="1.5" stroke-linecap="round" stroke-linejoin="round"/>
</g>
</svg>
