<svg width="16" height="16" viewBox="0 0 16 16" fill="none" xmlns="http://www.w3.org/2000/svg">
<g id="Other=freebet, Size=16px, stroke width=1px">
<path id="betslip" d="M13.75 11.1875C13.75 11.7743 13.3568 12.25 12.8718 12.25L3.78125 12.25M12.8718 3.75C13.3568 3.75 13.75 4.2257 13.75 4.8125L13.75 5.18392C13.75 5.38029 13.5842 5.53286 13.4045 5.61194C13.093 5.74896 12.875 6.06555 12.875 6.43421C12.875 6.80288 13.093 7.11946 13.4045 7.25648C13.5842 7.33556 13.75 7.48813 13.75 7.6845L13.75 8.3155C13.75 8.51186 13.5842 8.66444 13.4045 8.74352C13.093 8.88054 12.875 9.19712 12.875 9.56579C12.875 9.93445 13.093 10.251 13.4045 10.3881C13.5842 10.4671 13.75 10.6197 13.75 10.8161L13.75 11.1316M2.25 11.1875C2.25 11.7743 2.64318 12.25 3.12818 12.25L3.99682 12.25M3.12818 3.75C2.64318 3.75 2.25 4.2257 2.25 4.8125L2.25 5.18392C2.25 5.38029 2.41579 5.53286 2.59553 5.61194C2.90695 5.74896 3.125 6.06555 3.125 6.43421C3.125 6.80288 2.90695 7.11946 2.59553 7.25648C2.41579 7.33556 2.25 7.48814 2.25 7.6845L2.25 8.3155C2.25 8.51187 2.41579 8.66444 2.59553 8.74352C2.90695 8.88054 3.125 9.19712 3.125 9.56579C3.125 9.93445 2.90695 10.251 2.59553 10.3881C2.41579 10.4671 2.25 10.6197 2.25 10.8161L2.25 11.1316M10.8594 11.9145L10.8594 11.2434M10.8594 10.125L10.8594 9.45395M10.8594 8.33551L10.8594 7.66446" stroke="black" stroke-linecap="round" stroke-linejoin="round"/>
<g id="Free">
<mask id="path-2-inside-1_53219_226" fill="white">
<path d="M4.22229 5.84933C4.22229 5.99983 4.28679 6.08153 4.40719 6.08153H4.47599C4.60499 6.08153 4.66949 6.01273 4.66949 5.87943V4.93343H5.62409C5.76169 4.93343 5.83049 4.87323 5.83049 4.75283V4.73563C5.83049 4.62383 5.76599 4.55933 5.62409 4.55933H4.66089V3.67353H5.95949C6.09709 3.67353 6.16589 3.60903 6.16589 3.48863V3.46283C6.16589 3.34673 6.09709 3.28223 5.95949 3.28223H4.45879C4.31689 3.28223 4.22229 3.38113 4.22229 3.53163V5.84933Z"/>
<path d="M7.36866 3.94443C7.10636 3.94443 6.93436 4.08203 6.84406 4.33573C6.84406 4.27553 6.83546 4.22393 6.82686 4.18093C6.78386 4.01753 6.67636 3.97453 6.57746 3.97453C6.49146 3.97453 6.42266 4.00893 6.42266 4.02183V5.87943C6.42266 6.03423 6.50006 6.08153 6.61186 6.08153H6.65916C6.76666 6.08153 6.84836 6.03423 6.84836 5.87943V5.15273C6.84836 4.67543 6.98166 4.34863 7.31706 4.34863C7.43316 4.34863 7.51486 4.38733 7.57936 4.43893C7.58796 4.44753 7.70836 4.38303 7.70836 4.21963C7.70836 4.04763 7.58366 3.94443 7.36866 3.94443Z"/>
<path d="M7.66768 5.04093C7.66768 5.68593 8.10628 6.12023 8.75988 6.12023C9.04368 6.12023 9.26298 6.04713 9.41348 5.95253C9.56398 5.85793 9.64138 5.74183 9.64138 5.65153C9.64138 5.47093 9.42638 5.43223 9.41778 5.44083C9.31028 5.62573 9.12968 5.78483 8.76848 5.78483C8.40298 5.78483 8.13208 5.56123 8.07188 5.22153C8.06758 5.19573 8.06328 5.16993 8.06328 5.14413H9.58978C9.68868 5.14413 9.71878 5.10973 9.71878 5.01943V4.98503C9.71878 4.36583 9.32318 3.94443 8.72548 3.94443C8.11488 3.94443 7.66768 4.41313 7.66768 5.04093ZM9.30598 4.85603H8.06758C8.11918 4.51203 8.38148 4.26693 8.72118 4.26693C9.06518 4.26693 9.28448 4.49913 9.30598 4.85603Z"/>
<path d="M9.88985 5.04093C9.88985 5.68593 10.3285 6.12023 10.9821 6.12023C11.2659 6.12023 11.4852 6.04713 11.6357 5.95253C11.7862 5.85793 11.8636 5.74183 11.8636 5.65153C11.8636 5.47093 11.6486 5.43223 11.64 5.44083C11.5325 5.62573 11.3519 5.78483 10.9907 5.78483C10.6252 5.78483 10.3543 5.56123 10.2941 5.22153C10.2898 5.19573 10.2855 5.16993 10.2855 5.14413H11.812C11.9109 5.14413 11.941 5.10973 11.941 5.01943V4.98503C11.941 4.36583 11.5454 3.94443 10.9477 3.94443C10.3371 3.94443 9.88985 4.41313 9.88985 5.04093ZM11.5282 4.85603H10.2898C10.3414 4.51203 10.6037 4.26693 10.9434 4.26693C11.2874 4.26693 11.5067 4.49913 11.5282 4.85603Z"/>
</mask>
<path d="M4.66949 4.93343V3.93343C4.11721 3.93343 3.66949 4.38114 3.66949 4.93343H4.66949ZM4.66089 4.55933H3.66089C3.66089 5.11161 4.10861 5.55933 4.66089 5.55933V4.55933ZM4.66089 3.67353V2.67353C4.10861 2.67353 3.66089 3.12124 3.66089 3.67353H4.66089ZM6.84406 4.33573H5.84406C5.84406 4.82236 6.19437 5.23835 6.67391 5.32115C7.15345 5.40394 7.62298 5.12951 7.78616 4.67105L6.84406 4.33573ZM6.82686 4.18093L7.80744 3.98481C7.80352 3.96522 7.79901 3.94575 7.79393 3.92643L6.82686 4.18093ZM7.57936 4.43893L8.28646 3.73182C8.26037 3.70573 8.23286 3.68111 8.20405 3.65806L7.57936 4.43893ZM9.41778 5.44083L8.71068 4.73372C8.6496 4.7948 8.59669 4.86353 8.55328 4.93821L9.41778 5.44083ZM8.07188 5.22153L7.08544 5.38593L7.08723 5.39602L8.07188 5.22153ZM8.06328 5.14413V4.14413C7.511 4.14413 7.06328 4.59184 7.06328 5.14413H8.06328ZM9.30598 4.85603V5.85603C9.58164 5.85603 9.84507 5.74224 10.034 5.54154C10.223 5.34085 10.3207 5.07105 10.3042 4.79589L9.30598 4.85603ZM8.06758 4.85603L7.07865 4.70769C7.03546 4.99558 7.11988 5.288 7.30984 5.50858C7.49981 5.72917 7.77647 5.85603 8.06758 5.85603V4.85603ZM11.64 5.44083L10.9328 4.73372C10.8718 4.7948 10.8189 4.86353 10.7754 4.93821L11.64 5.44083ZM10.2941 5.22153L9.30761 5.38593L9.30939 5.39602L10.2941 5.22153ZM10.2855 5.14413V4.14413C9.73317 4.14413 9.28545 4.59184 9.28545 5.14413H10.2855ZM11.5282 4.85603V5.85603C11.8038 5.85603 12.0672 5.74224 12.2562 5.54154C12.4452 5.34085 12.5429 5.07105 12.5263 4.79589L11.5282 4.85603ZM10.2898 4.85603L9.30081 4.70769C9.25763 4.99558 9.34204 5.288 9.53201 5.50858C9.72198 5.72917 9.99864 5.85603 10.2898 5.85603V4.85603ZM3.22229 5.84933C3.22229 6.04641 3.26156 6.36066 3.48663 6.64394C3.74183 6.96513 4.10181 7.08153 4.40719 7.08153V5.08153C4.59217 5.08153 4.8597 5.15707 5.05255 5.39979C5.21527 5.6046 5.22229 5.80274 5.22229 5.84933H3.22229ZM4.40719 7.08153H4.47599V5.08153H4.40719V7.08153ZM4.47599 7.08153C4.71155 7.08153 5.06358 7.01588 5.34525 6.72012C5.61845 6.43326 5.66949 6.09227 5.66949 5.87943H3.66949C3.66949 5.79989 3.68828 5.55994 3.89698 5.34081C4.11415 5.11277 4.36943 5.08153 4.47599 5.08153V7.08153ZM5.66949 5.87943V4.93343H3.66949V5.87943H5.66949ZM4.66949 5.93343H5.62409V3.93343H4.66949V5.93343ZM5.62409 5.93343C5.81667 5.93343 6.14787 5.89418 6.43739 5.64085C6.75242 5.3652 6.83049 5.00446 6.83049 4.75283H4.83049C4.83049 4.62159 4.87416 4.35115 5.12039 4.1357C5.34111 3.94257 5.56911 3.93343 5.62409 3.93343V5.93343ZM6.83049 4.75283V4.73563H4.83049V4.75283H6.83049ZM6.83049 4.73563C6.83049 4.48636 6.75264 4.13172 6.44487 3.85814C6.15844 3.60354 5.82745 3.55933 5.62409 3.55933V5.55933C5.56263 5.55933 5.33485 5.54737 5.11614 5.35296C4.87609 5.13958 4.83049 4.8731 4.83049 4.73563H6.83049ZM5.62409 3.55933H4.66089V5.55933H5.62409V3.55933ZM5.66089 4.55933V3.67353H3.66089V4.55933H5.66089ZM4.66089 4.67353H5.95949V2.67353H4.66089V4.67353ZM5.95949 4.67353C6.1675 4.67353 6.50014 4.6261 6.78581 4.36721C7.08899 4.09245 7.16589 3.73916 7.16589 3.48863H5.16589C5.16589 3.35849 5.20839 3.09765 5.44277 2.88524C5.65964 2.6887 5.88908 2.67353 5.95949 2.67353V4.67353ZM7.16589 3.48863V3.46283H5.16589V3.48863H7.16589ZM7.16589 3.46283C7.16589 3.20411 7.08278 2.85244 6.77938 2.58222C6.49586 2.32972 6.16785 2.28223 5.95949 2.28223V4.28223C5.88873 4.28223 5.66392 4.26699 5.4492 4.07575C5.21461 3.86682 5.16589 3.60544 5.16589 3.46283H7.16589ZM5.95949 2.28223H4.45879V4.28223H5.95949V2.28223ZM4.45879 2.28223C4.14664 2.28223 3.81418 2.3968 3.56255 2.6615C3.31523 2.92167 3.22229 3.24575 3.22229 3.53163H5.22229C5.22229 3.667 5.17665 3.86638 5.0121 4.03947C4.84325 4.2171 4.62904 4.28223 4.45879 4.28223V2.28223ZM3.22229 3.53163V5.84933H5.22229V3.53163H3.22229ZM7.36866 2.94443C7.05439 2.94443 6.7243 3.03047 6.43715 3.24849C6.15763 3.46072 5.9945 3.7404 5.90195 4.0004L7.78616 4.67105C7.78392 4.67735 7.75193 4.76139 7.64657 4.84139C7.53356 4.92719 7.42062 4.94443 7.36866 4.94443V2.94443ZM7.84406 4.33573C7.84406 4.17976 7.82134 4.05431 7.80744 3.98481L5.84628 4.37704C5.84958 4.39354 5.84406 4.3713 5.84406 4.33573H7.84406ZM7.79393 3.92643C7.72332 3.65809 7.56801 3.38689 7.29592 3.19676C7.03646 3.01545 6.76599 2.97453 6.57746 2.97453V4.97453C6.48782 4.97453 6.32055 4.9551 6.15032 4.83615C5.96745 4.70836 5.8874 4.54036 5.85978 4.43542L7.79393 3.92643ZM6.57746 2.97453C6.40736 2.97453 6.2527 3.00727 6.12461 3.05407C6.06335 3.07646 5.9798 3.11233 5.8918 3.16923C5.85101 3.1956 5.77562 3.24789 5.69791 3.33037C5.65961 3.37103 5.42266 3.61729 5.42266 4.02183H7.42266C7.42266 4.24041 7.35164 4.40599 7.30098 4.49869C7.24863 4.59449 7.19104 4.66211 7.15365 4.70181C7.08004 4.77994 7.01069 4.82743 6.9777 4.84876C6.90529 4.89558 6.84432 4.92043 6.811 4.9326C6.73881 4.95898 6.66155 4.97453 6.57746 4.97453V2.97453ZM5.42266 4.02183V5.87943H7.42266V4.02183H5.42266ZM5.42266 5.87943C5.42266 6.10948 5.4811 6.4778 5.79217 6.7688C6.09104 7.04838 6.43915 7.08153 6.61186 7.08153V5.08153C6.67276 5.08153 6.92628 5.09102 7.15849 5.30825C7.40291 5.53691 7.42266 5.80418 7.42266 5.87943H5.42266ZM6.61186 7.08153H6.65916V5.08153H6.61186V7.08153ZM6.65916 7.08153C6.83811 7.08153 7.17757 7.04472 7.47138 6.77422C7.78072 6.48943 7.84836 6.12478 7.84836 5.87943H5.84836C5.84836 5.78888 5.87514 5.52527 6.11676 5.30283C6.34284 5.09469 6.58771 5.08153 6.65916 5.08153V7.08153ZM7.84836 5.87943V5.15273H5.84836V5.87943H7.84836ZM7.84836 5.15273C7.84836 5.07738 7.85382 5.0293 7.85836 5.00425C7.86332 4.97693 7.86362 4.99656 7.83966 5.04158C7.81349 5.09073 7.75367 5.17772 7.64049 5.24999C7.52258 5.32527 7.40289 5.34863 7.31706 5.34863V3.34863C7.06352 3.34863 6.8014 3.41283 6.56416 3.56431C6.33166 3.71276 6.17562 3.91129 6.07421 4.1018C5.88543 4.45643 5.84836 4.85125 5.84836 5.15273H7.84836ZM7.31706 5.34863C7.26039 5.34863 7.19047 5.33852 7.11643 5.31076C7.04367 5.28347 6.9894 5.24758 6.95466 5.2198L8.20405 3.65806C7.98657 3.48407 7.68954 3.34863 7.31706 3.34863V5.34863ZM6.87225 5.14603C7.17546 5.44924 7.53824 5.44141 7.61167 5.43924C7.73621 5.43557 7.83259 5.40941 7.88008 5.39487C7.98346 5.36323 8.06305 5.32107 8.11218 5.29201C8.21893 5.22888 8.31575 5.14777 8.39825 5.05389C8.57443 4.85341 8.70836 4.56661 8.70836 4.21963H6.70836C6.70836 4.03605 6.78208 3.8632 6.89592 3.73366C6.94724 3.67526 7.01235 3.61887 7.0941 3.57053C7.13073 3.54886 7.19951 3.5116 7.29465 3.48247C7.33803 3.4692 7.43094 3.4437 7.55278 3.44011C7.6235 3.43803 7.98433 3.42969 8.28646 3.73182L6.87225 5.14603ZM8.70836 4.21963C8.70836 3.87135 8.57012 3.50248 8.2508 3.24229C7.95858 3.00419 7.62231 2.94443 7.36866 2.94443V4.94443C7.33 4.94443 7.16358 4.93627 6.98746 4.79276C6.78424 4.62718 6.70836 4.3959 6.70836 4.21963H8.70836ZM6.66768 5.04093C6.66768 5.59622 6.86112 6.13362 7.26558 6.53354C7.66911 6.93254 8.20717 7.12023 8.75988 7.12023V5.12023C8.70738 5.12023 8.67947 5.11161 8.67019 5.10807C8.66172 5.10484 8.66489 5.10454 8.67178 5.11136C8.67875 5.11825 8.67984 5.12284 8.67789 5.11785C8.67563 5.11206 8.66768 5.08852 8.66768 5.04093H6.66768ZM8.75988 7.12023C9.21582 7.12023 9.6226 7.00223 9.94565 6.79916L8.88131 5.10589C8.90337 5.09203 8.87154 5.12023 8.75988 5.12023V7.12023ZM9.94565 6.79916C10.2051 6.63609 10.6414 6.25649 10.6414 5.65153H8.64138C8.64138 5.41934 8.73439 5.2679 8.77694 5.20977C8.82628 5.14235 8.86984 5.1131 8.88131 5.10589L9.94565 6.79916ZM10.6414 5.65153C10.6414 5.0797 10.2718 4.74505 10.0271 4.60594C9.90755 4.53795 9.79124 4.49723 9.69457 4.47351C9.64715 4.46188 9.58644 4.4499 9.51725 4.44383C9.48612 4.4411 9.42583 4.437 9.35112 4.44229C9.31528 4.44482 9.24722 4.45136 9.16461 4.47311C9.11188 4.48699 8.90125 4.54315 8.71068 4.73372L10.1249 6.14794C9.93485 6.33797 9.72516 6.39368 9.67375 6.40722C9.59246 6.42861 9.52609 6.43491 9.4923 6.4373C9.42169 6.44229 9.36689 6.43832 9.34247 6.43618C9.28668 6.43128 9.24418 6.42233 9.21813 6.41593C9.16418 6.4027 9.10324 6.38133 9.0385 6.34452C8.9035 6.26775 8.64138 6.04275 8.64138 5.65153H10.6414ZM8.55328 4.93821C8.56022 4.92627 8.59547 4.87213 8.66987 4.82703C8.74678 4.7804 8.79701 4.78483 8.76848 4.78483V6.78483C9.10116 6.78483 9.42229 6.7097 9.70667 6.5373C9.98855 6.36642 10.1679 6.14028 10.2823 5.94345L8.55328 4.93821ZM8.76848 4.78483C8.79314 4.78483 8.86264 4.79455 8.93668 4.85477C9.01211 4.91611 9.04708 4.99366 9.05654 5.04703L7.08723 5.39602C7.23653 6.23852 7.94414 6.78483 8.76848 6.78483V4.78483ZM9.05828 5.05713C9.0577 5.05369 9.05738 5.05172 9.05709 5.04995C9.05682 5.04832 9.05673 5.04774 9.05674 5.0478C9.05675 5.04788 9.05691 5.04893 9.05717 5.05071C9.05743 5.05251 9.05781 5.05526 9.05825 5.05879C9.05987 5.07177 9.06328 5.10259 9.06328 5.14413H7.06328C7.06328 5.26678 7.08364 5.37484 7.08549 5.38593L9.05828 5.05713ZM8.06328 6.14413H9.58978V4.14413H8.06328V6.14413ZM9.58978 6.14413C9.70223 6.14413 10.0849 6.13631 10.3985 5.82274C10.7139 5.5073 10.7188 5.12264 10.7188 5.01943H8.71878C8.71878 5.00651 8.70859 4.6842 8.98426 4.40853C9.25806 4.13474 9.57624 4.14413 9.58978 4.14413V6.14413ZM10.7188 5.01943V4.98503H8.71878V5.01943H10.7188ZM10.7188 4.98503C10.7188 4.46121 10.5485 3.94083 10.1713 3.54378C9.78948 3.14189 9.26897 2.94443 8.72548 2.94443V4.94443C8.75674 4.94443 8.76462 4.94972 8.75667 4.9465C8.75309 4.94504 8.74734 4.94225 8.74046 4.93757C8.73358 4.93289 8.72701 4.92732 8.72127 4.92128C8.70893 4.90829 8.70676 4.90003 8.70879 4.90555C8.71109 4.91184 8.71878 4.93657 8.71878 4.98503H10.7188ZM8.72548 2.94443C7.52599 2.94443 6.66768 3.89817 6.66768 5.04093H8.66768C8.66768 5.00323 8.67426 4.97964 8.679 4.96747C8.68376 4.95524 8.68804 4.95078 8.68844 4.95036C8.6887 4.95009 8.68865 4.94995 8.69031 4.94925C8.69174 4.94865 8.702 4.94443 8.72548 4.94443V2.94443ZM9.30598 3.85603H8.06758V5.85603H9.30598V3.85603ZM9.05652 5.00437C9.05042 5.04503 9.02594 5.11146 8.95971 5.17179C8.89038 5.23493 8.80088 5.26693 8.72118 5.26693V3.26693C7.83837 3.26693 7.1963 3.92331 7.07865 4.70769L9.05652 5.00437ZM8.72118 5.26693C8.65696 5.26693 8.52925 5.23884 8.41997 5.12722C8.31892 5.02401 8.3084 4.92618 8.30779 4.91616L10.3042 4.79589C10.2821 4.42898 10.1511 4.03659 9.84907 3.72805C9.53877 3.41111 9.12941 3.26693 8.72118 3.26693V5.26693ZM8.88985 5.04093C8.88985 5.59622 9.08329 6.13362 9.48775 6.53354C9.89128 6.93254 10.4293 7.12023 10.9821 7.12023V5.12023C10.9296 5.12023 10.9016 5.11161 10.8924 5.10807C10.8839 5.10483 10.8871 5.10454 10.894 5.11136C10.9009 5.11825 10.902 5.12284 10.9001 5.11785C10.8978 5.11206 10.8899 5.08852 10.8899 5.04093H8.88985ZM10.9821 7.12023C11.438 7.12023 11.8448 7.00223 12.1678 6.79916L11.1035 5.10589C11.1255 5.09203 11.0937 5.12023 10.9821 5.12023V7.12023ZM12.1678 6.79916C12.4272 6.63609 12.8636 6.25649 12.8636 5.65153H10.8636C10.8636 5.41934 10.9566 5.2679 10.9991 5.20977C11.0485 5.14235 11.092 5.1131 11.1035 5.10589L12.1678 6.79916ZM12.8636 5.65153C12.8636 5.0797 12.4939 4.74505 12.2493 4.60594C12.1297 4.53795 12.0134 4.49723 11.9167 4.47351C11.8693 4.46188 11.8086 4.4499 11.7394 4.44383C11.7083 4.4411 11.648 4.437 11.5733 4.44229C11.5374 4.44482 11.4694 4.45136 11.3868 4.47311C11.3341 4.48699 11.1234 4.54315 10.9328 4.73372L12.3471 6.14794C12.157 6.33797 11.9473 6.39368 11.8959 6.40722C11.8146 6.42861 11.7483 6.43491 11.7145 6.4373C11.6439 6.44229 11.5891 6.43832 11.5646 6.43618C11.5089 6.43128 11.4664 6.42233 11.4403 6.41593C11.3864 6.4027 11.3254 6.38133 11.2607 6.34452C11.1257 6.26775 10.8636 6.04275 10.8636 5.65153H12.8636ZM10.7754 4.93821C10.7824 4.92627 10.8176 4.87213 10.892 4.82703C10.9689 4.7804 11.0192 4.78483 10.9907 4.78483V6.78483C11.3233 6.78483 11.6445 6.7097 11.9288 6.5373C12.2107 6.36642 12.39 6.14028 12.5045 5.94345L10.7754 4.93821ZM10.9907 4.78483C11.0153 4.78483 11.0848 4.79455 11.1588 4.85477C11.2343 4.91611 11.2693 4.99366 11.2787 5.04703L9.30939 5.39602C9.4587 6.23852 10.1663 6.78483 10.9907 6.78483V4.78483ZM11.2804 5.05713C11.2799 5.05369 11.2795 5.05172 11.2793 5.04995C11.279 5.04833 11.2789 5.04775 11.2789 5.0478C11.2789 5.04788 11.2791 5.04894 11.2793 5.05072C11.2796 5.05252 11.28 5.05527 11.2804 5.0588C11.282 5.07178 11.2855 5.1026 11.2855 5.14413H9.28545C9.28545 5.26678 9.30581 5.37482 9.30766 5.38593L11.2804 5.05713ZM10.2855 6.14413H11.812V4.14413H10.2855V6.14413ZM11.812 6.14413C11.9244 6.14413 12.3071 6.13631 12.6206 5.82274C12.9361 5.5073 12.941 5.12264 12.941 5.01943H10.941C10.941 5.00651 10.9308 4.6842 11.2064 4.40853C11.4802 4.13474 11.7984 4.14413 11.812 4.14413V6.14413ZM12.941 5.01943V4.98503H10.941V5.01943H12.941ZM12.941 4.98503C12.941 4.46121 12.7706 3.94083 12.3934 3.54378C12.0116 3.14189 11.4911 2.94443 10.9477 2.94443V4.94443C10.9789 4.94443 10.9868 4.94972 10.9788 4.9465C10.9753 4.94504 10.9695 4.94225 10.9626 4.93757C10.9557 4.93289 10.9492 4.92732 10.9434 4.92128C10.9311 4.90829 10.9289 4.90003 10.931 4.90555C10.9333 4.91184 10.941 4.93657 10.941 4.98503H12.941ZM10.9477 2.94443C9.74816 2.94443 8.88985 3.89817 8.88985 5.04093H10.8899C10.8899 5.00323 10.8964 4.97964 10.9012 4.96747C10.9059 4.95524 10.9102 4.95078 10.9106 4.95036C10.9109 4.9501 10.9108 4.94995 10.9125 4.94925C10.9139 4.94865 10.9242 4.94443 10.9477 4.94443V2.94443ZM11.5282 3.85603H10.2898V5.85603H11.5282V3.85603ZM11.2787 5.00437C11.2726 5.04504 11.2481 5.11146 11.1819 5.17179C11.1125 5.23493 11.023 5.26693 10.9434 5.26693V3.26693C10.0605 3.26693 9.41847 3.92331 9.30081 4.70769L11.2787 5.00437ZM10.9434 5.26693C10.8791 5.26693 10.7514 5.23884 10.6421 5.12722C10.5411 5.02401 10.5306 4.92618 10.53 4.91616L12.5263 4.79589C12.5042 4.42898 12.3733 4.03659 12.0712 3.72805C11.7609 3.41111 11.3516 3.26693 10.9434 3.26693V5.26693Z" fill="black" mask="url(#path-2-inside-1_53219_226)"/>
</g>
</g>
</svg>
