<svg width="32" height="32" viewBox="0 0 32 32" fill="none" xmlns="http://www.w3.org/2000/svg">
<g id="Other=partial-refund, Size=32px, stroke width=1.5px">
<path id="betslip" d="M3.33337 23.0002C3.33337 24.2888 4.28199 25.3335 5.45216 25.3335L9.40658 25.3335M17.3408 6.66683L5.45216 6.66683C4.28199 6.66683 3.33337 7.7115 3.33337 9.00016L3.33337 10.2375C3.33337 10.4359 3.49529 10.5936 3.69118 10.6248C4.68671 10.7829 5.44448 11.5899 5.44448 12.5616C5.44448 13.5332 4.6867 14.3402 3.69118 14.4984C3.49529 14.5295 3.33337 14.6873 3.33337 14.8856L3.33337 17.1147C3.33337 17.3131 3.49529 17.4708 3.69118 17.502C4.6867 17.6601 5.44448 18.4671 5.44448 19.4388C5.44448 20.4104 4.6867 21.2174 3.69118 21.3756C3.49529 21.4067 3.33337 21.5645 3.33337 21.7628L3.33337 22.8774" stroke="black" stroke-opacity="0.08" stroke-width="1.5" stroke-linecap="round"/>
<path id="betslip_2" d="M28.6667 23.0002C28.6667 24.2888 27.7181 25.3335 26.5479 25.3335L9.99661 25.3335M18.3597 6.66683L26.5479 6.66683C27.7181 6.66683 28.6667 7.7115 28.6667 9.00016L28.6667 10.2375C28.6667 10.4359 28.5048 10.5936 28.3089 10.6248C27.3134 10.7829 26.5556 11.5899 26.5556 12.5616C26.5556 13.5332 27.3134 14.3402 28.3089 14.4984C28.5048 14.5295 28.6667 14.6873 28.6667 14.8856L28.6667 17.1147C28.6667 17.3131 28.5048 17.4708 28.3089 17.502C27.3134 17.6601 26.5556 18.4671 26.5556 19.4388C26.5556 20.4104 27.3134 21.2174 28.3089 21.3756C28.5048 21.4067 28.6667 21.5645 28.6667 21.7628L28.6667 22.8774M20.4862 24.5967L20.4862 23.123M20.4862 20.6668L20.4862 19.1931M20.4862 16.737L20.4862 15.2633M20.4862 12.8072L20.4862 11.3335M20.4862 8.87736L20.4862 7.40367" stroke="black" stroke-width="1.5" stroke-linecap="round" stroke-linejoin="round"/>
<path id="Line 21" d="M19.859 1.93311L8.09733 29.2272" stroke="black" stroke-width="1.5" stroke-linecap="round" stroke-linejoin="round"/>
</g>
</svg>
