<svg width="16" height="16" viewBox="0 0 16 16" fill="none" xmlns="http://www.w3.org/2000/svg">
<g id="Other=4-3-free, Size=16px, stroke width=1.5px">
<path id="4" d="M8.00783 8.88938V6.32186C8.00783 6.31351 8.00365 6.30934 7.9953 6.30934C7.9786 6.30934 7.97025 6.31351 7.97025 6.32186L6.14168 8.96452L6.12916 8.97705V8.98957C6.12916 8.99792 6.13333 9.0021 6.14168 9.0021H7.89511C7.97025 9.0021 8.00783 8.96452 8.00783 8.88938ZM10.926 9.0021C11.1181 9.0021 11.2851 9.07307 11.427 9.21501C11.5689 9.35696 11.6399 9.52395 11.6399 9.71599V10.2295C11.6399 10.4215 11.5689 10.5885 11.427 10.7305C11.2851 10.8724 11.1181 10.9434 10.926 10.9434H10.4877C10.4209 10.9434 10.3875 10.981 10.3875 11.0561V11.8577C10.3875 12.0497 10.3165 12.2167 10.1746 12.3587C10.0326 12.5006 9.86562 12.5716 9.67358 12.5716H8.72172C8.52968 12.5716 8.36269 12.5006 8.22074 12.3587C8.0788 12.2167 8.00783 12.0497 8.00783 11.8577V11.0561C8.00783 10.981 7.97025 10.9434 7.89511 10.9434H4.71389C4.52185 10.9434 4.35486 10.8724 4.21292 10.7305C4.07097 10.5885 4 10.4215 4 10.2295V9.71599C4 9.24841 4.13777 8.8184 4.41331 8.42597L7.59452 4.00484C7.87006 3.62075 8.24579 3.42871 8.72172 3.42871H9.67358C9.86562 3.42871 10.0326 3.49968 10.1746 3.64163C10.3165 3.78357 10.3875 3.95056 10.3875 4.14261V8.88938C10.3875 8.96452 10.4209 9.0021 10.4877 9.0021H10.926Z" stroke="black" stroke-width="1.5" stroke-linecap="round" stroke-linejoin="round"/>
</g>
</svg>
