<svg width="16" height="16" viewBox="0 0 16 16" fill="none" xmlns="http://www.w3.org/2000/svg">
<g id="Other=lifebuoy, Size=16px, stroke width=1px">
<path id="Vector" d="M4.89989 3.51528C5.81068 2.8846 6.89216 2.54671 8 2.54671C9.10783 2.54671 10.1893 2.8846 11.1001 3.51529M12.4846 4.89982C13.1153 5.81061 13.4532 6.8921 13.4532 7.99994C13.4532 9.10777 13.1153 10.1893 12.4846 11.1M3.51535 4.89983C2.88466 5.81061 2.54677 6.89209 2.54677 7.99993C2.54677 9.10776 2.88467 10.1893 3.51535 11.1M4.89989 12.4846C5.81068 13.1153 6.89217 13.4532 8 13.4532C9.10784 13.4532 10.1893 13.1153 11.1001 12.4846M5.98361 5.08366C6.57633 4.67425 7.27963 4.45497 8 4.45497C8.72037 4.45497 9.42367 4.67425 10.0164 5.08366M10.9163 5.98354C11.3257 6.57626 11.545 7.27956 11.545 7.99993C11.545 8.7203 11.3257 9.4236 10.9163 10.0163M5.08373 5.98354C4.67432 6.57626 4.45504 7.27957 4.45504 7.99993C4.45504 8.7203 4.67432 9.4236 5.08373 10.0163M5.98361 10.9162C6.57633 11.3256 7.27963 11.5449 8 11.5449C8.72036 11.5449 9.42367 11.3256 10.0164 10.9162M10.1854 5.94305L10.0569 5.81449C9.96659 5.72432 9.91078 5.60535 9.89915 5.47827C9.88752 5.3512 9.92082 5.22407 9.99325 5.11901L11.2846 3.24918C11.3076 3.21684 11.3373 3.1899 11.3718 3.17026C11.4063 3.15061 11.4446 3.13872 11.4841 3.13541C11.5237 3.13211 11.5635 3.13747 11.6007 3.15112C11.638 3.16478 11.6718 3.18639 11.6998 3.21447L12.7874 4.30204C12.8155 4.33008 12.8371 4.3639 12.8507 4.40115C12.8644 4.4384 12.8698 4.47818 12.8664 4.51772C12.8631 4.55725 12.8513 4.59559 12.8316 4.63006C12.812 4.66452 12.785 4.69429 12.7527 4.71728L10.8829 6.00861C10.7774 6.08131 10.6497 6.11458 10.5222 6.10259C10.3947 6.0906 10.2755 6.03412 10.1854 5.94305ZM5.94312 10.1854L5.81456 10.0568C5.72439 9.96652 5.60542 9.91071 5.47834 9.89908C5.35127 9.88745 5.22414 9.92075 5.11908 9.99318L3.24925 11.2845C3.21691 11.3075 3.18997 11.3373 3.17032 11.3717C3.15068 11.4062 3.13879 11.4445 3.13548 11.4841C3.13218 11.5236 3.13754 11.5634 3.15119 11.6006C3.16485 11.6379 3.18646 11.6717 3.21454 11.6997L4.30211 12.7873C4.33015 12.8154 4.36397 12.837 4.40122 12.8507C4.43847 12.8643 4.47825 12.8697 4.51779 12.8664C4.55732 12.8631 4.59566 12.8512 4.63013 12.8315C4.66459 12.8119 4.69436 12.785 4.71735 12.7526L6.00868 10.8828C6.08137 10.7773 6.11464 10.6497 6.10266 10.5222C6.09067 10.3946 6.03419 10.2754 5.94312 10.1854ZM10.0569 10.1854L10.1854 10.0568C10.2756 9.96652 10.3946 9.91071 10.5217 9.89908C10.6487 9.88746 10.7759 9.92075 10.8809 9.99318L12.7508 11.2845C12.7831 11.3075 12.81 11.3373 12.8297 11.3717C12.8493 11.4062 12.8612 11.4445 12.8645 11.4841C12.8678 11.5236 12.8625 11.5634 12.8488 11.6006C12.8352 11.6379 12.8135 11.6717 12.7855 11.6998L11.6979 12.7873C11.6699 12.8154 11.636 12.837 11.5988 12.8507C11.5615 12.8643 11.5218 12.8697 11.4822 12.8664C11.4427 12.8631 11.4043 12.8512 11.3699 12.8315C11.3354 12.8119 11.3056 12.785 11.2827 12.7526L9.99132 10.8828C9.91862 10.7773 9.88536 10.6497 9.89734 10.5222C9.90933 10.3946 9.96581 10.2754 10.0569 10.1854ZM5.81456 5.94305L5.94312 5.81449C6.03341 5.72432 6.08922 5.60535 6.10085 5.47827C6.11247 5.3512 6.07918 5.22407 6.00676 5.11901L4.71542 3.24917C4.69243 3.21684 4.66267 3.18991 4.6282 3.17026C4.59374 3.15061 4.5554 3.13871 4.51586 3.13541C4.47633 3.1321 4.43654 3.13747 4.39929 3.15113C4.36204 3.16478 4.32822 3.1864 4.30018 3.21447L3.21261 4.30204C3.18454 4.33007 3.16292 4.3639 3.14927 4.40115C3.13561 4.4384 3.13025 4.47818 3.13356 4.51771C3.13686 4.55725 3.14875 4.59559 3.1684 4.63006C3.18805 4.66453 3.21498 4.69429 3.24731 4.71728L5.11715 6.00861C5.22259 6.08131 5.35026 6.11458 5.47777 6.10259C5.60529 6.0906 5.72452 6.03412 5.81456 5.94305Z" stroke="black" stroke-linecap="round" stroke-linejoin="round"/>
</g>
</svg>
