<svg width="24" height="24" viewBox="0 0 24 24" fill="none" xmlns="http://www.w3.org/2000/svg">
<g id="Other=frame, Size=24px, stroke width=1.5px">
<path id="frame" d="M17.4808 8.16346C18.3889 8.16346 19.125 7.42731 19.125 6.51923C19.125 5.61115 18.3889 4.875 17.4808 4.875C16.5727 4.875 15.8365 5.61115 15.8365 6.51923M17.4808 8.16346C16.5727 8.16346 15.8365 7.42731 15.8365 6.51923M17.4808 8.16346V15.8365M15.8365 6.51923H8.16346M15.8365 17.4808C15.8365 18.3889 16.5727 19.125 17.4808 19.125C18.3889 19.125 19.125 18.3889 19.125 17.4808C19.125 16.5727 18.3889 15.8365 17.4808 15.8365M15.8365 17.4808C15.8365 16.5727 16.5727 15.8365 17.4808 15.8365M15.8365 17.4808H8.16346M8.16346 6.51923C8.16346 7.42731 7.42731 8.16346 6.51923 8.16346M8.16346 6.51923C8.16346 5.61115 7.42731 4.875 6.51923 4.875C5.61115 4.875 4.875 5.61115 4.875 6.51923C4.875 7.42731 5.61115 8.16346 6.51923 8.16346M6.51923 8.16346V15.8365M8.16346 17.4808C8.16346 18.3889 7.42731 19.125 6.51923 19.125C5.61115 19.125 4.875 18.3889 4.875 17.4808C4.875 16.5727 5.61115 15.8365 6.51923 15.8365M8.16346 17.4808C8.16346 16.5727 7.42731 15.8365 6.51923 15.8365" stroke="black" stroke-width="1.5" stroke-linecap="round" stroke-linejoin="round"/>
</g>
</svg>
