<svg width="16" height="16" viewBox="0 0 16 16" fill="none" xmlns="http://www.w3.org/2000/svg">
<g id="Other=rewards, Size=16px, weight=regular">
<path id="rewards" d="M3.91323 9.05787V11.904C3.91323 12.1283 4.00196 12.3435 4.15991 12.5022C4.31785 12.6609 4.53207 12.75 4.75543 12.75H11.2425C11.4658 12.75 11.68 12.6609 11.838 12.5022C11.9959 12.3435 12.0847 12.1283 12.0847 11.904V9.05787M7.95578 5.46771V12.7183M6.19559 3.3505C6.71354 3.59374 7.95578 5.42753 7.95578 5.42753C7.95578 5.42753 5.83555 5.48463 5.31549 5.23928C5.19137 5.18165 5.0798 5.09996 4.9872 4.99889C4.8946 4.89782 4.8228 4.77937 4.7759 4.65034C4.72901 4.5213 4.70796 4.38423 4.71396 4.247C4.71996 4.10977 4.75289 3.97509 4.81085 3.85068C4.86882 3.72627 4.95069 3.6146 5.05175 3.52207C5.15281 3.42954 5.27107 3.35798 5.39974 3.3115C5.52842 3.26502 5.66497 3.24455 5.80154 3.25124C5.93812 3.25793 6.07203 3.29166 6.19559 3.3505ZM9.80441 3.3505C9.28435 3.59374 8.04211 5.42753 8.04211 5.42753C8.04211 5.42753 10.1623 5.48463 10.6824 5.23928C10.9235 5.11729 11.1078 4.90574 11.1962 4.64951C11.2846 4.39328 11.2702 4.11252 11.156 3.8668C11.0418 3.62108 10.8367 3.42973 10.5844 3.33334C10.3321 3.23695 10.0523 3.24311 9.80441 3.3505ZM7.95578 7.53839H12.3289C12.4406 7.53839 12.5477 7.49383 12.6267 7.4145C12.7056 7.33517 12.75 7.22757 12.75 7.11537V5.84631C12.75 5.73412 12.7056 5.62653 12.6267 5.5472C12.5477 5.46787 12.4406 5.42329 12.3289 5.42329H3.6711C3.55942 5.42329 3.45231 5.46787 3.37334 5.5472C3.29437 5.62653 3.25 5.73412 3.25 5.84631V7.11537C3.25 7.22757 3.29437 7.33517 3.37334 7.4145C3.45231 7.49383 3.55942 7.53839 3.6711 7.53839H7.95578Z" stroke="black" stroke-width="1.5" stroke-linecap="round" stroke-linejoin="round"/>
</g>
</svg>
