<svg width="16" height="16" viewBox="0 0 16 16" fill="none" xmlns="http://www.w3.org/2000/svg">
<g id="Other=water-temperature, Size=16px, stroke width=1px">
<path id="water" d="M8.10891 5.48882C8.35891 4.98882 9.11196 4.45093 9.19988 4.45093C9.57732 4.45093 12.6999 7.28241 12.6999 9.94093C12.6999 11.8794 11.1329 13.4509 9.19988 13.4509C8.28366 13.4509 7.44968 13.0979 6.82581 12.52" stroke="black" stroke-linecap="round" stroke-linejoin="round"/>
<path id="t" d="M6.07976 12.5179C4.77976 12.5179 3.85119 11.7131 3.85119 9.99525V6.76073H3V4.81073H3.85119V3.00001L6.28095 3V4.81073H8.10714V6.76073H6.28095V9.54644C6.28095 10.0417 6.38929 10.3976 6.85357 10.3976C7.02381 10.3976 7.33333 10.3512 7.59643 10.2274L8.2 12.0072C7.67381 12.3012 7.13214 12.5179 6.07976 12.5179Z" stroke="black" stroke-linecap="round" stroke-linejoin="round"/>
</g>
</svg>
