<svg width="16" height="16" viewBox="0 0 16 16" fill="none" xmlns="http://www.w3.org/2000/svg">
<g id="Other=6-6-free, Size=16px, weight=light">
<path id="6" d="M8.10653 10.8649C8.4885 10.8649 8.78513 10.7471 8.99643 10.5114C9.21586 10.2676 9.32558 9.91811 9.32558 9.463C9.32558 8.52839 8.91923 8.06109 8.10653 8.06109C7.72456 8.06109 7.42386 8.183 7.20443 8.42681C6.99313 8.67062 6.88748 9.01601 6.88748 9.463C6.88748 9.90185 6.99719 10.2473 7.21662 10.4992C7.44418 10.743 7.74081 10.8649 8.10653 10.8649ZM8.59415 6.47633C9.58564 6.47633 10.3414 6.7242 10.8616 7.21995C11.3817 7.7157 11.6418 8.44306 11.6418 9.40204C11.6418 10.3935 11.3289 11.1697 10.7031 11.7304C10.0773 12.2912 9.2118 12.5716 8.10653 12.5716C6.99313 12.5716 6.12354 12.2343 5.49777 11.5598C4.88011 10.8771 4.57129 9.87341 4.57129 8.54871C4.57129 6.85017 4.92481 5.57423 5.63186 4.7209C6.33891 3.85944 7.34665 3.42871 8.6551 3.42871C9.10208 3.42871 9.55719 3.46528 10.0204 3.53843C10.2155 3.57093 10.374 3.66846 10.4959 3.831C10.6178 3.98541 10.6787 4.1642 10.6787 4.36738V4.80623C10.6787 4.96877 10.6096 5.10287 10.4715 5.20852C10.3414 5.30604 10.1952 5.33449 10.0326 5.29385C9.59377 5.1882 9.17523 5.13538 8.777 5.13538C7.67173 5.13538 7.03783 5.71646 6.87529 6.87862C6.87529 6.89487 6.87935 6.903 6.88748 6.903H6.91186C7.3751 6.61855 7.93586 6.47633 8.59415 6.47633Z" stroke="black" stroke-linecap="round" stroke-linejoin="round"/>
</g>
</svg>
