<svg width="16" height="16" viewBox="0 0 16 16" fill="none" xmlns="http://www.w3.org/2000/svg">
<g id="Other=player, Size=16px, weight=light">
<path id="Vector" d="M2.5 14.4995C2.5 12.9161 4.01684 11.9226 5.61763 11.9226H6.33263V10.4909M13.5 14.4995C13.5 12.9161 12.4261 11.9226 10.8282 11.9226H9.22447V10.4909M10.9613 4.03711V5.18242C10.9613 5.18242 11.5403 5.43725 11.5403 5.75508V6.90039C11.5403 7.21821 11.3289 7.47304 10.75 7.47304C10.75 9.05643 9.49368 10.909 7.89289 10.909C6.2921 10.909 4.94026 9.05643 4.94026 7.47304C4.36132 7.47304 4.01395 7.21821 4.01395 6.90039V5.75508C4.01395 5.43725 4.59289 5.18242 4.59289 5.18242V4.03711C4.59289 3.08651 4.88237 2.03282 6.32974 2.03282C9.51395 0.601185 11.8297 2.31915 10.9613 4.03711Z" stroke="black" stroke-linecap="round" stroke-linejoin="round"/>
</g>
</svg>
