<svg width="32" height="32" viewBox="0 0 32 32" fill="none" xmlns="http://www.w3.org/2000/svg">
<g id="Other=rocket, Size=32px, weight=light">
<path id="rocket" d="M7.75304 19.8656L6.0344 21.5843M9.44371 21.5563L5.45086 25.5491M11.1344 23.247L9.33579 25.0455M20.2232 6.01655L24.9834 10.7768M10.9225 11.6241C9.18791 11.836 6.45007 12.7393 4 16.3844C4 16.3844 5.44286 15.7209 7.97287 16.1925M19.3839 20.0775C19.176 21.8121 18.2727 24.5499 14.6276 27C14.6276 27 15.2871 25.5531 14.8195 23.0271M18.7084 10.1013C19.1416 10.1013 19.5651 10.2298 19.9252 10.4705C20.2854 10.7111 20.5662 11.0532 20.7319 11.4534C20.8977 11.8536 20.9411 12.294 20.8566 12.7189C20.7721 13.1438 20.5635 13.534 20.2572 13.8404C19.9508 14.1467 19.5606 14.3553 19.1357 14.4398C18.7108 14.5243 18.2704 14.4809 17.8702 14.3151C17.47 14.1494 17.1279 13.8686 16.8873 13.5084C16.6466 13.1483 16.5181 12.7248 16.5181 12.2916C16.5181 11.7107 16.7489 11.1536 17.1596 10.7428C17.5704 10.3321 18.1275 10.1013 18.7084 10.1013ZM25.8388 5.16123C24.5997 4.85347 16.8579 3.61844 9.01604 18.2949L12.7131 21.9919C27.4375 14.1142 26.1425 6.36028 25.8388 5.16123Z" stroke="black" stroke-linecap="round" stroke-linejoin="round"/>
</g>
</svg>
