<svg width="32" height="32" viewBox="0 0 32 32" fill="none" xmlns="http://www.w3.org/2000/svg">
<g id="Other=6-6-free, Size=32px, stroke width=1.5px">
<path id="6" d="M16.2133 21.7293C16.9772 21.7293 17.5705 21.4936 17.9931 21.0223C18.432 20.5346 18.6514 19.8357 18.6514 18.9255C18.6514 17.0563 17.8387 16.1217 16.2133 16.1217C15.4494 16.1217 14.848 16.3655 14.4091 16.8531C13.9865 17.3407 13.7752 18.0315 13.7752 18.9255C13.7752 19.8032 13.9946 20.494 14.4335 20.9979C14.8886 21.4855 15.4819 21.7293 16.2133 21.7293ZM17.1885 12.9522C19.1715 12.9522 20.6831 13.4479 21.7234 14.4394C22.7636 15.4309 23.2838 16.8856 23.2838 18.8036C23.2838 20.7866 22.658 22.3388 21.4064 23.4604C20.1549 24.5819 18.4238 25.1426 16.2133 25.1426C13.9865 25.1426 12.2473 24.4681 10.9958 23.119C9.76047 21.7537 9.14282 19.7463 9.14282 17.0969C9.14282 13.6999 9.84987 11.148 11.264 9.44132C12.6781 7.71839 14.6936 6.85693 17.3104 6.85693C18.2044 6.85693 19.1146 6.93008 20.0411 7.07636C20.4312 7.14138 20.7482 7.33643 20.992 7.66151C21.2358 7.97033 21.3577 8.32792 21.3577 8.73427V9.61198C21.3577 9.93706 21.2195 10.2053 20.9432 10.4166C20.6831 10.6116 20.3906 10.6685 20.0655 10.5872C19.1878 10.3759 18.3507 10.2703 17.5543 10.2703C15.3437 10.2703 14.0759 11.4324 13.7508 13.7567C13.7508 13.7893 13.7589 13.8055 13.7752 13.8055H13.824C14.7504 13.2366 15.872 12.9522 17.1885 12.9522Z" stroke="black" stroke-width="1.5" stroke-linecap="round" stroke-linejoin="round"/>
</g>
</svg>
