<svg width="16" height="16" viewBox="0 0 16 16" fill="none" xmlns="http://www.w3.org/2000/svg">
<g id="Other=water-temperature, Size=16px, weight=regular">
<path id="water" d="M8.10927 5.48858C8.35927 4.98858 9.11233 4.45068 9.20024 4.45068C9.57768 4.45068 12.7002 7.28216 12.7002 9.94068C12.7002 11.8792 11.1332 13.4507 9.20024 13.4507C8.28403 13.4507 7.45004 13.0976 6.82617 12.5198" stroke="black" stroke-width="1.5" stroke-linecap="round" stroke-linejoin="round"/>
<path id="t" d="M6.07976 12.5179C4.77976 12.5179 3.85119 11.7131 3.85119 9.99525V6.76073H3V4.81073H3.85119V3.00001L6.28095 3V4.81073H8.10714V6.76073H6.28095V9.54644C6.28095 10.0417 6.38929 10.3976 6.85357 10.3976C7.02381 10.3976 7.33333 10.3512 7.59643 10.2274L8.2 12.0072C7.67381 12.3012 7.13214 12.5179 6.07976 12.5179Z" stroke="black" stroke-width="1.5" stroke-linecap="round" stroke-linejoin="round"/>
</g>
</svg>
