<svg width="16" height="16" viewBox="0 0 16 16" fill="none" xmlns="http://www.w3.org/2000/svg">
<g id="Other=player, Size=16px, stroke width=1.5px">
<path id="Vector" d="M2.5 14.4993C2.5 12.9159 4.01684 11.9223 5.61763 11.9223H6.33263V10.4907M13.5 14.4993C13.5 12.9159 12.4261 11.9223 10.8282 11.9223H9.22447V10.4907M10.9613 4.03687V5.18218C10.9613 5.18218 11.5403 5.43701 11.5403 5.75483V6.90014C11.5403 7.21797 11.3289 7.4728 10.75 7.4728C10.75 9.05619 9.49368 10.9087 7.89289 10.9087C6.2921 10.9087 4.94026 9.05619 4.94026 7.4728C4.36132 7.4728 4.01395 7.21797 4.01395 6.90014V5.75483C4.01395 5.43701 4.59289 5.18218 4.59289 5.18218V4.03687C4.59289 3.08626 4.88237 2.03258 6.32974 2.03258C9.51395 0.600941 11.8297 2.3189 10.9613 4.03687Z" stroke="black" stroke-width="1.5" stroke-linecap="round" stroke-linejoin="round"/>
</g>
</svg>
