<svg width="16" height="16" viewBox="0 0 16 16" fill="none" xmlns="http://www.w3.org/2000/svg">
<g id="Other=3-dots-horizontal, Size=16px, stroke width=1px">
<g id="frame">
<path d="M12.1109 9.20695C11.5055 9.20695 11.0147 8.71619 11.0147 8.1108C11.0147 7.50541 11.5055 7.01465 12.1109 7.01465C12.7163 7.01465 13.207 7.50541 13.207 8.1108C13.207 8.71619 12.7163 9.20695 12.1109 9.20695Z" stroke="black" stroke-linecap="round" stroke-linejoin="round"/>
<path d="M4.08154 9.20699C3.47615 9.20699 2.98539 8.71623 2.98539 8.11084C2.98539 7.50545 3.47615 7.01469 4.08154 7.01469C4.68693 7.01469 5.17769 7.50545 5.17769 8.11084C5.17769 8.71623 4.68693 9.20699 4.08154 9.20699Z" stroke="black" stroke-linecap="round" stroke-linejoin="round"/>
<path d="M8.08155 9.20695C7.47616 9.20695 6.9854 8.71619 6.9854 8.1108C6.9854 7.50541 7.47616 7.01465 8.08155 7.01465C8.68694 7.01465 9.17771 7.50541 9.17771 8.1108C9.17771 8.71619 8.68694 9.20695 8.08155 9.20695Z" stroke="black" stroke-linecap="round" stroke-linejoin="round"/>
</g>
</g>
</svg>
