<svg width="16" height="16" viewBox="0 0 16 16" fill="none" xmlns="http://www.w3.org/2000/svg">
<g id="Other=partial-refund, Size=16px, stroke width=1px">
<path id="betslip" d="M1.66663 11.5001C1.66663 12.1444 2.14093 12.6667 2.72602 12.6667L4.70323 12.6667M8.67033 3.33342L2.72602 3.33342C2.14093 3.33342 1.66663 3.85575 1.66663 4.50008L1.66663 4.93919C1.66663 5.13753 1.8315 5.29245 2.01984 5.35468C2.4291 5.48991 2.72218 5.85349 2.72218 6.28078C2.72218 6.70808 2.4291 7.07166 2.01984 7.20689C1.8315 7.26912 1.66663 7.42403 1.66663 7.62238L1.66663 8.37778C1.66663 8.57613 1.8315 8.73105 2.01984 8.79328C2.4291 8.9285 2.72218 9.29209 2.72218 9.71938C2.72218 10.1467 2.4291 10.5103 2.01984 10.6455C1.8315 10.7077 1.66663 10.8626 1.66663 11.061L1.66663 11.4387" stroke="black" stroke-opacity="0.08" stroke-linecap="round"/>
<path id="betslip_2" d="M14.3333 11.5001C14.3333 12.1444 13.859 12.6667 13.2739 12.6667L4.99824 12.6667M9.17977 3.33342L13.2739 3.33342C13.859 3.33342 14.3333 3.85575 14.3333 4.50008L14.3333 4.93919C14.3333 5.13753 14.1684 5.29245 13.9801 5.35468C13.5708 5.48991 13.2777 5.85349 13.2777 6.28078C13.2777 6.70808 13.5708 7.07166 13.9801 7.20689C14.1684 7.26912 14.3333 7.42403 14.3333 7.62238L14.3333 8.37778C14.3333 8.57613 14.1684 8.73105 13.9801 8.79328C13.5708 8.9285 13.2777 9.29209 13.2777 9.71938C13.2777 10.1467 13.5708 10.5103 13.9801 10.6455C14.1684 10.7077 14.3333 10.8626 14.3333 11.061L14.3333 11.4387M10.243 12.2983L10.243 11.5615M10.243 10.3334L10.243 9.59657M10.243 8.3685L10.243 7.63166M10.243 6.40359L10.243 5.66675M10.243 4.43868L10.243 3.70184" stroke="black" stroke-linecap="round" stroke-linejoin="round"/>
<path id="Line 21" d="M9.92957 0.966553L4.04873 14.6136" stroke="black" stroke-linecap="round" stroke-linejoin="round"/>
</g>
</svg>
