<svg width="16" height="16" viewBox="0 0 16 16" fill="none" xmlns="http://www.w3.org/2000/svg">
<g id="Other=flame, Size=16px, weight=regular">
<path id="Vector" d="M8 2C8 6.4886 3.5 6.6278 3.5 9.89408C3.5 12.1621 5.51472 14 8 14C6.61696 14 5.49565 12.977 5.49565 11.715C5.49565 11.1946 5.70094 10.6122 5.99396 10.0458C6.20591 10.4479 6.46555 10.8276 6.76821 11.1781C6.76492 11.1604 6.76163 11.1421 6.75848 11.125C6.52398 9.8114 6.93879 8.47016 7.87795 7.45172C7.95528 7.36772 8 7.32188 8 7.32188C8 9.8198 10.5042 9.89732 10.5042 11.715C10.5042 12.977 9.38304 14 8 14C10.4857 14 12.5 12.1617 12.5 9.89408C12.5 8.95892 12.1311 7.91228 11.6046 6.89408C11.2238 7.61688 10.7573 8.29936 10.2133 8.92928C10.2194 8.89728 10.2252 8.86552 10.2308 8.834C10.6523 6.47348 9.90687 4.0634 8.21937 2.234C8.08023 2.08316 8 2.0006 8 2.0006" stroke="black" stroke-width="1.5" stroke-linecap="round" stroke-linejoin="round"/>
</g>
</svg>
