<svg width="16" height="16" viewBox="0 0 16 16" fill="none" xmlns="http://www.w3.org/2000/svg">
<g id="Other=freebet, Size=16px, stroke width=1.5px">
<path id="betslip" d="M13.75 11.1875C13.75 11.7743 13.3568 12.25 12.8718 12.25L3.78125 12.25M12.8718 3.75C13.3568 3.75 13.75 4.2257 13.75 4.8125L13.75 5.18392C13.75 5.38029 13.5842 5.53286 13.4045 5.61194C13.093 5.74896 12.875 6.06555 12.875 6.43421C12.875 6.80288 13.093 7.11946 13.4045 7.25648C13.5842 7.33556 13.75 7.48813 13.75 7.6845L13.75 8.3155C13.75 8.51186 13.5842 8.66444 13.4045 8.74352C13.093 8.88054 12.875 9.19712 12.875 9.56579C12.875 9.93445 13.093 10.251 13.4045 10.3881C13.5842 10.4671 13.75 10.6197 13.75 10.8161L13.75 11.1316M2.25 11.1875C2.25 11.7743 2.64318 12.25 3.12818 12.25L3.99682 12.25M3.12818 3.75C2.64318 3.75 2.25 4.2257 2.25 4.8125L2.25 5.18392C2.25 5.38029 2.41579 5.53286 2.59553 5.61194C2.90695 5.74896 3.125 6.06555 3.125 6.43421C3.125 6.80288 2.90695 7.11946 2.59553 7.25648C2.41579 7.33556 2.25 7.48814 2.25 7.6845L2.25 8.3155C2.25 8.51187 2.41579 8.66444 2.59553 8.74352C2.90695 8.88054 3.125 9.19712 3.125 9.56579C3.125 9.93445 2.90695 10.251 2.59553 10.3881C2.41579 10.4671 2.25 10.6197 2.25 10.8161L2.25 11.1316M10.8594 11.9145L10.8594 11.2434M10.8594 10.125L10.8594 9.45395M10.8594 8.33551L10.8594 7.66446" stroke="black" stroke-width="1.5" stroke-linecap="round" stroke-linejoin="round"/>
<g id="Free">
<mask id="path-2-inside-1_55192_13316" fill="white">
<path d="M4.22229 5.84933C4.22229 5.99983 4.28679 6.08153 4.40719 6.08153H4.47599C4.60499 6.08153 4.66949 6.01273 4.66949 5.87943V4.93343H5.62409C5.76169 4.93343 5.83049 4.87323 5.83049 4.75283V4.73563C5.83049 4.62383 5.76599 4.55933 5.62409 4.55933H4.66089V3.67353H5.95949C6.09709 3.67353 6.16589 3.60903 6.16589 3.48863V3.46283C6.16589 3.34673 6.09709 3.28223 5.95949 3.28223H4.45879C4.31689 3.28223 4.22229 3.38113 4.22229 3.53163V5.84933Z"/>
<path d="M7.36866 3.94443C7.10636 3.94443 6.93436 4.08203 6.84406 4.33573C6.84406 4.27553 6.83546 4.22393 6.82686 4.18093C6.78386 4.01753 6.67636 3.97453 6.57746 3.97453C6.49146 3.97453 6.42266 4.00893 6.42266 4.02183V5.87943C6.42266 6.03423 6.50006 6.08153 6.61186 6.08153H6.65916C6.76666 6.08153 6.84836 6.03423 6.84836 5.87943V5.15273C6.84836 4.67543 6.98166 4.34863 7.31706 4.34863C7.43316 4.34863 7.51486 4.38733 7.57936 4.43893C7.58796 4.44753 7.70836 4.38303 7.70836 4.21963C7.70836 4.04763 7.58366 3.94443 7.36866 3.94443Z"/>
<path d="M7.66768 5.04093C7.66768 5.68593 8.10628 6.12023 8.75988 6.12023C9.04368 6.12023 9.26298 6.04713 9.41348 5.95253C9.56398 5.85793 9.64138 5.74183 9.64138 5.65153C9.64138 5.47093 9.42638 5.43223 9.41778 5.44083C9.31028 5.62573 9.12968 5.78483 8.76848 5.78483C8.40298 5.78483 8.13208 5.56123 8.07188 5.22153C8.06758 5.19573 8.06328 5.16993 8.06328 5.14413H9.58978C9.68868 5.14413 9.71878 5.10973 9.71878 5.01943V4.98503C9.71878 4.36583 9.32318 3.94443 8.72548 3.94443C8.11488 3.94443 7.66768 4.41313 7.66768 5.04093ZM9.30598 4.85603H8.06758C8.11918 4.51203 8.38148 4.26693 8.72118 4.26693C9.06518 4.26693 9.28448 4.49913 9.30598 4.85603Z"/>
<path d="M9.88985 5.04093C9.88985 5.68593 10.3285 6.12023 10.9821 6.12023C11.2659 6.12023 11.4852 6.04713 11.6357 5.95253C11.7862 5.85793 11.8636 5.74183 11.8636 5.65153C11.8636 5.47093 11.6486 5.43223 11.64 5.44083C11.5325 5.62573 11.3519 5.78483 10.9907 5.78483C10.6252 5.78483 10.3543 5.56123 10.2941 5.22153C10.2898 5.19573 10.2855 5.16993 10.2855 5.14413H11.812C11.9109 5.14413 11.941 5.10973 11.941 5.01943V4.98503C11.941 4.36583 11.5454 3.94443 10.9477 3.94443C10.3371 3.94443 9.88985 4.41313 9.88985 5.04093ZM11.5282 4.85603H10.2898C10.3414 4.51203 10.6037 4.26693 10.9434 4.26693C11.2874 4.26693 11.5067 4.49913 11.5282 4.85603Z"/>
</mask>
<path d="M4.66949 4.93343V3.43343C3.84106 3.43343 3.16949 4.105 3.16949 4.93343H4.66949ZM4.66089 4.55933H3.16089C3.16089 5.38775 3.83246 6.05933 4.66089 6.05933V4.55933ZM4.66089 3.67353V2.17353C3.83246 2.17353 3.16089 2.8451 3.16089 3.67353H4.66089ZM6.84406 4.33573H5.34406C5.34406 5.06568 5.86953 5.68966 6.58884 5.81386C7.30815 5.93805 8.01244 5.52641 8.25721 4.83871L6.84406 4.33573ZM6.82686 4.18093L8.29773 3.88675C8.29185 3.85737 8.28509 3.82817 8.27747 3.79919L6.82686 4.18093ZM7.57936 4.43893L8.64002 3.37827C8.60088 3.33913 8.55961 3.3022 8.5164 3.26762L7.57936 4.43893ZM9.41778 5.44083L8.35713 4.38016C8.26551 4.47178 8.18615 4.57488 8.12102 4.6869L9.41778 5.44083ZM8.07188 5.22153L6.59229 5.46813C6.59313 5.47318 6.594 5.47823 6.5949 5.48327L8.07188 5.22153ZM8.06328 5.14413V3.64413C7.23486 3.64413 6.56328 4.3157 6.56328 5.14413H8.06328ZM9.30598 4.85603V6.35603C9.71947 6.35603 10.1146 6.18534 10.3981 5.8843C10.6815 5.58326 10.8281 5.17857 10.8033 4.76583L9.30598 4.85603ZM8.06758 4.85603L6.58418 4.63352C6.5194 5.06535 6.64602 5.50398 6.93097 5.83486C7.21592 6.16574 7.63091 6.35603 8.06758 6.35603V4.85603ZM11.64 5.44083L10.5793 4.38016C10.4877 4.47178 10.4083 4.57488 10.3432 4.6869L11.64 5.44083ZM10.2941 5.22153L8.81446 5.46813C8.8153 5.47318 8.81617 5.47823 8.81706 5.48327L10.2941 5.22153ZM10.2855 5.14413V3.64413C9.45702 3.64413 8.78545 4.3157 8.78545 5.14413H10.2855ZM11.5282 4.85603V6.35603C11.9416 6.35603 12.3368 6.18534 12.6202 5.8843C12.9037 5.58326 13.0503 5.17857 13.0254 4.76583L11.5282 4.85603ZM10.2898 4.85603L8.80635 4.63352C8.74157 5.06535 8.86819 5.50398 9.15314 5.83486C9.43809 6.16574 9.85308 6.35603 10.2898 6.35603V4.85603ZM2.72229 5.84933C2.72229 6.10733 2.77313 6.54967 3.09515 6.95498C3.46236 7.41715 3.97922 7.58153 4.40719 7.58153V4.58153C4.71476 4.58153 5.13917 4.70505 5.44403 5.08875C5.7037 5.41558 5.72229 5.74182 5.72229 5.84933H2.72229ZM4.40719 7.58153H4.47599V4.58153H4.40719V7.58153ZM4.47599 7.58153C4.79708 7.58153 5.30093 7.49165 5.70732 7.06495C6.10099 6.65159 6.16949 6.16536 6.16949 5.87943H3.16949C3.16949 5.72679 3.20574 5.34161 3.53491 4.99598C3.8768 4.637 4.2839 4.58153 4.47599 4.58153V7.58153ZM6.16949 5.87943V4.93343H3.16949V5.87943H6.16949ZM4.66949 6.43343H5.62409V3.43343H4.66949V6.43343ZM5.62409 6.43343C5.87856 6.43343 6.34957 6.38209 6.76665 6.01714C7.22199 5.61872 7.33049 5.10018 7.33049 4.75283H4.33049C4.33049 4.52587 4.40459 4.09764 4.79113 3.75941C5.13942 3.45466 5.50722 3.43343 5.62409 3.43343V6.43343ZM7.33049 4.75283V4.73563H4.33049V4.75283H7.33049ZM7.33049 4.73563C7.33049 4.38967 7.22178 3.87975 6.77705 3.48444C6.36433 3.11758 5.89365 3.05933 5.62409 3.05933V6.05933C5.49643 6.05933 5.12895 6.03332 4.78396 5.72667C4.40695 5.39155 4.33049 4.96978 4.33049 4.73563H7.33049ZM5.62409 3.05933H4.66089V6.05933H5.62409V3.05933ZM6.16089 4.55933V3.67353H3.16089V4.55933H6.16089ZM4.66089 5.17353H5.95949V2.17353H4.66089V5.17353ZM5.95949 5.17353C6.2371 5.17353 6.71026 5.11045 7.12157 4.73771C7.55915 4.34115 7.66589 3.83432 7.66589 3.48863H4.66589C4.66589 3.26333 4.73823 2.84895 5.10701 2.51475C5.44952 2.20435 5.81948 2.17353 5.95949 2.17353V5.17353ZM7.66589 3.48863V3.46283H4.66589V3.48863H7.66589ZM7.66589 3.46283C7.66589 3.10378 7.54982 2.59884 7.11192 2.20884C6.70385 1.8454 6.23762 1.78223 5.95949 1.78223V4.78223C5.81896 4.78223 5.45593 4.7513 5.11666 4.44914C4.74756 4.12041 4.66589 3.70577 4.66589 3.46283H7.66589ZM5.95949 1.78223H4.45879V4.78223H5.95949V1.78223ZM4.45879 1.78223C4.02603 1.78223 3.55692 1.94173 3.20016 2.31701C2.84988 2.68549 2.72229 3.14043 2.72229 3.53163H5.72229C5.72229 3.77232 5.642 4.10256 5.37449 4.38397C5.10051 4.67218 4.74965 4.78223 4.45879 4.78223V1.78223ZM2.72229 3.53163V5.84933H5.72229V3.53163H2.72229ZM7.36866 2.44443C6.96284 2.44443 6.52199 2.55629 6.13479 2.85027C5.75906 3.13555 5.54714 3.50616 5.4309 3.83274L8.25721 4.83871C8.23127 4.91159 8.1505 5.08655 7.94892 5.23961C7.73587 5.40137 7.51217 5.44443 7.36866 5.44443V2.44443ZM8.34406 4.33573C8.34406 4.13187 8.31428 3.9695 8.29773 3.88675L5.35599 4.4751C5.35663 4.47835 5.34406 4.41918 5.34406 4.33573H8.34406ZM8.27747 3.79919C8.18229 3.43753 7.96815 3.05652 7.58232 2.78691C7.21544 2.53053 6.83554 2.47453 6.57746 2.47453V5.47453C6.41828 5.47453 6.14157 5.44002 5.86392 5.246C5.56732 5.03873 5.42842 4.76092 5.37624 4.56267L8.27747 3.79919ZM6.57746 2.47453C6.34381 2.47453 6.13117 2.51935 5.95302 2.58444C5.8681 2.61547 5.74843 2.66652 5.62032 2.74935C5.56109 2.78764 5.44951 2.86488 5.33398 2.98752C5.27755 3.04741 4.92266 3.41583 4.92266 4.02183H7.92266C7.92266 4.3501 7.816 4.59891 7.73974 4.73846C7.66096 4.88263 7.57419 4.98458 7.51758 5.04466C7.40614 5.16295 7.30061 5.23538 7.24918 5.26864C7.13666 5.34139 7.03956 5.38142 6.98259 5.40224C6.86034 5.44691 6.7251 5.47453 6.57746 5.47453V2.47453ZM4.92266 4.02183V5.87943H7.92266V4.02183H4.92266ZM4.92266 5.87943C4.92266 6.1858 5.00065 6.71302 5.4506 7.13393C5.88223 7.53772 6.38075 7.58153 6.61186 7.58153V4.58153C6.73117 4.58153 7.13509 4.60169 7.50007 4.94312C7.88336 5.30168 7.92266 5.72785 7.92266 5.87943H4.92266ZM6.61186 7.58153H6.65916V4.58153H6.61186V7.58153ZM6.65916 7.58153C6.90071 7.58153 7.38625 7.53222 7.81003 7.14207C8.25712 6.73047 8.34836 6.20875 8.34836 5.87943H5.34836C5.34836 5.7049 5.39874 5.28423 5.7781 4.93498C6.13416 4.60718 6.5251 4.58153 6.65916 4.58153V7.58153ZM8.34836 5.87943V5.15273H5.34836V5.87943H8.34836ZM8.34836 5.15273C8.34836 5.00831 8.37606 5.09799 8.28102 5.27653C8.22296 5.38559 8.10917 5.54396 7.90957 5.67141C7.70287 5.80339 7.48774 5.84863 7.31706 5.84863V2.84863C6.97868 2.84863 6.6211 2.93472 6.29508 3.14289C5.97615 3.34652 5.76615 3.61643 5.63284 3.86685C5.3873 4.32812 5.34836 4.81984 5.34836 5.15273H8.34836ZM7.31706 5.84863C7.20303 5.84863 7.07343 5.82863 6.94087 5.77892C6.81023 5.72993 6.71054 5.66481 6.64231 5.61023L8.5164 3.26762C8.22243 3.03244 7.81773 2.84863 7.31706 2.84863V5.84863ZM6.5187 5.49959C6.97324 5.95413 7.51692 5.94225 7.62639 5.93903C7.81253 5.93354 7.95623 5.89447 8.02644 5.87297C8.17945 5.82614 8.29613 5.76412 8.3667 5.72238C8.52057 5.63138 8.65787 5.5159 8.77383 5.38395C9.02252 5.10096 9.20836 4.69925 9.20836 4.21963H6.20836C6.20836 3.90341 6.334 3.61564 6.52033 3.4036C6.60512 3.30713 6.7107 3.21637 6.83958 3.14015C6.89766 3.10581 7.00352 3.04869 7.1483 3.00437C7.21439 2.98414 7.35463 2.94573 7.53806 2.94033C7.64481 2.93718 8.18655 2.9248 8.64002 3.37827L6.5187 5.49959ZM9.20836 4.21963C9.20836 3.74022 9.01659 3.2213 8.56664 2.85467C8.15734 2.52117 7.69539 2.44443 7.36866 2.44443V5.44443C7.25692 5.44443 6.96483 5.41929 6.67162 5.18038C6.33777 4.90835 6.20836 4.52704 6.20836 4.21963H9.20836ZM6.16768 5.04093C6.16768 5.71262 6.40301 6.38381 6.91403 6.88909C7.42365 7.39298 8.09421 7.62023 8.75988 7.62023V4.62023C8.77196 4.62023 8.89641 4.63032 9.02333 4.75582C9.15165 4.88269 9.16768 5.01423 9.16768 5.04093H6.16768ZM8.75988 7.62023C9.30189 7.62023 9.8024 7.47978 10.2117 7.22248L8.61523 4.68257C8.72356 4.61447 8.78547 4.62023 8.75988 4.62023V7.62023ZM10.2117 7.22248C10.5256 7.02518 11.1414 6.51383 11.1414 5.65153H8.14138C8.14138 5.28068 8.29057 5.02771 8.37347 4.91445C8.46657 4.78725 8.5604 4.71703 8.61523 4.68257L10.2117 7.22248ZM11.1414 5.65153C11.1414 4.83894 10.6138 4.36438 10.2743 4.17129C10.1086 4.07711 9.94801 4.02086 9.81368 3.98791C9.74789 3.97177 9.66138 3.95455 9.56094 3.94574C9.51593 3.94179 9.42686 3.93568 9.31583 3.94353C9.26258 3.9473 9.16091 3.95705 9.03733 3.98958C8.95856 4.01031 8.64285 4.09444 8.35713 4.38016L10.4784 6.50149C10.1933 6.78667 9.87848 6.87036 9.80103 6.89074C9.67877 6.92293 9.5788 6.93243 9.5276 6.93605C9.42066 6.94362 9.33709 6.93763 9.29878 6.93427C9.21174 6.92663 9.14344 6.91244 9.09901 6.90154C9.00742 6.87907 8.90216 6.84217 8.79135 6.77916C8.56144 6.64842 8.14138 6.28351 8.14138 5.65153H11.1414ZM8.12102 4.6869C8.15831 4.62277 8.2472 4.49856 8.41067 4.39946C8.5779 4.29808 8.72097 4.28483 8.76848 4.28483V7.28483C9.1772 7.28483 9.59117 7.19202 9.96587 6.96487C10.3368 6.74 10.5698 6.44379 10.7145 6.19476L8.12102 4.6869ZM8.76848 4.28483C8.89685 4.28483 9.08065 4.32736 9.25217 4.46687C9.42578 4.60807 9.51963 4.7948 9.54887 4.95978L6.5949 5.48327C6.78875 6.57717 7.71472 7.28483 8.76848 7.28483V4.28483ZM9.55147 4.97493C9.54846 4.95685 9.55157 4.9742 9.55439 4.99677C9.55763 5.02269 9.56328 5.07538 9.56328 5.14413H6.56328C6.56328 5.31521 6.59167 5.4644 6.59229 5.46813L9.55147 4.97493ZM8.06328 6.64413H9.58978V3.64413H8.06328V6.64413ZM9.58978 6.64413C9.73372 6.64413 10.2916 6.63671 10.752 6.1763C11.2153 5.71307 11.2188 5.15167 11.2188 5.01943H8.21878C8.21878 4.97748 8.20726 4.47843 8.63071 4.05498C9.05134 3.63434 9.54474 3.64413 9.58978 3.64413V6.64413ZM11.2188 5.01943V4.98503H8.21878V5.01943H11.2188ZM11.2188 4.98503C11.2188 4.35411 11.0128 3.7036 10.5338 3.1994C10.0479 2.68795 9.39128 2.44443 8.72548 2.44443V5.44443C8.65738 5.44443 8.49743 5.4116 8.35877 5.26565C8.22701 5.12695 8.21878 4.99675 8.21878 4.98503H11.2188ZM8.72548 2.44443C7.23155 2.44443 6.16768 3.64069 6.16768 5.04093H9.16768C9.16768 5.08905 9.14666 5.1952 9.04886 5.29691C8.94765 5.40217 8.81869 5.44443 8.72548 5.44443V2.44443ZM9.30598 3.35603H8.06758V6.35603H9.30598V3.35603ZM9.55099 5.07854C9.52894 5.22554 9.45298 5.39882 9.29639 5.54144C9.13515 5.6883 8.92565 5.76693 8.72118 5.76693V2.76693C7.56682 2.76693 6.73486 3.62895 6.58418 4.63352L9.55099 5.07854ZM8.72118 5.76693C8.53885 5.76693 8.27687 5.69577 8.0627 5.47702C7.86087 5.27087 7.81498 5.05048 7.8087 4.94622L10.8033 4.76583C10.7755 4.30468 10.6092 3.78973 10.2063 3.37826C9.79114 2.95418 9.24752 2.76693 8.72118 2.76693V5.76693ZM8.38985 5.04093C8.38985 5.71262 8.62518 6.38381 9.1362 6.88909C9.64582 7.39298 10.3164 7.62023 10.9821 7.62023V4.62023C10.9941 4.62023 11.1186 4.63032 11.2455 4.75582C11.3738 4.88269 11.3899 5.01423 11.3899 5.04093H8.38985ZM10.9821 7.62023C11.5241 7.62023 12.0246 7.47978 12.4339 7.22248L10.8374 4.68257C10.9457 4.61447 11.0076 4.62023 10.9821 4.62023V7.62023ZM12.4339 7.22248C12.7478 7.02518 13.3636 6.51383 13.3636 5.65153H10.3636C10.3636 5.28068 10.5127 5.02771 10.5956 4.91445C10.6887 4.78725 10.7826 4.71703 10.8374 4.68257L12.4339 7.22248ZM13.3636 5.65153C13.3636 4.83894 12.836 4.36438 12.4964 4.17129C12.3308 4.07711 12.1702 4.02086 12.0359 3.98791C11.9701 3.97177 11.8835 3.95455 11.7831 3.94574C11.7381 3.94179 11.649 3.93568 11.538 3.94353C11.4847 3.9473 11.3831 3.95705 11.2595 3.98958C11.1807 4.01031 10.865 4.09444 10.5793 4.38016L12.7006 6.50149C12.4154 6.78667 12.1007 6.87036 12.0232 6.89074C11.9009 6.92293 11.801 6.93243 11.7498 6.93605C11.6428 6.94362 11.5593 6.93763 11.521 6.93427C11.4339 6.92663 11.3656 6.91244 11.3212 6.90154C11.2296 6.87907 11.1243 6.84217 11.0135 6.77916C10.7836 6.64842 10.3636 6.28351 10.3636 5.65153H13.3636ZM10.3432 4.6869C10.3805 4.62277 10.4694 4.49856 10.6328 4.39946C10.8001 4.29808 10.9431 4.28483 10.9907 4.28483V7.28483C11.3994 7.28483 11.8133 7.19202 12.188 6.96487C12.559 6.74 12.7919 6.44379 12.9367 6.19476L10.3432 4.6869ZM10.9907 4.28483C11.119 4.28483 11.3028 4.32736 11.4743 4.46687C11.6479 4.60807 11.7418 4.7948 11.771 4.95978L8.81706 5.48327C9.01092 6.57717 9.93688 7.28483 10.9907 7.28483V4.28483ZM11.7736 4.97493C11.7706 4.95686 11.7737 4.97421 11.7766 4.99678C11.7798 5.0227 11.7855 5.07538 11.7855 5.14413H8.78545C8.78545 5.3152 8.81383 5.46437 8.81446 5.46813L11.7736 4.97493ZM10.2855 6.64413H11.812V3.64413H10.2855V6.64413ZM11.812 6.64413C11.9559 6.64413 12.5138 6.63671 12.9742 6.1763C13.4374 5.71307 13.441 5.15167 13.441 5.01943H10.441C10.441 4.97748 10.4294 4.47843 10.8529 4.05498C11.2735 3.63434 11.7669 3.64413 11.812 3.64413V6.64413ZM13.441 5.01943V4.98503H10.441V5.01943H13.441ZM13.441 4.98503C13.441 4.35411 13.2349 3.7036 12.7559 3.1994C12.2701 2.68795 11.6135 2.44443 10.9477 2.44443V5.44443C10.8796 5.44443 10.7196 5.4116 10.5809 5.26565C10.4492 5.12695 10.441 4.99675 10.441 4.98503H13.441ZM10.9477 2.44443C9.45372 2.44443 8.38985 3.64069 8.38985 5.04093H11.3899C11.3899 5.08905 11.3688 5.1952 11.271 5.29692C11.1698 5.40217 11.0409 5.44443 10.9477 5.44443V2.44443ZM11.5282 3.35603H10.2898V6.35603H11.5282V3.35603ZM11.7732 5.07854C11.7511 5.22554 11.6751 5.39882 11.5186 5.54144C11.3573 5.6883 11.1478 5.76693 10.9434 5.76693V2.76693C9.78899 2.76693 8.95703 3.62895 8.80635 4.63352L11.7732 5.07854ZM10.9434 5.76693C10.761 5.76693 10.499 5.69577 10.2849 5.47702C10.083 5.27087 10.0371 5.05048 10.0309 4.94622L13.0254 4.76583C12.9977 4.30468 12.8314 3.78973 12.4285 3.37826C12.0133 2.95418 11.4697 2.76693 10.9434 2.76693V5.76693Z" fill="black" mask="url(#path-2-inside-1_55192_13316)"/>
</g>
</g>
</svg>
