<svg width="16" height="16" viewBox="0 0 16 16" fill="none" xmlns="http://www.w3.org/2000/svg">
<g id="Other=sad, Size=16px, weight=regular">
<path id="sad" d="M10.5577 10.3502C10.0523 9.47649 9.10767 8.88866 8.02572 8.88866C6.92517 8.88866 5.96668 9.49687 5.46803 10.3955M6.61868 6.5769C6.61868 6.71497 6.50675 6.8269 6.36868 6.8269C6.23061 6.8269 6.11868 6.71497 6.11868 6.5769C6.11868 6.43883 6.23061 6.3269 6.36868 6.3269C6.50675 6.3269 6.61868 6.43883 6.61868 6.5769ZM9.90707 6.5769C9.90707 6.71497 9.79514 6.8269 9.65707 6.8269C9.519 6.8269 9.40707 6.71497 9.40707 6.5769C9.40707 6.43883 9.519 6.3269 9.65707 6.3269C9.79514 6.3269 9.90707 6.43883 9.90707 6.5769ZM12.75 8C12.75 10.6234 10.6234 12.75 8 12.75C5.37665 12.75 3.25 10.6234 3.25 8C3.25 5.37665 5.37665 3.25 8 3.25C10.6234 3.25 12.75 5.37665 12.75 8Z" stroke="black" stroke-width="1.5" stroke-linecap="round" stroke-linejoin="round"/>
</g>
</svg>
