<svg width="16" height="16" viewBox="0 0 16 16" fill="none" xmlns="http://www.w3.org/2000/svg">
<g id="Other=live-casino, Size=16px, stroke width=1.5px">
<path id="Vector" d="M6.09412 4.25893C6.17505 4.93203 6.49956 5.82718 6.95716 6.43099M6.09412 4.25893C6.31138 3.2505 7.9528 3.46965 8.60588 3.24566C8.73133 3.20264 8.81843 3.11143 8.87905 2.99766M6.09412 4.25893C6.09396 4.2599 6.09364 4.26087 6.09347 4.26183C6.07869 4.14565 6.07089 4.03575 6.07089 3.93487C6.07089 2.87197 6.57691 1.99841 7.98432 2.00018C8.3506 2.00067 8.91464 1.9802 9.00515 2.25479M6.95716 6.43099L7.6941 6.75956M6.95716 6.43099L6.84374 6.38038C6.81497 6.36765 6.78247 6.38844 6.78247 6.41986L6.78238 7.6038M7.6941 6.75956C7.72253 6.72507 7.76592 6.70316 7.81435 6.70316H8.1855C8.23392 6.70316 8.27731 6.72507 8.30591 6.75956M7.6941 6.75956C7.672 6.78615 7.65884 6.82014 7.65884 6.85737V7.16612C7.65884 7.20334 7.672 7.23734 7.6941 7.26393M8.30591 6.75956L9.04268 6.43099M8.30591 6.75956C8.32801 6.78615 8.34116 6.82015 8.34116 6.85737V7.16612C8.34116 7.20335 8.328 7.23735 8.3059 7.26394M9.04268 6.43099C9.53782 5.77787 9.87696 4.7841 9.92051 4.09908M9.04268 6.43099L9.1562 6.3803C9.18496 6.36757 9.21746 6.38836 9.21746 6.41978L9.21744 7.6038M9.92051 4.09908C9.52076 3.87412 8.98256 3.36507 8.87905 2.99766M9.92051 4.09908C9.92181 4.09972 9.92295 4.10052 9.92425 4.10117C9.9262 4.06346 9.92718 4.02656 9.92718 3.99094C10.0365 3.34331 9.3659 2.12604 9.00515 2.25479M8.87905 2.99766C8.98158 2.80526 9.00872 2.54807 9.01734 2.34954C9.01799 2.33585 9.01766 2.32263 9.01652 2.31006C9.01474 2.2904 9.011 2.27187 9.00515 2.25479M3.8902 9.5119C4.84863 9.2075 6.03455 9.00736 7.33374 8.95612C7.5536 8.94677 7.77542 8.94307 7.99902 8.94307C9.55853 8.94307 10.9895 9.15642 12.1095 9.51223M3.8902 9.5119C3.85283 9.3983 3.89865 9.26326 3.94513 9.14675C4.03532 8.92647 4.12599 8.70683 4.2191 8.48832C4.34114 8.20068 4.46789 7.91111 4.6598 7.66439C4.66387 7.65924 4.66793 7.65408 4.67199 7.64876C4.67605 7.64425 4.68012 7.63958 4.68418 7.63442C5.10635 7.11892 5.78837 6.89526 6.41058 6.7217C6.53343 6.68738 6.65742 6.65628 6.78238 6.6284V7.6038M3.8902 9.5119C2.43144 9.97535 1.5 10.6808 1.5 11.4717C1.5 12.3716 2.7077 13.1609 4.52689 13.6083V13.61C5.53146 13.8577 6.72047 14 7.99902 14C9.27757 14 10.4685 13.8577 11.4731 13.61V13.6083C13.2923 13.1609 14.5 12.3716 14.5 11.4717C14.5 10.6811 13.5687 9.97568 12.1095 9.51223M12.1095 9.51223C12.147 9.39846 12.1013 9.26342 12.0547 9.14675C11.9645 8.92647 11.8738 8.70683 11.7807 8.48832C11.6587 8.20068 11.5319 7.91111 11.3394 7.66439C11.336 7.65924 11.3319 7.65408 11.3278 7.64876C11.3238 7.64425 11.3191 7.63958 11.3156 7.63442C10.8935 7.11892 10.2115 6.89526 9.58924 6.7217C9.46639 6.68738 9.3424 6.65628 9.21744 6.6284V7.6038M9.21744 7.6038C9.21744 7.63507 9.18494 7.65585 9.15618 7.64312L8.77268 7.47215M8.77268 7.47215C8.63748 7.91868 8.42802 8.33282 8.14445 8.71441C8.10025 8.77483 8.05362 8.8343 8.00535 8.89247C8.00373 8.89489 8.00129 8.89714 7.99967 8.8994C7.64217 8.46737 7.38444 7.99152 7.22698 7.47215M8.77268 7.47215L8.3059 7.26394M7.22698 7.47215L6.84364 7.64312C6.81488 7.65585 6.78238 7.63507 6.78238 7.6038M7.22698 7.47215L7.6941 7.26393M7.6941 7.26393C7.72254 7.29842 7.76591 7.3205 7.81434 7.3205H8.18549C8.23391 7.3205 8.2773 7.29842 8.3059 7.26394M9.76987 12.3376L10.9062 12.9891C10.921 12.9973 10.9389 12.9973 10.9536 12.9891C10.9617 12.9844 10.9667 12.9778 10.9715 12.9714L12.0443 11.1283C12.0574 11.1056 12.0493 11.0766 12.0264 11.0636L10.8901 10.4121C10.8671 10.3991 10.8379 10.4074 10.8248 10.4298L9.76012 12.2584L9.75199 12.2729C9.73891 12.2956 9.7472 12.3246 9.76987 12.3376ZM8.1525 11.8768C8.1525 11.8995 8.16884 11.919 8.19175 11.9238L9.4846 12.1502C9.50418 12.1534 9.52368 12.1438 9.53351 12.1275C9.53676 12.1227 9.53847 12.1177 9.54001 12.1113L9.91335 10.016C9.9166 9.99007 9.90044 9.96429 9.87427 9.95938L8.58142 9.73466C8.55526 9.72991 8.52926 9.74763 8.52601 9.77342L8.15259 11.8672L8.1525 11.8768ZM6.46673 12.1275C6.47656 12.1437 6.49598 12.1534 6.51565 12.1502L7.8085 11.9238C7.83141 11.919 7.84774 11.8995 7.84774 11.8768V11.8672L7.47431 9.77341C7.46952 9.75085 7.44986 9.73466 7.42695 9.73466H7.41882L6.12597 9.95937C6.09981 9.96429 6.08193 9.99007 6.08673 10.016L6.46015 12.1113C6.4617 12.1177 6.46348 12.1227 6.46673 12.1275ZM3.95594 11.1283L5.02877 12.9714C5.03202 12.9778 5.0386 12.9844 5.04664 12.9891C5.06127 12.9973 5.07922 12.9973 5.09401 12.9891L6.23037 12.3376C6.25312 12.3246 6.26133 12.2956 6.24825 12.2729L6.24012 12.2584L5.17542 10.4298C5.16234 10.4073 5.13309 10.3991 5.11018 10.4121L3.97382 11.0636C3.9509 11.0766 3.94286 11.1056 3.95594 11.1283Z" stroke="black" stroke-width="1.5" stroke-linecap="round" stroke-linejoin="round"/>
</g>
</svg>
