<svg width="16" height="16" viewBox="0 0 16 16" fill="none" xmlns="http://www.w3.org/2000/svg">
<g id="Other=freebet, Size=16px, weight=light">
<path id="betslip" d="M13.75 11.1875C13.75 11.7743 13.3568 12.25 12.8718 12.25L3.78125 12.25M12.8718 3.75C13.3568 3.75 13.75 4.2257 13.75 4.8125L13.75 5.18392C13.75 5.38029 13.5842 5.53286 13.4045 5.61194C13.093 5.74896 12.875 6.06555 12.875 6.43421C12.875 6.80288 13.093 7.11946 13.4045 7.25648C13.5842 7.33556 13.75 7.48813 13.75 7.6845L13.75 8.3155C13.75 8.51186 13.5842 8.66444 13.4045 8.74352C13.093 8.88054 12.875 9.19712 12.875 9.56579C12.875 9.93445 13.093 10.251 13.4045 10.3881C13.5842 10.4671 13.75 10.6197 13.75 10.8161L13.75 11.1316M2.25 11.1875C2.25 11.7743 2.64318 12.25 3.12818 12.25L3.99682 12.25M3.12818 3.75C2.64318 3.75 2.25 4.2257 2.25 4.8125L2.25 5.18392C2.25 5.38029 2.41579 5.53286 2.59553 5.61194C2.90695 5.74896 3.125 6.06555 3.125 6.43421C3.125 6.80288 2.90695 7.11946 2.59553 7.25648C2.41579 7.33556 2.25 7.48814 2.25 7.6845L2.25 8.3155C2.25 8.51187 2.41579 8.66444 2.59553 8.74352C2.90695 8.88054 3.125 9.19712 3.125 9.56579C3.125 9.93445 2.90695 10.251 2.59553 10.3881C2.41579 10.4671 2.25 10.6197 2.25 10.8161L2.25 11.1316M10.8594 11.9145L10.8594 11.2434M10.8594 10.125L10.8594 9.45395M10.8594 8.33551L10.8594 7.66446" stroke="black" stroke-linecap="round" stroke-linejoin="round"/>
<g id="Free">
<mask id="path-2-inside-1_7195_187" fill="white">
<path d="M4.22266 5.84933C4.22266 5.99983 4.28716 6.08153 4.40756 6.08153H4.47636C4.60536 6.08153 4.66986 6.01273 4.66986 5.87943V4.93343H5.62446C5.76206 4.93343 5.83086 4.87323 5.83086 4.75283V4.73563C5.83086 4.62383 5.76636 4.55933 5.62446 4.55933H4.66126V3.67353H5.95986C6.09746 3.67353 6.16626 3.60903 6.16626 3.48863V3.46283C6.16626 3.34673 6.09746 3.28223 5.95986 3.28223H4.45916C4.31726 3.28223 4.22266 3.38113 4.22266 3.53163V5.84933Z"/>
<path d="M7.36902 3.94443C7.10672 3.94443 6.93472 4.08203 6.84442 4.33573C6.84442 4.27553 6.83582 4.22393 6.82722 4.18093C6.78422 4.01753 6.67672 3.97453 6.57782 3.97453C6.49182 3.97453 6.42302 4.00893 6.42302 4.02183V5.87943C6.42302 6.03423 6.50042 6.08153 6.61222 6.08153H6.65952C6.76702 6.08153 6.84872 6.03423 6.84872 5.87943V5.15273C6.84872 4.67543 6.98202 4.34863 7.31742 4.34863C7.43352 4.34863 7.51522 4.38733 7.57972 4.43893C7.58832 4.44753 7.70872 4.38303 7.70872 4.21963C7.70872 4.04763 7.58402 3.94443 7.36902 3.94443Z"/>
<path d="M7.66805 5.04093C7.66805 5.68593 8.10665 6.12023 8.76025 6.12023C9.04405 6.12023 9.26335 6.04713 9.41385 5.95253C9.56435 5.85793 9.64175 5.74183 9.64175 5.65153C9.64175 5.47093 9.42675 5.43223 9.41815 5.44083C9.31065 5.62573 9.13005 5.78483 8.76885 5.78483C8.40335 5.78483 8.13245 5.56123 8.07225 5.22153C8.06795 5.19573 8.06365 5.16993 8.06365 5.14413H9.59015C9.68905 5.14413 9.71915 5.10973 9.71915 5.01943V4.98503C9.71915 4.36583 9.32355 3.94443 8.72585 3.94443C8.11525 3.94443 7.66805 4.41313 7.66805 5.04093ZM9.30635 4.85603H8.06795C8.11955 4.51203 8.38185 4.26693 8.72155 4.26693C9.06555 4.26693 9.28485 4.49913 9.30635 4.85603Z"/>
<path d="M9.89022 5.04093C9.89022 5.68593 10.3288 6.12023 10.9824 6.12023C11.2662 6.12023 11.4855 6.04713 11.636 5.95253C11.7865 5.85793 11.8639 5.74183 11.8639 5.65153C11.8639 5.47093 11.6489 5.43223 11.6403 5.44083C11.5328 5.62573 11.3522 5.78483 10.991 5.78483C10.6255 5.78483 10.3546 5.56123 10.2944 5.22153C10.2901 5.19573 10.2858 5.16993 10.2858 5.14413H11.8123C11.9112 5.14413 11.9413 5.10973 11.9413 5.01943V4.98503C11.9413 4.36583 11.5457 3.94443 10.948 3.94443C10.3374 3.94443 9.89022 4.41313 9.89022 5.04093ZM11.5285 4.85603H10.2901C10.3417 4.51203 10.604 4.26693 10.9437 4.26693C11.2877 4.26693 11.507 4.49913 11.5285 4.85603Z"/>
</mask>
<path d="M4.66986 4.93343V3.93343C4.11757 3.93343 3.66986 4.38114 3.66986 4.93343H4.66986ZM4.66126 4.55933H3.66126C3.66126 5.11161 4.10897 5.55933 4.66126 5.55933V4.55933ZM4.66126 3.67353V2.67353C4.10897 2.67353 3.66126 3.12124 3.66126 3.67353H4.66126ZM6.84442 4.33573H5.84442C5.84442 4.82236 6.19474 5.23835 6.67428 5.32115C7.15382 5.40394 7.62334 5.12951 7.78652 4.67105L6.84442 4.33573ZM6.82722 4.18093L7.8078 3.98481C7.80388 3.96522 7.79938 3.94575 7.7943 3.92643L6.82722 4.18093ZM7.57972 4.43893L8.28683 3.73182C8.26074 3.70573 8.23323 3.68111 8.20442 3.65806L7.57972 4.43893ZM9.41815 5.44083L8.71105 4.73372C8.64997 4.7948 8.59706 4.86353 8.55364 4.93821L9.41815 5.44083ZM8.07225 5.22153L7.0858 5.38593L7.08759 5.39602L8.07225 5.22153ZM8.06365 5.14413V4.14413C7.51136 4.14413 7.06365 4.59184 7.06365 5.14413H8.06365ZM9.30635 4.85603V5.85603C9.58201 5.85603 9.84544 5.74224 10.0344 5.54154C10.2234 5.34085 10.3211 5.07105 10.3045 4.79589L9.30635 4.85603ZM8.06795 4.85603L7.07901 4.70769C7.03583 4.99558 7.12024 5.288 7.31021 5.50858C7.50018 5.72917 7.77684 5.85603 8.06795 5.85603V4.85603ZM11.6403 5.44083L10.9332 4.73372C10.8721 4.7948 10.8192 4.86353 10.7758 4.93821L11.6403 5.44083ZM10.2944 5.22153L9.30797 5.38593L9.30976 5.39602L10.2944 5.22153ZM10.2858 5.14413V4.14413C9.73353 4.14413 9.28582 4.59184 9.28582 5.14413H10.2858ZM11.5285 4.85603V5.85603C11.8042 5.85603 12.0676 5.74224 12.2566 5.54154C12.4455 5.34085 12.5433 5.07105 12.5267 4.79589L11.5285 4.85603ZM10.2901 4.85603L9.30118 4.70769C9.258 4.99558 9.34241 5.288 9.53238 5.50858C9.72234 5.72917 9.99901 5.85603 10.2901 5.85603V4.85603ZM3.22266 5.84933C3.22266 6.04641 3.26192 6.36066 3.487 6.64394C3.74219 6.96513 4.10218 7.08153 4.40756 7.08153V5.08153C4.59253 5.08153 4.86007 5.15707 5.05291 5.39979C5.21564 5.6046 5.22266 5.80274 5.22266 5.84933H3.22266ZM4.40756 7.08153H4.47636V5.08153H4.40756V7.08153ZM4.47636 7.08153C4.71192 7.08153 5.06394 7.01588 5.34562 6.72012C5.61882 6.43326 5.66986 6.09227 5.66986 5.87943H3.66986C3.66986 5.79989 3.68865 5.55994 3.89734 5.34081C4.11452 5.11277 4.36979 5.08153 4.47636 5.08153V7.08153ZM5.66986 5.87943V4.93343H3.66986V5.87943H5.66986ZM4.66986 5.93343H5.62446V3.93343H4.66986V5.93343ZM5.62446 5.93343C5.81704 5.93343 6.14824 5.89418 6.43776 5.64085C6.75279 5.3652 6.83086 5.00446 6.83086 4.75283H4.83086C4.83086 4.62159 4.87452 4.35115 5.12075 4.1357C5.34147 3.94257 5.56947 3.93343 5.62446 3.93343V5.93343ZM6.83086 4.75283V4.73563H4.83086V4.75283H6.83086ZM6.83086 4.73563C6.83086 4.48636 6.75301 4.13172 6.44523 3.85814C6.1588 3.60354 5.82781 3.55933 5.62446 3.55933V5.55933C5.563 5.55933 5.33521 5.54737 5.1165 5.35296C4.87646 5.13958 4.83086 4.8731 4.83086 4.73563H6.83086ZM5.62446 3.55933H4.66126V5.55933H5.62446V3.55933ZM5.66126 4.55933V3.67353H3.66126V4.55933H5.66126ZM4.66126 4.67353H5.95986V2.67353H4.66126V4.67353ZM5.95986 4.67353C6.16787 4.67353 6.5005 4.6261 6.78618 4.36721C7.08936 4.09245 7.16626 3.73916 7.16626 3.48863H5.16626C5.16626 3.35849 5.20875 3.09765 5.44314 2.88524C5.66001 2.6887 5.88945 2.67353 5.95986 2.67353V4.67353ZM7.16626 3.48863V3.46283H5.16626V3.48863H7.16626ZM7.16626 3.46283C7.16626 3.20411 7.08314 2.85244 6.77974 2.58222C6.49623 2.32972 6.16821 2.28223 5.95986 2.28223V4.28223C5.8891 4.28223 5.66428 4.26699 5.44957 4.07575C5.21497 3.86682 5.16626 3.60544 5.16626 3.46283H7.16626ZM5.95986 2.28223H4.45916V4.28223H5.95986V2.28223ZM4.45916 2.28223C4.147 2.28223 3.81455 2.3968 3.56292 2.6615C3.3156 2.92167 3.22266 3.24575 3.22266 3.53163H5.22266C5.22266 3.667 5.17701 3.86638 5.01247 4.03947C4.84361 4.2171 4.62941 4.28223 4.45916 4.28223V2.28223ZM3.22266 3.53163V5.84933H5.22266V3.53163H3.22266ZM7.36902 2.94443C7.05476 2.94443 6.72467 3.03047 6.43751 3.24849C6.158 3.46072 5.99486 3.7404 5.90232 4.0004L7.78652 4.67105C7.78428 4.67735 7.7523 4.76139 7.64693 4.84139C7.53393 4.92719 7.42098 4.94443 7.36902 4.94443V2.94443ZM7.84442 4.33573C7.84442 4.17976 7.8217 4.05431 7.8078 3.98481L5.84664 4.37704C5.84994 4.39354 5.84442 4.3713 5.84442 4.33573H7.84442ZM7.7943 3.92643C7.72368 3.65809 7.56837 3.38689 7.29628 3.19676C7.03683 3.01545 6.76636 2.97453 6.57782 2.97453V4.97453C6.48819 4.97453 6.32092 4.9551 6.15069 4.83615C5.96782 4.70836 5.88776 4.54036 5.86015 4.43542L7.7943 3.92643ZM6.57782 2.97453C6.40773 2.97453 6.25306 3.00727 6.12498 3.05407C6.06371 3.07646 5.98016 3.11233 5.89217 3.16923C5.85138 3.1956 5.77599 3.24789 5.69828 3.33037C5.65998 3.37103 5.42302 3.61729 5.42302 4.02183H7.42302C7.42302 4.24041 7.352 4.40599 7.30134 4.49869C7.249 4.59449 7.19141 4.66211 7.15402 4.70181C7.08041 4.77994 7.01106 4.82743 6.97807 4.84876C6.90565 4.89558 6.84468 4.92043 6.81136 4.9326C6.73918 4.95898 6.66192 4.97453 6.57782 4.97453V2.97453ZM5.42302 4.02183V5.87943H7.42302V4.02183H5.42302ZM5.42302 5.87943C5.42302 6.10948 5.48147 6.4778 5.79254 6.7688C6.0914 7.04838 6.43952 7.08153 6.61222 7.08153V5.08153C6.67313 5.08153 6.92664 5.09102 7.15885 5.30825C7.40328 5.53691 7.42302 5.80418 7.42302 5.87943H5.42302ZM6.61222 7.08153H6.65952V5.08153H6.61222V7.08153ZM6.65952 7.08153C6.83847 7.08153 7.17793 7.04472 7.47174 6.77422C7.78109 6.48943 7.84872 6.12478 7.84872 5.87943H5.84872C5.84872 5.78888 5.87551 5.52527 6.11713 5.30283C6.34321 5.09469 6.58807 5.08153 6.65952 5.08153V7.08153ZM7.84872 5.87943V5.15273H5.84872V5.87943H7.84872ZM7.84872 5.15273C7.84872 5.07738 7.85418 5.0293 7.85873 5.00425C7.86368 4.97693 7.86399 4.99656 7.84002 5.04158C7.81386 5.09073 7.75403 5.17772 7.64086 5.24999C7.52294 5.32527 7.40326 5.34863 7.31742 5.34863V3.34863C7.06389 3.34863 6.80176 3.41283 6.56453 3.56431C6.33202 3.71276 6.17598 3.91129 6.07457 4.1018C5.8858 4.45643 5.84872 4.85125 5.84872 5.15273H7.84872ZM7.31742 5.34863C7.26075 5.34863 7.19084 5.33852 7.1168 5.31076C7.04403 5.28347 6.98976 5.24758 6.95503 5.2198L8.20442 3.65806C7.98694 3.48407 7.68991 3.34863 7.31742 3.34863V5.34863ZM6.87262 5.14603C7.17582 5.44924 7.5386 5.44141 7.61203 5.43924C7.73658 5.43557 7.83295 5.40941 7.88045 5.39487C7.98383 5.36323 8.06342 5.32107 8.11255 5.29201C8.21929 5.22888 8.31611 5.14777 8.39861 5.05389C8.5748 4.85341 8.70872 4.56661 8.70872 4.21963H6.70872C6.70872 4.03605 6.78245 3.8632 6.89628 3.73366C6.94761 3.67526 7.01271 3.61887 7.09447 3.57053C7.1311 3.54886 7.19987 3.5116 7.29502 3.48247C7.3384 3.4692 7.43131 3.4437 7.55314 3.44011C7.62386 3.43803 7.9847 3.42969 8.28683 3.73182L6.87262 5.14603ZM8.70872 4.21963C8.70872 3.87135 8.57049 3.50248 8.25117 3.24229C7.95895 3.00419 7.62268 2.94443 7.36902 2.94443V4.94443C7.33036 4.94443 7.16394 4.93627 6.98782 4.79276C6.78461 4.62718 6.70872 4.3959 6.70872 4.21963H8.70872ZM6.66805 5.04093C6.66805 5.59622 6.86149 6.13362 7.26595 6.53354C7.66948 6.93254 8.20753 7.12023 8.76025 7.12023V5.12023C8.70775 5.12023 8.67984 5.11161 8.67056 5.10807C8.66208 5.10484 8.66526 5.10454 8.67215 5.11136C8.67912 5.11825 8.68021 5.12284 8.67826 5.11785C8.676 5.11206 8.66805 5.08852 8.66805 5.04093H6.66805ZM8.76025 7.12023C9.21619 7.12023 9.62296 7.00223 9.94602 6.79916L8.88168 5.10589C8.90373 5.09203 8.87191 5.12023 8.76025 5.12023V7.12023ZM9.94602 6.79916C10.2054 6.63609 10.6417 6.25649 10.6417 5.65153H8.64175C8.64175 5.41934 8.73476 5.2679 8.7773 5.20977C8.82665 5.14235 8.87021 5.1131 8.88168 5.10589L9.94602 6.79916ZM10.6417 5.65153C10.6417 5.0797 10.2721 4.74505 10.0275 4.60594C9.90792 4.53795 9.79161 4.49723 9.69494 4.47351C9.64751 4.46188 9.58681 4.4499 9.51761 4.44383C9.48649 4.4411 9.42619 4.437 9.35149 4.44229C9.31565 4.44482 9.24758 4.45136 9.16498 4.47311C9.11225 4.48699 8.90162 4.54315 8.71105 4.73372L10.1253 6.14794C9.93522 6.33797 9.72553 6.39368 9.67411 6.40722C9.59283 6.42861 9.52646 6.43491 9.49267 6.4373C9.42206 6.44229 9.36726 6.43832 9.34284 6.43618C9.28705 6.43128 9.24455 6.42233 9.21849 6.41593C9.16455 6.4027 9.10361 6.38133 9.03887 6.34452C8.90387 6.26775 8.64175 6.04275 8.64175 5.65153H10.6417ZM8.55364 4.93821C8.56058 4.92627 8.59583 4.87213 8.67024 4.82703C8.74714 4.7804 8.79737 4.78483 8.76885 4.78483V6.78483C9.10153 6.78483 9.42266 6.7097 9.70704 6.5373C9.98891 6.36642 10.1682 6.14028 10.2827 5.94345L8.55364 4.93821ZM8.76885 4.78483C8.79351 4.78483 8.86301 4.79455 8.93704 4.85477C9.01247 4.91611 9.04745 4.99366 9.05691 5.04703L7.08759 5.39602C7.23689 6.23852 7.9445 6.78483 8.76885 6.78483V4.78483ZM9.05864 5.05713C9.05807 5.05369 9.05774 5.05172 9.05745 5.04995C9.05719 5.04832 9.05709 5.04774 9.0571 5.0478C9.05712 5.04788 9.05728 5.04893 9.05754 5.05071C9.05779 5.05251 9.05817 5.05526 9.05861 5.05879C9.06024 5.07177 9.06365 5.10259 9.06365 5.14413H7.06365C7.06365 5.26678 7.08401 5.37484 7.08586 5.38593L9.05864 5.05713ZM8.06365 6.14413H9.59015V4.14413H8.06365V6.14413ZM9.59015 6.14413C9.70259 6.14413 10.0853 6.13631 10.3988 5.82274C10.7143 5.5073 10.7191 5.12264 10.7191 5.01943H8.71915C8.71915 5.00651 8.70896 4.6842 8.98463 4.40853C9.25842 4.13474 9.57661 4.14413 9.59015 4.14413V6.14413ZM10.7191 5.01943V4.98503H8.71915V5.01943H10.7191ZM10.7191 4.98503C10.7191 4.46121 10.5488 3.94083 10.1716 3.54378C9.78984 3.14189 9.26933 2.94443 8.72585 2.94443V4.94443C8.75711 4.94443 8.76499 4.94972 8.75704 4.9465C8.75346 4.94504 8.74771 4.94225 8.74083 4.93757C8.73394 4.93289 8.72738 4.92732 8.72164 4.92128C8.7093 4.90829 8.70713 4.90003 8.70915 4.90555C8.71146 4.91184 8.71915 4.93657 8.71915 4.98503H10.7191ZM8.72585 2.94443C7.52636 2.94443 6.66805 3.89817 6.66805 5.04093H8.66805C8.66805 5.00323 8.67463 4.97964 8.67936 4.96747C8.68412 4.95524 8.6884 4.95078 8.68881 4.95036C8.68906 4.95009 8.68902 4.94995 8.69068 4.94925C8.69211 4.94865 8.70236 4.94443 8.72585 4.94443V2.94443ZM9.30635 3.85603H8.06795V5.85603H9.30635V3.85603ZM9.05689 5.00437C9.05079 5.04503 9.02631 5.11146 8.96008 5.17179C8.89075 5.23493 8.80124 5.26693 8.72155 5.26693V3.26693C7.83874 3.26693 7.19667 3.92331 7.07901 4.70769L9.05689 5.00437ZM8.72155 5.26693C8.65732 5.26693 8.52962 5.23884 8.42034 5.12722C8.31929 5.02401 8.30876 4.92618 8.30816 4.91616L10.3045 4.79589C10.2824 4.42898 10.1515 4.03659 9.84944 3.72805C9.53913 3.41111 9.12977 3.26693 8.72155 3.26693V5.26693ZM8.89022 5.04093C8.89022 5.59622 9.08365 6.13362 9.48812 6.53354C9.89165 6.93254 10.4297 7.12023 10.9824 7.12023V5.12023C10.9299 5.12023 10.902 5.11161 10.8927 5.10807C10.8843 5.10483 10.8874 5.10454 10.8943 5.11136C10.9013 5.11825 10.9024 5.12284 10.9004 5.11785C10.8982 5.11206 10.8902 5.08852 10.8902 5.04093H8.89022ZM10.9824 7.12023C11.4384 7.12023 11.8451 7.00223 12.1682 6.79916L11.1038 5.10589C11.1259 5.09203 11.0941 5.12023 10.9824 5.12023V7.12023ZM12.1682 6.79916C12.4276 6.63609 12.8639 6.25649 12.8639 5.65153H10.8639C10.8639 5.41934 10.9569 5.2679 10.9995 5.20977C11.0488 5.14235 11.0924 5.1131 11.1038 5.10589L12.1682 6.79916ZM12.8639 5.65153C12.8639 5.0797 12.4943 4.74505 12.2496 4.60594C12.1301 4.53795 12.0138 4.49723 11.9171 4.47351C11.8697 4.46188 11.809 4.4499 11.7398 4.44383C11.7087 4.4411 11.6484 4.437 11.5737 4.44229C11.5378 4.44482 11.4698 4.45136 11.3871 4.47311C11.3344 4.48699 11.1238 4.54315 10.9332 4.73372L12.3474 6.14794C12.1574 6.33797 11.9477 6.39368 11.8963 6.40722C11.815 6.42861 11.7486 6.43491 11.7148 6.4373C11.6442 6.44229 11.5894 6.43832 11.565 6.43618C11.5092 6.43128 11.4667 6.42233 11.4407 6.41593C11.3867 6.4027 11.3258 6.38133 11.261 6.34452C11.126 6.26775 10.8639 6.04275 10.8639 5.65153H12.8639ZM10.7758 4.93821C10.7828 4.92627 10.818 4.87213 10.8924 4.82703C10.9693 4.7804 11.0195 4.78483 10.991 4.78483V6.78483C11.3237 6.78483 11.6448 6.7097 11.9292 6.5373C12.2111 6.36642 12.3904 6.14028 12.5048 5.94345L10.7758 4.93821ZM10.991 4.78483C11.0157 4.78483 11.0852 4.79455 11.1592 4.85477C11.2346 4.91611 11.2696 4.99366 11.2791 5.04703L9.30976 5.39602C9.45906 6.23852 10.1667 6.78483 10.991 6.78483V4.78483ZM11.2808 5.05713C11.2802 5.05369 11.2799 5.05172 11.2796 5.04995C11.2794 5.04833 11.2793 5.04775 11.2793 5.0478C11.2793 5.04788 11.2794 5.04894 11.2797 5.05072C11.28 5.05252 11.2803 5.05527 11.2808 5.0588C11.2824 5.07178 11.2858 5.1026 11.2858 5.14413H9.28582C9.28582 5.26678 9.30617 5.37482 9.30802 5.38593L11.2808 5.05713ZM10.2858 6.14413H11.8123V4.14413H10.2858V6.14413ZM11.8123 6.14413C11.9248 6.14413 12.3074 6.13631 12.621 5.82274C12.9365 5.5073 12.9413 5.12264 12.9413 5.01943H10.9413C10.9413 5.00651 10.9311 4.6842 11.2068 4.40853C11.4806 4.13474 11.7988 4.14413 11.8123 4.14413V6.14413ZM12.9413 5.01943V4.98503H10.9413V5.01943H12.9413ZM12.9413 4.98503C12.9413 4.46121 12.771 3.94083 12.3938 3.54378C12.012 3.14189 11.4915 2.94443 10.948 2.94443V4.94443C10.9793 4.94443 10.9872 4.94972 10.9792 4.9465C10.9756 4.94504 10.9699 4.94225 10.963 4.93757C10.9561 4.93289 10.9495 4.92732 10.9438 4.92128C10.9315 4.90829 10.9293 4.90003 10.9313 4.90555C10.9336 4.91184 10.9413 4.93657 10.9413 4.98503H12.9413ZM10.948 2.94443C9.74853 2.94443 8.89022 3.89817 8.89022 5.04093H10.8902C10.8902 5.00323 10.8968 4.97964 10.9015 4.96747C10.9063 4.95524 10.9106 4.95078 10.911 4.95036C10.9112 4.9501 10.9112 4.94995 10.9128 4.94925C10.9143 4.94865 10.9245 4.94443 10.948 4.94443V2.94443ZM11.5285 3.85603H10.2901V5.85603H11.5285V3.85603ZM11.2791 5.00437C11.273 5.04504 11.2485 5.11146 11.1822 5.17179C11.1129 5.23493 11.0234 5.26693 10.9437 5.26693V3.26693C10.0609 3.26693 9.41884 3.92331 9.30118 4.70769L11.2791 5.00437ZM10.9437 5.26693C10.8795 5.26693 10.7518 5.23884 10.6425 5.12722C10.5415 5.02401 10.5309 4.92618 10.5303 4.91616L12.5267 4.79589C12.5046 4.42898 12.3737 4.03659 12.0716 3.72805C11.7613 3.41111 11.3519 3.26693 10.9437 3.26693V5.26693Z" fill="black" mask="url(#path-2-inside-1_7195_187)"/>
</g>
</g>
</svg>
