<svg width="24" height="24" viewBox="0 0 24 24" fill="none" xmlns="http://www.w3.org/2000/svg">
<g id="Other=wind, Size=24px, stroke width=1.5px">
<path id="wind" d="M8.47826 7.26316C8.47826 5.73947 9.70696 4.5 11.2174 4.5C12.7278 4.5 13.9565 5.73947 13.9565 7.26316C13.9565 8.78684 12.7278 10.0263 11.2174 10.0263H3M11.6087 16.7368C11.6087 18.2605 12.8374 19.5 14.3478 19.5C15.8583 19.5 17.087 18.2605 17.087 16.7368C17.087 15.2132 15.8583 13.9737 14.3478 13.9737H3M16.3043 9.23684C16.3043 7.92632 17.353 6.86842 18.6522 6.86842C19.9513 6.86842 21 7.92632 21 9.23684C21 10.5474 19.9513 11.6053 18.6522 11.6053H13.9565" stroke="black" stroke-width="1.5" stroke-linecap="round" stroke-linejoin="round"/>
</g>
</svg>
