<svg width="32" height="32" viewBox="0 0 32 32" fill="none" xmlns="http://www.w3.org/2000/svg">
<g id="Other=freebet, Size=32px, weight=light">
<path id="betslip" d="M27.5 22.375C27.5 23.5486 26.7136 24.5 25.7436 24.5L7.5625 24.5M25.7436 7.5C26.7136 7.5 27.5 8.45139 27.5 9.625L27.5 10.7234C27.5 10.9198 27.3391 11.0751 27.1469 11.1154C26.3497 11.2824 25.75 12.0038 25.75 12.8684C25.75 13.733 26.3497 14.4544 27.1469 14.6215C27.3391 14.6617 27.5 14.8171 27.5 15.0134L27.5 16.9865C27.5 17.1829 27.3391 17.3383 27.1469 17.3785C26.3497 17.5456 25.75 18.267 25.75 19.1316C25.75 19.9962 26.3497 20.7176 27.1469 20.8846C27.3391 20.9249 27.5 21.0802 27.5 21.2766L27.5 22.2632M4.5 22.375C4.5 23.5486 5.28635 24.5 6.25636 24.5L7.99363 24.5M6.25636 7.5C5.28635 7.5 4.5 8.4514 4.5 9.625L4.5 10.7234C4.5 10.9198 4.66089 11.0751 4.85309 11.1154C5.65033 11.2824 6.25 12.0038 6.25 12.8684C6.25 13.733 5.65033 14.4544 4.85309 14.6215C4.66089 14.6617 4.5 14.8171 4.5 15.0134L4.5 16.9865C4.5 17.1829 4.66089 17.3383 4.85309 17.3785C5.65033 17.5456 6.25 18.267 6.25 19.1316C6.25 19.9962 5.65033 20.7176 4.85309 20.8846C4.66089 20.9249 4.5 21.0802 4.5 21.2766L4.5 22.2632M21.7187 23.8289L21.7187 22.4868M21.7187 20.25L21.7187 18.9079M21.7187 16.671L21.7187 15.3289" stroke="black" stroke-linecap="round" stroke-linejoin="round"/>
<path id="Free" d="M9.33874 9.61685C9.20066 9.61685 9.08874 9.72878 9.08874 9.86685V11.7589C9.08874 11.8556 9.06521 11.884 9.06095 11.8885L9.06092 11.8885C9.05863 11.891 9.0376 11.9131 8.95174 11.9131H8.81414C8.75503 11.9131 8.74102 11.8962 8.73468 11.8882C8.7208 11.8707 8.69434 11.8187 8.69434 11.6987V7.06325C8.69434 6.96541 8.72431 6.90614 8.7556 6.87322C8.78582 6.84144 8.83574 6.81445 8.91734 6.81445H11.9187C12.0214 6.81445 12.0555 6.83886 12.0621 6.84467C12.0621 6.84471 12.0622 6.84475 12.0622 6.8448C12.0645 6.84679 12.0815 6.86143 12.0815 6.92565V6.97725C12.0815 7.04854 12.0629 7.06507 12.0606 7.0671L12.0605 7.06721C12.0545 7.07263 12.0215 7.09705 11.9187 7.09705H9.32154C9.18346 7.09705 9.07154 7.20898 9.07154 7.34705V9.11865C9.07154 9.25672 9.18346 9.36865 9.32154 9.36865H11.2479C11.3567 9.36865 11.3901 9.39388 11.3947 9.39796C11.3967 9.39972 11.3993 9.40244 11.4024 9.41056C11.406 9.42001 11.4107 9.43886 11.4107 9.47125V9.50565C11.4107 9.54264 11.4054 9.56399 11.4013 9.57468C11.3978 9.58388 11.3948 9.58676 11.3929 9.58841C11.3879 9.5928 11.3546 9.61685 11.2479 9.61685H9.33874ZM13.4379 8.67145C13.4379 8.79311 13.5254 8.89711 13.6453 8.91781C13.6854 8.92473 13.7253 8.92166 13.7621 8.91021C13.7372 8.9473 13.7142 8.98595 13.6929 9.02591C13.5141 9.36195 13.4465 9.81245 13.4465 10.3055V11.7589C13.4465 11.815 13.439 11.8494 13.4321 11.8687C13.4258 11.8864 13.4199 11.8919 13.4186 11.8931C13.4158 11.8956 13.3943 11.9131 13.3181 11.9131H13.2235C13.1409 11.9131 13.1215 11.8947 13.1212 11.8945L13.1212 11.8945C13.1207 11.894 13.1153 11.8891 13.1092 11.8714C13.1024 11.8516 13.0951 11.8164 13.0951 11.7589V8.20342C13.1136 8.20072 13.1337 8.19905 13.1547 8.19905C13.2188 8.19905 13.2673 8.21301 13.3028 8.23783C13.3345 8.25999 13.3792 8.30684 13.4099 8.41866C13.4251 8.49579 13.4379 8.57814 13.4379 8.67145ZM14.0699 8.60358C14.0253 8.63203 13.9837 8.66375 13.9449 8.69833C14.0209 8.50868 14.1198 8.37621 14.2346 8.28899C14.3588 8.19474 14.5205 8.13885 14.7371 8.13885C14.9155 8.13885 15.0225 8.18196 15.0801 8.22886C15.1309 8.27024 15.1665 8.33282 15.1665 8.43925C15.1665 8.49448 15.1554 8.53657 15.141 8.56807C15.0029 8.49497 14.8369 8.44725 14.6339 8.44725C14.4237 8.44725 14.2336 8.49905 14.0699 8.60358ZM18.5059 11.5781C18.6925 11.465 18.8346 11.3221 18.9456 11.17C18.9754 11.1875 18.997 11.2069 19.0105 11.2261C19.0225 11.2433 19.0325 11.266 19.0325 11.3031C19.0325 11.355 18.9674 11.5213 18.6937 11.6934C18.4358 11.8555 18.0441 11.9905 17.5195 11.9905C16.9224 11.9905 16.4426 11.7931 16.1129 11.4671C15.7835 11.1414 15.5851 10.6687 15.5851 10.0819C15.5851 8.95499 16.3767 8.13885 17.4507 8.13885C17.9873 8.13885 18.4159 8.32652 18.711 8.63724C19.0074 8.94917 19.1873 9.40441 19.1873 9.97005V10.0382C19.1848 10.0382 19.1821 10.0383 19.1793 10.0383H16.1263C15.9882 10.0383 15.8763 10.1502 15.8763 10.2883C15.8763 10.3609 15.8879 10.4302 15.8959 10.478L15.8969 10.4842L15.8969 10.4842L15.8974 10.4867C16.04 11.2918 16.691 11.8197 17.5367 11.8197C17.9359 11.8197 18.2533 11.7313 18.5059 11.5781ZM18.6117 9.96205C18.6806 9.96205 18.7465 9.93361 18.7937 9.88343C18.841 9.83326 18.8654 9.76581 18.8613 9.69702C18.8369 9.293 18.6988 8.93718 18.4474 8.68038C18.194 8.42149 17.8452 8.28385 17.4421 8.28385C16.6269 8.28385 16.0074 8.87687 15.8877 9.67497C15.8769 9.74694 15.898 9.82005 15.9455 9.87519C15.993 9.93034 16.0621 9.96205 16.1349 9.96205H18.6117ZM20.3413 10.4842L20.3412 10.4842L20.3417 10.4867C20.4844 11.2918 21.1353 11.8197 21.9811 11.8197C22.3803 11.8197 22.6976 11.7313 22.9502 11.5781C23.1368 11.465 23.2789 11.3221 23.3899 11.17C23.4198 11.1875 23.4413 11.2069 23.4548 11.2261C23.4669 11.2433 23.4769 11.266 23.4769 11.3031C23.4769 11.355 23.4118 11.5213 23.138 11.6934C22.8802 11.8555 22.4884 11.9905 21.9639 11.9905C21.3667 11.9905 20.8869 11.7931 20.5572 11.4671C20.2278 11.1414 20.0295 10.6687 20.0295 10.0819C20.0295 8.95499 20.8211 8.13885 21.8951 8.13885C22.4316 8.13885 22.8602 8.32652 23.1554 8.63724C23.4517 8.94917 23.6317 9.40441 23.6317 9.97005V10.0382C23.6291 10.0382 23.6264 10.0383 23.6237 10.0383H20.5707C20.4326 10.0383 20.3207 10.1502 20.3207 10.2883C20.3207 10.3609 20.3322 10.4302 20.3402 10.478L20.3413 10.4842ZM23.0561 9.96205C23.125 9.96205 23.1908 9.93361 23.2381 9.88343C23.2853 9.83326 23.3097 9.76581 23.3056 9.69702C23.2813 9.293 23.1432 8.93718 22.8918 8.68038C22.6383 8.42149 22.2895 8.28385 21.8865 8.28385C21.0713 8.28385 20.4517 8.87687 20.332 9.67497C20.3212 9.74694 20.3423 9.82005 20.3898 9.87519C20.4373 9.93034 20.5065 9.96205 20.5793 9.96205H23.0561Z" stroke="black" stroke-width="0.5" stroke-linecap="round" stroke-linejoin="round"/>
</g>
</svg>
