<svg width="16" height="16" viewBox="0 0 16 16" fill="none" xmlns="http://www.w3.org/2000/svg">
<g id="Other=rocket, Size=16px, stroke width=1.5px">
<path id="rocket" d="M3.87652 9.93281L3.0172 10.7921M4.72185 10.7781L2.72543 12.7746M5.56719 11.6235L4.6679 12.5228M10.1116 3.00828L12.4917 5.3884M5.46127 5.81207C4.59395 5.91798 3.22503 6.36963 2 8.19219C2 8.19219 2.72143 7.86044 3.98643 8.09626M9.69193 10.0387C9.58801 10.906 9.13637 12.275 7.31381 13.5C7.31381 13.5 7.64355 12.7766 7.40973 11.5136M9.3542 5.05066C9.57079 5.05066 9.78253 5.11489 9.96262 5.23523C10.1427 5.35556 10.2831 5.5266 10.366 5.72671C10.4489 5.92682 10.4705 6.14701 10.4283 6.35945C10.386 6.57188 10.2817 6.76702 10.1286 6.92018C9.97542 7.07333 9.78028 7.17763 9.56785 7.21989C9.35541 7.26215 9.13522 7.24046 8.93511 7.15757C8.735 7.07469 8.56396 6.93432 8.44363 6.75422C8.32329 6.57413 8.25906 6.3624 8.25906 6.1458C8.25906 5.85535 8.37444 5.5768 8.57982 5.37142C8.7852 5.16604 9.06375 5.05066 9.3542 5.05066ZM12.9194 2.58061C12.2999 2.42673 8.42893 1.80922 4.50802 9.14743L6.35656 10.996C13.7188 7.05708 13.0713 3.18014 12.9194 2.58061Z" stroke="black" stroke-width="1.5" stroke-linecap="round" stroke-linejoin="round"/>
</g>
</svg>
