<svg width="24" height="24" viewBox="0 0 24 24" fill="none" xmlns="http://www.w3.org/2000/svg">
<g id="Other=6-6-free, Size=24px, weight=light">
<path id="6" d="M12.1603 16.2974C12.7332 16.2974 13.1782 16.1206 13.4951 15.7671C13.8243 15.4014 13.9889 14.8772 13.9889 14.1945C13.9889 12.7926 13.3793 12.0916 12.1603 12.0916C11.5873 12.0916 11.1363 12.2745 10.8071 12.6402C10.4902 13.0059 10.3317 13.524 10.3317 14.1945C10.3317 14.8528 10.4963 15.3709 10.8254 15.7488C11.1668 16.1145 11.6117 16.2974 12.1603 16.2974ZM12.8917 9.7145C14.3789 9.7145 15.5127 10.0863 16.2929 10.8299C17.073 11.5735 17.4631 12.6646 17.4631 14.1031C17.4631 15.5903 16.9938 16.7545 16.0551 17.5956C15.1165 18.4368 13.8182 18.8574 12.1603 18.8574C10.4902 18.8574 9.1858 18.3514 8.24714 17.3396C7.32066 16.3156 6.85742 14.8101 6.85742 12.8231C6.85742 10.2753 7.38771 8.36135 8.44828 7.08135C9.50885 5.78916 11.0205 5.14307 12.9831 5.14307C13.6536 5.14307 14.3363 5.19792 15.0311 5.30764C15.3237 5.3564 15.5614 5.50269 15.7443 5.7465C15.9271 5.97811 16.0186 6.2463 16.0186 6.55107V7.20935C16.0186 7.45316 15.9149 7.6543 15.7077 7.81278C15.5127 7.95907 15.2932 8.00173 15.0494 7.94078C14.3911 7.7823 13.7633 7.70307 13.166 7.70307C11.5081 7.70307 10.5572 8.57469 10.3134 10.3179C10.3134 10.3423 10.3195 10.3545 10.3317 10.3545H10.3683C11.0631 9.92783 11.9043 9.7145 12.8917 9.7145Z" stroke="black" stroke-linecap="round" stroke-linejoin="round"/>
</g>
</svg>
