<svg width="16" height="16" viewBox="0 0 16 16" fill="none" xmlns="http://www.w3.org/2000/svg">
<g id="Other=freebet, Size=16px, weight=regular">
<path id="betslip" d="M13.75 11.1875C13.75 11.7743 13.3568 12.25 12.8718 12.25L3.78125 12.25M12.8718 3.75C13.3568 3.75 13.75 4.2257 13.75 4.8125L13.75 5.18392C13.75 5.38029 13.5842 5.53286 13.4045 5.61194C13.093 5.74896 12.875 6.06555 12.875 6.43421C12.875 6.80288 13.093 7.11946 13.4045 7.25648C13.5842 7.33556 13.75 7.48813 13.75 7.6845L13.75 8.3155C13.75 8.51186 13.5842 8.66444 13.4045 8.74352C13.093 8.88054 12.875 9.19712 12.875 9.56579C12.875 9.93445 13.093 10.251 13.4045 10.3881C13.5842 10.4671 13.75 10.6197 13.75 10.8161L13.75 11.1316M2.25 11.1875C2.25 11.7743 2.64318 12.25 3.12818 12.25L3.99682 12.25M3.12818 3.75C2.64318 3.75 2.25 4.2257 2.25 4.8125L2.25 5.18392C2.25 5.38029 2.41579 5.53286 2.59553 5.61194C2.90695 5.74896 3.125 6.06555 3.125 6.43421C3.125 6.80288 2.90695 7.11946 2.59553 7.25648C2.41579 7.33556 2.25 7.48814 2.25 7.6845L2.25 8.3155C2.25 8.51187 2.41579 8.66444 2.59553 8.74352C2.90695 8.88054 3.125 9.19712 3.125 9.56579C3.125 9.93445 2.90695 10.251 2.59553 10.3881C2.41579 10.4671 2.25 10.6197 2.25 10.8161L2.25 11.1316M10.8594 11.9145L10.8594 11.2434M10.8594 10.125L10.8594 9.45395M10.8594 8.33551L10.8594 7.66446" stroke="black" stroke-width="1.5" stroke-linecap="round" stroke-linejoin="round"/>
<g id="Free">
<mask id="path-2-inside-1_7195_190" fill="white">
<path d="M4.22266 5.84933C4.22266 5.99983 4.28716 6.08153 4.40756 6.08153H4.47636C4.60536 6.08153 4.66986 6.01273 4.66986 5.87943V4.93343H5.62446C5.76206 4.93343 5.83086 4.87323 5.83086 4.75283V4.73563C5.83086 4.62383 5.76636 4.55933 5.62446 4.55933H4.66126V3.67353H5.95986C6.09746 3.67353 6.16626 3.60903 6.16626 3.48863V3.46283C6.16626 3.34673 6.09746 3.28223 5.95986 3.28223H4.45916C4.31726 3.28223 4.22266 3.38113 4.22266 3.53163V5.84933Z"/>
<path d="M7.36902 3.94443C7.10672 3.94443 6.93472 4.08203 6.84442 4.33573C6.84442 4.27553 6.83582 4.22393 6.82722 4.18093C6.78422 4.01753 6.67672 3.97453 6.57782 3.97453C6.49182 3.97453 6.42302 4.00893 6.42302 4.02183V5.87943C6.42302 6.03423 6.50042 6.08153 6.61222 6.08153H6.65952C6.76702 6.08153 6.84872 6.03423 6.84872 5.87943V5.15273C6.84872 4.67543 6.98202 4.34863 7.31742 4.34863C7.43352 4.34863 7.51522 4.38733 7.57972 4.43893C7.58832 4.44753 7.70872 4.38303 7.70872 4.21963C7.70872 4.04763 7.58402 3.94443 7.36902 3.94443Z"/>
<path d="M7.66805 5.04093C7.66805 5.68593 8.10665 6.12023 8.76025 6.12023C9.04405 6.12023 9.26335 6.04713 9.41385 5.95253C9.56435 5.85793 9.64175 5.74183 9.64175 5.65153C9.64175 5.47093 9.42675 5.43223 9.41815 5.44083C9.31065 5.62573 9.13005 5.78483 8.76885 5.78483C8.40335 5.78483 8.13245 5.56123 8.07225 5.22153C8.06795 5.19573 8.06365 5.16993 8.06365 5.14413H9.59015C9.68905 5.14413 9.71915 5.10973 9.71915 5.01943V4.98503C9.71915 4.36583 9.32355 3.94443 8.72585 3.94443C8.11525 3.94443 7.66805 4.41313 7.66805 5.04093ZM9.30635 4.85603H8.06795C8.11955 4.51203 8.38185 4.26693 8.72155 4.26693C9.06555 4.26693 9.28485 4.49913 9.30635 4.85603Z"/>
<path d="M9.89022 5.04093C9.89022 5.68593 10.3288 6.12023 10.9824 6.12023C11.2662 6.12023 11.4855 6.04713 11.636 5.95253C11.7865 5.85793 11.8639 5.74183 11.8639 5.65153C11.8639 5.47093 11.6489 5.43223 11.6403 5.44083C11.5328 5.62573 11.3522 5.78483 10.991 5.78483C10.6255 5.78483 10.3546 5.56123 10.2944 5.22153C10.2901 5.19573 10.2858 5.16993 10.2858 5.14413H11.8123C11.9112 5.14413 11.9413 5.10973 11.9413 5.01943V4.98503C11.9413 4.36583 11.5457 3.94443 10.948 3.94443C10.3374 3.94443 9.89022 4.41313 9.89022 5.04093ZM11.5285 4.85603H10.2901C10.3417 4.51203 10.604 4.26693 10.9437 4.26693C11.2877 4.26693 11.507 4.49913 11.5285 4.85603Z"/>
</mask>
<path d="M4.66986 4.93343V3.43343C3.84143 3.43343 3.16986 4.105 3.16986 4.93343H4.66986ZM4.66126 4.55933H3.16126C3.16126 5.38775 3.83283 6.05933 4.66126 6.05933V4.55933ZM4.66126 3.67353V2.17353C3.83283 2.17353 3.16126 2.8451 3.16126 3.67353H4.66126ZM6.84442 4.33573H5.34442C5.34442 5.06568 5.86989 5.68966 6.58921 5.81386C7.30852 5.93805 8.0128 5.52641 8.25758 4.83871L6.84442 4.33573ZM6.82722 4.18093L8.29809 3.88675C8.29222 3.85737 8.28546 3.82817 8.27783 3.79919L6.82722 4.18093ZM7.57972 4.43893L8.64038 3.37827C8.60125 3.33913 8.55998 3.3022 8.51677 3.26762L7.57972 4.43893ZM9.41815 5.44083L8.35749 4.38016C8.26587 4.47178 8.18651 4.57488 8.12139 4.6869L9.41815 5.44083ZM8.07225 5.22153L6.59266 5.46813C6.5935 5.47318 6.59437 5.47823 6.59526 5.48327L8.07225 5.22153ZM8.06365 5.14413V3.64413C7.23522 3.64413 6.56365 4.3157 6.56365 5.14413H8.06365ZM9.30635 4.85603V6.35603C9.71983 6.35603 10.115 6.18534 10.3984 5.8843C10.6819 5.58326 10.8285 5.17857 10.8036 4.76583L9.30635 4.85603ZM8.06795 4.85603L6.58454 4.63352C6.51977 5.06535 6.64639 5.50398 6.93134 5.83486C7.21629 6.16574 7.63128 6.35603 8.06795 6.35603V4.85603ZM11.6403 5.44083L10.5797 4.38016C10.488 4.47178 10.4087 4.57488 10.3436 4.6869L11.6403 5.44083ZM10.2944 5.22153L8.81483 5.46813C8.81567 5.47318 8.81654 5.47823 8.81743 5.48327L10.2944 5.22153ZM10.2858 5.14413V3.64413C9.45739 3.64413 8.78582 4.3157 8.78582 5.14413H10.2858ZM11.5285 4.85603V6.35603C11.942 6.35603 12.3372 6.18534 12.6206 5.8843C12.9041 5.58326 13.0507 5.17857 13.0258 4.76583L11.5285 4.85603ZM10.2901 4.85603L8.80671 4.63352C8.74194 5.06535 8.86856 5.50398 9.15351 5.83486C9.43846 6.16574 9.85345 6.35603 10.2901 6.35603V4.85603ZM2.72266 5.84933C2.72266 6.10733 2.7735 6.54967 3.09552 6.95498C3.46273 7.41715 3.97959 7.58153 4.40756 7.58153V4.58153C4.71512 4.58153 5.13954 4.70505 5.44439 5.08875C5.70407 5.41558 5.72266 5.74182 5.72266 5.84933H2.72266ZM4.40756 7.58153H4.47636V4.58153H4.40756V7.58153ZM4.47636 7.58153C4.79745 7.58153 5.3013 7.49165 5.70769 7.06495C6.10136 6.65159 6.16986 6.16536 6.16986 5.87943H3.16986C3.16986 5.72679 3.2061 5.34161 3.53528 4.99598C3.87716 4.637 4.28426 4.58153 4.47636 4.58153V7.58153ZM6.16986 5.87943V4.93343H3.16986V5.87943H6.16986ZM4.66986 6.43343H5.62446V3.43343H4.66986V6.43343ZM5.62446 6.43343C5.87893 6.43343 6.34993 6.38209 6.76701 6.01714C7.22236 5.61872 7.33086 5.10018 7.33086 4.75283H4.33086C4.33086 4.52587 4.40496 4.09764 4.7915 3.75941C5.13978 3.45466 5.50758 3.43343 5.62446 3.43343V6.43343ZM7.33086 4.75283V4.73563H4.33086V4.75283H7.33086ZM7.33086 4.73563C7.33086 4.38967 7.22214 3.87975 6.77742 3.48444C6.3647 3.11758 5.89402 3.05933 5.62446 3.05933V6.05933C5.4968 6.05933 5.12931 6.03332 4.78432 5.72667C4.40732 5.39155 4.33086 4.96978 4.33086 4.73563H7.33086ZM5.62446 3.05933H4.66126V6.05933H5.62446V3.05933ZM6.16126 4.55933V3.67353H3.16126V4.55933H6.16126ZM4.66126 5.17353H5.95986V2.17353H4.66126V5.17353ZM5.95986 5.17353C6.23747 5.17353 6.71063 5.11045 7.12194 4.73771C7.55951 4.34115 7.66626 3.83432 7.66626 3.48863H4.66626C4.66626 3.26333 4.7386 2.84895 5.10738 2.51475C5.44988 2.20435 5.81984 2.17353 5.95986 2.17353V5.17353ZM7.66626 3.48863V3.46283H4.66626V3.48863H7.66626ZM7.66626 3.46283C7.66626 3.10378 7.55018 2.59884 7.11229 2.20884C6.70422 1.8454 6.23799 1.78223 5.95986 1.78223V4.78223C5.81932 4.78223 5.4563 4.7513 5.11702 4.44914C4.74793 4.12041 4.66626 3.70577 4.66626 3.46283H7.66626ZM5.95986 1.78223H4.45916V4.78223H5.95986V1.78223ZM4.45916 1.78223C4.0264 1.78223 3.55728 1.94173 3.20053 2.31701C2.85025 2.68549 2.72266 3.14043 2.72266 3.53163H5.72266C5.72266 3.77232 5.64236 4.10256 5.37486 4.38397C5.10088 4.67218 4.75001 4.78223 4.45916 4.78223V1.78223ZM2.72266 3.53163V5.84933H5.72266V3.53163H2.72266ZM7.36902 2.44443C6.9632 2.44443 6.52236 2.55629 6.13516 2.85027C5.75942 3.13555 5.54751 3.50616 5.43127 3.83274L8.25758 4.83871C8.23164 4.91159 8.15087 5.08655 7.94929 5.23961C7.73624 5.40137 7.51254 5.44443 7.36902 5.44443V2.44443ZM8.34442 4.33573C8.34442 4.13187 8.31464 3.9695 8.29809 3.88675L5.35635 4.4751C5.357 4.47835 5.34442 4.41918 5.34442 4.33573H8.34442ZM8.27783 3.79919C8.18266 3.43753 7.96851 3.05652 7.58268 2.78691C7.2158 2.53053 6.8359 2.47453 6.57782 2.47453V5.47453C6.41864 5.47453 6.14194 5.44002 5.86429 5.246C5.56768 5.03873 5.42878 4.76092 5.37661 4.56267L8.27783 3.79919ZM6.57782 2.47453C6.34418 2.47453 6.13154 2.51935 5.95338 2.58444C5.86847 2.61547 5.74879 2.66652 5.62069 2.74935C5.56146 2.78764 5.44988 2.86488 5.33434 2.98752C5.27792 3.04741 4.92302 3.41583 4.92302 4.02183H7.92302C7.92302 4.3501 7.81636 4.59891 7.74011 4.73846C7.66132 4.88263 7.57455 4.98458 7.51795 5.04466C7.40651 5.16295 7.30098 5.23538 7.24954 5.26864C7.13703 5.34139 7.03992 5.38142 6.98296 5.40224C6.86071 5.44691 6.72546 5.47453 6.57782 5.47453V2.47453ZM4.92302 4.02183V5.87943H7.92302V4.02183H4.92302ZM4.92302 5.87943C4.92302 6.1858 5.00102 6.71302 5.45096 7.13393C5.88259 7.53772 6.38111 7.58153 6.61222 7.58153V4.58153C6.73153 4.58153 7.13545 4.60169 7.50043 4.94312C7.88373 5.30168 7.92302 5.72785 7.92302 5.87943H4.92302ZM6.61222 7.58153H6.65952V4.58153H6.61222V7.58153ZM6.65952 7.58153C6.90107 7.58153 7.38661 7.53222 7.8104 7.14207C8.25748 6.73047 8.34872 6.20875 8.34872 5.87943H5.34872C5.34872 5.7049 5.39911 5.28423 5.77847 4.93498C6.13453 4.60718 6.52547 4.58153 6.65952 4.58153V7.58153ZM8.34872 5.87943V5.15273H5.34872V5.87943H8.34872ZM8.34872 5.15273C8.34872 5.00831 8.37642 5.09799 8.28138 5.27653C8.22333 5.38559 8.10954 5.54396 7.90994 5.67141C7.70324 5.80339 7.4881 5.84863 7.31742 5.84863V2.84863C6.97904 2.84863 6.62147 2.93472 6.29544 3.14289C5.97652 3.34652 5.76652 3.61643 5.63321 3.86685C5.38767 4.32812 5.34872 4.81984 5.34872 5.15273H8.34872ZM7.31742 5.84863C7.20339 5.84863 7.0738 5.82863 6.94124 5.77892C6.81059 5.72993 6.71091 5.66481 6.64268 5.61023L8.51677 3.26762C8.22279 3.03244 7.8181 2.84863 7.31742 2.84863V5.84863ZM6.51906 5.49959C6.9736 5.95413 7.51729 5.94225 7.62675 5.93903C7.81289 5.93354 7.95659 5.89447 8.02681 5.87297C8.17981 5.82614 8.29649 5.76412 8.36707 5.72238C8.52094 5.63138 8.65824 5.5159 8.7742 5.38395C9.02288 5.10096 9.20872 4.69925 9.20872 4.21963H6.20872C6.20872 3.90341 6.33436 3.61564 6.5207 3.4036C6.60548 3.30713 6.71107 3.21637 6.83994 3.14015C6.89802 3.10581 7.00389 3.04869 7.14866 3.00437C7.21476 2.98414 7.35499 2.94573 7.53842 2.94033C7.64518 2.93718 8.18692 2.9248 8.64038 3.37827L6.51906 5.49959ZM9.20872 4.21963C9.20872 3.74022 9.01696 3.2213 8.56701 2.85467C8.1577 2.52117 7.69576 2.44443 7.36902 2.44443V5.44443C7.25728 5.44443 6.96519 5.41929 6.67199 5.18038C6.33814 4.90835 6.20872 4.52704 6.20872 4.21963H9.20872ZM6.16805 5.04093C6.16805 5.71262 6.40338 6.38381 6.9144 6.88909C7.42402 7.39298 8.09457 7.62023 8.76025 7.62023V4.62023C8.77232 4.62023 8.89678 4.63032 9.0237 4.75582C9.15202 4.88269 9.16805 5.01423 9.16805 5.04093H6.16805ZM8.76025 7.62023C9.30226 7.62023 9.80277 7.47978 10.2121 7.22248L8.61559 4.68257C8.72393 4.61447 8.78584 4.62023 8.76025 4.62023V7.62023ZM10.2121 7.22248C10.526 7.02518 11.1417 6.51383 11.1417 5.65153H8.14175C8.14175 5.28068 8.29094 5.02771 8.37384 4.91445C8.46694 4.78725 8.56076 4.71703 8.61559 4.68257L10.2121 7.22248ZM11.1417 5.65153C11.1417 4.83894 10.6142 4.36438 10.2746 4.17129C10.109 4.07711 9.94838 4.02086 9.81405 3.98791C9.74825 3.97177 9.66175 3.95455 9.5613 3.94574C9.5163 3.94179 9.42722 3.93568 9.31619 3.94353C9.26294 3.9473 9.16127 3.95705 9.0377 3.98958C8.95893 4.01031 8.64322 4.09444 8.35749 4.38016L10.4788 6.50149C10.1936 6.78667 9.87885 6.87036 9.8014 6.89074C9.67914 6.92293 9.57916 6.93243 9.52796 6.93605C9.42102 6.94362 9.33745 6.93763 9.29915 6.93427C9.21211 6.92663 9.14381 6.91244 9.09938 6.90154C9.00778 6.87907 8.90253 6.84217 8.79172 6.77916C8.5618 6.64842 8.14175 6.28351 8.14175 5.65153H11.1417ZM8.12139 4.6869C8.15867 4.62277 8.24756 4.49856 8.41104 4.39946C8.57826 4.29808 8.72133 4.28483 8.76885 4.28483V7.28483C9.17757 7.28483 9.59154 7.19202 9.96624 6.96487C10.3372 6.74 10.5701 6.44379 10.7149 6.19476L8.12139 4.6869ZM8.76885 4.28483C8.89721 4.28483 9.08102 4.32736 9.25253 4.46687C9.42615 4.60807 9.52 4.7948 9.54924 4.95978L6.59526 5.48327C6.78912 6.57717 7.71508 7.28483 8.76885 7.28483V4.28483ZM9.55184 4.97493C9.54883 4.95685 9.55193 4.9742 9.55475 4.99677C9.55799 5.02269 9.56365 5.07538 9.56365 5.14413H6.56365C6.56365 5.31521 6.59204 5.4644 6.59266 5.46813L9.55184 4.97493ZM8.06365 6.64413H9.59015V3.64413H8.06365V6.64413ZM9.59015 6.64413C9.73409 6.64413 10.292 6.63671 10.7524 6.1763C11.2156 5.71307 11.2191 5.15167 11.2191 5.01943H8.21915C8.21915 4.97748 8.20763 4.47843 8.63107 4.05498C9.05171 3.63434 9.54511 3.64413 9.59015 3.64413V6.64413ZM11.2191 5.01943V4.98503H8.21915V5.01943H11.2191ZM11.2191 4.98503C11.2191 4.35411 11.0131 3.7036 10.5341 3.1994C10.0483 2.68795 9.39165 2.44443 8.72585 2.44443V5.44443C8.65775 5.44443 8.49779 5.4116 8.35914 5.26565C8.22737 5.12695 8.21915 4.99675 8.21915 4.98503H11.2191ZM8.72585 2.44443C7.23192 2.44443 6.16805 3.64069 6.16805 5.04093H9.16805C9.16805 5.08905 9.14702 5.1952 9.04922 5.29691C8.94801 5.40217 8.81906 5.44443 8.72585 5.44443V2.44443ZM9.30635 3.35603H8.06795V6.35603H9.30635V3.35603ZM9.55135 5.07854C9.5293 5.22554 9.45335 5.39882 9.29676 5.54144C9.13552 5.6883 8.92602 5.76693 8.72155 5.76693V2.76693C7.56718 2.76693 6.73523 3.62895 6.58454 4.63352L9.55135 5.07854ZM8.72155 5.76693C8.53921 5.76693 8.27724 5.69577 8.06306 5.47702C7.86123 5.27087 7.81534 5.05048 7.80906 4.94622L10.8036 4.76583C10.7759 4.30468 10.6096 3.78973 10.2067 3.37826C9.79151 2.95418 9.24789 2.76693 8.72155 2.76693V5.76693ZM8.39022 5.04093C8.39022 5.71262 8.62555 6.38381 9.13657 6.88909C9.64619 7.39298 10.3167 7.62023 10.9824 7.62023V4.62023C10.9945 4.62023 11.1189 4.63032 11.2459 4.75582C11.3742 4.88269 11.3902 5.01423 11.3902 5.04093H8.39022ZM10.9824 7.62023C11.5244 7.62023 12.0249 7.47978 12.4343 7.22248L10.8378 4.68257C10.9461 4.61447 11.008 4.62023 10.9824 4.62023V7.62023ZM12.4343 7.22248C12.7482 7.02518 13.3639 6.51383 13.3639 5.65153H10.3639C10.3639 5.28068 10.5131 5.02771 10.596 4.91445C10.6891 4.78725 10.7829 4.71703 10.8378 4.68257L12.4343 7.22248ZM13.3639 5.65153C13.3639 4.83894 12.8364 4.36438 12.4968 4.17129C12.3312 4.07711 12.1705 4.02086 12.0362 3.98791C11.9704 3.97177 11.8839 3.95455 11.7835 3.94574C11.7385 3.94179 11.6494 3.93568 11.5384 3.94353C11.4851 3.9473 11.3834 3.95705 11.2599 3.98958C11.1811 4.01031 10.8654 4.09444 10.5797 4.38016L12.701 6.50149C12.4158 6.78667 12.101 6.87036 12.0236 6.89074C11.9013 6.92293 11.8013 6.93243 11.7501 6.93605C11.6432 6.94362 11.5596 6.93763 11.5213 6.93427C11.4343 6.92663 11.366 6.91244 11.3215 6.90154C11.23 6.87907 11.1247 6.84217 11.0139 6.77916C10.784 6.64842 10.3639 6.28351 10.3639 5.65153H13.3639ZM10.3436 4.6869C10.3808 4.62277 10.4697 4.49856 10.6332 4.39946C10.8004 4.29808 10.9435 4.28483 10.991 4.28483V7.28483C11.3997 7.28483 11.8137 7.19202 12.1884 6.96487C12.5594 6.74 12.7923 6.44379 12.9371 6.19476L10.3436 4.6869ZM10.991 4.28483C11.1194 4.28483 11.3032 4.32736 11.4747 4.46687C11.6483 4.60807 11.7422 4.7948 11.7714 4.95978L8.81743 5.48327C9.01129 6.57717 9.93725 7.28483 10.991 7.28483V4.28483ZM11.774 4.97493C11.771 4.95686 11.7741 4.97421 11.7769 4.99678C11.7802 5.0227 11.7858 5.07538 11.7858 5.14413H8.78582C8.78582 5.3152 8.8142 5.46437 8.81483 5.46813L11.774 4.97493ZM10.2858 6.64413H11.8123V3.64413H10.2858V6.64413ZM11.8123 6.64413C11.9563 6.64413 12.5142 6.63671 12.9746 6.1763C13.4378 5.71307 13.4413 5.15167 13.4413 5.01943H10.4413C10.4413 4.97748 10.4298 4.47843 10.8532 4.05498C11.2739 3.63434 11.7673 3.64413 11.8123 3.64413V6.64413ZM13.4413 5.01943V4.98503H10.4413V5.01943H13.4413ZM13.4413 4.98503C13.4413 4.35411 13.2353 3.7036 12.7563 3.1994C12.2704 2.68795 11.6138 2.44443 10.948 2.44443V5.44443C10.8799 5.44443 10.72 5.4116 10.5813 5.26565C10.4495 5.12695 10.4413 4.99675 10.4413 4.98503H13.4413ZM10.948 2.44443C9.45409 2.44443 8.39022 3.64069 8.39022 5.04093H11.3902C11.3902 5.08905 11.3692 5.1952 11.2714 5.29692C11.1702 5.40217 11.0412 5.44443 10.948 5.44443V2.44443ZM11.5285 3.35603H10.2901V6.35603H11.5285V3.35603ZM11.7735 5.07854C11.7515 5.22554 11.6755 5.39882 11.5189 5.54144C11.3577 5.6883 11.1482 5.76693 10.9437 5.76693V2.76693C9.78935 2.76693 8.9574 3.62895 8.80671 4.63352L11.7735 5.07854ZM10.9437 5.76693C10.7614 5.76693 10.4994 5.69577 10.2852 5.47702C10.0834 5.27087 10.0375 5.05048 10.0312 4.94622L13.0258 4.76583C12.998 4.30468 12.8317 3.78973 12.4289 3.37826C12.0137 2.95418 11.4701 2.76693 10.9437 2.76693V5.76693Z" fill="black" mask="url(#path-2-inside-1_7195_190)"/>
</g>
</g>
</svg>
