<svg width="24" height="24" viewBox="0 0 24 24" fill="none" xmlns="http://www.w3.org/2000/svg">
<g id="Other=4-3-free, Size=24px, weight=regular">
<path id="4" d="M12.0117 13.3341V9.48279C12.0117 9.47027 12.0055 9.46401 11.993 9.46401C11.9679 9.46401 11.9554 9.47027 11.9554 9.48279L9.21252 13.4468L9.19374 13.4656V13.4844C9.19374 13.4969 9.2 13.5031 9.21252 13.5031H11.8427C11.9554 13.5031 12.0117 13.4468 12.0117 13.3341ZM16.389 13.5031C16.6771 13.5031 16.9276 13.6096 17.1405 13.8225C17.3534 14.0354 17.4599 14.2859 17.4599 14.574V15.3442C17.4599 15.6323 17.3534 15.8828 17.1405 16.0957C16.9276 16.3086 16.6771 16.4151 16.389 16.4151H15.7315C15.6313 16.4151 15.5812 16.4714 15.5812 16.5842V17.7865C15.5812 18.0746 15.4748 18.3251 15.2618 18.538C15.0489 18.7509 14.7984 18.8574 14.5104 18.8574H13.0826C12.7945 18.8574 12.544 18.7509 12.3311 18.538C12.1182 18.3251 12.0117 18.0746 12.0117 17.7865V16.5842C12.0117 16.4714 11.9554 16.4151 11.8427 16.4151H7.07084C6.78278 16.4151 6.53229 16.3086 6.31937 16.0957C6.10646 15.8828 6 15.6323 6 15.3442V14.574C6 13.8726 6.20665 13.2276 6.61996 12.639L11.3918 6.00725C11.8051 5.43113 12.3687 5.14307 13.0826 5.14307H14.5104C14.7984 5.14307 15.0489 5.24952 15.2618 5.46244C15.4748 5.67536 15.5812 5.92585 15.5812 6.21391V13.3341C15.5812 13.4468 15.6313 13.5031 15.7315 13.5031H16.389Z" stroke="black" stroke-width="1.5" stroke-linecap="round" stroke-linejoin="round"/>
</g>
</svg>
