<svg width="16" height="16" viewBox="0 0 16 16" fill="none" xmlns="http://www.w3.org/2000/svg">
<g id="Other=waves, Size=16px, weight=regular">
<path id="Vector" d="M4.81539 5.82613C3.84742 6.75203 4.50986 7.79808 5.33036 7.6701M13 8.21742C13 5.51545 10.8599 3 8.26156 3C6.09932 3 4.96967 3.66478 4.39841 4.52603C3.91888 5.24877 3.70527 6.12819 4.47195 6.27071M5.67627 6.91751C4.79852 8.0001 5.76137 8.5434 6.21531 8.5434C7.88343 8.5434 6.7282 5.52214 9.76914 5.29124C11.4742 5.16173 13 6.58177 13 8.65225C13 11.4545 11.4704 12.8049 9.98465 12.7836C9.5108 12.7769 9.13798 12.6308 8.69541 12.3479C7.86202 13.2173 6.51346 13.2173 5.68006 12.3479C4.9511 13.1085 3.8279 13.2037 3.00019 12.6337M7.76365 6.39564C7.91945 6.34073 8.087 6.3107 8.26137 6.3107C9.09401 6.3107 9.76914 7.15951 9.76914 7.99991C9.76914 9.61126 8.29701 11.5501 5.67684 11.0434H5.67987C4.95091 11.804 3.82771 11.8992 3 11.3292M8.47612 5.66409C9.75209 5.17187 11.3846 6.46297 11.3846 8.32608C11.3846 8.97268 11.2345 9.54296 10.9881 10.0237" stroke="black" stroke-width="1.5" stroke-linecap="round" stroke-linejoin="round"/>
</g>
</svg>
