<svg width="32" height="32" viewBox="0 0 32 32" fill="none" xmlns="http://www.w3.org/2000/svg">
<g id="Other=freebet, Size=32px, weight=regular">
<path id="betslip" d="M27.5 22.375C27.5 23.5486 26.7136 24.5 25.7436 24.5L7.5625 24.5M25.7436 7.5C26.7136 7.5 27.5 8.45139 27.5 9.625L27.5 10.7234C27.5 10.9198 27.3391 11.0751 27.1469 11.1154C26.3497 11.2824 25.75 12.0038 25.75 12.8684C25.75 13.733 26.3497 14.4544 27.1469 14.6215C27.3391 14.6617 27.5 14.8171 27.5 15.0134L27.5 16.9865C27.5 17.1829 27.3391 17.3383 27.1469 17.3785C26.3497 17.5456 25.75 18.267 25.75 19.1316C25.75 19.9962 26.3497 20.7176 27.1469 20.8846C27.3391 20.9249 27.5 21.0802 27.5 21.2766L27.5 22.2632M4.5 22.375C4.5 23.5486 5.28635 24.5 6.25636 24.5L7.99363 24.5M6.25636 7.5C5.28635 7.5 4.5 8.4514 4.5 9.625L4.5 10.7234C4.5 10.9198 4.66089 11.0751 4.85309 11.1154C5.65033 11.2824 6.25 12.0038 6.25 12.8684C6.25 13.733 5.65033 14.4544 4.85309 14.6215C4.66089 14.6617 4.5 14.8171 4.5 15.0134L4.5 16.9865C4.5 17.1829 4.66089 17.3383 4.85309 17.3785C5.65033 17.5456 6.25 18.267 6.25 19.1316C6.25 19.9962 5.65033 20.7176 4.85309 20.8846C4.66089 20.9249 4.5 21.0802 4.5 21.2766L4.5 22.2632M21.7187 23.8289L21.7187 22.4868M21.7187 20.25L21.7187 18.9079M21.7187 16.671L21.7187 15.3289" stroke="black" stroke-width="1.5" stroke-linecap="round" stroke-linejoin="round"/>
<path id="Free" d="M14.8125 8.64588C14.8125 8.6459 14.812 8.64574 14.8109 8.64535L14.8125 8.64588ZM11.9249 7.31463C11.9249 7.31464 11.9242 7.31462 11.9229 7.31451L11.9249 7.31463ZM9.19536 11.7193C9.19529 11.7194 9.19504 11.7179 9.19481 11.7146C9.1953 11.7176 9.19542 11.7193 9.19536 11.7193ZM11.9248 6.59689C11.9249 6.5969 11.9242 6.59695 11.923 6.59699L11.9248 6.59689Z" stroke="black" stroke-width="1.5" stroke-linecap="round" stroke-linejoin="round"/>
</g>
</svg>
