<svg width="24" height="24" viewBox="0 0 24 24" fill="none" xmlns="http://www.w3.org/2000/svg">
<g id="Other=6-6-free, Size=24px, stroke width=1.5px">
<path id="6" d="M12.16 16.2974C12.733 16.2974 13.1779 16.1206 13.4949 15.7671C13.824 15.4014 13.9886 14.8772 13.9886 14.1945C13.9886 12.7926 13.3791 12.0916 12.16 12.0916C11.5871 12.0916 11.136 12.2745 10.8069 12.6402C10.4899 13.0059 10.3315 13.524 10.3315 14.1945C10.3315 14.8528 10.496 15.3709 10.8252 15.7488C11.1665 16.1145 11.6115 16.2974 12.16 16.2974ZM12.8915 9.7145C14.3787 9.7145 15.5124 10.0863 16.2926 10.8299C17.0728 11.5735 17.4629 12.6646 17.4629 14.1031C17.4629 15.5903 16.9936 16.7545 16.0549 17.5956C15.1162 18.4368 13.8179 18.8574 12.16 18.8574C10.4899 18.8574 9.18556 18.3514 8.24689 17.3396C7.32042 16.3156 6.85718 14.8101 6.85718 12.8231C6.85718 10.2753 7.38746 8.36135 8.44803 7.08135C9.50861 5.78916 11.0202 5.14307 12.9829 5.14307C13.6534 5.14307 14.336 5.19792 15.0309 5.30764C15.3235 5.3564 15.5612 5.50269 15.744 5.7465C15.9269 5.97811 16.0183 6.2463 16.0183 6.55107V7.20935C16.0183 7.45316 15.9147 7.6543 15.7075 7.81278C15.5124 7.95907 15.293 8.00173 15.0492 7.94078C14.3909 7.7823 13.7631 7.70307 13.1657 7.70307C11.5078 7.70307 10.557 8.57469 10.3132 10.3179C10.3132 10.3423 10.3193 10.3545 10.3315 10.3545H10.368C11.0629 9.92783 11.904 9.7145 12.8915 9.7145Z" stroke="black" stroke-width="1.5" stroke-linecap="round" stroke-linejoin="round"/>
</g>
</svg>
