<svg width="24" height="24" viewBox="0 0 24 24" fill="none" xmlns="http://www.w3.org/2000/svg">
<g id="Other=3-dots, Size=24px, weight=regular">
<g id="frame">
<path d="M13.7885 6.14423C13.7885 7.05231 13.0523 7.78846 12.1442 7.78846C11.2361 7.78846 10.5 7.05231 10.5 6.14423C10.5 5.23615 11.2361 4.5 12.1442 4.5C13.0523 4.5 13.7885 5.23615 13.7885 6.14423Z" stroke="black" stroke-width="1.5" stroke-linecap="round" stroke-linejoin="round"/>
<path d="M13.7885 18.1882C13.7885 19.0963 13.0524 19.8325 12.1443 19.8325C11.2362 19.8325 10.5001 19.0963 10.5001 18.1882C10.5001 17.2801 11.2362 16.544 12.1443 16.544C13.0524 16.544 13.7885 17.2801 13.7885 18.1882Z" stroke="black" stroke-width="1.5" stroke-linecap="round" stroke-linejoin="round"/>
<path d="M13.7885 12.1882C13.7885 13.0963 13.0523 13.8324 12.1442 13.8324C11.2361 13.8324 10.5 13.0963 10.5 12.1882C10.5 11.2801 11.2361 10.544 12.1442 10.544C13.0523 10.544 13.7885 11.2801 13.7885 12.1882Z" stroke="black" stroke-width="1.5" stroke-linecap="round" stroke-linejoin="round"/>
</g>
</g>
</svg>
