<svg width="32" height="32" viewBox="0 0 32 32" fill="none" xmlns="http://www.w3.org/2000/svg">
<g id="Other=3-dots-horizontal, Size=32px, stroke width=1.5px">
<g id="frame">
<path d="M24.2216 18.4139C23.0109 18.4139 22.0293 17.4324 22.0293 16.2216C22.0293 15.0108 23.0109 14.0293 24.2216 14.0293C25.4324 14.0293 26.4139 15.0108 26.4139 16.2216C26.4139 17.4324 25.4324 18.4139 24.2216 18.4139Z" stroke="black" stroke-width="1.5" stroke-linecap="round" stroke-linejoin="round"/>
<path d="M8.16296 18.414C6.95219 18.414 5.97066 17.4325 5.97066 16.2217C5.97066 15.0109 6.95219 14.0294 8.16296 14.0294C9.37374 14.0294 10.3553 15.0109 10.3553 16.2217C10.3553 17.4325 9.37374 18.414 8.16296 18.414Z" stroke="black" stroke-width="1.5" stroke-linecap="round" stroke-linejoin="round"/>
<path d="M16.163 18.4139C14.9522 18.4139 13.9707 17.4324 13.9707 16.2216C13.9707 15.0108 14.9522 14.0293 16.163 14.0293C17.3738 14.0293 18.3553 15.0108 18.3553 16.2216C18.3553 17.4324 17.3738 18.4139 16.163 18.4139Z" stroke="black" stroke-width="1.5" stroke-linecap="round" stroke-linejoin="round"/>
</g>
</g>
</svg>
