<svg width="16" height="16" viewBox="0 0 16 16" fill="none" xmlns="http://www.w3.org/2000/svg">
<g id="Other=6-6-free, Size=16px, stroke width=1.5px">
<path id="6" d="M8.10665 10.8649C8.48862 10.8649 8.78525 10.7471 8.99655 10.5114C9.21598 10.2676 9.3257 9.91811 9.3257 9.463C9.3257 8.52839 8.91935 8.06109 8.10665 8.06109C7.72468 8.06109 7.42398 8.183 7.20455 8.42681C6.99325 8.67062 6.8876 9.01601 6.8876 9.463C6.8876 9.90185 6.99732 10.2473 7.21674 10.4992C7.4443 10.743 7.74094 10.8649 8.10665 10.8649ZM8.59427 6.47633C9.58576 6.47633 10.3416 6.7242 10.8617 7.21995C11.3818 7.7157 11.6419 8.44306 11.6419 9.40204C11.6419 10.3935 11.329 11.1697 10.7032 11.7304C10.0774 12.2912 9.21192 12.5716 8.10665 12.5716C6.99325 12.5716 6.12367 12.2343 5.49789 11.5598C4.88024 10.8771 4.57141 9.87341 4.57141 8.54871C4.57141 6.85017 4.92493 5.57423 5.63198 4.7209C6.33903 3.85944 7.34678 3.42871 8.65522 3.42871C9.10221 3.42871 9.55732 3.46528 10.0206 3.53843C10.2156 3.57093 10.3741 3.66846 10.496 3.831C10.6179 3.98541 10.6788 4.1642 10.6788 4.36738V4.80623C10.6788 4.96877 10.6098 5.10287 10.4716 5.20852C10.3416 5.30604 10.1953 5.33449 10.0327 5.29385C9.59389 5.1882 9.17535 5.13538 8.77713 5.13538C7.67186 5.13538 7.03795 5.71646 6.87541 6.87862C6.87541 6.89487 6.87947 6.903 6.8876 6.903H6.91198C7.37522 6.61855 7.93598 6.47633 8.59427 6.47633Z" stroke="black" stroke-width="1.5" stroke-linecap="round" stroke-linejoin="round"/>
</g>
</svg>
