<svg width="16" height="16" viewBox="0 0 16 16" fill="none" xmlns="http://www.w3.org/2000/svg">
<g id="Other=partial-refund, Size=16px, weight=regular">
<path id="betslip" d="M1.66699 11.4998C1.66699 12.1442 2.1413 12.6665 2.72639 12.6665L4.7036 12.6665M8.67069 3.33317L2.72639 3.33317C2.1413 3.33317 1.66699 3.85551 1.66699 4.49984L1.66699 4.93894C1.66699 5.13729 1.83187 5.29221 2.0202 5.35444C2.42947 5.48966 2.72255 5.85324 2.72255 6.28054C2.72255 6.70783 2.42947 7.07142 2.0202 7.20664C1.83187 7.26887 1.66699 7.42379 1.66699 7.62214L1.66699 8.37754C1.66699 8.57589 1.83187 8.7308 2.0202 8.79303C2.42947 8.92826 2.72255 9.29184 2.72255 9.71914C2.72255 10.1464 2.42947 10.51 2.0202 10.6452C1.83187 10.7075 1.66699 10.8624 1.66699 11.0607L1.66699 11.4384" stroke="black" stroke-opacity="0.08" stroke-width="1.5" stroke-linecap="round"/>
<path id="betslip_2" d="M14.3332 11.4998C14.3332 12.1442 13.8589 12.6665 13.2738 12.6665L4.99812 12.6665M9.17964 3.33317L13.2738 3.33317C13.8589 3.33317 14.3332 3.85551 14.3332 4.49984L14.3332 4.93894C14.3332 5.13729 14.1683 5.29221 13.98 5.35443C13.5707 5.48966 13.2776 5.85324 13.2776 6.28054C13.2776 6.70783 13.5707 7.07142 13.98 7.20664C14.1683 7.26887 14.3332 7.42379 14.3332 7.62214L14.3332 8.37754C14.3332 8.57589 14.1683 8.7308 13.98 8.79303C13.5707 8.92826 13.2776 9.29184 13.2776 9.71914C13.2776 10.1464 13.5707 10.51 13.98 10.6452C14.1683 10.7075 14.3332 10.8624 14.3332 11.0607L14.3332 11.4384M10.2429 12.2981L10.2429 11.5612M10.2429 10.3332L10.2429 9.59633M10.2429 8.36826L10.2429 7.63142M10.2429 6.40335L10.2429 5.6665M10.2429 4.43843L10.2429 3.70159" stroke="black" stroke-width="1.5" stroke-linecap="round" stroke-linejoin="round"/>
<path id="Line 21" d="M9.92969 0.966797L4.04885 14.6139" stroke="black" stroke-width="1.5" stroke-linecap="round" stroke-linejoin="round"/>
</g>
</svg>
