<svg width="32" height="32" viewBox="0 0 32 32" fill="none" xmlns="http://www.w3.org/2000/svg">
<g id="Other=6-6-free, Size=32px, weight=regular">
<path id="6" d="M16.2131 21.7293C16.977 21.7293 17.5703 21.4936 17.9929 21.0223C18.4317 20.5346 18.6512 19.8357 18.6512 18.9255C18.6512 17.0563 17.8385 16.1217 16.2131 16.1217C15.4491 16.1217 14.8477 16.3655 14.4089 16.8531C13.9863 17.3407 13.775 18.0315 13.775 18.9255C13.775 19.8032 13.9944 20.494 14.4332 20.9979C14.8884 21.4855 15.4816 21.7293 16.2131 21.7293ZM17.1883 12.9522C19.1713 12.9522 20.6829 13.4479 21.7232 14.4394C22.7634 15.4309 23.2835 16.8856 23.2835 18.8036C23.2835 20.7866 22.6578 22.3388 21.4062 23.4604C20.1546 24.5819 18.4236 25.1426 16.2131 25.1426C13.9863 25.1426 12.2471 24.4681 10.9955 23.119C9.76023 21.7537 9.14258 19.7463 9.14258 17.0969C9.14258 13.6999 9.84963 11.148 11.2637 9.44132C12.6778 7.71839 14.6933 6.85693 17.3102 6.85693C18.2042 6.85693 19.1144 6.93008 20.0409 7.07636C20.431 7.14138 20.7479 7.33643 20.9917 7.66151C21.2355 7.97033 21.3574 8.32792 21.3574 8.73427V9.61198C21.3574 9.93706 21.2193 10.2053 20.943 10.4166C20.6829 10.6116 20.3903 10.6685 20.0652 10.5872C19.1875 10.3759 18.3505 10.2703 17.554 10.2703C15.3435 10.2703 14.0757 11.4324 13.7506 13.7567C13.7506 13.7893 13.7587 13.8055 13.775 13.8055H13.8237C14.7502 13.2366 15.8717 12.9522 17.1883 12.9522Z" stroke="black" stroke-width="1.5" stroke-linecap="round" stroke-linejoin="round"/>
</g>
</svg>
