<svg width="24" height="24" viewBox="0 0 24 24" fill="none" xmlns="http://www.w3.org/2000/svg">
<g id="Other=water-temperature, Size=24px, stroke width=1px">
<path id="water" d="M12.1635 8.23311C12.5385 7.48311 13.6681 6.67627 13.8 6.67627C14.3662 6.67627 19.05 10.9235 19.05 14.9113C19.05 17.819 16.6995 20.1763 13.8 20.1763C12.4257 20.1763 11.1747 19.6467 10.2389 18.7799" stroke="black" stroke-linecap="round" stroke-linejoin="round"/>
<path id="t" d="M9.11964 18.7768C7.16964 18.7768 5.77679 17.5697 5.77679 14.9929V10.1411H4.5V7.21609H5.77679V4.50002L9.42143 4.5V7.21609H12.1607V10.1411H9.42143V14.3197C9.42143 15.0625 9.58393 15.5965 10.2804 15.5965C10.5357 15.5965 11 15.5268 11.3946 15.3411L12.3 18.0107C11.5107 18.4518 10.6982 18.7768 9.11964 18.7768Z" stroke="black" stroke-linecap="round" stroke-linejoin="round"/>
</g>
</svg>
