<svg width="32" height="32" viewBox="0 0 32 32" fill="none" xmlns="http://www.w3.org/2000/svg">
<g id="Other=partial-refund, Size=32px, weight=regular">
<path id="betslip" d="M3.33301 23.0002C3.33301 24.2888 4.28162 25.3335 5.4518 25.3335L9.40622 25.3335M17.3404 6.66683L5.4518 6.66683C4.28162 6.66683 3.33301 7.7115 3.33301 9.00016L3.33301 10.2375C3.33301 10.4359 3.49493 10.5936 3.69082 10.6248C4.68634 10.7829 5.44412 11.5899 5.44412 12.5616C5.44412 13.5332 4.68634 14.3402 3.69082 14.4984C3.49493 14.5295 3.33301 14.6873 3.33301 14.8856L3.33301 17.1147C3.33301 17.3131 3.49493 17.4708 3.69082 17.502C4.68634 17.6601 5.44412 18.4671 5.44412 19.4388C5.44412 20.4104 4.68634 21.2174 3.69082 21.3756C3.49493 21.4067 3.33301 21.5645 3.33301 21.7628L3.33301 22.8774" stroke="black" stroke-opacity="0.08" stroke-width="1.5" stroke-linecap="round"/>
<path id="betslip_2" d="M28.6664 23.0002C28.6664 24.2888 27.7177 25.3335 26.5476 25.3335L9.99625 25.3335M18.3593 6.66683L26.5476 6.66683C27.7177 6.66683 28.6664 7.7115 28.6664 9.00016L28.6664 10.2375C28.6664 10.4359 28.5044 10.5936 28.3085 10.6248C27.313 10.7829 26.5552 11.5899 26.5552 12.5616C26.5552 13.5332 27.313 14.3402 28.3085 14.4984C28.5044 14.5295 28.6664 14.6873 28.6664 14.8856L28.6664 17.1147C28.6664 17.3131 28.5044 17.4708 28.3085 17.502C27.313 17.6601 26.5552 18.4671 26.5552 19.4388C26.5552 20.4104 27.313 21.2174 28.3085 21.3756C28.5044 21.4067 28.6664 21.5645 28.6664 21.7628L28.6664 22.8774M20.4858 24.5967L20.4858 23.123M20.4858 20.6668L20.4858 19.1931M20.4858 16.737L20.4858 15.2633M20.4858 12.8072L20.4858 11.3335M20.4858 8.87736L20.4858 7.40367" stroke="black" stroke-width="1.5" stroke-linecap="round" stroke-linejoin="round"/>
<path id="Line 21" d="M19.8594 1.93311L8.0977 29.2272" stroke="black" stroke-width="1.5" stroke-linecap="round" stroke-linejoin="round"/>
</g>
</svg>
