<svg width="32" height="32" viewBox="0 0 32 32" fill="none" xmlns="http://www.w3.org/2000/svg">
<g id="Other=partial-refund, Size=32px, stroke width=1px">
<path id="betslip" d="M3.33337 22.9999C3.33337 24.2886 4.28199 25.3333 5.45216 25.3333L9.40658 25.3333M17.3408 6.66659L5.45216 6.66659C4.28199 6.66659 3.33337 7.71126 3.33337 8.99992L3.33337 10.2373C3.33337 10.4356 3.49529 10.5934 3.69118 10.6245C4.68671 10.7827 5.44448 11.5896 5.44448 12.5613C5.44448 13.533 4.6867 14.3399 3.69118 14.4981C3.49529 14.5293 3.33337 14.687 3.33337 14.8854L3.33337 17.1145C3.33337 17.3128 3.49529 17.4706 3.69118 17.5017C4.6867 17.6599 5.44448 18.4668 5.44448 19.4385C5.44448 20.4102 4.6867 21.2171 3.69118 21.3753C3.49529 21.4064 3.33337 21.5642 3.33337 21.7626L3.33337 22.8771" stroke="black" stroke-opacity="0.08" stroke-linecap="round"/>
<path id="betslip_2" d="M28.6667 22.9999C28.6667 24.2886 27.7181 25.3333 26.5479 25.3333L9.99661 25.3333M18.3597 6.66659L26.5479 6.66659C27.7181 6.66659 28.6667 7.71126 28.6667 8.99992L28.6667 10.2373C28.6667 10.4356 28.5048 10.5934 28.3089 10.6245C27.3134 10.7827 26.5556 11.5896 26.5556 12.5613C26.5556 13.533 27.3134 14.3399 28.3089 14.4981C28.5048 14.5293 28.6667 14.687 28.6667 14.8854L28.6667 17.1145C28.6667 17.3128 28.5048 17.4706 28.3089 17.5017C27.3134 17.6599 26.5556 18.4668 26.5556 19.4385C26.5556 20.4102 27.3134 21.2171 28.3089 21.3753C28.5048 21.4064 28.6667 21.5642 28.6667 21.7626L28.6667 22.8771M20.4862 24.5964L20.4862 23.1227M20.4862 20.6666L20.4862 19.1929M20.4862 16.7368L20.4862 15.2631M20.4862 12.8069L20.4862 11.3333M20.4862 8.87711L20.4862 7.40343" stroke="black" stroke-linecap="round" stroke-linejoin="round"/>
<path id="Line 21" d="M19.859 1.93335L8.09733 29.2275" stroke="black" stroke-linecap="round" stroke-linejoin="round"/>
</g>
</svg>
