<svg width="24" height="24" viewBox="0 0 24 24" fill="none" xmlns="http://www.w3.org/2000/svg">
<g id="Other=4-3-free, Size=24px, stroke width=1px">
<path id="4" d="M12.0117 13.3338V9.48255C12.0117 9.47002 12.0055 9.46376 11.993 9.46376C11.9679 9.46376 11.9554 9.47002 11.9554 9.48255L9.21252 13.4465L9.19374 13.4653V13.4841C9.19374 13.4966 9.2 13.5029 9.21252 13.5029H11.8427C11.9554 13.5029 12.0117 13.4465 12.0117 13.3338ZM16.389 13.5029C16.6771 13.5029 16.9276 13.6094 17.1405 13.8223C17.3534 14.0352 17.4599 14.2857 17.4599 14.5737V15.344C17.4599 15.6321 17.3534 15.8825 17.1405 16.0955C16.9276 16.3084 16.6771 16.4148 16.389 16.4148H15.7315C15.6313 16.4148 15.5812 16.4712 15.5812 16.5839V17.7863C15.5812 18.0743 15.4748 18.3248 15.2618 18.5377C15.0489 18.7507 14.7984 18.8571 14.5104 18.8571H13.0826C12.7945 18.8571 12.544 18.7507 12.3311 18.5377C12.1182 18.3248 12.0117 18.0743 12.0117 17.7863V16.5839C12.0117 16.4712 11.9554 16.4148 11.8427 16.4148H7.07084C6.78278 16.4148 6.53229 16.3084 6.31937 16.0955C6.10646 15.8825 6 15.6321 6 15.344V14.5737C6 13.8724 6.20665 13.2274 6.61996 12.6387L11.3918 6.00701C11.8051 5.43088 12.3687 5.14282 13.0826 5.14282H14.5104C14.7984 5.14282 15.0489 5.24928 15.2618 5.46219C15.4748 5.67511 15.5812 5.9256 15.5812 6.21366V13.3338C15.5812 13.4465 15.6313 13.5029 15.7315 13.5029H16.389Z" stroke="black" stroke-linecap="round" stroke-linejoin="round"/>
</g>
</svg>
