<svg width="24" height="24" viewBox="0 0 24 24" fill="none" xmlns="http://www.w3.org/2000/svg">
<g id="Other=freebet, Size=24px, weight=light">
<path id="betslip" d="M20.625 16.7812C20.625 17.6615 20.0352 18.375 19.3077 18.375L5.67188 18.375M19.3077 5.625C20.0352 5.625 20.625 6.33855 20.625 7.21875L20.625 7.95365C20.625 8.15002 20.4628 8.30427 20.2738 8.35779C19.7195 8.51481 19.3125 9.03446 19.3125 9.65131C19.3125 10.2682 19.7195 10.7878 20.2738 10.9448C20.4628 10.9984 20.625 11.1526 20.625 11.349L20.625 12.651C20.625 12.8474 20.4628 13.0016 20.2738 13.0552C19.7195 13.2122 19.3125 13.7318 19.3125 14.3487C19.3125 14.9655 19.7195 15.4852 20.2738 15.6422C20.4628 15.6957 20.625 15.85 20.625 16.0463L20.625 16.6974M3.375 16.7812C3.375 17.6615 3.96476 18.375 4.69227 18.375L5.99523 18.375M4.69227 5.625C3.96476 5.625 3.375 6.33855 3.375 7.21875L3.375 7.95365C3.375 8.15002 3.53723 8.30427 3.72616 8.35779C4.28053 8.51481 4.6875 9.03446 4.6875 9.65132C4.6875 10.2682 4.28053 10.7878 3.72616 10.9448C3.53723 10.9984 3.375 11.1526 3.375 11.349L3.375 12.651C3.375 12.8474 3.53723 13.0016 3.72616 13.0552C4.28053 13.2122 4.6875 13.7318 4.6875 14.3487C4.6875 14.9655 4.28053 15.4852 3.72616 15.6422C3.53723 15.6957 3.375 15.85 3.375 16.0463L3.375 16.6974M16.2891 17.8717L16.2891 16.8651M16.2891 15.1875L16.2891 14.1809M16.2891 12.5033L16.2891 11.4967" stroke="black" stroke-linecap="round" stroke-linejoin="round"/>
<path id="Free" d="M7.00381 7.15014C6.86574 7.15014 6.75381 7.26207 6.75381 7.40014V8.81914C6.75381 8.84474 6.75129 8.86053 6.74907 8.86943C6.74193 8.87084 6.73046 8.87229 6.71356 8.87229H6.61036C6.60449 8.87229 6.60006 8.87195 6.59687 8.87154C6.59205 8.86036 6.58301 8.83177 6.58301 8.77399V5.29744C6.58301 5.23722 6.60116 5.20913 6.61176 5.19798C6.62128 5.18796 6.64163 5.17334 6.68776 5.17334H8.93881C8.96896 5.17334 8.98742 5.17652 8.99771 5.17926C8.99811 5.18312 8.99841 5.18807 8.99841 5.19424V5.23294C8.99841 5.24234 8.99782 5.24939 8.99713 5.25445C8.98709 5.25713 8.96886 5.26029 8.93881 5.26029H6.99091C6.85284 5.26029 6.74091 5.37222 6.74091 5.51029V6.83899C6.74091 6.97706 6.85284 7.08899 6.99091 7.08899H8.43571C8.46415 7.08899 8.48326 7.09167 8.49506 7.09436C8.49521 7.09699 8.49531 7.1 8.49531 7.10344V7.12924C8.49531 7.13555 8.49504 7.14072 8.49467 7.14487C8.48292 7.14753 8.46393 7.15014 8.43571 7.15014H7.00381ZM6.74573 8.87909C6.74572 8.87908 6.74585 8.87882 6.74614 8.87834L6.74573 8.87909ZM10.0157 6.50359C10.0157 6.62091 10.0971 6.7218 10.2104 6.74741C10.0721 7.01187 10.0221 7.35885 10.0221 7.72909V8.81914C10.0221 8.84403 10.0198 8.86048 10.0177 8.87045C10.0109 8.87145 10.0013 8.87229 9.98831 8.87229H9.91736C9.9045 8.87229 9.89473 8.87157 9.88757 8.87066C9.88554 8.86006 9.88356 8.84344 9.88356 8.81914V6.21243C9.91223 6.21458 9.92997 6.22186 9.94105 6.2296C9.9508 6.23641 9.97653 6.2578 9.99629 6.32838C10.0071 6.38371 10.0157 6.44027 10.0157 6.50359ZM10.9752 6.27294C10.8553 6.27294 10.7424 6.29405 10.639 6.33711C10.6628 6.30945 10.6877 6.2861 10.7135 6.26652C10.7941 6.20533 10.9016 6.16664 11.0526 6.16664C11.1773 6.16664 11.2418 6.19685 11.2704 6.2201C11.2921 6.23783 11.3121 6.26601 11.3121 6.32944C11.3121 6.33192 11.3121 6.33434 11.312 6.33671C11.2158 6.29722 11.1046 6.27294 10.9752 6.27294ZM11.8608 7.87339L11.8608 7.87339L11.8612 7.87591C11.9738 8.51116 12.4893 8.92724 13.1523 8.92724C13.4612 8.92724 13.7108 8.85874 13.9116 8.73703C14.034 8.66279 14.1321 8.57257 14.2116 8.47597C14.2116 8.4764 14.2116 8.47684 14.2116 8.47729C14.2116 8.47717 14.2116 8.47721 14.2116 8.47741C14.2113 8.47989 14.2079 8.50619 14.1736 8.55296C14.1383 8.60128 14.0779 8.65981 13.9868 8.71713C13.8041 8.83191 13.5221 8.93034 13.1394 8.93034C12.7057 8.93034 12.3624 8.78726 12.1284 8.5559C11.8946 8.32478 11.7511 7.98694 11.7511 7.56139C11.7511 6.97837 12.0432 6.51424 12.492 6.29834C12.1519 6.48479 11.916 6.83163 11.8537 7.24695C11.8429 7.31893 11.864 7.39203 11.9115 7.44718C11.929 7.46752 11.9495 7.48467 11.972 7.49821C11.8959 7.54107 11.8445 7.62263 11.8445 7.71619C11.8445 7.77604 11.854 7.83258 11.8599 7.86809C11.8602 7.86992 11.8605 7.87168 11.8608 7.87339ZM13.88 6.46656C13.7827 6.36723 13.6683 6.29056 13.5406 6.23761C13.7192 6.29846 13.869 6.39603 13.9877 6.52098C14.1953 6.73949 14.3253 7.0607 14.3277 7.46619H14.1298C14.1335 7.46272 14.1371 7.45913 14.1406 7.45542C14.1878 7.40525 14.2122 7.3378 14.2081 7.26901C14.1891 6.95421 14.0811 6.67202 13.88 6.46656ZM15.194 7.87339L15.194 7.87339L15.1945 7.87591C15.3071 8.51116 15.8226 8.92724 16.4855 8.92724C16.7945 8.92724 17.0441 8.85874 17.2448 8.73703C17.3673 8.66279 17.4653 8.57257 17.5449 8.47597C17.5449 8.4764 17.5449 8.47684 17.5449 8.47729C17.5449 8.47717 17.5449 8.47721 17.5449 8.47741C17.5445 8.47989 17.5411 8.50619 17.5069 8.55296C17.4715 8.60128 17.4112 8.65981 17.32 8.71713C17.1374 8.83191 16.8553 8.93034 16.4726 8.93034C16.0389 8.93034 15.6956 8.78726 15.4616 8.5559C15.2279 8.32478 15.0843 7.98694 15.0843 7.56139C15.0843 6.97837 15.3765 6.51425 15.8253 6.29834C15.4851 6.48479 15.2493 6.83163 15.187 7.24695C15.1762 7.31893 15.1973 7.39203 15.2448 7.44718C15.2623 7.46752 15.2827 7.48466 15.3052 7.49821C15.2291 7.54107 15.1777 7.62263 15.1777 7.71619C15.1777 7.77603 15.1872 7.83256 15.1932 7.86808L15.194 7.87339ZM17.2132 6.46656C17.116 6.36723 17.0015 6.29056 16.8738 6.23761C17.0524 6.29845 17.2023 6.39603 17.321 6.52098C17.5286 6.73949 17.6586 7.0607 17.661 7.46619H17.463C17.4667 7.46272 17.4703 7.45913 17.4738 7.45542C17.5211 7.40525 17.5455 7.3378 17.5413 7.26901C17.5224 6.95421 17.4144 6.67202 17.2132 6.46656Z" stroke="black" stroke-width="0.5" stroke-linecap="round" stroke-linejoin="round"/>
</g>
</svg>
