<svg width="24" height="24" viewBox="0 0 24 24" fill="none" xmlns="http://www.w3.org/2000/svg">
<g id="Other=3-dots-horizontal, Size=24px, weight=light">
<g id="frame">
<path d="M18.1663 13.8104C17.2582 13.8104 16.5221 13.0743 16.5221 12.1662C16.5221 11.2581 17.2582 10.522 18.1663 10.522C19.0744 10.522 19.8105 11.2581 19.8105 12.1662C19.8105 13.0743 19.0744 13.8104 18.1663 13.8104Z" stroke="black" stroke-linecap="round" stroke-linejoin="round"/>
<path d="M6.12231 13.8105C5.21423 13.8105 4.47808 13.0743 4.47808 12.1663C4.47808 11.2582 5.21423 10.522 6.12231 10.522C7.0304 10.522 7.76654 11.2582 7.76654 12.1663C7.76654 13.0743 7.0304 13.8105 6.12231 13.8105Z" stroke="black" stroke-linecap="round" stroke-linejoin="round"/>
<path d="M12.1223 13.8104C11.2142 13.8104 10.4781 13.0743 10.4781 12.1662C10.4781 11.2581 11.2142 10.522 12.1223 10.522C13.0304 10.522 13.7666 11.2581 13.7666 12.1662C13.7666 13.0743 13.0304 13.8104 12.1223 13.8104Z" stroke="black" stroke-linecap="round" stroke-linejoin="round"/>
</g>
</g>
</svg>
