<svg width="32" height="32" viewBox="0 0 32 32" fill="none" xmlns="http://www.w3.org/2000/svg">
<g id="Other=water-temperature, Size=32px, weight=regular">
<path id="water" d="M16.2185 10.9776C16.7185 9.97764 18.2247 8.90186 18.4005 8.90186C19.1554 8.90186 25.4005 14.5648 25.4005 19.8819C25.4005 23.7589 22.2665 26.9019 18.4005 26.9019C16.5681 26.9019 14.9001 26.1958 13.6523 25.0401" stroke="black" stroke-width="1.5" stroke-linecap="round" stroke-linejoin="round"/>
<path id="t" d="M12.1595 25.0357C9.55952 25.0357 7.70238 23.4262 7.70238 19.9905V13.5215H6V9.62146H7.70238V6.00003L12.5619 6V9.62146H16.2143V13.5215H12.5619V19.0929C12.5619 20.0834 12.7786 20.7953 13.7071 20.7953C14.0476 20.7953 14.6667 20.7024 15.1929 20.4548L16.4 24.0143C15.3476 24.6024 14.2643 25.0357 12.1595 25.0357Z" stroke="black" stroke-width="1.5" stroke-linecap="round" stroke-linejoin="round"/>
</g>
</svg>
