<svg width="24" height="24" viewBox="0 0 24 24" fill="none" xmlns="http://www.w3.org/2000/svg">
<g id="Other=waves, Size=24px, stroke width=1px">
<path id="Vector" d="M7.22309 8.73919C5.77113 10.1281 6.76478 11.6971 7.99555 11.5051M19.5 12.3261C19.5 8.27317 16.2899 4.5 12.3923 4.5C9.14898 4.5 7.45451 5.49717 6.59761 6.78904C5.87832 7.87316 5.5579 9.19229 6.70792 9.40607M8.5144 10.3763C7.19778 12.0001 8.64206 12.8151 9.32297 12.8151C11.8252 12.8151 10.0923 8.28322 14.6537 7.93686C17.2113 7.74259 19.5 9.87266 19.5 12.9784C19.5 17.1817 17.2056 19.2073 14.977 19.1755C14.2662 19.1654 13.707 18.9462 13.0431 18.5218C11.793 19.826 9.77019 19.826 8.52009 18.5218C7.42665 19.6627 5.74185 19.8056 4.50028 18.9505M11.6455 9.59345C11.8792 9.5111 12.1305 9.46605 12.3921 9.46605C13.641 9.46605 14.6537 10.7393 14.6537 11.9999C14.6537 14.4169 12.4455 17.3252 8.51526 16.565H8.51981C7.42636 17.706 5.74157 17.8489 4.5 16.9937M12.7142 8.49614C14.6281 7.7578 17.0769 9.69446 17.0769 12.4891C17.0769 13.459 16.8517 14.3144 16.4821 15.0356" stroke="black" stroke-linecap="round" stroke-linejoin="round"/>
</g>
</svg>
