<svg width="24" height="24" viewBox="0 0 24 24" fill="none" xmlns="http://www.w3.org/2000/svg">
<g id="Other=crown, Size=24px, stroke width=1px">
<path id="crown" d="M8.10427 11.0008L8.91125 9.46486L10.2104 10.884M16.0419 11.0008L15.2784 9.38019L13.8366 11.0483M6.33029 15.9949H17.6698M17.3916 18L19.0212 10.21C19.2566 10.1102 19.4639 9.95666 19.6255 9.76242C19.7872 9.56818 19.8984 9.33892 19.9499 9.09399C20.1586 8.22354 19.696 7.33108 18.9186 7.09737C18.1411 6.86367 17.3394 7.3768 17.1307 8.24725C17.0697 8.50062 17.0654 8.76382 17.1183 9.01893C17.1711 9.27405 17.2797 9.51509 17.4368 9.72566L14.5428 12.6842L12.821 8.97714C13.0256 8.81302 13.1894 8.60583 13.3 8.37116C13.4105 8.1365 13.465 7.88047 13.4592 7.62235C13.4592 6.72989 12.8053 6 12.0001 6C11.1948 6 10.5409 6.72989 10.5409 7.62913C10.5351 7.88725 10.5896 8.14327 10.7001 8.37794C10.8107 8.6126 10.9745 8.81979 11.1792 8.98391L9.45736 12.6909L6.56334 9.72566C6.72139 9.51426 6.83058 9.27207 6.88342 9.0157C6.93626 8.75934 6.93149 8.49488 6.86944 8.24047C6.66074 7.37003 5.86071 6.85521 5.08155 7.08721C4.30239 7.31922 3.8415 8.22015 4.05021 9.0906C4.10142 9.33564 4.21258 9.56503 4.37426 9.75931C4.53594 9.95359 4.74337 10.107 4.97894 10.2066L6.60856 17.9966H17.3916V18Z" stroke="black" stroke-linecap="round" stroke-linejoin="round"/>
</g>
</svg>
