<svg width="32" height="32" viewBox="0 0 32 32" fill="none" xmlns="http://www.w3.org/2000/svg">
<g id="Other=4-3-free, Size=32px, stroke width=1px">
<path id="4" d="M16.0157 17.7785V12.6435C16.0157 12.6268 16.0073 12.6184 15.9906 12.6184C15.9572 12.6184 15.9405 12.6268 15.9405 12.6435L12.2834 17.9288L12.2583 17.9539V17.9789C12.2583 17.9956 12.2667 18.0039 12.2834 18.0039H15.7902C15.9405 18.0039 16.0157 17.9288 16.0157 17.7785ZM21.8521 18.0039C22.2361 18.0039 22.5701 18.1459 22.854 18.4298C23.1379 18.7137 23.2798 19.0477 23.2798 19.4317V20.4587C23.2798 20.8428 23.1379 21.1768 22.854 21.4607C22.5701 21.7446 22.2361 21.8865 21.8521 21.8865H20.9753C20.8417 21.8865 20.775 21.9617 20.775 22.112V23.7151C20.775 24.0992 20.633 24.4332 20.3491 24.7171C20.0652 25.0009 19.7312 25.1429 19.3472 25.1429H17.4434C17.0594 25.1429 16.7254 25.0009 16.4415 24.7171C16.1576 24.4332 16.0157 24.0992 16.0157 23.7151V22.112C16.0157 21.9617 15.9405 21.8865 15.7902 21.8865H9.42779C9.04371 21.8865 8.70972 21.7446 8.42583 21.4607C8.14194 21.1768 8 20.8428 8 20.4587V19.4317C8 18.4966 8.27554 17.6366 8.82661 16.8517L15.189 8.00943C15.7401 7.24126 16.4916 6.85718 17.4434 6.85718H19.3472C19.7312 6.85718 20.0652 6.99912 20.3491 7.28301C20.633 7.5669 20.775 7.90088 20.775 8.28497V17.7785C20.775 17.9288 20.8417 18.0039 20.9753 18.0039H21.8521Z" stroke="black" stroke-linecap="round" stroke-linejoin="round"/>
</g>
</svg>
