<svg width="24" height="24" viewBox="0 0 24 24" fill="none" xmlns="http://www.w3.org/2000/svg">
<g id="Other=claps, Size=24px, weight=light">
<path id="Vector" d="M11.7187 13.3466L5.89618 10.7703C5.3989 10.5493 4.81369 10.7654 4.58838 11.2531C4.36308 11.7407 4.58335 12.3147 5.08064 12.5356L10.1676 14.8066M6.18352 13.0281C5.68623 12.8072 5.07998 13.0332 4.85467 13.5209C4.62937 14.0085 4.84964 14.5825 5.34693 14.8034L10.0702 16.9128M6.81983 15.4615C6.32254 15.2406 5.71058 15.4635 5.48593 15.951C5.26063 16.4387 5.4809 17.0126 5.97819 17.2335L11.4288 19.6661L12.0776 19.9243C14.2963 20.807 16.8321 19.8377 17.8577 17.716C18.0524 17.3135 18.1649 17.0842 18.3801 16.629C18.9364 15.4534 18.5437 13.839 17.5061 13.0433L17.4773 13.0213C16.1959 11.7986 15.3836 10.2127 14.977 9.2771C14.776 8.81438 14.2359 8.58999 13.7498 8.76944L13.7485 8.76993C13.2168 8.96621 12.9691 9.56053 13.2126 10.0556L14.3605 12.3726L7.81074 9.4731C7.31345 9.25214 6.72824 9.46816 6.50294 9.95585C6.27763 10.4435 6.50413 11.0396 7.00142 11.2605M12.4796 8.07926L8.3425 4.73661C7.92113 4.39518 7.3012 4.45393 6.95777 4.86764C6.61433 5.28136 6.67664 5.89362 7.098 6.23504L11.4058 9.73951M8.02737 6.99239C7.60601 6.65097 6.96692 6.71678 6.62348 7.1305C6.32269 7.49223 6.34758 8.04435 6.63713 8.39598M19.1747 13.1052C19.6751 12.1159 19.6011 10.7935 18.9325 9.91775L18.9108 9.88877C17.9948 8.37657 17.6257 6.63293 17.4773 5.62351C17.4043 5.12467 16.9426 4.76855 16.4275 4.81745L16.4261 4.81794C15.8627 4.87063 15.4695 5.38258 15.5752 5.92334L16.0782 8.45989L10.5235 3.97212C10.1022 3.63069 9.48225 3.68944 9.13881 4.10316C8.79538 4.51687 8.85515 5.15003 9.27626 5.49081" stroke="black" stroke-linecap="round" stroke-linejoin="round"/>
</g>
</svg>
