<svg width="32" height="32" viewBox="0 0 32 32" fill="none" xmlns="http://www.w3.org/2000/svg">
<g id="Other=claps, Size=32px, stroke width=1.5px">
<path id="Vector" d="M15.6251 17.7955L7.86182 14.3604C7.19877 14.0658 6.41849 14.3538 6.11809 15.0041C5.81768 15.6543 6.11138 16.4196 6.77443 16.7142L13.557 19.7422M8.24494 17.3708C7.58189 17.0762 6.77354 17.3776 6.47314 18.0278C6.17273 18.6781 6.46643 19.4433 7.12948 19.7379L13.4272 22.5505M9.09335 20.6154C8.4303 20.3208 7.61435 20.618 7.31482 21.268C7.01442 21.9182 7.30812 22.6835 7.97117 22.9781L15.2386 26.2215L16.1037 26.5658C19.062 27.7426 22.443 26.4502 23.8105 23.6213C24.0701 23.0847 24.2202 22.7789 24.5071 22.1721C25.2487 20.6046 24.7252 18.452 23.3417 17.391L23.3033 17.3618C21.5947 15.7315 20.5117 13.6169 19.9696 12.3695C19.7016 11.7525 18.9815 11.4533 18.3333 11.6926L18.3316 11.6932C17.6226 11.9549 17.2923 12.7474 17.6171 13.4075L19.1476 16.4968L10.4146 12.6308C9.75151 12.3362 8.97123 12.6242 8.67083 13.2745C8.37042 13.9247 8.67241 14.7194 9.33547 15.014M16.6398 10.7723L11.1236 6.31548C10.5618 5.86025 9.73518 5.93858 9.27727 6.49019C8.81935 7.04181 8.90242 7.85816 9.46424 8.31339L15.208 12.986M10.7034 9.32319C10.1416 8.86795 9.28947 8.95571 8.83155 9.50733C8.43049 9.98965 8.46369 10.7258 8.84975 11.1946M25.5666 17.4736C26.2337 16.1545 26.1351 14.3914 25.2435 13.2237L25.2146 13.185C23.9933 11.1688 23.5012 8.8439 23.3034 7.49801C23.2059 6.8329 22.5904 6.35807 21.9035 6.42327L21.9018 6.42392C21.1505 6.49417 20.6262 7.17677 20.7672 7.89779L21.4379 11.2799L14.0316 5.29616C13.4698 4.84093 12.6432 4.91926 12.1853 5.47087C11.7274 6.02249 11.8071 6.86671 12.3686 7.32108" stroke="black" stroke-width="1.5" stroke-linecap="round" stroke-linejoin="round"/>
</g>
</svg>
