<svg width="24" height="24" viewBox="0 0 24 24" fill="none" xmlns="http://www.w3.org/2000/svg">
<g id="Other=freebet, Size=24px, stroke width=1px">
<path id="betslip" d="M20.625 16.7812C20.625 17.6615 20.0352 18.375 19.3077 18.375L5.67188 18.375M19.3077 5.625C20.0352 5.625 20.625 6.33855 20.625 7.21875L20.625 7.95365C20.625 8.15002 20.4628 8.30427 20.2738 8.35779C19.7195 8.51481 19.3125 9.03446 19.3125 9.65131C19.3125 10.2682 19.7195 10.7878 20.2738 10.9448C20.4628 10.9984 20.625 11.1526 20.625 11.349L20.625 12.651C20.625 12.8474 20.4628 13.0016 20.2738 13.0552C19.7195 13.2122 19.3125 13.7318 19.3125 14.3487C19.3125 14.9655 19.7195 15.4852 20.2738 15.6422C20.4628 15.6957 20.625 15.85 20.625 16.0463L20.625 16.6974M3.375 16.7812C3.375 17.6615 3.96476 18.375 4.69227 18.375L5.99523 18.375M4.69227 5.625C3.96476 5.625 3.375 6.33855 3.375 7.21875L3.375 7.95365C3.375 8.15002 3.53723 8.30427 3.72616 8.35779C4.28053 8.51481 4.6875 9.03446 4.6875 9.65132C4.6875 10.2682 4.28053 10.7878 3.72616 10.9448C3.53723 10.9984 3.375 11.1526 3.375 11.349L3.375 12.651C3.375 12.8474 3.53723 13.0016 3.72616 13.0552C4.28053 13.2122 4.6875 13.7318 4.6875 14.3487C4.6875 14.9655 4.28053 15.4852 3.72616 15.6422C3.53723 15.6957 3.375 15.85 3.375 16.0463L3.375 16.6974M16.2891 17.8717L16.2891 16.8651M16.2891 15.1875L16.2891 14.1809M16.2891 12.5033L16.2891 11.4967" stroke="black" stroke-linecap="round" stroke-linejoin="round"/>
<path id="Free" d="M6.8349 8.79763C6.83486 8.79766 6.83466 8.79673 6.83442 8.79472L6.8349 8.79763ZM8.44654 7.33929C8.44811 7.3394 8.44884 7.33951 8.44881 7.33953L8.44654 7.33929ZM8.44645 6.89986C8.44831 6.89958 8.44932 6.89951 8.44936 6.89955L8.44645 6.89986Z" stroke="black" stroke-linecap="round" stroke-linejoin="round"/>
</g>
</svg>
