<svg width="24" height="24" viewBox="0 0 24 24" fill="none" xmlns="http://www.w3.org/2000/svg">
<g id="Other=lightning, Size=24px, weight=regular">
<path id="lightning" d="M16.444 6.89715C16.5098 6.80637 16.5866 6.72373 16.6545 6.63444C17.1831 5.9387 16.7079 4.875 15.796 4.875H11.4138C11.1053 4.875 10.8117 5.00967 10.6073 5.24487L7.3974 10.1776C6.78256 10.885 7.27601 12 8.20396 12H8.40547C9.26302 12 9.75803 12.9583 9.32439 13.6687C9.27545 13.7489 9.22511 13.829 9.18945 13.9159L7.62009 17.7397C7.54877 17.9135 7.43411 18.0711 7.38473 18.2523C7.27196 18.6662 7.5691 19.125 8.03979 19.125C8.16831 19.125 8.29419 19.0878 8.40273 19.0177L15.0156 13.7064C15.7841 13.2103 15.4388 12 14.5288 12C13.7392 12 13.3375 11.0551 13.8407 10.47C13.8773 10.4275 13.915 10.3857 13.9479 10.3403L16.444 6.89715Z" stroke="black" stroke-width="1.5" stroke-linecap="round" stroke-linejoin="round"/>
</g>
</svg>
