<svg width="32" height="32" viewBox="0 0 32 32" fill="none" xmlns="http://www.w3.org/2000/svg">
<g id="Other=freebet, Size=32px, stroke width=1px">
<path id="betslip" d="M27.5 22.375C27.5 23.5486 26.7136 24.5 25.7436 24.5L7.5625 24.5M25.7436 7.5C26.7136 7.5 27.5 8.45139 27.5 9.625L27.5 10.7234C27.5 10.9198 27.3391 11.0751 27.1469 11.1154C26.3497 11.2824 25.75 12.0038 25.75 12.8684C25.75 13.733 26.3497 14.4544 27.1469 14.6215C27.3391 14.6617 27.5 14.8171 27.5 15.0134L27.5 16.9865C27.5 17.1829 27.3391 17.3383 27.1469 17.3785C26.3497 17.5456 25.75 18.267 25.75 19.1316C25.75 19.9962 26.3497 20.7176 27.1469 20.8846C27.3391 20.9249 27.5 21.0802 27.5 21.2766L27.5 22.2632M4.5 22.375C4.5 23.5486 5.28635 24.5 6.25636 24.5L7.99363 24.5M6.25636 7.5C5.28635 7.5 4.5 8.4514 4.5 9.625L4.5 10.7234C4.5 10.9198 4.66089 11.0751 4.85309 11.1154C5.65033 11.2824 6.25 12.0038 6.25 12.8684C6.25 13.733 5.65033 14.4544 4.85309 14.6215C4.66089 14.6617 4.5 14.8171 4.5 15.0134L4.5 16.9865C4.5 17.1829 4.66089 17.3383 4.85309 17.3785C5.65033 17.5456 6.25 18.267 6.25 19.1316C6.25 19.9962 5.65033 20.7176 4.85309 20.8846C4.66089 20.9249 4.5 21.0802 4.5 21.2766L4.5 22.2632M21.7187 23.8289L21.7187 22.4868M21.7187 20.25L21.7187 18.9079M21.7187 16.671L21.7187 15.3289" stroke="black" stroke-linecap="round" stroke-linejoin="round"/>
<path id="Free" d="M8.94434 9.44687C8.96104 9.46605 8.97918 9.48394 8.99859 9.50038C8.97897 9.51859 8.96083 9.53836 8.94434 9.55949V9.44687ZM11.956 7.0671C11.956 7.06713 11.9553 7.06701 11.9541 7.06667L11.956 7.0671ZM11.9553 6.84451C11.9554 6.84453 11.9547 6.8447 11.9534 6.84494L11.9553 6.84451ZM11.2886 9.62126C11.2901 9.62153 11.2907 9.62171 11.2907 9.62174L11.2886 9.62126ZM11.2884 9.36431C11.2898 9.36392 11.2906 9.36377 11.2906 9.3638L11.2884 9.36431ZM13.3451 9.20923V9.03546C13.3605 9.04998 13.3768 9.06354 13.394 9.07605C13.3763 9.11945 13.36 9.16388 13.3451 9.20923ZM13.107 8.45631C13.1071 8.45627 13.1072 8.45622 13.1073 8.45618C13.1066 8.45649 13.1062 8.45663 13.1062 8.45662C13.1062 8.45661 13.1064 8.4565 13.107 8.45631ZM18.7868 11.2677C18.7868 11.2677 18.7867 11.2679 18.7865 11.2684L18.7868 11.2677ZM23.2308 11.2684C23.231 11.2679 23.2311 11.2677 23.2311 11.2677L23.2308 11.2684ZM14.9137 8.46399C14.9135 8.46465 14.9133 8.46495 14.9133 8.46493L14.9137 8.46399Z" stroke="black" stroke-linecap="round" stroke-linejoin="round"/>
</g>
</svg>
