<svg width="16" height="16" viewBox="0 0 16 16" fill="none" xmlns="http://www.w3.org/2000/svg">
<g id="Other=smile, Size=16px, weight=regular">
<path id="smile" d="M5.46799 9.46152C5.97341 10.3352 6.91806 10.9231 8.00002 10.9231C9.10056 10.9231 10.0591 10.3148 10.5577 9.41621M6.61868 6.61563C6.61868 6.7537 6.50675 6.86563 6.36868 6.86563C6.23061 6.86563 6.11868 6.7537 6.11868 6.61563C6.11868 6.47755 6.23061 6.36563 6.36868 6.36563C6.50675 6.36563 6.61868 6.47755 6.61868 6.61563ZM9.90707 6.61563C9.90707 6.7537 9.79514 6.86563 9.65707 6.86563C9.519 6.86563 9.40707 6.7537 9.40707 6.61563C9.40707 6.47755 9.519 6.36563 9.65707 6.36563C9.79514 6.36563 9.90707 6.47755 9.90707 6.61563ZM12.75 8C12.75 10.6234 10.6234 12.75 8 12.75C5.37665 12.75 3.25 10.6234 3.25 8C3.25 5.37665 5.37665 3.25 8 3.25C10.6234 3.25 12.75 5.37665 12.75 8Z" stroke="black" stroke-width="1.5" stroke-linecap="round" stroke-linejoin="round"/>
</g>
</svg>
