<svg width="32" height="32" viewBox="0 0 32 32" fill="none" xmlns="http://www.w3.org/2000/svg">
<g id="Other=rewards, Size=32px, weight=light">
<path id="rewards" d="M7.82647 18.1157V23.8079C7.82647 24.2567 8.00393 24.6871 8.31981 25.0044C8.6357 25.3217 9.06413 25.5 9.51086 25.5H22.4849C22.9317 25.5 23.3601 25.3217 23.676 25.0044C23.9919 24.6871 24.1693 24.2567 24.1693 23.8079V18.1157M15.9116 10.9354V25.4365M12.3912 6.701C13.4271 7.18747 15.9116 10.8551 15.9116 10.8551C15.9116 10.8551 11.6711 10.9693 10.631 10.4786C10.3827 10.3633 10.1596 10.1999 9.97441 9.99779C9.78921 9.79565 9.64559 9.55874 9.55181 9.30067C9.45802 9.04261 9.41592 8.76847 9.42792 8.49401C9.43991 8.21955 9.50577 7.95017 9.62171 7.70136C9.73765 7.45255 9.90137 7.22919 10.1035 7.04414C10.3056 6.85908 10.5421 6.71596 10.7995 6.623C11.0568 6.53004 11.3299 6.48909 11.6031 6.50248C11.8762 6.51586 12.1441 6.58332 12.3912 6.701ZM19.6088 6.701C18.5687 7.18747 16.0842 10.8551 16.0842 10.8551C16.0842 10.8551 20.3247 10.9693 21.3648 10.4786C21.847 10.2346 22.2156 9.81148 22.3925 9.29902C22.5693 8.78655 22.5404 8.22504 22.312 7.73361C22.0835 7.24217 21.6735 6.85947 21.1688 6.66669C20.6642 6.4739 20.1046 6.48622 19.6088 6.701ZM15.9116 15.0768H24.6578C24.8812 15.0768 25.0954 14.9877 25.2533 14.829C25.4113 14.6703 25.5 14.4551 25.5 14.2307V11.6926C25.5 11.4682 25.4113 11.2531 25.2533 11.0944C25.0954 10.9357 24.8812 10.8466 24.6578 10.8466H7.3422C7.11883 10.8466 6.90462 10.9357 6.74667 11.0944C6.58873 11.2531 6.5 11.4682 6.5 11.6926V14.2307C6.5 14.4551 6.58873 14.6703 6.74667 14.829C6.90462 14.9877 7.11883 15.0768 7.3422 15.0768H15.9116Z" stroke="black" stroke-linecap="round" stroke-linejoin="round"/>
</g>
</svg>
