<svg width="24" height="24" viewBox="0 0 24 24" fill="none" xmlns="http://www.w3.org/2000/svg">
<g id="Other=rewards, Size=24px, weight=light">
<path id="rewards" d="M5.86985 13.5868V17.8559C5.86985 18.1925 6.00295 18.5153 6.23986 18.7533C6.47677 18.9913 6.7981 19.125 7.13315 19.125H16.8637C17.1987 19.125 17.5201 18.9913 17.757 18.7533C17.9939 18.5153 18.127 18.1925 18.127 17.8559V13.5868M11.9337 8.20157V19.0774M9.29339 5.02575C10.0703 5.3906 11.9337 8.14129 11.9337 8.14129C11.9337 8.14129 8.75332 8.22695 7.97324 7.85892C7.78705 7.77248 7.61971 7.64995 7.48081 7.49834C7.34191 7.34673 7.23419 7.16905 7.16385 6.9755C7.09352 6.78196 7.06194 6.57635 7.07094 6.3705C7.07993 6.16466 7.12933 5.96263 7.21628 5.77602C7.30323 5.58941 7.42603 5.4219 7.57762 5.2831C7.72921 5.14431 7.90661 5.03697 8.09962 4.96725C8.29263 4.89753 8.49745 4.86682 8.70231 4.87686C8.90718 4.8869 9.10805 4.93749 9.29339 5.02575ZM14.7066 5.02575C13.9265 5.3906 12.0632 8.14129 12.0632 8.14129C12.0632 8.14129 15.2435 8.22695 16.0236 7.85892C16.3853 7.67593 16.6617 7.35861 16.7943 6.97426C16.927 6.58992 16.9053 6.16878 16.734 5.80021C16.5626 5.43163 16.2551 5.1446 15.8766 5.00001C15.4981 4.85543 15.0784 4.86466 14.7066 5.02575ZM11.9337 11.3076H18.4934C18.6609 11.3076 18.8215 11.2407 18.94 11.1218C19.0584 11.0028 19.125 10.8413 19.125 10.6731V8.76947C19.125 8.60118 19.0584 8.4398 18.94 8.3208C18.8215 8.2018 18.6609 8.13494 18.4934 8.13494H5.50665C5.33913 8.13494 5.17846 8.2018 5.06001 8.3208C4.94155 8.4398 4.875 8.60118 4.875 8.76947V10.6731C4.875 10.8413 4.94155 11.0028 5.06001 11.1218C5.17846 11.2407 5.33913 11.3076 5.50665 11.3076H11.9337Z" stroke="black" stroke-linecap="round" stroke-linejoin="round"/>
</g>
</svg>
