<svg width="32" height="32" viewBox="0 0 32 32" fill="none" xmlns="http://www.w3.org/2000/svg">
<g id="Other=6-6-free, Size=32px, stroke width=1px">
<path id="6" d="M16.2133 21.7296C16.9772 21.7296 17.5705 21.4939 17.9931 21.0225C18.432 20.5349 18.6514 19.836 18.6514 18.9257C18.6514 17.0565 17.8387 16.1219 16.2133 16.1219C15.4494 16.1219 14.848 16.3657 14.4091 16.8534C13.9865 17.341 13.7752 18.0318 13.7752 18.9257C13.7752 19.8035 13.9946 20.4943 14.4335 20.9981C14.8886 21.4857 15.4819 21.7296 16.2133 21.7296ZM17.1885 12.9524C19.1715 12.9524 20.6831 13.4482 21.7234 14.4397C22.7636 15.4311 23.2838 16.8859 23.2838 18.8038C23.2838 20.7868 22.658 22.3391 21.4064 23.4606C20.1549 24.5821 18.4238 25.1429 16.2133 25.1429C13.9865 25.1429 12.2473 24.4684 10.9958 23.1193C9.76047 21.7539 9.14282 19.7466 9.14282 17.0972C9.14282 13.7001 9.84987 11.1482 11.264 9.44156C12.6781 7.71864 14.6936 6.85718 17.3104 6.85718C18.2044 6.85718 19.1146 6.93032 20.0411 7.07661C20.4312 7.14162 20.7482 7.33667 20.992 7.66175C21.2358 7.97057 21.3577 8.32816 21.3577 8.73451V9.61223C21.3577 9.9373 21.2195 10.2055 20.9432 10.4168C20.6831 10.6118 20.3906 10.6687 20.0655 10.5875C19.1878 10.3762 18.3507 10.2705 17.5543 10.2705C15.3437 10.2705 14.0759 11.4327 13.7508 13.757C13.7508 13.7895 13.7589 13.8057 13.7752 13.8057H13.824C14.7504 13.2369 15.872 12.9524 17.1885 12.9524Z" stroke="black" stroke-linecap="round" stroke-linejoin="round"/>
</g>
</svg>
