<svg width="24" height="24" viewBox="0 0 24 24" fill="none" xmlns="http://www.w3.org/2000/svg">
<g id="Other=sad, Size=24px, weight=light">
<path id="sad" d="M15.8366 15.5253C15.0785 14.2147 13.6615 13.333 12.0386 13.333C10.3878 13.333 8.95002 14.2453 8.20204 15.5933M9.92802 9.86535C9.92802 10.0725 9.76013 10.2403 9.55302 10.2403C9.34591 10.2403 9.17802 10.0725 9.17802 9.86535C9.17802 9.65824 9.34591 9.49035 9.55302 9.49035C9.76013 9.49035 9.92802 9.65824 9.92802 9.86535ZM14.8606 9.86535C14.8606 10.0725 14.6927 10.2403 14.4856 10.2403C14.2785 10.2403 14.1106 10.0725 14.1106 9.86535C14.1106 9.65824 14.2785 9.49035 14.4856 9.49035C14.6927 9.49035 14.8606 9.65824 14.8606 9.86535ZM19.125 12C19.125 15.935 15.935 19.125 12 19.125C8.06497 19.125 4.875 15.935 4.875 12C4.875 8.06497 8.06497 4.875 12 4.875C15.935 4.875 19.125 8.06497 19.125 12Z" stroke="black" stroke-linecap="round" stroke-linejoin="round"/>
</g>
</svg>
