<svg width="16" height="16" viewBox="0 0 16 16" fill="none" xmlns="http://www.w3.org/2000/svg">
<g id="Other=4-3-free, Size=16px, stroke width=1px">
<path id="4" d="M8.00783 8.88913V6.32162C8.00783 6.31327 8.00365 6.30909 7.9953 6.30909C7.9786 6.30909 7.97025 6.31327 7.97025 6.32162L6.14168 8.96428L6.12916 8.9768V8.98933C6.12916 8.99768 6.13333 9.00185 6.14168 9.00185H7.89511C7.97025 9.00185 8.00783 8.96428 8.00783 8.88913ZM10.926 9.00185C11.1181 9.00185 11.2851 9.07282 11.427 9.21477C11.5689 9.35671 11.6399 9.52371 11.6399 9.71575V10.2293C11.6399 10.4213 11.5689 10.5883 11.427 10.7302C11.2851 10.8722 11.1181 10.9431 10.926 10.9431H10.4877C10.4209 10.9431 10.3875 10.9807 10.3875 11.0559V11.8574C10.3875 12.0495 10.3165 12.2165 10.1746 12.3584C10.0326 12.5004 9.86562 12.5713 9.67358 12.5713H8.72172C8.52968 12.5713 8.36269 12.5004 8.22074 12.3584C8.0788 12.2165 8.00783 12.0495 8.00783 11.8574V11.0559C8.00783 10.9807 7.97025 10.9431 7.89511 10.9431H4.71389C4.52185 10.9431 4.35486 10.8722 4.21292 10.7302C4.07097 10.5883 4 10.4213 4 10.2293V9.71575C4 9.24817 4.13777 8.81816 4.41331 8.42573L7.59452 4.00459C7.87006 3.62051 8.24579 3.42847 8.72172 3.42847H9.67358C9.86562 3.42847 10.0326 3.49944 10.1746 3.64138C10.3165 3.78333 10.3875 3.95032 10.3875 4.14236V8.88913C10.3875 8.96428 10.4209 9.00185 10.4877 9.00185H10.926Z" stroke="black" stroke-linecap="round" stroke-linejoin="round"/>
</g>
</svg>
