<svg width="16" height="16" viewBox="0 0 16 16" fill="none" xmlns="http://www.w3.org/2000/svg">
<g id="Other=6-6-free, Size=16px, stroke width=1px">
<path id="6" d="M8.10665 10.8647C8.48862 10.8647 8.78525 10.7468 8.99655 10.5111C9.21598 10.2673 9.3257 9.91786 9.3257 9.46275C9.3257 8.52815 8.91935 8.06085 8.10665 8.06085C7.72468 8.06085 7.42398 8.18275 7.20455 8.42656C6.99325 8.67037 6.8876 9.01577 6.8876 9.46275C6.8876 9.90161 6.99732 10.247 7.21674 10.4989C7.4443 10.7428 7.74094 10.8647 8.10665 10.8647ZM8.59427 6.47609C9.58576 6.47609 10.3416 6.72396 10.8617 7.21971C11.3818 7.71545 11.6419 8.44282 11.6419 9.4018C11.6419 10.3933 11.329 11.1694 10.7032 11.7302C10.0774 12.2909 9.21192 12.5713 8.10665 12.5713C6.99325 12.5713 6.12367 12.2341 5.49789 11.5595C4.88024 10.8768 4.57141 9.87317 4.57141 8.54847C4.57141 6.84993 4.92493 5.57399 5.63198 4.72066C6.33903 3.8592 7.34678 3.42847 8.65522 3.42847C9.10221 3.42847 9.55732 3.46504 10.0206 3.53818C10.2156 3.57069 10.3741 3.66821 10.496 3.83075C10.6179 3.98517 10.6788 4.16396 10.6788 4.36713V4.80599C10.6788 4.96853 10.6098 5.10263 10.4716 5.20828C10.3416 5.3058 10.1953 5.33424 10.0327 5.29361C9.59389 5.18796 9.17535 5.13513 8.77713 5.13513C7.67186 5.13513 7.03795 5.71621 6.87541 6.87837C6.87541 6.89463 6.87947 6.90275 6.8876 6.90275H6.91198C7.37522 6.61831 7.93598 6.47609 8.59427 6.47609Z" stroke="black" stroke-linecap="round" stroke-linejoin="round"/>
</g>
</svg>
