<svg width="24" height="24" viewBox="0 0 24 24" fill="none" xmlns="http://www.w3.org/2000/svg">
<g id="Other=rocket, Size=24px, weight=light">
<path id="rocket" d="M5.81478 14.8992L4.5258 16.1882M7.08278 16.1672L4.08814 19.1619M8.35078 17.4352L7.00184 18.7842M15.1674 4.51241L18.7376 8.0826M8.1919 8.7181C6.89093 8.87697 4.83755 9.55444 3 12.2883C3 12.2883 4.08215 11.7907 5.97965 12.1444M14.5379 15.0581C14.382 16.3591 13.7046 18.4124 10.9707 20.25C10.9707 20.25 11.4653 19.1649 11.1146 17.2703M14.0313 7.57599C14.3562 7.57599 14.6738 7.67234 14.9439 7.85284C15.2141 8.03334 15.4246 8.2899 15.549 8.59006C15.6733 8.89023 15.7058 9.22052 15.6424 9.53917C15.5791 9.85783 15.4226 10.1505 15.1929 10.3803C14.9631 10.61 14.6704 10.7665 14.3518 10.8298C14.0331 10.8932 13.7028 10.8607 13.4027 10.7364C13.1025 10.612 12.8459 10.4015 12.6654 10.1313C12.4849 9.86119 12.3886 9.54359 12.3886 9.2187C12.3886 8.78303 12.5617 8.3652 12.8697 8.05713C13.1778 7.74907 13.5956 7.57599 14.0313 7.57599ZM19.3791 3.87092C18.4498 3.6401 12.6434 2.71383 6.76203 13.7211L9.53484 16.494C20.5781 10.5856 19.6069 4.77021 19.3791 3.87092Z" stroke="black" stroke-linecap="round" stroke-linejoin="round"/>
</g>
</svg>
