<svg width="24" height="24" viewBox="0 0 24 24" fill="none" xmlns="http://www.w3.org/2000/svg">
<g id="Other=lifebuoy, Size=24px, weight=light">
<path id="Vector" d="M7.34984 5.27244C8.71602 4.32641 10.3382 3.81957 12 3.81957C13.6617 3.81957 15.284 4.32641 16.6502 5.27244M18.727 7.34925C19.673 8.71543 20.1798 10.3377 20.1798 11.9994C20.1798 13.6612 19.673 15.2834 18.727 16.6496M5.27303 7.34925C4.327 8.71543 3.82016 10.3376 3.82016 11.9994C3.82016 13.6612 4.327 15.2834 5.27303 16.6496M7.34984 18.7264C8.71602 19.6724 10.3383 20.1792 12 20.1792C13.6618 20.1792 15.284 19.6724 16.6502 18.7264M8.97542 7.625C9.8645 7.01089 10.9195 6.68196 12 6.68196C13.0806 6.68196 14.1355 7.01089 15.0246 7.625M16.3744 8.97483C16.9885 9.86391 17.3174 10.9189 17.3174 11.9994C17.3174 13.08 16.9885 14.1349 16.3744 15.024M7.62559 8.97483C7.01148 9.86391 6.68256 10.9189 6.68256 11.9994C6.68256 13.08 7.01148 14.1349 7.62559 15.024M8.97542 16.3738C9.8645 16.9879 10.9194 17.3169 12 17.3169C13.0805 17.3169 14.1355 16.9879 15.0246 16.3738M15.2782 8.91409L15.0853 8.72125C14.9499 8.586 14.8662 8.40753 14.8487 8.21692C14.8313 8.02631 14.8812 7.83561 14.9899 7.67802L16.9269 4.87328C16.9614 4.82477 17.006 4.78437 17.0577 4.75489C17.1094 4.72542 17.1669 4.70759 17.2262 4.70263C17.2855 4.69767 17.3452 4.70572 17.4011 4.7262C17.4569 4.74668 17.5077 4.7791 17.5497 4.82121L19.1811 6.45258C19.2232 6.49463 19.2556 6.54536 19.2761 6.60124C19.2966 6.65711 19.3046 6.71678 19.2997 6.77609C19.2947 6.83539 19.2769 6.8929 19.2474 6.9446C19.2179 6.9963 19.1775 7.04095 19.129 7.07543L16.3243 9.01243C16.1661 9.12147 15.9746 9.17138 15.7833 9.15339C15.5921 9.13541 15.4132 9.05069 15.2782 8.91409ZM8.91468 15.2776L8.72185 15.0847C8.58659 14.9493 8.40813 14.8656 8.21751 14.8481C8.0269 14.8307 7.83621 14.8806 7.67862 14.9893L4.87387 16.9263C4.82536 16.9608 4.78496 17.0054 4.75549 17.0571C4.72602 17.1088 4.70818 17.1663 4.70323 17.2256C4.69827 17.2849 4.70631 17.3446 4.72679 17.4005C4.74727 17.4563 4.7797 17.5071 4.8218 17.5491L6.45317 19.1805C6.49522 19.2226 6.54596 19.255 6.60183 19.2755C6.65771 19.296 6.71738 19.304 6.77668 19.2991C6.83598 19.2941 6.89349 19.2763 6.94519 19.2468C6.99689 19.2173 7.04154 19.1769 7.07602 19.1284L9.01302 16.3237C9.12206 16.1655 9.17197 15.974 9.15399 15.7827C9.13601 15.5915 9.05129 15.4126 8.91468 15.2776ZM15.0853 15.2776L15.2782 15.0847C15.4134 14.9493 15.5919 14.8656 15.7825 14.8481C15.9731 14.8307 16.1638 14.8806 16.3214 14.9893L19.1261 16.9263C19.1746 16.9608 19.215 17.0054 19.2445 17.0571C19.274 17.1088 19.2918 17.1663 19.2968 17.2256C19.3017 17.2849 19.2937 17.3446 19.2732 17.4005C19.2527 17.4563 19.2203 17.5071 19.1782 17.5491L17.5468 19.1805C17.5048 19.2226 17.4541 19.255 17.3982 19.2755C17.3423 19.296 17.2826 19.304 17.2233 19.2991C17.164 19.2941 17.1065 19.2763 17.0548 19.2468C17.0031 19.2173 16.9585 19.1769 16.924 19.1284L14.987 16.3237C14.8779 16.1655 14.828 15.974 14.846 15.7827C14.864 15.5915 14.9487 15.4126 15.0853 15.2776ZM8.72185 8.91408L8.91468 8.72125C9.05011 8.58599 9.13383 8.40753 9.15127 8.21692C9.16871 8.02631 9.11877 7.83561 9.01013 7.67802L7.07313 4.87327C7.03865 4.82476 6.99401 4.78437 6.94231 4.7549C6.89061 4.72542 6.8331 4.70758 6.7738 4.70262C6.71449 4.69767 6.65481 4.70572 6.59894 4.7262C6.54306 4.74668 6.49233 4.7791 6.45027 4.82121L4.81892 6.45257C4.77681 6.49462 4.74438 6.54536 4.7239 6.60123C4.70342 6.65711 4.69538 6.71678 4.70034 6.77608C4.7053 6.83539 4.72313 6.8929 4.7526 6.9446C4.78207 6.9963 4.82247 7.04095 4.87097 7.07543L7.67572 9.01243C7.83389 9.12147 8.02539 9.17137 8.21666 9.15339C8.40793 9.13541 8.58677 9.05069 8.72185 8.91408Z" stroke="black" stroke-linecap="round" stroke-linejoin="round"/>
</g>
</svg>
