<svg width="24" height="24" viewBox="0 0 24 24" fill="none" xmlns="http://www.w3.org/2000/svg">
<g id="Other=live-casino, Size=24px, weight=light">
<path id="Vector" d="M9.14118 6.3884C9.26257 7.39805 9.74934 8.74077 10.4357 9.64648M9.14118 6.3884C9.46708 4.87575 11.9292 5.20448 12.9088 4.8685C13.097 4.80396 13.2277 4.66715 13.3186 4.4965M9.14118 6.3884C9.14094 6.38985 9.14046 6.3913 9.14021 6.39275C9.11803 6.21848 9.10633 6.05363 9.10633 5.90231C9.10633 4.30796 9.86537 2.99762 11.9765 3.00028C12.5259 3.001 13.372 2.9703 13.5077 3.38219M10.4357 9.64648L11.5411 10.1393M10.4357 9.64648L10.2656 9.57057C10.2225 9.55148 10.1737 9.58266 10.1737 9.62979L10.1736 11.4057M11.5411 10.1393C11.5838 10.0876 11.6489 10.0547 11.7215 10.0547H12.2782C12.3509 10.0547 12.416 10.0876 12.4589 10.1393M11.5411 10.1393C11.508 10.1792 11.4883 10.2302 11.4883 10.2861V10.7492C11.4883 10.805 11.508 10.856 11.5411 10.8959M12.4589 10.1393L13.564 9.64648M12.4589 10.1393C12.492 10.1792 12.5117 10.2302 12.5117 10.2861V10.7492C12.5117 10.805 12.492 10.856 12.4589 10.8959M13.564 9.64648C14.3067 8.66681 14.8154 7.17615 14.8808 6.14862M13.564 9.64648L13.7343 9.57045C13.7774 9.55136 13.8262 9.58254 13.8262 9.62967L13.8262 11.4057M14.8808 6.14862C14.2811 5.81118 13.4738 5.04761 13.3186 4.4965M14.8808 6.14862C14.8827 6.14959 14.8844 6.15078 14.8864 6.15175C14.8893 6.09519 14.8908 6.03983 14.8908 5.98641C15.0548 5.01496 14.0489 3.18906 13.5077 3.38219M13.3186 4.4965C13.4724 4.20789 13.5131 3.82211 13.526 3.52432C13.527 3.50377 13.5265 3.48395 13.5248 3.4651C13.5221 3.43561 13.5165 3.40781 13.5077 3.38219M5.83531 14.2679C7.27294 13.8113 9.05183 13.511 11.0006 13.4342C11.3304 13.4202 11.6631 13.4146 11.9985 13.4146C14.3378 13.4146 16.4843 13.7346 18.1642 14.2683M5.83531 14.2679C5.77924 14.0974 5.84798 13.8949 5.91769 13.7201C6.05297 13.3897 6.18899 13.0602 6.32866 12.7325C6.51171 12.301 6.70184 11.8667 6.98971 11.4966C6.9958 11.4889 7.00189 11.4811 7.00799 11.4731C7.01408 11.4664 7.02017 11.4594 7.02627 11.4516C7.65953 10.6784 8.68255 10.3429 9.61587 10.0826C9.80014 10.0311 9.98612 9.98442 10.1736 9.9426V11.4057M5.83531 14.2679C3.64716 14.963 2.25 16.0211 2.25 17.2075C2.25 18.5575 4.06155 19.7414 6.79033 20.4124V20.415C8.29719 20.7866 10.0807 21 11.9985 21C13.9164 21 15.7028 20.7866 17.2097 20.415V20.4124C19.9384 19.7414 21.75 18.5575 21.75 17.2075C21.75 16.0216 20.3531 14.9635 18.1642 14.2683M18.1642 14.2683C18.2205 14.0977 18.152 13.8951 18.082 13.7201C17.9468 13.3897 17.8107 13.0602 17.6711 12.7325C17.488 12.301 17.2979 11.8667 17.009 11.4966C17.0039 11.4889 16.9978 11.4811 16.9917 11.4731C16.9856 11.4664 16.9786 11.4594 16.9735 11.4516C16.3402 10.6784 15.3172 10.3429 14.3839 10.0826C14.1996 10.0311 14.0136 9.98442 13.8262 9.9426V11.4057M13.8262 11.4057C13.8262 11.4526 13.7774 11.4838 13.7343 11.4647L13.159 11.2082M13.159 11.2082C12.9562 11.878 12.642 12.4992 12.2167 13.0716C12.1504 13.1623 12.0804 13.2514 12.008 13.3387C12.0056 13.3423 12.0019 13.3457 11.9995 13.3491C11.4632 12.7011 11.0767 11.9873 10.8405 11.2082M13.159 11.2082L12.4589 10.8959M10.8405 11.2082L10.2655 11.4647C10.2223 11.4838 10.1736 11.4526 10.1736 11.4057M10.8405 11.2082L11.5411 10.8959M11.5411 10.8959C11.5838 10.9476 11.6489 10.9807 11.7215 10.9807H12.2782C12.3509 10.9807 12.416 10.9476 12.4589 10.8959M14.6548 18.5064L16.3593 19.4837C16.3815 19.4959 16.4083 19.4959 16.4304 19.4837C16.4426 19.4765 16.45 19.4668 16.4572 19.4571L18.0664 16.6925C18.0861 16.6584 18.0739 16.6149 18.0396 16.5954L16.3351 15.6182C16.3007 15.5987 16.2568 15.611 16.2372 15.6448L14.6402 18.3876L14.628 18.4094C14.6084 18.4435 14.6208 18.487 14.6548 18.5064ZM12.2288 17.8152C12.2288 17.8493 12.2533 17.8784 12.2876 17.8857L14.2269 18.2253C14.2563 18.2301 14.2855 18.2156 14.3003 18.1912C14.3051 18.1841 14.3077 18.1766 14.31 18.1669L14.87 15.024C14.8749 14.9851 14.8507 14.9464 14.8114 14.9391L12.8721 14.602C12.8329 14.5949 12.7939 14.6215 12.789 14.6601L12.2289 17.8009L12.2288 17.8152ZM9.7001 18.1912C9.71485 18.2155 9.74398 18.2301 9.77347 18.2253L11.7127 17.8857C11.7471 17.8786 11.7716 17.8493 11.7716 17.8152V17.8008L11.2115 14.6601C11.2043 14.6263 11.1748 14.602 11.1404 14.602H11.1282L9.18896 14.9391C9.14971 14.9464 9.1229 14.9851 9.13009 15.024L9.69023 18.1669C9.69254 18.1766 9.69523 18.1841 9.7001 18.1912ZM5.93391 16.6925L7.54315 19.4571C7.54802 19.4668 7.5579 19.4765 7.56996 19.4837C7.5919 19.4959 7.61883 19.4959 7.64101 19.4837L9.34556 18.5064C9.37968 18.487 9.39199 18.4435 9.37237 18.4094L9.36018 18.3876L7.76313 15.6448C7.74351 15.6109 7.69963 15.5987 7.66527 15.6182L5.96072 16.5954C5.92635 16.6149 5.91429 16.6584 5.93391 16.6925Z" stroke="black" stroke-linecap="round" stroke-linejoin="round"/>
</g>
</svg>
