<svg width="16" height="16" viewBox="0 0 16 16" fill="none" xmlns="http://www.w3.org/2000/svg">
<g id="Other=3-dots, Size=16px, weight=regular">
<g id="frame">
<path d="M9.19231 4.09615C9.19231 4.70154 8.70154 5.19231 8.09615 5.19231C7.49077 5.19231 7 4.70154 7 4.09615C7 3.49076 7.49077 3 8.09615 3C8.70154 3 9.19231 3.49076 9.19231 4.09615Z" stroke="black" stroke-width="1.5" stroke-linecap="round" stroke-linejoin="round"/>
<path d="M9.19234 12.1255C9.19234 12.7309 8.70158 13.2216 8.09619 13.2216C7.4908 13.2216 7.00004 12.7309 7.00004 12.1255C7.00004 11.5201 7.4908 11.0293 8.09619 11.0293C8.70158 11.0293 9.19234 11.5201 9.19234 12.1255Z" stroke="black" stroke-width="1.5" stroke-linecap="round" stroke-linejoin="round"/>
<path d="M9.19231 8.12548C9.19231 8.73087 8.70154 9.22163 8.09615 9.22163C7.49077 9.22163 7 8.73087 7 8.12548C7 7.52009 7.49077 7.02933 8.09615 7.02933C8.70154 7.02933 9.19231 7.52009 9.19231 8.12548Z" stroke="black" stroke-width="1.5" stroke-linecap="round" stroke-linejoin="round"/>
</g>
</g>
</svg>
