<svg width="16" height="16" viewBox="0 0 16 16" fill="none" xmlns="http://www.w3.org/2000/svg">
<g id="Other=partial-refund, Size=16px, stroke width=1.5px">
<path id="betslip" d="M1.66663 11.4998C1.66663 12.1442 2.14093 12.6665 2.72602 12.6665L4.70323 12.6665M8.67033 3.33317L2.72602 3.33317C2.14093 3.33317 1.66663 3.85551 1.66663 4.49984L1.66663 4.93894C1.66663 5.13729 1.8315 5.29221 2.01984 5.35444C2.4291 5.48966 2.72218 5.85324 2.72218 6.28054C2.72218 6.70783 2.4291 7.07142 2.01984 7.20664C1.8315 7.26887 1.66663 7.42379 1.66663 7.62214L1.66663 8.37754C1.66663 8.57589 1.8315 8.7308 2.01984 8.79303C2.4291 8.92826 2.72218 9.29184 2.72218 9.71914C2.72218 10.1464 2.4291 10.51 2.01984 10.6452C1.8315 10.7075 1.66663 10.8624 1.66663 11.0607L1.66663 11.4384" stroke="black" stroke-opacity="0.08" stroke-width="1.5" stroke-linecap="round"/>
<path id="betslip_2" d="M14.3333 11.4998C14.3333 12.1442 13.859 12.6665 13.2739 12.6665L4.99824 12.6665M9.17977 3.33317L13.2739 3.33317C13.859 3.33317 14.3333 3.85551 14.3333 4.49984L14.3333 4.93894C14.3333 5.13729 14.1684 5.29221 13.9801 5.35443C13.5708 5.48966 13.2777 5.85324 13.2777 6.28054C13.2777 6.70783 13.5708 7.07142 13.9801 7.20664C14.1684 7.26887 14.3333 7.42379 14.3333 7.62214L14.3333 8.37754C14.3333 8.57589 14.1684 8.7308 13.9801 8.79303C13.5708 8.92826 13.2777 9.29184 13.2777 9.71914C13.2777 10.1464 13.5708 10.51 13.9801 10.6452C14.1684 10.7075 14.3333 10.8624 14.3333 11.0607L14.3333 11.4384M10.243 12.2981L10.243 11.5612M10.243 10.3332L10.243 9.59633M10.243 8.36826L10.243 7.63142M10.243 6.40335L10.243 5.6665M10.243 4.43843L10.243 3.70159" stroke="black" stroke-width="1.5" stroke-linecap="round" stroke-linejoin="round"/>
<path id="Line 21" d="M9.92957 0.966797L4.04873 14.6139" stroke="black" stroke-width="1.5" stroke-linecap="round" stroke-linejoin="round"/>
</g>
</svg>
