<svg width="24" height="24" viewBox="0 0 24 24" fill="none" xmlns="http://www.w3.org/2000/svg">
<g id="Other=flame, Size=24px, weight=regular">
<path id="Vector" d="M12 3C12 9.7329 5.25 9.9417 5.25 14.8411C5.25 18.2431 8.27207 21 12 21C9.92544 21 8.24347 19.4655 8.24347 17.5724C8.24347 16.792 8.55142 15.9182 8.99095 15.0686C9.30887 15.6718 9.69832 16.2414 10.1523 16.7671C10.1474 16.7407 10.1424 16.7131 10.1377 16.6876C9.78597 14.7171 10.4082 12.7052 11.8169 11.1776C11.9329 11.0516 12 10.9828 12 10.9828C12 14.7297 15.7563 14.846 15.7563 17.5724C15.7563 19.4655 14.0746 21 12 21C15.7285 21 18.75 18.2426 18.75 14.8411C18.75 13.4384 18.1966 11.8684 17.4069 10.3411C16.8358 11.4253 16.1359 12.449 15.32 13.3939C15.329 13.3459 15.3378 13.2983 15.3462 13.251C15.9785 9.71022 14.8603 6.0951 12.3291 3.351C12.1203 3.12474 12 3.0009 12 3.0009" stroke="black" stroke-width="1.5" stroke-linecap="round" stroke-linejoin="round"/>
</g>
</svg>
