<svg width="24" height="24" viewBox="0 0 24 24" fill="none" xmlns="http://www.w3.org/2000/svg">
<g id="Other=6-6-free, Size=24px, stroke width=1px">
<path id="6" d="M12.16 16.2971C12.733 16.2971 13.1779 16.1203 13.4949 15.7668C13.824 15.4011 13.9886 14.8769 13.9886 14.1943C13.9886 12.7923 13.3791 12.0914 12.16 12.0914C11.5871 12.0914 11.136 12.2743 10.8069 12.64C10.4899 13.0057 10.3315 13.5238 10.3315 14.1943C10.3315 14.8525 10.496 15.3706 10.8252 15.7485C11.1665 16.1143 11.6115 16.2971 12.16 16.2971ZM12.8915 9.71425C14.3787 9.71425 15.5124 10.0861 16.2926 10.8297C17.0728 11.5733 17.4629 12.6643 17.4629 14.1028C17.4629 15.5901 16.9936 16.7543 16.0549 17.5954C15.1162 18.4365 13.8179 18.8571 12.16 18.8571C10.4899 18.8571 9.18556 18.3512 8.24689 17.3394C7.32042 16.3154 6.85718 14.8099 6.85718 12.8228C6.85718 10.275 7.38746 8.36111 8.44803 7.08111C9.50861 5.78892 11.0202 5.14282 12.9829 5.14282C13.6534 5.14282 14.336 5.19768 15.0309 5.30739C15.3235 5.35616 15.5612 5.50244 15.744 5.74625C15.9269 5.97787 16.0183 6.24606 16.0183 6.55082V7.20911C16.0183 7.45292 15.9147 7.65406 15.7075 7.81254C15.5124 7.95882 15.293 8.00149 15.0492 7.94054C14.3909 7.78206 13.7631 7.70282 13.1657 7.70282C11.5078 7.70282 10.557 8.57444 10.3132 10.3177C10.3132 10.3421 10.3193 10.3543 10.3315 10.3543H10.368C11.0629 9.92758 11.904 9.71425 12.8915 9.71425Z" stroke="black" stroke-linecap="round" stroke-linejoin="round"/>
</g>
</svg>
