<svg width="24" height="24" viewBox="0 0 24 24" fill="none" xmlns="http://www.w3.org/2000/svg">
<g id="Other=player, Size=24px, weight=regular">
<path id="Vector" d="M3.75 21.749C3.75 19.3739 6.02526 17.8836 8.42645 17.8836H9.49895V15.7362M20.25 21.749C20.25 19.3739 18.6391 17.8836 16.2422 17.8836H13.8367V15.7362M16.442 6.05542V7.77339C16.442 7.77339 17.3104 8.15563 17.3104 8.63237V10.3503C17.3104 10.8271 16.9934 11.2093 16.125 11.2093C16.125 13.5844 14.2405 16.3632 11.8393 16.3632C9.43816 16.3632 7.41039 13.5844 7.41039 11.2093C6.54197 11.2093 6.02092 10.8271 6.02092 10.3503V8.63237C6.02092 8.15563 6.88934 7.77339 6.88934 7.77339V6.05542C6.88934 4.62951 7.32355 3.04899 9.49461 3.04899C14.2709 0.901533 17.7446 3.47848 16.442 6.05542Z" stroke="black" stroke-width="1.5" stroke-linecap="round" stroke-linejoin="round"/>
</g>
</svg>
