<svg width="16" height="16" viewBox="0 0 16 16" fill="none" xmlns="http://www.w3.org/2000/svg">
<g id="Other=freebet, Size=16px, weight=light">
<path id="betslip" d="M13.75 11.1875C13.75 11.7743 13.3568 12.25 12.8718 12.25L3.78125 12.25M12.8718 3.75C13.3568 3.75 13.75 4.2257 13.75 4.8125L13.75 5.18392C13.75 5.38029 13.5842 5.53286 13.4045 5.61194C13.093 5.74896 12.875 6.06555 12.875 6.43421C12.875 6.80288 13.093 7.11946 13.4045 7.25648C13.5842 7.33556 13.75 7.48813 13.75 7.6845L13.75 8.3155C13.75 8.51186 13.5842 8.66444 13.4045 8.74352C13.093 8.88054 12.875 9.19712 12.875 9.56579C12.875 9.93445 13.093 10.251 13.4045 10.3881C13.5842 10.4671 13.75 10.6197 13.75 10.8161L13.75 11.1316M2.25 11.1875C2.25 11.7743 2.64318 12.25 3.12818 12.25L3.99682 12.25M3.12818 3.75C2.64318 3.75 2.25 4.2257 2.25 4.8125L2.25 5.18392C2.25 5.38029 2.41579 5.53286 2.59553 5.61194C2.90695 5.74896 3.125 6.06555 3.125 6.43421C3.125 6.80288 2.90695 7.11946 2.59553 7.25648C2.41579 7.33556 2.25 7.48814 2.25 7.6845L2.25 8.3155C2.25 8.51187 2.41579 8.66444 2.59553 8.74352C2.90695 8.88054 3.125 9.19712 3.125 9.56579C3.125 9.93445 2.90695 10.251 2.59553 10.3881C2.41579 10.4671 2.25 10.6197 2.25 10.8161L2.25 11.1316M10.8594 11.9145L10.8594 11.2434M10.8594 10.125L10.8594 9.45395M10.8594 8.33551L10.8594 7.66446" stroke="black" stroke-linecap="round" stroke-linejoin="round"/>
<path id="Free" d="M4.47266 4.72344C4.48101 4.73302 4.49008 4.74197 4.49978 4.75019C4.48998 4.7593 4.4809 4.76918 4.47266 4.77975V4.72344ZM6.67302 4.60462V4.51773C6.68072 4.52499 6.6889 4.53177 6.6975 4.53802C6.68866 4.55972 6.68051 4.58194 6.67302 4.60462ZM6.55415 4.22809C6.55377 4.22825 6.55357 4.22832 6.55357 4.22831C6.55358 4.2283 6.55371 4.22825 6.55397 4.22816C6.55403 4.22813 6.55409 4.22811 6.55415 4.22809Z" stroke="black" stroke-width="0.5" stroke-linecap="round" stroke-linejoin="round"/>
</g>
</svg>
