<svg width="16" height="16" viewBox="0 0 16 16" fill="none" xmlns="http://www.w3.org/2000/svg">
<g id="Other=wind, Size=16px, weight=regular">
<path id="wind" d="M5.65217 4.84211C5.65217 3.82632 6.4713 3 7.47826 3C8.48522 3 9.30435 3.82632 9.30435 4.84211C9.30435 5.85789 8.48522 6.68421 7.47826 6.68421H2M7.73913 11.1579C7.73913 12.1737 8.55826 13 9.56522 13C10.5722 13 11.3913 12.1737 11.3913 11.1579C11.3913 10.1421 10.5722 9.31579 9.56522 9.31579H2M10.8696 6.15789C10.8696 5.28421 11.5687 4.57895 12.4348 4.57895C13.3009 4.57895 14 5.28421 14 6.15789C14 7.03158 13.3009 7.73684 12.4348 7.73684H9.30435" stroke="black" stroke-width="1.5" stroke-linecap="round" stroke-linejoin="round"/>
</g>
</svg>
