<svg width="32" height="32" viewBox="0 0 32 32" fill="none" xmlns="http://www.w3.org/2000/svg">
<g id="Other=waves, Size=32px, weight=regular">
<path id="Vector" d="M9.63078 11.6523C7.69485 13.5041 9.01971 15.5962 10.6607 15.3402M26 16.4348C26 11.0309 21.7199 6 16.5231 6C12.1986 6 9.93935 7.32956 8.79682 9.05205C7.83776 10.4975 7.41054 12.2564 8.9439 12.5414M11.3525 13.835C9.59704 16.0002 11.5227 17.0868 12.4306 17.0868C15.7669 17.0868 13.4564 11.0443 19.5383 10.5825C22.9484 10.3235 26 13.1635 26 17.3045C26 22.9089 22.9409 25.6097 19.9693 25.5673C19.0216 25.5539 18.276 25.2616 17.3908 24.6957C15.724 26.4346 13.0269 26.4346 11.3601 24.6957C9.9022 26.2169 7.6558 26.4075 6.00038 25.2673M15.5273 12.7913C15.8389 12.6815 16.174 12.6214 16.5227 12.6214C18.188 12.6214 19.5383 14.319 19.5383 15.9998C19.5383 19.2225 16.594 23.1002 11.3537 22.0867H11.3597C9.90182 23.6079 7.65542 23.7985 6 22.6583M16.9522 11.3282C19.5042 10.3437 22.7691 12.9259 22.7691 16.6522C22.7691 17.9454 22.4689 19.0859 21.9761 20.0474" stroke="black" stroke-width="1.5" stroke-linecap="round" stroke-linejoin="round"/>
</g>
</svg>
