<svg width="24" height="24" viewBox="0 0 24 24" fill="none" xmlns="http://www.w3.org/2000/svg">
<g id="Other=freebet, Size=24px, weight=light">
<path id="betslip" d="M20.625 16.7812C20.625 17.6615 20.0352 18.375 19.3077 18.375L5.67188 18.375M19.3077 5.625C20.0352 5.625 20.625 6.33855 20.625 7.21875L20.625 7.95365C20.625 8.15002 20.4628 8.30427 20.2738 8.35779C19.7195 8.51481 19.3125 9.03446 19.3125 9.65131C19.3125 10.2682 19.7195 10.7878 20.2738 10.9448C20.4628 10.9984 20.625 11.1526 20.625 11.349L20.625 12.651C20.625 12.8474 20.4628 13.0016 20.2738 13.0552C19.7195 13.2122 19.3125 13.7318 19.3125 14.3487C19.3125 14.9655 19.7195 15.4852 20.2738 15.6422C20.4628 15.6957 20.625 15.85 20.625 16.0463L20.625 16.6974M3.375 16.7812C3.375 17.6615 3.96476 18.375 4.69227 18.375L5.99523 18.375M4.69227 5.625C3.96476 5.625 3.375 6.33855 3.375 7.21875L3.375 7.95365C3.375 8.15002 3.53723 8.30427 3.72616 8.35779C4.28053 8.51481 4.6875 9.03446 4.6875 9.65132C4.6875 10.2682 4.28053 10.7878 3.72616 10.9448C3.53723 10.9984 3.375 11.1526 3.375 11.349L3.375 12.651C3.375 12.8474 3.53723 13.0016 3.72616 13.0552C4.28053 13.2122 4.6875 13.7318 4.6875 14.3487C4.6875 14.9655 4.28053 15.4852 3.72616 15.6422C3.53723 15.6957 3.375 15.85 3.375 16.0463L3.375 16.6974M16.2891 17.8717L16.2891 16.8651M16.2891 15.1875L16.2891 14.1809M16.2891 12.5033L16.2891 11.4967" stroke="black" stroke-linecap="round" stroke-linejoin="round"/>
<g id="Free">
<mask id="path-2-inside-1_7195_181" fill="white">
<path d="M6.33301 8.77399C6.33301 8.99974 6.42976 9.12229 6.61036 9.12229H6.71356C6.90706 9.12229 7.00381 9.01909 7.00381 8.81914V7.40014H8.43571C8.64211 7.40014 8.74531 7.30984 8.74531 7.12924V7.10344C8.74531 6.93574 8.64856 6.83899 8.43571 6.83899H6.99091V5.51029H8.93881C9.14521 5.51029 9.24841 5.41354 9.24841 5.23294V5.19424C9.24841 5.02009 9.14521 4.92334 8.93881 4.92334H6.68776C6.47491 4.92334 6.33301 5.07169 6.33301 5.29744V8.77399Z"/>
<path d="M11.0526 5.91664C10.6591 5.91664 10.4011 6.12304 10.2657 6.50359C10.2657 6.41329 10.2528 6.33589 10.2399 6.27139C10.1754 6.02629 10.0141 5.96179 9.86576 5.96179C9.73676 5.96179 9.63356 6.01339 9.63356 6.03274V8.81914C9.63356 9.05134 9.74966 9.12229 9.91736 9.12229H9.98831C10.1496 9.12229 10.2721 9.05134 10.2721 8.81914V7.72909C10.2721 7.01314 10.4721 6.52294 10.9752 6.52294C11.1493 6.52294 11.2719 6.58099 11.3686 6.65839C11.3815 6.67129 11.5621 6.57454 11.5621 6.32944C11.5621 6.07144 11.3751 5.91664 11.0526 5.91664Z"/>
<path d="M11.5011 7.56139C11.5011 8.52889 12.159 9.18034 13.1394 9.18034C13.5651 9.18034 13.894 9.07069 14.1198 8.92879C14.3455 8.78689 14.4616 8.61274 14.4616 8.47729C14.4616 8.20639 14.1391 8.14834 14.1262 8.16124C13.965 8.43859 13.6941 8.67724 13.1523 8.67724C12.604 8.67724 12.1977 8.34184 12.1074 7.83229C12.1009 7.79359 12.0945 7.75489 12.0945 7.71619H14.3842C14.5326 7.71619 14.5777 7.66459 14.5777 7.52914V7.47754C14.5777 6.54874 13.9843 5.91664 13.0878 5.91664C12.1719 5.91664 11.5011 6.61969 11.5011 7.56139ZM13.9585 7.28404H12.1009C12.1783 6.76804 12.5718 6.40039 13.0813 6.40039C13.5973 6.40039 13.9263 6.74869 13.9585 7.28404Z"/>
<path d="M14.8343 7.56139C14.8343 8.52889 15.4922 9.18034 16.4726 9.18034C16.8983 9.18034 17.2273 9.07069 17.453 8.92879C17.6788 8.78689 17.7949 8.61274 17.7949 8.47729C17.7949 8.20639 17.4724 8.14834 17.4595 8.16124C17.2982 8.43859 17.0273 8.67724 16.4855 8.67724C15.9373 8.67724 15.5309 8.34184 15.4406 7.83229C15.4342 7.79359 15.4277 7.75489 15.4277 7.71619H17.7175C17.8658 7.71619 17.911 7.66459 17.911 7.52914V7.47754C17.911 6.54874 17.3176 5.91664 16.421 5.91664C15.5051 5.91664 14.8343 6.61969 14.8343 7.56139ZM17.2918 7.28404H15.4342C15.5116 6.76804 15.905 6.40039 16.4146 6.40039C16.9306 6.40039 17.2595 6.74869 17.2918 7.28404Z"/>
</mask>
<path d="M7.00381 7.40014V5.90014C6.17538 5.90014 5.50381 6.57171 5.50381 7.40014H7.00381ZM6.99091 6.83899H5.49091C5.49091 7.66742 6.16248 8.33899 6.99091 8.33899V6.83899ZM6.99091 5.51029V4.01029C6.16248 4.01029 5.49091 4.68186 5.49091 5.51029H6.99091ZM10.2657 6.50359H8.76566C8.76566 7.23355 9.29113 7.85752 10.0104 7.98172C10.7298 8.10592 11.434 7.69427 11.6788 7.00658L10.2657 6.50359ZM10.2399 6.27139L11.7107 5.97721C11.7049 5.94783 11.6981 5.91863 11.6905 5.88965L10.2399 6.27139ZM11.3686 6.65839L12.4293 5.59773C12.3901 5.5586 12.3489 5.52166 12.3056 5.48709L11.3686 6.65839ZM14.1262 8.16124L13.0656 7.10058C12.974 7.19219 12.8946 7.2953 12.8295 7.40731L14.1262 8.16124ZM12.1074 7.83229L10.6278 8.07889C10.6286 8.08394 10.6295 8.08899 10.6304 8.09403L12.1074 7.83229ZM12.0945 7.71619V6.21619C11.2661 6.21619 10.5945 6.88776 10.5945 7.71619H12.0945ZM13.9585 7.28404V8.78404C14.372 8.78404 14.7672 8.61336 15.0506 8.31232C15.3341 8.01128 15.4807 7.60658 15.4558 7.19384L13.9585 7.28404ZM12.1009 7.28404L10.6175 7.06153C10.5528 7.49337 10.6794 7.93199 10.9643 8.26287C11.2493 8.59376 11.6643 8.78404 12.1009 8.78404V7.28404ZM17.4595 8.16124L16.3988 7.10058C16.3072 7.19219 16.2279 7.2953 16.1627 7.40731L17.4595 8.16124ZM15.4406 7.83229L13.9611 8.07889C13.9619 8.08394 13.9628 8.08899 13.9637 8.09403L15.4406 7.83229ZM15.4277 7.71619V6.21619C14.5993 6.21619 13.9277 6.88776 13.9277 7.71619H15.4277ZM17.2918 7.28404V8.78404C17.7053 8.78404 18.1004 8.61336 18.3839 8.31232C18.6673 8.01128 18.8139 7.60658 18.7891 7.19384L17.2918 7.28404ZM15.4342 7.28404L13.9508 7.06153C13.886 7.49337 14.0126 7.93199 14.2976 8.26287C14.5825 8.59376 14.9975 8.78404 15.4342 8.78404V7.28404ZM4.83301 8.77399C4.83301 9.06962 4.89191 9.54098 5.22952 9.96591C5.61231 10.4477 6.15229 10.6223 6.61036 10.6223V7.62229C6.88782 7.62229 7.28913 7.7356 7.57839 8.09968C7.82248 8.4069 7.83301 8.70411 7.83301 8.77399H4.83301ZM6.61036 10.6223H6.71356V7.62229H6.61036V10.6223ZM6.71356 10.6223C7.0669 10.6223 7.59494 10.5238 8.01745 10.0802C8.42725 9.64989 8.50381 9.1384 8.50381 8.81914H5.50381C5.50381 8.69983 5.53199 8.33991 5.84504 8.01121C6.1708 7.66916 6.55372 7.62229 6.71356 7.62229V10.6223ZM8.50381 8.81914V7.40014H5.50381V8.81914H8.50381ZM7.00381 8.90014H8.43571V5.90014H7.00381V8.90014ZM8.43571 8.90014C8.72458 8.90014 9.22138 8.84128 9.65567 8.46128C10.1282 8.04781 10.2453 7.50669 10.2453 7.12924H7.24531C7.24531 6.93239 7.31081 6.52672 7.68015 6.20355C8.01123 5.91385 8.35324 5.90014 8.43571 5.90014V8.90014ZM10.2453 7.12924V7.10344H7.24531V7.12924H10.2453ZM10.2453 7.10344C10.2453 6.72953 10.1285 6.19758 9.66687 5.78721C9.23723 5.4053 8.74074 5.33899 8.43571 5.33899V8.33899C8.34352 8.33899 8.00184 8.32105 7.67378 8.02944C7.31371 7.70938 7.24531 7.30965 7.24531 7.10344H10.2453ZM8.43571 5.33899H6.99091V8.33899H8.43571V5.33899ZM8.49091 6.83899V5.51029H5.49091V6.83899H8.49091ZM6.99091 7.01029H8.93881V4.01029H6.99091V7.01029ZM8.93881 7.01029C9.25082 7.01029 9.74978 6.93915 10.1783 6.55082C10.6331 6.13868 10.7484 5.60874 10.7484 5.23294H7.74841C7.74841 5.03774 7.81215 4.64648 8.16373 4.32786C8.48904 4.03305 8.83319 4.01029 8.93881 4.01029V7.01029ZM10.7484 5.23294V5.19424H7.74841V5.23294H10.7484ZM10.7484 5.19424C10.7484 4.80617 10.6237 4.27866 10.1686 3.87334C9.74337 3.49458 9.25134 3.42334 8.93881 3.42334V6.42334C8.83267 6.42334 8.49545 6.40048 8.17338 6.11363C7.82148 5.80022 7.74841 5.40816 7.74841 5.19424H10.7484ZM8.93881 3.42334H6.68776V6.42334H8.93881V3.42334ZM6.68776 3.42334C6.21953 3.42334 5.72085 3.5952 5.3434 3.99226C4.97242 4.3825 4.83301 4.86862 4.83301 5.29744H7.83301C7.83301 5.50051 7.76454 5.79958 7.51773 6.05921C7.26444 6.32565 6.94314 6.42334 6.68776 6.42334V3.42334ZM4.83301 5.29744V8.77399H7.83301V5.29744H4.83301ZM11.0526 4.41664C10.5812 4.41664 10.086 4.5457 9.65529 4.87274C9.23602 5.19108 8.99132 5.6106 8.8525 6.0006L11.6788 7.00658C11.6754 7.01603 11.6275 7.14208 11.4694 7.26208C11.2999 7.39078 11.1305 7.41664 11.0526 7.41664V4.41664ZM11.7657 6.50359C11.7657 6.26964 11.7316 6.08147 11.7107 5.97721L8.76899 6.56556C8.77393 6.59031 8.76566 6.55694 8.76566 6.50359H11.7657ZM11.6905 5.88965C11.5845 5.48714 11.3516 5.08034 10.9434 4.79513C10.5543 4.52317 10.1486 4.46179 9.86576 4.46179V7.46179C9.7313 7.46179 9.4804 7.43266 9.22505 7.25422C8.95075 7.06254 8.83067 6.81054 8.78924 6.65313L11.6905 5.88965ZM9.86576 4.46179C9.61062 4.46179 9.37862 4.51091 9.18649 4.58111C9.09459 4.61469 8.96927 4.6685 8.83727 4.75384C8.77609 4.7934 8.663 4.87183 8.54644 4.99556C8.48899 5.05654 8.13356 5.42593 8.13356 6.03274H11.1336C11.1336 6.36061 11.027 6.60898 10.951 6.74804C10.8725 6.89174 10.7861 6.99317 10.73 7.05271C10.6196 7.16991 10.5156 7.24114 10.4661 7.27314C10.3575 7.34336 10.266 7.38065 10.2161 7.39891C10.1078 7.43847 9.9919 7.46179 9.86576 7.46179V4.46179ZM8.13356 6.03274V8.81914H11.1336V6.03274H8.13356ZM8.13356 8.81914C8.13356 9.16421 8.22123 9.7167 8.68784 10.1532C9.13613 10.5726 9.6583 10.6223 9.91736 10.6223V7.62229C10.0087 7.62229 10.389 7.63654 10.7373 7.96238C11.1039 8.30536 11.1336 8.70627 11.1336 8.81914H8.13356ZM9.91736 10.6223H9.98831V7.62229H9.91736V10.6223ZM9.98831 10.6223C10.2567 10.6223 10.7659 10.5671 11.2066 10.1613C11.6707 9.73415 11.7721 9.18717 11.7721 8.81914H8.77211C8.77211 8.68331 8.81228 8.28791 9.17471 7.95424C9.51384 7.64203 9.88113 7.62229 9.98831 7.62229V10.6223ZM11.7721 8.81914V7.72909H8.77211V8.81914H11.7721ZM11.7721 7.72909C11.7721 7.61608 11.7803 7.54395 11.7871 7.50638C11.7945 7.4654 11.795 7.49483 11.7591 7.56237C11.7198 7.63609 11.6301 7.76658 11.4603 7.87498C11.2834 7.98791 11.1039 8.02294 10.9752 8.02294V5.02294C10.5949 5.02294 10.2017 5.11924 9.84581 5.34646C9.49706 5.56915 9.263 5.86693 9.11088 6.1527C8.82772 6.68464 8.77211 7.27688 8.77211 7.72909H11.7721ZM10.9752 8.02294C10.8902 8.02294 10.7853 8.00778 10.6742 7.96613C10.5651 7.9252 10.4837 7.87138 10.4316 7.82969L12.3056 5.48709C11.9794 5.22611 11.5339 5.02294 10.9752 5.02294V8.02294ZM10.3079 7.71905C10.7628 8.17386 11.3069 8.16211 11.4171 8.15886C11.6039 8.15336 11.7485 8.11412 11.8197 8.09231C11.9748 8.04484 12.0941 7.9816 12.1678 7.93801C12.328 7.84332 12.4732 7.72166 12.5969 7.58084C12.8612 7.28011 13.0621 6.84991 13.0621 6.32944H10.0621C10.0621 6.05407 10.1727 5.7948 10.3434 5.60049C10.4204 5.51289 10.5181 5.42831 10.6407 5.35579C10.6957 5.32329 10.7988 5.2674 10.9416 5.22371C11.0066 5.20379 11.146 5.16555 11.3287 5.16016C11.4348 5.15704 11.9761 5.14453 12.4293 5.59773L10.3079 7.71905ZM13.0621 6.32944C13.0621 5.80703 12.8548 5.25371 12.3758 4.86344C11.9374 4.50628 11.433 4.41664 11.0526 4.41664V7.41664C10.9946 7.41664 10.7449 7.4044 10.4808 7.18914C10.1759 6.94077 10.0621 6.59385 10.0621 6.32944H13.0621ZM10.0011 7.56139C10.0011 8.39433 10.2913 9.20044 10.8979 9.80031C11.5032 10.3988 12.3103 10.6803 13.1394 10.6803V7.68034C13.0606 7.68034 13.0188 7.66742 13.0049 7.66211C12.9921 7.65725 12.9969 7.65682 13.0072 7.66704C13.0177 7.67738 13.0193 7.68426 13.0164 7.67678C13.013 7.66809 13.0011 7.63278 13.0011 7.56139H10.0011ZM13.1394 10.6803C13.8233 10.6803 14.4335 10.5033 14.9181 10.1987L13.3215 7.65883C13.3546 7.63804 13.3069 7.68034 13.1394 7.68034V10.6803ZM14.9181 10.1987C15.3072 9.95414 15.9616 9.38474 15.9616 8.47729H12.9616C12.9616 8.12901 13.1012 7.90184 13.165 7.81466C13.239 7.71353 13.3043 7.66965 13.3215 7.65883L14.9181 10.1987ZM15.9616 8.47729C15.9616 7.61955 15.4072 7.11758 15.0402 6.90891C14.8609 6.80693 14.6864 6.74584 14.5414 6.71027C14.4703 6.69282 14.3792 6.67485 14.2754 6.66574C14.2288 6.66165 14.1383 6.6555 14.0263 6.66343C13.9725 6.66723 13.8704 6.67704 13.7465 6.70966C13.6674 6.73048 13.3514 6.81472 13.0656 7.10058L15.1869 9.2219C14.9019 9.50695 14.5873 9.59052 14.5102 9.61083C14.3883 9.64292 14.2887 9.65236 14.238 9.65594C14.1321 9.66344 14.0499 9.65748 14.0133 9.65427C13.9296 9.64693 13.8658 9.63349 13.8268 9.6239C13.7458 9.60405 13.6544 9.57199 13.5573 9.51677C13.3548 9.40162 12.9616 9.06413 12.9616 8.47729H15.9616ZM12.8295 7.40731C12.8399 7.3894 12.8928 7.3082 13.0044 7.24054C13.1197 7.17061 13.1951 7.17724 13.1523 7.17724V10.1772C13.6513 10.1772 14.133 10.0645 14.5596 9.80595C14.9824 9.54963 15.2513 9.21042 15.423 8.91517L12.8295 7.40731ZM13.1523 7.17724C13.1893 7.17724 13.2935 7.19183 13.4046 7.28215C13.5177 7.37417 13.5702 7.49048 13.5844 7.57055L10.6304 8.09403C10.8544 9.35778 11.9158 10.1772 13.1523 10.1772V7.17724ZM13.587 7.58569C13.5861 7.58054 13.5856 7.57758 13.5852 7.57493C13.5848 7.57248 13.5847 7.57162 13.5847 7.57169C13.5847 7.57181 13.5849 7.5734 13.5853 7.57607C13.5857 7.57876 13.5863 7.58289 13.5869 7.58818C13.5894 7.60765 13.5945 7.65389 13.5945 7.71619H10.5945C10.5945 7.90018 10.625 8.06226 10.6278 8.07889L13.587 7.58569ZM12.0945 9.21619H14.3842V6.21619H12.0945V9.21619ZM14.3842 9.21619C14.5529 9.21619 15.1269 9.20447 15.5973 8.73412C16.0705 8.26095 16.0777 7.68396 16.0777 7.52914H13.0777C13.0777 7.50977 13.0625 7.02631 13.476 6.6128C13.8867 6.20211 14.3639 6.21619 14.3842 6.21619V9.21619ZM16.0777 7.52914V7.47754H13.0777V7.52914H16.0777ZM16.0777 7.47754C16.0777 6.69182 15.8223 5.91124 15.2565 5.31567C14.6838 4.71284 13.903 4.41664 13.0878 4.41664V7.41664C13.1347 7.41664 13.1465 7.42458 13.1346 7.41974C13.1292 7.41756 13.1206 7.41337 13.1103 7.40636C13.0999 7.39934 13.0901 7.39098 13.0815 7.38191C13.063 7.36243 13.0597 7.35005 13.0628 7.35833C13.0662 7.36776 13.0777 7.40485 13.0777 7.47754H16.0777ZM13.0878 4.41664C11.2886 4.41664 10.0011 5.84726 10.0011 7.56139H13.0011C13.0011 7.50484 13.011 7.46945 13.0181 7.4512C13.0252 7.43285 13.0316 7.42617 13.0322 7.42554C13.0326 7.42514 13.0326 7.42493 13.035 7.42388C13.0372 7.42298 13.0526 7.41664 13.0878 7.41664V4.41664ZM13.9585 5.78404H12.1009V8.78404H13.9585V5.78404ZM13.5844 7.50655C13.5752 7.56755 13.5385 7.6672 13.4391 7.75768C13.3351 7.8524 13.2009 7.90039 13.0813 7.90039V4.90039C11.7571 4.90039 10.794 5.88496 10.6175 7.06153L13.5844 7.50655ZM13.0813 7.90039C12.985 7.90039 12.7934 7.85826 12.6295 7.69084C12.478 7.53602 12.4622 7.38926 12.4613 7.37424L15.4558 7.19384C15.4227 6.64347 15.2263 6.05488 14.7732 5.59208C14.3077 5.11667 13.6937 4.90039 13.0813 4.90039V7.90039ZM13.3343 7.56139C13.3343 8.39433 13.6245 9.20044 14.2312 9.80031C14.8365 10.3988 15.6436 10.6803 16.4726 10.6803V7.68034C16.3939 7.68034 16.352 7.66742 16.3381 7.66211C16.3254 7.65725 16.3302 7.65682 16.3405 7.66704C16.351 7.67738 16.3526 7.68426 16.3497 7.67678C16.3463 7.66809 16.3343 7.63278 16.3343 7.56139H13.3343ZM16.4726 10.6803C17.1566 10.6803 17.7667 10.5033 18.2513 10.1987L16.6548 7.65883C16.6879 7.63804 16.6401 7.68034 16.4726 7.68034V10.6803ZM18.2513 10.1987C18.6404 9.95414 19.2949 9.38474 19.2949 8.47729H16.2949C16.2949 8.12901 16.4344 7.90184 16.4982 7.81466C16.5723 7.71353 16.6376 7.66965 16.6548 7.65883L18.2513 10.1987ZM19.2949 8.47729C19.2949 7.61955 18.7405 7.11758 18.3735 6.90891C18.1942 6.80693 18.0197 6.74584 17.8747 6.71027C17.8035 6.69282 17.7125 6.67485 17.6087 6.66574C17.562 6.66165 17.4716 6.6555 17.3595 6.66343C17.3057 6.66723 17.2037 6.67704 17.0797 6.70966C17.0006 6.73048 16.6847 6.81472 16.3988 7.10058L18.5202 9.2219C18.2351 9.50695 17.9206 9.59052 17.8434 9.61083C17.7215 9.64292 17.622 9.65236 17.5713 9.65594C17.4654 9.66344 17.3832 9.65748 17.3465 9.65427C17.2628 9.64693 17.1991 9.63349 17.16 9.6239C17.0791 9.60405 16.9877 9.57199 16.8906 9.51677C16.6881 9.40162 16.2949 9.06413 16.2949 8.47729H19.2949ZM16.1627 7.40731C16.1731 7.3894 16.226 7.3082 16.3376 7.24054C16.453 7.17061 16.5283 7.17724 16.4855 7.17724V10.1772C16.9846 10.1772 17.4663 10.0645 17.8928 9.80595C18.3156 9.54963 18.5846 9.21043 18.7563 8.91517L16.1627 7.40731ZM16.4855 7.17724C16.5225 7.17724 16.6268 7.19183 16.7378 7.28215C16.851 7.37417 16.9034 7.49048 16.9176 7.57055L13.9637 8.09403C14.1876 9.35778 15.249 10.1772 16.4855 10.1772V7.17724ZM16.9202 7.58569C16.9194 7.58054 16.9189 7.57758 16.9185 7.57493C16.9181 7.57249 16.9179 7.57163 16.9179 7.57171C16.918 7.57183 16.9182 7.57341 16.9186 7.57609C16.919 7.57878 16.9195 7.58291 16.9202 7.5882C16.9226 7.60767 16.9277 7.6539 16.9277 7.71619H13.9277C13.9277 7.90017 13.9583 8.06222 13.9611 8.07889L16.9202 7.58569ZM15.4277 9.21619H17.7175V6.21619H15.4277V9.21619ZM17.7175 9.21619C17.8862 9.21619 18.4602 9.20447 18.9305 8.73412C19.4037 8.26095 19.411 7.68396 19.411 7.52914H16.411C16.411 7.50977 16.3957 7.02631 16.8092 6.6128C17.2199 6.20211 17.6972 6.21619 17.7175 6.21619V9.21619ZM19.411 7.52914V7.47754H16.411V7.52914H19.411ZM19.411 7.47754C19.411 6.69182 19.1555 5.91124 18.5897 5.31567C18.017 4.71284 17.2363 4.41664 16.421 4.41664V7.41664C16.4679 7.41664 16.4798 7.42458 16.4678 7.41974C16.4625 7.41756 16.4538 7.41337 16.4435 7.40636C16.4332 7.39934 16.4233 7.39098 16.4147 7.38191C16.3962 7.36243 16.393 7.35005 16.396 7.35833C16.3995 7.36776 16.411 7.40485 16.411 7.47754H19.411ZM16.421 4.41664C14.6218 4.41664 13.3343 5.84725 13.3343 7.56139H16.3343C16.3343 7.50484 16.3442 7.46945 16.3513 7.4512C16.3585 7.43285 16.3649 7.42617 16.3655 7.42554C16.3659 7.42514 16.3658 7.42493 16.3683 7.42388C16.3704 7.42298 16.3858 7.41664 16.421 7.41664V4.41664ZM17.2918 5.78404H15.4342V8.78404H17.2918V5.78404ZM16.9176 7.50655C16.9085 7.56755 16.8717 7.6672 16.7724 7.75768C16.6684 7.8524 16.5341 7.90039 16.4146 7.90039V4.90039C15.0904 4.90039 14.1273 5.88496 13.9508 7.06153L16.9176 7.50655ZM16.4146 7.90039C16.3183 7.90039 16.1267 7.85826 15.9628 7.69084C15.8112 7.53602 15.7954 7.38927 15.7945 7.37424L18.7891 7.19384C18.7559 6.64346 18.5595 6.05488 18.1064 5.59208C17.641 5.11667 17.0269 4.90039 16.4146 4.90039V7.90039Z" fill="black" mask="url(#path-2-inside-1_7195_181)"/>
</g>
</g>
</svg>
