<svg width="32" height="32" viewBox="0 0 32 32" fill="none" xmlns="http://www.w3.org/2000/svg">
<g id="Other=4-3-free, Size=32px, weight=light">
<path id="4" d="M16.0157 17.7783V12.6432C16.0157 12.6265 16.0073 12.6182 15.9906 12.6182C15.9572 12.6182 15.9405 12.6265 15.9405 12.6432L12.2834 17.9286L12.2583 17.9536V17.9787C12.2583 17.9954 12.2667 18.0037 12.2834 18.0037H15.7902C15.9405 18.0037 16.0157 17.9286 16.0157 17.7783ZM21.8521 18.0037C22.2361 18.0037 22.5701 18.1456 22.854 18.4295C23.1379 18.7134 23.2798 19.0474 23.2798 19.4315V20.4585C23.2798 20.8426 23.1379 21.1766 22.854 21.4605C22.5701 21.7443 22.2361 21.8863 21.8521 21.8863H20.9753C20.8417 21.8863 20.775 21.9614 20.775 22.1117V23.7149C20.775 24.0989 20.633 24.4329 20.3491 24.7168C20.0652 25.0007 19.7312 25.1426 19.3472 25.1426H17.4434C17.0594 25.1426 16.7254 25.0007 16.4415 24.7168C16.1576 24.4329 16.0157 24.0989 16.0157 23.7149V22.1117C16.0157 21.9614 15.9405 21.8863 15.7902 21.8863H9.42779C9.04371 21.8863 8.70972 21.7443 8.42583 21.4605C8.14194 21.1766 8 20.8426 8 20.4585V19.4315C8 18.4963 8.27554 17.6363 8.82661 16.8515L15.189 8.00918C15.7401 7.24102 16.4916 6.85693 17.4434 6.85693H19.3472C19.7312 6.85693 20.0652 6.99888 20.3491 7.28276C20.633 7.56665 20.775 7.90064 20.775 8.28472V17.7783C20.775 17.9286 20.8417 18.0037 20.9753 18.0037H21.8521Z" stroke="black" stroke-linecap="round" stroke-linejoin="round"/>
</g>
</svg>
