<svg width="24" height="24" viewBox="0 0 24 24" fill="none" xmlns="http://www.w3.org/2000/svg">
<g id="Security=passport, Size=24px, weight=regular">
<path id="Vector" d="M4.69901 11.1832V19.762C4.72144 19.9873 4.82735 20.1961 4.99593 20.3473C5.16451 20.4985 5.38356 20.5811 5.61 20.579H18.6824C18.7848 20.5767 18.8857 20.5532 18.9786 20.5101C19.0715 20.467 19.1545 20.4052 19.2224 20.3284C19.2903 20.2517 19.3416 20.1618 19.3731 20.0643C19.4046 19.9669 19.4157 19.8639 19.4055 19.762V11.1832M4.69901 11.1832L3.2161 3.91574C3.20851 3.85316 3.21442 3.78969 3.23342 3.72958C3.25243 3.66947 3.28409 3.61412 3.32629 3.56728C3.36848 3.52044 3.42022 3.48319 3.47802 3.45804C3.53583 3.43288 3.59835 3.4204 3.66138 3.42145H20.631C20.6898 3.42314 20.7473 3.43844 20.7992 3.46614C20.851 3.49385 20.8957 3.5332 20.9298 3.58111C20.9638 3.62902 20.9863 3.68418 20.9954 3.74224C21.0046 3.80031 21.0001 3.8597 20.9824 3.91574L19.4055 11.1832M4.69901 11.1832H19.4055M8.37565 16.4938C8.70068 16.4938 9.0124 16.3646 9.24223 16.1348C9.47207 15.905 9.60119 15.5932 9.60119 15.2682V14.8597C9.60119 14.5347 9.47207 14.2229 9.24223 13.9931C9.0124 13.7633 8.70068 13.6342 8.37565 13.6342C8.05062 13.6342 7.7389 13.7633 7.50907 13.9931C7.27923 14.2229 7.15011 14.5347 7.15011 14.8597V15.2682C7.15011 15.5932 7.27923 15.905 7.50907 16.1348C7.7389 16.3646 8.05062 16.4938 8.37565 16.4938ZM8.37565 16.4938C9.07012 16.4938 10.4182 16.8369 10.4182 17.7193V18.5363M8.37565 16.4938C7.68118 16.4938 6.33308 16.8369 6.33308 17.7193V18.5363M11.6438 13.6342H12.8656M11.6438 14.8597H13.8869M15.3204 14.8597H17.5635M9.19268 9.14051H14.5034M11.6438 16.9023H12.8656M11.6401 18.1278H13.6826M15.3204 18.1278H17.5635" stroke="black" stroke-width="1.5" stroke-miterlimit="10" stroke-linecap="round" stroke-linejoin="round"/>
</g>
</svg>
