<svg width="16" height="16" viewBox="0 0 16 16" fill="none" xmlns="http://www.w3.org/2000/svg">
<g id="Security=passport-alert, Size=16px, weight=regular">
<path id="Vector" d="M3.63262 7.95525V13.6744C3.64757 13.8247 3.71818 13.9639 3.83057 14.0646C3.94296 14.1654 4.08899 14.2205 4.23995 14.2191H12.9549C13.0232 14.2176 13.0904 14.2019 13.1524 14.1732C13.2143 14.1445 13.2696 14.1032 13.3149 14.0521C13.3602 14.0009 13.3944 13.941 13.4154 13.876C13.4364 13.811 13.4437 13.7424 13.4369 13.6744V7.95525M3.63262 7.95525H13.4369M3.63262 7.95525L3.4541 7.07725M13.4369 7.95525L13.995 3.58051C14.0068 3.54315 14.0098 3.50355 14.0037 3.46484C13.9977 3.42613 13.9827 3.38936 13.96 3.35742C13.9373 3.32548 13.9075 3.29924 13.8729 3.28077C13.8384 3.2623 13.8 3.2521 13.7608 3.25098L5.88884 3.25098M6.08372 11.4956C6.3004 11.4956 6.50822 11.4095 6.66144 11.2563C6.81466 11.1031 6.90074 10.8953 6.90074 10.6786V10.4062C6.90074 10.1896 6.81466 9.98174 6.66144 9.82852C6.50822 9.6753 6.3004 9.58922 6.08372 9.58922C5.86703 9.58922 5.65922 9.6753 5.50599 9.82852C5.35277 9.98174 5.26669 10.1896 5.26669 10.4062V10.6786C5.26669 10.8953 5.35277 11.1031 5.50599 11.2563C5.65922 11.4095 5.86703 11.4956 6.08372 11.4956ZM6.08372 11.4956C6.5467 11.4956 7.44542 11.7244 7.44542 12.3126V12.8573M6.08372 11.4956C5.62073 11.4956 4.722 11.7244 4.722 12.3126V12.8573M8.26245 9.58922H9.07702M8.26245 10.4062H9.75787M10.7135 10.4062H12.209M6.6284 6.59345H10.1688M8.26245 11.768H9.07702M8.25999 12.585H9.6217M10.7135 12.585H12.209" stroke="black" stroke-width="1.5" stroke-miterlimit="10" stroke-linecap="round" stroke-linejoin="round"/>
<path id="Vector_2" d="M3.31055 2.62162L3.31055 4.28828M3.31055 5.11294V5.43408M0.810547 4.12807V2.46533C0.810547 1.77498 1.37019 1.21533 2.06055 1.21533H4.56055C5.2509 1.21533 5.81055 1.77498 5.81055 2.46533V4.12807C5.81055 5.2513 5.03675 6.19903 3.99998 6.8108C3.575 7.06157 3.0461 7.06157 2.62111 6.8108C1.58434 6.19903 0.810547 5.2513 0.810547 4.12807Z" stroke="black" stroke-width="1.5" stroke-linecap="round" stroke-linejoin="round"/>
</g>
</svg>
