<svg width="16" height="16" viewBox="0 0 16 16" fill="none" xmlns="http://www.w3.org/2000/svg">
<g id="Security=verified, Size=16px, weight=regular">
<path id="verified" d="M6.91311 3.21713C7.32227 2.26096 8.67773 2.26096 9.08689 3.21713C9.33954 3.80754 10.0173 4.08829 10.6135 3.84945C11.5789 3.46265 12.5373 4.42111 12.1506 5.38654C11.9117 5.98268 12.1925 6.66046 12.7829 6.91311C13.739 7.32227 13.739 8.67773 12.7829 9.08689C12.1925 9.33954 11.9117 10.0173 12.1506 10.6135C12.5373 11.5789 11.5789 12.5373 10.6135 12.1506C10.0173 11.9117 9.33954 12.1925 9.08689 12.7829C8.67773 13.739 7.32227 13.739 6.91311 12.7829C6.66046 12.1925 5.98268 11.9117 5.38654 12.1506C4.42111 12.5373 3.46265 11.5789 3.84945 10.6135C4.08829 10.0173 3.80754 9.33954 3.21713 9.08689C2.26096 8.67773 2.26096 7.32227 3.21713 6.91311C3.80754 6.66046 4.08829 5.98268 3.84945 5.38654C3.46265 4.42111 4.42111 3.46265 5.38654 3.84945C5.98268 4.08829 6.66046 3.80754 6.91311 3.21713Z" stroke="black" stroke-width="1.5" stroke-linecap="round" stroke-linejoin="round"/>
<path id="verified_2" d="M6.5 8.00005L7.82368 9.25005L9.75 6.5" stroke="black" stroke-width="1.5" stroke-linecap="round" stroke-linejoin="round"/>
</g>
</svg>
