<svg width="32" height="32" viewBox="0 0 32 32" fill="none" xmlns="http://www.w3.org/2000/svg">
<g id="Security=qr-code, Size=32px, stroke width=1px">
<path id="Vector" d="M5.99759 10.5009V7.5C5.99759 6.67157 6.66917 6 7.49759 6H10.4811M21.517 6.00105H24.5014C25.3299 6.00105 26.0014 6.67262 26.0014 7.50105V10.501M26.0014 21.5008V24.5007C26.0014 25.3291 25.3298 26.0007 24.5014 26.0007H21.5169M10.4815 25.9995H7.49707C6.66864 25.9995 5.99707 25.328 5.99707 24.4995V21.4996M13.303 15.3454H16.83C16.9404 15.3454 17.03 15.4349 17.03 15.5454V17.5838M19.3062 15.9381H23.103M8.89185 15.3454H10.8599M21.2885 20.9288V23.133M23.1029 18.7314V19.5059M14.9518 23.1333V20.6212C14.9518 20.5107 15.0413 20.4212 15.1518 20.4212H19.1062C19.2166 20.4212 19.3062 20.3316 19.3062 20.2212V18.4232M14.9518 8.86794V11.098M8.8918 8.86805H12.9V12.8958H8.8918V8.86805ZM10.7067 10.6923H11.086V11.0733H10.7067V10.6923ZM19.0948 8.86794H23.103V12.8957H19.0948V8.86794ZM20.9096 10.6921H21.2888V11.0732H20.9096V10.6921ZM8.89185 19.1054H12.9001V23.1322H8.89185V19.1054ZM10.7068 20.9288H11.086V21.3098H10.7068V20.9288Z" stroke="black" stroke-miterlimit="10" stroke-linecap="round" stroke-linejoin="round"/>
</g>
</svg>
