<svg width="24" height="24" viewBox="0 0 24 24" fill="none" xmlns="http://www.w3.org/2000/svg">
<g id="Security=magnet, Size=24px, weight=regular">
<path id="magnet" d="M4.875 8.16346H8.71154M15.2885 8.16346H19.125M4.875 12V6.375C4.875 5.54657 5.54657 4.875 6.375 4.875H7.21154C8.03997 4.875 8.71154 5.54657 8.71154 6.375V12C8.71154 13.8162 10.1838 15.2885 12 15.2885C13.8162 15.2885 15.2885 13.8162 15.2885 12V6.375C15.2885 5.54657 15.96 4.875 16.7885 4.875H17.625C18.4534 4.875 19.125 5.54657 19.125 6.375V12C19.125 15.935 15.935 19.125 12 19.125C8.06498 19.125 4.875 15.935 4.875 12Z" stroke="black" stroke-width="1.5" stroke-linecap="round" stroke-linejoin="round"/>
</g>
</svg>
