<svg width="24" height="24" viewBox="0 0 24 24" fill="none" xmlns="http://www.w3.org/2000/svg">
<g id="Security=passport-alert, Size=24px, weight=regular">
<path id="Vector" d="M5.44942 11.9329V20.5117C5.47185 20.737 5.57776 20.9458 5.74634 21.097C5.91492 21.2482 6.13397 21.3308 6.36041 21.3287H19.4328C19.5353 21.3264 19.6361 21.3029 19.729 21.2598C19.8219 21.2167 19.9049 21.1548 19.9728 21.0781C20.0407 21.0014 20.092 20.9115 20.1235 20.814C20.155 20.7165 20.1661 20.6136 20.1559 20.5117V11.9329M5.44942 11.9329H20.1559M5.44942 11.9329L5.18164 10.6159M20.1559 11.9329L20.993 5.37076C21.0108 5.31472 21.0152 5.25533 21.0061 5.19726C20.997 5.1392 20.9745 5.08404 20.9405 5.03613C20.9064 4.98822 20.8617 4.94886 20.8099 4.92116C20.758 4.89345 20.7005 4.87815 20.6417 4.87646L8.83375 4.87646M9.12606 17.2434C9.4511 17.2434 9.76281 17.1143 9.99265 16.8845C10.2225 16.6546 10.3516 16.3429 10.3516 16.0179V15.6094C10.3516 15.2843 10.2225 14.9726 9.99265 14.7428C9.76281 14.5129 9.4511 14.3838 9.12606 14.3838C8.80103 14.3838 8.48931 14.5129 8.25948 14.7428C8.02965 14.9726 7.90052 15.2843 7.90052 15.6094V16.0179C7.90052 16.3429 8.02965 16.6546 8.25948 16.8845C8.48931 17.1143 8.80103 17.2434 9.12606 17.2434ZM9.12606 17.2434C9.82054 17.2434 11.1686 17.5866 11.1686 18.469V19.286M9.12606 17.2434C8.43159 17.2434 7.08349 17.5866 7.08349 18.469V19.286M12.3942 14.3838H13.616M12.3942 15.6094H14.6373M16.0708 15.6094H18.3139M9.94309 9.89018H15.2538M12.3942 17.6519H13.616M12.3905 18.8775H14.433M16.0708 18.8775H18.3139" stroke="black" stroke-width="1.5" stroke-miterlimit="10" stroke-linecap="round" stroke-linejoin="round"/>
<path id="Vector_2" d="M4.96582 3.93267L4.96582 6.43267M4.96582 7.66965V8.15137M1.21582 6.19235V3.69824C1.21582 2.66271 2.05529 1.82324 3.09082 1.82324H6.84082C7.87635 1.82324 8.71582 2.66271 8.71582 3.69824V6.19235C8.71582 7.87719 7.55513 9.29879 5.99997 10.2164C5.36249 10.5926 4.56915 10.5926 3.93167 10.2164C2.37651 9.29879 1.21582 7.87719 1.21582 6.19235Z" stroke="black" stroke-width="1.5" stroke-linecap="round" stroke-linejoin="round"/>
</g>
</svg>
