<svg width="16" height="16" viewBox="0 0 16 16" fill="none" xmlns="http://www.w3.org/2000/svg">
<g id="Security=verified-face, Size=16px, stroke width=1px">
<path id="verified-face" d="M5.44231 3.25H5.25C4.14543 3.25 3.25 4.14543 3.25 5.25V5.44231M10.5577 3.25H10.75C11.8546 3.25 12.75 4.14543 12.75 5.25V5.44231M5.44231 12.75H5.25C4.14543 12.75 3.25 11.8546 3.25 10.75V10.5577M10.5577 12.75H10.75C11.8546 12.75 12.75 11.8546 12.75 10.75V10.5577M6.53846 7.26923L6.53846 6.17308M9.46154 7.26923L9.46154 6.17308M6.17308 9.82692C6.65761 10.2948 7.31477 10.5577 8 10.5577C8.68523 10.5577 9.34239 10.2948 9.82692 9.82692" stroke="black" stroke-linecap="round" stroke-linejoin="round"/>
</g>
</svg>
