<svg width="24" height="24" viewBox="0 0 24 24" fill="none" xmlns="http://www.w3.org/2000/svg">
<g id="Security=qr-code, Size=24px, stroke width=1.5px">
<path id="qr-code" d="M4.50039 7.87554V5.62496C4.50039 5.00366 5.00406 4.5 5.62535 4.5H7.86293M16.1395 4.50078H18.3778C18.9991 4.50078 19.5028 5.00445 19.5028 5.62575V7.87561M19.5027 16.1252V18.375C19.5027 18.9963 18.9991 19.5 18.3778 19.5H16.1395M7.86324 19.4991H5.62496C5.00366 19.4991 4.5 18.9955 4.5 18.3742V16.1243M9.97927 11.5088H12.5744C12.6849 11.5088 12.7744 11.5983 12.7744 11.7088V13.1875M14.4815 11.9534H17.329M6.67101 11.5088H8.14702M15.9682 15.6962V17.3493M17.3289 14.0482V14.6291M11.2158 17.3495V15.5155C11.2158 15.4051 11.3054 15.3155 11.4158 15.3155H14.2815C14.392 15.3155 14.4815 15.226 14.4815 15.1155V13.8171M11.2158 6.65088V8.3234M6.67098 6.65097H9.67704V9.67165H6.67098V6.65097ZM8.03214 8.01907H8.31653V8.30485H8.03214V8.01907ZM14.323 6.65088H17.329V9.67156H14.323V6.65088ZM15.684 8.01898H15.9684V8.30476H15.684V8.01898ZM6.67101 14.3288H9.67707V17.3487H6.67101V14.3288ZM8.03217 15.6962H8.31657V15.982H8.03217V15.6962Z" stroke="black" stroke-width="1.5" stroke-miterlimit="10" stroke-linecap="round" stroke-linejoin="round"/>
</g>
</svg>
