<svg width="16" height="16" viewBox="0 0 16 16" fill="none" xmlns="http://www.w3.org/2000/svg">
<g id="Security=passport-alert, Size=16px, stroke width=1.5px">
<path id="Vector" d="M3.63262 7.95549V13.6747C3.64757 13.8249 3.71818 13.9641 3.83057 14.0649C3.94296 14.1657 4.08899 14.2208 4.23995 14.2194H12.9549C13.0232 14.2178 13.0904 14.2022 13.1524 14.1734C13.2143 14.1447 13.2696 14.1035 13.3149 14.0523C13.3602 14.0012 13.3944 13.9412 13.4154 13.8763C13.4364 13.8113 13.4437 13.7426 13.4369 13.6747V7.95549M3.63262 7.95549H13.4369M3.63262 7.95549L3.4541 7.0775M13.4369 7.95549L13.995 3.58075C14.0068 3.54339 14.0098 3.5038 14.0037 3.46509C13.9977 3.42637 13.9827 3.3896 13.96 3.35766C13.9373 3.32572 13.9075 3.29949 13.8729 3.28102C13.8384 3.26255 13.8 3.25235 13.7608 3.25122L5.88884 3.25122M6.08372 11.4959C6.3004 11.4959 6.50822 11.4098 6.66144 11.2566C6.81466 11.1033 6.90074 10.8955 6.90074 10.6788V10.4065C6.90074 10.1898 6.81466 9.98199 6.66144 9.82877C6.50822 9.67554 6.3004 9.58946 6.08372 9.58946C5.86703 9.58946 5.65922 9.67554 5.50599 9.82877C5.35277 9.98199 5.26669 10.1898 5.26669 10.4065V10.6788C5.26669 10.8955 5.35277 11.1033 5.50599 11.2566C5.65922 11.4098 5.86703 11.4959 6.08372 11.4959ZM6.08372 11.4959C6.5467 11.4959 7.44542 11.7246 7.44542 12.3129V12.8576M6.08372 11.4959C5.62073 11.4959 4.722 11.7246 4.722 12.3129V12.8576M8.26245 9.58946H9.07702M8.26245 10.4065H9.75787M10.7135 10.4065H12.209M6.6284 6.5937H10.1688M8.26245 11.7682H9.07702M8.25999 12.5852H9.6217M10.7135 12.5852H12.209" stroke="black" stroke-width="1.5" stroke-miterlimit="10" stroke-linecap="round" stroke-linejoin="round"/>
<path id="Vector_2" d="M3.31055 2.62162L3.31055 4.28828M3.31055 5.11294V5.43408M0.810547 4.12807V2.46533C0.810547 1.77498 1.37019 1.21533 2.06055 1.21533H4.56055C5.2509 1.21533 5.81055 1.77498 5.81055 2.46533V4.12807C5.81055 5.2513 5.03675 6.19903 3.99998 6.8108C3.575 7.06157 3.0461 7.06157 2.62111 6.8108C1.58434 6.19903 0.810547 5.2513 0.810547 4.12807Z" stroke="black" stroke-width="1.5" stroke-linecap="round" stroke-linejoin="round"/>
</g>
</svg>
