<svg width="24" height="24" viewBox="0 0 24 24" fill="none" xmlns="http://www.w3.org/2000/svg">
<g id="Security=umbrella, Size=24px, weight=regular">
<path id="umbrella" d="M12.0003 5.89286C13.7905 5.89286 15.5074 6.58991 16.7732 7.83066C17.8578 8.89372 18.5352 10.2813 18.707 11.7605C18.7547 12.172 18.4145 12.5089 18.0003 12.5089H12.0003M12.0003 5.89286C10.21 5.89286 8.49315 6.5899 7.22728 7.83066C6.1427 8.89372 5.46533 10.2813 5.29355 11.7605C5.24577 12.172 5.58604 12.5089 6.00025 12.5089L12.0003 12.5089M12.0003 5.89286L12.0002 4.875M12.0003 12.5089L12.0002 16.0179C12.0002 17.1718 11.0704 18.1072 9.9233 18.1072C8.77624 18.1072 7.84638 17.1718 7.84638 16.0179" stroke="black" stroke-width="1.5" stroke-linecap="round" stroke-linejoin="round"/>
</g>
</svg>
