<svg width="16" height="16" viewBox="0 0 16 16" fill="none" xmlns="http://www.w3.org/2000/svg">
<g id="Security=qr-code, Size=16px, stroke width=1px">
<path id="qr-code" d="M7.87585 6.62657V4.89818M7.93855 11.4722V9.80557H9.4442V8.94138M10.4766 9.25V8.3858M11.3616 10.6389V9.12654M10.4766 11.4722V10.608M6.648 7.70679H7.93856V8.97222M5.38814 7.76854H4.52777M9.87439 7.76854H9.01402M11.4722 7.76854H10.6118M5.5 3H3.83333C3.3731 3 3 3.3731 3 3.83333V5.5M5.5 13H3.83333C3.3731 13 3 12.6269 3 12.1667V10.5M10.5 3H12.1667C12.6269 3 13 3.3731 13 3.83333V5.5M10.5 13H12.1667C12.6269 13 13 12.6269 13 12.1667V10.5M4.55865 9.25H6.70958V11.4105H4.55865V9.25ZM4.55865 4.52778H6.70958V6.68827H4.55865V4.52778ZM9.25982 4.52778H11.4108V6.68827H9.25982V4.52778Z" stroke="black" stroke-linecap="round" stroke-linejoin="round"/>
</g>
</svg>
