<svg width="16" height="16" viewBox="0 0 16 16" fill="none" xmlns="http://www.w3.org/2000/svg">
<g id="Security=umbrella, Size=16px, weight=light">
<path id="umbrella" d="M7.99952 3.92857C9.19299 3.92857 10.3376 4.39327 11.1815 5.22044C11.9046 5.92915 12.3561 6.8542 12.4707 7.84036C12.5025 8.11466 12.2757 8.33929 11.9995 8.33929H7.99952M7.99952 3.92857C6.80604 3.92857 5.66145 4.39327 4.81754 5.22044C4.09448 5.92915 3.6429 6.8542 3.52838 7.84036C3.49653 8.11466 3.72337 8.33928 3.99952 8.33928L7.99952 8.33929M7.99952 3.92857L7.99951 3.25M7.99952 8.33929L7.9995 10.6786C7.9995 11.4478 7.37959 12.0714 6.61488 12.0714C5.85018 12.0714 5.23027 11.4478 5.23027 10.6786" stroke="black" stroke-linecap="round" stroke-linejoin="round"/>
</g>
</svg>
