<svg width="24" height="24" viewBox="0 0 24 24" fill="none" xmlns="http://www.w3.org/2000/svg">
<g id="Security=passport, Size=24px, weight=light">
<path id="Vector" d="M4.69901 11.183V19.7617C4.72144 19.9871 4.82735 20.1959 4.99593 20.3471C5.16451 20.4982 5.38356 20.5809 5.61 20.5788H18.6824C18.7848 20.5765 18.8857 20.553 18.9786 20.5099C19.0715 20.4668 19.1545 20.4049 19.2224 20.3282C19.2903 20.2515 19.3416 20.1616 19.3731 20.0641C19.4046 19.9666 19.4157 19.8637 19.4055 19.7617V11.183M4.69901 11.183L3.2161 3.9155C3.20851 3.85292 3.21442 3.78944 3.23342 3.72933C3.25243 3.66922 3.28409 3.61388 3.32629 3.56704C3.36848 3.5202 3.42022 3.48295 3.47802 3.45779C3.53583 3.43264 3.59835 3.42016 3.66138 3.4212H20.631C20.6898 3.42289 20.7473 3.43819 20.7992 3.4659C20.851 3.4936 20.8957 3.53296 20.9298 3.58087C20.9638 3.62878 20.9863 3.68393 20.9954 3.742C21.0046 3.80007 21.0001 3.85946 20.9824 3.9155L19.4055 11.183M4.69901 11.183H19.4055M8.37565 16.4935C8.70068 16.4935 9.0124 16.3644 9.24223 16.1345C9.47207 15.9047 9.60119 15.593 9.60119 15.268V14.8595C9.60119 14.5344 9.47207 14.2227 9.24223 13.9929C9.0124 13.763 8.70068 13.6339 8.37565 13.6339C8.05062 13.6339 7.7389 13.763 7.50907 13.9929C7.27923 14.2227 7.15011 14.5344 7.15011 14.8595V15.268C7.15011 15.593 7.27923 15.9047 7.50907 16.1345C7.7389 16.3644 8.05062 16.4935 8.37565 16.4935ZM8.37565 16.4935C9.07012 16.4935 10.4182 16.8367 10.4182 17.719V18.5361M8.37565 16.4935C7.68118 16.4935 6.33308 16.8367 6.33308 17.719V18.5361M11.6438 13.6339H12.8656M11.6438 14.8595H13.8869M15.3204 14.8595H17.5635M9.19268 9.14026H14.5034M11.6438 16.902H12.8656M11.6401 18.1276H13.6826M15.3204 18.1276H17.5635" stroke="black" stroke-miterlimit="10" stroke-linecap="round" stroke-linejoin="round"/>
</g>
</svg>
