<svg width="32" height="32" viewBox="0 0 32 32" fill="none" xmlns="http://www.w3.org/2000/svg">
<g id="Security=passport-alert, Size=32px, weight=regular">
<path id="Vector" d="M7.26524 15.911V27.3494C7.29515 27.6498 7.43637 27.9282 7.66114 28.1298C7.88591 28.3314 8.17798 28.4416 8.4799 28.4387H25.9098C26.0464 28.4356 26.1808 28.4044 26.3047 28.3469C26.4286 28.2894 26.5393 28.2069 26.6298 28.1046C26.7203 28.0023 26.7887 27.8825 26.8307 27.7525C26.8727 27.6225 26.8874 27.4853 26.8739 27.3494V15.911M7.26524 15.911H26.8739M7.26524 15.911L6.9082 14.155M26.8739 15.911L27.9901 7.16151C28.0137 7.08678 28.0197 7.00759 28.0075 6.93017C27.9953 6.85275 27.9654 6.77921 27.92 6.71533C27.8746 6.65144 27.815 6.59897 27.7458 6.56203C27.6767 6.52509 27.6 6.50469 27.5216 6.50244L11.7777 6.50244M12.1674 22.9917C12.6008 22.9917 13.0164 22.8195 13.3229 22.5131C13.6293 22.2067 13.8015 21.791 13.8015 21.3577V20.813C13.8015 20.3796 13.6293 19.964 13.3229 19.6575C13.0164 19.3511 12.6008 19.1789 12.1674 19.1789C11.7341 19.1789 11.3184 19.3511 11.012 19.6575C10.7055 19.964 10.5334 20.3796 10.5334 20.813V21.3577C10.5334 21.791 10.7055 22.2067 11.012 22.5131C11.3184 22.8195 11.7341 22.9917 12.1674 22.9917ZM12.1674 22.9917C13.0934 22.9917 14.8908 23.4492 14.8908 24.6258V25.7151M12.1674 22.9917C11.2415 22.9917 9.44401 23.4492 9.44401 24.6258V25.7151M16.5249 19.1789H18.154M16.5249 20.813H19.5157M21.4271 20.813H24.4179M13.2568 13.1874H20.3377M16.5249 23.5364H18.154M16.52 25.1705H19.2434M21.4271 25.1705H24.4179" stroke="black" stroke-width="1.5" stroke-miterlimit="10" stroke-linecap="round" stroke-linejoin="round"/>
<path id="Vector_2" d="M6.62012 5.24323L6.62012 8.57657M6.62012 10.2259V10.8682M1.62012 8.25614V4.93067C1.62012 3.54995 2.73941 2.43066 4.12012 2.43066H9.12012C10.5008 2.43066 11.6201 3.54995 11.6201 4.93066V8.25614C11.6201 10.5026 10.0725 12.3981 7.99899 13.6216C7.14901 14.1231 6.09122 14.1231 5.24125 13.6216C3.16771 12.3981 1.62012 10.5026 1.62012 8.25614Z" stroke="black" stroke-width="1.5" stroke-linecap="round" stroke-linejoin="round"/>
</g>
</svg>
