<svg width="16" height="16" viewBox="0 0 16 16" fill="none" xmlns="http://www.w3.org/2000/svg">
<g id="Security=passport, Size=16px, stroke width=1px">
<path id="Vector" d="M3.13235 7.45531V13.1745C3.1473 13.3247 3.21791 13.4639 3.3303 13.5647C3.44268 13.6655 3.58872 13.7206 3.73967 13.7192H12.4546C12.5229 13.7176 12.5901 13.702 12.6521 13.6733C12.714 13.6445 12.7694 13.6033 12.8146 13.5521C12.8599 13.501 12.8941 13.4411 12.9151 13.3761C12.9361 13.3111 12.9434 13.2425 12.9367 13.1745V7.45531M3.13235 7.45531L2.14374 2.61033C2.13868 2.56861 2.14262 2.52629 2.15529 2.48622C2.16796 2.44615 2.18907 2.40925 2.2172 2.37803C2.24533 2.3468 2.27982 2.32197 2.31835 2.3052C2.35689 2.28842 2.39857 2.28011 2.4406 2.2808H13.7537C13.7929 2.28193 13.8312 2.29213 13.8658 2.3106C13.9004 2.32907 13.9302 2.3553 13.9529 2.38724C13.9756 2.41918 13.9905 2.45596 13.9966 2.49467C14.0027 2.53338 13.9997 2.57297 13.9879 2.61033L12.9367 7.45531M3.13235 7.45531H12.9367M5.58344 10.9957C5.80013 10.9957 6.00794 10.9096 6.16116 10.7564C6.31439 10.6031 6.40047 10.3953 6.40047 10.1786V9.9063C6.40047 9.68961 6.31439 9.4818 6.16116 9.32858C6.00794 9.17536 5.80013 9.08928 5.58344 9.08928C5.36675 9.08928 5.15894 9.17536 5.00572 9.32858C4.8525 9.4818 4.76641 9.68961 4.76641 9.9063V10.1786C4.76641 10.3953 4.8525 10.6031 5.00572 10.7564C5.15894 10.9096 5.36675 10.9957 5.58344 10.9957ZM5.58344 10.9957C6.04642 10.9957 6.94515 11.2244 6.94515 11.8127V12.3574M5.58344 10.9957C5.12046 10.9957 4.22173 11.2244 4.22173 11.8127V12.3574M7.76218 9.08928H8.57675M7.76218 9.9063H9.2576M10.2133 9.9063H11.7087M6.12813 6.09351H9.66858M7.76218 11.268H8.57675M7.75972 12.085H9.12143M10.2133 12.085H11.7087" stroke="black" stroke-miterlimit="10" stroke-linecap="round" stroke-linejoin="round"/>
</g>
</svg>
