<svg width="24" height="24" viewBox="0 0 24 24" fill="none" xmlns="http://www.w3.org/2000/svg">
<g id="Security=verified-face, Size=24px, weight=regular">
<path id="verified-face" d="M8.16346 4.875H7.875C6.21815 4.875 4.875 6.21815 4.875 7.875V8.16346M15.8365 4.875H16.125C17.7819 4.875 19.125 6.21815 19.125 7.875V8.16346M8.16346 19.125H7.875C6.21815 19.125 4.875 17.7819 4.875 16.125V15.8365M15.8365 19.125H16.125C17.7819 19.125 19.125 17.7819 19.125 16.125V15.8365M9.80769 10.9038L9.80769 9.25962M14.1923 10.9038L14.1923 9.25962M9.25961 14.7404C9.98641 15.4422 10.9722 15.8365 12 15.8365C13.0278 15.8365 14.0136 15.4422 14.7404 14.7404" stroke="black" stroke-width="1.5" stroke-linecap="round" stroke-linejoin="round"/>
</g>
</svg>
