<svg width="16" height="16" viewBox="0 0 16 16" fill="none" xmlns="http://www.w3.org/2000/svg">
<g id="Security=umbrella, Size=16px, stroke width=1.5px">
<path id="umbrella" d="M8.00001 3.92857C9.19348 3.92857 10.3381 4.39327 11.182 5.22044C11.905 5.92915 12.3566 6.8542 12.4711 7.84036C12.503 8.11466 12.2761 8.33929 12 8.33929H8.00001M8.00001 3.92857C6.80653 3.92857 5.66194 4.39327 4.81802 5.22044C4.09497 5.92915 3.64339 6.8542 3.52887 7.84036C3.49702 8.11466 3.72386 8.33928 4.00001 8.33928L8.00001 8.33929M8.00001 3.92857L8 3.25M8.00001 8.33929L7.99999 10.6786C7.99999 11.4478 7.38008 12.0714 6.61537 12.0714C5.85067 12.0714 5.23076 11.4478 5.23076 10.6786" stroke="black" stroke-width="1.5" stroke-linecap="round" stroke-linejoin="round"/>
</g>
</svg>
