<svg width="24" height="24" viewBox="0 0 24 24" fill="none" xmlns="http://www.w3.org/2000/svg">
<g id="Security=verified, Size=24px, weight=regular">
<path id="verified" d="M10.3697 4.82569C10.9834 3.39144 13.0166 3.39144 13.6303 4.82569C14.0093 5.71132 15.026 6.13243 15.9202 5.77417C17.3683 5.19398 18.806 6.63167 18.2258 8.07982C17.8676 8.97402 18.2887 9.99069 19.1743 10.3697C20.6086 10.9834 20.6086 13.0166 19.1743 13.6303C18.2887 14.0093 17.8676 15.026 18.2258 15.9202C18.806 17.3683 17.3683 18.806 15.9202 18.2258C15.026 17.8676 14.0093 18.2887 13.6303 19.1743C13.0166 20.6086 10.9834 20.6086 10.3697 19.1743C9.99069 18.2887 8.97402 17.8676 8.07982 18.2258C6.63167 18.806 5.19398 17.3683 5.77417 15.9202C6.13243 15.026 5.71132 14.0093 4.82569 13.6303C3.39144 13.0166 3.39144 10.9834 4.82569 10.3697C5.71132 9.99069 6.13243 8.97402 5.77417 8.07982C5.19398 6.63167 6.63167 5.19398 8.07982 5.77417C8.97402 6.13243 9.99069 5.71132 10.3697 4.82569Z" stroke="black" stroke-width="1.5" stroke-linecap="round" stroke-linejoin="round"/>
<path id="verified_2" d="M9.75 12.0001L11.7355 13.8751L14.625 9.75" stroke="black" stroke-width="1.5" stroke-linecap="round" stroke-linejoin="round"/>
</g>
</svg>
