<svg width="16" height="16" viewBox="0 0 16 16" fill="none" xmlns="http://www.w3.org/2000/svg">
<g id="Security=magnet, Size=16px, stroke width=1.5px">
<path id="magnet" d="M3.25 5.44231H5.80769M10.1923 5.44231H12.75M3.25 8V4.25C3.25 3.69772 3.69772 3.25 4.25 3.25H4.80769C5.35998 3.25 5.80769 3.69772 5.80769 4.25V8C5.80769 9.21078 6.78922 10.1923 8 10.1923C9.21078 10.1923 10.1923 9.21078 10.1923 8V4.25C10.1923 3.69772 10.64 3.25 11.1923 3.25H11.75C12.3023 3.25 12.75 3.69772 12.75 4.25V8C12.75 10.6233 10.6233 12.75 8 12.75C5.37665 12.75 3.25 10.6233 3.25 8Z" stroke="black" stroke-width="1.5" stroke-linecap="round" stroke-linejoin="round"/>
</g>
</svg>
