<svg width="24" height="24" viewBox="0 0 24 24" fill="none" xmlns="http://www.w3.org/2000/svg">
<g id="Security=bet-insurance, Size=24px, stroke width=1.5px">
<path id="Vector" d="M15.375 4.00757H8.625C6.76104 4.00757 5.25 5.51861 5.25 7.38257V11.872C5.25 14.9047 7.33925 17.4636 10.1385 19.1153C11.286 19.7924 12.714 19.7924 13.8615 19.1153C16.6608 17.4636 18.75 14.9047 18.75 11.872V7.38257C18.75 5.51861 17.239 4.00757 15.375 4.00757Z" stroke="black" stroke-width="1.5" stroke-linecap="round" stroke-linejoin="round"/>
<path id="betslip" d="M16.125 13.125C16.125 13.5392 15.8161 13.875 15.435 13.875L9.07813 13.875M9.07812 7.875L15.435 7.875C15.8161 7.875 16.125 8.21079 16.125 8.625L16.125 8.94992C16.125 9.05388 16.0393 9.13565 15.9387 9.16162C15.6495 9.23624 15.4375 9.48024 15.4375 9.76974C15.4375 10.0592 15.6495 10.3032 15.9387 10.3778C16.0393 10.4038 16.125 10.4856 16.125 10.5896L16.125 11.1604C16.125 11.2644 16.0393 11.3462 15.9387 11.3722C15.6495 11.4468 15.4375 11.6908 15.4375 11.9803C15.4375 12.2698 15.6495 12.5138 15.9387 12.5884C16.0393 12.6143 16.125 12.6961 16.125 12.8001L16.125 13.0855M7.875 13.125C7.875 13.5392 8.18392 13.875 8.565 13.875L9.2475 13.875M9.2475 7.875L8.565 7.875C8.18392 7.875 7.875 8.21079 7.875 8.625L7.875 8.94992C7.875 9.05388 7.96065 9.13565 8.06131 9.16162C8.35048 9.23624 8.5625 9.48024 8.5625 9.76974C8.5625 10.0592 8.35048 10.3032 8.06131 10.3778C7.96065 10.4038 7.875 10.4856 7.875 10.5896L7.875 11.1604C7.875 11.2644 7.96065 11.3462 8.06131 11.3722C8.35048 11.4468 8.5625 11.6908 8.5625 11.9803C8.5625 12.2698 8.35048 12.5138 8.06131 12.5884C7.96065 12.6143 7.875 12.6961 7.875 12.8001L7.875 13.0855M13.4609 13.6382L13.4609 13.1645M13.4609 12.375L13.4609 11.9013M13.4609 11.1118L13.4609 10.6382M13.4609 9.84868L13.4609 9.375M13.4609 8.58553L13.4609 8.11184" stroke="black" stroke-width="1.5" stroke-linecap="round" stroke-linejoin="round"/>
</g>
</svg>
