<svg width="32" height="32" viewBox="0 0 32 32" fill="none" xmlns="http://www.w3.org/2000/svg">
<g id="Security=passport, Size=32px, weight=light">
<path id="Vector" d="M6.26567 14.9106V26.349C6.29558 26.6494 6.4368 26.9278 6.66157 27.1294C6.88634 27.331 7.17841 27.4412 7.48033 27.4384H24.9102C25.0468 27.4353 25.1812 27.404 25.3051 27.3465C25.429 27.289 25.5397 27.2065 25.6302 27.1043C25.7208 27.002 25.7892 26.8821 25.8312 26.7521C25.8732 26.6222 25.8879 26.4849 25.8743 26.349V14.9106M6.26567 14.9106L4.28847 5.22067C4.27834 5.13722 4.28621 5.05259 4.31155 4.97244C4.33689 4.8923 4.37912 4.81851 4.43537 4.75605C4.49163 4.6936 4.56061 4.64393 4.63769 4.61039C4.71476 4.57685 4.79813 4.56021 4.88217 4.5616H27.5084C27.5867 4.56386 27.6635 4.58426 27.7326 4.6212C27.8017 4.65814 27.8613 4.71061 27.9067 4.77449C27.9521 4.83837 27.9821 4.91191 27.9942 4.98933C28.0064 5.06676 28.0004 5.14594 27.9768 5.22067L25.8743 14.9106M6.26567 14.9106H25.8743M11.1679 21.9913C11.6012 21.9913 12.0169 21.8192 12.3233 21.5127C12.6297 21.2063 12.8019 20.7907 12.8019 20.3573V19.8126C12.8019 19.3792 12.6297 18.9636 12.3233 18.6572C12.0169 18.3507 11.6012 18.1786 11.1679 18.1786C10.7345 18.1786 10.3189 18.3507 10.0124 18.6572C9.70597 18.9636 9.53381 19.3792 9.53381 19.8126V20.3573C9.53381 20.7907 9.70597 21.2063 10.0124 21.5127C10.3189 21.8192 10.7345 21.9913 11.1679 21.9913ZM11.1679 21.9913C12.0938 21.9913 13.8913 22.4489 13.8913 23.6254V24.7148M11.1679 21.9913C10.2419 21.9913 8.44444 22.4489 8.44444 23.6254V24.7148M15.5253 18.1786H17.1545M15.5253 19.8126H18.5162M20.4275 19.8126H23.4183M12.2572 12.187H19.3381M15.5253 22.536H17.1545M15.5204 24.1701H18.2438M20.4275 24.1701H23.4183" stroke="black" stroke-miterlimit="10" stroke-linecap="round" stroke-linejoin="round"/>
</g>
</svg>
