<svg width="16" height="16" viewBox="0 0 16 16" fill="none" xmlns="http://www.w3.org/2000/svg">
<g id="Security=bet-insurance, Size=16px, stroke width=1.5px">
<path id="Vector" d="M10.25 2.67163H5.75C4.50736 2.67163 3.5 3.67899 3.5 4.92163V7.91456C3.5 9.93637 4.89283 11.6423 6.75902 12.7435C7.52399 13.1949 8.47601 13.1949 9.24098 12.7435C11.1072 11.6423 12.5 9.93637 12.5 7.91456V4.92163C12.5 3.67899 11.4926 2.67163 10.25 2.67163Z" stroke="black" stroke-width="1.5" stroke-linecap="round" stroke-linejoin="round"/>
<path id="betslip" d="M10.75 8.75C10.75 9.02614 10.5441 9.25 10.29 9.25L6.05208 9.25M6.05208 5.25L10.29 5.25C10.5441 5.25 10.75 5.47386 10.75 5.75L10.75 5.90387C10.75 6.00783 10.6627 6.0885 10.5662 6.12732C10.4046 6.19238 10.2917 6.34066 10.2917 6.51316C10.2917 6.68566 10.4046 6.83393 10.5662 6.899C10.6627 6.93782 10.75 7.01849 10.75 7.12245L10.75 7.37755C10.75 7.48151 10.6627 7.56218 10.5662 7.601C10.4046 7.66607 10.2917 7.81434 10.2917 7.98684C10.2917 8.15934 10.4046 8.30762 10.5662 8.37268C10.6627 8.4115 10.75 8.49217 10.75 8.59613L10.75 8.72368M5.25 8.75C5.25 9.02614 5.45595 9.25 5.71 9.25L6.165 9.25M6.165 5.25L5.71 5.25C5.45595 5.25 5.25 5.47386 5.25 5.75L5.25 5.90387C5.25 6.00783 5.33734 6.0885 5.43378 6.12732C5.59541 6.19238 5.70833 6.34066 5.70833 6.51316C5.70833 6.68566 5.59541 6.83393 5.43378 6.899C5.33734 6.93782 5.25 7.01849 5.25 7.12245L5.25 7.37755C5.25 7.48151 5.33734 7.56218 5.43378 7.601C5.59541 7.66607 5.70833 7.81434 5.70833 7.98684C5.70833 8.15934 5.59541 8.30762 5.43378 8.37268C5.33734 8.4115 5.25 8.49217 5.25 8.59613L5.25 8.72368M8.97396 9.0921L8.97396 8.77632M8.97396 8.25L8.97396 7.93421M8.97396 7.40789L8.97396 7.0921M8.97396 6.56579L8.97396 6.25M8.97396 5.72368L8.97396 5.40789" stroke="black" stroke-width="1.5" stroke-linecap="round" stroke-linejoin="round"/>
</g>
</svg>
