<svg width="32" height="32" viewBox="0 0 32 32" fill="none" xmlns="http://www.w3.org/2000/svg">
<g id="Security=passport-alert, Size=32px, stroke width=1px">
<path id="Vector" d="M7.26524 15.9107V27.3491C7.29515 27.6496 7.43637 27.9279 7.66114 28.1295C7.88591 28.3311 8.17798 28.4413 8.4799 28.4385H25.9098C26.0464 28.4354 26.1808 28.4041 26.3047 28.3466C26.4286 28.2892 26.5393 28.2067 26.6298 28.1044C26.7203 28.0021 26.7887 27.8822 26.8307 27.7523C26.8727 27.6223 26.8874 27.485 26.8739 27.3491V15.9107M7.26524 15.9107H26.8739M7.26524 15.9107L6.9082 14.1548M26.8739 15.9107L27.9901 7.16126C28.0137 7.08654 28.0197 7.00735 28.0075 6.92993C27.9953 6.8525 27.9654 6.77896 27.92 6.71508C27.8746 6.6512 27.815 6.59873 27.7458 6.56179C27.6767 6.52485 27.6 6.50445 27.5216 6.5022L11.7777 6.5022M12.1674 22.9915C12.6008 22.9915 13.0164 22.8193 13.3229 22.5129C13.6293 22.2064 13.8015 21.7908 13.8015 21.3574V20.8127C13.8015 20.3794 13.6293 19.9637 13.3229 19.6573C13.0164 19.3508 12.6008 19.1787 12.1674 19.1787C11.7341 19.1787 11.3184 19.3508 11.012 19.6573C10.7055 19.9637 10.5334 20.3794 10.5334 20.8127V21.3574C10.5334 21.7908 10.7055 22.2064 11.012 22.5129C11.3184 22.8193 11.7341 22.9915 12.1674 22.9915ZM12.1674 22.9915C13.0934 22.9915 14.8908 23.449 14.8908 24.6255V25.7149M12.1674 22.9915C11.2415 22.9915 9.44401 23.449 9.44401 24.6255V25.7149M16.5249 19.1787H18.154M16.5249 20.8127H19.5157M21.4271 20.8127H24.4179M13.2568 13.1871H20.3377M16.5249 23.5362H18.154M16.52 25.1702H19.2434M21.4271 25.1702H24.4179" stroke="black" stroke-miterlimit="10" stroke-linecap="round" stroke-linejoin="round"/>
<path id="Vector_2" d="M6.62012 5.24323L6.62012 8.57657M6.62012 10.2259V10.8682M1.62012 8.25614V4.93067C1.62012 3.54995 2.73941 2.43066 4.12012 2.43066H9.12012C10.5008 2.43066 11.6201 3.54995 11.6201 4.93066V8.25614C11.6201 10.5026 10.0725 12.3981 7.99899 13.6216C7.14901 14.1231 6.09122 14.1231 5.24125 13.6216C3.16771 12.3981 1.62012 10.5026 1.62012 8.25614Z" stroke="black" stroke-linecap="round" stroke-linejoin="round"/>
</g>
</svg>
