<svg width="16" height="16" viewBox="0 0 16 16" fill="none" xmlns="http://www.w3.org/2000/svg">
<g id="Shop=crypto-coin, Size=16px, weight=light">
<g id="Group 6871">
<path id="Vector" d="M8 14.25C11.4518 14.25 14.25 11.4518 14.25 8C14.25 4.54822 11.4518 1.75 8 1.75C4.54822 1.75 1.75 4.54822 1.75 8C1.75 11.4518 4.54822 14.25 8 14.25Z" stroke="black" stroke-linecap="round" stroke-linejoin="round"/>
<path id="Vector_2" d="M5.25 5.5H9C9.33152 5.5 9.64946 5.63167 9.88388 5.86609C10.1183 6.10051 10.25 6.41848 10.25 6.75C10.25 7.08152 10.1183 7.39949 9.88388 7.63391C9.64946 7.86833 9.33152 8 9 8M5.25 10.5H9.5C9.83152 10.5 10.1495 10.3683 10.3839 10.1339C10.6183 9.89949 10.75 9.58152 10.75 9.25C10.75 8.91848 10.6183 8.60051 10.3839 8.36609C10.1495 8.13167 9.83152 8 9.5 8H6.25M6.25 5.5V10.5M7.25 5.5V4M8.75 5.5V4M7.25 12V10.5M8.75 12V10.5" stroke="black" stroke-linecap="round" stroke-linejoin="round"/>
</g>
</g>
</svg>
