<svg width="24" height="24" viewBox="0 0 24 24" fill="none" xmlns="http://www.w3.org/2000/svg">
<g id="Shop=bank, Size=24px, stroke width=1.5px">
<g id="bank">
<path id="Vector" d="M12 3.75L3 7.46006V7.87229L3.3913 8.69674H20.6087L21 7.87229V7.46006L12 3.75Z" stroke="black" stroke-width="1.5" stroke-miterlimit="10" stroke-linecap="round" stroke-linejoin="round"/>
<path id="Vector_2" d="M15.1304 17.7659V12.407C15.1304 12.079 15.254 11.7644 15.4742 11.5325C15.6944 11.3006 15.9929 11.1703 16.3043 11.1703C16.6156 11.1703 16.9142 11.3006 17.1344 11.5325C17.3545 11.7644 17.4782 12.079 17.4782 12.407V17.7659" stroke="black" stroke-width="1.5" stroke-miterlimit="10" stroke-linecap="round" stroke-linejoin="round"/>
<path id="Vector_3" d="M10.8262 17.7659V12.407C10.8262 12.079 10.9499 11.7644 11.17 11.5325C11.3902 11.3006 11.6887 11.1703 12.0001 11.1703C12.3114 11.1703 12.61 11.3006 12.8302 11.5325C13.0503 11.7644 13.174 12.079 13.174 12.407V17.7659" stroke="black" stroke-width="1.5" stroke-miterlimit="10" stroke-linecap="round" stroke-linejoin="round"/>
<path id="Vector_4" d="M6.52148 17.7659V12.407C6.52148 12.079 6.64516 11.7644 6.86531 11.5325C7.08547 11.3006 7.38406 11.1703 7.6954 11.1703V11.1703C8.00674 11.1703 8.30533 11.3006 8.52548 11.5325C8.74563 11.7644 8.86931 12.079 8.86931 12.407V17.7659" stroke="black" stroke-width="1.5" stroke-miterlimit="10" stroke-linecap="round" stroke-linejoin="round"/>
<path id="Vector_5" d="M3.78271 9.93372V10.7582L4.56532 11.1704V18.1783" stroke="black" stroke-width="1.5" stroke-miterlimit="10" stroke-linecap="round" stroke-linejoin="round"/>
<path id="Vector_6" d="M19.4346 18.1782L19.4346 11.1703L20.2172 10.7581V9.93359" stroke="black" stroke-width="1.5" stroke-miterlimit="10" stroke-linecap="round" stroke-linejoin="round"/>
<path id="Vector_7" d="M3.39111 18.1782H20.6085" stroke="black" stroke-width="1.5" stroke-miterlimit="10" stroke-linecap="round" stroke-linejoin="round"/>
<path id="Vector_8" d="M3.39111 20.25H20.6085" stroke="black" stroke-width="1.5" stroke-miterlimit="10" stroke-linecap="round" stroke-linejoin="round"/>
</g>
</g>
</svg>
