<svg width="24" height="24" viewBox="0 0 24 24" fill="none" xmlns="http://www.w3.org/2000/svg">
<g id="Shop=crypto, Size=24px, stroke width=1.5px">
<g id="Group 6865">
<path id="Vector" d="M6 6.375H14.1818C14.9051 6.375 15.5988 6.67125 16.1103 7.1987C16.6218 7.72615 16.9091 8.44158 16.9091 9.1875C16.9091 9.93342 16.6218 10.6489 16.1103 11.1763C15.5988 11.7037 14.9051 12 14.1818 12" stroke="black" stroke-width="1.5" stroke-linecap="round" stroke-linejoin="round"/>
<path id="Vector_2" d="M6 17.6251H15.2727C15.996 17.6251 16.6897 17.3289 17.2012 16.8014C17.7127 16.274 18 15.5585 18 14.8126C18 14.0667 17.7127 13.3513 17.2012 12.8238C16.6897 12.2964 15.996 12.0001 15.2727 12.0001H8.18182" stroke="black" stroke-width="1.5" stroke-linecap="round" stroke-linejoin="round"/>
<path id="Vector_3" d="M8.18164 6.375V17.625" stroke="black" stroke-width="1.5" stroke-linecap="round" stroke-linejoin="round"/>
<path id="Vector_4" d="M10.3638 6.375V3" stroke="black" stroke-width="1.5" stroke-linecap="round" stroke-linejoin="round"/>
<path id="Vector_5" d="M13.6362 6.375V3" stroke="black" stroke-width="1.5" stroke-linecap="round" stroke-linejoin="round"/>
<path id="Vector_6" d="M10.3638 21V17.625" stroke="black" stroke-width="1.5" stroke-linecap="round" stroke-linejoin="round"/>
<path id="Vector_7" d="M13.6362 21V17.625" stroke="black" stroke-width="1.5" stroke-linecap="round" stroke-linejoin="round"/>
</g>
</g>
</svg>
