<svg width="16" height="16" viewBox="0 0 16 16" fill="none" xmlns="http://www.w3.org/2000/svg">
<g id="Shop=wallet, Size=16px, stroke width=1.5px">
<g id="wallet">
<path d="M10.1923 8C10.1923 8.20179 10.0287 8.36538 9.82692 8.36538C9.62512 8.36538 9.46154 8.20179 9.46154 8C9.46154 7.7982 9.62512 7.63461 9.82692 7.63461C10.0287 7.63461 10.1923 7.7982 10.1923 8Z" stroke="black" stroke-width="1.5" stroke-linecap="round" stroke-linejoin="round"/>
<path d="M3.25 10.75L3.25 5.25C3.25 4.14543 4.14543 3.25 5.25 3.25L10.75 3.25001C11.8546 3.25001 12.75 4.14544 12.75 5.25001V10.75C12.75 11.8546 11.8546 12.75 10.75 12.75L5.25 12.75C4.14543 12.75 3.25 11.8546 3.25 10.75Z" stroke="black" stroke-width="1.5" stroke-linecap="round" stroke-linejoin="round"/>
<path d="M9.82692 9.82692L12.75 9.82692V6.17308L9.82692 6.17308C8.81794 6.17307 8 6.99101 8 8C8 9.00898 8.81794 9.82692 9.82692 9.82692Z" stroke="black" stroke-width="1.5" stroke-linecap="round" stroke-linejoin="round"/>
</g>
</g>
</svg>
