<svg width="32" height="32" viewBox="0 0 32 32" fill="none" xmlns="http://www.w3.org/2000/svg">
<g id="Shop=crypto, Size=32px, stroke width=1.5px">
<g id="Group 6865">
<path id="Vector" d="M8 8.5H18.9091C19.8735 8.5 20.7984 8.89501 21.4804 9.59827C22.1623 10.3015 22.5455 11.2554 22.5455 12.25C22.5455 13.2446 22.1623 14.1985 21.4804 14.9017C20.7984 15.605 19.8735 16 18.9091 16" stroke="black" stroke-width="1.5" stroke-linecap="round" stroke-linejoin="round"/>
<path id="Vector_2" d="M8 23.5001H20.3636C21.3281 23.5001 22.253 23.1051 22.9349 22.4019C23.6169 21.6986 24 20.7447 24 19.7501C24 18.7556 23.6169 17.8017 22.9349 17.0984C22.253 16.3951 21.3281 16.0001 20.3636 16.0001H10.9091" stroke="black" stroke-width="1.5" stroke-linecap="round" stroke-linejoin="round"/>
<path id="Vector_3" d="M10.9092 8.5V23.5" stroke="black" stroke-width="1.5" stroke-linecap="round" stroke-linejoin="round"/>
<path id="Vector_4" d="M13.8184 8.5V4" stroke="black" stroke-width="1.5" stroke-linecap="round" stroke-linejoin="round"/>
<path id="Vector_5" d="M18.1816 8.5V4" stroke="black" stroke-width="1.5" stroke-linecap="round" stroke-linejoin="round"/>
<path id="Vector_6" d="M13.8184 28V23.5" stroke="black" stroke-width="1.5" stroke-linecap="round" stroke-linejoin="round"/>
<path id="Vector_7" d="M18.1816 28V23.5" stroke="black" stroke-width="1.5" stroke-linecap="round" stroke-linejoin="round"/>
</g>
</g>
</svg>
