<svg width="16" height="16" viewBox="0 0 16 16" fill="none" xmlns="http://www.w3.org/2000/svg">
<g id="Shop=wallet-alternative, Size=16px, weight=regular">
<g id="Icon">
<g id="Group 48095737">
<path id="Vector" d="M5 6.5H7" stroke="black" stroke-width="1.5" stroke-linecap="round"/>
<path id="Vector_2" d="M12.4167 7H11.1154C10.2232 7 9.5 7.67157 9.5 8.5C9.5 9.32843 10.2232 10 11.1154 10H12.4167C12.4583 10 12.4792 10 12.4968 9.99893C12.7664 9.98252 12.9812 9.78308 12.9988 9.5327C13 9.51637 13 9.49702 13 9.45833V7.54167C13 7.50298 13 7.48363 12.9988 7.4673C12.9812 7.21692 12.7664 7.01748 12.4968 7.00107C12.4792 7 12.4583 7 12.4167 7Z" stroke="black" stroke-width="1.5" stroke-linecap="round"/>
<path id="Vector_3" d="M12.4825 7.5C12.4436 6.56385 12.3183 5.98987 11.9142 5.58579C11.3284 5 10.3856 5 8.5 5H7C5.11438 5 4.17157 5 3.58579 5.58579C3 6.17157 3 7.11438 3 9C3 10.8856 3 11.8284 3.58579 12.4142C4.17157 13 5.11438 13 7 13H8.5C10.3856 13 11.3284 13 11.9142 12.4142C12.3183 12.0101 12.4436 11.4362 12.4825 10.5" stroke="black" stroke-width="1.5" stroke-linecap="round"/>
<path id="Vector_4" d="M5 4.5L6.86774 3.26157C7.39372 2.91281 8.10628 2.91281 8.63226 3.26157L10.5 4.5" stroke="black" stroke-width="1.5" stroke-linecap="round"/>
<path id="Vector_5" d="M10.9951 8.5H10.9996" stroke="black" stroke-width="1.5" stroke-linecap="round"/>
</g>
</g>
</g>
</svg>
