<svg width="24" height="24" viewBox="0 0 24 24" fill="none" xmlns="http://www.w3.org/2000/svg">
<g id="Shop=wallet, Size=24px, weight=regular">
<g id="wallet">
<path d="M15.2885 12C15.2885 12.3027 15.0431 12.5481 14.7404 12.5481C14.4377 12.5481 14.1923 12.3027 14.1923 12C14.1923 11.6973 14.4377 11.4519 14.7404 11.4519C15.0431 11.4519 15.2885 11.6973 15.2885 12Z" stroke="black" stroke-width="1.5" stroke-linecap="round" stroke-linejoin="round"/>
<path d="M4.875 16.125L4.875 7.875C4.875 6.21814 6.21815 4.875 7.87501 4.875L16.125 4.87502C17.7819 4.87502 19.125 6.21817 19.125 7.87502V16.125C19.125 17.7818 17.7819 19.125 16.125 19.125L7.875 19.125C6.21814 19.125 4.875 17.7818 4.875 16.125Z" stroke="black" stroke-width="1.5" stroke-linecap="round" stroke-linejoin="round"/>
<path d="M14.7404 14.7404L19.125 14.7404V9.25962L14.7404 9.25961C13.2269 9.25961 12 10.4865 12 12C12 13.5135 13.2269 14.7404 14.7404 14.7404Z" stroke="black" stroke-width="1.5" stroke-linecap="round" stroke-linejoin="round"/>
</g>
</g>
</svg>
