<svg width="16" height="16" viewBox="0 0 16 16" fill="none" xmlns="http://www.w3.org/2000/svg">
<g id="Shop=cashback, Size=16px, weight=regular">
<path id="Vector" d="M10.9934 6.09933C11.7767 6.38835 13.2127 6.94533 13.5063 7.24445C14.3912 8.1457 14.5613 10.3344 14.5199 11.5383C14.4855 12.5397 14.9426 13.7234 14.9426 13.7234M12.1472 8.62074C11.5443 7.88641 10.9683 7.89179 10.5164 7.41737C9.6364 6.49336 9.72043 6.56108 8.91371 5.72175C8.4347 5.22331 8.10776 4.92908 7.59914 5.24701C7.17207 5.51414 7.20389 5.87683 7.3993 6.34185C7.63785 6.90923 8.94191 8.74137 9.21466 9.16982C9.27352 9.26197 9.30676 9.36671 9.31076 9.47648C9.33321 10.0697 9.43289 11.7519 11.6683 12.4502M8.48344 11.1853C9.04126 12.6181 9.87037 12.7975 10.4555 14.0884M8.22164 9.78747C8.16668 9.82813 8.11045 9.86776 8.05381 9.90579C6.95154 10.645 5.53071 10.8709 4.18952 10.3927C1.9308 9.58692 0.754164 7.08815 1.56148 4.81125C2.3688 2.53435 4.85408 1.34171 7.11279 2.14749C8.69329 2.71118 9.74377 4.10427 9.95569 5.67014M9.97276 6.70078C10.0081 6.35376 10.0015 6.00788 9.95605 5.67022M4.18314 3.99751L6.71276 4.54507C6.79198 4.56222 6.86607 4.58922 6.93497 4.62455M6.49489 6.37333L4.36924 5.91321M3.40757 7.58046L6.29278 8.205C6.64515 8.28127 6.9942 8.14055 7.20311 7.87232M4.75667 4.12165L3.9811 7.70461M5.33056 4.24588L5.51077 3.41335M6.39768 4.47687L6.57789 3.64434M4.37478 8.66136L4.55499 7.82883M5.4419 8.89235L5.62211 8.05982" stroke="black" stroke-width="1.5" stroke-miterlimit="10" stroke-linecap="round" stroke-linejoin="round"/>
</g>
</svg>
