<svg width="16" height="16" viewBox="0 0 16 16" fill="none" xmlns="http://www.w3.org/2000/svg">
<g id="Shop=crypto, Size=16px, stroke width=1.5px">
<g id="Group 6865">
<path id="Vector" d="M4 4.25H9.45455C9.93676 4.25 10.3992 4.4475 10.7402 4.79913C11.0812 5.15076 11.2727 5.62772 11.2727 6.125C11.2727 6.62228 11.0812 7.09924 10.7402 7.45087C10.3992 7.8025 9.93676 8 9.45455 8" stroke="black" stroke-width="1.5" stroke-linecap="round" stroke-linejoin="round"/>
<path id="Vector_2" d="M4 11.7501H10.1818C10.664 11.7501 11.1265 11.5526 11.4675 11.201C11.8084 10.8494 12 10.3724 12 9.87512C12 9.37784 11.8084 8.90089 11.4675 8.54926C11.1265 8.19762 10.664 8.00012 10.1818 8.00012H5.45455" stroke="black" stroke-width="1.5" stroke-linecap="round" stroke-linejoin="round"/>
<path id="Vector_3" d="M5.45459 4.25V11.75" stroke="black" stroke-width="1.5" stroke-linecap="round" stroke-linejoin="round"/>
<path id="Vector_4" d="M6.90918 4.25V2" stroke="black" stroke-width="1.5" stroke-linecap="round" stroke-linejoin="round"/>
<path id="Vector_5" d="M9.09082 4.25V2" stroke="black" stroke-width="1.5" stroke-linecap="round" stroke-linejoin="round"/>
<path id="Vector_6" d="M6.90918 14V11.75" stroke="black" stroke-width="1.5" stroke-linecap="round" stroke-linejoin="round"/>
<path id="Vector_7" d="M9.09082 14V11.75" stroke="black" stroke-width="1.5" stroke-linecap="round" stroke-linejoin="round"/>
</g>
</g>
</svg>
