<svg width="16" height="16" viewBox="0 0 16 16" fill="none" xmlns="http://www.w3.org/2000/svg">
<g id="Shop=rebate, Size=16px, stroke width=1.5px">
<path id="Vector" d="M12.1036 4.89729L10.9327 3.82051C10.8291 3.7254 10.6703 3.7254 10.5667 3.82051L7.67488 6.47985C7.5628 6.58277 7.49915 6.72816 7.49915 6.88033V13.7065C7.49915 14.0068 7.74158 14.25 8.04089 14.25H13.4583C13.7576 14.25 14 14.0068 14 13.7065V6.88033C14 6.72816 13.9363 6.58277 13.8243 6.47985L12.8039 5.58565M9.66602 12.348L11.833 8.54365M10.7495 5.5544C11.7967 5.5544 12.6456 4.70283 12.6456 3.6522C12.6456 2.60157 11.7967 1.75 10.7495 1.75C9.70225 1.75 8.85342 2.60157 8.85342 3.6522C8.85342 3.79739 8.86967 3.93886 8.90046 4.07485M10.7496 5.01091V6.09789M7.93513 4.64629L6.71385 5.31716C6.58079 5.39019 6.48429 5.51621 6.44806 5.66397L4.82522 12.2918C4.75378 12.5832 4.93154 12.8774 5.22204 12.9491L6.69963 13.3132M7.7032 3.64181L6.44196 3.79501C6.29129 3.81335 6.15518 3.89419 6.06647 4.01818L2.10163 9.5692C1.92726 9.81343 1.98279 10.1528 2.22589 10.3277L4.11419 11.6861M10.2015 9.289C10.2015 9.70065 9.86884 10.0344 9.45852 10.0344C9.0482 10.0344 8.71557 9.70065 8.71557 9.289C8.71557 8.87735 9.0482 8.54365 9.45852 8.54365C9.86884 8.54365 10.2015 8.87735 10.2015 9.289ZM12.8283 11.4126C12.8283 11.8243 12.4957 12.158 12.0854 12.158C11.6751 12.158 11.3424 11.8243 11.3424 11.4126C11.3424 11.001 11.6751 10.6673 12.0854 10.6673C12.4957 10.6673 12.8283 11.001 12.8283 11.4126Z" stroke="black" stroke-width="1.5" stroke-miterlimit="10" stroke-linecap="round" stroke-linejoin="round"/>
</g>
</svg>
