<svg width="24" height="24" viewBox="0 0 24 24" fill="none" xmlns="http://www.w3.org/2000/svg">
<g id="Shop=bank, Size=24px, weight=regular">
<g id="bank">
<path id="Vector" d="M12 3.75L3 7.46006V7.87229L3.3913 8.69674H20.6087L21 7.87229V7.46006L12 3.75Z" stroke="black" stroke-width="1.5" stroke-miterlimit="10" stroke-linecap="round" stroke-linejoin="round"/>
<path id="Vector_2" d="M15.1309 17.7661V12.4071C15.1309 12.0791 15.2545 11.7645 15.4747 11.5326C15.6948 11.3007 15.9934 11.1704 16.3048 11.1704C16.6161 11.1704 16.9147 11.3007 17.1349 11.5326C17.355 11.7645 17.4787 12.0791 17.4787 12.4071V17.7661" stroke="black" stroke-width="1.5" stroke-miterlimit="10" stroke-linecap="round" stroke-linejoin="round"/>
<path id="Vector_3" d="M10.8262 17.7661V12.4071C10.8262 12.0791 10.9499 11.7645 11.17 11.5326C11.3902 11.3007 11.6887 11.1704 12.0001 11.1704C12.3114 11.1704 12.61 11.3007 12.8302 11.5326C13.0503 11.7645 13.174 12.0791 13.174 12.4071V17.7661" stroke="black" stroke-width="1.5" stroke-miterlimit="10" stroke-linecap="round" stroke-linejoin="round"/>
<path id="Vector_4" d="M6.52148 17.7661V12.4071C6.52148 12.0791 6.64516 11.7645 6.86531 11.5326C7.08547 11.3007 7.38406 11.1704 7.6954 11.1704V11.1704C8.00674 11.1704 8.30533 11.3007 8.52548 11.5326C8.74563 11.7645 8.86931 12.0791 8.86931 12.4071V17.7661" stroke="black" stroke-width="1.5" stroke-miterlimit="10" stroke-linecap="round" stroke-linejoin="round"/>
<path id="Vector_5" d="M3.78223 9.93359V10.7581L4.56484 11.1703V18.1782" stroke="black" stroke-width="1.5" stroke-miterlimit="10" stroke-linecap="round" stroke-linejoin="round"/>
<path id="Vector_6" d="M19.4346 18.1782L19.4346 11.1703L20.2172 10.7581V9.93359" stroke="black" stroke-width="1.5" stroke-miterlimit="10" stroke-linecap="round" stroke-linejoin="round"/>
<path id="Vector_7" d="M3.39062 18.1782H20.608" stroke="black" stroke-width="1.5" stroke-miterlimit="10" stroke-linecap="round" stroke-linejoin="round"/>
<path id="Vector_8" d="M3.39062 20.25H20.608" stroke="black" stroke-width="1.5" stroke-miterlimit="10" stroke-linecap="round" stroke-linejoin="round"/>
</g>
</g>
</svg>
