<svg width="32" height="32" viewBox="0 0 32 32" fill="none" xmlns="http://www.w3.org/2000/svg">
<g id="Shop=wallet, Size=32px, stroke width=1px">
<g id="wallet">
<path d="M20.3846 16C20.3846 16.4036 20.0574 16.7308 19.6538 16.7308C19.2503 16.7308 18.9231 16.4036 18.9231 16C18.9231 15.5964 19.2503 15.2692 19.6538 15.2692C20.0574 15.2692 20.3846 15.5964 20.3846 16Z" stroke="black" stroke-linecap="round" stroke-linejoin="round"/>
<path d="M6.5 21.5L6.5 10.5C6.5 8.29086 8.29087 6.5 10.5 6.5L21.5 6.50002C23.7091 6.50003 25.5 8.29089 25.5 10.5V21.5C25.5 23.7091 23.7091 25.5 21.5 25.5L10.5 25.5C8.29086 25.5 6.5 23.7091 6.5 21.5Z" stroke="black" stroke-linecap="round" stroke-linejoin="round"/>
<path d="M19.6538 19.6538L25.5 19.6538V12.3462L19.6538 12.3462C17.6359 12.3461 16 13.982 16 16C16 18.018 17.6359 19.6538 19.6538 19.6538Z" stroke="black" stroke-linecap="round" stroke-linejoin="round"/>
</g>
</g>
</svg>
