<svg width="24" height="24" viewBox="0 0 24 24" fill="none" xmlns="http://www.w3.org/2000/svg">
<g id="Shop=cart, Size=24px, weight=regular">
<path id="cart" d="M5.95047 6.51923H17.2887C18.2374 6.51923 18.9478 7.38896 18.7585 8.31861L18.3401 10.3726C18.2093 11.0149 17.6766 11.4978 17.0247 11.5653L7.52783 12.5481M5.95047 6.51923L4.875 4.875M5.95047 6.51923L7.52783 12.5481M17.2429 14.7404H10.3675C9.03256 14.7404 7.86573 13.8396 7.52783 12.5481M10.2524 18.0288C10.2524 18.6342 9.77087 19.125 9.17691 19.125C8.58294 19.125 8.10144 18.6342 8.10144 18.0288C8.10144 17.4234 8.58294 16.9327 9.17691 16.9327C9.77087 16.9327 10.2524 17.4234 10.2524 18.0288ZM17.2429 18.0288C17.2429 18.6342 16.7614 19.125 16.1675 19.125C15.5735 19.125 15.092 18.6342 15.092 18.0288C15.092 17.4234 15.5735 16.9327 16.1675 16.9327C16.7614 16.9327 17.2429 17.4234 17.2429 18.0288Z" stroke="black" stroke-width="1.5" stroke-linecap="round" stroke-linejoin="round"/>
</g>
</svg>
