<svg width="16" height="16" viewBox="0 0 16 16" fill="none" xmlns="http://www.w3.org/2000/svg">
<g id="Shop=buy-crypto, Size=16px, weight=regular">
<path id="buy-crypto" d="M10.6044 5.20542H11.3067C11.4671 5.20671 11.6244 5.24841 11.7635 5.32651C11.9025 5.4046 12.0185 5.51643 12.1003 5.65118M12.227 11.4277V12.6012C12.2241 12.8387 12.1262 13.0657 11.9542 13.2336C11.7822 13.4016 11.5499 13.4972 11.3067 13.5H3.91841C3.67556 13.4967 3.44365 13.4009 3.27208 13.233C3.10052 13.0651 3.00289 12.8384 3 12.6012V5.79488M4.30972 5.22177H3.54966C3.47544 5.22409 3.40243 5.24084 3.33491 5.27103C3.26739 5.30123 3.20671 5.34426 3.15641 5.39762C3.10612 5.45097 3.06721 5.51359 3.04197 5.5818C3.01673 5.65001 3.00566 5.72244 3.00941 5.79487C3.00743 5.86555 3.01991 5.93591 3.04612 6.00181C3.07233 6.06772 3.11175 6.12785 3.16207 6.17868C3.21238 6.22951 3.27258 6.27003 3.33914 6.29785C3.40569 6.32567 3.47727 6.34023 3.54966 6.34069H11.3161C11.5612 6.34356 11.7952 6.44068 11.9675 6.61097C12.1398 6.78126 12.2364 7.011 12.2364 7.25039M6.12424 4.0592H7.92008C8.01598 4.0592 8.11094 4.07765 8.19954 4.11349C8.28814 4.14933 8.36864 4.20187 8.43645 4.26809C8.50426 4.33432 8.55805 4.41294 8.59475 4.49947C8.63145 4.586 8.65034 4.67874 8.65034 4.7724C8.65034 4.86606 8.63145 4.9588 8.59475 5.04533C8.55805 5.13186 8.50426 5.21049 8.43645 5.27672C8.36864 5.34294 8.28814 5.39547 8.19954 5.43131C8.11094 5.46716 8.01598 5.48561 7.92008 5.48561M7.92008 5.48561H6.7744M7.92008 5.48561C8.25354 5.48561 8.665 5.82582 8.77677 6.16605M6.74644 3.44055V6.30973M7.73557 3.44056V4.04824M4.36934 6.22429C4.32262 6.01205 4.29952 5.7955 4.30042 5.57841C4.30042 4.76196 4.63251 3.97896 5.22363 3.40164C5.81475 2.82433 6.61648 2.5 7.45245 2.5C8.28842 2.5 9.09014 2.82433 9.68127 3.40164C10.2724 3.97896 10.6045 4.76196 10.6045 5.57841C10.6048 5.79556 10.581 6.01212 10.5337 6.22429M8.94446 11.3895C8.70193 11.3862 8.47029 11.2906 8.29878 11.1231C8.12727 10.9556 8.02942 10.7294 8.02605 10.4925V9.3554C8.02894 9.11822 8.12657 8.89152 8.29813 8.72363C8.46969 8.55573 8.70161 8.45992 8.94446 8.45662H12.4411C12.5894 8.45662 12.7315 8.51413 12.8363 8.61649C12.9411 8.71885 13 8.85768 13 9.00244V10.8437C13 10.9884 12.9411 11.1273 12.8363 11.2296C12.7315 11.332 12.5894 11.3895 12.4411 11.3895H8.94446Z" stroke="black" stroke-width="1.5" stroke-linecap="round" stroke-linejoin="round"/>
</g>
</svg>
