<svg width="16" height="16" viewBox="0 0 16 16" fill="none" xmlns="http://www.w3.org/2000/svg">
<g id="Shop=cart, Size=16px, stroke width=1px">
<path id="cart" d="M3.96698 4.34615H11.5258C12.1583 4.34615 12.6319 4.92597 12.5057 5.54574L12.2267 6.9151C12.1395 7.34326 11.7844 7.66522 11.3498 7.7102L5.01855 8.36538M3.96698 4.34615L3.25 3.25M3.96698 4.34615L5.01855 8.36538M11.4953 9.82692H6.91168C6.0217 9.82692 5.24382 9.22638 5.01855 8.36538M6.83492 12.0192C6.83492 12.4228 6.51392 12.75 6.11794 12.75C5.72196 12.75 5.40096 12.4228 5.40096 12.0192C5.40096 11.6156 5.72196 11.2885 6.11794 11.2885C6.51392 11.2885 6.83492 11.6156 6.83492 12.0192ZM11.4953 12.0192C11.4953 12.4228 11.1743 12.75 10.7783 12.75C10.3823 12.75 10.0613 12.4228 10.0613 12.0192C10.0613 11.6156 10.3823 11.2885 10.7783 11.2885C11.1743 11.2885 11.4953 11.6156 11.4953 12.0192Z" stroke="black" stroke-linecap="round" stroke-linejoin="round"/>
</g>
</svg>
