<svg width="16" height="16" viewBox="0 0 16 16" fill="none" xmlns="http://www.w3.org/2000/svg">
<g id="Shop=cashback, Size=16px, stroke width=1.5px">
<path id="Vector" d="M10.9939 6.09945C11.7772 6.38847 13.2131 6.94545 13.5068 7.24457C14.3916 8.14583 14.5618 10.3345 14.5204 11.5385C14.486 12.5398 14.9431 13.7236 14.9431 13.7236M12.1476 8.62086C11.5448 7.88654 10.9688 7.89191 10.5169 7.41749C9.63689 6.49348 9.72092 6.56121 8.91419 5.72187C8.43519 5.22344 8.10825 4.9292 7.59963 5.24713C7.17256 5.51426 7.20438 5.87695 7.39979 6.34198C7.63834 6.90935 8.9424 8.74149 9.21515 9.16995C9.27401 9.26209 9.30724 9.36684 9.31125 9.4766C9.3337 10.0698 9.43338 11.752 11.6688 12.4503M8.48393 11.1854C9.04175 12.6182 9.87086 12.7977 10.456 14.0885M8.22213 9.78759C8.16717 9.82825 8.11093 9.86788 8.05429 9.90591C6.95203 10.6451 5.5312 10.8711 4.19 10.3928C1.93129 9.58704 0.754652 7.08827 1.56197 4.81137C2.36929 2.53447 4.85457 1.34184 7.11328 2.14761C8.69378 2.7113 9.74426 4.1044 9.95618 5.67026M9.97325 6.7009C10.0086 6.35388 10.002 6.00801 9.95654 5.67034M4.18363 3.99763L6.71325 4.54519C6.79247 4.56234 6.86656 4.58934 6.93546 4.62468M6.49538 6.37345L4.36973 5.91333M3.40806 7.58058L6.29327 8.20512C6.64563 8.28139 6.99468 8.14067 7.2036 7.87244M4.75716 4.12178L3.98159 7.70473M5.33105 4.246L5.51126 3.41347M6.39817 4.47699L6.57838 3.64446M4.37527 8.66149L4.55548 7.82895M5.44239 8.89248L5.6226 8.05994" stroke="black" stroke-width="1.5" stroke-miterlimit="10" stroke-linecap="round" stroke-linejoin="round"/>
</g>
</svg>
