<svg width="24" height="24" viewBox="0 0 24 24" fill="none" xmlns="http://www.w3.org/2000/svg">
<g id="Shop=crypto-coin, Size=24px, weight=light">
<g id="Group 6871">
<path id="Vector" d="M12 21.375C17.1777 21.375 21.375 17.1777 21.375 12C21.375 6.82233 17.1777 2.625 12 2.625C6.82233 2.625 2.625 6.82233 2.625 12C2.625 17.1777 6.82233 21.375 12 21.375Z" stroke="black" stroke-linecap="round" stroke-linejoin="round"/>
<path id="Vector_2" d="M7.875 8.25H13.5C13.9973 8.25 14.4742 8.4475 14.8258 8.79913C15.1775 9.15076 15.375 9.62772 15.375 10.125C15.375 10.6223 15.1775 11.0992 14.8258 11.4509C14.4742 11.8025 13.9973 12 13.5 12M7.875 15.75H14.25C14.7473 15.75 15.2242 15.5525 15.5758 15.2009C15.9275 14.8492 16.125 14.3723 16.125 13.875C16.125 13.3777 15.9275 12.9008 15.5758 12.5491C15.2242 12.1975 14.7473 12 14.25 12H9.375M9.375 8.25V15.75M10.875 8.25V6M13.125 8.25V6M10.875 18V15.75M13.125 18V15.75" stroke="black" stroke-linecap="round" stroke-linejoin="round"/>
</g>
</g>
</svg>
