<svg width="24" height="24" viewBox="0 0 24 24" fill="none" xmlns="http://www.w3.org/2000/svg">
<g id="Shop=buy-crypto, Size=24px, weight=regular">
<path id="buy-crypto" d="M15.9066 7.80813H16.9601C17.2007 7.81006 17.4367 7.87262 17.6452 7.98976C17.8538 8.1069 18.0278 8.27465 18.1505 8.47676M18.3404 17.1416V18.9018C18.3361 19.2581 18.1892 19.5985 17.9313 19.8504C17.6734 20.1023 17.3248 20.2458 16.96 20.25H5.87761C5.51334 20.245 5.16547 20.1013 4.90813 19.8495C4.65079 19.5977 4.50434 19.2576 4.5 18.9018V8.69232M6.46458 7.83265H5.32449C5.21315 7.83614 5.10364 7.86126 5.00236 7.90655C4.90108 7.95184 4.81007 8.01639 4.73462 8.09642C4.65917 8.17646 4.60082 8.27038 4.56296 8.3727C4.5251 8.47501 4.50849 8.58366 4.51412 8.69231C4.51114 8.79833 4.52986 8.90386 4.56918 9.00272C4.6085 9.10157 4.66763 9.19177 4.7431 9.26802C4.81858 9.34427 4.90888 9.40505 5.00871 9.44678C5.10854 9.48851 5.2159 9.51035 5.32449 9.51104H16.9741C17.3418 9.51535 17.6929 9.66102 17.9513 9.91645C18.2097 10.1719 18.3546 10.5165 18.3545 10.8756V11.4596M9.18636 6.08881H11.8801C12.024 6.08881 12.1664 6.11647 12.2993 6.17023C12.4322 6.224 12.553 6.3028 12.6547 6.40214C12.7564 6.50148 12.8371 6.61941 12.8921 6.74921C12.9472 6.879 12.9755 7.01812 12.9755 7.1586C12.9755 7.29909 12.9472 7.43821 12.8921 7.568C12.8371 7.69779 12.7564 7.81573 12.6547 7.91507C12.553 8.01441 12.4322 8.09321 12.2993 8.14697C12.1664 8.20074 12.024 8.22841 11.8801 8.22841M11.8801 8.22841H10.1616M11.8801 8.22841C12.3803 8.22841 12.9975 8.73873 13.1652 9.24907M10.1197 5.16083V9.4646M11.6034 5.16084V6.07236M6.55402 9.33644C6.48394 9.01808 6.44927 8.69324 6.45063 8.36761C6.45063 7.14294 6.94876 5.96844 7.83544 5.10247C8.72212 4.2365 9.92471 3.75 11.1787 3.75C12.4326 3.75 13.6352 4.2365 14.5219 5.10247C15.4086 5.96844 15.9067 7.14294 15.9067 8.36761C15.9071 8.69334 15.8715 9.01818 15.8005 9.33644M13.4167 17.0842C13.0529 17.0793 12.7054 16.9359 12.4482 16.6847C12.1909 16.4334 12.0441 16.0941 12.0391 15.7388V14.0331C12.0434 13.6773 12.1898 13.3373 12.4472 13.0854C12.7045 12.8336 13.0524 12.6899 13.4167 12.6849H18.6617C18.884 12.6849 19.0972 12.7712 19.2545 12.9247C19.4117 13.0783 19.5 13.2865 19.5 13.5037V16.2655C19.5 16.4826 19.4117 16.6909 19.2545 16.8444C19.0972 16.998 18.884 17.0842 18.6617 17.0842H13.4167Z" stroke="black" stroke-width="1.5" stroke-linecap="round" stroke-linejoin="round"/>
</g>
</svg>
