<svg width="16" height="16" viewBox="0 0 16 16" fill="none" xmlns="http://www.w3.org/2000/svg">
<g id="Shop=bank, Size=16px, weight=regular">
<g id="bank">
<path id="Vector" d="M8 2L2 4.47337V4.74819L2.26087 5.29783H13.7391L14 4.74819V4.47337L8 2Z" stroke="black" stroke-width="1.5" stroke-miterlimit="10" stroke-linecap="round" stroke-linejoin="round"/>
<path id="Vector_2" d="M10.0869 11.7213V8.14868C10.0869 7.93002 10.1694 7.72031 10.3161 7.5657C10.4629 7.41108 10.662 7.32422 10.8695 7.32422C11.0771 7.32422 11.2761 7.41108 11.4229 7.5657C11.5697 7.72031 11.6521 7.93002 11.6521 8.14868V11.7213" stroke="black" stroke-width="1.5" stroke-miterlimit="10" stroke-linecap="round" stroke-linejoin="round"/>
<path id="Vector_3" d="M7.21777 11.7213V8.14868C7.21777 7.93002 7.30023 7.72031 7.44699 7.5657C7.59376 7.41108 7.79282 7.32422 8.00038 7.32422C8.20794 7.32422 8.407 7.41108 8.55377 7.5657C8.70054 7.72031 8.78299 7.93002 8.78299 8.14868V11.7213" stroke="black" stroke-width="1.5" stroke-miterlimit="10" stroke-linecap="round" stroke-linejoin="round"/>
<path id="Vector_4" d="M4.34766 11.7213V8.14868C4.34766 7.93002 4.43011 7.72031 4.57688 7.5657C4.72364 7.41108 4.9227 7.32422 5.13027 7.32422V7.32422C5.33783 7.32422 5.53689 7.41108 5.68365 7.5657C5.83042 7.72031 5.91287 7.93002 5.91287 8.14868V11.7213" stroke="black" stroke-width="1.5" stroke-miterlimit="10" stroke-linecap="round" stroke-linejoin="round"/>
<path id="Vector_5" d="M2.52148 6.5V7.04964L3.04322 7.32446V11.9964" stroke="black" stroke-width="1.5" stroke-miterlimit="10" stroke-linecap="round" stroke-linejoin="round"/>
<path id="Vector_6" d="M12.957 11.9964L12.957 7.32446L13.4788 7.04964V6.5" stroke="black" stroke-width="1.5" stroke-miterlimit="10" stroke-linecap="round" stroke-linejoin="round"/>
<path id="Vector_7" d="M2.26074 12.3352H13.739" stroke="black" stroke-width="1.5" stroke-miterlimit="10" stroke-linecap="round" stroke-linejoin="round"/>
<path id="Vector_8" d="M2.26074 14H13.739" stroke="black" stroke-width="1.5" stroke-miterlimit="10" stroke-linecap="round" stroke-linejoin="round"/>
</g>
</g>
</svg>
