<svg width="24" height="24" viewBox="0 0 24 24" fill="none" xmlns="http://www.w3.org/2000/svg">
<g id="Shop=cashback, Size=24px, stroke width=1.5px">
<path id="Vector" d="M16.4906 9.14935C17.6655 9.58289 19.8195 10.4184 20.2599 10.867C21.5872 12.2189 21.8425 15.5019 21.7803 17.3079C21.7287 18.8099 22.4144 20.5855 22.4144 20.5855M18.2212 12.9315C17.317 11.83 16.4529 11.8381 15.775 11.1264C14.4551 9.74041 14.5811 9.84199 13.371 8.58298C12.6525 7.83534 12.1621 7.39399 11.3992 7.87087C10.7586 8.27158 10.8063 8.81561 11.0994 9.51315C11.4573 10.3642 13.4134 13.1124 13.8225 13.7551C13.9108 13.8933 13.9606 14.0504 13.9666 14.2151C14.0003 15.1049 14.1498 17.6282 17.503 18.6756M12.7257 16.7783C13.5624 18.9275 14.806 19.1967 15.6838 21.133M12.3329 14.6816C12.2505 14.7426 12.1662 14.802 12.0812 14.859C10.4278 15.9678 8.29656 16.3068 6.28476 15.5894C2.89669 14.3807 1.13173 10.6326 2.34271 7.21724C3.55369 3.80189 7.28161 2.01294 10.6697 3.2216C13.0404 4.06713 14.6161 6.15678 14.934 8.50558M14.9596 10.0515C15.0126 9.53101 15.0028 9.01219 14.9346 8.50569M6.2752 5.99663L10.0696 6.81797C10.1885 6.84369 10.2996 6.8842 10.4029 6.9372M9.74282 9.56036L6.55436 8.87018M5.11185 11.3711L9.43966 12.3079C9.96821 12.4223 10.4918 12.2112 10.8052 11.8088M7.13549 6.18285L5.97214 11.5573M7.99633 6.36918L8.26664 5.12039M9.59701 6.71567L9.86733 5.46687M6.56266 12.9924L6.83297 11.7436M8.16334 13.3389L8.43366 12.0901" stroke="black" stroke-width="1.5" stroke-miterlimit="10" stroke-linecap="round" stroke-linejoin="round"/>
</g>
</svg>
