<svg width="24" height="24" viewBox="0 0 24 24" fill="none" xmlns="http://www.w3.org/2000/svg">
<g id="Shop=wallet-alternative, Size=24px, weight=regular">
<g id="Icon">
<g id="Group 48095737">
<path id="Vector" d="M7.5 9.75H10.5" stroke="black" stroke-width="1.5" stroke-linecap="round"/>
<path id="Vector_2" d="M18.625 10.5H16.6731C15.3348 10.5 14.25 11.5074 14.25 12.75C14.25 13.9926 15.3348 15 16.6731 15H18.625C18.6875 15 18.7187 15 18.7451 14.9984C19.1496 14.9738 19.4718 14.6746 19.4983 14.2991C19.5 14.2746 19.5 14.2455 19.5 14.1875V11.3125C19.5 11.2545 19.5 11.2254 19.4983 11.2009C19.4718 10.8254 19.1496 10.5262 18.7451 10.5016C18.7187 10.5 18.6875 10.5 18.625 10.5Z" stroke="black" stroke-width="1.5" stroke-linecap="round"/>
<path id="Vector_3" d="M18.7238 10.5C18.6655 9.09577 18.4775 8.23481 17.8713 7.62868C16.9926 6.75 15.5784 6.75 12.75 6.75H10.5C7.67157 6.75 6.25736 6.75 5.37868 7.62868C4.5 8.50736 4.5 9.92157 4.5 12.75C4.5 15.5784 4.5 16.9926 5.37868 17.8713C6.25736 18.75 7.67157 18.75 10.5 18.75H12.75C15.5784 18.75 16.9926 18.75 17.8713 17.8713C18.4775 17.2652 18.6655 16.4042 18.7238 15" stroke="black" stroke-width="1.5" stroke-linecap="round"/>
<path id="Vector_4" d="M7.5 6.75L10.3016 4.89235C11.0906 4.36922 12.1594 4.36922 12.9484 4.89235L15.75 6.75" stroke="black" stroke-width="1.5" stroke-linecap="round"/>
<path id="Vector_5" d="M16.4932 12.75H16.4999" stroke="black" stroke-width="1.5" stroke-linecap="round"/>
</g>
</g>
</g>
</svg>
