<svg width="32" height="32" viewBox="0 0 32 32" fill="none" xmlns="http://www.w3.org/2000/svg">
<g id="Software=plate, Size=32px, weight=light">
<g id="plate">
<path d="M6.5 11.5385L6.5 9.5C6.5 7.84314 7.84315 6.5 9.50001 6.5L11.5385 6.5C13.1953 6.50001 14.5385 7.84315 14.5385 9.5V11.5385C14.5385 13.1953 13.1953 14.5385 11.5385 14.5385L9.5 14.5385C7.84314 14.5385 6.5 13.1953 6.5 11.5385Z" stroke="black" stroke-linecap="round" stroke-linejoin="round"/>
<path d="M17.4615 11.5385V9.5C17.4615 7.84314 18.8047 6.5 20.4615 6.5L22.5 6.5C24.1569 6.50001 25.5 7.84315 25.5 9.5V11.5385C25.5 13.1953 24.1569 14.5385 22.5 14.5385L20.4615 14.5385C18.8047 14.5385 17.4615 13.1953 17.4615 11.5385Z" stroke="black" stroke-linecap="round" stroke-linejoin="round"/>
<path d="M6.5 22.5L6.5 20.4615C6.5 18.8047 7.84315 17.4615 9.50001 17.4615L11.5385 17.4615C13.1953 17.4615 14.5385 18.8047 14.5385 20.4615V22.5C14.5385 24.1568 13.1953 25.5 11.5385 25.5H9.5C7.84314 25.5 6.5 24.1568 6.5 22.5Z" stroke="black" stroke-linecap="round" stroke-linejoin="round"/>
<path d="M17.4615 22.5V20.4615C17.4615 18.8047 18.8047 17.4615 20.4615 17.4615L22.5 17.4615C24.1569 17.4615 25.5 18.8047 25.5 20.4615V22.5C25.5 24.1568 24.1569 25.5 22.5 25.5H20.4615C18.8047 25.5 17.4615 24.1568 17.4615 22.5Z" stroke="black" stroke-linecap="round" stroke-linejoin="round"/>
</g>
</g>
</svg>
