<svg width="16" height="16" viewBox="0 0 16 16" fill="none" xmlns="http://www.w3.org/2000/svg">
<g id="Software=nut, Size=16px, weight=regular">
<g id="wrench">
<path d="M10.1621 7.99999C10.1621 9.21076 9.18273 10.1923 7.97461 10.1923C6.76649 10.1923 5.78711 9.21076 5.78711 7.99999C5.78711 6.78921 6.76649 5.80768 7.97461 5.80768C9.18273 5.80768 10.1621 6.78921 10.1621 7.99999Z" stroke="black" stroke-width="1.5" stroke-linecap="round" stroke-linejoin="round"/>
<path d="M7.31125 3.42154C7.72274 3.19282 8.22648 3.19282 8.63797 3.42154L11.6863 5.1474C12.094 5.38251 12.3458 5.81032 12.3496 6.27414V9.72586C12.3458 10.1897 12.094 10.6175 11.6862 10.8526L8.63797 12.5785C8.22648 12.8072 7.72274 12.8072 7.31125 12.5785L4.26297 10.8526C3.85524 10.6175 3.60337 10.1897 3.59961 9.72586L3.59961 6.27414C3.60337 5.81031 3.85524 5.38251 4.26297 5.1474L7.31125 3.42154Z" stroke="black" stroke-width="1.5" stroke-linecap="round" stroke-linejoin="round"/>
</g>
</g>
</svg>
