<svg width="24" height="24" viewBox="0 0 24 24" fill="none" xmlns="http://www.w3.org/2000/svg">
<g id="Software=bug, Size=24px, stroke width=1.5px">
<path id="bug" d="M14.1923 8.16346V7.06731C14.1923 5.85653 13.2108 4.875 12 4.875C10.7892 4.875 9.80769 5.85653 9.80769 7.06731V8.16346M16.3846 10.3558C18.3796 10.1426 19.125 8.52899 19.125 7.61538M7.61538 10.3558C5.62043 10.1426 4.875 8.52899 4.875 7.61538M16.3846 16.3846C18.3796 16.5552 19.125 17.846 19.125 18.5769M7.61538 16.3846C5.62043 16.5552 4.875 17.846 4.875 18.5769M7.06731 13.0962H5.42308M16.9327 13.0962H18.5769M12.0001 15.7583L12.0001 11.0605M12 19.125C9.57844 19.125 7.61538 17.1619 7.61538 14.7404V10.6188C7.61538 9.26276 8.71468 8.16346 10.0707 8.16346H13.9293C15.2853 8.16346 16.3846 9.26276 16.3846 10.6188V14.7404C16.3846 17.1619 14.4216 19.125 12 19.125Z" stroke="black" stroke-width="1.5" stroke-linecap="round" stroke-linejoin="round"/>
</g>
</svg>
