<svg width="32" height="32" viewBox="0 0 32 32" fill="none" xmlns="http://www.w3.org/2000/svg">
<g id="Software=download, Size=32px, weight=regular">
<path id="download" d="M16 15.2692L16 25.5M16 25.5L19.6538 21.8462M16 25.5L12.3462 21.8462M10.8846 17.4615C10.7646 17.4748 9.91197 17.4615 9.78846 17.4615C7.97229 17.4615 6.5 15.9893 6.5 14.1731C6.5 12.3569 7.97229 10.8846 9.78846 10.8846L9.79729 10.8846C10.7001 8.33018 13.1363 6.5 16 6.5C18.5824 6.5 20.8173 7.98839 21.8934 10.1541C23.8896 10.1794 25.5 11.8055 25.5 13.8077C25.5 15.8256 23.8641 17.4615 21.8462 17.4615H20.3846" stroke="black" stroke-width="1.5" stroke-linecap="round" stroke-linejoin="round"/>
</g>
</svg>
