<svg width="16" height="16" viewBox="0 0 16 16" fill="none" xmlns="http://www.w3.org/2000/svg">
<g id="Software=nut, Size=16px, stroke width=1px">
<g id="wrench">
<path d="M10.1626 7.99999C10.1626 9.21076 9.18322 10.1923 7.9751 10.1923C6.76697 10.1923 5.7876 9.21076 5.7876 7.99999C5.7876 6.78921 6.76697 5.80768 7.9751 5.80768C9.18322 5.80768 10.1626 6.78921 10.1626 7.99999Z" stroke="black" stroke-linecap="round" stroke-linejoin="round"/>
<path d="M7.31174 3.42154C7.72323 3.19282 8.22697 3.19282 8.63846 3.42154L11.6867 5.1474C12.0945 5.38251 12.3463 5.81032 12.3501 6.27414V9.72586C12.3463 10.1897 12.0945 10.6175 11.6867 10.8526L8.63846 12.5785C8.22697 12.8072 7.72323 12.8072 7.31174 12.5785L4.26346 10.8526C3.85573 10.6175 3.60386 10.1897 3.6001 9.72586L3.6001 6.27414C3.60386 5.81031 3.85573 5.38251 4.26346 5.1474L7.31174 3.42154Z" stroke="black" stroke-linecap="round" stroke-linejoin="round"/>
</g>
</g>
</svg>
