<svg width="16" height="16" viewBox="0 0 16 16" fill="none" xmlns="http://www.w3.org/2000/svg">
<g id="Software=download, Size=16px, weight=regular">
<path id="download" d="M8 7.63462L8 12.75M8 12.75L9.82692 10.9231M8 12.75L6.17308 10.9231M5.44231 8.73077C5.38232 8.7374 4.95598 8.73077 4.89423 8.73077C3.98614 8.73077 3.25 7.99463 3.25 7.08654C3.25 6.17845 3.98614 5.44231 4.89423 5.44231L4.89865 5.44232C5.35007 4.16509 6.56817 3.25 8 3.25C9.29122 3.25 10.4087 3.99419 10.9467 5.07707C11.9448 5.08972 12.75 5.90276 12.75 6.90385C12.75 7.91282 11.9321 8.73077 10.9231 8.73077H10.1923" stroke="black" stroke-width="1.5" stroke-linecap="round" stroke-linejoin="round"/>
</g>
</svg>
