<svg width="24" height="24" viewBox="0 0 24 24" fill="none" xmlns="http://www.w3.org/2000/svg">
<g id="Software=download, Size=24px, stroke width=1.5px">
<path id="download" d="M12 11.4519L12 19.125M12 19.125L14.7404 16.3846M12 19.125L9.25962 16.3846M8.16346 13.0962C8.07348 13.1061 7.43397 13.0962 7.34135 13.0962C5.97922 13.0962 4.875 11.9919 4.875 10.6298C4.875 9.26768 5.97922 8.16346 7.34135 8.16346L7.34797 8.16348C8.0251 6.24763 9.85225 4.875 12 4.875C13.9368 4.875 15.613 5.99129 16.4201 7.6156C17.9172 7.63459 19.125 8.85414 19.125 10.3558C19.125 11.8692 17.8981 13.0962 16.3846 13.0962H15.2885" stroke="black" stroke-width="1.5" stroke-linecap="round" stroke-linejoin="round"/>
</g>
</svg>
