<svg width="16" height="16" viewBox="0 0 16 16" fill="none" xmlns="http://www.w3.org/2000/svg">
<g id="Software=clear, Size=16px, weight=light">
<g id="Frame 6875">
<path id="Vector" d="M10.1127 7.61111L12.7329 4.01877C12.9096 3.79776 12.9885 3.51922 12.9523 3.24444C12.916 2.96966 12.7675 2.72115 12.5395 2.55356C12.3115 2.38597 12.0226 2.31304 11.7364 2.35082C11.4502 2.3886 11.1902 2.53399 11.0135 2.75501L8.38531 6.34841L2.84737 7.6111C2.78852 8.86311 3.79856 10.5257 5.52249 11.7928C7.24643 13.0599 8.94318 13.9025 10.1889 13.5228L10.1127 7.61111Z" stroke="black" stroke-miterlimit="10" stroke-linecap="round" stroke-linejoin="round"/>
<path id="Vector_2" d="M10.1851 7.51581C10.0412 7.69132 9.53819 7.55427 9.06434 7.20598C8.59048 6.8577 8.3218 6.42756 8.4612 6.24873" stroke="black" stroke-miterlimit="10" stroke-linecap="round" stroke-linejoin="round"/>
<path id="Vector_3" d="M5.83227 8.60016L3.66367 9.78658" stroke="black" stroke-miterlimit="10" stroke-linecap="round" stroke-linejoin="round"/>
<path id="Vector_4" d="M6.63057 10.2997L5.61238 11.6314" stroke="black" stroke-miterlimit="10" stroke-linecap="round" stroke-linejoin="round"/>
<path id="Vector_5" d="M8.67263 10.8209L7.84832 13.0348" stroke="black" stroke-miterlimit="10" stroke-linecap="round" stroke-linejoin="round"/>
</g>
</g>
</svg>
