<svg width="32" height="32" viewBox="0 0 32 32" fill="none" xmlns="http://www.w3.org/2000/svg">
<g id="Software=bug, Size=32px, weight=light">
<path id="bug" d="M18.9231 10.8846V9.42308C18.9231 7.80871 17.6144 6.5 16 6.5C14.3856 6.5 13.0769 7.80871 13.0769 9.42308V10.8846M21.8462 13.8077C24.5061 13.5234 25.5 11.372 25.5 10.1538M10.1538 13.8077C7.4939 13.5234 6.5 11.372 6.5 10.1538M21.8462 21.8462C24.5061 22.0736 25.5 23.7947 25.5 24.7692M10.1538 21.8462C7.4939 22.0736 6.5 23.7947 6.5 24.7692M9.42308 17.4615H7.23077M22.5769 17.4615H24.7692M16.0001 21.011L16.0001 14.7473M16 25.5C12.7713 25.5 10.1538 22.8826 10.1538 19.6538V14.1584C10.1538 12.3503 11.6196 10.8846 13.4277 10.8846H18.5724C20.3804 10.8846 21.8462 12.3503 21.8462 14.1584V19.6538C21.8462 22.8826 19.2287 25.5 16 25.5Z" stroke="black" stroke-linecap="round" stroke-linejoin="round"/>
</g>
</svg>
