<svg width="24" height="24" viewBox="0 0 24 24" fill="none" xmlns="http://www.w3.org/2000/svg">
<g id="Software=clear, Size=24px, weight=light">
<g id="Frame 6875">
<path id="Vector" d="M15.1686 11.4169L19.0989 6.0284C19.3639 5.69688 19.4823 5.27908 19.4279 4.86691C19.3735 4.45474 19.1508 4.08196 18.8087 3.83058C18.4667 3.57921 18.0334 3.46981 17.6042 3.52648C17.1749 3.58314 16.7848 3.80123 16.5197 4.13275L12.5775 9.52285L4.27057 11.4169C4.18229 13.2949 5.69735 15.7888 8.28325 17.6895C10.8692 19.5901 13.4143 20.8539 15.2829 20.2845L15.1686 11.4169Z" stroke="black" stroke-miterlimit="10" stroke-linecap="round" stroke-linejoin="round"/>
<path id="Vector_2" d="M15.2782 11.2737C15.0623 11.537 14.3078 11.3314 13.597 10.809C12.8862 10.2866 12.4832 9.64134 12.6923 9.3731" stroke="black" stroke-miterlimit="10" stroke-linecap="round" stroke-linejoin="round"/>
<path id="Vector_3" d="M8.74743 12.9L5.49452 14.6796" stroke="black" stroke-miterlimit="10" stroke-linecap="round" stroke-linejoin="round"/>
<path id="Vector_4" d="M9.94586 15.4498L8.41857 17.4473" stroke="black" stroke-miterlimit="10" stroke-linecap="round" stroke-linejoin="round"/>
<path id="Vector_5" d="M13.0094 16.2309L11.773 19.5517" stroke="black" stroke-miterlimit="10" stroke-linecap="round" stroke-linejoin="round"/>
</g>
</g>
</svg>
