<svg width="16" height="16" viewBox="0 0 16 16" fill="none" xmlns="http://www.w3.org/2000/svg">
<g id="Software=bug, Size=16px, stroke width=1px">
<path id="bug" d="M9.46154 5.44231V4.71154C9.46154 3.90435 8.80719 3.25 8 3.25C7.19281 3.25 6.53846 3.90435 6.53846 4.71154V5.44231M10.9231 6.90385C12.253 6.76171 12.75 5.68599 12.75 5.07692M5.07692 6.90385C3.74695 6.76171 3.25 5.68599 3.25 5.07692M10.9231 10.9231C12.253 11.0368 12.75 11.8974 12.75 12.3846M5.07692 10.9231C3.74695 11.0368 3.25 11.8974 3.25 12.3846M4.71154 8.73077H3.61538M11.2885 8.73077H12.3846M8.00004 10.5055L8.00005 7.37364M8 12.75C6.38563 12.75 5.07692 11.4413 5.07692 9.82692V7.07921C5.07692 6.17517 5.80979 5.44231 6.71383 5.44231H9.28618C10.1902 5.44231 10.9231 6.17517 10.9231 7.07921V9.82692C10.9231 11.4413 9.61437 12.75 8 12.75Z" stroke="black" stroke-linecap="round" stroke-linejoin="round"/>
</g>
</svg>
