<svg width="16" height="16" viewBox="0 0 16 16" fill="none" xmlns="http://www.w3.org/2000/svg">
<g id="Software=sorting, Size=16px, weight=light">
<path id="Sorting" d="M7 6.25C7 6.80228 6.55229 7.25 6 7.25C5.44772 7.25 5 6.80228 5 6.25M7 6.25C7 5.69772 6.55229 5.25 6 5.25C5.44772 5.25 5 5.69772 5 6.25M7 6.25H12.75M5 6.25H3.25M9 10.25C9 9.69772 9.44772 9.25 10 9.25C10.5523 9.25 11 9.69772 11 10.25M9 10.25C9 10.8023 9.44772 11.25 10 11.25C10.5523 11.25 11 10.8023 11 10.25M9 10.25L3.25 10.25M11 10.25H12.75" stroke="black" stroke-linecap="round" stroke-linejoin="round"/>
</g>
</svg>
