<svg width="16" height="16" viewBox="0 0 16 16" fill="none" xmlns="http://www.w3.org/2000/svg">
<g id="Software=dashboard, Size=16px, stroke width=1px">
<path id="dashboard" d="M8 9.46154C7.59641 9.46154 7.26923 9.78871 7.26923 10.1923C7.26923 10.5959 7.59641 10.9231 8 10.9231C8.40359 10.9231 8.73077 10.5959 8.73077 10.1923C8.73077 9.78871 8.40359 9.46154 8 9.46154ZM8 9.46154L9.09615 6.90385M5.07692 8C5.07692 6.38563 6.38563 5.07692 8 5.07692C9.61437 5.07692 10.9231 6.38563 10.9231 8M12.75 8C12.75 10.6234 10.6234 12.75 8 12.75C5.37665 12.75 3.25 10.6234 3.25 8C3.25 5.37665 5.37665 3.25 8 3.25C10.6234 3.25 12.75 5.37665 12.75 8Z" stroke="black" stroke-linecap="round" stroke-linejoin="round"/>
</g>
</svg>
