<svg width="24" height="24" viewBox="0 0 24 24" fill="none" xmlns="http://www.w3.org/2000/svg">
<g id="Software=plate, Size=24px, weight=regular">
<g id="plate">
<path d="M4.875 8.65384L4.875 7.125C4.875 5.88236 5.88236 4.875 7.12501 4.875L8.65385 4.875C9.89649 4.87501 10.9038 5.88236 10.9038 7.125V8.65384C10.9038 9.89648 9.89649 10.9038 8.65384 10.9038L7.125 10.9038C5.88236 10.9038 4.875 9.89648 4.875 8.65384Z" stroke="black" stroke-width="1.5" stroke-linecap="round" stroke-linejoin="round"/>
<path d="M13.0962 8.65384V7.125C13.0962 5.88236 14.1035 4.875 15.3462 4.875L16.875 4.875C18.1176 4.87501 19.125 5.88236 19.125 7.125V8.65384C19.125 9.89648 18.1176 10.9038 16.875 10.9038L15.3462 10.9038C14.1035 10.9038 13.0962 9.89648 13.0962 8.65384Z" stroke="black" stroke-width="1.5" stroke-linecap="round" stroke-linejoin="round"/>
<path d="M4.875 16.875L4.875 15.3462C4.875 14.1035 5.88236 13.0962 7.12501 13.0962L8.65385 13.0962C9.89649 13.0962 10.9038 14.1035 10.9038 15.3462V16.875C10.9038 18.1176 9.89649 19.125 8.65384 19.125H7.125C5.88236 19.125 4.875 18.1176 4.875 16.875Z" stroke="black" stroke-width="1.5" stroke-linecap="round" stroke-linejoin="round"/>
<path d="M13.0962 16.875V15.3462C13.0962 14.1035 14.1035 13.0962 15.3462 13.0962L16.875 13.0962C18.1176 13.0962 19.125 14.1035 19.125 15.3462V16.875C19.125 18.1176 18.1176 19.125 16.875 19.125H15.3462C14.1035 19.125 13.0962 18.1176 13.0962 16.875Z" stroke="black" stroke-width="1.5" stroke-linecap="round" stroke-linejoin="round"/>
</g>
</g>
</svg>
