<svg width="16" height="16" viewBox="0 0 16 16" fill="none" xmlns="http://www.w3.org/2000/svg">
<g id="Software=settings, Size=16px, stroke width=1px">
<path id="settings" d="M5.44792 11.2885C6.45469 11.2885 7.27083 10.4705 7.27083 9.46153C7.27083 8.45255 6.45469 7.63461 5.44792 7.63461M5.44792 11.2885C4.44115 11.2885 3.625 10.4705 3.625 9.46153C3.625 8.45255 4.44115 7.63461 5.44792 7.63461M5.44792 11.2885L5.4479 12.75M5.44792 7.63461L5.4479 3.25002M10.5521 8.36538C11.5588 8.36538 12.375 7.54744 12.375 6.53846C12.375 5.52948 11.5588 4.71154 10.5521 4.71154M10.5521 8.36538C9.54529 8.36538 8.72914 7.54744 8.72914 6.53846C8.72914 5.52948 9.54529 4.71154 10.5521 4.71154M10.5521 8.36538L10.5521 12.75M10.5521 4.71154L10.5521 3.25" stroke="black" stroke-linecap="round" stroke-linejoin="round"/>
</g>
</svg>
