<svg width="24" height="24" viewBox="0 0 24 24" fill="none" xmlns="http://www.w3.org/2000/svg">
<g id="Software=nut, Size=24px, weight=regular">
<g id="wrench">
<path d="M15.2441 12C15.2441 13.8161 13.7751 15.2884 11.9629 15.2884C10.1507 15.2884 8.68164 13.8161 8.68164 12C8.68164 10.1838 10.1507 8.71152 11.9629 8.71152C13.7751 8.71152 15.2441 10.1838 15.2441 12Z" stroke="black" stroke-width="1.5" stroke-linecap="round" stroke-linejoin="round"/>
<path d="M10.9679 5.13231C11.5851 4.78923 12.3407 4.78923 12.9579 5.13231L17.5304 7.7211C18.1419 8.07376 18.5198 8.71547 18.5254 9.41121V14.5888C18.5198 15.2845 18.1419 15.9262 17.5304 16.2789L12.9579 18.8677C12.3407 19.2108 11.5851 19.2108 10.9679 18.8677L6.39543 16.2789C5.78384 15.9262 5.40603 15.2845 5.40039 14.5888L5.40039 9.4112C5.40603 8.71547 5.78384 8.07376 6.39543 7.7211L10.9679 5.13231Z" stroke="black" stroke-width="1.5" stroke-linecap="round" stroke-linejoin="round"/>
</g>
</g>
</svg>
