<svg width="24" height="24" viewBox="0 0 24 24" fill="none" xmlns="http://www.w3.org/2000/svg">
<g id="Software=wrench, Size=24px, weight=regular">
<path id="wrench" d="M13.467 10.4471C12.6619 9.64127 12.6654 8.33373 13.4748 7.53225L14.8744 6.14628C15.3544 5.67091 15.1468 4.875 14.4712 4.875V4.875C11.9005 4.875 9.81656 6.96083 9.81656 9.53384C9.81656 9.95833 9.87328 10.3696 9.97953 10.7603L5.54868 15.1952C4.6505 16.0942 4.6505 17.5518 5.54868 18.4508C6.44686 19.3497 7.90311 19.3497 8.8013 18.4508L13.2244 14.0237C13.6212 14.1338 14.0394 14.1927 14.4712 14.1927C17.0419 14.1927 19.1259 12.1069 19.1259 9.53384C19.1259 9.52604 19.1259 9.51823 19.1258 9.51044C19.1222 8.77647 18.2566 8.56024 17.7378 9.07947L16.3715 10.4471C15.5694 11.2498 14.269 11.2498 13.467 10.4471Z" stroke="black" stroke-width="1.5" stroke-linecap="round" stroke-linejoin="round"/>
</g>
</svg>
