<svg width="24" height="24" viewBox="0 0 24 24" fill="none" xmlns="http://www.w3.org/2000/svg">
<g id="Software=hand, Size=24px, stroke width=1px">
<path id="hand" d="M5.04184 7.14122C4.69838 6.54323 4.90221 5.77858 5.4971 5.43332C6.09199 5.08807 6.63377 5.22495 7.19613 5.89095L10.197 9.01023C10.3516 9.17091 10.5884 9.21973 10.7934 9.13318L13.2357 8.10213C15.9747 7.06454 17.5335 8.44782 18.615 10.8109C19.689 13.1573 19.0659 16.1801 16.7536 17.5221C14.7808 18.667 12.7234 18.308 10.5287 18.2955C9.61381 18.2903 8.47993 18.8549 7.5999 19.1045C7.36246 19.1719 7.10376 19.0704 7.018 18.8379C6.95351 18.663 6.90853 18.481 6.88419 18.2952C6.84159 17.9696 6.86314 17.6388 6.94768 17.3216C7.03222 17.0044 7.17811 16.7071 7.37696 16.4466C7.73179 15.9817 8.3944 15.3373 8.97477 14.9147C9.22708 14.731 9.32606 14.379 9.16675 14.1098L5.04184 7.14122Z" stroke="black" stroke-linecap="round" stroke-linejoin="round"/>
</g>
</svg>
