<svg width="24" height="24" viewBox="0 0 24 24" fill="none" xmlns="http://www.w3.org/2000/svg">
<g id="Software=nut, Size=24px, stroke width=1px">
<g id="wrench">
<path d="M15.2437 12C15.2437 13.8161 13.7746 15.2884 11.9624 15.2884C10.1502 15.2884 8.68115 13.8161 8.68115 12C8.68115 10.1838 10.1502 8.71152 11.9624 8.71152C13.7746 8.71152 15.2437 10.1838 15.2437 12Z" stroke="black" stroke-linecap="round" stroke-linejoin="round"/>
<path d="M10.9674 5.13231C11.5846 4.78923 12.3402 4.78923 12.9574 5.13231L17.5299 7.7211C18.1415 8.07376 18.5193 8.71547 18.5249 9.41121V14.5888C18.5193 15.2845 18.1415 15.9262 17.5299 16.2789L12.9574 18.8677C12.3402 19.2108 11.5846 19.2108 10.9674 18.8677L6.39494 16.2789C5.78335 15.9262 5.40554 15.2845 5.3999 14.5888L5.3999 9.4112C5.40554 8.71547 5.78335 8.07376 6.39494 7.7211L10.9674 5.13231Z" stroke="black" stroke-linecap="round" stroke-linejoin="round"/>
</g>
</g>
</svg>
