<svg width="16" height="16" viewBox="0 0 16 16" fill="none" xmlns="http://www.w3.org/2000/svg">
<g id="Software=clear, Size=16px, stroke width=1.5px">
<g id="Frame 6875">
<path id="Vector" d="M10.1127 7.61136L12.7329 4.01902C12.9096 3.798 12.9885 3.51947 12.9523 3.24469C12.916 2.96991 12.7675 2.72139 12.5395 2.5538C12.3115 2.38622 12.0226 2.31329 11.7364 2.35107C11.4502 2.38884 11.1902 2.53424 11.0135 2.75525L8.38531 6.34865L2.84737 7.61134C2.78852 8.86336 3.79856 10.526 5.52249 11.7931C7.24643 13.0601 8.94318 13.9027 10.1889 13.5231L10.1127 7.61136Z" stroke="black" stroke-width="1.5" stroke-miterlimit="10" stroke-linecap="round" stroke-linejoin="round"/>
<path id="Vector_2" d="M10.1856 7.51581C10.0417 7.69132 9.53868 7.55427 9.06482 7.20598C8.59097 6.8577 8.32229 6.42756 8.46169 6.24873" stroke="black" stroke-width="1.5" stroke-miterlimit="10" stroke-linecap="round" stroke-linejoin="round"/>
<path id="Vector_3" d="M5.83178 8.59992L3.66318 9.78634" stroke="black" stroke-width="1.5" stroke-miterlimit="10" stroke-linecap="round" stroke-linejoin="round"/>
<path id="Vector_4" d="M6.63057 10.2999L5.61238 11.6316" stroke="black" stroke-width="1.5" stroke-miterlimit="10" stroke-linecap="round" stroke-linejoin="round"/>
<path id="Vector_5" d="M8.67312 10.8207L7.84881 13.0346" stroke="black" stroke-width="1.5" stroke-miterlimit="10" stroke-linecap="round" stroke-linejoin="round"/>
</g>
</g>
</svg>
