<svg width="16" height="16" viewBox="0 0 16 16" fill="none" xmlns="http://www.w3.org/2000/svg">
<g id="Software=hand, Size=16px, stroke width=1.5px">
<path id="hand" d="M3.36123 4.76082C3.13226 4.36215 3.26814 3.85239 3.66473 3.62222C4.06133 3.39205 4.42251 3.4833 4.79742 3.9273L6.79801 6.00682C6.90106 6.11394 7.05896 6.14649 7.19563 6.08879L8.82378 5.40142C10.6498 4.7097 11.689 5.63188 12.41 7.20725C13.126 8.77153 12.7106 10.7867 11.1691 11.6814C9.85388 12.4447 8.48228 12.2053 7.0191 12.197C6.4092 12.1935 5.65329 12.57 5.0666 12.7364C4.9083 12.7813 4.73584 12.7136 4.67867 12.5586C4.63567 12.442 4.60568 12.3206 4.58946 12.1968C4.56106 11.9797 4.57543 11.7592 4.63178 11.5477C4.68814 11.3363 4.78541 11.138 4.91797 10.9644C5.15453 10.6545 5.59627 10.2249 5.98318 9.94314C6.15139 9.82066 6.21737 9.58598 6.11117 9.40655L3.36123 4.76082Z" stroke="black" stroke-width="1.5" stroke-linecap="round" stroke-linejoin="round"/>
</g>
</svg>
