<svg width="16" height="16" viewBox="0 0 16 16" fill="none" xmlns="http://www.w3.org/2000/svg">
<g id="Software=puzzle, Size=16px, stroke width=1px">
<path id="puzzle" d="M11.9263 12.75C11.9285 12.75 11.9307 12.75 11.9328 12.75M11.9328 12.75C12.3839 12.7464 12.75 12.3726 12.75 11.9135L12.75 6.17403C12.75 5.71277 12.3819 5.33791 11.9279 5.33791L11.0601 5.33791C10.6061 5.33791 10.238 4.964 10.238 4.50275C10.238 3.81087 9.68587 3.25 9.00481 3.25C8.32375 3.25 7.77164 3.81087 7.77164 4.50275C7.77164 4.964 7.40356 5.33791 6.94952 5.33791L6.12741 5.33791C5.67337 5.33791 5.30529 5.7119 5.30529 6.17314L5.30529 6.95598C5.30529 7.41723 4.93722 7.79121 4.48318 7.79121C3.80211 7.79121 3.25 8.35208 3.25 9.04396C3.25 9.73583 3.80211 10.2967 4.48318 10.2967C4.93722 10.2967 5.30529 10.6706 5.30529 11.1319L5.30529 11.9148C5.30529 12.3761 5.67461 12.75 6.12865 12.75L7.77165 12.75L7.77165 11.9148C7.77165 11.2229 8.32376 10.6621 9.00482 10.6621C9.68588 10.6621 10.238 11.2229 10.238 11.9148L10.238 12.75L11.9328 12.75Z" stroke="black" stroke-linecap="round" stroke-linejoin="round"/>
</g>
</svg>
