<svg width="16" height="16" viewBox="0 0 16 16" fill="none" xmlns="http://www.w3.org/2000/svg">
<g id="Software=wrench, Size=16px, weight=light">
<path id="wrench" d="M8.97801 6.96472C8.44128 6.42751 8.44362 5.55582 8.98318 5.0215L9.91625 4.09752C10.2363 3.7806 10.0979 3.25 9.64748 3.25V3.25C7.93369 3.25 6.54437 4.64055 6.54437 6.3559C6.54437 6.63889 6.58219 6.91304 6.65302 7.17356L3.69912 10.1301C3.10033 10.7295 3.10033 11.7012 3.69912 12.3005C4.29791 12.8998 5.26874 12.8998 5.86753 12.3005L8.81629 9.34911C9.08082 9.42255 9.35957 9.46179 9.64748 9.46179C11.3613 9.46179 12.7506 8.07124 12.7506 6.3559V6.3559C12.7506 5.85933 12.1652 5.71273 11.8142 6.06401L10.9143 6.96471C10.3796 7.49989 9.51269 7.49989 8.97801 6.96472Z" stroke="black" stroke-linecap="round" stroke-linejoin="round"/>
</g>
</svg>
