<svg width="16" height="16" viewBox="0 0 16 16" fill="none" xmlns="http://www.w3.org/2000/svg">
<g id="Software=plate, Size=16px, stroke width=1px">
<g id="plate">
<path d="M3.25 5.76923L3.25 4.75C3.25 3.92157 3.92158 3.25 4.75 3.25L5.76923 3.25C6.59766 3.25 7.26923 3.92158 7.26923 4.75V5.76923C7.26923 6.59765 6.59766 7.26923 5.76923 7.26923L4.75 7.26923C3.92157 7.26923 3.25 6.59766 3.25 5.76923Z" stroke="black" stroke-linecap="round" stroke-linejoin="round"/>
<path d="M8.73077 5.76923V4.75C8.73077 3.92157 9.40234 3.25 10.2308 3.25L11.25 3.25C12.0784 3.25 12.75 3.92158 12.75 4.75V5.76923C12.75 6.59765 12.0784 7.26923 11.25 7.26923L10.2308 7.26923C9.40234 7.26923 8.73077 6.59766 8.73077 5.76923Z" stroke="black" stroke-linecap="round" stroke-linejoin="round"/>
<path d="M3.25 11.25L3.25 10.2308C3.25 9.40234 3.92158 8.73077 4.75 8.73077L5.76923 8.73077C6.59766 8.73077 7.26923 9.40234 7.26923 10.2308V11.25C7.26923 12.0784 6.59766 12.75 5.76923 12.75H4.75C3.92157 12.75 3.25 12.0784 3.25 11.25Z" stroke="black" stroke-linecap="round" stroke-linejoin="round"/>
<path d="M8.73077 11.25V10.2308C8.73077 9.40234 9.40234 8.73077 10.2308 8.73077L11.25 8.73077C12.0784 8.73077 12.75 9.40234 12.75 10.2308V11.25C12.75 12.0784 12.0784 12.75 11.25 12.75H10.2308C9.40234 12.75 8.73077 12.0784 8.73077 11.25Z" stroke="black" stroke-linecap="round" stroke-linejoin="round"/>
</g>
</g>
</svg>
