<svg width="16" height="16" viewBox="0 0 16 16" fill="none" xmlns="http://www.w3.org/2000/svg">
<g id="Sport=overwatch, weight=regular, Size=16">
<path id="overwatch" d="M5.07392 4.258C5.88042 3.62647 6.89624 3.25 8 3.25C9.10375 3.25 10.1196 3.62647 10.9261 4.258M4.07674 5.3214C3.55511 6.08396 3.25 7.00635 3.25 8C3.25 10.6234 5.37665 12.75 8 12.75C10.6234 12.75 12.75 10.6234 12.75 8C12.75 7.00635 12.4449 6.08396 11.9233 5.3214M4.87674 11.3657L7.34764 8.82228C7.54087 8.62337 7.64896 8.35698 7.64896 8.07967V5.8963M11.2975 11.3657L8.8641 8.82111C8.67445 8.62279 8.5686 8.35896 8.5686 8.08455V5.8963" stroke="black" stroke-width="1.5" stroke-linecap="round" stroke-linejoin="round"/>
</g>
</svg>
