<svg width="24" height="24" viewBox="0 0 24 24" fill="none" xmlns="http://www.w3.org/2000/svg">
<g id="Sport=table-tennis, Size=24px, weight=regular">
<path id="table-tennis" d="M11.7973 13.6019C11.7973 13.6019 11.8215 13.6141 11.8578 13.6508C12.6073 14.2622 13.0425 15.2038 13.0425 16.1821V19.5448C13.0425 19.7283 13.1876 19.875 13.3689 19.875H14.6504C14.8317 19.875 14.9768 19.7283 14.9768 19.5448V16.1698C14.9768 15.1916 15.412 14.2622 16.1616 13.6386C16.1978 13.6141 16.222 13.5897 16.222 13.5897M11.7973 13.6019C11.7973 13.6019 10.4191 13.284 9.85086 11.5842C9.72997 11.2418 9.68161 10.8872 9.65743 10.5326C9.5849 9.02853 9.65743 4.125 14.0096 4.125C18.3617 4.125 18.4343 9.02853 18.3617 10.5326C18.3375 10.8872 18.2771 11.2418 18.1683 11.5842C17.6001 13.284 16.2219 13.6019 16.2219 13.6019L11.7973 13.6019ZM8.03205 15.5673C9.08389 15.8185 9.73523 16.8847 9.48686 17.9486C9.2385 19.0125 8.18447 19.6713 7.13263 19.4201C6.08079 19.1689 5.42945 18.1028 5.67782 17.0388C5.92619 15.9749 6.98021 15.3161 8.03205 15.5673Z" stroke="black" stroke-width="1.5" stroke-miterlimit="10" stroke-linecap="round" stroke-linejoin="round"/>
</g>
</svg>
