<svg width="24" height="24" viewBox="0 0 24 24" fill="none" xmlns="http://www.w3.org/2000/svg">
<g id="Sport=equestrian, Size=24px, weight=light">
<path id="Equestrian" d="M18.9436 12.6029C18.9436 12.6029 17.7051 13.1079 15.3841 13.3769M18.9436 12.6029L20.5331 13.0464C21.008 13.1786 21.1591 13.7542 20.8057 14.0878C20.4667 14.4075 17.4157 14.8586 14.0128 14.303M18.9436 12.6029C16.8496 3.66239 9.52183 5.19795 9.52183 5.19795C3.74515 6.3085 2.86885 10.5032 3.01437 13.4652C3.07033 14.6012 3.3094 15.7225 3.70517 16.7946L3.78432 17.009M7.52777 5.69904C7.35507 5.49384 7.25193 5.23176 7.25193 4.9474C7.25193 4.28645 7.81001 3.75 8.49761 3.75C9.18522 3.75 9.7433 4.28645 9.7433 4.9474C9.7433 5.02195 9.7361 5.09419 9.72251 5.1649M3.78432 17.009C4.39118 16.5994 7.25513 14.9432 8.62794 14.562C10.3757 14.0762 12.2195 14.0101 14.0128 14.303M3.78432 17.009C3.94903 17.3749 4.13372 17.7007 4.32961 17.9897C5.29466 19.4115 6.9601 20.25 8.72628 20.25C11.6462 20.25 14.0128 17.9743 14.0128 15.1683V14.303" stroke="black" stroke-miterlimit="10" stroke-linecap="round" stroke-linejoin="round"/>
</g>
</svg>
