<svg width="24" height="24" viewBox="0 0 24 24" fill="none" xmlns="http://www.w3.org/2000/svg">
<g id="Sport=badminton, weight=light, Size=24">
<path id="badminton" d="M10.1718 6.54828L8.87849 5.25128C8.64033 5.01309 8.35759 4.82416 8.04641 4.69525C7.73523 4.56635 7.4017 4.5 7.06488 4.5C6.72806 4.5 6.39453 4.56635 6.08335 4.69525C5.77217 4.82416 5.48943 5.01309 5.25128 5.25128C5.01309 5.48943 4.82416 5.77218 4.69525 6.08336C4.56635 6.39454 4.5 6.72806 4.5 7.06488C4.5 7.4017 4.56635 7.73523 4.69525 8.04641C4.82416 8.35759 5.01309 8.64033 5.25128 8.87849L6.54828 10.1755L10.1718 6.54828ZM10.1718 6.54828L18.7233 10.9522L19.5 12.7658L17.1698 12.5057M17.1698 12.5057L17.4263 14.8359H14.8359M17.1698 12.5057L13.799 10.1755M14.8359 14.8359V17.4263L12.5057 17.1698M14.8359 14.8359L11.9891 11.9854M12.5057 17.1698L12.7658 19.5L10.6921 18.4631L6.54828 10.1718M12.5057 17.1698L10.1755 13.799M13.8027 8.61836V10.1718H11.729L11.9854 11.9854L10.1718 11.729L10.1755 13.8027L8.36189 13.5426M11.729 10.1755L8.87849 7.84162M10.1755 11.729L7.84162 8.87849" stroke="black" stroke-linecap="round" stroke-linejoin="round"/>
</g>
</svg>
