<svg width="24" height="24" viewBox="0 0 24 24" fill="none" xmlns="http://www.w3.org/2000/svg">
<g id="Sport=rainbow-six, Size=24px, weight=light">
<path id="Vector" d="M10.0435 7.17912L9.26087 9.49407M8.47826 7.17912L7.69565 9.49407M6.91304 7.17912L6.13043 9.49407M9.65217 13.7381L10.5404 11.4039C10.7126 10.9525 11.1509 10.6515 11.64 10.6515H15.1304M11.6088 10.6515C11.331 11.8399 12.0001 12.5807 12.0001 12.5807M20.2174 6.02165V5.25H18.6522V6.02165H8.08696L7.30435 5.25H5.73913V6.40747C5.45739 6.40747 5.13652 6.38432 4.95652 6.7933C4.87435 6.7933 4.72565 6.7933 4.56522 6.7933C4.08 6.31488 3.78261 7.17912 3.78261 7.17912L4.56522 8.3366V9.10825C4.46348 9.26257 4.27565 9.40919 4.17391 9.49407C3.84913 9.76029 3.3913 9.70627 3.3913 9.87989C3.3913 10.2773 3.27391 11.0374 4.17391 11.0374C4.90174 11.0374 4.95652 11.9942 4.95652 12.5807C4.95652 13.0437 4.35 13.7767 4.22087 14.097C4.09565 14.4172 3.41087 16.1187 3.23087 16.7013C3.05087 17.2877 3 17.662 3 17.9784C3 18.2947 3.49304 18.75 3.78261 18.75H8.08696C8.86957 18.75 8.15348 17.5462 8.47826 16.8209C8.83435 16.0261 9.31565 14.5329 9.65217 13.7343H12.5478C13.1661 13.7343 13.7061 13.5182 13.9565 12.9626L15.1304 10.6477H17.087C17.6583 10.6477 17.8696 10.2773 17.8696 9.87604H20.2174C20.64 9.87604 21 9.57895 21 9.10439V6.02165H20.2174Z" stroke="black" stroke-miterlimit="10" stroke-linecap="round" stroke-linejoin="round"/>
</g>
</svg>
