<svg width="16" height="16" viewBox="0 0 16 16" fill="none" xmlns="http://www.w3.org/2000/svg">
<g id="Sport=snooker, Size=16px, weight=regular">
<path id="Vector" d="M6.24997 10.656C6.24997 11.1497 5.85823 11.55 5.37499 11.55C4.89175 11.55 4.5 11.1497 4.5 10.656C4.5 10.1622 4.89175 9.76197 5.37499 9.76197C5.85823 9.76197 6.24997 10.1622 6.24997 10.656ZM6.24997 10.656C6.24997 11.1497 6.64183 11.55 7.12507 11.55C7.60832 11.55 8.00006 11.1497 8.00006 10.656M6.24997 10.656C6.24997 10.1622 6.64183 9.76197 7.12507 9.76197C7.60832 9.76197 8.00006 10.1622 8.00006 10.656M7.12502 9.07831C7.12502 9.57206 6.73327 9.97233 6.25003 9.97233C5.76679 9.97233 5.37504 9.57206 5.37504 9.07831C5.37504 8.58456 5.76679 8.1843 6.25003 8.1843C6.73327 8.1843 7.12502 8.58456 7.12502 9.07831ZM7.12502 9.07831C7.12502 9.57206 7.51676 9.97233 8 9.97233C8.48324 9.97233 8.87499 9.57206 8.87499 9.07831M7.12502 9.07831C7.12502 8.58456 7.51676 8.1843 8 8.1843C8.48324 8.1843 8.87499 8.58456 8.87499 9.07831M8.87499 9.07831C8.87499 9.57206 9.26673 9.97233 9.74997 9.97233C10.2332 9.97233 10.625 9.57206 10.625 9.07831C10.625 8.58456 10.2332 8.1843 9.74997 8.1843C9.26673 8.1843 8.87499 8.58456 8.87499 9.07831ZM8.00006 7.51115C8.00006 8.0049 7.60832 8.40517 7.12507 8.40517C6.64183 8.40517 6.25009 8.0049 6.25009 7.51115C6.25009 7.0174 6.64183 6.61714 7.12507 6.61714C7.60832 6.61714 8.00006 7.0174 8.00006 7.51115ZM8.00006 7.51115C8.00006 8.0049 8.3918 8.40517 8.87504 8.40517C9.35829 8.40517 9.75003 8.0049 9.75003 7.51115C9.75003 7.0174 9.35829 6.61714 8.87504 6.61714C8.3918 6.61714 8.00006 7.0174 8.00006 7.51115ZM8.00006 10.656C8.00006 11.1497 8.3918 11.55 8.87504 11.55C9.35829 11.55 9.75003 11.1497 9.75003 10.656M8.00006 10.656C8.00006 10.1622 8.3918 9.76197 8.87504 9.76197C9.35829 9.76197 9.75003 10.1622 9.75003 10.656M9.75003 10.656C9.75003 11.1497 10.1418 11.55 10.625 11.55C11.1083 11.55 11.5 11.1497 11.5 10.656C11.5 10.1622 11.1083 9.76197 10.625 9.76197C10.1418 9.76197 9.75003 10.1622 9.75003 10.656ZM8.87499 5.94401C8.87499 6.43776 8.48324 6.83803 8 6.83803C7.51676 6.83803 7.12501 6.43776 7.12501 5.94401C7.12501 5.45026 7.51676 5.05 8 5.05C8.48324 5.05 8.87499 5.45026 8.87499 5.94401ZM4.24952 12.5H11.7459C12.1957 12.5 12.608 12.2638 12.8329 11.866C13.0578 11.4682 13.0578 11.0083 12.8204 10.6229L8.95974 4.04696C8.75984 3.6989 8.39751 3.5 7.99771 3.5C7.5979 3.5 7.23558 3.6989 7.03567 4.04696L3.17505 10.6229C2.95015 11.0083 2.93766 11.4807 3.16255 11.8785C3.38744 12.2638 3.79974 12.5 4.24952 12.5Z" stroke="black" stroke-width="1.5" stroke-miterlimit="10" stroke-linecap="round" stroke-linejoin="round"/>
</g>
</svg>
