<svg width="24" height="24" viewBox="0 0 24 24" fill="none" xmlns="http://www.w3.org/2000/svg">
<g id="Sport=waterpolo, weight=regular, Size=24">
<path id="Vector" d="M7.10025 10.425L8.33221 11.709C8.49449 11.8919 8.69797 12.0045 8.94105 12.0303L11.2908 12.2802M14.2553 11.2772L18.3785 7.21078C18.7148 6.87953 19.2613 6.89218 19.6001 7.24002C19.9406 7.60427 19.9318 8.16848 19.5812 8.5177L16.0116 12.0161C15.7483 12.2739 15.6582 12.6639 15.7572 13.0187L17.7894 18.8431M12.8321 18.8271L11.6707 14.8446C11.5543 14.475 11.2394 14.2076 10.866 14.1614L8.33665 13.8794C8.10945 13.852 7.90758 13.7558 7.76279 13.5878L5.56883 11.4405C5.31748 11.167 5.27883 10.7731 5.40706 10.4457M5.87724 4.91264C6.97066 4.85615 7.90703 5.72594 7.96868 6.85537C8.03033 7.98479 7.19391 8.94616 6.1005 9.00264C5.00708 9.05912 4.07071 8.18933 4.00906 7.05991C3.94741 5.93049 4.78382 4.96912 5.87724 4.91264ZM13.8746 8.42817C13.9951 9.65629 13.1293 10.7464 11.9406 10.8631C10.752 10.9797 9.69076 10.0787 9.57024 8.85057C9.44972 7.62246 10.3156 6.53233 11.5042 6.41568C12.6928 6.29904 13.7541 7.20006 13.8746 8.42817Z" stroke="black" stroke-width="1.5" stroke-miterlimit="10" stroke-linecap="round" stroke-linejoin="round"/>
<path id="Vector 35" d="M22.2944 18.4984C21.6083 17.9015 20.5906 17.8982 19.9083 18.4907L19.7444 18.6331C18.9847 19.2928 17.8563 19.3051 17.0742 18.6621L16.9798 18.5845C16.1757 17.9235 15.0157 17.9361 14.2347 18.6143C13.4696 19.2787 12.3378 19.3059 11.5335 18.6793L11.3765 18.557C10.5192 17.889 9.32168 17.8852 8.46854 18.5476L8.29293 18.6839C7.49866 19.3006 6.37969 19.2823 5.59809 18.6397L5.37779 18.4586C4.64748 17.8582 3.58533 17.9029 2.91602 18.5622" stroke="black" stroke-width="1.5" stroke-linecap="round" stroke-linejoin="round"/>
</g>
</svg>
