<svg width="32" height="32" viewBox="0 0 32 32" fill="none" xmlns="http://www.w3.org/2000/svg">
<g id="Sport=cricket, stroke width=1px">
<path id="cricket" d="M24.0166 22.8203L20.0504 18.9266C19.8945 18.7736 19.6446 18.7739 19.4891 18.9275L19.1752 19.2375M22.8283 23.9939L18.871 20.1089C18.7116 19.9525 18.7112 19.6958 18.8701 19.5389L19.1752 19.2375M19.0596 12.208L23.7887 7.5361M20.4906 13.4191L25.1176 8.84812M19.1752 19.2375L13.8931 13.944M10.38 6.19964L20.8101 17.254C21.107 17.5687 21.0983 18.0593 20.7903 18.3635L18.2879 20.835C17.9612 21.1578 17.4324 21.1609 17.1017 20.8421L6.19157 10.3249C5.99148 10.132 5.9426 9.83259 6.07116 9.58735L7.20692 7.42076C7.26785 7.30453 7.36405 7.21004 7.48204 7.15051L9.62656 6.06866C9.87914 5.94125 10.1866 5.9947 10.38 6.19964ZM23.0936 23.3094L22.5522 24.7493C22.5083 24.866 22.5384 24.9973 22.629 25.0839L23.4946 25.9117C23.6192 26.0308 23.8174 26.0292 23.94 25.9081L25.907 23.9654C26.0324 23.8415 26.0308 23.6401 25.9033 23.5182L25.0379 22.6906C24.951 22.6076 24.8241 22.5804 24.7103 22.6205L23.2845 23.1232C23.1962 23.1543 23.1263 23.2225 23.0936 23.3094ZM25.6626 10.5734C25.6626 12.4431 24.1284 13.9588 22.2357 13.9588C20.3431 13.9588 18.8088 12.4431 18.8088 10.5734C18.8088 8.70373 20.3431 7.18803 22.2357 7.18803C24.1284 7.18803 25.6626 8.70373 25.6626 10.5734Z" stroke="black" stroke-linecap="round" stroke-linejoin="round"/>
</g>
</svg>
