<svg width="16" height="16" viewBox="0 0 16 16" fill="none" xmlns="http://www.w3.org/2000/svg">
<g id="Sport=basketball, weight=regular, Size=16">
<path id="basketball" d="M7.4775 3.25C6.9075 4.2 6.67 4.7225 7.145 5.34C7.145 5.34 7.24 5.53 7.43 5.625C8.0475 6.1 8.76 6.0525 9.52 6.005C10.66 5.91 11.8475 5.815 12.75 7.62M8.475 12.75C6.6225 11.8 6.575 10.7075 6.5275 9.6625C6.5275 8.95 6.48 8.2375 5.8625 7.62C5.8625 7.62 5.815 7.5725 5.7675 7.525C5.72 7.4775 5.435 7.2875 5.435 7.2875C4.865 6.955 4.1525 7.0025 3.25 7.4775M11.515 11.23L4.8175 4.5325M11.3077 4.54856C10.1572 4.50063 8.95876 4.74031 7.85622 5.31555C5.69907 6.37015 4.30891 8.38349 3.97335 10.6365M12.75 7.5725C12.655 6.4325 12.18 5.435 11.3725 4.6275C10.47 3.725 9.2825 3.25 8 3.25C7.9525 3.25 7.905 3.25 7.8575 3.25C6.6225 3.2975 5.4825 3.7725 4.6275 4.6275C3.7725 5.4825 3.2975 6.6225 3.25 7.8575C3.25 7.905 3.25 7.9525 3.25 8C3.25 9.2825 3.725 10.47 4.6275 11.3725C5.53 12.275 6.7175 12.75 8 12.75C9.2825 12.75 10.47 12.275 11.3725 11.3725C12.275 10.47 12.75 9.2825 12.75 8C12.75 7.8575 12.75 7.715 12.75 7.5725Z" stroke="black" stroke-width="1.5" stroke-miterlimit="10" stroke-linecap="round" stroke-linejoin="round"/>
</g>
</svg>
