<svg width="16" height="16" viewBox="0 0 16 16" fill="none" xmlns="http://www.w3.org/2000/svg">
<g id="Sport=cross-country, Size=16px, weight=regular">
<path id="cross-country" d="M6.69745 11.2626L7.1428 10.1282C7.18671 10.0054 7.17666 9.87204 7.1196 9.75485L5.79589 7.13687C5.52223 6.58745 5.74995 5.9276 6.3129 5.66801L9.29673 4.26631M10.6584 5.80959L11.131 6.81759C11.1785 6.91524 11.2658 6.99418 11.3685 7.02977L12.3812 7.38062C12.6675 7.47977 12.8196 7.79227 12.7189 8.07397C12.6182 8.35568 12.3007 8.50546 12.0145 8.40631L10.4954 7.88004C10.3926 7.84445 10.3054 7.76552 10.2578 7.66786L9.5972 6.28623L7.80613 7.14323C7.65731 7.21344 7.60524 7.38212 7.67916 7.52138L8.58437 9.27999C8.64878 9.39972 8.65882 9.53309 8.61491 9.65588L7.88012 11.7282M3.25 10.2959L11.5678 12.9633C11.7953 13.0422 12.052 12.9931 12.2197 12.8239C12.3875 12.6547 12.4882 12.373 12.2203 11.923M11.4807 8.24108L4.45036 5.67527M12.148 3.57848C12.395 4.0857 12.1775 4.69398 11.6622 4.9371C11.1469 5.18022 10.5289 4.96612 10.2819 4.4589C10.0349 3.95168 10.2524 3.34341 10.7677 3.10029C11.283 2.85717 11.901 3.07126 12.148 3.57848Z" stroke="black" stroke-width="1.5" stroke-miterlimit="10" stroke-linecap="round" stroke-linejoin="round"/>
</g>
</svg>
