<svg width="16" height="16" viewBox="0 0 16 16" fill="none" xmlns="http://www.w3.org/2000/svg">
<g id="Sport=skateboarding, weight=light, Size=16">
<path id="skateboarding" d="M9.62687 3.07176L10.0722 2.62643C10.9074 1.79119 12.2739 1.79119 13.1073 2.62643L13.372 2.89112C14.2072 3.72636 14.2072 5.09099 13.372 5.92622L12.9267 6.37156M5.01789 7.68254L7.68276 5.01587M6.39861 12.8996L5.92466 13.3736C5.08943 14.2088 3.72479 14.2088 2.88956 13.3736L2.62486 13.1089C1.79142 12.2736 1.79142 10.9072 2.62665 10.072L3.1006 9.59803M10.9826 8.31567L8.31768 10.9823M8.8757 4.78694L11.224 7.13526M4.28102 9.38162L6.62933 11.7299M7.29116 4.59808L8.68886 3.20086L9.54236 4.05466L8.14466 5.45187L7.29116 4.59808ZM10.5456 7.85222L11.943 6.45477L12.7967 7.30842L11.3992 8.70587L10.5456 7.85222ZM9.34429 6.85267C9.28884 6.90633 9.20121 6.90633 9.14755 6.85267C9.0939 6.79902 9.09211 6.70959 9.14755 6.65594C9.20121 6.60049 9.29063 6.60228 9.34429 6.65594C9.39794 6.70959 9.39794 6.79902 9.34429 6.85267ZM2.69661 9.19423L4.09431 7.79701L4.94781 8.65081L3.55011 10.048L2.69661 9.19423ZM5.95282 12.4484L7.35003 11.0507L8.20383 11.9042L6.80662 13.3019L5.95282 12.4484ZM6.37536 9.81981C6.32171 9.87346 6.23228 9.87525 6.17863 9.81981C6.12497 9.76615 6.12497 9.67673 6.17863 9.62307C6.23407 9.56763 6.32171 9.56942 6.37536 9.62307C6.42902 9.67673 6.42902 9.76615 6.37536 9.81981Z" stroke="black" stroke-miterlimit="10" stroke-linecap="round" stroke-linejoin="round"/>
</g>
</svg>
