<svg width="32" height="32" viewBox="0 0 32 32" fill="none" xmlns="http://www.w3.org/2000/svg">
<g id="Sport=harness, Size=32px, weight=regular">
<path id="harness" d="M19.1122 16.2324L19.6838 15.2496C19.8691 14.9311 19.9561 14.565 19.9339 14.1973L19.902 13.6705C19.8799 13.3038 19.9663 12.9386 20.1507 12.6206L21.4473 10.3837M16.5597 7.55478C17.7977 7.55478 18.7143 7.69325 19.8263 7.06582L21.5261 5.95704C21.9833 5.65882 22.5176 5.5 23.0638 5.5H23.1824L23.2192 6.24469C23.2292 6.44665 23.3049 6.6396 23.4321 6.79695C24.6099 8.25383 25.5933 9.81959 26.4493 11.4879C26.532 11.6491 26.5121 11.8436 26.3999 11.986L26.021 12.4672C25.883 12.6424 25.653 12.7175 25.438 12.6575C25.3164 12.6236 25.2111 12.5484 25.1333 12.4491C24.9803 12.2539 24.8114 12.0722 24.6289 11.9041L24.5117 11.8089C24.1859 11.6315 23.821 11.545 23.4518 11.5623C23.3258 11.5709 23.1955 11.5623 23.0695 11.5493C21.9271 11.4022 21.1191 10.355 21.2668 9.21698M25.1152 9.28189L23.0606 11.5536M14.4186 9.65116H15.9142C16.1758 9.65116 16.4344 9.7058 16.6735 9.81157L20.5847 11.5418M13.1091 11.7798H14.3645M19.5077 15.5617C19.5846 15.5217 22.5173 16.4085 23.8606 16.8181C24.254 16.938 24.5205 17.3001 24.5205 17.7107V19.8486C24.5205 20.1652 24.3601 20.4602 24.0943 20.6328L22.0749 21.9442M20.0463 17.6993L22.7579 18.2661C22.975 18.3115 23.1305 18.5026 23.1305 18.724V19.1403C23.1305 19.311 23.0373 19.4682 22.8874 19.5503L21.2669 20.4383M15.8326 16.6564C16.062 16.8779 16.3199 17.0707 16.6043 17.2258C16.7344 17.2967 16.8533 17.3879 16.9448 17.5044L19.5423 20.8148L21.1663 23.8995C21.2324 24.0251 21.3263 24.1341 21.4408 24.2181L21.8882 24.5464C22.0107 24.6362 22.1095 24.7545 22.176 24.891L22.5938 25.7485C22.6722 25.9095 22.8358 26.0116 23.0151 26.0116H24.117C24.3757 26.0116 24.5855 25.8022 24.5855 25.5439V25.2078C24.5855 25.0851 24.5372 24.9674 24.4511 24.8799L23.0434 23.45L20.8324 20.1181L18.5345 15.2934M12.899 13.8023H6.8301M15.7727 21.3721C15.7727 24.2042 13.4731 26.5 10.6364 26.5C7.79962 26.5 5.5 24.2042 5.5 21.3721C5.5 18.54 7.79962 16.2442 10.6364 16.2442C13.4731 16.2442 15.7727 18.54 15.7727 21.3721Z" stroke="black" stroke-width="1.5" stroke-miterlimit="10" stroke-linecap="round" stroke-linejoin="round"/>
</g>
</svg>
