<svg width="24" height="24" viewBox="0 0 24 24" fill="none" xmlns="http://www.w3.org/2000/svg">
<g id="Sport=set-tennis, weight=regular, Size=24">
<path id="set-tennis" d="M9.92243 5.75222C10.4182 6.43091 10.5797 7.33332 10.3384 8.13387C10.0822 9.02025 9.3903 9.73561 9.05349 10.5963C8.73719 11.3871 8.72735 12.2863 9.03198 13.0852C9.32585 13.8789 9.79938 14.4936 10.6826 14.9211C11.5551 15.3434 12.331 15.3335 13.1465 15.0768C13.9513 14.8149 14.6613 14.2545 15.0853 13.5158C15.5514 12.7177 15.6832 11.7312 16.2194 10.9804C16.7084 10.2998 17.5163 9.86657 18.3454 9.82915M18.1478 14.9758C16.5043 18.3712 12.4195 19.7915 9.02404 18.148C5.62862 16.5045 4.20837 12.4197 5.85184 9.02429C7.49531 5.62886 11.5801 4.20862 14.9756 5.85208C18.371 7.49555 19.7912 11.5804 18.1478 14.9758Z" stroke="black" stroke-width="1.5" stroke-miterlimit="10" stroke-linecap="round" stroke-linejoin="round"/>
</g>
</svg>
