<svg width="24" height="24" viewBox="0 0 24 24" fill="none" xmlns="http://www.w3.org/2000/svg">
<g id="Sport=enba, weight=regular, Size=24">
<path id="Vector" d="M18.6912 11.403C18.6912 11.6201 18.6912 11.8373 18.6912 12.0544C18.6912 14.0087 17.9674 15.8183 16.5921 17.1935C15.2169 18.5688 13.4073 19.2926 11.453 19.2926C9.49871 19.2926 7.68917 18.5688 6.31392 17.1935C4.93866 15.8183 4.21484 14.0087 4.21484 12.0544C4.21484 11.982 4.21484 11.9097 4.21484 11.8373C4.28723 9.95536 5.01104 8.21819 6.31392 6.91532C7.61679 5.61245 9.35395 4.88863 11.2359 4.81625C11.3083 4.81625 11.3806 4.81625 11.453 4.81625C11.7967 4.81625 12.1358 4.83863 12.4689 4.88299M10.5844 5.03361C9.77035 6.32786 9.65781 7.11566 10.1501 8.00105C10.1501 8.00105 10.2949 8.29057 10.5844 8.43534C11.1976 8.90698 11.8722 9.04057 12.5882 9.05638M12.1768 19.2926C9.35395 17.845 9.28157 16.1802 9.20919 14.5878C9.20919 13.5021 9.1368 12.4163 8.19584 11.4754C8.19584 11.4754 8.12346 11.403 8.05108 11.3306C7.9787 11.2582 7.54441 10.9687 7.54441 10.9687C6.67582 10.462 5.5901 10.5344 4.21484 11.2582M16.8093 16.9764L6.60344 6.77056M5.31711 16.072C5.82844 12.6388 7.9468 9.57083 11.2339 7.96379C11.6381 7.75289 12.0508 7.57159 12.4689 7.41887M15.3117 5.95115C15.3117 7.37105 16.1585 8.36053 17.5341 8.36053C18.2661 8.36053 19.0053 8.21996 19.6788 7.37816M15.3117 5.95115C15.3117 4.53126 16.1585 3.55774 17.5341 3.55774C18.9096 3.55774 19.785 4.53126 19.785 5.95115H15.3117Z" stroke="black" stroke-width="1.5" stroke-miterlimit="10" stroke-linecap="round" stroke-linejoin="round"/>
</g>
</svg>
