<svg width="24" height="24" viewBox="0 0 24 24" fill="none" xmlns="http://www.w3.org/2000/svg">
<g id="Sport=diving, Size=24px, weight=light">
<path id="Diving" d="M16.2505 17.8282C15.809 18.905 14.7275 19.6304 13.4811 19.6304H13.0046M16.4425 10.3043V7.33693C16.4425 7.10272 16.8211 6.91302 17.2886 6.91302C17.7561 6.91302 18.1347 7.10272 18.1347 7.33693V17.0869C18.1347 19.428 16.2405 21.3261 13.9041 21.3261H12.9078M5.53714 14.2902C5.61594 13.9277 5.82006 13.0105 5.82006 13.0105C5.90256 12.665 5.92054 12.5198 6.30076 12.3714C6.54772 12.2925 6.86131 12.1923 7.16432 12.1399M11.7889 20.0543C11.7889 20.9908 11.0312 21.75 10.0966 21.75C9.16205 21.75 8.40441 20.9908 8.40441 20.0543C8.40441 19.1178 9.16205 18.3587 10.0966 18.3587C11.0312 18.3587 11.7889 19.1178 11.7889 20.0543ZM15.5964 5.21737C15.5964 5.91973 15.0281 6.48911 14.3272 6.48911C13.6263 6.48911 13.058 5.91973 13.058 5.21737C13.058 4.51501 13.6263 3.94563 14.3272 3.94563C15.0281 3.94563 15.5964 4.51501 15.5964 5.21737ZM20.25 3.94563C20.25 4.64799 19.6818 5.21737 18.9808 5.21737C18.2799 5.21737 17.7117 4.64799 17.7117 3.94563C17.7117 3.24327 18.2799 2.67389 18.9808 2.67389C19.6818 2.67389 20.25 3.24327 20.25 3.94563ZM10.0966 10.3043C11.8967 10.3043 13.6265 10.5417 14.8957 10.9582C15.6138 11.2454 15.8349 12.0466 15.9443 12.5887C16.0538 13.1308 16.1749 13.685 16.3997 14.7369C16.6244 15.7887 15.9348 16.9137 14.9026 17.0928C13.9607 17.2644 13.8402 17.3471 12.893 17.5002C11.9459 17.6534 11.3901 15.8157 10.0961 15.8157C8.80208 15.8157 8.24629 17.6534 7.29917 17.5002C6.35205 17.3471 6.23148 17.2644 5.28965 17.0928C4.25739 16.9137 3.56781 15.7887 3.79256 14.7369C4.01731 13.685 4.13841 13.1308 4.24788 12.5887C4.35734 12.0466 4.57839 11.2454 5.29653 10.9582C6.5657 10.5417 8.29547 10.3043 10.0956 10.3043H10.0966Z" stroke="black" stroke-miterlimit="10" stroke-linecap="round" stroke-linejoin="round"/>
</g>
</svg>
