<svg width="24" height="24" viewBox="0 0 24 24" fill="none" xmlns="http://www.w3.org/2000/svg">
<g id="Sport=snooker, weight=light, Size=24">
<path id="Vector" d="M9.37496 15.984C9.37496 16.7246 8.78734 17.325 8.06248 17.325C7.33762 17.325 6.75 16.7246 6.75 15.984C6.75 15.2434 7.33762 14.643 8.06248 14.643C8.78734 14.643 9.37496 15.2434 9.37496 15.984ZM9.37496 15.984C9.37496 16.7246 9.96275 17.325 10.6876 17.325C11.4125 17.325 12.0001 16.7246 12.0001 15.984M9.37496 15.984C9.37496 15.2434 9.96275 14.643 10.6876 14.643C11.4125 14.643 12.0001 15.2434 12.0001 15.984M10.6875 13.6175C10.6875 14.3581 10.0999 14.9585 9.37505 14.9585C8.65018 14.9585 8.06256 14.3581 8.06256 13.6175C8.06256 12.8768 8.65018 12.2764 9.37505 12.2764C10.0999 12.2764 10.6875 12.8768 10.6875 13.6175ZM10.6875 13.6175C10.6875 14.3581 11.2751 14.9585 12 14.9585C12.7249 14.9585 13.3125 14.3581 13.3125 13.6175M10.6875 13.6175C10.6875 12.8768 11.2751 12.2764 12 12.2764C12.7249 12.2764 13.3125 12.8768 13.3125 13.6175M13.3125 13.6175C13.3125 14.3581 13.9001 14.9585 14.625 14.9585C15.3498 14.9585 15.9374 14.3581 15.9374 13.6175C15.9374 12.8768 15.3498 12.2764 14.625 12.2764C13.9001 12.2764 13.3125 12.8768 13.3125 13.6175ZM12.0001 11.2667C12.0001 12.0074 11.4125 12.6078 10.6876 12.6078C9.96275 12.6078 9.37513 12.0074 9.37513 11.2667C9.37513 10.5261 9.96275 9.92571 10.6876 9.92571C11.4125 9.92571 12.0001 10.5261 12.0001 11.2667ZM12.0001 11.2667C12.0001 12.0074 12.5877 12.6078 13.3126 12.6078C14.0374 12.6078 14.625 12.0074 14.625 11.2667C14.625 10.5261 14.0374 9.92571 13.3126 9.92571C12.5877 9.92571 12.0001 10.5261 12.0001 11.2667ZM12.0001 15.984C12.0001 16.7246 12.5877 17.325 13.3126 17.325C14.0374 17.325 14.625 16.7246 14.625 15.984M12.0001 15.984C12.0001 15.2434 12.5877 14.643 13.3126 14.643C14.0374 14.643 14.625 15.2434 14.625 15.984M14.625 15.984C14.625 16.7246 15.2127 17.325 15.9375 17.325C16.6624 17.325 17.25 16.7246 17.25 15.984C17.25 15.2434 16.6624 14.643 15.9375 14.643C15.2127 14.643 14.625 15.2434 14.625 15.984ZM13.3125 8.91602C13.3125 9.65665 12.7249 10.257 12 10.257C11.2751 10.257 10.6875 9.65665 10.6875 8.91602C10.6875 8.1754 11.2751 7.575 12 7.575C12.7249 7.575 13.3125 8.1754 13.3125 8.91602ZM6.37429 18.75H17.6188C18.2935 18.75 18.912 18.3957 19.2493 17.799C19.5866 17.2023 19.5866 16.5124 19.2306 15.9344L13.4396 6.07044C13.1398 5.54834 12.5963 5.25 11.9966 5.25C11.3969 5.25 10.8534 5.54834 10.5535 6.07044L4.76257 15.9344C4.42523 16.5124 4.40649 17.221 4.74383 17.8177C5.08116 18.3957 5.69961 18.75 6.37429 18.75Z" stroke="black" stroke-miterlimit="10" stroke-linecap="round" stroke-linejoin="round"/>
</g>
</svg>
