<svg width="32" height="32" viewBox="0 0 32 32" fill="none" xmlns="http://www.w3.org/2000/svg">
<g id="Sport=horse-racing, weight=regular, Size=32">
<path id="horse-racing" d="M16.247 13.3087C15.4379 14.6288 15.2685 16.1827 15.7023 17.5159C16.1465 18.979 17.2484 20.0854 18.6679 20.6708C19.5127 21.0161 20.2381 21.5036 20.7547 22.24L21.1312 22.8588C21.5076 23.4776 21.5038 23.8379 21.7558 24.5339L22.807 25.4159L25.5233 24.2424C25.371 19.0868 24.5804 14.629 23.2903 9.54844M21.8828 20.8242C20.4013 21.0955 18.9832 20.9353 17.8529 20.2898M16.7226 26.1493C15.2959 23.4377 15.3506 21.2795 16.7226 19.6443M23.2803 9.48937L25.0708 7.20451L24.8984 7.05991C24.6187 6.8252 24.2981 6.64187 23.9473 6.54048C18.8016 5.05314 12.9911 6.65666 9.27109 11.09C7.57091 13.1162 6.52084 15.5062 6.12988 17.9646M17.1171 6.90621L19.3164 20.6513M7.53268 13.845C8.08248 17.6936 11.6826 21.3692 15.5571 22.2808M20.8285 14.5482C21.1233 14.7956 21.5626 14.7574 21.8097 14.4629C22.0568 14.1684 22.0182 13.7292 21.7234 13.4818C21.4286 13.2344 20.9893 13.2726 20.7422 13.5671C20.4951 13.8616 20.5338 14.3009 20.8285 14.5482Z" stroke="black" stroke-width="1.5" stroke-miterlimit="10" stroke-linecap="round" stroke-linejoin="round"/>
</g>
</svg>
