<svg width="16" height="16" viewBox="0 0 16 16" fill="none" xmlns="http://www.w3.org/2000/svg">
<g id="Sport=baseball, weight=light, Size=16">
<path id="baseball" d="M9.21979 7.60531L10.141 7.30637M9.81691 8.76195L10.5955 8.19457M10.7332 9.70414L11.3076 8.90681M9.21221 5.01823L10.1399 5.30964M9.01799 6.30307L9.98138 6.30519M6.77756 8.39775L5.82282 8.70756M6.98956 9.73492L5.98723 9.72692M6.77811 11.0798L5.82282 10.7604M5.20329 6.22674L4.61216 7.0295M6.15791 7.17449L5.35125 7.76948M11.613 4.91655C13.316 6.91197 13.0789 9.91009 11.0834 11.613C9.08803 13.316 6.08991 13.0789 4.38697 11.0834C2.68403 9.08803 2.92113 6.08991 4.91655 4.38697C6.91197 2.68403 9.91009 2.92113 11.613 4.91655Z" stroke="black" stroke-miterlimit="10" stroke-linecap="round" stroke-linejoin="round"/>
</g>
</svg>
