<svg width="24" height="24" viewBox="0 0 24 24" fill="none" xmlns="http://www.w3.org/2000/svg">
<g id="Sport=zed-run, weight=regular, Size=24">
<path id="zed-run" d="M6 9.32815C5.58579 9.32815 5.25 9.66393 5.25 10.0781C5.25 10.4924 5.58579 10.8281 6 10.8281V9.32815ZM8.70298 10.4324L9.34843 10.8144L9.34843 10.8144L8.70298 10.4324ZM6.20964 14.6457L6.85509 15.0277L6.85509 15.0277L6.20964 14.6457ZM8.91262 15.75C9.32683 15.75 9.66262 15.4142 9.66262 15C9.66262 14.5858 9.32683 14.25 8.91262 14.25V15.75ZM18.75 7.5C18.75 7.08579 18.4142 6.75 18 6.75C17.5858 6.75 17.25 7.08579 17.25 7.5H18.75ZM10.6602 9.32815C10.2459 9.32815 9.91016 9.66393 9.91016 10.0781C9.91016 10.4924 10.2459 10.8281 10.6602 10.8281V9.32815ZM13.6893 10.8281C14.1035 10.8281 14.4393 10.4924 14.4393 10.0781C14.4393 9.66393 14.1035 9.32815 13.6893 9.32815V10.8281ZM10.6602 11.7891C10.2459 11.7891 9.91016 12.1249 9.91016 12.5391C9.91016 12.9533 10.2459 13.2891 10.6602 13.2891V11.7891ZM13.6893 13.2891C14.1035 13.2891 14.4393 12.9533 14.4393 12.5391C14.4393 12.1249 14.1035 11.7891 13.6893 11.7891V13.2891ZM10.6602 14.25C10.2459 14.25 9.91016 14.5858 9.91016 15C9.91016 15.4142 10.2459 15.75 10.6602 15.75V14.25ZM13.6893 15.75C14.1035 15.75 14.4393 15.4142 14.4393 15C14.4393 14.5858 14.1035 14.25 13.6893 14.25V15.75ZM6 10.8281H8.50276V9.32815H6V10.8281ZM8.05753 10.0504L5.56419 14.2638L6.85509 15.0277L9.34843 10.8144L8.05753 10.0504ZM6.40986 15.75H8.91262V14.25H6.40986V15.75ZM5.56419 14.2638C5.17977 14.9134 5.64054 15.75 6.40986 15.75V14.25C6.81768 14.25 7.0546 14.6905 6.85509 15.0277L5.56419 14.2638ZM8.50276 10.8281C8.09494 10.8281 7.85802 10.3876 8.05753 10.0504L9.34843 10.8144C9.73285 10.1648 9.27208 9.32815 8.50276 9.32815V10.8281ZM17.25 7.5V14.5312H18.75V7.5H17.25ZM17.534 14.2499H15.6699V15.7499H17.534V14.2499ZM15.9539 14.5312V10.5468H14.4539V14.5312H15.9539ZM15.6699 10.8281H17.8835V9.3281H15.6699V10.8281ZM15.9539 10.5468C15.9539 10.698 15.8309 10.8281 15.6699 10.8281V9.3281C14.9942 9.3281 14.4539 9.87788 14.4539 10.5468H15.9539ZM15.6699 14.2499C15.8309 14.2499 15.9539 14.38 15.9539 14.5312H14.4539C14.4539 15.2001 14.9942 15.7499 15.6699 15.7499V14.2499ZM17.25 14.5312C17.25 14.38 17.373 14.2499 17.534 14.2499V15.7499C18.2097 15.7499 18.75 15.2001 18.75 14.5312H17.25ZM10.6602 10.8281H13.6893V9.32815H10.6602V10.8281ZM10.6602 13.2891H13.6893V11.7891H10.6602V13.2891ZM10.6602 15.75H13.6893V14.25H10.6602V15.75Z" fill="black"/>
<rect id="Rectangle 896" x="3" y="3" width="18" height="18" rx="4" stroke="black" stroke-width="1.5"/>
</g>
</svg>
