<svg width="24" height="24" viewBox="0 0 24 24" fill="none" xmlns="http://www.w3.org/2000/svg">
<g id="Sport=motor, weight=light, Size=24">
<path id="Vector" d="M12.0058 8.38V9.03509M9.71516 9.00579L10.0361 9.57181M8.03892 10.7132L8.5946 11.0402M7.42456 13.0464H8.06768M8.03892 15.3785L8.5946 15.0515M15.9726 15.3785L15.4158 15.0515M16.5858 13.0464H15.9427M15.9726 10.7132L15.4158 11.0402M14.2952 9.00579L13.9742 9.57181M13.789 11.2288L12.6362 12.4031M12.6362 12.4031C12.9849 12.7582 12.9855 13.3342 12.6369 13.6893C12.2882 14.0444 11.723 14.0444 11.3743 13.6893C11.0257 13.3342 11.0257 12.7584 11.3743 12.4032C11.723 12.0481 12.2876 12.0479 12.6362 12.4031ZM15.0292 18.975L13.5589 16.4554H10.4515L8.98115 18.975M14.0927 17.3707H16.6594C17.4824 16.4515 18.0254 15.3084 18.2222 14.0806C18.4191 12.8527 18.2613 11.5931 17.7681 10.455C17.2749 9.31684 16.4675 8.34927 15.4442 7.67003C14.421 6.99078 13.226 6.62915 12.0046 6.62915C10.7832 6.62915 9.58821 6.99078 8.56495 7.67003C7.54169 8.34927 6.73433 9.31684 6.24112 10.455C5.74791 11.5931 5.59012 12.8527 5.78695 14.0806C5.98379 15.3084 6.52676 16.4515 7.34978 17.3707H9.91764M17.3048 18.975C18.4789 17.885 19.3019 16.4587 19.6657 14.8836C20.0295 13.3084 19.9171 11.658 19.3433 10.1491C18.7695 8.64025 17.7612 7.34339 16.4506 6.42889C15.14 5.51438 13.5886 5.02499 12 5.02499C10.4114 5.02499 8.85997 5.51438 7.54941 6.42889C6.23885 7.34339 5.23046 8.64025 4.65666 10.1491C4.08286 11.658 3.97049 13.3084 4.3343 14.8836C4.69811 16.4587 5.52109 17.885 6.69516 18.975H17.3048Z" stroke="black" stroke-linecap="round" stroke-linejoin="round"/>
</g>
</svg>
