<svg width="16" height="16" viewBox="0 0 16 16" fill="none" xmlns="http://www.w3.org/2000/svg">
<g id="Sport=badminton, weight=regular, Size=16">
<path id="badminton" d="M6.78122 4.36552L5.91899 3.50085C5.76022 3.34206 5.57173 3.2161 5.36427 3.13017C5.15682 3.04423 4.93447 3 4.70992 3C4.48537 3 4.26302 3.04423 4.05557 3.13017C3.84811 3.2161 3.65962 3.34206 3.50085 3.50085C3.34206 3.65962 3.2161 3.84812 3.13017 4.05557C3.04423 4.26303 3 4.48537 3 4.70992C3 4.93447 3.04423 5.15682 3.13017 5.36427C3.2161 5.57173 3.34206 5.76022 3.50085 5.91899L4.36552 6.78366L6.78122 4.36552ZM6.78122 4.36552L12.4822 7.30149L13 8.51056L11.4465 8.33714M11.4465 8.33714L11.6175 9.89061H9.89061M11.4465 8.33714L9.19936 6.78366M9.89061 9.89061V11.6175L8.33714 11.4465M9.89061 9.89061L7.99273 7.99029M8.33714 11.4465L8.51056 13L7.12807 12.3088L4.36552 6.78122M8.33714 11.4465L6.78366 9.19936M9.20181 5.74557V6.78122H7.81931L7.99029 7.99029L6.78122 7.81931L6.78366 9.20181L5.57459 9.02838M7.81931 6.78366L5.91899 5.22775M6.78366 7.81931L5.22775 5.91899" stroke="black" stroke-width="1.5" stroke-linecap="round" stroke-linejoin="round"/>
</g>
</svg>
