<svg width="16" height="16" viewBox="0 0 16 16" fill="none" xmlns="http://www.w3.org/2000/svg">
<g id="Sport=biathlon, Size=16px, weight=regular">
<path id="Vector" d="M3 3.5H12C12.5523 3.5 13 3.94772 13 4.5V9.5C13 10.0523 12.5523 10.5 12 10.5H3M8 7C8 7.55228 7.55228 8 7 8C6.44772 8 6 7.55228 6 7C6 6.44772 6.44772 6 7 6C7.55228 6 8 6.44772 8 7ZM5 7C5 7.55228 4.55228 8 4 8C3.44772 8 3 7.55228 3 7C3 6.44772 3.44772 6 4 6C4.55228 6 5 6.44772 5 7ZM11 7C11 7.55228 10.5523 8 10 8C9.44772 8 9 7.55228 9 7C9 6.44772 9.44772 6 10 6C10.5523 6 11 6.44772 11 7ZM9.66666 10.5H10.9167V13.4167C10.9167 13.6468 10.7301 13.8333 10.5 13.8333H10.0833C9.8532 13.8333 9.66666 13.6468 9.66666 13.4167V10.5Z" stroke="black" stroke-width="1.5" stroke-miterlimit="10" stroke-linecap="round" stroke-linejoin="round"/>
</g>
</svg>
