<svg width="24" height="24" viewBox="0 0 24 24" fill="none" xmlns="http://www.w3.org/2000/svg">
<g id="Sport=curling, Size=24px, weight=light">
<g id="Vector">
<path d="M16.6957 19.5H7.30435C4.92913 19.5 3 17.598 3 15.2562C3 12.9144 4.92913 11.0123 7.30435 11.0123H16.6957C19.0709 11.0123 21 12.9144 21 15.2562C21 17.598 19.0709 19.5 16.6957 19.5Z" stroke="black" stroke-miterlimit="10" stroke-linecap="round" stroke-linejoin="round"/>
<path d="M16.003 6.58719C15.5883 5.33719 14.4143 4.5 13.0839 4.5H9.6013C8.85 4.5 8.23565 5.10185 8.23565 5.84645C8.23565 6.59105 8.85 7.1929 9.6013 7.1929H12.8452C13.127 7.1929 13.6083 7.24691 13.6435 7.85648C13.6787 8.46605 13.1309 8.50077 12.8452 8.50077H8.74826C7.52348 8.50077 6.52957 9.18364 6.52957 10.3912V11.0123H17.3257L16.003 6.58719Z" stroke="black" stroke-miterlimit="10" stroke-linecap="round" stroke-linejoin="round"/>
</g>
</g>
</svg>
