<svg width="24" height="24" viewBox="0 0 24 24" fill="none" xmlns="http://www.w3.org/2000/svg">
<g id="Sport=esport-generic, weight=regular, Size=24">
<path id="e-sports" d="M8.25881 9.44726V10.9267M8.25881 10.9267V12.4059M8.25881 10.9267H6.84095M8.25881 10.9267H9.67668M17.1996 18C16.4482 18 15.7489 17.6123 15.3282 16.9624L15.2478 16.8375C14.5938 15.827 13.5049 15.2233 12.3356 15.2233H11.6644C10.4951 15.2233 9.40656 15.827 8.75224 16.8378L8.67176 16.9624C8.25177 17.6123 7.5518 18 6.80044 18C6.08592 18 5.40658 17.6419 4.98288 17.0418L4.93993 16.9811C4.65251 16.5736 4.5 16.0906 4.5 15.5843V14.7858C4.5 12.1997 5.05457 9.59485 6.10317 7.2525C6.44369 6.49183 7.1839 6 7.98869 6H8.20173C8.78808 6 9.35009 6.25967 9.74369 6.71304C9.96315 6.96566 10.2766 7.11067 10.6033 7.11067H13.3971C13.7237 7.11067 14.0368 6.96566 14.2563 6.71304C14.6499 6.25967 15.2119 6 15.7986 6H16.0113C16.8164 6 17.5567 6.49183 17.8972 7.2525C18.9458 9.5952 19.5 12.2 19.5 14.7858V15.5843C19.5 16.0906 19.3478 16.5736 19.0601 16.9814L19.0171 17.0421C18.5934 17.6419 17.9141 18 17.1996 18ZM12.3954 13.2995C12.3954 13.5274 12.2183 13.7121 11.9999 13.7121C11.7817 13.7121 11.6046 13.5274 11.6046 13.2995C11.6046 13.0716 11.7817 12.8868 11.9999 12.8868C12.2183 12.8868 12.3954 13.0716 12.3954 13.2995ZM16.1954 9.63472C16.1954 9.83337 16.0411 9.99439 15.8507 9.99439C15.6605 9.99439 15.5062 9.83337 15.5062 9.63472C15.5062 9.43607 15.6605 9.27505 15.8507 9.27505C16.0411 9.27505 16.1954 9.43607 16.1954 9.63472ZM16.1954 12.2183C16.1954 12.4169 16.0411 12.5779 15.8507 12.5779C15.6605 12.5779 15.5062 12.4169 15.5062 12.2183C15.5062 12.0196 15.6605 11.8586 15.8507 11.8586C16.0411 11.8586 16.1954 12.0196 16.1954 12.2183ZM14.8996 10.9266C14.8996 11.1252 14.7453 11.2863 14.5549 11.2863C14.3647 11.2863 14.2104 11.1252 14.2104 10.9266C14.2104 10.7279 14.3647 10.5669 14.5549 10.5669C14.7453 10.5669 14.8996 10.7279 14.8996 10.9266ZM17.4433 10.9266C17.4433 11.1252 17.2889 11.2863 17.0986 11.2863C16.9084 11.2863 16.754 11.1252 16.754 10.9266C16.754 10.7279 16.9084 10.5669 17.0986 10.5669C17.2889 10.5669 17.4433 10.7279 17.4433 10.9266Z" stroke="black" stroke-width="1.5" stroke-linecap="round" stroke-linejoin="round"/>
</g>
</svg>
