<svg width="24" height="24" viewBox="0 0 24 24" fill="none" xmlns="http://www.w3.org/2000/svg">
<g id="Sport=baseball, Size=24px, weight=light">
<path id="baseball" d="M13.8297 11.408L15.2116 10.9596M14.7254 13.1429L15.8933 12.2919M16.0998 14.5562L16.9614 13.3602M13.8183 7.52735L15.2098 7.96446M13.527 9.45461L14.9721 9.45778M10.1663 12.5966L8.73423 13.0613M10.4843 14.6024L8.98085 14.5904M10.1672 16.6198L8.73423 16.1405M7.80494 9.34011L6.91824 10.5443M9.23687 10.7617L8.02688 11.6542M17.4195 7.37483C19.974 10.368 19.6183 14.8651 16.6252 17.4195C13.632 19.974 9.13487 19.6183 6.58046 16.6252C4.02604 13.632 4.3817 9.13487 7.37483 6.58046C10.368 4.02604 14.8651 4.3817 17.4195 7.37483Z" stroke="black" stroke-miterlimit="10" stroke-linecap="round" stroke-linejoin="round"/>
</g>
</svg>
