<svg width="24" height="24" viewBox="0 0 24 24" fill="none" xmlns="http://www.w3.org/2000/svg">
<g id="Sport=golf, weight=light, Size=24">
<path id="golf" d="M9.74962 17.4867L12.1951 21L14.3059 17.4671M16.2616 7.95734C15.8279 7.6434 15.2168 7.68265 14.8422 8.05545C14.4479 8.44788 14.4085 9.05614 14.7436 9.46819M13.3638 10.8221C12.9301 10.5082 12.319 10.5474 11.9444 10.9202C11.5501 11.3127 11.5107 11.9209 11.8458 12.333M10.4856 13.7064C10.0519 13.3925 9.44074 13.4317 9.06617 13.8045C8.67189 14.1969 8.63246 14.8052 8.9676 15.2172M9.78176 7.25676C9.34805 6.94282 8.73692 6.98206 8.36235 7.35487C7.96807 7.7473 7.92864 8.35556 8.26378 8.76761M9.48227 10.7403C9.04856 10.4264 8.43743 10.4656 8.06286 10.8385C7.66858 11.2309 7.62915 11.8391 7.96429 12.2512M11.4142 8.81757C11.0988 8.3859 11.1382 7.77764 11.5128 7.40484C11.907 7.01241 12.5182 6.97317 12.9322 7.30673M12.14 4.12645C15.95 4.20363 18.9757 7.34026 18.8981 11.1323C18.8206 14.9243 15.6692 17.9358 11.8592 17.8587C8.04924 17.7815 5.02352 14.6448 5.10107 10.8528C5.17861 7.06076 8.33006 4.04927 12.14 4.12645Z" stroke="black" stroke-miterlimit="10" stroke-linecap="round" stroke-linejoin="round"/>
</g>
</svg>
