<svg width="24" height="24" viewBox="0 0 24 24" fill="none" xmlns="http://www.w3.org/2000/svg">
<g id="Sport=formula-e, Size=24px, weight=light">
<g id="formula-e">
<path d="M3 13.3001C3.02192 13.1583 3.09941 13.0963 3.15804 13.0259C4.46265 11.4669 6.11852 10.6977 8.11239 10.6966C11.4593 10.6951 10.6767 10.6945 14.0231 10.6935C15.1529 10.6935 16.2826 10.6961 17.4124 10.6919C17.9268 10.6903 18.3601 10.2999 18.4208 9.79921C18.4743 9.35627 18.2235 9.02315 17.7947 8.97533C17.6856 8.96325 17.574 8.96798 17.4639 8.96798C14.1001 8.96798 10.7364 8.96798 7.37265 8.96798H7.07135C7.03669 8.85343 7.11826 8.81035 7.16516 8.75833C8.51565 7.24037 10.1552 6.37026 12.1883 6.37551C14.2016 6.38024 16.2148 6.36921 18.2281 6.37972C19.6137 6.38707 20.6925 7.29449 20.9408 8.64326C21.0927 9.46819 20.9484 10.2563 20.5533 10.9777C19.7381 12.4652 18.5156 13.2975 16.8271 13.2986C10.9403 13.3033 9.1835 13.3007 3.29671 13.3007H3V13.3001Z" stroke="black" stroke-miterlimit="10" stroke-linecap="round" stroke-linejoin="round"/>
<path d="M20.9571 15.0561C20.7894 15.3199 20.5798 15.5243 20.3688 15.7239C19.0662 16.9592 17.551 17.6323 15.757 17.6249C12.3341 17.6113 13.5505 17.6223 10.1277 17.6197C8.82204 17.6186 7.67599 17.1967 6.74762 16.2236C6.46621 15.9283 6.24087 15.5905 6.04816 15.2269C5.95843 15.0577 6.0084 15.0104 6.17459 15.0214C6.23373 15.0251 6.29338 15.0214 6.35303 15.0214C12.6553 15.0214 14.3183 15.0214 20.6206 15.0225C20.7272 15.0225 20.8383 15.0015 20.9571 15.0556V15.0561Z" stroke="black" stroke-miterlimit="10" stroke-linecap="round" stroke-linejoin="round"/>
</g>
</g>
</svg>
