<svg width="24" height="24" viewBox="0 0 24 24" fill="none" xmlns="http://www.w3.org/2000/svg">
<g id="Sport=mma, Size=24px, weight=light">
<path id="mma" d="M9.47977 10.1052L4.66994 7.58203C4.18394 7.33445 3.98661 6.73269 4.22794 6.2341C4.46927 5.7355 5.05583 5.53306 5.54183 5.78064L10.7279 8.49548C10.7279 8.49548 11.5373 12.5568 9.10438 16.0491M8.69481 6.47741C8.56874 6.1726 8.56777 5.81121 8.72346 5.48953C8.98036 4.95877 9.41058 4.83709 9.73948 4.88434C9.77862 4.88423 9.7943 4.89221 9.82565 4.90819C10.1625 4.97951 10.4604 5.1714 10.6804 5.44383C11.0808 5.90849 11.9285 6.74129 13.3467 7.24322C14.1694 7.52196 14.5464 7.95456 14.9868 8.74034C15.2543 9.23749 15.5612 9.81485 15.8054 10.4004C15.8054 10.4004 16.2395 11.7243 17.2743 12.2514L19.875 13.5418M8.07459 11.6351L4.82734 9.98088C4.34134 9.7333 4.14401 9.13154 4.38534 8.63295L4.7927 7.79131M6.86576 13.2447L5.0882 12.3391C4.60219 12.0916 4.40487 11.4898 4.6462 10.9912L5.06506 10.1258M17.5769 19.125L14.7999 17.7274C13.2163 16.8807 12.8405 16.8496 12.8405 16.8496C12.8405 16.8496 12.4097 16.7304 11.8144 16.6276C9.9741 16.3518 8.52484 15.9544 6.83966 15.156L5.60941 14.5293C5.1234 14.2818 4.76589 13.5984 5.00721 13.0998L5.31575 12.4623M19.1661 13.2261L16.5582 18.6142M12.3479 8.72226C12.5489 8.22612 12.9167 7.53843 14.0593 7.67948" stroke="black" stroke-miterlimit="10" stroke-linecap="round" stroke-linejoin="round"/>
</g>
</svg>
