<svg width="16" height="16" viewBox="0 0 16 16" fill="none" xmlns="http://www.w3.org/2000/svg">
<g id="Sport=curling, Size=16px, weight=regular">
<g id="Vector">
<path d="M11.1304 13H4.86957C3.28609 13 2 11.732 2 10.1708C2 8.60957 3.28609 7.34156 4.86957 7.34156H11.1304C12.7139 7.34156 14 8.60957 14 10.1708C14 11.732 12.7139 13 11.1304 13Z" stroke="black" stroke-width="1.5" stroke-miterlimit="10" stroke-linecap="round" stroke-linejoin="round"/>
<path d="M10.6687 4.39146C10.3922 3.55813 9.60957 3 8.72261 3H6.40087C5.9 3 5.49043 3.40123 5.49043 3.89763C5.49043 4.39403 5.9 4.79527 6.40087 4.79527H8.56348C8.7513 4.79527 9.07217 4.83128 9.09565 5.23765C9.11913 5.64403 8.75391 5.66718 8.56348 5.66718H5.83217C5.01565 5.66718 4.35304 6.12243 4.35304 6.92747V7.34156H11.5504L10.6687 4.39146Z" stroke="black" stroke-width="1.5" stroke-miterlimit="10" stroke-linecap="round" stroke-linejoin="round"/>
</g>
</g>
</svg>
