<svg width="32" height="32" viewBox="0 0 32 32" fill="none" xmlns="http://www.w3.org/2000/svg">
<g id="Sport=horse-racing, stroke width=1px">
<path id="horse-racing" d="M16.2465 13.3087C15.4374 14.6288 15.268 16.1827 15.7018 17.5159C16.146 18.979 17.2479 20.0854 18.6674 20.6708C19.5122 21.0161 20.2376 21.5036 20.7542 22.24L21.1307 22.8588C21.5071 23.4776 21.5034 23.8379 21.7553 24.5339L22.8065 25.4159L25.5228 24.2424C25.3706 19.0868 24.5799 14.629 23.2898 9.54844M21.8823 20.8242C20.4008 21.0955 18.9827 20.9353 17.8524 20.2898M16.7222 26.1493C15.2954 23.4377 15.3501 21.2795 16.7222 19.6443M23.2798 9.48937L25.0703 7.20451L24.8979 7.05991C24.6182 6.8252 24.2977 6.64187 23.9469 6.54048C18.8011 5.05314 12.9906 6.65666 9.27061 11.09C7.57042 13.1162 6.52036 15.5062 6.12939 17.9646M17.1167 6.90621L19.3159 20.6513M7.53219 13.845C8.08199 17.6936 11.6821 21.3692 15.5566 22.2808M20.8281 14.5482C21.1229 14.7956 21.5622 14.7574 21.8093 14.4629C22.0564 14.1684 22.0177 13.7292 21.7229 13.4818C21.4281 13.2344 20.9888 13.2726 20.7417 13.5671C20.4946 13.8616 20.5333 14.3009 20.8281 14.5482Z" stroke="black" stroke-miterlimit="10" stroke-linecap="round" stroke-linejoin="round"/>
</g>
</svg>
