<svg width="24" height="24" viewBox="0 0 24 24" fill="none" xmlns="http://www.w3.org/2000/svg">
<g id="Sport=fencing, weight=light, Size=24">
<path id="fencing" d="M13.8214 9.99547L19.9508 3.75M12.9541 10.8759L14.5674 9.23282M8.78789 15.1191L11.9422 11.9065M7.45216 17.5778L4.99755 20.0777C4.77203 20.3074 4.40485 20.3074 4.17934 20.0777L3.91913 19.8127C3.69362 19.583 3.69362 19.2091 3.91913 18.9794L5.52374 17.3452M15.2092 15.1191L4.04924 3.75M17.6262 16.4795L20.0809 18.9794C20.3064 19.2091 20.3064 19.583 20.0809 19.8127L19.8207 20.0777C19.5951 20.3074 19.228 20.3074 19.0025 20.0777L17.3603 18.4052M8.79078 15.1191C9.97617 16.3263 10.0282 17.6367 9.14929 19.1296L4.85299 14.7539C6.31593 13.8588 7.6054 13.9118 8.79078 15.1191ZM15.2121 15.1191C16.3975 13.9118 17.6841 13.8588 19.1499 14.7539L14.8536 19.1296C13.9747 17.6396 14.0238 16.3263 15.2121 15.1191Z" stroke="black" stroke-miterlimit="10" stroke-linecap="round" stroke-linejoin="round"/>
</g>
</svg>
