<svg width="16" height="16" viewBox="0 0 16 16" fill="none" xmlns="http://www.w3.org/2000/svg">
<g id="Sport=zed-run, weight=light, Size=16">
<path id="zed-run" d="M4 6.21876C3.72386 6.21876 3.5 6.44262 3.5 6.71876C3.5 6.99491 3.72386 7.21876 4 7.21876V6.21876ZM5.80199 6.95493L6.23229 7.20957L5.80199 6.95493ZM4.13976 9.76382L4.57006 10.0185L4.57006 10.0185L4.13976 9.76382ZM5.94175 10.5C6.21789 10.5 6.44175 10.2761 6.44175 9.99998C6.44175 9.72384 6.21789 9.49998 5.94175 9.49998V10.5ZM12.5 5C12.5 4.72386 12.2761 4.5 12 4.5C11.7239 4.5 11.5 4.72386 11.5 5H12.5ZM7.10677 6.21876C6.83063 6.21876 6.60677 6.44262 6.60677 6.71876C6.60677 6.99491 6.83063 7.21876 7.10677 7.21876V6.21876ZM9.12619 7.21876C9.40233 7.21876 9.62619 6.99491 9.62619 6.71876C9.62619 6.44262 9.40233 6.21876 9.12619 6.21876V7.21876ZM7.10677 7.85938C6.83063 7.85938 6.60677 8.08324 6.60677 8.35938C6.60677 8.63552 6.83063 8.85938 7.10677 8.85938V7.85938ZM9.12619 8.85938C9.40233 8.85938 9.62619 8.63552 9.62619 8.35938C9.62619 8.08324 9.40233 7.85938 9.12619 7.85938V8.85938ZM7.10677 9.5C6.83063 9.5 6.60677 9.72386 6.60677 10C6.60677 10.2761 6.83063 10.5 7.10677 10.5V9.5ZM9.12619 10.5C9.40233 10.5 9.62619 10.2761 9.62619 10C9.62619 9.72386 9.40233 9.5 9.12619 9.5V10.5ZM4 7.21876H5.66851V6.21876H4V7.21876ZM5.37169 6.70029L3.70946 9.50917L4.57006 10.0185L6.23229 7.20957L5.37169 6.70029ZM4.27324 10.5H5.94175V9.49998H4.27324V10.5ZM3.70946 9.50917C3.45318 9.94224 3.76036 10.5 4.27324 10.5V9.49998C4.54512 9.49998 4.70307 9.79369 4.57006 10.0185L3.70946 9.50917ZM5.66851 7.21876C5.39663 7.21876 5.23868 6.92506 5.37169 6.70029L6.23229 7.20957C6.48857 6.7765 6.18139 6.21876 5.66851 6.21876V7.21876ZM11.5 5V9.68746H12.5V5H11.5ZM11.6893 9.49995H10.4466V10.5H11.6893V9.49995ZM10.6359 9.68746V7.03123H9.63592V9.68746H10.6359ZM10.4466 7.21873H11.9223V6.21873H10.4466V7.21873ZM10.6359 7.03123C10.6359 7.13203 10.5539 7.21873 10.4466 7.21873V6.21873C9.99613 6.21873 9.63592 6.58525 9.63592 7.03123H10.6359ZM10.4466 9.49995C10.5539 9.49995 10.6359 9.58665 10.6359 9.68746H9.63592C9.63592 10.1334 9.99613 10.5 10.4466 10.5V9.49995ZM11.5 9.68746C11.5 9.58665 11.582 9.49995 11.6893 9.49995V10.5C12.1398 10.5 12.5 10.1334 12.5 9.68746H11.5ZM7.10677 7.21876H9.12619V6.21876H7.10677V7.21876ZM7.10677 8.85938H9.12619V7.85938H7.10677V8.85938ZM7.10677 10.5H9.12619V9.5H7.10677V10.5Z" fill="black"/>
<rect id="Rectangle 896" x="2" y="2" width="12" height="12" rx="4" stroke="black"/>
</g>
</svg>
