<svg width="32" height="32" viewBox="0 0 32 32" fill="none" xmlns="http://www.w3.org/2000/svg">
<g id="Sport=specials, stroke width=1.5px">
<path id="specials" d="M15.8396 26L19.5545 23.5348L24 23.8043L21.6495 17.0932M19.4284 23.4485L18.0832 19.5236M15.7555 25.9912L12.4455 23.7955L8 24.065L10.3753 16.4295M12.6352 23.7578L13.8585 19.2566M22.9318 12.8253C22.9318 16.5947 19.8903 19.6505 16.1384 19.6505C12.3865 19.6505 9.34502 16.5947 9.34502 12.8253C9.34502 9.05577 12.3865 6 16.1384 6C19.8903 6 22.9318 9.05577 22.9318 12.8253ZM14.268 12.8254C14.268 13.0526 14.0847 13.2368 13.8585 13.2368C13.6324 13.2368 13.449 13.0526 13.449 12.8254C13.449 12.5982 13.6324 12.414 13.8585 12.414C14.0847 12.414 14.268 12.5982 14.268 12.8254ZM16.5119 12.8254C16.5119 13.0526 16.3285 13.2368 16.1024 13.2368C15.8762 13.2368 15.6929 13.0526 15.6929 12.8254C15.6929 12.5982 15.8762 12.414 16.1024 12.414C16.3285 12.414 16.5119 12.5982 16.5119 12.8254ZM18.7558 12.8254C18.7558 13.0526 18.5725 13.2368 18.3463 13.2368C18.1201 13.2368 17.9368 13.0526 17.9368 12.8254C17.9368 12.5982 18.1201 12.414 18.3463 12.414C18.5725 12.414 18.7558 12.5982 18.7558 12.8254Z" stroke="black" stroke-width="1.5" stroke-miterlimit="10" stroke-linecap="round" stroke-linejoin="round"/>
</g>
</svg>
