<svg width="16" height="16" viewBox="0 0 16 16" fill="none" xmlns="http://www.w3.org/2000/svg">
<g id="Sport=rugby, Size=16px, weight=regular">
<path id="rugby" d="M3.42141 9.23618C4.26726 10.5922 5.40656 11.7323 6.76164 12.5787M5.92259 8.1069C5.30405 9.07896 5.14608 10.0294 5.60593 10.483C6.06941 10.9402 7.02899 10.763 8.00032 10.1189M9.22961 3.42349C10.5847 4.26991 11.724 5.40999 12.5698 6.766M8.25239 5.9146C9.16277 5.36197 10.0372 5.23093 10.473 5.66082C10.898 6.08006 10.7953 6.92372 10.2889 7.81659M6.76152 9.23456L9.09941 6.9412M4.03401 12.6305C4.8367 12.7946 6.49387 12.9414 8.4445 11.9741C9.9722 11.214 11.2151 9.97031 11.9746 8.44157C12.9413 6.49825 12.7946 4.83995 12.6306 4.02808C12.5615 3.69124 12.3026 3.43213 11.966 3.36303C11.1547 3.20756 9.49749 3.06074 7.5555 4.02808C6.0278 4.78813 4.78492 6.03185 4.02538 7.5606C3.0587 9.50392 3.20543 11.1622 3.36942 11.9741C3.43847 12.3023 3.6974 12.5614 4.03401 12.6305Z" stroke="black" stroke-width="1.5" stroke-miterlimit="10" stroke-linecap="round" stroke-linejoin="round"/>
</g>
</svg>
