<svg width="24" height="24" viewBox="0 0 24 24" fill="none" xmlns="http://www.w3.org/2000/svg">
<g id="Sport=specials, weight=regular, Size=24">
<path id="specials" d="M11.8797 19.5L14.6658 17.6511L18 17.8532L16.2371 12.8199M14.5713 17.5864L13.5624 14.6427M11.8166 19.4934L9.33415 17.8466L6 18.0487L7.78147 12.3221M9.47639 17.8183L10.3939 14.4425M17.1988 9.61894C17.1988 12.4461 14.9177 14.7379 12.1038 14.7379C9.28989 14.7379 7.00877 12.4461 7.00877 9.61894C7.00877 6.79183 9.28989 4.5 12.1038 4.5C14.9177 4.5 17.1988 6.79183 17.1988 9.61894ZM10.701 9.61905C10.701 9.78947 10.5635 9.92761 10.3939 9.92761C10.2243 9.92761 10.0868 9.78947 10.0868 9.61905C10.0868 9.44864 10.2243 9.31049 10.3939 9.31049C10.5635 9.31049 10.701 9.44864 10.701 9.61905ZM12.3839 9.61905C12.3839 9.78947 12.2464 9.92761 12.0768 9.92761C11.9072 9.92761 11.7697 9.78947 11.7697 9.61905C11.7697 9.44864 11.9072 9.31049 12.0768 9.31049C12.2464 9.31049 12.3839 9.44864 12.3839 9.61905ZM14.0668 9.61905C14.0668 9.78947 13.9293 9.92761 13.7597 9.92761C13.5901 9.92761 13.4526 9.78947 13.4526 9.61905C13.4526 9.44864 13.5901 9.31049 13.7597 9.31049C13.9293 9.31049 14.0668 9.44864 14.0668 9.61905Z" stroke="black" stroke-width="1.5" stroke-miterlimit="10" stroke-linecap="round" stroke-linejoin="round"/>
</g>
</svg>
