<svg width="24" height="24" viewBox="0 0 24 24" fill="none" xmlns="http://www.w3.org/2000/svg">
<g id="Sport=enba, weight=light, Size=24">
<path id="Vector" d="M18.6912 11.403C18.6912 11.6201 18.6912 11.8373 18.6912 12.0544C18.6912 14.0087 17.9674 15.8183 16.5921 17.1935C15.2169 18.5688 13.4073 19.2926 11.453 19.2926C9.49871 19.2926 7.68917 18.5688 6.31392 17.1935C4.93866 15.8183 4.21484 14.0087 4.21484 12.0544C4.21484 11.982 4.21484 11.9096 4.21484 11.8373C4.28723 9.95533 5.01104 8.21816 6.31392 6.91529C7.61679 5.61242 9.35395 4.8886 11.2359 4.81622C11.3083 4.81622 11.3806 4.81622 11.453 4.81622C11.7967 4.81622 12.1358 4.8386 12.4689 4.88296M10.5844 5.03358C9.77035 6.32783 9.65781 7.11563 10.1501 8.00102C10.1501 8.00102 10.2949 8.29054 10.5844 8.43531C11.1976 8.90695 11.8722 9.04054 12.5882 9.05635M12.1768 19.2926C9.35395 17.8449 9.28157 16.1802 9.20919 14.5878C9.20919 13.502 9.1368 12.4163 8.19584 11.4753C8.19584 11.4753 8.12346 11.403 8.05108 11.3306C7.9787 11.2582 7.54441 10.9687 7.54441 10.9687C6.67582 10.462 5.5901 10.5344 4.21484 11.2582M16.8093 16.9764L6.60344 6.77053M5.31711 16.072C5.82844 12.6388 7.9468 9.5708 11.2339 7.96376C11.6381 7.75286 12.0508 7.57156 12.4689 7.41884M15.3117 5.95112C15.3117 7.37102 16.1585 8.3605 17.5341 8.3605C18.2661 8.3605 19.0053 8.21993 19.6788 7.37813M15.3117 5.95112C15.3117 4.53123 16.1585 3.55771 17.5341 3.55771C18.9096 3.55771 19.785 4.53123 19.785 5.95112H15.3117Z" stroke="black" stroke-miterlimit="10" stroke-linecap="round" stroke-linejoin="round"/>
</g>
</svg>
