<svg width="16" height="16" viewBox="0 0 16 16" fill="none" xmlns="http://www.w3.org/2000/svg">
<g id="Sport=olympics, weight=regular, Size=16">
<path id="olympics" d="M5.75 6.51411C5.75 7.76454 4.74264 8.77821 3.5 8.77821C2.25736 8.77821 1.25 7.76454 1.25 6.51411C1.25 5.26367 2.25736 4.25 3.5 4.25C4.74264 4.25 5.75 5.26367 5.75 6.51411ZM5.75 6.51411C5.75 7.76454 6.75736 8.77821 8 8.77821C9.24264 8.77821 10.25 7.76454 10.25 6.51411M5.75 6.51411C5.75 5.26367 6.75736 4.25 8 4.25C9.24264 4.25 10.25 5.26367 10.25 6.51411M10.25 6.51411C10.25 7.76454 11.2574 8.77821 12.5 8.77821C13.7426 8.77821 14.75 7.76454 14.75 6.51411C14.75 5.26367 13.7426 4.25 12.5 4.25C11.2574 4.25 10.25 5.26367 10.25 6.51411ZM7.70918 9.48589C7.70918 10.7363 6.70182 11.75 5.45918 11.75C4.21654 11.75 3.20918 10.7363 3.20918 9.48589C3.20918 8.23546 4.21654 7.22179 5.45918 7.22179C6.70182 7.22179 7.70918 8.23546 7.70918 9.48589ZM12.8214 9.48589C12.8214 10.7363 11.8141 11.75 10.5714 11.75C9.32879 11.75 8.32143 10.7363 8.32143 9.48589C8.32143 8.23546 9.32879 7.22179 10.5714 7.22179C11.8141 7.22179 12.8214 8.23546 12.8214 9.48589Z" stroke="black" stroke-width="1.5" stroke-miterlimit="10" stroke-linecap="round" stroke-linejoin="round"/>
</g>
</svg>
