<svg width="16" height="16" viewBox="0 0 16 16" fill="none" xmlns="http://www.w3.org/2000/svg">
<g id="Sport=archery, Size=16px, weight=regular">
<path id="Archery" d="M6.16308 5.17367L6.40237 4.93437C6.40237 4.93437 7.06045 3.16264 9.12977 3.3191C9.12977 3.3191 11.0702 3.44028 12.5444 3.19332L8.99018 3.77162C8.99018 3.77162 7.88725 3.91275 7.04357 5.57403L6.80427 5.81333M13.25 2.75C13.25 2.75 13.0153 3.06293 12.5459 3.19332M5.62772 5.70902L4.93283 6.40391C4.93283 6.40391 3.16264 7.06045 3.3191 9.12977C3.3191 9.12977 3.44028 11.0702 3.19332 12.5444L3.77162 8.99018C3.77162 8.99018 3.91275 7.88725 5.57403 7.04357L6.26892 6.34869M2.75 13.25C2.75 13.25 3.06293 13.0153 3.19332 12.5459M3.28689 12.2529L12.2529 3.28842M4.30698 4.30698L11.4062 11.4062M9.6145 9.56848H10.8156L11.8602 10.6131H10.6806M9.57001 9.6145V10.8141L10.6146 11.8587V10.6791M4.13977 4.54781L3.93576 3.93422L4.54781 4.13824L4.13977 4.54781Z" stroke="black" stroke-width="1.5" stroke-miterlimit="10" stroke-linecap="round" stroke-linejoin="round"/>
</g>
</svg>
