<svg width="16" height="16" viewBox="0 0 16 16" fill="none" xmlns="http://www.w3.org/2000/svg">
<g id="Sport=greyhound, Size=16px, weight=regular">
<path id="dogs" d="M2.5 7.07846C2.91983 6.6492 3.8435 5.79067 4.73561 5.42705C5.13407 5.18395 6.44075 4.67122 6.44075 4.67122L5.82087 4.53614C5.82087 4.53614 6.68668 3.57261 6.96403 3.51108C7.24944 3.45049 7.46025 3.65519 7.62337 3.72123C7.85087 3.79479 8.35867 3.78368 8.60423 3.84369C8.83467 3.89411 8.88396 4.53401 8.88396 4.53401C8.88396 4.53401 9.32502 4.72648 9.54683 4.90898C9.76059 5.09054 10.4286 5.81058 10.6569 6.13475C10.8691 6.45705 11.2874 7.08527 11.8066 7.49825C12.3258 7.91123 13.2489 8.87247 13.2489 8.87247C13.2489 8.87247 13.4729 9.1022 13.4996 9.27755C13.5131 9.42789 13.1922 9.70353 12.9651 9.75528C12.746 9.80796 11.2464 9.71881 10.8316 9.57639C10.4169 9.43397 9.35121 8.56568 9.05442 8.52316C8.75665 8.48836 7.47037 8.13448 7.109 8.34277C6.74862 8.54334 5.67652 10.1012 5.22488 10.6983C4.81229 11.245 4.44054 11.9845 4.16261 12.5M3.80869 6.08017C3.3209 7.85121 3.37406 11.0348 5 10.9214M8.59559 6.27539C8.59559 6.36699 8.67306 6.44124 8.76862 6.44124C8.86418 6.44124 8.94164 6.36699 8.94164 6.27539C8.94164 6.1838 8.86418 6.10955 8.76862 6.10955C8.67306 6.10955 8.59559 6.1838 8.59559 6.27539Z" stroke="black" stroke-width="1.5" stroke-linecap="round" stroke-linejoin="round"/>
</g>
</svg>
