<svg width="16" height="16" viewBox="0 0 16 16" fill="none" xmlns="http://www.w3.org/2000/svg">
<g id="Sport=ski-jumping, Size=16px, weight=light">
<g id="Ski Jumping">
<path id="Vector" d="M12.5397 4.15108C11.9415 4.39821 11.2728 4.16123 11.0463 3.62175C10.8198 3.08228 11.1212 2.44461 11.7195 2.19748C12.3177 1.95034 12.9864 2.18733 13.2129 2.7268C13.4394 3.26627 13.138 3.90395 12.5397 4.15108Z" stroke="black" stroke-linecap="round" stroke-linejoin="round"/>
<path id="Vector_2" d="M10.6374 4.10675C10.1882 3.72233 9.53268 3.68716 9.04252 4.02103L5.82719 6.20998C5.55647 6.3942 5.49414 6.76424 5.68961 7.02475C5.87789 7.27545 6.2342 7.33022 6.49103 7.14809L9.10848 5.29128L8.74817 5.60193C6.75833 7.31749 5.19812 9.46752 4.19154 11.8816L3.57718 13.355L5.14938 12.7056L5.21593 12.5667C6.2533 10.4076 7.74356 8.49086 9.58705 6.94524L10.6258 6.07392C11.2389 5.55971 11.2445 4.62547 10.6374 4.10675V4.10675Z" stroke="black" stroke-linecap="round" stroke-linejoin="round"/>
<path id="Vector_3" d="M14.5898 7.65939C13.8349 8.7186 12.7759 9.55491 11.5471 10.0625L1.41008 14.25" stroke="black" stroke-linecap="round" stroke-linejoin="round"/>
</g>
</g>
</svg>
