<svg width="24" height="24" viewBox="0 0 24 24" fill="none" xmlns="http://www.w3.org/2000/svg">
<g id="Sport=rocket-league, weight=regular, Size=24">
<path id="Rocket League" d="M20.1569 17.3244V14.4464C20.1569 14.1574 20.1059 13.8715 20.0039 13.6011L18.3949 9.51101C18.1113 8.78997 17.4007 8.31446 16.6105 8.31446H12.8126M20.1569 17.3244C20.1569 17.6662 19.8701 17.946 19.5196 17.946H6.13727C5.78678 17.946 5.50002 17.6662 5.50002 17.3244M20.1569 17.3244L20.1567 18.8784C20.1567 19.2203 19.87 19.5 19.5195 19.5H18.5636C18.2131 19.5 17.9264 19.2203 17.9264 18.8784V17.946M5.90627 12.9067L5.65296 13.6011C5.551 13.8715 5.50002 14.1574 5.50002 14.4464V17.3244M5.50002 17.3244V18.8784C5.50002 19.2203 5.78678 19.5 6.13727 19.5H7.09315C7.44364 19.5 7.73041 19.2203 7.73041 18.8784V17.946M8.74993 12.9736H18.0474C18.3883 12.9736 18.7293 12.9207 19.0543 12.8151L19.5195 12.6628M15.3776 16.7032H10.2795M6.55055 5.83445C6.55055 5.83445 5.9925 7.06529 5.90749 7.84646C5.90749 7.84646 6.68409 8.86411 7.39993 9.46769M6.55055 5.83445C7.72757 5.40846 8.74607 5.36112 8.74607 5.36112M6.55055 5.83445C5.91169 5.19938 5.08657 4.93904 5.08657 4.93904M7.39993 9.46769L9.57082 9.00611C9.57082 9.00611 10.1046 8.09486 10.1911 6.97578M7.39993 9.46769C7.1978 9.88621 6.91413 11.2824 6.91413 11.2824M10.1911 6.97578C10.1911 6.97578 9.61971 5.95278 8.74607 5.36112M10.1911 6.97578L11.6525 6.60957M8.74607 5.36112L9.34115 4.05929M11.6525 6.60957C11.6525 6.60957 11.6465 5.47946 11.24 4.84634C11.24 4.84634 10.8934 4.30788 9.34115 4.05929M11.6525 6.60957C11.6525 6.60957 12.3191 7.17009 12.4796 8.31587C12.4796 8.31587 12.1803 10.4145 10.3199 10.6825M9.34115 4.05929C8.81539 3.21104 7.82043 3.00765 7.82043 3.00765M6.00381 3.21887C6.00381 3.21887 5.28888 4.03954 5.08657 4.93904M5.08657 4.93904C5.08657 4.93904 3.8986 5.54868 3.54268 6.34479C3.54268 6.34479 3.48504 7.18931 3.98653 8.15056L5.90749 7.84556M3.98653 8.15145C3.98653 8.15145 3.44454 9.08903 3.59832 9.93319C3.59832 9.93319 4.06734 11.1404 5.02126 11.59M5.02126 11.59C5.02126 11.59 5.92719 11.6454 6.91413 11.2824M5.02126 11.59C5.02126 11.59 4.87586 12.0423 4.96982 12.6577M6.91413 11.2824C6.91413 11.2824 8.03077 12.0004 8.67802 12.0475M2.63967 6.20582C2.63967 6.20582 2.96548 6.17771 3.54067 6.24871M2.57673 9.93906L3.57096 9.87233M8.67802 12.0475C8.67802 12.0475 9.9479 11.511 10.3199 10.6825M8.67802 12.0475C8.67802 12.0475 8.70228 12.841 8.61727 13.1938M10.3199 10.6825C10.3199 10.6825 9.9074 9.45968 9.57192 9.00593M11.5808 10.078C11.5808 10.078 11.8545 10.5298 11.7016 11.3124M8.68653 15.7705H7.41202C6.8831 15.7705 6.45614 15.354 6.45614 14.8381C6.45614 14.6672 6.59952 14.5273 6.77477 14.5273H8.04928C8.5782 14.5273 9.00516 14.9438 9.00516 15.4597C9.00516 15.6306 8.86178 15.7705 8.68653 15.7705ZM18.2449 15.7705H16.9704C16.7951 15.7705 16.6518 15.6306 16.6518 15.4597C16.6518 14.9438 17.0787 14.5273 17.6076 14.5273H18.8822C19.0574 14.5273 19.2008 14.6672 19.2008 14.8381C19.2008 15.354 18.7738 15.7705 18.2449 15.7705ZM19.8382 12.3521H20.9534C21.3931 12.3521 21.75 12.004 21.75 11.5751C21.75 11.3171 21.5365 11.1089 21.2721 11.1089H20.3162C20.0517 11.1089 19.8382 11.3171 19.8382 11.5751V12.3521ZM12.8126 8.15145C12.8126 10.9965 10.4481 13.3029 7.53128 13.3029C4.61451 13.3029 2.25 10.9965 2.25 8.15145C2.25 5.30638 4.61451 3 7.53128 3C10.4481 3 12.8126 5.30638 12.8126 8.15145Z" stroke="black" stroke-width="1.5" stroke-linecap="round" stroke-linejoin="round"/>
</g>
</svg>
