<svg width="16" height="16" viewBox="0 0 16 16" fill="none" xmlns="http://www.w3.org/2000/svg">
<g id="Sport=ice-hockey, weight=regular, Size=16">
<path id="Vector" d="M12.2188 2.5C11.5543 3.91226 9.74553 7.4579 9.54757 7.85098C9.2577 8.42765 9.00319 8.55711 8.13358 8.55711H3.18461C1.71171 8.55711 2.84526 11.8524 4.41715 11.8524H6.0126M10.7387 11.3562C9.4973 11.7039 8.18386 11.7039 6.94242 11.3562M10.6411 10.4058L13.5 3.62911M8.84058 10.2047C7.26162 10.2047 6.0126 10.652 6.0126 11.1462V12.5585C6.0126 13.0528 7.26162 13.5 8.84058 13.5C10.4195 13.5 11.6686 13.0528 11.6686 12.5585V11.1462C11.6686 10.652 10.4195 10.2047 8.84058 10.2047Z" stroke="black" stroke-width="1.5" stroke-miterlimit="10" stroke-linecap="round" stroke-linejoin="round"/>
</g>
</svg>
