<svg width="16" height="16" viewBox="0 0 16 16" fill="none" xmlns="http://www.w3.org/2000/svg">
<g id="Sport=futsal, Size=16px, weight=regular">
<path id="futsal" d="M3.59974 12.5C3.59974 12.5 9.82791 12.5 13.5 12.5M6.16435 5.97601C6.16435 5.97601 5.68886 7.05119 5.61642 7.73358C5.61642 7.73358 6.27813 8.62254 6.88808 9.14979L8.73782 8.74658C8.73782 8.74658 9.19264 7.95057 9.26632 6.973M6.16435 5.97601C7.16725 5.60389 8.03508 5.56254 8.03508 5.56254M6.16435 5.97601C5.62 5.42124 4.91694 5.19383 4.91694 5.19383M9.26632 6.973C9.26632 6.973 8.77948 6.07938 8.03508 5.56254M9.26632 6.973L10.5116 6.65311M8.03508 5.56254L8.54213 4.42534M10.5116 6.65311C10.5116 6.65311 10.5064 5.66591 10.1601 5.11285C10.1601 5.11285 9.86477 4.64249 8.54213 4.42534M10.5116 6.65311C10.5116 6.65311 11.0795 7.14275 11.2163 8.14363C11.2163 8.14363 10.9612 9.97689 9.37606 10.211M8.54213 4.42534C8.09415 3.68435 7.24637 3.50668 7.24637 3.50668M5.6985 3.69119C5.6985 3.69119 5.08932 4.40808 4.91694 5.19383M4.91694 5.19383C4.91694 5.19383 3.90472 5.72637 3.60145 6.42181C3.60145 6.42181 3.55233 7.15954 3.97964 7.99922L5.61642 7.7328M3.97964 8C3.97964 8 3.51782 8.81902 3.64886 9.55643C3.64886 9.55643 4.0485 10.6109 4.86129 11.0037M4.86129 11.0037C4.86129 11.0037 5.63321 11.0521 6.47414 10.735M4.86129 11.0037C4.86129 11.0037 4.73741 11.3989 4.81746 11.9364M6.47414 10.735C6.47414 10.735 6.71539 9.51508 6.88761 9.14948M6.47414 10.735C6.47414 10.735 7.4256 11.3622 7.9771 11.4034M2.83202 6.30042C2.83202 6.30042 3.10964 6.27586 3.59974 6.33788M2.77839 9.56155L3.62554 9.50326M7.9771 11.4034C7.9771 11.4034 9.05912 10.9347 9.37606 10.211M7.9771 11.4034C7.9771 11.4034 7.99777 12.0965 7.92534 12.4047M9.37606 10.211C9.37606 10.211 9.02461 9.1428 8.73876 8.74643M10.4505 9.68295C10.4505 9.68295 10.6836 10.0776 10.5534 10.7612M11.5 8C11.5 10.4853 9.48528 12.5 7 12.5C4.51472 12.5 2.5 10.4853 2.5 8C2.5 5.51472 4.51472 3.5 7 3.5C9.48528 3.5 11.5 5.51472 11.5 8Z" stroke="black" stroke-width="1.5" stroke-linecap="round" stroke-linejoin="round"/>
</g>
</svg>
