<svg width="24" height="24" viewBox="0 0 24 24" fill="none" xmlns="http://www.w3.org/2000/svg">
<g id="Sport=skateboarding, Size=24px, weight=regular">
<path id="skateboarding" d="M14.4403 4.60765L15.1083 3.93964C16.3612 2.68679 18.4108 2.68679 19.661 3.93964L20.058 4.33669C21.3109 5.58954 21.3109 7.63649 20.058 8.88934L19.39 9.55735M7.52683 11.5238L11.5241 7.52381M9.59792 19.3494L8.88699 20.0604C7.63414 21.3132 5.58719 21.3132 4.33434 20.0604L3.93729 19.6633C2.68712 18.4105 2.68712 16.3608 3.93997 15.108L4.65091 14.3971M16.4738 12.4735L12.4765 16.4735M13.3135 7.18042L16.836 10.7029M6.42153 14.0724L9.944 17.5949M10.9367 6.89711L13.0333 4.80129L14.3135 6.08199L12.217 8.17781L10.9367 6.89711ZM15.8183 11.7783L17.9145 9.68215L19.195 10.9626L17.0988 13.0588L15.8183 11.7783ZM14.0164 10.279C13.9333 10.3595 13.8018 10.3595 13.7213 10.279C13.6408 10.1985 13.6382 10.0644 13.7213 9.9839C13.8018 9.90074 13.9359 9.90342 14.0164 9.9839C14.0969 10.0644 14.0969 10.1985 14.0164 10.279ZM4.04492 13.7913L6.14147 11.6955L7.42172 12.9762L5.32517 15.072L4.04492 13.7913ZM8.92922 18.6726L11.025 16.5761L12.3057 17.8563L10.2099 19.9529L8.92922 18.6726ZM9.56304 14.7297C9.48256 14.8102 9.34842 14.8129 9.26794 14.7297C9.18746 14.6492 9.18746 14.5151 9.26794 14.4346C9.35111 14.3514 9.48256 14.3541 9.56304 14.4346C9.64353 14.5151 9.64353 14.6492 9.56304 14.7297Z" stroke="black" stroke-width="1.5" stroke-miterlimit="10" stroke-linecap="round" stroke-linejoin="round"/>
</g>
</svg>
