<svg width="16" height="16" viewBox="0 0 16 16" fill="none" xmlns="http://www.w3.org/2000/svg">
<g id="Sport=field-hockey, weight=light, Size=16">
<path id="Vector" d="M9.51241 8.61469L14.1367 2.90752C14.3308 2.66647 14.2975 2.31462 14.0615 2.11431C13.8158 1.90564 13.4461 1.94177 13.2453 2.19407L8.61286 7.98753M6.30098 10.5277L7.53561 11.5166M5.7519 11.1983L8.07454 8.27113C8.3581 7.91413 8.8775 7.85488 9.23418 8.13885C9.59508 8.42618 9.65018 8.95365 9.35643 9.30936L6.78611 12.4376C5.96511 13.4875 5.15539 13.8945 4.0883 13.6333C3.57655 13.5467 3.14248 13.2315 2.833 12.756C2.27329 11.9159 2.33522 10.8585 2.42283 10.5711C2.52702 10.1858 2.87098 9.88131 3.24435 9.86389C3.32348 9.85713 3.38034 9.86675 3.4372 9.87637C3.66465 9.91485 3.85988 10.0285 3.985 10.2108C4.11011 10.3932 4.14947 10.6215 4.13197 10.8401C4.10784 11.098 4.13301 11.5253 4.27708 11.7109C4.38988 11.8509 4.59679 11.9335 4.77731 11.9036C5.07647 11.9028 5.35016 11.6139 5.7519 11.1983Z" stroke="black" stroke-linecap="round" stroke-linejoin="round"/>
<circle id="Ellipse 70" cx="5.18978" cy="6.95388" r="1.25" transform="rotate(-3.71933 5.18978 6.95388)" stroke="black" stroke-linecap="round" stroke-linejoin="round"/>
</g>
</svg>
