<svg width="16" height="16" viewBox="0 0 16 16" fill="none" xmlns="http://www.w3.org/2000/svg">
<g id="Sport=set-tennis, Size=16px, weight=light">
<path id="set-tennis" d="M6.61495 3.83479C6.94546 4.28724 7.0531 4.88885 6.89227 5.42255C6.72147 6.01347 6.2602 6.49038 6.03566 7.06415C5.82479 7.59136 5.81823 8.19087 6.02132 8.72346C6.21723 9.25257 6.53292 9.6624 7.12174 9.9474C7.70338 10.2289 8.22065 10.2223 8.76436 10.0512C9.30088 9.87656 9.77419 9.50296 10.0569 9.01051C10.3676 8.47845 10.4554 7.82081 10.8129 7.32025C11.1389 6.86649 11.6776 6.57769 12.2303 6.55274M12.0985 9.98385C11.0029 12.2475 8.27965 13.1943 6.01603 12.0987C3.75241 11.003 2.80558 8.27978 3.90123 6.01617C4.99687 3.75255 7.72009 2.80572 9.98371 3.90136C12.2473 4.99701 13.1942 7.72023 12.0985 9.98385Z" stroke="black" stroke-miterlimit="10" stroke-linecap="round" stroke-linejoin="round"/>
</g>
</svg>
