<svg width="24" height="24" viewBox="0 0 24 24" fill="none" xmlns="http://www.w3.org/2000/svg">
<g id="Sport=judo, Size=24px, weight=light">
<path id="Judo" d="M14.5403 4.125H9.45968M14.5403 4.125L11.9956 11.6631M14.5403 4.125L15.5888 4.8871C17.0899 4.8871 17.918 5.83845 18.4089 7.2569L19.4609 10.2961C19.735 11.0877 19.875 11.9197 19.875 12.7573V16.3582H16.5726M9.45968 4.125L12.5039 13.266M9.45968 4.125L8.41116 4.8871C6.91015 4.8871 6.082 5.83845 5.59108 7.2569L4.53907 10.2961C4.26504 11.0877 4.125 11.9197 4.125 12.7573V16.3582H7.42742M16.8266 7.42742V9.96774L16.3185 14.0323M16.3185 14.0323H13.5814M16.3185 14.0323V15.3024M7.17339 7.42742V9.96774L7.68145 14.0323M7.68145 14.0323H10.4409M7.68145 14.0323V15.3024M7.68145 15.3024L7.17339 19.3669V19.875H16.8266V19.3669L16.3185 15.3024M7.68145 15.3024H9.13991M16.3185 15.3024H14.869M10.7695 15.3024H13.2263M12.7621 13.2702L15.8105 16.3185L15.0484 17.0806L12.0264 14.0586M12.7621 13.2702L8.95161 17.0806L8.18952 16.3185L11.2379 13.2702M12.7621 13.2702H11.2379M11.2379 13.2702L8.44355 5.01411M15.8105 19.875L15.4294 16.8266M12.6351 13.2702L15.6835 5.01411" stroke="black" stroke-linecap="round" stroke-linejoin="round"/>
</g>
</svg>
