<svg width="16" height="16" viewBox="0 0 16 16" fill="none" xmlns="http://www.w3.org/2000/svg">
<g id="Sport=esoccer, weight=light, Size=16">
<path id="Vector" d="M6.73993 5.86597C6.73993 5.86597 6.23005 7.01892 6.15237 7.75066C6.15237 7.75066 6.86194 8.70392 7.51601 9.26931L9.49954 8.83693C9.49954 8.83693 9.85934 8.20721 10.0109 7.36528M6.73993 5.86597C6.15621 5.27108 5.4023 5.02722 5.4023 5.02722M6.73993 5.86597C7.36744 5.63314 7.94564 5.52106 8.31842 5.4681M6.24038 3.4159C6.24038 3.4159 5.58715 4.18464 5.4023 5.02722M5.4023 5.02722C5.4023 5.02722 4.31686 5.59828 3.99166 6.34402C3.99166 6.34402 3.93899 7.1351 4.3972 8.03552L6.15237 7.74982M4.3972 8.03635C4.3972 8.03635 3.90199 8.9146 4.0425 9.70535C4.0425 9.70535 4.47104 10.8361 5.34263 11.2573C5.34263 11.2573 6.17038 11.3092 7.07213 10.9691C7.07213 10.9691 7.33082 9.66101 7.51551 9.26897M3.16658 6.21384C3.16658 6.21384 3.46428 6.18751 3.98983 6.25401M3.10908 9.71085L4.0175 9.64834M5.34313 11.2573C5.34313 11.2573 5.20978 11.681 5.29563 12.2574M7.07263 10.9691C7.07263 10.9691 8.0924 11.6417 8.68379 11.6859M8.68379 11.6859C8.68379 11.6859 9.84407 11.1833 10.1839 10.4073M8.68379 11.6859C8.68379 11.6859 8.70596 12.4291 8.62828 12.7596M10.1839 10.4073C10.1839 10.4073 9.80707 9.26181 9.50054 8.83676M10.1839 10.4073C11.8838 10.1562 12.1573 8.19037 12.1573 8.19037C12.1129 7.86525 11.9743 7.68207 11.8748 7.45692M11.3361 9.84103C11.3361 9.84103 11.5861 10.2642 11.4464 10.9973M8.31842 3.25876C8.09549 3.2272 7.86766 3.21088 7.63602 3.21088C4.97099 3.21088 2.81055 5.37132 2.81055 8.03635C2.81055 10.7014 4.97099 12.8618 7.63602 12.8618C10.3011 12.8618 12.4615 10.7014 12.4615 8.03635C12.4615 7.80863 12.4457 7.5846 12.4152 7.36528M10.2085 3.96744C10.2085 4.91404 10.773 5.5737 11.6901 5.5737C12.1781 5.5737 12.6709 5.47999 13.1199 4.91878M10.2085 3.96744C10.2085 3.02084 10.773 2.37183 11.6901 2.37183C12.6071 2.37183 13.1907 3.02084 13.1907 3.96744H10.2085Z" stroke="black" stroke-miterlimit="10" stroke-linecap="round" stroke-linejoin="round"/>
</g>
</svg>
