<svg width="16" height="16" viewBox="0 0 16 16" fill="none" xmlns="http://www.w3.org/2000/svg">
<g id="Sport=sailing, Size=16px, weight=regular">
<path id="Sailing" d="M4.73298 13.3594C4.09011 12.833 3.37994 11.9445 3.37994 11.9445C4.32211 12.1387 11.8276 12.1771 11.8276 12.1771L12.1729 13.0831M9.83877 12.1229L9.42967 11.2484L7.03351 11.2012L6.52346 12.0477M7.42667 3.17888L10.9687 10.1326M7.42667 10.0976H11.3477M7.33458 10.4614C5.17396 10.0347 3.25774 10.9896 3.25774 10.9896C1.75062 5.5207 7.3452 2.3289 7.3452 2.3289M7.19998 10.4474C7.19998 10.4474 4.37347 8.5411 6.97152 2.565M7.39479 11.1907V1.75H8.27321V2.21522H9.20298M13 13.6515C11.1422 14.9982 9.79626 13.6515 9.79626 13.6515H9.77678C7.919 14.9982 6.57305 13.6515 6.57305 13.6515H6.55357C4.69579 14.9982 3.34983 13.6515 3.34983 13.6515" stroke="black" stroke-width="1.5" stroke-linecap="round" stroke-linejoin="round"/>
</g>
</svg>
