<svg width="24" height="24" viewBox="0 0 24 24" fill="none" xmlns="http://www.w3.org/2000/svg">
<g id="Sport=triathlon, weight=regular, Size=24">
<path id="Triathlon" d="M11.0565 13.4203C9.45363 12.0937 8.69758 11.861 8.69758 11.861C6.27823 11.0542 8.09274 9.17455 8.09274 9.17455L11.1109 6.61804C12.0756 5.87466 12.6442 5.8656 13.0827 5.82631C13.9143 5.75077 14.1411 6.06504 14.1411 6.06504C14.1411 6.06504 14.7127 6.51832 14.9335 7.44906C15.0726 8.02926 15.0786 9.58552 15.5776 10.0539C15.5776 10.0539 16.4607 10.3198 18.7651 10.9967M13.3095 8.59435L10.5363 10.4588L13.1583 12.5228C13.1583 12.5228 13.1069 13.2027 11.7732 18.2402M9.48085 16.4512C9.48085 18.3429 7.94758 19.875 6.05444 19.875C4.16129 19.875 2.625 18.3429 2.625 16.4512C2.625 14.5595 4.15827 13.0274 6.05141 13.0274C7.94456 13.0274 9.47782 14.5595 9.47782 16.4512H9.48085ZM21.375 16.4512C21.375 18.3429 19.8417 19.875 17.9486 19.875C16.0554 19.875 14.5222 18.3429 14.5222 16.4512C14.5222 14.5595 16.0554 13.0274 17.9486 13.0274C19.8417 13.0274 21.375 14.5595 21.375 16.4512ZM19.1431 5.66011C19.1431 6.50793 18.4553 7.19522 17.6069 7.19522C16.7584 7.19522 16.0706 6.50793 16.0706 5.66011C16.0706 4.81229 16.7584 4.125 17.6069 4.125C18.4553 4.125 19.1431 4.81229 19.1431 5.66011Z" stroke="black" stroke-width="1.5" stroke-miterlimit="10" stroke-linecap="round" stroke-linejoin="round"/>
</g>
</svg>
