<svg width="16" height="16" viewBox="0 0 16 16" fill="none" xmlns="http://www.w3.org/2000/svg">
<g id="Sport=bowls, weight=regular, Size=16">
<g id="Bowls">
<path d="M13.25 8C13.25 10.8995 10.8995 13.25 8 13.25C5.10051 13.25 2.75 10.8995 2.75 8C2.75 5.10051 5.10051 2.75 8 2.75C10.8995 2.75 13.25 5.10051 13.25 8Z" stroke="black" stroke-width="1.5" stroke-miterlimit="10" stroke-linecap="round" stroke-linejoin="round"/>
<path d="M12.2656 7.8125C12.2656 9.18458 11.1953 10.2969 9.875 10.2969C8.55469 10.2969 7.48438 9.18458 7.48438 7.8125C7.48438 6.44042 8.55469 5.32812 9.875 5.32812C11.1953 5.32812 12.2656 6.44042 12.2656 7.8125Z" stroke="black" stroke-width="1.5" stroke-miterlimit="10" stroke-linecap="round" stroke-linejoin="round"/>
<path d="M13.1562 7.8125C13.1562 10.1166 11.4458 11.9844 9.33594 11.9844C7.22604 11.9844 5.51562 10.1166 5.51562 7.8125C5.51562 5.50844 7.22604 3.64062 9.33594 3.64062C11.4458 3.64062 13.1562 5.50844 13.1562 7.8125Z" stroke="black" stroke-width="1.5" stroke-miterlimit="10" stroke-linecap="round" stroke-linejoin="round"/>
<path d="M10.0156 6.6875L10.2682 7.46486H11.0856L10.4243 7.94529L10.6769 8.72264L10.0156 8.24221L9.35437 8.72264L9.60695 7.94529L8.94569 7.46486H9.76305L10.0156 6.6875Z" stroke="black" stroke-width="1.5" stroke-miterlimit="10" stroke-linecap="round" stroke-linejoin="round"/>
</g>
</g>
</svg>
