<svg width="32" height="32" viewBox="0 0 32 32" fill="none" xmlns="http://www.w3.org/2000/svg">
<g id="Sport=diving, Size=32px, weight=light">
<path id="Diving" d="M21.6674 23.7711C21.0786 25.2067 19.6367 26.1739 17.9748 26.1739H17.3395M21.9233 13.7392V9.78264C21.9233 9.47036 22.4282 9.21742 23.0515 9.21742C23.6748 9.21742 24.1796 9.47036 24.1796 9.78264V22.7826C24.1796 25.904 21.654 28.4348 18.5389 28.4348H17.2105M7.38286 19.0536C7.48791 18.5704 7.76008 17.3474 7.76008 17.3474C7.87008 16.8867 7.89405 16.6931 8.40101 16.4953C8.73029 16.39 9.14841 16.2565 9.55243 16.1866M15.7185 26.7392C15.7185 27.9878 14.7083 29 13.4622 29C12.2161 29 11.2059 27.9878 11.2059 26.7392C11.2059 25.4905 12.2161 24.4783 13.4622 24.4783C14.7083 24.4783 15.7185 25.4905 15.7185 26.7392ZM20.7952 6.95655C20.7952 7.89303 20.0375 8.6522 19.1029 8.6522C18.1683 8.6522 17.4107 7.89303 17.4107 6.95655C17.4107 6.02007 18.1683 5.2609 19.1029 5.2609C20.0375 5.2609 20.7952 6.02007 20.7952 6.95655ZM27 5.2609C27 6.19738 26.2424 6.95655 25.3078 6.95655C24.3732 6.95655 23.6155 6.19738 23.6155 5.2609C23.6155 4.32442 24.3732 3.56525 25.3078 3.56525C26.2424 3.56525 27 4.32442 27 5.2609ZM13.4622 13.7392C15.8623 13.7392 18.1687 14.0557 19.8609 14.611C20.8184 14.9939 21.1132 16.0622 21.2591 16.785C21.4051 17.5077 21.5665 18.2468 21.8662 19.6492C22.1659 21.0517 21.2464 22.5516 19.8701 22.7904C18.6143 23.0193 18.4535 23.1295 17.1907 23.3337C15.9279 23.5379 15.1868 21.0877 13.4615 21.0877C11.7361 21.0877 10.9951 23.5379 9.73223 23.3337C8.46941 23.1295 8.30864 23.0193 7.05287 22.7904C5.67653 22.5516 4.75708 21.0517 5.05675 19.6492C5.35641 18.2468 5.51788 17.5077 5.66383 16.785C5.80979 16.0622 6.10452 14.9939 7.06204 14.611C8.75426 14.0557 11.0606 13.7392 13.4608 13.7392H13.4622Z" stroke="black" stroke-miterlimit="10" stroke-linecap="round" stroke-linejoin="round"/>
</g>
</svg>
