<svg width="16" height="16" viewBox="0 0 16 16" fill="none" xmlns="http://www.w3.org/2000/svg">
<g id="Sport=ski-jumping, Size=16px, weight=regular">
<g id="Ski Jumping">
<path id="Vector" d="M12.5397 4.15108C11.9415 4.39821 11.2728 4.16123 11.0463 3.62175C10.8198 3.08228 11.1212 2.44461 11.7195 2.19748C12.3177 1.95034 12.9864 2.18733 13.2129 2.7268C13.4394 3.26627 13.138 3.90395 12.5397 4.15108Z" stroke="black" stroke-width="1.5" stroke-linecap="round" stroke-linejoin="round"/>
<path id="Vector_2" d="M10.6374 4.10672C10.1882 3.7223 9.53268 3.68713 9.04252 4.021L5.82719 6.20995C5.55647 6.39416 5.49414 6.76421 5.68961 7.02472C5.87789 7.27542 6.2342 7.33019 6.49103 7.14806L9.10848 5.29125L8.74817 5.6019C6.75833 7.31746 5.19812 9.46749 4.19154 11.8816L3.57718 13.355L5.14938 12.7055L5.21593 12.5667C6.2533 10.4076 7.74356 8.49083 9.58705 6.94521L10.6258 6.07389C11.2389 5.55968 11.2445 4.62544 10.6374 4.10672V4.10672Z" stroke="black" stroke-width="1.5" stroke-linecap="round" stroke-linejoin="round"/>
<path id="Vector_3" d="M14.5898 7.65942C13.8349 8.71863 12.7759 9.55494 11.5471 10.0626L1.41008 14.25" stroke="black" stroke-width="1.5" stroke-linecap="round" stroke-linejoin="round"/>
</g>
</g>
</svg>
