<svg width="32" height="32" viewBox="0 0 32 32" fill="none" xmlns="http://www.w3.org/2000/svg">
<g id="Sport=boat-racing, weight=light, Size=32">
<path id="boat-racing" d="M0.332703 11.1876C0.115987 11.3588 0.0790393 11.6732 0.250179 11.8899C0.421318 12.1066 0.735737 12.1436 0.952453 11.9724L0.332703 11.1876ZM4.29725 8.69398L4.02003 8.27786L4.00322 8.28906L3.98737 8.30158L4.29725 8.69398ZM9.55522 6.42758L9.4946 5.93127L9.55522 6.42758ZM13.402 6.82749L13.2479 7.30317L13.2528 7.30471L13.402 6.82749ZM16.858 7.90795L17.0583 7.44984L17.0333 7.43889L17.0072 7.43072L16.858 7.90795ZM19.0626 8.15926L19.0939 8.65828L19.0626 8.15926ZM25.5564 8.3373L25.4753 8.83084L25.4872 8.83249L25.5564 8.3373ZM27.035 8.54385L26.9659 9.03904L27.0524 9.05112L27.1379 9.03316L27.035 8.54385ZM29.2781 8.07253L29.2076 7.57753L29.1913 7.57984L29.1753 7.58321L29.2781 8.07253ZM29.9407 8.15926L30.3827 7.92554L30.3466 7.85723L30.2916 7.80301L29.9407 8.15926ZM29.657 9.02598L29.3138 8.66241L29.657 9.02598ZM21.4058 14.929L21.6556 15.3622L21.6717 15.3528L21.6872 15.3424L21.4058 14.929ZM9.55441 8.2776L9.69673 8.757L9.70549 8.75423L9.55441 8.2776ZM8.56924 9.00542L8.13546 8.75674L8.10833 8.80408L8.09204 8.85615L8.56924 9.00542ZM8.15637 10.3253L7.67917 10.176V10.176L8.15637 10.3253ZM8.65073 10.8567L8.49122 10.3828L8.65073 10.8567ZM0.786371 17.8832C0.536587 18.0009 0.429544 18.2989 0.547283 18.5486C0.665022 18.7984 0.962959 18.9055 1.21274 18.7877L0.786371 17.8832ZM11.322 13.4698L11.1264 13.0097L11.1175 13.0135L11.1088 13.0176L11.322 13.4698ZM20.9211 10.1007L20.7969 9.61616L20.7848 9.61956L20.9211 10.1007ZM4.36614 18.8772V18.3772C4.22424 18.3772 4.08902 18.4374 3.99419 18.543L4.36614 18.8772ZM4.40306 18.8772L4.82217 18.6045C4.72991 18.4627 4.57222 18.3772 4.40306 18.3772V18.8772ZM10.3897 18.8772V18.3772C10.2478 18.3772 10.1127 18.4374 10.0178 18.5429L10.3897 18.8772ZM10.4257 18.8772L10.8448 18.6045C10.7525 18.4627 10.5948 18.3772 10.4257 18.3772V18.8772ZM16.4114 18.8772V18.3772C16.2695 18.3772 16.1343 18.4374 16.0395 18.543L16.4114 18.8772ZM16.4473 18.8772L16.8664 18.6045C16.7742 18.4627 16.6165 18.3772 16.4473 18.3772V18.8772ZM22.433 18.8772V18.3772C22.2912 18.3772 22.156 18.4374 22.0611 18.543L22.433 18.8772ZM22.469 18.8772L22.8881 18.6045C22.7959 18.4627 22.6382 18.3772 22.469 18.3772V18.8772ZM28.8266 19.2113C29.0112 19.006 28.9943 18.6898 28.7889 18.5052C28.5835 18.3207 28.2674 18.3376 28.0828 18.543L28.8266 19.2113ZM7.32139 23.1182C7.04525 23.1182 6.82139 23.3421 6.82139 23.6182C6.82139 23.8944 7.04525 24.1182 7.32139 24.1182V23.1182ZM7.35737 23.6182L7.77647 23.3456C7.68422 23.2038 7.52653 23.1182 7.35737 23.1182V23.6182ZM13.3431 23.6182V23.1182C13.2012 23.1182 13.066 23.1785 12.9712 23.2841L13.3431 23.6182ZM13.379 23.6182L13.7981 23.3456C13.7059 23.2038 13.5482 23.1182 13.379 23.1182V23.6182ZM19.3647 23.6182V23.1182C19.2228 23.1182 19.0877 23.1785 18.9928 23.2841L19.3647 23.6182ZM19.4007 23.6182L19.8198 23.3456C19.7276 23.2038 19.5699 23.1182 19.4007 23.1182V23.6182ZM25.7583 23.9524C25.9429 23.747 25.926 23.4309 25.7206 23.2463C25.5152 23.0618 25.1991 23.0787 25.0145 23.2841L25.7583 23.9524ZM1.04919 20.0833C0.774416 20.0559 0.529441 20.2564 0.502027 20.5312C0.474613 20.8059 0.675142 21.0509 0.94992 21.0783L1.04919 20.0833ZM0.952453 11.9724L4.60712 9.08638L3.98737 8.30158L0.332703 11.1876L0.952453 11.9724ZM4.57446 9.11009C5.05316 8.79119 5.89206 8.29229 6.8316 7.84735C7.77928 7.39856 8.78712 7.02512 9.61584 6.9239L9.4946 5.93127C8.50519 6.05213 7.38159 6.48042 6.40359 6.94357C5.41746 7.41058 4.53644 7.93384 4.02003 8.27786L4.57446 9.11009ZM9.61584 6.9239C9.94644 6.88351 10.3313 6.81806 10.8991 6.83967C11.4653 6.86122 12.2234 6.97117 13.2479 7.30314L13.5562 6.35184C12.4531 5.99443 11.6042 5.86578 10.9371 5.84039C10.2716 5.81507 9.79685 5.89435 9.4946 5.93127L9.61584 6.9239ZM13.2528 7.30471L16.7088 8.38517L17.0072 7.43072L13.5512 6.35027L13.2528 7.30471ZM16.6576 8.36605C17.004 8.51753 17.8907 8.73385 19.0939 8.65828L19.0312 7.66025C17.954 7.72791 17.2315 7.52559 17.0583 7.44984L16.6576 8.36605ZM19.0939 8.65828C19.4704 8.63464 19.8042 8.58735 20.1334 8.54544C20.4655 8.50316 20.81 8.46378 21.2402 8.44805C22.1006 8.41659 23.3324 8.47884 25.4754 8.83069L25.6374 7.84391C23.4549 7.48556 22.1525 7.41402 21.2037 7.44872C20.7292 7.46607 20.3504 7.50974 20.0071 7.55345C19.6609 7.59752 19.3674 7.63913 19.0312 7.66025L19.0939 8.65828ZM25.4872 8.83249L26.9659 9.03904L27.1042 8.04866L25.6255 7.84211L25.4872 8.83249ZM27.1379 9.03316L29.3809 8.56184L29.1753 7.58321L26.9322 8.05453L27.1379 9.03316ZM29.3487 8.56753C29.4446 8.55385 29.5314 8.54527 29.6006 8.54917C29.6162 8.55005 29.6281 8.55145 29.6368 8.55288C29.6455 8.55433 29.6491 8.55552 29.6486 8.55536C29.6486 8.55534 29.6216 8.54677 29.5899 8.51552L30.2916 7.80301C30.0847 7.59928 29.8158 7.55972 29.657 7.55076C29.4825 7.54092 29.3127 7.56255 29.2076 7.57753L29.3487 8.56753ZM29.4987 8.39299C29.5004 8.39618 29.5 8.39172 29.4995 8.39772C29.4993 8.39932 29.494 8.4923 29.3138 8.66241L30.0002 9.38956C30.3138 9.09353 30.4681 8.78685 30.4953 8.48848C30.5221 8.19451 30.4167 7.98974 30.3827 7.92554L29.4987 8.39299ZM29.3138 8.66241C28.9242 9.03013 27.9729 9.74961 26.5474 10.7642C25.1342 11.7701 23.2847 13.0454 21.1245 14.5157L21.6872 15.3424C23.8489 13.871 25.7053 12.591 27.1273 11.5789C28.5371 10.5755 29.5503 9.8143 30.0002 9.38956L29.3138 8.66241ZM21.1561 14.4959C18.1066 16.2543 15.8746 17.1217 10.6208 18.7251L10.9126 19.6815C16.1957 18.0693 18.5104 17.1757 21.6556 15.3622L21.1561 14.4959ZM13.6504 6.45475L9.40333 7.80097L9.70549 8.75423L13.9526 7.40801L13.6504 6.45475ZM9.41212 7.79827C9.25315 7.84546 9.02362 7.94224 8.79556 8.08929C8.56903 8.23535 8.3095 8.45317 8.13546 8.75674L9.00301 9.2541C9.0696 9.13795 9.18859 9.02572 9.33746 8.92973C9.4848 8.83473 9.62755 8.77745 9.6967 8.75692L9.41212 7.79827ZM8.09204 8.85615L7.67917 10.176L8.63357 10.4746L9.04644 9.15469L8.09204 8.85615ZM8.81025 11.3306L17.2199 8.49965L16.9008 7.55191L8.49122 10.3828L8.81025 11.3306ZM7.67917 10.176C7.4764 10.8243 8.05128 11.5861 8.81025 11.3306L8.49122 10.3828C8.51161 10.376 8.53937 10.3744 8.56656 10.3822C8.59131 10.3892 8.60723 10.4014 8.61621 10.4111C8.634 10.4302 8.63924 10.4565 8.63357 10.4746L7.67917 10.176ZM1.21274 18.7877L11.5351 13.9221L11.1088 13.0176L0.786371 17.8832L1.21274 18.7877ZM11.5175 13.93C15.0733 12.4186 16.7116 11.8121 21.0573 10.5817L20.7848 9.61956C16.3973 10.8618 14.7194 11.4824 11.1264 13.0097L11.5175 13.93ZM21.0452 10.585L27.1978 9.00794L26.9495 8.03925L20.7969 9.61631L21.0452 10.585ZM4.36614 19.3772H4.40306V18.3772H4.36614V19.3772ZM4.40306 18.8772C3.98396 19.1498 3.98411 19.1501 3.98428 19.1503C3.98434 19.1504 3.98452 19.1507 3.98466 19.1509C3.98493 19.1513 3.98524 19.1518 3.98559 19.1523C3.98629 19.1534 3.98715 19.1547 3.98817 19.1562C3.9902 19.1593 3.99286 19.1633 3.99615 19.1681C4.00272 19.1779 4.01178 19.1911 4.0233 19.2074C4.04633 19.2401 4.07923 19.2855 4.12165 19.3406C4.20633 19.4506 4.32989 19.6007 4.4895 19.7668C4.80579 20.0961 5.27897 20.5048 5.88716 20.7812C6.50276 21.061 7.25856 21.2053 8.1105 20.9922C8.95675 20.7805 9.84682 20.2291 10.7616 19.2114L10.0178 18.5429C9.19614 19.4571 8.46966 19.8716 7.86784 20.0221C7.2717 20.1712 6.74789 20.074 6.30095 19.8709C5.84659 19.6643 5.47427 19.3485 5.2107 19.0741C5.08038 18.9384 4.98042 18.8168 4.91406 18.7306C4.88097 18.6876 4.85647 18.6538 4.84098 18.6318C4.83324 18.6208 4.82777 18.6128 4.82461 18.6081C4.82303 18.6058 4.82203 18.6043 4.82163 18.6036C4.82142 18.6033 4.82136 18.6032 4.82145 18.6034C4.8215 18.6035 4.82158 18.6036 4.8217 18.6038C4.82176 18.6039 4.82188 18.604 4.8219 18.6041C4.82203 18.6043 4.82217 18.6045 4.40306 18.8772ZM10.3897 19.3772H10.4257V18.3772H10.3897V19.3772ZM10.4257 18.8772C10.0066 19.1498 10.0067 19.1501 10.0069 19.1503C10.007 19.1504 10.0071 19.1507 10.0073 19.1509C10.0075 19.1513 10.0079 19.1518 10.0082 19.1523C10.0089 19.1534 10.0098 19.1547 10.0108 19.1562C10.0128 19.1593 10.0155 19.1633 10.0188 19.1681C10.0253 19.1779 10.0344 19.1911 10.0459 19.2074C10.0689 19.2401 10.1018 19.2855 10.1443 19.3406C10.2289 19.4506 10.3525 19.6007 10.5121 19.7668C10.8284 20.0961 11.3015 20.5048 11.9096 20.7812C12.5252 21.061 13.2809 21.2053 14.1327 20.9922C14.9789 20.7805 15.8688 20.229 16.7833 19.2113L16.0395 18.543C15.218 19.4571 14.4917 19.8716 13.89 20.0221C13.294 20.1712 12.7703 20.074 12.3235 19.8709C11.8692 19.6643 11.4969 19.3485 11.2333 19.0741C11.103 18.9385 11.003 18.8168 10.9367 18.7306C10.9036 18.6876 10.8791 18.6538 10.8636 18.6318C10.8559 18.6208 10.8504 18.6128 10.8472 18.6081C10.8456 18.6058 10.8447 18.6043 10.8442 18.6036C10.844 18.6033 10.844 18.6032 10.8441 18.6034C10.8441 18.6035 10.8442 18.6036 10.8443 18.6038C10.8444 18.6039 10.8445 18.604 10.8445 18.6041C10.8446 18.6043 10.8448 18.6045 10.4257 18.8772ZM16.4114 19.3772H16.4473V18.3772H16.4114V19.3772ZM16.4473 18.8772C16.0282 19.1498 16.0284 19.1501 16.0286 19.1503C16.0286 19.1504 16.0288 19.1507 16.0289 19.1509C16.0292 19.1513 16.0295 19.1518 16.0299 19.1523C16.0306 19.1534 16.0314 19.1547 16.0324 19.1562C16.0345 19.1593 16.0371 19.1633 16.0404 19.1681C16.047 19.1779 16.0561 19.1911 16.0676 19.2074C16.0906 19.2401 16.1235 19.2855 16.1659 19.3406C16.2506 19.4506 16.3742 19.6007 16.5338 19.7668C16.85 20.0961 17.3232 20.5048 17.9313 20.7812C18.5468 21.061 19.3026 21.2053 20.1544 20.9922C21.0005 20.7805 21.8904 20.229 22.8049 19.2113L22.0611 18.543C21.2397 19.4571 20.5134 19.8716 19.9117 20.0221C19.3157 20.1712 18.792 20.074 18.3451 19.8709C17.8908 19.6643 17.5185 19.3485 17.255 19.0741C17.1247 18.9385 17.0247 18.8168 16.9583 18.7306C16.9252 18.6876 16.9008 18.6538 16.8853 18.6318C16.8775 18.6208 16.872 18.6128 16.8689 18.6081C16.8673 18.6058 16.8663 18.6043 16.8659 18.6036C16.8657 18.6033 16.8656 18.6032 16.8657 18.6034C16.8658 18.6035 16.8659 18.6036 16.866 18.6038C16.866 18.6039 16.8662 18.604 16.8662 18.6041C16.8663 18.6043 16.8664 18.6045 16.4473 18.8772ZM22.433 19.3772H22.469V18.3772H22.433V19.3772ZM22.469 18.8772C22.0499 19.1498 22.0501 19.1501 22.0502 19.1503C22.0503 19.1504 22.0505 19.1507 22.0506 19.1509C22.0509 19.1513 22.0512 19.1518 22.0515 19.1523C22.0522 19.1534 22.0531 19.1547 22.0541 19.1562C22.0562 19.1593 22.0588 19.1633 22.0621 19.1681C22.0687 19.1779 22.0777 19.1911 22.0892 19.2074C22.1123 19.2401 22.1452 19.2855 22.1876 19.3406C22.2723 19.4506 22.3958 19.6007 22.5554 19.7668C22.8717 20.0961 23.3448 20.5048 23.953 20.7812C24.5685 21.061 25.3242 21.2053 26.1761 20.9922C27.0222 20.7805 27.9121 20.229 28.8266 19.2113L28.0828 18.543C27.2613 19.4571 26.535 19.8716 25.9334 20.0221C25.3374 20.1712 24.8137 20.074 24.3668 19.8709C23.9125 19.6643 23.5402 19.3485 23.2766 19.0741C23.1463 18.9385 23.0464 18.8168 22.98 18.7306C22.9469 18.6876 22.9224 18.6538 22.9069 18.6318C22.8992 18.6208 22.8937 18.6128 22.8906 18.6081C22.889 18.6058 22.888 18.6043 22.8876 18.6036C22.8874 18.6033 22.8873 18.6032 22.8874 18.6034C22.8874 18.6035 22.8875 18.6036 22.8876 18.6038C22.8877 18.6039 22.8878 18.604 22.8879 18.6041C22.888 18.6043 22.8881 18.6045 22.469 18.8772ZM7.32139 24.1182H7.35737V23.1182H7.32139V24.1182ZM7.35737 23.6182C6.93826 23.8909 6.93842 23.8912 6.93858 23.8914C6.93865 23.8915 6.93883 23.8918 6.93896 23.892C6.93923 23.8924 6.93955 23.8929 6.9399 23.8934C6.9406 23.8945 6.94146 23.8958 6.94247 23.8973C6.94451 23.9004 6.94717 23.9044 6.95045 23.9092C6.95702 23.919 6.96609 23.9322 6.97761 23.9485C7.00063 23.9812 7.03353 24.0266 7.07596 24.0817C7.16063 24.1917 7.28418 24.3418 7.44378 24.5079C7.76005 24.8372 8.2332 25.2459 8.84132 25.5223C9.45687 25.8021 10.2126 25.9464 11.0644 25.7333C11.9106 25.5216 12.8005 24.9701 13.715 23.9524L12.9712 23.2841C12.1497 24.1982 11.4234 24.6127 10.8217 24.7632C10.2257 24.9123 9.70204 24.8151 9.25515 24.612C8.80085 24.4054 8.42856 24.0896 8.165 23.8152C8.03469 23.6796 7.93473 23.5579 7.86837 23.4717C7.83527 23.4287 7.81078 23.3949 7.79529 23.3729C7.78755 23.3619 7.78207 23.3539 7.77892 23.3492C7.77734 23.3469 7.77634 23.3454 7.77593 23.3447C7.77573 23.3444 7.77567 23.3443 7.77576 23.3445C7.7758 23.3446 7.77589 23.3447 7.776 23.3449C7.77606 23.3449 7.77618 23.3451 7.77621 23.3452C7.77634 23.3454 7.77647 23.3456 7.35737 23.6182ZM13.3431 24.1182H13.379V23.1182H13.3431V24.1182ZM13.379 23.6182C12.9599 23.8909 12.9601 23.8912 12.9602 23.8914C12.9603 23.8915 12.9605 23.8918 12.9606 23.892C12.9609 23.8924 12.9612 23.8929 12.9616 23.8934C12.9623 23.8945 12.9631 23.8958 12.9641 23.8973C12.9662 23.9004 12.9688 23.9044 12.9721 23.9092C12.9787 23.919 12.9878 23.9322 12.9993 23.9485C13.0223 23.9812 13.0552 24.0266 13.0976 24.0817C13.1823 24.1917 13.3058 24.3418 13.4654 24.5079C13.7817 24.8372 14.2549 25.2459 14.863 25.5223C15.4785 25.8021 16.2343 25.9464 17.0861 25.7333C17.9322 25.5216 18.8221 24.9701 19.7366 23.9524L18.9928 23.2841C18.1714 24.1982 17.4451 24.6127 16.8434 24.7632C16.2474 24.9123 15.7237 24.8151 15.2768 24.612C14.8225 24.4054 14.4502 24.0896 14.1867 23.8152C14.0564 23.6796 13.9564 23.5579 13.89 23.4717C13.8569 23.4287 13.8324 23.3949 13.817 23.3729C13.8092 23.3619 13.8037 23.3539 13.8006 23.3492C13.799 23.3469 13.798 23.3454 13.7976 23.3447C13.7974 23.3444 13.7973 23.3443 13.7974 23.3445C13.7975 23.3446 13.7975 23.3447 13.7977 23.3449C13.7977 23.3449 13.7978 23.3451 13.7979 23.3452C13.798 23.3454 13.7981 23.3456 13.379 23.6182ZM19.3647 24.1182H19.4007V23.1182H19.3647V24.1182ZM19.4007 23.6182C18.9816 23.8909 18.9818 23.8912 18.9819 23.8914C18.982 23.8915 18.9822 23.8918 18.9823 23.892C18.9826 23.8924 18.9829 23.8929 18.9832 23.8934C18.9839 23.8945 18.9848 23.8958 18.9858 23.8973C18.9878 23.9004 18.9905 23.9044 18.9938 23.9092C19.0004 23.919 19.0094 23.9322 19.0209 23.9485C19.044 23.9812 19.0769 24.0266 19.1193 24.0817C19.204 24.1917 19.3275 24.3418 19.4871 24.5079C19.8034 24.8372 20.2765 25.2459 20.8847 25.5223C21.5002 25.8021 22.2559 25.9464 23.1078 25.7333C23.9539 25.5216 24.8438 24.9701 25.7583 23.9524L25.0145 23.2841C24.193 24.1982 23.4667 24.6127 22.8651 24.7632C22.2691 24.9123 21.7454 24.8151 21.2985 24.612C20.8442 24.4054 20.4719 24.0896 20.2083 23.8152C20.078 23.6796 19.9781 23.5579 19.9117 23.4717C19.8786 23.4287 19.8541 23.3949 19.8386 23.3729C19.8309 23.3619 19.8254 23.3539 19.8223 23.3492C19.8207 23.3469 19.8197 23.3454 19.8193 23.3447C19.8191 23.3444 19.819 23.3443 19.8191 23.3445C19.8191 23.3446 19.8192 23.3447 19.8193 23.3449C19.8194 23.3449 19.8195 23.3451 19.8195 23.3452C19.8197 23.3454 19.8198 23.3456 19.4007 23.6182ZM0.94992 21.0783C2.09226 21.1923 3.38652 20.7158 4.73809 19.2113L3.99419 18.543C2.79013 19.8833 1.78823 20.157 1.04919 20.0833L0.94992 21.0783Z" fill="black"/>
</g>
</svg>
