<svg width="24" height="24" viewBox="0 0 24 24" fill="none" xmlns="http://www.w3.org/2000/svg">
<g id="Sport=darts, Size=24px, weight=light">
<path id="darts" d="M13.8912 6.55187C12.4502 5.8951 10.7756 5.72555 9.14317 6.19707C5.46415 7.2597 3.34029 11.1185 4.39572 14.8226C5.45115 18.5267 9.2838 20.6651 12.9628 19.6024C16.6418 18.5398 18.7657 14.681 17.7103 10.9769C17.6063 10.6121 17.4799 10.2681 17.3249 9.94142M13.0368 8.31814C12.0145 7.86672 10.8336 7.75494 9.68186 8.0876C7.04052 8.85052 5.5157 11.6209 6.27344 14.2803C7.03119 16.9397 9.78283 18.4749 12.4242 17.712C15.0655 16.9491 16.5903 14.1786 15.8326 11.5193C15.7723 11.3076 15.7015 11.1058 15.6178 10.9123M13.9585 12.0469C14.4198 13.6657 13.4916 15.3521 11.8838 15.8165C10.2759 16.2809 8.60096 15.3463 8.1397 13.7275C7.67845 12.1087 8.60664 10.4223 10.2145 9.95793C10.7467 9.8042 11.2854 9.8069 11.7866 9.93644M11.0527 12.8998L15.3627 8.64537M15.5159 8.48775L17.6772 8.43976C17.7738 8.43761 17.8657 8.39731 17.933 8.32755L19.854 6.33676C19.9001 6.28898 19.8651 6.20898 19.7989 6.21109L17.8618 6.27301C17.7932 6.27521 17.7347 6.22339 17.7281 6.1546L17.5399 4.19206C17.5339 4.1293 17.4577 4.10232 17.414 4.14746L15.5727 6.0486C15.5038 6.11981 15.4661 6.21595 15.4683 6.31538L15.5159 8.48775Z" stroke="black" stroke-miterlimit="10" stroke-linecap="round" stroke-linejoin="round"/>
</g>
</svg>
