<svg width="16" height="16" viewBox="0 0 16 16" fill="none" xmlns="http://www.w3.org/2000/svg">
<g id="Sport=gaelic-hurling, weight=regular, Size=16">
<path id="Gaelic Hurling" d="M10.7217 3.77668L11.5689 4.47926M2.52554 11.1124L5.21525 13.4267M12.8487 2.09112L13.684 2.78502C13.8223 2.89991 13.7272 3.12039 13.5464 3.10407L12.8733 3.04352C12.7996 3.03691 12.7274 3.06667 12.6808 3.12287L5.7659 11.4637L4.41045 10.3478L12.3091 2.12088C12.4521 1.9721 12.6895 1.95887 12.8487 2.09112ZM4.29333 10.222L5.97896 11.6587C6.01962 11.6935 6.03953 11.7457 6.03169 11.798C5.99908 12.0148 5.85379 12.6231 5.21504 13.4267C5.21504 13.4267 4.11946 14.585 2.60623 13.6088C2.38216 13.4644 2.25 13.2176 2.25 12.9556V11.5848C2.25 11.3422 2.38512 11.1188 2.60284 11.0014L4.08853 10.2005C4.15461 10.1649 4.23636 10.1734 4.29333 10.2218V10.222ZM10.2982 12.6002C10.2982 13.3192 9.7008 13.902 8.9639 13.902C8.22701 13.902 7.62964 13.3192 7.62964 12.6002C7.62964 11.8812 8.22701 11.2984 8.9639 11.2984C9.7008 11.2984 10.2982 11.8812 10.2982 12.6002Z" stroke="black" stroke-width="1.5" stroke-miterlimit="10" stroke-linecap="round" stroke-linejoin="round"/>
</g>
</svg>
