<svg width="24" height="24" viewBox="0 0 24 24" fill="none" xmlns="http://www.w3.org/2000/svg">
<g id="Sport=ski-jumping, Size=24px, weight=regular">
<g id="Ski Jumping">
<path id="Vector" d="M18.8086 6.22662C17.9112 6.59732 16.9083 6.24184 16.5685 5.43263C16.2288 4.62342 16.6809 3.66692 17.5782 3.29621C18.4756 2.92551 19.4785 3.28099 19.8183 4.0902C20.1581 4.89941 19.706 5.85592 18.8086 6.22662Z" stroke="black" stroke-width="1.5" stroke-linecap="round" stroke-linejoin="round"/>
<path id="Vector_2" d="M15.9562 6.16014C15.2824 5.58351 14.299 5.53075 13.5638 6.03156L8.74079 9.31498C8.33471 9.59131 8.24121 10.1464 8.53442 10.5371C8.81684 10.9132 9.35129 10.9953 9.73655 10.7221L13.6627 7.93694L13.1223 8.40291C10.1375 10.9762 7.79719 14.2013 6.28731 17.8224L5.36576 20.0325L7.72406 19.0583L7.8239 18.8501C9.37994 15.6114 11.6153 12.7363 14.3806 10.4179L15.9387 9.1109C16.8583 8.33958 16.8667 6.93823 15.9562 6.16014V6.16014Z" stroke="black" stroke-width="1.5" stroke-linecap="round" stroke-linejoin="round"/>
<path id="Vector_3" d="M21.8848 11.4891C20.7523 13.0779 19.1639 14.3324 17.3206 15.0938L2.11512 21.375" stroke="black" stroke-width="1.5" stroke-linecap="round" stroke-linejoin="round"/>
</g>
</g>
</svg>
