<svg width="24" height="24" viewBox="0 0 24 24" fill="none" xmlns="http://www.w3.org/2000/svg">
<g id="Sport=chess, Size=24px, weight=light">
<path id="chess" d="M7.52778 8.03849L6.575 7.5924M8.32222 6.55789L7.475 5.93664M7.075 9.63404L6 9.31658M7.96667 6.16105C8.78056 5.04171 9.93333 4.99518 9.93333 4.99518C9.93333 4.99518 10.4389 3.63773 12.2444 3.375V5.04444L13.8472 5.31539L14.2139 5.95579C14.2139 5.95579 17.025 8.00839 17.6361 8.81301C17.6361 8.81301 18.1444 10.7233 16.6667 10.4715C16.6667 10.4715 12.1528 8.98816 12.2167 10.3456C12.2167 10.3456 16.1583 12.754 16.0056 16.5225H9.13889C9.13889 16.5225 9.21389 14.6314 7.98333 13.8651C6.41389 12.8854 6.22222 11.6839 6.47778 9.59846M16.6028 18.3261C17.4194 18.7777 18 20.625 18 20.625H7.04167C7.04167 20.625 7.62222 18.7777 8.43889 18.3261H16.6056H16.6028Z" stroke="black" stroke-miterlimit="10" stroke-linecap="round" stroke-linejoin="round"/>
</g>
</svg>
