<svg width="24" height="24" viewBox="0 0 24 24" fill="none" xmlns="http://www.w3.org/2000/svg">
<g id="Sport=volleyball, weight=regular, Size=24">
<path id="Vector" d="M15.5455 10.2832C14.2766 7.95231 11.5046 6.07267 7.92857 6.23214M12 12.1494C14.4394 11.3554 16.7941 9.77436 17.6559 7.52829M12 12.1494C11.4843 14.5583 11.6064 17.2386 12.8516 19.125M12 12.1494C10.1034 10.3885 7.58928 9.09577 5.24822 9.4622M11.8168 16.2173C13.3405 16.2236 14.835 15.7992 16.1281 14.9931C17.4211 14.1869 18.46 13.0317 19.125 11.6607M8.64446 9.96428C7.90957 11.2631 7.53699 12.7355 7.56564 14.2276C7.59428 15.7197 8.02311 17.1767 8.80731 18.4464M19.125 12C19.125 15.935 15.935 19.125 12 19.125C8.06496 19.125 4.875 15.935 4.875 12C4.875 8.06496 8.06496 4.875 12 4.875C15.935 4.875 19.125 8.06496 19.125 12Z" stroke="black" stroke-width="1.5" stroke-miterlimit="10" stroke-linecap="round" stroke-linejoin="round"/>
</g>
</svg>
