<svg width="16" height="16" viewBox="0 0 16 16" fill="none" xmlns="http://www.w3.org/2000/svg">
<g id="Sport=set-tennis, Size=16px, weight=light">
<path id="set-tennis" d="M6.61495 3.83478C6.94546 4.28723 7.0531 4.88884 6.89227 5.42254C6.72147 6.01346 6.2602 6.49037 6.03566 7.06414C5.82479 7.59135 5.81823 8.19086 6.02132 8.72345C6.21723 9.25256 6.53292 9.66239 7.12174 9.94739C7.70338 10.2289 8.22065 10.2223 8.76436 10.0511C9.30088 9.87654 9.77419 9.50295 10.0569 9.0105C10.3676 8.47843 10.4554 7.82079 10.8129 7.32024C11.1389 6.86648 11.6776 6.57768 12.2303 6.55273M12.0985 9.98383C11.0029 12.2475 8.27965 13.1943 6.01603 12.0986C3.75241 11.003 2.80558 8.27977 3.90123 6.01615C4.99687 3.75253 7.72009 2.8057 9.98371 3.90135C12.2473 4.99699 13.1942 7.72021 12.0985 9.98383Z" stroke="black" stroke-miterlimit="10" stroke-linecap="round" stroke-linejoin="round"/>
</g>
</svg>
