<svg width="24" height="24" viewBox="0 0 24 24" fill="none" xmlns="http://www.w3.org/2000/svg">
<g id="Sport=bombay, Size=24px, weight=regular">
<path id="bombay" d="M7.32998 16.5937C8.31659 17.8977 9.94915 18.75 11.7962 18.75C14.8082 18.75 17.25 16.4834 17.25 13.6875C17.25 11.5955 15.8831 9.79995 13.933 9.02835M13.9171 9.02207C13.9224 9.02416 13.9277 9.02625 13.933 9.02835M13.933 9.02835C14.1168 8.68023 14.2199 8.2888 14.2199 7.875C14.2199 6.42525 12.9538 5.25 11.392 5.25C10.9807 5.25 10.5899 5.33151 10.2374 5.47807M13.933 9.02835C13.9277 9.0384 13.9224 9.04842 13.9169 9.0584C13.4508 9.91366 12.4952 10.5 11.392 10.5M7.48516 16.7835C7.02472 16.2411 6.75 15.5565 6.75 14.8123C6.75 13.0519 8.28741 11.6248 10.1839 11.6248C11.5743 11.6248 12.7718 12.3919 13.3118 13.4951M13.3118 13.4951L13.3133 13.4981M13.3118 13.4951C13.2552 13.3523 13.1789 13.2183 13.0861 13.0959M13.3118 13.4951C13.3858 13.6819 13.4262 13.8837 13.4262 14.0943C13.4262 15.0528 12.5891 15.8298 11.5565 15.8298C10.5239 15.8298 9.68685 15.0528 9.68685 14.0943M9.83072 7.7286C9.55035 7.45811 9.38538 7.08553 9.40484 6.68094C9.43064 6.14457 9.7739 5.69105 10.2587 5.4697" stroke="black" stroke-width="1.5" stroke-linecap="round" stroke-linejoin="round"/>
</g>
</svg>
