<svg width="32" height="32" viewBox="0 0 32 32" fill="none" xmlns="http://www.w3.org/2000/svg">
<g id="Sport=waterpolo, weight=light, Size=32">
<path id="Vector" d="M9.46765 13.9L11.1103 15.6121C11.3266 15.8559 11.5979 16.006 11.9221 16.0405L15.0551 16.3737M19.0077 15.0363L24.5053 9.61444C24.9537 9.17278 25.6824 9.18964 26.1341 9.65343C26.5881 10.1391 26.5763 10.8914 26.1089 11.357L21.3495 16.0216C20.9983 16.3653 20.8783 16.8852 21.0102 17.3583L23.7199 25.1242M17.1101 25.1029L15.5616 19.7929C15.4063 19.3 14.9865 18.9436 14.4886 18.882L11.1162 18.506C10.8133 18.4694 10.5441 18.3412 10.351 18.1171L7.42576 15.2541C7.09062 14.8893 7.03909 14.3642 7.21007 13.9277M7.83697 6.55025C9.29486 6.47494 10.5434 7.63466 10.6256 9.14056C10.7078 10.6465 9.59254 11.9283 8.13464 12.0036C6.67675 12.0789 5.42826 10.9192 5.34606 9.41328C5.26386 7.90739 6.37908 6.62556 7.83697 6.55025ZM18.5001 11.2376C18.6608 12.8751 17.5063 14.3286 15.9215 14.4842C14.3367 14.6397 12.9217 13.4383 12.761 11.8008C12.6003 10.1634 13.7548 8.70984 15.3396 8.55432C16.9244 8.39879 18.3394 9.60016 18.5001 11.2376Z" stroke="black" stroke-miterlimit="10" stroke-linecap="round" stroke-linejoin="round"/>
<path id="Vector 35" d="M29.7265 24.6646C28.8118 23.8686 27.4548 23.8643 26.5451 24.6543L26.3265 24.8441C25.3135 25.7238 23.8091 25.7401 22.7662 24.8828L22.6404 24.7793C21.5683 23.898 20.0216 23.9148 18.9802 24.8191C17.9601 25.705 16.4511 25.7413 15.3786 24.9057L15.1693 24.7426C14.0263 23.8521 12.4296 23.8469 11.292 24.7301L11.0579 24.9119C9.99887 25.7342 8.50691 25.7097 7.46477 24.853L7.17103 24.6115C6.1973 23.811 4.7811 23.8706 3.88867 24.7496" stroke="black" stroke-linecap="round" stroke-linejoin="round"/>
</g>
</svg>
