<svg width="16" height="16" viewBox="0 0 16 16" fill="none" xmlns="http://www.w3.org/2000/svg">
<g id="Sport=waterpolo, Size=16px, weight=light">
<path id="Vector" d="M4.73383 6.94999L5.55513 7.80602C5.66332 7.92795 5.79897 8.00301 5.96103 8.02024L7.52756 8.18685M9.50384 7.51814L12.2526 4.80721C12.4769 4.58637 12.8412 4.59481 13.0671 4.8267C13.294 5.06953 13.2882 5.44568 13.0544 5.67849L10.6747 8.01077C10.4992 8.18265 10.4391 8.4426 10.5051 8.67914L11.86 12.5621M8.55505 12.5514L7.7808 9.89645C7.70316 9.65 7.49324 9.47178 7.24432 9.44097L5.55809 9.25297C5.40663 9.2347 5.27204 9.17058 5.17552 9.05855L3.71288 7.62704C3.54531 7.44466 3.51954 7.18208 3.60503 6.96381M3.91849 3.27511C4.64743 3.23746 5.27168 3.81732 5.31278 4.57026C5.35388 5.32321 4.79627 5.96412 4.06732 6.00178C3.33838 6.03943 2.71413 5.45957 2.67303 4.70663C2.63193 3.95368 3.18954 3.31277 3.91849 3.27511ZM9.25007 5.6188C9.33041 6.43754 8.75317 7.1643 7.96076 7.24206C7.16834 7.31983 6.46083 6.71914 6.38049 5.9004C6.30014 5.08166 6.87739 4.3549 7.6698 4.27714C8.46221 4.19938 9.16972 4.80006 9.25007 5.6188Z" stroke="black" stroke-miterlimit="10" stroke-linecap="round" stroke-linejoin="round"/>
<path id="Vector 35" d="M14.8632 12.3323C14.4059 11.9343 13.7274 11.9321 13.2725 12.3271L13.1632 12.4221C12.6568 12.8619 11.9045 12.87 11.3831 12.4414L11.3202 12.3897C10.7841 11.949 10.0108 11.9574 9.49011 12.4095C8.98004 12.8525 8.22556 12.8706 7.68932 12.4528L7.58467 12.3713C7.01314 11.926 6.21478 11.9235 5.64602 12.3651L5.52895 12.456C4.99943 12.8671 4.25345 12.8548 3.73239 12.4265L3.58552 12.3057C3.09865 11.9055 2.39055 11.9353 1.94434 12.3748" stroke="black" stroke-linecap="round" stroke-linejoin="round"/>
</g>
</svg>
