<svg width="16" height="16" viewBox="0 0 16 16" fill="none" xmlns="http://www.w3.org/2000/svg">
<g id="Sport=boxing, Size=16px, weight=regular">
<path id="boxing" d="M10.5749 10.1505C10.0415 10.1505 9.34052 10.645 9.34052 11.1832C9.34052 11.7214 9.77386 12.1586 10.3073 12.1586H10.7994M6.48366 10.7516L6.46264 12.076C6.45452 12.5879 6.88286 13.0055 7.41026 12.9999L10.0564 12.9719C10.5732 12.9664 10.988 12.556 10.9836 12.0543L10.9666 10.0865M5.59591 6.62286C5.59591 6.28762 5.34213 5.98049 4.99319 5.94805C4.58988 5.90912 4.25 6.20976 4.25 6.58609V7.48605C4.25 9.38505 5.97203 9.77436 6.92595 10.1377H10.9637C11.086 9.74192 11.759 7.81697 11.7499 5.16098V4.04927M6.39124 7.62446C6.39124 7.62446 7.46071 8.04839 7.46071 10.0923M11.7317 4.17255C11.4756 7.99649 5.58445 7.99433 5.33068 4.17039C5.31709 3.98438 5.33807 4.26476 5.32162 3.76782C5.31935 3.3439 5.67962 3 6.12372 3H10.9409C11.385 3 11.743 3.3439 11.743 3.76565C11.743 4.1153 11.7453 3.98222 11.7317 4.17255Z" stroke="black" stroke-width="1.5" stroke-miterlimit="10" stroke-linecap="round" stroke-linejoin="round"/>
</g>
</svg>
