<svg width="16" height="16" viewBox="0 0 16 16" fill="none" xmlns="http://www.w3.org/2000/svg">
<g id="Sport=equestrian, Size=16px, weight=light">
<path id="Equestrian" d="M12.6291 8.40195C12.6291 8.40195 11.8034 8.73858 10.256 8.9179M12.6291 8.40195L13.6887 8.69759C14.0053 8.78571 14.1061 9.16948 13.8705 9.39184C13.6445 9.60499 11.6105 9.90575 9.3419 9.53531M12.6291 8.40195C11.2331 2.44159 6.34788 3.4653 6.34788 3.4653C2.49676 4.20567 1.91257 7.00217 2.00958 8.97683C2.04689 9.73411 2.20627 10.4816 2.47011 11.1964L2.52288 11.3393M5.01851 3.79936C4.90338 3.66256 4.83462 3.48784 4.83462 3.29827C4.83462 2.85763 5.20667 2.5 5.66508 2.5C6.12348 2.5 6.49553 2.85763 6.49553 3.29827C6.49553 3.34797 6.49074 3.39613 6.48167 3.44327M2.52288 11.3393C2.92745 11.0663 4.83675 9.96211 5.75196 9.70797C6.91716 9.38416 8.14632 9.34009 9.3419 9.53531M2.52288 11.3393C2.63269 11.5832 2.75582 11.8005 2.88641 11.9931C3.52977 12.941 4.64007 13.5 5.81752 13.5C7.76414 13.5 9.3419 11.9829 9.3419 10.1122V9.53531" stroke="black" stroke-miterlimit="10" stroke-linecap="round" stroke-linejoin="round"/>
</g>
</svg>
