<svg width="24" height="24" viewBox="0 0 24 24" fill="none" xmlns="http://www.w3.org/2000/svg">
<g id="Sport=casino, Size=24px, weight=regular">
<path id="casino" d="M10.4423 17.5277C10.0615 17.8146 9.57688 17.9939 9.05764 17.9939M11.4116 18.7111C10.7539 19.2131 9.95775 19.5 9.09236 19.5C6.98079 19.5 5.25 17.7429 5.25 15.5196C5.25 13.2963 6.98079 11.5391 9.09236 11.5391C9.99237 11.5391 10.8231 11.8619 11.4809 12.3998M15.1152 7.59458C14.6306 8.38349 14.3883 9.13655 14.319 9.81788C14.1113 11.5033 14.769 12.866 14.769 13.5831M9.23059 13.3321C10.2345 10.7861 12.1037 8.34763 13.9383 7.70216C15.2884 7.23598 16.7076 7.23598 17.7115 7.23598M9.63342 9.22076C7.63147 8.76248 6.09627 7.01964 6.09627 7.01964C6.09627 7.01964 8.10182 4.53721 10.5949 4.50026C12.0145 4.4842 13.3204 5.21967 14.1773 5.87716M18.75 15.4837C18.75 17.6622 17.0452 19.4283 14.9423 19.4283C12.8393 19.4283 11.1345 17.6622 11.1345 15.4837C11.1345 13.3052 12.8393 11.5391 14.9423 11.5391C17.0452 11.5391 18.75 13.3052 18.75 15.4837Z" stroke="black" stroke-width="1.5" stroke-miterlimit="10" stroke-linecap="round" stroke-linejoin="round"/>
</g>
</svg>
