<svg width="24" height="24" viewBox="0 0 24 24" fill="none" xmlns="http://www.w3.org/2000/svg">
<g id="Sport=canoeing, weight=light, Size=24">
<path id="Canoeing" d="M15.2769 9.24823C15.4507 10.1221 15.5554 11.0444 15.5554 12C15.5554 17.386 12.2109 21.75 12.2109 21.75C12.2109 21.75 10.149 19.0596 9.26238 15.296M8.98388 13.786C8.90723 13.2085 8.86635 12.6107 8.86635 12.0026C8.86635 6.61655 12.2109 2.25 12.2109 2.25C12.2109 2.25 13.9688 4.54697 14.9371 7.86085M10.2869 12.4241C10.2691 12.2862 10.2588 12.1456 10.2588 12C10.2588 10.5947 11.1327 9.45519 12.2083 9.45519C12.5073 9.45519 12.7909 9.54206 13.0438 9.70047M13.8819 10.6867C14.0607 11.07 14.1629 11.5197 14.1629 12C14.1629 13.4053 13.2891 14.5448 12.2134 14.5448C11.6769 14.5448 11.1914 14.2612 10.8388 13.8039M19.4391 5.07586L5.01847 19.4275M17.4615 7.80719L16.6771 7.02024L17.395 5.06053L19.4059 3.05739L20.5991 3.84178L21.4218 5.08353L19.3675 7.13011L17.4615 7.80719ZM6.96285 16.7294L7.74469 17.5163L7.02673 19.4786L5.01592 21.4792L3.82272 20.6973L3 19.453L5.05425 17.409L6.96285 16.7294Z" stroke="black" stroke-miterlimit="10" stroke-linecap="round" stroke-linejoin="round"/>
</g>
</svg>
