<svg width="16" height="16" viewBox="0 0 16 16" fill="none" xmlns="http://www.w3.org/2000/svg">
<g id="Sport=harness, weight=regular, Size=16">
<path id="harness" d="M9.55611 8.11619L9.84192 7.62481C9.93456 7.46554 9.97805 7.28251 9.96694 7.09867L9.95102 6.83525C9.93994 6.65189 9.98317 6.46932 10.0753 6.31032L10.7237 5.19186M8.27987 3.77739C8.89887 3.77739 9.35715 3.84662 9.91316 3.53291L10.7631 2.97852C10.9917 2.82941 11.2588 2.75 11.5319 2.75H11.5912L11.6096 3.12235C11.6146 3.22333 11.6525 3.3198 11.7161 3.39848C12.3049 4.12691 12.7966 4.90979 13.2246 5.74394C13.266 5.82456 13.256 5.92178 13.2 5.99299L13.0105 6.23358C12.9415 6.32118 12.8265 6.35873 12.719 6.32874C12.6582 6.31179 12.6056 6.27419 12.5667 6.22457C12.4902 6.12693 12.4057 6.03609 12.3145 5.95205L12.2558 5.90445C12.0929 5.81575 11.9105 5.77248 11.7259 5.78113C11.6629 5.78546 11.5977 5.78113 11.5347 5.77464C10.9635 5.70108 10.5596 5.1775 10.6334 4.60849M12.5576 4.64094L11.5303 5.77681M7.20931 4.82558H7.95712C8.08788 4.82558 8.21719 4.8529 8.33674 4.90579L10.2924 5.77091M6.55454 5.8899H7.18223M9.75383 7.78084C9.79231 7.76084 11.2587 8.20427 11.9303 8.40905C12.127 8.46902 12.2602 8.65005 12.2602 8.85537V9.9243C12.2602 10.0826 12.1801 10.2301 12.0472 10.3164L11.0374 10.9721M10.0232 8.84964L11.379 9.13307C11.4875 9.15575 11.5652 9.25129 11.5652 9.36198V9.57015C11.5652 9.65551 11.5186 9.73409 11.4437 9.77517L10.6335 10.2192M7.91631 8.32822C8.03098 8.43893 8.15997 8.53536 8.30213 8.61289C8.36719 8.64837 8.42666 8.69395 8.47238 8.75221L9.77114 10.4074L10.5831 11.9498C10.6162 12.0126 10.6631 12.067 10.7204 12.109L10.9441 12.2732C11.0054 12.3181 11.0547 12.3773 11.088 12.4455L11.2969 12.8742C11.3361 12.9547 11.4179 13.0058 11.5075 13.0058H12.0585C12.1879 13.0058 12.2927 12.9011 12.2927 12.7719V12.6039C12.2927 12.5426 12.2686 12.4837 12.2256 12.4399L11.5217 11.725L10.4162 10.0591L9.26725 7.6467M6.4495 6.90116H3.41505M7.88635 10.686C7.88635 12.1021 6.73654 13.25 5.31818 13.25C3.89981 13.25 2.75 12.1021 2.75 10.686C2.75 9.27001 3.89981 8.12209 5.31818 8.12209C6.73654 8.12209 7.88635 9.27001 7.88635 10.686Z" stroke="black" stroke-width="1.5" stroke-miterlimit="10" stroke-linecap="round" stroke-linejoin="round"/>
</g>
</svg>
