<svg width="16" height="16" viewBox="0 0 16 16" fill="none" xmlns="http://www.w3.org/2000/svg">
<g id="Sport=cricket, Size=16px, weight=regular">
<path id="cricket" d="M12.0083 11.4102L10.0252 9.46332C9.94725 9.38678 9.82229 9.38697 9.74456 9.46375L9.58761 9.61876M11.4142 11.997L9.43548 10.0545C9.35579 9.97623 9.3556 9.84791 9.43505 9.76944L9.58761 9.61876M9.52978 6.10398L11.8943 3.76805M10.2453 6.70955L12.5588 4.42406M9.58761 9.61876L6.94656 6.97202M5.18999 3.09982L10.405 8.627C10.5535 8.78437 10.5491 9.02966 10.3951 9.18176L9.14396 10.4175C8.98058 10.5789 8.71621 10.5805 8.55085 10.4211L3.09578 5.16246C2.99574 5.06602 2.9713 4.91629 3.03558 4.79367L3.60346 3.71038C3.63392 3.65226 3.68202 3.60502 3.74102 3.57525L4.81328 3.03433C4.93957 2.97062 5.0933 2.99735 5.18999 3.09982ZM11.5468 11.6547L11.2761 12.3746C11.2541 12.433 11.2692 12.4987 11.3145 12.542L11.7473 12.9558C11.8096 13.0154 11.9087 13.0146 11.97 12.9541L12.9535 11.9827C13.0162 11.9208 13.0154 11.82 12.9517 11.7591L12.5189 11.3453C12.4755 11.3038 12.412 11.2902 12.3551 11.3103L11.6423 11.5616C11.5981 11.5772 11.5631 11.6113 11.5468 11.6547ZM12.8313 5.28672C12.8313 6.22157 12.0642 6.97942 11.1179 6.97942C10.1715 6.97942 9.40441 6.22157 9.40441 5.28672C9.40441 4.35186 10.1715 3.59401 11.1179 3.59401C12.0642 3.59401 12.8313 4.35186 12.8313 5.28672Z" stroke="black" stroke-width="1.5" stroke-linecap="round" stroke-linejoin="round"/>
</g>
</svg>
