<svg width="16" height="16" viewBox="0 0 16 16" fill="none" xmlns="http://www.w3.org/2000/svg">
<g id="Sport=cs-go, weight=regular, Size=16">
<path id="cs-go" d="M5.8728 8.91148H6.81438C7.35688 8.91148 7.79338 8.4811 7.79338 7.9462V7.23915M6.40907 7.30065C6.40907 7.30065 6.38412 8.04459 7.00145 8.16755M4.05827 5.44385H6.78325M4.05822 6.17551H6.78319M3.32865 8.61636L4.30141 7.58344M9.39053 7.23916V6.25544M13.75 5.93612C13.75 5.88693 13.7064 5.8439 13.6565 5.8439L12.7196 5.83734V5.8189C12.7196 5.64675 12.5762 5.50533 12.4016 5.50533H11.7032V5.25326C11.7032 5.0811 11.5598 4.93969 11.3852 4.93969H11.3166C11.3852 4.82902 11.4226 4.69376 11.4039 4.55235C11.3727 4.28797 11.1483 4.07278 10.8801 4.04819C10.5247 4.0113 10.2191 4.28183 10.2191 4.62613C10.2191 4.74295 10.2566 4.84747 10.3127 4.93969H9.18629C9.15207 4.49844 8.86602 4.38327 8.69142 4.38327H7.99302V3.97134C7.99302 3.84837 7.89325 3.75 7.76854 3.75H7.463C7.33828 3.75 7.23851 3.84837 7.23851 3.97134V4.37712H2.89851C2.77379 4.37712 2.67402 4.4755 2.67402 4.59846V5.14873H2.46825C2.34977 5.14873 2.25 5.24711 2.25 5.36392V6.07098C2.25 6.3415 2.47448 6.56284 2.74885 6.56284H3.26017V9.78146C3.2477 10.1565 3.45971 10.5131 3.82138 10.6853C3.95233 10.7467 4.09575 10.7775 4.2454 10.7775V12.0778C4.2454 12.1701 4.32647 12.25 4.42 12.25H5.45512C5.55489 12.25 5.63595 12.1701 5.63595 12.0717V10.7775C5.7669 10.7775 5.87291 10.673 5.87291 10.5439V7.233H9.39314V11.4077C9.8234 11.4077 10.481 11.0634 10.481 10.6392V7.12848H11.3042C11.5224 7.12848 11.7032 6.95018 11.7032 6.73499H12.4016C12.5762 6.73499 12.7196 6.59358 12.7196 6.42143L13.6565 6.42798C13.7064 6.42798 13.75 6.38494 13.75 6.33576V5.93612Z" stroke="black" stroke-width="1.5" stroke-miterlimit="10" stroke-linecap="round" stroke-linejoin="round"/>
</g>
</svg>
