<svg width="24" height="24" viewBox="0 0 24 24" fill="none" xmlns="http://www.w3.org/2000/svg">
<g id="Sport=biathlon, Size=24px, weight=light">
<path id="Vector" d="M4.5 5.25H18C18.8284 5.25 19.5 5.92157 19.5 6.75V14.25C19.5 15.0784 18.8284 15.75 18 15.75H4.5M12 10.5C12 11.3284 11.3284 12 10.5 12C9.67157 12 9 11.3284 9 10.5C9 9.67157 9.67157 9 10.5 9C11.3284 9 12 9.67157 12 10.5ZM7.5 10.5C7.5 11.3284 6.82843 12 6 12C5.17157 12 4.5 11.3284 4.5 10.5C4.5 9.67157 5.17157 9 6 9C6.82843 9 7.5 9.67157 7.5 10.5ZM16.5 10.5C16.5 11.3284 15.8284 12 15 12C14.1716 12 13.5 11.3284 13.5 10.5C13.5 9.67157 14.1716 9 15 9C15.8284 9 16.5 9.67157 16.5 10.5ZM14.5 15.75H16.375V20.125C16.375 20.4702 16.0952 20.75 15.75 20.75H15.125C14.7798 20.75 14.5 20.4702 14.5 20.125V15.75Z" stroke="black" stroke-miterlimit="10" stroke-linecap="round" stroke-linejoin="round"/>
</g>
</svg>
