<svg width="33" height="32" viewBox="0 0 33 32" fill="none" xmlns="http://www.w3.org/2000/svg">
<g id="Sport=boat-racing, Size=32px, weight=regular">
<path id="boat-racing" d="M0.285187 10.9914C-0.0398871 11.2482 -0.0953083 11.7198 0.161401 12.0449C0.41811 12.3699 0.889738 12.4254 1.21481 12.1686L0.285187 10.9914ZM4.40467 8.69398L3.98885 8.06981L3.96363 8.0866L3.93986 8.10538L4.40467 8.69398ZM9.66264 6.42758L9.57171 5.68312L9.66264 6.42758ZM13.5095 6.82749L13.2783 7.54101L13.2857 7.54332L13.5095 6.82749ZM16.9654 7.90795L17.2659 7.22079L17.2284 7.20436L17.1892 7.19211L16.9654 7.90795ZM19.17 8.15926L19.217 8.90779L19.17 8.15926ZM25.6638 8.3373L25.5423 9.07739L25.5511 9.07885L25.56 9.08009L25.6638 8.3373ZM27.1425 8.54385L27.0387 9.28664L27.1685 9.30476L27.2967 9.27782L27.1425 8.54385ZM29.3855 8.07253L29.2797 7.33003L29.2554 7.3335L29.2313 7.33856L29.3855 8.07253ZM30.0482 8.15926L30.7112 7.80868L30.657 7.70621L30.5744 7.62488L30.0482 8.15926ZM29.7644 9.02598L29.2496 8.48062V8.48062L29.7644 9.02598ZM21.5132 14.929L21.8879 15.5787L21.9121 15.5648L21.9352 15.549L21.5132 14.929ZM9.66184 8.2776L9.87531 8.99671L9.88846 8.99254L9.66184 8.2776ZM8.67666 9.00542L8.026 8.63241L7.98529 8.70341L7.96086 8.78152L8.67666 9.00542ZM8.26379 10.3253L7.548 10.1014V10.1014L8.26379 10.3253ZM8.75816 10.8567L8.51888 10.1459H8.51888L8.75816 10.8567ZM0.7872 17.657C0.412524 17.8336 0.251959 18.2806 0.428568 18.6552C0.605177 19.0299 1.05208 19.1905 1.42676 19.0139L0.7872 17.657ZM11.4294 13.4698L11.136 12.7796L11.1227 12.7853L11.1096 12.7914L11.4294 13.4698ZM21.0285 10.1007L20.8423 9.37414L20.8332 9.37647L20.8242 9.37902L21.0285 10.1007ZM4.47356 18.8772V18.1272C4.26071 18.1272 4.05788 18.2176 3.91563 18.3759L4.47356 18.8772ZM4.51048 18.8772L5.13914 18.4681C5.00076 18.2555 4.76423 18.1272 4.51048 18.1272V18.8772ZM10.4971 18.8772V18.1272C10.2843 18.1272 10.0816 18.2175 9.93933 18.3758L10.4971 18.8772ZM10.5331 18.8772L11.1618 18.4681C11.0234 18.2555 10.7868 18.1272 10.5331 18.1272V18.8772ZM16.5188 18.8772V18.1272C16.306 18.1272 16.1032 18.2176 15.9609 18.3759L16.5188 18.8772ZM16.5548 18.8772L17.1834 18.4681C17.045 18.2555 16.8085 18.1272 16.5548 18.1272V18.8772ZM22.5405 18.8772V18.1272C22.3276 18.1272 22.1248 18.2176 21.9826 18.3759L22.5405 18.8772ZM22.5764 18.8772L23.2051 18.4681C23.0667 18.2555 22.8302 18.1272 22.5764 18.1272V18.8772ZM29.12 19.3784C29.3968 19.0703 29.3715 18.5962 29.0634 18.3193C28.7553 18.0424 28.2811 18.0678 28.0043 18.3759L29.12 19.3784ZM7.42881 22.8682C7.0146 22.8682 6.67881 23.204 6.67881 23.6182C6.67881 24.0325 7.0146 24.3682 7.42881 24.3682V22.8682ZM7.46479 23.6182L8.09345 23.2092C7.95507 22.9965 7.71853 22.8682 7.46479 22.8682V23.6182ZM13.4505 23.6182V22.8682C13.2377 22.8682 13.0349 22.9587 12.8926 23.117L13.4505 23.6182ZM13.4865 23.6182L14.1151 23.2092C13.9767 22.9965 13.7402 22.8682 13.4865 22.8682V23.6182ZM19.4721 23.6182V22.8682C19.2593 22.8682 19.0565 22.9587 18.9143 23.117L19.4721 23.6182ZM19.5081 23.6182L20.1368 23.2092C19.9984 22.9965 19.7619 22.8682 19.5081 22.8682V23.6182ZM26.0517 24.1195C26.3285 23.8114 26.3032 23.3372 25.9951 23.0604C25.687 22.7835 25.2128 22.8089 24.936 23.117L26.0517 24.1195ZM1.18143 19.8345C0.769267 19.7934 0.401805 20.0942 0.360684 20.5063C0.319563 20.9185 0.620356 21.286 1.03252 21.3271L1.18143 19.8345ZM1.21481 12.1686L4.86948 9.28258L3.93986 8.10538L0.285187 10.9914L1.21481 12.1686ZM4.82049 9.31815C5.28976 9.00553 6.11813 8.51272 7.04602 8.07329C7.98612 7.62809 8.96502 7.26837 9.75358 7.17205L9.57171 5.68312C8.54212 5.80888 7.38959 6.25089 6.40402 6.71763C5.40623 7.19015 4.51468 7.7195 3.98885 8.06981L4.82049 9.31815ZM9.75358 7.17205C10.0913 7.1308 10.4536 7.06881 10.997 7.08949C11.538 7.11008 12.2733 7.21535 13.2783 7.54097L13.7406 6.11401C12.618 5.75025 11.7463 5.61692 11.054 5.59057C10.3642 5.56432 9.86687 5.64706 9.57171 5.68312L9.75358 7.17205ZM13.2857 7.54332L16.7416 8.62378L17.1892 7.19211L13.7333 6.11166L13.2857 7.54332ZM16.6649 8.5951C17.0545 8.76551 17.9823 8.98534 19.217 8.90779L19.123 7.41074C18.0772 7.47642 17.3958 7.27761 17.2659 7.22079L16.6649 8.5951ZM19.217 8.90779C19.6035 8.88351 19.9475 8.83481 20.2724 8.79344C20.6017 8.75152 20.9376 8.71321 21.3568 8.69788C22.195 8.66723 23.4092 8.72715 25.5423 9.07739L25.7853 7.59721C23.593 7.23724 22.2729 7.16338 21.302 7.19889C20.8165 7.21664 20.429 7.26139 20.083 7.30545C19.7325 7.35006 19.4491 7.39026 19.123 7.41074L19.217 8.90779ZM25.56 9.08009L27.0387 9.28664L27.2462 7.80106L25.7676 7.59451L25.56 9.08009ZM27.2967 9.27782L29.5398 8.8065L29.2313 7.33856L26.9882 7.80988L27.2967 9.27782ZM29.4914 8.81503C29.5347 8.80884 29.5744 8.80392 29.6117 8.80099C29.6497 8.798 29.6767 8.7978 29.694 8.79878C29.7131 8.79985 29.7049 8.80155 29.6792 8.79324C29.6524 8.78458 29.5882 8.75892 29.5219 8.69364L30.5744 7.62488C30.3014 7.35607 29.9558 7.31116 29.7785 7.30116C29.5777 7.28983 29.3872 7.31472 29.2797 7.33003L29.4914 8.81503ZM29.3851 8.50985C29.3864 8.51216 29.3749 8.49073 29.3669 8.46267C29.3588 8.43438 29.3553 8.40393 29.3579 8.37503C29.3606 8.34523 29.3683 8.3356 29.3613 8.34862C29.3531 8.36378 29.325 8.40943 29.2496 8.48062L30.2793 9.57135C30.6262 9.24384 30.8178 8.88373 30.8517 8.51116C30.8851 8.14521 30.7532 7.88813 30.7112 7.80868L29.3851 8.50985ZM29.2496 8.48062C28.8751 8.83409 27.9393 9.54313 26.5099 10.5605C25.0988 11.5649 23.2511 12.839 21.0913 14.309L21.9352 15.549C24.0974 14.0774 25.9556 12.7962 27.3797 11.7826C28.7855 10.782 29.8143 10.0103 30.2793 9.57135L29.2496 8.48062ZM21.1386 14.2793C18.1131 16.0239 15.9018 16.8848 10.6552 18.486L11.093 19.9206C16.3833 18.3062 18.7188 17.4061 21.8879 15.5787L21.1386 14.2793ZM13.6823 6.21643L9.43522 7.56265L9.88846 8.99254L14.1355 7.64632L13.6823 6.21643ZM9.4484 7.55861C9.26697 7.61247 9.01574 7.71912 8.76751 7.87918C8.52157 8.03775 8.2269 8.28197 8.026 8.63241L9.32732 9.37844C9.36704 9.30915 9.4509 9.22331 9.58036 9.13984C9.70752 9.05785 9.82857 9.01045 9.87527 8.99659L9.4484 7.55861ZM7.96086 8.78152L7.548 10.1014L8.97959 10.5492L9.39246 9.22932L7.96086 8.78152ZM8.99743 11.5675L17.4071 8.73659L16.9285 7.31498L8.51888 10.1459L8.99743 11.5675ZM7.548 10.1014C7.29464 10.9114 8.01273 11.899 8.99743 11.5675L8.51888 10.1459C8.67674 10.0927 8.82816 10.1564 8.90667 10.2408C8.98229 10.3221 9.01349 10.4408 8.97959 10.5492L7.548 10.1014ZM1.42676 19.0139L11.7492 14.1483L11.1096 12.7914L0.7872 17.657L1.42676 19.0139ZM11.7228 14.1601C15.2692 12.6526 16.8976 12.0497 21.2328 10.8223L20.8242 9.37902C16.4262 10.6242 14.7383 11.2484 11.136 12.7796L11.7228 14.1601ZM21.2147 10.8272L27.3673 9.25011L26.9949 7.79708L20.8423 9.37414L21.2147 10.8272ZM4.47356 19.6272H4.51048V18.1272H4.47356V19.6272ZM4.51048 18.8772C3.88183 19.2862 3.88205 19.2865 3.88229 19.2869C3.88238 19.287 3.88263 19.2874 3.88282 19.2877C3.88319 19.2882 3.8836 19.2889 3.88405 19.2896C3.88495 19.2909 3.88601 19.2925 3.88723 19.2944C3.88967 19.2981 3.89274 19.3027 3.89646 19.3082C3.90388 19.3191 3.91384 19.3337 3.9263 19.3514C3.95121 19.3867 3.98622 19.435 4.03098 19.4931C4.12023 19.6091 4.24969 19.7662 4.41662 19.94C4.74609 20.2831 5.24448 20.7149 5.89113 21.0088C6.5489 21.3078 7.3627 21.4638 8.27859 21.2347C9.18595 21.0078 10.1169 20.4221 11.0549 19.3785L9.93933 18.3758C9.14089 19.2641 8.45531 19.6443 7.91459 19.7796C7.38241 19.9127 6.91659 19.8272 6.51182 19.6433C6.09592 19.4542 5.74881 19.1616 5.49843 18.9009C5.37543 18.7729 5.28137 18.6584 5.21958 18.5781C5.18882 18.5382 5.16643 18.5072 5.15282 18.4878C5.14602 18.4782 5.14145 18.4715 5.13915 18.4681C5.13799 18.4664 5.13741 18.4655 5.13741 18.4655C5.13741 18.4655 5.13755 18.4657 5.13784 18.4662C5.13798 18.4664 5.13816 18.4666 5.13838 18.467C5.13849 18.4671 5.13868 18.4674 5.13873 18.4675C5.13893 18.4678 5.13914 18.4681 4.51048 18.8772ZM10.4971 19.6272H10.5331V18.1272H10.4971V19.6272ZM10.5331 18.8772C9.90444 19.2862 9.90467 19.2865 9.90491 19.2869C9.905 19.287 9.90525 19.2874 9.90543 19.2877C9.9058 19.2882 9.90621 19.2889 9.90666 19.2896C9.90756 19.2909 9.90862 19.2925 9.90984 19.2944C9.91228 19.2981 9.91536 19.3027 9.91907 19.3082C9.92649 19.3191 9.93645 19.3337 9.94892 19.3514C9.97382 19.3867 10.0088 19.435 10.0536 19.4931C10.1428 19.6091 10.2723 19.7662 10.4392 19.94C10.7687 20.283 11.267 20.7149 11.9136 21.0088C12.5713 21.3078 13.385 21.4638 14.3008 21.2347C15.2081 21.0077 16.1389 20.422 17.0766 19.3784L15.9609 18.3759C15.1627 19.2641 14.4773 19.6443 13.9368 19.7796C13.4048 19.9127 12.9391 19.8273 12.5343 19.6433C12.1185 19.4542 11.7714 19.1616 11.521 18.901C11.398 18.7729 11.304 18.6584 11.2422 18.5781C11.2114 18.5382 11.1891 18.5072 11.1754 18.4878C11.1686 18.4782 11.1641 18.4715 11.1618 18.4681C11.1606 18.4664 11.16 18.4655 11.16 18.4655C11.16 18.4655 11.1602 18.4657 11.1605 18.4662C11.1606 18.4664 11.1608 18.4666 11.161 18.467C11.1611 18.4671 11.1613 18.4674 11.1614 18.4675C11.1615 18.4678 11.1618 18.4681 10.5331 18.8772ZM16.5188 19.6272H16.5548V18.1272H16.5188V19.6272ZM16.5548 18.8772C15.9261 19.2862 15.9263 19.2865 15.9266 19.2869C15.9267 19.287 15.9269 19.2874 15.9271 19.2877C15.9275 19.2882 15.9279 19.2889 15.9283 19.2896C15.9292 19.2909 15.9303 19.2925 15.9315 19.2944C15.9339 19.2981 15.937 19.3027 15.9407 19.3082C15.9482 19.3191 15.9581 19.3337 15.9706 19.3514C15.9955 19.3867 16.0305 19.435 16.0752 19.4931C16.1645 19.6091 16.2939 19.7662 16.4609 19.94C16.7903 20.283 17.2887 20.7149 17.9353 21.0088C18.593 21.3078 19.4067 21.4638 20.3225 21.2347C21.2298 21.0077 22.1606 20.422 23.0983 19.3784L21.9826 18.3759C21.1844 19.2641 20.499 19.6443 19.9584 19.7796C19.4264 19.9127 18.9607 19.8273 18.556 19.6433C18.1402 19.4542 17.7931 19.1616 17.5427 18.901C17.4197 18.7729 17.3256 18.6584 17.2639 18.5781C17.2331 18.5382 17.2107 18.5072 17.1971 18.4878C17.1903 18.4782 17.1857 18.4715 17.1834 18.4681C17.1823 18.4664 17.1817 18.4655 17.1817 18.4655C17.1817 18.4655 17.1818 18.4657 17.1821 18.4662C17.1823 18.4664 17.1824 18.4666 17.1827 18.467C17.1828 18.4671 17.183 18.4674 17.183 18.4675C17.1832 18.4678 17.1834 18.4681 16.5548 18.8772ZM22.5405 19.6272H22.5764V18.1272H22.5405V19.6272ZM22.5764 18.8772C21.9478 19.2862 21.948 19.2865 21.9482 19.2869C21.9483 19.287 21.9486 19.2874 21.9488 19.2877C21.9491 19.2882 21.9495 19.2889 21.95 19.2896C21.9509 19.2909 21.952 19.2925 21.9532 19.2944C21.9556 19.2981 21.9587 19.3027 21.9624 19.3082C21.9698 19.3191 21.9798 19.3337 21.9923 19.3514C22.0172 19.3867 22.0522 19.435 22.0969 19.4931C22.1862 19.6091 22.3156 19.7662 22.4825 19.94C22.812 20.283 23.3103 20.7149 23.9569 21.0088C24.6146 21.3078 25.4284 21.4638 26.3442 21.2347C27.2514 21.0077 28.1822 20.422 29.12 19.3784L28.0043 18.3759C27.2061 19.2641 26.5207 19.6443 25.9801 19.7796C25.4481 19.9127 24.9824 19.8273 24.5777 19.6433C24.1618 19.4542 23.8147 19.1616 23.5644 18.901C23.4414 18.7729 23.3473 18.6584 23.2855 18.5781C23.2548 18.5382 23.2324 18.5072 23.2188 18.4878C23.212 18.4782 23.2074 18.4715 23.2051 18.4681C23.2039 18.4664 23.2034 18.4655 23.2034 18.4655C23.2034 18.4655 23.2035 18.4657 23.2038 18.4662C23.2039 18.4664 23.2041 18.4666 23.2043 18.467C23.2044 18.4671 23.2046 18.4674 23.2047 18.4675C23.2049 18.4678 23.2051 18.4681 22.5764 18.8772ZM7.42881 24.3682H7.46479V22.8682H7.42881V24.3682ZM7.46479 23.6182C6.83613 24.0273 6.83636 24.0276 6.8366 24.028C6.83669 24.0281 6.83694 24.0285 6.83712 24.0288C6.83749 24.0293 6.8379 24.03 6.83835 24.0307C6.83925 24.032 6.84031 24.0336 6.84153 24.0355C6.84397 24.0392 6.84705 24.0438 6.85076 24.0492C6.85818 24.0602 6.86814 24.0747 6.88061 24.0925C6.90551 24.1278 6.94052 24.1761 6.98527 24.2342C7.07453 24.3502 7.20398 24.5073 7.3709 24.6811C7.70035 25.0241 8.1987 25.456 8.84529 25.7499C9.503 26.0489 10.3167 26.2049 11.2325 25.9758C12.1398 25.7488 13.0706 25.1631 14.0083 24.1195L12.8926 23.117C12.0944 24.0052 11.409 24.3854 10.8685 24.5207C10.3365 24.6538 9.87075 24.5683 9.46603 24.3844C9.05019 24.1953 8.70311 23.9027 8.45273 23.6421C8.32974 23.514 8.23568 23.3995 8.17389 23.3192C8.14313 23.2793 8.12074 23.2483 8.10713 23.2289C8.10033 23.2193 8.09576 23.2126 8.09345 23.2092C8.0923 23.2075 8.09172 23.2066 8.09172 23.2066C8.09172 23.2066 8.09186 23.2068 8.09215 23.2072C8.09229 23.2075 8.09247 23.2077 8.09269 23.2081C8.0928 23.2082 8.09299 23.2085 8.09304 23.2086C8.09324 23.2089 8.09345 23.2092 7.46479 23.6182ZM13.4505 24.3682H13.4865V22.8682H13.4505V24.3682ZM13.4865 23.6182C12.8578 24.0273 12.858 24.0276 12.8583 24.028C12.8584 24.0281 12.8586 24.0285 12.8588 24.0288C12.8592 24.0293 12.8596 24.03 12.86 24.0307C12.8609 24.032 12.862 24.0336 12.8632 24.0355C12.8656 24.0392 12.8687 24.0438 12.8724 24.0493C12.8798 24.0602 12.8898 24.0748 12.9023 24.0925C12.9272 24.1278 12.9622 24.1761 13.0069 24.2342C13.0962 24.3502 13.2256 24.5073 13.3926 24.6811C13.722 25.0241 14.2204 25.456 14.867 25.7499C15.5247 26.0489 16.3384 26.2049 17.2542 25.9758C18.1615 25.7488 19.0923 25.1631 20.03 24.1195L18.9143 23.117C18.1161 24.0052 17.4307 24.3854 16.8901 24.5207C16.3581 24.6538 15.8924 24.5683 15.4877 24.3844C15.0719 24.1953 14.7248 23.9027 14.4744 23.6421C14.3514 23.514 14.2573 23.3995 14.1956 23.3192C14.1648 23.2793 14.1424 23.2483 14.1288 23.2289C14.122 23.2193 14.1174 23.2126 14.1151 23.2092C14.114 23.2075 14.1134 23.2066 14.1134 23.2066C14.1134 23.2066 14.1135 23.2068 14.1138 23.2072C14.114 23.2075 14.1141 23.2077 14.1144 23.2081C14.1145 23.2082 14.1146 23.2085 14.1147 23.2086C14.1149 23.2089 14.1151 23.2092 13.4865 23.6182ZM19.4721 24.3682H19.5081V22.8682H19.4721V24.3682ZM19.5081 23.6182C18.8795 24.0273 18.8797 24.0276 18.8799 24.028C18.88 24.0281 18.8803 24.0285 18.8805 24.0288C18.8808 24.0293 18.8812 24.03 18.8817 24.0307C18.8826 24.032 18.8836 24.0336 18.8849 24.0355C18.8873 24.0392 18.8904 24.0438 18.8941 24.0493C18.9015 24.0602 18.9115 24.0748 18.9239 24.0925C18.9489 24.1278 18.9839 24.1761 19.0286 24.2342C19.1179 24.3502 19.2473 24.5073 19.4142 24.6811C19.7437 25.0241 20.242 25.456 20.8886 25.7499C21.5463 26.0489 22.3601 26.2049 23.2759 25.9758C24.1831 25.7488 25.1139 25.1631 26.0517 24.1195L24.936 23.117C24.1378 24.0052 23.4524 24.3854 22.9118 24.5207C22.3798 24.6538 21.9141 24.5683 21.5094 24.3844C21.0935 24.1953 20.7464 23.9027 20.4961 23.6421C20.3731 23.514 20.279 23.3995 20.2172 23.3192C20.1865 23.2793 20.1641 23.2483 20.1505 23.2289C20.1437 23.2193 20.1391 23.2126 20.1368 23.2092C20.1356 23.2075 20.1351 23.2066 20.1351 23.2066C20.135 23.2066 20.1352 23.2068 20.1355 23.2072C20.1356 23.2075 20.1358 23.2077 20.136 23.2081C20.1361 23.2082 20.1363 23.2085 20.1364 23.2086C20.1366 23.2089 20.1368 23.2092 19.5081 23.6182ZM1.03252 21.3271C2.27569 21.4511 3.64305 20.9239 5.03148 19.3784L3.91563 18.3759C2.74845 19.6752 1.81964 19.8982 1.18143 19.8345L1.03252 21.3271Z" fill="black"/>
</g>
</svg>
