<svg width="16" height="16" viewBox="0 0 16 16" fill="none" xmlns="http://www.w3.org/2000/svg">
<g id="Sport=motor, Size=16px, weight=regular">
<path id="Vector" d="M8.00383 5.58665V6.02337M6.47677 6.00384L6.69076 6.38118M5.35928 7.14213L5.72973 7.3601M4.94971 8.69761H5.37845M5.35928 10.2523L5.72973 10.0343M10.6484 10.2523L10.2772 10.0343M11.0572 8.69761H10.6285M10.6484 7.14213L10.2772 7.3601M9.53013 6.00384L9.31614 6.38118M9.19266 7.48588L8.42414 8.2687M8.42414 8.2687C8.65657 8.50545 8.65702 8.88942 8.42459 9.12618C8.19216 9.36293 7.81531 9.36293 7.58288 9.12618C7.35045 8.88942 7.35045 8.50556 7.58288 8.2688C7.81531 8.03205 8.19171 8.03194 8.42414 8.2687ZM10.0195 12.65L9.03926 10.9703H6.96764L5.98744 12.65M9.39514 11.5804H11.1063C11.655 10.9676 12.0169 10.2056 12.1482 9.38703C12.2794 8.56848 12.1742 7.72873 11.8454 6.96997C11.5166 6.2112 10.9783 5.56616 10.2962 5.11333C9.61399 4.6605 8.81731 4.41941 8.00307 4.41941C7.18883 4.41941 6.39214 4.6605 5.70997 5.11333C5.0278 5.56616 4.48955 6.2112 4.16075 6.96997C3.83194 7.72873 3.72675 8.56848 3.85797 9.38703C3.98919 10.2056 4.35117 10.9676 4.89985 11.5804H6.61176M11.5366 12.65C12.3193 11.9233 12.8679 10.9725 13.1105 9.92237C13.353 8.87228 13.2781 7.77201 12.8956 6.76608C12.513 5.76014 11.8408 4.89557 10.9671 4.2859C10.0934 3.67623 9.05906 3.34998 8 3.34998C6.94094 3.34998 5.90665 3.67623 5.03294 4.2859C4.15923 4.89557 3.48697 5.76014 3.10444 6.76608C2.72191 7.77201 2.64699 8.87228 2.88953 9.92237C3.13207 10.9725 3.68073 11.9233 4.46344 12.65H11.5366Z" stroke="black" stroke-width="1.5" stroke-linecap="round" stroke-linejoin="round"/>
</g>
</svg>
