<svg width="32" height="32" viewBox="0 0 32 32" fill="none" xmlns="http://www.w3.org/2000/svg">
<g id="Sport=esoccer, stroke width=1.5px">
<path id="Vector" d="M13.4784 11.7319C13.4784 11.7319 12.4586 14.0378 12.3033 15.5013C12.3033 15.5013 13.7224 17.4078 15.0306 18.5386L18.9976 17.6739C18.9976 17.6739 19.7172 16.4144 20.0204 14.7306M13.4784 11.7319C12.3109 10.5422 10.8031 10.0544 10.8031 10.0544M13.4784 11.7319C14.7334 11.2663 15.8898 11.0421 16.6354 10.9362M12.4793 6.8318C12.4793 6.8318 11.1728 8.36928 10.8031 10.0544M10.8031 10.0544C10.8031 10.0544 8.63226 11.1966 7.98186 12.688C7.98186 12.688 7.87652 14.2702 8.79295 16.071L12.3033 15.4996M8.79294 16.0727C8.79294 16.0727 7.80251 17.8292 8.08354 19.4107C8.08354 19.4107 8.94062 21.6723 10.6838 22.5147C10.6838 22.5147 12.3393 22.6183 14.1428 21.9383C14.1428 21.9383 14.6602 19.322 15.0295 18.5379M6.3317 12.4277C6.3317 12.4277 6.92709 12.375 7.97819 12.508M6.21669 19.4217L8.03353 19.2967M10.6848 22.5147C10.6848 22.5147 10.4181 23.3621 10.5898 24.5149M14.1438 21.9383C14.1438 21.9383 16.1833 23.2834 17.3661 23.3718M17.3661 23.3718C17.3661 23.3718 19.6867 22.3667 20.3664 20.8145M17.3661 23.3718C17.3661 23.3718 17.4105 24.8582 17.2551 25.5193M20.3664 20.8145C20.3664 20.8145 19.6127 18.5236 18.9996 17.6735M20.3664 20.8145C23.7661 20.3125 24.3131 16.3807 24.3131 16.3807C24.2243 15.7305 23.9471 15.3641 23.7481 14.9138M22.6706 19.6821C22.6706 19.6821 23.1707 20.5285 22.8913 21.9946M16.6354 6.51751C16.1895 6.4544 15.7339 6.42175 15.2706 6.42175C9.94051 6.42175 5.61963 10.7426 5.61963 16.0727C5.61963 21.4028 9.94051 25.7237 15.2706 25.7237C20.6006 25.7237 24.9215 21.4028 24.9215 16.0727C24.9215 15.6173 24.89 15.1692 24.829 14.7306M20.4155 7.93488C20.4155 9.82808 21.5446 11.1474 23.3787 11.1474C24.3548 11.1474 25.3404 10.96 26.2383 9.83757M20.4155 7.93488C20.4155 6.04168 21.5446 4.74365 23.3787 4.74365C25.2127 4.74365 26.38 6.04168 26.38 7.93488H20.4155Z" stroke="black" stroke-width="1.5" stroke-miterlimit="10" stroke-linecap="round" stroke-linejoin="round"/>
</g>
</svg>
