<svg width="24" height="24" viewBox="0 0 24 24" fill="none" xmlns="http://www.w3.org/2000/svg">
<g id="Sport=overwatch, weight=light, Size=24">
<path id="overwatch" d="M7.61088 6.387C8.82063 5.4397 10.3444 4.875 12 4.875C13.6556 4.875 15.1794 5.4397 16.3891 6.387M6.11512 7.9821C5.33266 9.12594 4.875 10.5095 4.875 12C4.875 15.935 8.06497 19.125 12 19.125C15.935 19.125 19.125 15.935 19.125 12C19.125 10.5095 18.6673 9.12594 17.8849 7.9821M7.3151 17.0486L11.0215 13.2334C11.3113 12.9351 11.4734 12.5355 11.4734 12.1195V8.84445M16.9462 17.0486L13.2962 13.2317C13.0117 12.9342 12.8529 12.5384 12.8529 12.1268V8.84445" stroke="black" stroke-linecap="round" stroke-linejoin="round"/>
</g>
</svg>
