<svg width="16" height="16" viewBox="0 0 16 16" fill="none" xmlns="http://www.w3.org/2000/svg">
<g id="Sport=indy-racing, weight=light, Size=16">
<path id="Indy Racing" d="M4.73069 4.72773C5.64187 3.87288 6.84178 3.25015 8.40542 3.25015C8.40542 3.25015 14 3.14825 14 8.27354C14 8.27354 13.9231 11.1362 12.2564 12.5195C12.2564 12.5195 11.9958 12.7497 11.2927 12.7497H3.5439C3.5439 12.7497 3.1933 12.7686 2.80333 12.5138C2.80333 12.5138 1.88465 12.059 2.01214 10.3437M2.08907 10.7457C2.08907 10.7457 2.94401 10.7796 4.62201 10.5966M2.33835 11.7156C2.33835 11.7156 3.19329 11.7495 4.87129 11.5665M2.16213 9.43603C2.30274 8.86614 2.82583 7.01492 4.03699 5.48639L4.1701 5.54489C4.1701 5.54489 5.57625 6.22423 7.71734 5.82417C7.71734 5.82417 9.27722 5.25805 9.67469 6.5507C9.67469 6.5507 10.164 7.90373 8.54415 8.5208C8.54415 8.5208 5.82373 9.53605 2.24462 9.43792H2.16213V9.43603Z" stroke="black" stroke-miterlimit="10" stroke-linecap="round" stroke-linejoin="round"/>
</g>
</svg>
