<svg width="24" height="24" viewBox="0 0 24 24" fill="none" xmlns="http://www.w3.org/2000/svg">
<g id="Sport=cs-go, Size=24px, weight=light">
<path id="cs-go" d="M8.8092 13.3672H10.2216C11.0353 13.3672 11.6901 12.7216 11.6901 11.9193V10.8587M9.6136 10.951C9.6136 10.951 9.57618 12.0669 10.5022 12.2513M6.08741 8.16577H10.1749M6.08733 9.26327H10.1748M4.99298 12.9245L6.45212 11.3752M14.0858 10.8587V9.38315M20.625 8.90418C20.625 8.8304 20.5595 8.76584 20.4847 8.76584L19.0795 8.75601V8.72835C19.0795 8.47012 18.8643 8.258 18.6024 8.258H17.5548V7.87988C17.5548 7.62165 17.3397 7.40954 17.0778 7.40954H16.9749C17.0778 7.24354 17.1339 7.04064 17.1059 6.82853C17.0591 6.43196 16.7224 6.10918 16.3202 6.07229C15.787 6.01695 15.3287 6.42274 15.3287 6.9392C15.3287 7.11442 15.3848 7.2712 15.469 7.40954H13.7794C13.7281 6.74766 13.299 6.57491 13.0371 6.57491H11.9895V5.95701C11.9895 5.77256 11.8399 5.625 11.6528 5.625H11.1945C11.0074 5.625 10.8578 5.77256 10.8578 5.95701V6.56569H4.34776C4.16069 6.56569 4.01104 6.71325 4.01104 6.89769V7.7231H3.70237C3.52466 7.7231 3.375 7.87066 3.375 8.04589V9.10646C3.375 9.51225 3.71172 9.84426 4.12328 9.84426H4.89026V14.6722C4.87155 15.2348 5.18957 15.7697 5.73207 16.0279C5.92849 16.1201 6.14362 16.1662 6.36811 16.1662V18.1168C6.36811 18.2551 6.4897 18.375 6.63 18.375H8.18268C8.33233 18.375 8.45393 18.2551 8.45393 18.1076V16.1662C8.65035 16.1662 8.80936 16.0094 8.80936 15.8158V10.8495H14.0897V17.1115C14.7351 17.1115 15.7216 16.5951 15.7216 15.9587V10.6927H16.9562C17.2836 10.6927 17.5548 10.4253 17.5548 10.1025H18.6024C18.8643 10.1025 19.0795 9.89037 19.0795 9.63214L20.4847 9.64197C20.5595 9.64197 20.625 9.57742 20.625 9.50364V8.90418Z" stroke="black" stroke-miterlimit="10" stroke-linecap="round" stroke-linejoin="round"/>
</g>
</svg>
