<svg width="16" height="16" viewBox="0 0 16 16" fill="none" xmlns="http://www.w3.org/2000/svg">
<g id="Sport=weightlifting, Size=16px, weight=light">
<path id="Weightlifting" d="M10.1825 10.1872C10.1825 10.1872 8.69942 7.87713 5.27103 9.53353M6.59944 9.02874C6.59944 9.02874 5.61314 7.11737 3 8.00889M4.63776 11.8761C4.63776 11.8761 4.00632 12.4819 3.50953 13.5M4.34115 12.3655C8.00246 14.5883 12.9631 11.9309 12.9631 11.9309C13.3343 6.8761 10.7848 3.34768 10.7848 3.34768L10.7484 3.30662C10.7484 3.30662 10.1989 2.47328 7.83504 2.50066C7.83504 2.50066 6.66131 3.07048 6.87786 4.37609L7.20905 4.80046L8.96146 4.60881C8.96146 4.60881 9.23624 3.88841 9.38364 3.68821M9.269 4.18102C9.25262 4.16733 10.0842 4.77137 10.1789 5.54653L10.1916 5.59786C10.2717 6.01538 10.3645 6.64167 10.2753 6.92059C10.1679 7.2594 9.72575 7.83264 9.55288 8.62319" stroke="black" stroke-miterlimit="10" stroke-linecap="round" stroke-linejoin="round"/>
</g>
</svg>
