<svg width="16" height="16" viewBox="0 0 16 16" fill="none" xmlns="http://www.w3.org/2000/svg">
<g id="Sport=rocket-league, Size=16px, weight=light">
<path id="Rocket League" d="M13.4379 11.5496V9.63095C13.4379 9.43825 13.4039 9.24763 13.3359 9.06737L12.2632 6.34068C12.0742 5.85998 11.6005 5.54297 11.0737 5.54297H8.54171M13.4379 11.5496C13.4379 11.7775 13.2467 11.964 13.0131 11.964H4.09152C3.85786 11.964 3.66668 11.7775 3.66668 11.5496M13.4379 11.5496L13.4378 12.5856C13.4378 12.8135 13.2467 13 13.013 13H12.3757C12.1421 13 11.9509 12.8135 11.9509 12.5856V11.964M3.93751 8.60448L3.76864 9.06737C3.70067 9.24763 3.66668 9.43825 3.66668 9.63095V11.5496M3.66668 11.5496V12.5856C3.66668 12.8135 3.85786 13 4.09152 13H4.72877C4.96243 13 5.15361 12.8135 5.15361 12.5856V11.964M5.83329 8.64904H12.0316C12.2589 8.64904 12.4862 8.61382 12.7028 8.54337L13.013 8.44185M10.2517 11.1354H6.85303M4.36703 3.88964C4.36703 3.88964 3.995 4.71019 3.93833 5.23097C3.93833 5.23097 4.45606 5.90941 4.93329 6.31179M4.36703 3.88964C5.15171 3.60564 5.83071 3.57408 5.83071 3.57408M4.36703 3.88964C3.94112 3.46625 3.39104 3.2927 3.39104 3.2927M4.93329 6.31179L6.38055 6.00407C6.38055 6.00407 6.7364 5.39657 6.79405 4.65052M4.93329 6.31179C4.79854 6.59081 4.60942 7.52157 4.60942 7.52157M6.79405 4.65052C6.79405 4.65052 6.41314 3.96852 5.83071 3.57408M6.79405 4.65052L7.76834 4.40638M5.83071 3.57408L6.22743 2.7062M7.76834 4.40638C7.76834 4.40638 7.76432 3.65297 7.49336 3.23089C7.49336 3.23089 7.26228 2.87192 6.22743 2.7062M7.76834 4.40638C7.76834 4.40638 8.21273 4.78006 8.31975 5.54391C8.31975 5.54391 8.12018 6.94302 6.87991 7.12167M6.22743 2.7062C5.87693 2.14069 5.21362 2.0051 5.21362 2.0051M4.00254 2.14591C4.00254 2.14591 3.52592 2.69303 3.39104 3.2927M3.39104 3.2927C3.39104 3.2927 2.59907 3.69912 2.36179 4.22986C2.36179 4.22986 2.32336 4.79287 2.65769 5.43371L3.93833 5.23038M2.65769 5.4343C2.65769 5.4343 2.29636 6.05935 2.39888 6.62213C2.39888 6.62213 2.71156 7.4269 3.34751 7.72668M3.34751 7.72668C3.34751 7.72668 3.95146 7.76357 4.60942 7.52157M3.34751 7.72668C3.34751 7.72668 3.25058 8.02823 3.31321 8.43845M4.60942 7.52157C4.60942 7.52157 5.35385 8.00024 5.78535 8.03167M1.75978 4.13722C1.75978 4.13722 1.97699 4.11847 2.36045 4.1658M1.71782 6.62604L2.38064 6.58155M5.78535 8.03167C5.78535 8.03167 6.63193 7.67401 6.87991 7.12167M5.78535 8.03167C5.78535 8.03167 5.80152 8.56063 5.74485 8.79588M6.87991 7.12167C6.87991 7.12167 6.60494 6.30646 6.38128 6.00395M7.72054 6.71869C7.72054 6.71869 7.90297 7.01989 7.80105 7.54162M5.79102 10.5136H4.94135C4.58873 10.5136 4.30409 10.236 4.30409 9.89206C4.30409 9.7781 4.39968 9.68487 4.51651 9.68487H5.36618C5.7188 9.68487 6.00344 9.96251 6.00344 10.3065C6.00344 10.4204 5.90785 10.5136 5.79102 10.5136ZM12.1633 10.5136H11.3136C11.1968 10.5136 11.1012 10.4204 11.1012 10.3065C11.1012 9.96251 11.3858 9.68487 11.7384 9.68487H12.5881C12.7049 9.68487 12.8005 9.7781 12.8005 9.89206C12.8005 10.236 12.5159 10.5136 12.1633 10.5136ZM13.2255 8.2347H13.969C14.2621 8.2347 14.5 8.00264 14.5 7.71671C14.5 7.54474 14.3577 7.40592 14.1814 7.40592H13.5441C13.3678 7.40592 13.2255 7.54474 13.2255 7.71671V8.2347ZM8.54171 5.4343C8.54171 7.33101 6.96537 8.8686 5.02085 8.8686C3.07634 8.8686 1.5 7.33101 1.5 5.4343C1.5 3.53759 3.07634 2 5.02085 2C6.96537 2 8.54171 3.53759 8.54171 5.4343Z" stroke="black" stroke-linecap="round" stroke-linejoin="round"/>
</g>
</svg>
