<svg width="24" height="24" viewBox="0 0 24 24" fill="none" xmlns="http://www.w3.org/2000/svg">
<g id="Sport=soccer, Size=24px, weight=light">
<path id="soccer" d="M10.6769 8.79535C10.6769 8.79535 9.92403 10.4977 9.80934 11.5782C9.80934 11.5782 10.857 12.9857 11.8228 13.8205L14.7516 13.1821C14.7516 13.1821 15.4717 11.9217 15.5883 10.3739M10.6769 8.79535C12.2648 8.20615 13.6389 8.14069 13.6389 8.14069M10.6769 8.79535C9.815 7.91697 8.70182 7.5569 8.70182 7.5569M15.5883 10.3739C15.5883 10.3739 14.8175 8.95901 13.6389 8.14069M15.5883 10.3739L17.56 9.86742M13.6389 8.14069L14.4417 6.34012M17.56 9.86742C17.56 9.86742 17.5518 8.30435 17.0035 7.42868C17.0035 7.42868 16.5359 6.68394 14.4417 6.34012M17.56 9.86742C17.56 9.86742 18.4593 10.6427 18.6758 12.2274C18.6758 12.2274 18.272 15.1301 15.7621 15.5007M14.4417 6.34012C13.7324 5.16689 12.3901 4.88558 12.3901 4.88558M9.93929 5.17772C9.93929 5.17772 8.97476 6.3128 8.70182 7.5569M8.70182 7.5569C8.70182 7.5569 7.09913 8.40009 6.61896 9.5012C6.61896 9.5012 6.54119 10.6693 7.21776 11.9988L9.80934 11.5769M7.21776 12C7.21776 12 6.48655 13.2968 6.69403 14.4643C6.69403 14.4643 7.32679 16.134 8.61372 16.7559M8.61372 16.7559C8.61372 16.7559 9.83592 16.8325 11.1674 16.3304M8.61372 16.7559C8.61372 16.7559 8.41757 17.3815 8.54431 18.2326M11.1674 16.3304C11.1674 16.3304 11.5494 14.3989 11.8221 13.82M11.1674 16.3304C11.1674 16.3304 12.6739 17.3234 13.5471 17.3887M5.4007 9.309C5.4007 9.309 5.84026 9.27011 6.61625 9.36831M5.31579 14.4725L6.65711 14.3802M13.5471 17.3887C13.5471 17.3887 15.2603 16.6466 15.7621 15.5007M13.5471 17.3887C13.5471 17.3887 13.5798 18.4861 13.4651 18.9741M15.7621 15.5007C15.7621 15.5007 15.2056 13.8094 14.753 13.1818M17.4632 14.6647C17.4632 14.6647 17.8324 15.2896 17.6262 16.372M19.125 12C19.125 15.935 15.935 19.125 12 19.125C8.06497 19.125 4.875 15.935 4.875 12C4.875 8.06497 8.06497 4.875 12 4.875C15.935 4.875 19.125 8.06497 19.125 12Z" stroke="black" stroke-miterlimit="10" stroke-linecap="round" stroke-linejoin="round"/>
</g>
</svg>
