<svg width="16" height="16" viewBox="0 0 16 16" fill="none" xmlns="http://www.w3.org/2000/svg">
<g id="Sport=athletics, weight=light, Size=16">
<path id="Athletics" d="M8.94734 6.58683L10.5578 7.61133C10.6557 7.69416 10.7757 7.73451 10.8947 7.73451C11.0299 7.73451 11.1647 7.68195 11.2668 7.57894L12.8457 5.98602C13.0514 5.77894 13.0514 5.4423 12.8457 5.23522C12.6404 5.02761 12.3067 5.02761 12.1015 5.23522L10.8571 6.32L8.96471 4.8869M5.80111 7.92726L4.53535 11.0297L3.09223 13.169C2.92803 13.4112 2.98908 13.7414 3.22855 13.9071C3.3196 13.9703 3.42328 14 3.52538 14C3.69327 14 3.858 13.9193 3.96011 13.769L7.31528 9.59292M10.5262 3.06195C10.5262 3.64844 10.055 4.12389 9.47365 4.12389C8.89231 4.12389 8.42104 3.64844 8.42104 3.06195C8.42104 2.47545 8.89231 2 9.47365 2C10.055 2 10.5262 2.47545 10.5262 3.06195ZM10.5041 10.0846C10.4484 9.88973 10.3347 9.72248 10.1884 9.5908C10.1473 9.55416 10.0794 9.50106 10.0363 9.47292L7.84211 8.19593L9.13208 6.31788C9.32575 6.00991 9.36207 5.62389 9.22891 5.28513C9.09576 4.94637 8.80735 4.68991 8.45736 4.59965L5.23586 3.76867C5.05587 3.72195 4.86482 3.77504 4.73324 3.90779L3.15434 5.50071C2.94855 5.70779 2.94855 6.04442 3.15434 6.2515C3.3596 6.45911 3.69327 6.45911 3.89853 6.2515L5.26534 4.87257L6.92003 5.29947L5.81848 7.88319C5.70374 8.15292 5.7048 8.46195 5.82216 8.73062C5.93953 8.99929 6.16426 9.20903 6.43951 9.30566L8.94734 10.443L7.85211 12.4474C7.67054 12.6763 7.70738 13.0108 7.93421 13.194C8.03158 13.2726 8.14736 13.3103 8.26262 13.3103C8.41683 13.3103 8.56998 13.2423 8.67367 13.1111L10.3141 11.0425C10.5273 10.7738 10.5978 10.4159 10.5036 10.0851L10.5041 10.0846Z" stroke="black" stroke-miterlimit="10" stroke-linecap="round" stroke-linejoin="round"/>
</g>
</svg>
