<svg width="24" height="24" viewBox="0 0 24 24" fill="none" xmlns="http://www.w3.org/2000/svg">
<g id="Sport=horse-racing, weight=regular, Size=24">
<path id="horse-racing" d="M12.1855 9.98152C11.5787 10.9716 11.4516 12.137 11.777 13.137C12.1101 14.2343 12.9365 15.064 14.0012 15.5031C14.6347 15.7621 15.1788 16.1277 15.5663 16.68L15.8486 17.1441C16.131 17.6082 16.1281 17.8784 16.3171 18.4004L17.1055 19.0619L19.1427 18.1818C19.0285 14.3151 18.4355 10.9717 17.468 7.16133M16.4124 15.6182C15.3012 15.8216 14.2376 15.7015 13.3899 15.2173M12.5422 19.612C11.4721 17.5783 11.5132 15.9596 12.5422 14.7332M17.4605 7.11703L18.8033 5.40338L18.6741 5.29494C18.4643 5.1189 18.2239 4.9814 17.9608 4.90536C14.1014 3.78986 9.74358 4.99249 6.95357 8.31751C5.67843 9.83716 4.89088 11.6297 4.59766 13.4735M12.8381 5.17966L14.4875 15.4885M5.64975 10.3838C6.0621 13.2702 8.76222 16.0269 11.6681 16.7106M15.6217 10.9112C15.8428 11.0967 16.1722 11.068 16.3576 10.8472C16.5429 10.6263 16.5139 10.2969 16.2928 10.1114C16.0717 9.92583 15.7422 9.95448 15.5569 10.1753C15.3716 10.3962 15.4006 10.7256 15.6217 10.9112Z" stroke="black" stroke-width="1.5" stroke-miterlimit="10" stroke-linecap="round" stroke-linejoin="round"/>
</g>
</svg>
