<svg width="32" height="32" viewBox="0 0 32 32" fill="none" xmlns="http://www.w3.org/2000/svg">
<g id="Sport=waterpolo, stroke width=1px">
<path id="Vector" d="M9.46716 13.9L11.1098 15.6121C11.3261 15.856 11.5975 16.0061 11.9216 16.0405L15.0546 16.3738M19.0072 15.0363L24.5048 9.61447C24.9532 9.17281 25.6819 9.18967 26.1336 9.65346C26.5876 10.1391 26.5759 10.8914 26.1084 11.357L21.349 16.0216C20.9978 16.3654 20.8778 16.8853 21.0098 17.3583L23.7194 25.1242M17.1096 25.1029L15.5611 19.793C15.4058 19.3001 14.986 18.9436 14.4882 18.882L11.1157 18.506C10.8128 18.4695 10.5436 18.3412 10.3506 18.1172L7.42527 15.2541C7.09013 14.8894 7.0386 14.3642 7.20958 13.9277M7.83648 6.55028C9.29437 6.47497 10.5429 7.63469 10.6251 9.14059C10.7073 10.6465 9.59205 11.9283 8.13416 12.0036C6.67627 12.0789 5.42778 10.9192 5.34558 9.41331C5.26338 7.90742 6.37859 6.62559 7.83648 6.55028ZM18.4997 11.2377C18.6603 12.8751 17.5058 14.3287 15.921 14.4842C14.3362 14.6397 12.9212 13.4383 12.7605 11.8009C12.5998 10.1634 13.7543 8.70987 15.3391 8.55435C16.9239 8.39882 18.339 9.60019 18.4997 11.2377Z" stroke="black" stroke-miterlimit="10" stroke-linecap="round" stroke-linejoin="round"/>
<path id="Vector 35" d="M29.727 24.6646C28.8123 23.8686 27.4553 23.8643 26.5456 24.6543L26.327 24.8441C25.314 25.7238 23.8095 25.7401 22.7667 24.8828L22.6409 24.7793C21.5688 23.898 20.0221 23.9148 18.9807 24.8191C17.9606 25.705 16.4516 25.7413 15.3791 24.9057L15.1698 24.7426C14.0268 23.8521 12.43 23.8469 11.2925 24.7301L11.0584 24.9119C9.99936 25.7342 8.5074 25.7097 7.46526 24.853L7.17152 24.6115C6.19779 23.811 4.78158 23.8706 3.88916 24.7496" stroke="black" stroke-linecap="round" stroke-linejoin="round"/>
</g>
</svg>
