<svg width="24" height="24" viewBox="0 0 24 24" fill="none" xmlns="http://www.w3.org/2000/svg">
<g id="Sport=king-of-glory, Size=24px, weight=regular">
<path id="King of Glory" d="M19.0188 8.5911C17.8365 5.94872 15.3234 4.125 12.4139 4.125V6.7029C13.9274 6.7029 15.2817 7.43641 16.1856 8.59161M15.3993 16.214C14.5708 16.8936 13.5362 17.2971 12.4139 17.2971V19.875C15.5343 19.875 18.1988 17.7772 19.2545 14.822M8.40029 16.2054C9.23065 16.89 10.2691 17.2971 11.3965 17.2971V19.875C8.27611 19.875 5.61164 17.7772 4.55635 14.822M4.80424 8.56289C5.99168 5.93562 8.49729 4.125 11.3965 4.125V6.7029C9.86608 6.7029 8.49823 7.45304 7.5943 8.6304M5.65921 10.7576L5.20525 13.0092H8.03338M15.3993 10.7576H18.1073L18.4744 12.7232M15.2583 15.7888L15.9954 17.0407L18.4616 14.8215H22.125L21.0631 12.4033L20.5646 12.9156L20.066 10.2128L21.0631 8.5911H13.5898L11.9708 6.21572L10.3522 8.56289H2.93685L3.93357 10.1846L3.43544 12.8869L2.93685 12.3751L1.875 14.7933H6.68613L8.03338 17.012L8.77049 15.7605L15.2583 15.7888ZM10.3522 10.0697H13.6253L14.422 13.3309H9.6962L10.3522 10.0697Z" stroke="black" stroke-width="1.5" stroke-miterlimit="10" stroke-linecap="round" stroke-linejoin="round"/>
</g>
</svg>
