<svg width="16" height="16" viewBox="0 0 16 16" fill="none" xmlns="http://www.w3.org/2000/svg">
<g id="Sport=waterpolo, weight=regular, Size=16">
<path id="Vector" d="M4.73383 6.95005L5.55513 7.80608C5.66332 7.92801 5.79897 8.00307 5.96103 8.02031L7.52756 8.18691M9.50384 7.5182L12.2526 4.80727C12.4769 4.58643 12.8412 4.59487 13.0671 4.82676C13.294 5.06959 13.2882 5.44574 13.0544 5.67855L10.6747 8.01083C10.4992 8.18271 10.4391 8.44266 10.5051 8.6792L11.86 12.5621M8.55505 12.5515L7.7808 9.89651C7.70316 9.65007 7.49324 9.47184 7.24432 9.44103L5.55809 9.25303C5.40663 9.23476 5.27204 9.17064 5.17552 9.05861L3.71288 7.6271C3.54531 7.44472 3.51954 7.18214 3.60503 6.96387M3.91849 3.27517C4.64743 3.23752 5.27168 3.81738 5.31278 4.57033C5.35388 5.32327 4.79627 5.96419 4.06732 6.00184C3.33838 6.0395 2.71413 5.45964 2.67303 4.70669C2.63193 3.95374 3.18954 3.31283 3.91849 3.27517ZM9.25007 5.61886C9.33041 6.4376 8.75317 7.16436 7.96076 7.24213C7.16834 7.31989 6.46083 6.7192 6.38049 5.90046C6.30014 5.08172 6.87739 4.35497 7.6698 4.2772C8.46221 4.19944 9.16972 4.80012 9.25007 5.61886Z" stroke="black" stroke-width="1.5" stroke-miterlimit="10" stroke-linecap="round" stroke-linejoin="round"/>
<path id="Vector 35" d="M14.8632 12.3323C14.4059 11.9344 13.7274 11.9322 13.2725 12.3272L13.1632 12.4221C12.6568 12.8619 11.9045 12.8701 11.3831 12.4414L11.3202 12.3897C10.7841 11.949 10.0108 11.9574 9.49011 12.4096C8.98004 12.8525 8.22556 12.8707 7.68932 12.4529L7.58467 12.3713C7.01314 11.9261 6.21478 11.9235 5.64602 12.3651L5.52895 12.456C4.99943 12.8671 4.25345 12.8549 3.73239 12.4265L3.58552 12.3058C3.09865 11.9055 2.39055 11.9353 1.94434 12.3748" stroke="black" stroke-width="1.5" stroke-linecap="round" stroke-linejoin="round"/>
</g>
</svg>
