<svg width="16" height="16" viewBox="0 0 16 16" fill="none" xmlns="http://www.w3.org/2000/svg">
<g id="Sport=car-racing, weight=regular, Size=16">
<path id="Vector" d="M13.7783 10.5968V8.40977C13.7783 8.19012 13.7383 7.97284 13.6583 7.76737L12.3955 4.65928C12.173 4.11135 11.6153 3.75 10.9952 3.75H5.05877C4.43862 3.75 3.88099 4.11135 3.65844 4.65928L2.39563 7.76737C2.31562 7.97284 2.27561 8.19012 2.27561 8.40977V10.5968M13.7783 10.5968C13.7783 10.8566 13.5533 11.0691 13.2782 11.0691H2.77573C2.50066 11.0691 2.27561 10.8566 2.27561 10.5968M13.7783 10.5968V11.7776C13.7783 12.0374 13.5533 12.25 13.2782 12.25H12.528C12.253 12.25 12.0279 12.0374 12.0279 11.7776V11.0691M2.27561 10.5968V11.7776C2.27561 12.0374 2.50066 12.25 2.77573 12.25H3.5259C3.80097 12.25 4.02602 12.0374 4.02602 11.7776V11.0691M2.77573 7.05411L3.14081 7.16984C3.39587 7.25014 3.66344 7.29029 3.931 7.29029H12.123C12.3905 7.29029 12.6581 7.25014 12.9131 7.16984L13.2782 7.05411M10.0275 10.1244H6.0265M4.7762 9.41588H3.77596C3.36086 9.41588 3.02578 9.0994 3.02578 8.70735C3.02578 8.57745 3.13831 8.47117 3.27584 8.47117H4.27608C4.69118 8.47117 5.02626 8.78765 5.02626 9.1797C5.02626 9.3096 4.91373 9.41588 4.7762 9.41588ZM12.278 9.41588H11.2778C11.1402 9.41588 11.0277 9.3096 11.0277 9.1797C11.0277 8.78765 11.3628 8.47117 11.7779 8.47117H12.7781C12.9156 8.47117 13.0282 8.57745 13.0282 8.70735C13.0282 9.0994 12.6931 9.41588 12.278 9.41588ZM2.75036 6.81794H1.87515C1.53007 6.81794 1.25 6.55342 1.25 6.22749C1.25 6.03147 1.41754 5.87323 1.62509 5.87323H2.37527C2.58282 5.87323 2.75036 6.03147 2.75036 6.22749V6.81794ZM13.2496 6.81794H14.1249C14.4699 6.81794 14.75 6.55342 14.75 6.22749C14.75 6.03147 14.5825 5.87323 14.3749 5.87323H13.6247C13.4172 5.87323 13.2496 6.03147 13.2496 6.22749V6.81794Z" stroke="black" stroke-width="1.5" stroke-miterlimit="10" stroke-linecap="round" stroke-linejoin="round"/>
</g>
</svg>
