<svg width="16" height="16" viewBox="0 0 16 16" fill="none" xmlns="http://www.w3.org/2000/svg">
<g id="Sport=darts, weight=light, Size=16">
<path id="darts" d="M9.26077 4.36791C8.30014 3.93007 7.18376 3.81704 6.09544 4.13138C3.64277 4.8398 2.22686 7.41233 2.93048 9.88173C3.6341 12.3511 6.1892 13.7767 8.64187 13.0683C11.0946 12.3599 12.5105 9.78734 11.8068 7.31793C11.7375 7.07473 11.6533 6.84538 11.5499 6.62762M8.69118 5.54543C8.00968 5.24448 7.2224 5.16996 6.45458 5.39173C4.69368 5.90034 3.67713 7.74729 4.18229 9.5202C4.68746 11.2931 6.52189 12.3166 8.28278 11.808C10.0437 11.2994 11.0602 9.45243 10.5551 7.67952C10.5149 7.53843 10.4676 7.40383 10.4119 7.27487M9.3057 8.03124C9.6132 9.11044 8.99441 10.2347 7.92252 10.5443C6.85062 10.8539 5.73397 10.2309 5.42647 9.15169C5.11897 8.07249 5.73776 6.94822 6.80965 6.63862C7.16448 6.53613 7.52361 6.53793 7.85773 6.62429M7.36849 8.59984L10.2418 5.76358M10.3439 5.6585L11.7848 5.62651C11.8492 5.62508 11.9105 5.59821 11.9553 5.5517L13.236 4.22451C13.2668 4.19265 13.2434 4.13932 13.1993 4.14073L11.9079 4.18201C11.8622 4.18347 11.8232 4.14893 11.8188 4.10307L11.6933 2.79471C11.6893 2.75287 11.6385 2.73488 11.6093 2.76498L10.3818 4.0324C10.3358 4.07987 10.3108 4.14396 10.3122 4.21025L10.3439 5.6585Z" stroke="black" stroke-miterlimit="10" stroke-linecap="round" stroke-linejoin="round"/>
</g>
</svg>
