<svg width="24" height="24" viewBox="0 0 24 24" fill="none" xmlns="http://www.w3.org/2000/svg">
<g id="Sport=bowls, weight=light, Size=24">
<g id="Bowls">
<path d="M19.875 12C19.875 16.3492 16.3492 19.875 12 19.875C7.65076 19.875 4.125 16.3492 4.125 12C4.125 7.65076 7.65076 4.125 12 4.125C16.3492 4.125 19.875 7.65076 19.875 12Z" stroke="black" stroke-miterlimit="10" stroke-linecap="round" stroke-linejoin="round"/>
<path d="M18.3984 11.7188C18.3984 13.7769 16.793 15.4453 14.8125 15.4453C12.832 15.4453 11.2266 13.7769 11.2266 11.7188C11.2266 9.66063 12.832 7.99219 14.8125 7.99219C16.793 7.99219 18.3984 9.66063 18.3984 11.7188Z" stroke="black" stroke-miterlimit="10" stroke-linecap="round" stroke-linejoin="round"/>
<path d="M19.7344 11.7188C19.7344 15.1748 17.1688 17.9766 14.0039 17.9766C10.8391 17.9766 8.27344 15.1748 8.27344 11.7188C8.27344 8.26266 10.8391 5.46094 14.0039 5.46094C17.1688 5.46094 19.7344 8.26266 19.7344 11.7188Z" stroke="black" stroke-miterlimit="10" stroke-linecap="round" stroke-linejoin="round"/>
<path d="M15.0234 10.0312L15.4023 11.1973H16.6283L15.6365 11.9179L16.0153 13.084L15.0234 12.3633L14.0316 13.084L14.4104 11.9179L13.4185 11.1973H14.6446L15.0234 10.0312Z" stroke="black" stroke-miterlimit="10" stroke-linecap="round" stroke-linejoin="round"/>
</g>
</g>
</svg>
