<svg width="16" height="16" viewBox="0 0 16 16" fill="none" xmlns="http://www.w3.org/2000/svg">
<g id="Sport=floorball, weight=light, Size=16">
<path id="Vector" d="M7.07947 3.27945C7.05587 3.35026 7.05587 3.44467 7.05587 3.51548C7.05587 4.03473 7.48071 4.45958 7.99997 4.45958C8.51922 4.45958 8.94407 4.03473 8.94407 3.51548C8.94407 3.44467 8.94407 3.35026 8.92046 3.27945M8.94407 12.7204C8.94407 12.2012 8.51922 11.7763 7.99997 11.7763C7.48071 11.7763 7.05587 12.2012 7.05587 12.7204M3.27953 8.94405C3.79879 8.94405 4.22363 8.5192 4.22363 7.99995C4.22363 7.48069 3.79879 7.05585 3.27953 7.05585M12.7204 7.05585C12.2011 7.05585 11.7763 7.48069 11.7763 7.99995C11.7763 8.5192 12.2011 8.94405 12.7204 8.94405M7.99997 8.94408C7.48071 8.94408 7.05587 8.51924 7.05587 7.99998C7.05587 7.48073 7.48071 7.05589 7.99997 7.05589C8.51922 7.05589 8.94407 7.48073 8.94407 7.99998C8.94407 8.51924 8.51922 8.94408 7.99997 8.94408ZM6.11186 7.05585C5.59261 7.05585 5.16776 6.63101 5.16776 6.11176C5.16776 5.5925 5.59261 5.16766 6.11186 5.16766C6.63112 5.16766 7.05596 5.5925 7.05596 6.11176C7.05596 6.63101 6.63112 7.05585 6.11186 7.05585ZM9.88821 7.05585C9.36895 7.05585 8.94411 6.63101 8.94411 6.11176C8.94411 5.5925 9.36895 5.16766 9.88821 5.16766C10.4075 5.16766 10.8323 5.5925 10.8323 6.11176C10.8323 6.63101 10.4075 7.05585 9.88821 7.05585ZM9.88821 10.8323C9.36895 10.8323 8.94411 10.4075 8.94411 9.88821C8.94411 9.36896 9.36895 8.94411 9.88821 8.94411C10.4075 8.94411 10.8323 9.36896 10.8323 9.88821C10.8323 10.4075 10.4075 10.8323 9.88821 10.8323ZM6.11186 10.8323C5.59261 10.8323 5.16776 10.4075 5.16776 9.88821C5.16776 9.36896 5.59261 8.94411 6.11186 8.94411C6.63112 8.94411 7.05596 9.36896 7.05596 9.88821C7.05596 10.4075 6.63112 10.8323 6.11186 10.8323ZM8 12.75C5.37619 12.75 3.25 10.6238 3.25 8C3.25 5.37619 5.37619 3.25 8 3.25C10.6238 3.25 12.75 5.37619 12.75 8C12.75 10.6238 10.6238 12.75 8 12.75Z" stroke="black" stroke-miterlimit="10" stroke-linecap="round" stroke-linejoin="round"/>
</g>
</svg>
