<svg width="16" height="16" viewBox="0 0 16 16" fill="none" xmlns="http://www.w3.org/2000/svg">
<g id="Sport=horse-racing, Size=16px, weight=regular">
<path id="horse-racing" d="M8.12303 6.65434C7.71847 7.31438 7.63376 8.09136 7.85065 8.75797C8.07276 9.48952 8.6237 10.0427 9.33348 10.3354C9.75584 10.5081 10.1185 10.7518 10.3769 11.12L10.5651 11.4294C10.7533 11.7388 10.7514 11.9189 10.8774 12.2669L11.403 12.708L12.7612 12.1212C12.685 9.54339 12.2897 7.31448 11.6446 4.77422M10.9409 10.4121C10.2002 10.5477 9.4911 10.4677 8.92597 10.1449M8.36083 13.0747C7.64744 11.7189 7.67479 10.6397 8.36083 9.82215M11.6397 4.74469L12.5349 3.60225L12.4487 3.52996C12.3089 3.4126 12.1486 3.32094 11.9732 3.27024C9.40029 2.52657 6.49507 3.32833 4.63506 5.545C3.78497 6.55811 3.25993 7.7531 3.06445 8.98232M8.55808 3.45311L9.65769 10.3256M3.76585 6.92251C4.04075 8.84682 5.84083 10.6846 7.77807 11.1404M10.4138 7.27411C10.5612 7.39779 10.7808 7.37869 10.9044 7.23145C11.0279 7.08421 11.0086 6.86458 10.8612 6.7409C10.7138 6.61722 10.4942 6.63632 10.3706 6.78356C10.2471 6.9308 10.2664 7.15043 10.4138 7.27411Z" stroke="black" stroke-width="1.5" stroke-miterlimit="10" stroke-linecap="round" stroke-linejoin="round"/>
</g>
</svg>
