<svg width="17" height="16" viewBox="0 0 17 16" fill="none" xmlns="http://www.w3.org/2000/svg">
<g id="Sport=boat-racing, Size=16px, weight=light">
<path id="boat-racing" d="M0.190125 5.39762C-0.0265914 5.56876 -0.0635388 5.88318 0.1076 6.0999C0.27874 6.31661 0.593159 6.35356 0.809875 6.18242L0.190125 5.39762ZM2.32733 4.34699L2.05012 3.93087L2.03331 3.94207L2.01746 3.95459L2.32733 4.34699ZM4.95632 3.21379L4.8957 2.71748L4.95632 3.21379ZM6.87973 3.41374L6.7256 3.88942L6.73054 3.89097L6.87973 3.41374ZM8.60771 3.95397L8.80806 3.49587L8.78301 3.48491L8.7569 3.47675L8.60771 3.95397ZM9.70999 4.07963L9.74133 4.57865L9.70999 4.07963ZM12.9569 4.16865L12.8759 4.66219L12.8877 4.66384L12.9569 4.16865ZM13.6962 4.27192L13.6271 4.76712L13.7136 4.7792L13.799 4.76124L13.6962 4.27192ZM14.8178 4.03626L14.7472 3.54127L14.731 3.54358L14.715 3.54695L14.8178 4.03626ZM15.1491 4.07963L15.5911 3.84591L15.555 3.7776L15.4999 3.72338L15.1491 4.07963ZM15.0072 4.51299L14.664 4.14941V4.14941L15.0072 4.51299ZM10.8816 7.46451L11.1314 7.89765L11.1475 7.88834L11.1629 7.87785L10.8816 7.46451ZM4.95592 4.1388L5.09823 4.61821L5.107 4.61543L4.95592 4.1388ZM4.46333 4.50271L4.02956 4.25403L4.00242 4.30137L3.98613 4.35344L4.46333 4.50271ZM4.2569 5.16266L3.7797 5.01339L3.7797 5.01339L4.2569 5.16266ZM4.50408 5.42835L4.34456 4.95448L4.50408 5.42835ZM0.465304 8.71545C0.21552 8.83319 0.108476 9.13113 0.226215 9.38091C0.343955 9.63069 0.641891 9.73774 0.891675 9.62L0.465304 8.71545ZM5.83969 6.73492L5.64409 6.27477L5.63522 6.27854L5.6265 6.28265L5.83969 6.73492ZM10.6392 5.05033L10.515 4.56583L10.503 4.56924L10.6392 5.05033ZM2.36178 9.43858V8.93858C2.21988 8.93858 2.08466 8.99887 1.98983 9.10443L2.36178 9.43858ZM2.38024 9.43858L2.79935 9.1659C2.70709 9.02411 2.5494 8.93858 2.38024 8.93858V9.43858ZM5.37356 9.43858V8.93858C5.23171 8.93858 5.09653 8.99883 5.0017 9.10433L5.37356 9.43858ZM5.39155 9.43858L5.81066 9.1659C5.7184 9.02411 5.56071 8.93858 5.39155 8.93858V9.43858ZM8.38439 9.43858V8.93858C8.24251 8.93858 8.10732 8.99885 8.01249 9.10438L8.38439 9.43858ZM8.40238 9.43858L8.82148 9.1659C8.72923 9.02411 8.57154 8.93858 8.40238 8.93858V9.43858ZM11.3952 9.43858V8.93858C11.2533 8.93858 11.1182 8.99885 11.0233 9.10438L11.3952 9.43858ZM11.4132 9.43858L11.8323 9.1659C11.7401 9.02411 11.5824 8.93858 11.4132 8.93858V9.43858ZM14.778 9.77277C14.9625 9.56737 14.9457 9.25124 14.7403 9.06667C14.5349 8.8821 14.2187 8.89898 14.0342 9.10438L14.778 9.77277ZM3.83941 11.3091C3.56326 11.3091 3.33941 11.533 3.33941 11.8091C3.33941 12.0853 3.56326 12.3091 3.83941 12.3091V11.3091ZM3.85739 11.8091L4.2765 11.5365C4.18425 11.3947 4.02656 11.3091 3.85739 11.3091V11.8091ZM6.85024 11.8091V11.3091C6.70836 11.3091 6.57316 11.3694 6.47833 11.4749L6.85024 11.8091ZM6.86823 11.8091L7.28733 11.5365C7.19508 11.3947 7.03739 11.3091 6.86823 11.3091V11.8091ZM9.86107 11.8091V11.3091C9.7192 11.3091 9.584 11.3694 9.48917 11.4749L9.86107 11.8091ZM9.87906 11.8091L10.2982 11.5365C10.2059 11.3947 10.0482 11.3091 9.87906 11.3091V11.8091ZM13.2438 12.1433C13.4284 11.9379 13.4115 11.6218 13.2061 11.4372C13.0007 11.2526 12.6846 11.2695 12.5 11.4749L13.2438 12.1433ZM0.728127 9.79287C0.453348 9.76546 0.208373 9.96598 0.180959 10.2408C0.153546 10.5155 0.354074 10.7605 0.628852 10.7879L0.728127 9.79287ZM0.809875 6.18242L2.63721 4.73939L2.01746 3.95459L0.190125 5.39762L0.809875 6.18242ZM2.60455 4.76311C2.83447 4.60993 3.24339 4.36657 3.70151 4.14962C4.16777 3.92881 4.64275 3.75581 5.01694 3.7101L4.8957 2.71748C4.36082 2.78281 3.77008 3.01068 3.27351 3.24584C2.76879 3.48486 2.31775 3.75258 2.05012 3.93087L2.60455 4.76311ZM5.01694 3.7101C5.18933 3.68905 5.35924 3.65978 5.61875 3.66965C5.87667 3.67947 6.23295 3.72977 6.72561 3.8894L7.03385 2.93809C6.46271 2.75303 6.0155 2.68403 5.65677 2.67038C5.29963 2.65679 5.03974 2.69989 4.8957 2.71748L5.01694 3.7101ZM6.73054 3.89097L8.45851 4.43119L8.7569 3.47675L7.02893 2.93652L6.73054 3.89097ZM8.40735 4.41207C8.62381 4.50675 9.10824 4.61841 9.74133 4.57865L9.67865 3.58062C9.43106 3.59617 9.22385 3.58093 9.06942 3.55729C8.99219 3.54547 8.92956 3.53176 8.88296 3.51937C8.8597 3.51319 8.84136 3.50759 8.82791 3.50308C8.81392 3.49839 8.80774 3.49573 8.80806 3.49587L8.40735 4.41207ZM9.74133 4.57865C9.93963 4.56619 10.1166 4.54113 10.277 4.52072C10.4402 4.49994 10.6039 4.48132 10.8079 4.47386C11.216 4.45894 11.8143 4.48774 12.8759 4.66204L13.0379 3.67526C11.9368 3.49446 11.268 3.45637 10.7714 3.47453C10.5231 3.4836 10.3251 3.50652 10.1507 3.52873C9.97336 3.5513 9.83667 3.57069 9.67865 3.58062L9.74133 4.57865ZM12.8877 4.66384L13.6271 4.76712L13.7654 3.77673L13.0261 3.67346L12.8877 4.66384ZM13.799 4.76124L14.9206 4.52558L14.715 3.54695L13.5934 3.78261L13.799 4.76124ZM14.8883 4.53126C14.9089 4.52834 14.9258 4.52628 14.9406 4.52511C14.956 4.5239 14.9636 4.52411 14.965 4.52419C14.9675 4.52433 14.9522 4.52398 14.9261 4.51556C14.8994 4.50691 14.8487 4.48553 14.7982 4.43589L15.4999 3.72338C15.3304 3.55643 15.1192 3.5313 15.0213 3.52578C14.9077 3.51937 14.8021 3.53345 14.7472 3.54127L14.8883 4.53126ZM14.7071 4.31336C14.708 4.31516 14.7043 4.30821 14.7002 4.29898C14.6962 4.28977 14.6919 4.27852 14.6882 4.26551C14.6806 4.23866 14.6766 4.20793 14.6795 4.17617C14.6824 4.14381 14.6914 4.12281 14.6955 4.11518C14.6988 4.10899 14.6937 4.12138 14.664 4.14941L15.3505 4.87657C15.5406 4.69708 15.655 4.49031 15.6753 4.26693C15.6953 4.04795 15.6161 3.89326 15.5911 3.84591L14.7071 4.31336ZM14.664 4.14941C14.4843 4.31903 14.0242 4.66832 13.3075 5.17843C12.603 5.67983 11.68 6.3163 10.6003 7.05116L11.1629 7.87785C12.2442 7.14191 13.1742 6.50074 13.8873 5.99314C14.5883 5.49425 15.1104 5.10319 15.3505 4.87657L14.664 4.14941ZM10.6319 7.03136C9.13105 7.89677 8.03576 8.32396 5.41612 9.12342L5.70801 10.0799C8.3568 9.27152 9.53489 8.81824 11.1314 7.89765L10.6319 7.03136ZM6.92837 2.98906L4.80484 3.66217L5.107 4.61543L7.23053 3.94232L6.92837 2.98906ZM4.81363 3.65947C4.71169 3.68973 4.57522 3.748 4.44102 3.83453C4.30834 3.92008 4.14344 4.05539 4.02956 4.25403L4.8971 4.75139C4.90353 4.74017 4.92789 4.71045 4.98291 4.67498C5.03641 4.64049 5.08608 4.62172 5.09821 4.61813L4.81363 3.65947ZM3.98613 4.35344L3.7797 5.01339L4.7341 5.31192L4.94053 4.65198L3.98613 4.35344ZM4.6636 5.90222L8.86841 4.48676L8.54937 3.53902L4.34456 4.95448L4.6636 5.90222ZM3.7797 5.01339C3.62773 5.49922 4.05838 6.10595 4.6636 5.90222L4.34456 4.95448C4.47543 4.91042 4.6012 4.96146 4.66985 5.03525C4.73657 5.10696 4.76516 5.2126 4.7341 5.31192L3.7797 5.01339ZM0.891675 9.62L6.05287 7.18719L5.6265 6.28265L0.465304 8.71545L0.891675 9.62ZM6.03528 7.19507C7.80384 6.44332 8.61309 6.14363 10.7754 5.53142L10.503 4.56924C8.2988 5.19331 7.44992 5.50717 5.64409 6.27477L6.03528 7.19507ZM10.7634 5.53467L13.8397 4.74614L13.5914 3.77745L10.5151 4.56599L10.7634 5.53467ZM2.36178 9.93858H2.38024V8.93858H2.36178V9.93858ZM2.38024 9.43858C1.96114 9.71125 1.96129 9.71148 1.96144 9.71172C1.9615 9.71181 1.96166 9.71205 1.96178 9.71223C1.96201 9.71259 1.96227 9.71298 1.96254 9.7134C1.96309 9.71423 1.96372 9.71519 1.96443 9.71626C1.96585 9.71841 1.9676 9.72102 1.96967 9.72408C1.97381 9.7302 1.97924 9.73812 1.98594 9.74764C1.99934 9.76666 2.01789 9.79223 2.04144 9.82281C2.08835 9.88376 2.15603 9.9659 2.24316 10.0566C2.41449 10.235 2.67629 10.4625 3.01884 10.6182C3.36881 10.7773 3.8047 10.8612 4.29463 10.7386C4.77886 10.6175 5.26479 10.3075 5.74542 9.77282L5.0017 9.10433C4.61411 9.53554 4.29177 9.70854 4.05196 9.76852C3.81785 9.82708 3.61394 9.79024 3.43263 9.70783C3.24391 9.62205 3.08296 9.48736 2.96436 9.36388C2.90653 9.30367 2.86244 9.24997 2.83384 9.21282C2.81963 9.19435 2.80948 9.18029 2.80362 9.17196C2.80069 9.16781 2.79886 9.16511 2.79813 9.16404C2.79777 9.1635 2.79769 9.16337 2.79789 9.16368C2.79799 9.16383 2.79816 9.16409 2.7984 9.16446C2.79852 9.16464 2.79866 9.16486 2.79882 9.1651C2.7989 9.16522 2.79903 9.16542 2.79907 9.16548C2.79921 9.16569 2.79935 9.1659 2.38024 9.43858ZM5.37356 9.93858H5.39155V8.93858H5.37356V9.93858ZM5.39155 9.43858C4.97245 9.71125 4.97259 9.71148 4.97275 9.71172C4.97281 9.71181 4.97297 9.71205 4.97309 9.71223C4.97332 9.71259 4.97357 9.71298 4.97385 9.7134C4.9744 9.71423 4.97503 9.71519 4.97574 9.71626C4.97716 9.71841 4.97891 9.72102 4.98098 9.72408C4.98511 9.7302 4.99055 9.73811 4.99725 9.74764C5.01064 9.76666 5.0292 9.79222 5.05274 9.8228C5.09966 9.88375 5.16733 9.96589 5.25445 10.0566C5.42577 10.235 5.68755 10.4625 6.03007 10.6182C6.38001 10.7773 6.81587 10.8612 7.30575 10.7386C7.78994 10.6175 8.27579 10.3075 8.7563 9.77277L8.01249 9.10438C7.62501 9.53558 7.30276 9.70855 7.06305 9.76853C6.82902 9.82708 6.62518 9.79025 6.4439 9.70784C6.25521 9.62207 6.09427 9.48737 5.97567 9.36389C5.91784 9.30367 5.87376 9.24998 5.84515 9.21282C5.83094 9.19435 5.82079 9.1803 5.81493 9.17196C5.812 9.16781 5.81017 9.16511 5.80944 9.16404C5.80908 9.1635 5.809 9.16337 5.8092 9.16368C5.8093 9.16383 5.80947 9.16409 5.80971 9.16446C5.80983 9.16464 5.80997 9.16486 5.81013 9.1651C5.81021 9.16522 5.81034 9.16542 5.81038 9.16548C5.81051 9.16569 5.81066 9.1659 5.39155 9.43858ZM8.38439 9.93858H8.40238V8.93858H8.38439V9.93858ZM8.40238 9.43858C7.98328 9.71125 7.98343 9.71148 7.98358 9.71172C7.98364 9.71181 7.9838 9.71205 7.98392 9.71223C7.98415 9.71259 7.9844 9.71298 7.98468 9.7134C7.98523 9.71423 7.98586 9.71519 7.98657 9.71626C7.98799 9.71841 7.98974 9.72102 7.99181 9.72408C7.99594 9.7302 8.00138 9.73812 8.00808 9.74764C8.02147 9.76666 8.04003 9.79222 8.06357 9.82281C8.11049 9.88375 8.17816 9.96589 8.26528 10.0566C8.4366 10.235 8.69838 10.4625 9.0409 10.6182C9.39084 10.7773 9.82671 10.8612 10.3166 10.7386C10.8008 10.6175 11.2866 10.3075 11.7671 9.77277L11.0233 9.10438C10.6358 9.53558 10.3136 9.70855 10.0739 9.76853C9.83986 9.82708 9.63601 9.79025 9.45473 9.70784C9.26604 9.62207 9.1051 9.48737 8.9865 9.36389C8.92867 9.30367 8.88459 9.24998 8.85598 9.21282C8.84177 9.19435 8.83162 9.18029 8.82576 9.17196C8.82283 9.16781 8.82099 9.16511 8.82027 9.16404C8.81991 9.1635 8.81982 9.16337 8.82003 9.16368C8.82013 9.16383 8.8203 9.16409 8.82054 9.16446C8.82066 9.16464 8.8208 9.16486 8.82096 9.1651C8.82104 9.16522 8.82117 9.16542 8.82121 9.16548C8.82134 9.16569 8.82148 9.1659 8.40238 9.43858ZM11.3952 9.93858H11.4132V8.93858H11.3952V9.93858ZM11.4132 9.43858C10.9941 9.71125 10.9943 9.71148 10.9944 9.71172C10.9945 9.71181 10.9946 9.71205 10.9948 9.71223C10.995 9.71259 10.9952 9.71298 10.9955 9.7134C10.9961 9.71423 10.9967 9.71519 10.9974 9.71626C10.9988 9.71841 11.0006 9.72102 11.0026 9.72408C11.0068 9.7302 11.0122 9.73812 11.0189 9.74764C11.0323 9.76666 11.0509 9.79222 11.0744 9.8228C11.1213 9.88375 11.189 9.96589 11.2761 10.0566C11.4474 10.235 11.7092 10.4625 12.0517 10.6182C12.4017 10.7773 12.8375 10.8612 13.3274 10.7386C13.8116 10.6175 14.2975 10.3075 14.778 9.77277L14.0342 9.10438C13.6467 9.53558 13.3244 9.70855 13.0847 9.76853C12.8507 9.82708 12.6468 9.79025 12.4656 9.70784C12.2769 9.62207 12.1159 9.48737 11.9973 9.36389C11.9395 9.30367 11.8954 9.24998 11.8668 9.21282C11.8526 9.19435 11.8425 9.18029 11.8366 9.17196C11.8337 9.16781 11.8318 9.16511 11.8311 9.16404C11.8307 9.1635 11.8307 9.16337 11.8309 9.16368C11.831 9.16383 11.8311 9.16409 11.8314 9.16446C11.8315 9.16464 11.8316 9.16486 11.8318 9.1651C11.8319 9.16522 11.832 9.16542 11.832 9.16548C11.8322 9.16569 11.8323 9.1659 11.4132 9.43858ZM3.83941 12.3091H3.85739V11.3091H3.83941V12.3091ZM3.85739 11.8091C3.43829 12.0818 3.43844 12.082 3.4386 12.0823C3.43865 12.0824 3.43881 12.0826 3.43893 12.0828C3.43916 12.0831 3.43942 12.0835 3.43969 12.0839C3.44024 12.0848 3.44087 12.0857 3.44158 12.0868C3.44301 12.089 3.44475 12.0916 3.44682 12.0946C3.45096 12.1007 3.45639 12.1087 3.46309 12.1182C3.47649 12.1372 3.49504 12.1628 3.51859 12.1934C3.5655 12.2543 3.63318 12.3364 3.72029 12.4271C3.89161 12.6055 4.15339 12.833 4.49592 12.9887C4.84585 13.1478 5.28172 13.2317 5.7716 13.1092C6.25579 12.988 6.74164 12.678 7.22214 12.1433L6.47833 11.4749C6.09086 11.9061 5.76861 12.0791 5.52889 12.1391C5.29487 12.1976 5.09102 12.1608 4.90975 12.0784C4.72105 11.9926 4.56012 11.8579 4.44152 11.7344C4.38368 11.6742 4.3396 11.6205 4.311 11.5834C4.29678 11.5649 4.28664 11.5508 4.28077 11.5425C4.27785 11.5384 4.27601 11.5357 4.27528 11.5346C4.27492 11.534 4.27484 11.5339 4.27504 11.5342C4.27514 11.5344 4.27531 11.5346 4.27556 11.535C4.27568 11.5352 4.27582 11.5354 4.27597 11.5356C4.27605 11.5358 4.27618 11.536 4.27622 11.536C4.27636 11.5362 4.2765 11.5365 3.85739 11.8091ZM6.85024 12.3091H6.86823V11.3091H6.85024V12.3091ZM6.86823 11.8091C6.44912 12.0818 6.44927 12.082 6.44943 12.0823C6.44949 12.0824 6.44965 12.0826 6.44976 12.0828C6.45 12.0831 6.45025 12.0835 6.45053 12.0839C6.45108 12.0848 6.45171 12.0857 6.45242 12.0868C6.45384 12.089 6.45559 12.0916 6.45765 12.0946C6.46179 12.1007 6.46722 12.1087 6.47393 12.1182C6.48732 12.1372 6.50588 12.1628 6.52942 12.1934C6.57633 12.2543 6.64401 12.3364 6.73113 12.4271C6.90244 12.6055 7.16423 12.833 7.50675 12.9887C7.85669 13.1478 8.29256 13.2317 8.78244 13.1092C9.26663 12.988 9.75247 12.678 10.233 12.1433L9.48917 11.4749C9.10169 11.9061 8.77944 12.0791 8.53973 12.1391C8.3057 12.1976 8.10186 12.1608 7.92058 12.0784C7.73188 11.9926 7.57095 11.8579 7.45235 11.7344C7.39451 11.6742 7.35043 11.6205 7.32183 11.5834C7.30761 11.5649 7.29747 11.5508 7.29161 11.5425C7.28868 11.5384 7.28684 11.5357 7.28612 11.5346C7.28575 11.534 7.28567 11.5339 7.28587 11.5342C7.28597 11.5344 7.28614 11.5346 7.28639 11.535C7.28651 11.5352 7.28665 11.5354 7.28681 11.5356C7.28688 11.5358 7.28702 11.536 7.28706 11.536C7.28719 11.5362 7.28733 11.5365 6.86823 11.8091ZM9.86107 12.3091H9.87906V11.3091H9.86107V12.3091ZM9.87906 11.8091C9.45996 12.0818 9.46011 12.082 9.46026 12.0823C9.46032 12.0824 9.46048 12.0826 9.4606 12.0828C9.46083 12.0831 9.46109 12.0835 9.46136 12.0839C9.46191 12.0848 9.46254 12.0857 9.46325 12.0868C9.46467 12.089 9.46642 12.0916 9.46849 12.0946C9.47263 12.1007 9.47806 12.1087 9.48476 12.1182C9.49816 12.1372 9.51671 12.1628 9.54025 12.1934C9.58717 12.2543 9.65484 12.3364 9.74196 12.4271C9.91328 12.6055 10.1751 12.833 10.5176 12.9887C10.8675 13.1478 11.3034 13.2317 11.7933 13.1092C12.2775 12.988 12.7633 12.678 13.2438 12.1433L12.5 11.4749C12.1125 11.9061 11.7903 12.0791 11.5506 12.1391C11.3165 12.1976 11.1127 12.1608 10.9314 12.0784C10.7427 11.9926 10.5818 11.8579 10.4632 11.7344C10.4053 11.6742 10.3613 11.6205 10.3327 11.5834C10.3184 11.5649 10.3083 11.5508 10.3024 11.5425C10.2995 11.5384 10.2977 11.5357 10.297 11.5346C10.2966 11.534 10.2965 11.5339 10.2967 11.5342C10.2968 11.5344 10.297 11.5346 10.2972 11.535C10.2973 11.5352 10.2975 11.5354 10.2976 11.5356C10.2977 11.5358 10.2979 11.536 10.2979 11.536C10.298 11.5362 10.2982 11.5365 9.87906 11.8091ZM0.628852 10.7879C1.30085 10.855 2.02107 10.566 2.73373 9.77272L1.98983 9.10443C1.42468 9.73353 0.996817 9.81968 0.728127 9.79287L0.628852 10.7879Z" fill="black"/>
</g>
</svg>
