<svg width="16" height="16" viewBox="0 0 16 16" fill="none" xmlns="http://www.w3.org/2000/svg">
<g id="Sport=casino, Size=16px, weight=regular">
<path id="casino" d="M6.96152 11.6851C6.70767 11.8764 6.38459 11.9959 6.03843 11.9959M7.60775 12.4741C7.16928 12.8087 6.6385 13 6.06157 13C4.65386 13 3.5 11.8286 3.5 10.3464C3.5 8.86418 4.65386 7.69277 6.06157 7.69277C6.66158 7.69277 7.21543 7.90792 7.6539 8.26652M10.0768 5.06305C9.75372 5.589 9.59218 6.09103 9.54602 6.54525C9.40756 7.66886 9.84603 8.5773 9.84603 9.05543M6.15373 8.88809C6.82297 7.19073 8.06914 5.56509 9.29223 5.13477C10.1922 4.82399 11.1384 4.82399 11.8076 4.82399M6.42228 6.14717C5.08765 5.84165 4.06418 4.67976 4.06418 4.67976C4.06418 4.67976 5.40121 3.02481 7.06324 3.00017C8.00963 2.98946 8.88028 3.47978 9.45156 3.91811M12.5 10.3225C12.5 11.7748 11.3635 12.9522 9.96151 12.9522C8.55953 12.9522 7.42301 11.7748 7.42301 10.3225C7.42301 8.87013 8.55953 7.69277 9.96151 7.69277C11.3635 7.69277 12.5 8.87013 12.5 10.3225Z" stroke="black" stroke-width="1.5" stroke-miterlimit="10" stroke-linecap="round" stroke-linejoin="round"/>
</g>
</svg>
