<svg width="32" height="32" viewBox="0 0 32 32" fill="none" xmlns="http://www.w3.org/2000/svg">
<g id="Sport=biathlon, stroke width=1px">
<path id="Vector" d="M6 7H24C25.1046 7 26 7.89543 26 9V19C26 20.1046 25.1046 21 24 21H6M16 14C16 15.1046 15.1046 16 14 16C12.8954 16 12 15.1046 12 14C12 12.8954 12.8954 12 14 12C15.1046 12 16 12.8954 16 14ZM10 14C10 15.1046 9.10457 16 8 16C6.89543 16 6 15.1046 6 14C6 12.8954 6.89543 12 8 12C9.10457 12 10 12.8954 10 14ZM22 14C22 15.1046 21.1046 16 20 16C18.8954 16 18 15.1046 18 14C18 12.8954 18.8954 12 20 12C21.1046 12 22 12.8954 22 14ZM19.3333 21H21.8333V26.8333C21.8333 27.2936 21.4602 27.6667 21 27.6667H20.1666C19.7064 27.6667 19.3333 27.2936 19.3333 26.8333V21Z" stroke="black" stroke-miterlimit="10" stroke-linecap="round" stroke-linejoin="round"/>
</g>
</svg>
