<svg width="24" height="24" viewBox="0 0 24 24" fill="none" xmlns="http://www.w3.org/2000/svg">
<g id="Sport=kabaddi, weight=regular, Size=24">
<path id="Kabaddi" d="M2.31943 7.82927C2.31943 7.82927 8.647 8.14976 8.95502 8.14976C10.2135 8.14976 11.9164 8.40439 12 9.58537M12 9.58537V13.9756M12 9.58537C12.0836 8.40439 13.7865 8.14976 15.045 8.14976C15.353 8.14976 21.6806 7.82927 21.6806 7.82927M12 13.9756C12 14.8537 10.4247 14.981 9.79547 14.5551C9.16623 14.1293 7.75375 13.2732 7.54694 13.0624C7.41053 12.6761 7.36653 12.0044 7.28292 11.3546C7.89016 11.6839 8.79661 11.5434 9.17063 11.5434C9.28504 11.7322 9.54906 11.9385 9.67666 12.0702M12 13.9756C12 14.8537 13.5753 14.981 14.2045 14.5551C14.8338 14.1293 16.2463 13.2732 16.4531 13.0624C16.5895 12.6761 16.6335 12.0044 16.7171 11.3546C16.1098 11.6839 15.2034 11.5434 14.8294 11.5434C14.715 11.7322 14.4509 11.9385 14.3233 12.0702M9.68106 10.92L9.16623 11.539M9.97148 14.6605C10.2135 15.1961 9.93188 17.1278 8.32578 16.478C7.27852 16.0522 7.06731 15.8371 5.60202 15.4112C4.57236 15.1127 4.31274 14.7132 3.68351 14.0766C3.05427 13.4356 2.62304 12.6629 1.875 12.6629M14.3189 10.92L14.8338 11.539M14.0285 14.6605C13.7865 15.1961 14.0681 17.1278 15.6742 16.478C16.7215 16.0522 16.9327 15.8371 18.398 15.4112C19.4276 15.1127 19.6873 14.7132 20.3165 14.0766C20.9457 13.4356 21.377 12.6629 22.125 12.6629M8.47979 3.87805L9.79987 5.63415M15.5202 3.87805L14.2001 5.63415M12 5.63415V3M8.47979 20.122L9.79987 18.3659M15.5202 20.122L14.2001 18.3659M12 18.3659V21" stroke="black" stroke-width="1.5" stroke-miterlimit="10" stroke-linecap="round" stroke-linejoin="round"/>
</g>
</svg>
