<svg width="24" height="24" viewBox="0 0 24 24" fill="none" xmlns="http://www.w3.org/2000/svg">
<g id="Sport=wrestling, weight=light, Size=24">
<path id="Wrestling" d="M12 3.75C16.0027 3.75 19.125 5.51665 19.125 9.14707C19.125 13.7492 18.6309 20.25 11.9762 20.25C5.3215 20.25 4.875 13.799 4.875 9.14756C4.875 5.51665 7.99734 3.75 12 3.75ZM16.3192 6.24661C15.9488 7.07587 15.3733 7.83779 14.604 8.3958C14.5865 8.40839 14.568 8.41566 14.5459 8.41857C13.9091 8.49849 13.3009 8.74988 12.8349 9.1587C12.8174 9.17371 12.7989 9.18292 12.7757 9.18679C12.5205 9.23329 12.2605 9.25703 12.0005 9.25703C11.7406 9.25703 11.4811 9.23329 11.2259 9.18679C11.2026 9.18243 11.1836 9.17371 11.1662 9.1587C10.6996 8.75036 10.0909 8.49849 9.45415 8.41857C9.43196 8.41566 9.41346 8.40839 9.39602 8.3958C8.62667 7.83779 8.05124 7.07538 7.68083 6.24661C7.04304 7.09912 6.70328 8.11099 6.70328 9.14756V9.23571C6.70328 9.26381 6.69324 9.28754 6.67316 9.30837C6.27791 9.71718 6.04806 10.2277 6.04806 10.777C6.04806 12.2117 7.52283 13.1635 8.99814 13.1635C9.10963 13.1635 9.22059 13.1582 9.33156 13.1485C9.37859 13.1442 9.42139 13.164 9.44569 13.2008C9.47 13.2381 9.46947 13.2817 9.44358 13.3181C9.18889 13.6746 9.04939 14.0824 9.04939 14.5101C9.04939 14.9141 9.17409 15.3021 9.40395 15.6455C9.42139 15.6717 9.42614 15.6997 9.41822 15.7298C9.41029 15.7593 9.39127 15.7826 9.36221 15.7981C8.9305 16.0286 8.46656 16.4079 8.46656 16.9044C8.46656 17.4401 9.00289 17.8383 9.47264 18.0674C10.2203 18.4321 11.1593 18.5765 11.9989 18.5765C12.8386 18.5765 13.7776 18.4321 14.5252 18.0674C14.995 17.8383 15.5313 17.4396 15.5313 16.9044C15.5313 16.4079 15.0674 16.0286 14.6357 15.7981C14.6066 15.7826 14.5881 15.7598 14.5797 15.7298C14.5717 15.7002 14.5765 15.6717 14.5939 15.6455C14.8243 15.3021 14.9485 14.9141 14.9485 14.5101C14.9485 14.0829 14.809 13.6746 14.5543 13.3181C14.5284 13.2817 14.5274 13.2381 14.5522 13.2008C14.5765 13.164 14.6198 13.1442 14.6669 13.1485C14.7778 13.1587 14.8888 13.1635 15.0003 13.1635C16.4756 13.1635 17.9504 12.2117 17.9504 10.777C17.9504 10.2277 17.7205 9.71718 17.3253 9.30837C17.3052 9.28754 17.2951 9.26332 17.2951 9.23571V9.14804C17.2951 8.11195 16.9554 7.0996 16.3176 6.2471L16.3192 6.24661ZM12 16.5193C12.317 16.5193 14.1009 16.5484 14.1009 17.0202C14.1009 17.4919 12.317 17.521 12 17.521C11.683 17.521 9.89907 17.4919 9.89907 17.0202C9.89907 16.5484 11.683 16.5193 12 16.5193ZM9.22059 9.77676C9.6523 9.77676 10.1173 9.8533 10.503 10.0369C10.7984 10.1773 11.0911 10.4069 11.1482 10.7237C11.1546 10.7586 11.1577 10.7944 11.1577 10.8298C11.1577 10.8652 11.1546 10.901 11.1482 10.9359C11.0917 11.2527 10.7984 11.4823 10.503 11.6227C10.1173 11.8063 9.6523 11.8828 9.22059 11.8828C8.78889 11.8828 8.32389 11.8063 7.93816 11.6227C7.64278 11.4823 7.34952 11.2527 7.29298 10.9359C7.28664 10.901 7.28347 10.8652 7.28347 10.8298C7.28347 10.7944 7.28664 10.7586 7.29298 10.7237C7.34952 10.4069 7.64278 10.1773 7.93816 10.0369C8.32389 9.8533 8.78889 9.77676 9.22059 9.77676ZM14.7789 9.77676C15.2106 9.77676 15.6756 9.8533 16.0613 10.0369C16.3567 10.1773 16.6494 10.4069 16.7065 10.7237C16.7128 10.7586 16.716 10.7944 16.716 10.8298C16.716 10.8652 16.7128 10.901 16.7065 10.9359C16.65 11.2527 16.3567 11.4823 16.0613 11.6227C15.6756 11.8063 15.2106 11.8828 14.7789 11.8828C14.3472 11.8828 13.8822 11.8063 13.4964 11.6227C13.2011 11.4823 12.9078 11.2527 12.8513 10.9359C12.8449 10.901 12.8417 10.8652 12.8417 10.8298C12.8417 10.7944 12.8449 10.7586 12.8513 10.7237C12.9078 10.4069 13.2011 10.1773 13.4964 10.0369C13.8822 9.8533 14.3472 9.77676 14.7789 9.77676ZM10.7176 14.1439L11.5234 13.1117C11.6359 12.9674 11.8055 12.8874 11.9995 12.8874C12.1934 12.8874 12.363 12.9674 12.4756 13.1117L13.2814 14.1439C13.4114 14.3105 13.4283 14.5198 13.3263 14.7019C13.2238 14.8845 13.0293 14.993 12.8058 14.993H11.1937C10.9701 14.993 10.7752 14.8841 10.6732 14.7019C10.5707 14.5198 10.5876 14.3105 10.7176 14.1439Z" stroke="black" stroke-linecap="round" stroke-linejoin="round"/>
</g>
</svg>
