<svg width="16" height="16" viewBox="0 0 16 16" fill="none" xmlns="http://www.w3.org/2000/svg">
<g id="Sport=american-football, weight=light, Size=16">
<path id="american-football" d="M5.54407 8.90038C5.90434 8.17935 6.37469 7.51841 6.94512 6.94759C7.51554 6.37678 8.17603 5.90611 8.89657 5.5456M6.60711 6.60932L7.34302 7.34573M5.62592 7.83666L6.52537 8.40943M8.32426 6.52749L7.75188 5.62743M3.66222 9.17111C4.46355 10.4557 5.54289 11.5358 6.82665 12.3377M9.16506 3.66436C10.4488 4.46624 11.5282 5.54631 12.3295 6.83095M4.24275 12.3868C5.00319 12.5423 6.57314 12.6814 8.42111 11.7649C9.8684 11.0449 11.0459 9.86661 11.7654 8.41833C12.6812 6.57729 12.5422 5.00627 12.3869 4.23713C12.3215 3.91801 12.0761 3.67254 11.7573 3.60708C10.9886 3.4598 9.41868 3.3207 7.57889 4.23713C6.1316 4.95718 4.95413 6.13544 4.23457 7.58372C3.31877 9.42476 3.45777 10.9958 3.61313 11.7649C3.67855 12.0759 3.92385 12.3213 4.24275 12.3868Z" stroke="black" stroke-miterlimit="10" stroke-linecap="round" stroke-linejoin="round"/>
</g>
</svg>
