<svg width="16" height="16" viewBox="0 0 16 16" fill="none" xmlns="http://www.w3.org/2000/svg">
<g id="Sport=canoeing, weight=regular, Size=16">
<path id="Canoeing" d="M10.1846 6.16549C10.3004 6.74803 10.3703 7.36295 10.3703 8C10.3703 11.5907 8.14059 14.5 8.14059 14.5C8.14059 14.5 6.76599 12.7064 6.17492 10.1973M5.98926 9.19064C5.93816 8.80569 5.9109 8.4071 5.9109 8.0017C5.9109 4.41103 8.14059 1.5 8.14059 1.5C8.14059 1.5 9.3125 3.03132 9.95807 5.24057M6.85797 8.28276C6.84604 8.19078 6.83923 8.09709 6.83923 8C6.83923 7.06316 7.42178 6.30346 8.13889 6.30346C8.33818 6.30346 8.52725 6.36137 8.69589 6.46698M9.25459 7.12448C9.37382 7.37998 9.44195 7.67977 9.44195 8C9.44195 8.93684 8.85941 9.69654 8.1423 9.69654C7.78459 9.69654 7.46095 9.50747 7.22589 9.20257M12.9594 3.38391L3.34565 12.9517M11.641 5.2048L11.1181 4.68016L11.5967 3.37369L12.9372 2.03826L13.7327 2.56119L14.2812 3.38902L12.9117 4.75341L11.641 5.2048ZM4.6419 11.1529L5.16313 11.6775L4.68449 12.9857L3.34395 14.3194L2.54848 13.7982L2 12.9687L3.3695 11.606L4.6419 11.1529Z" stroke="black" stroke-width="1.5" stroke-miterlimit="10" stroke-linecap="round" stroke-linejoin="round"/>
</g>
</svg>
