<svg width="16" height="16" viewBox="0 0 16 16" fill="none" xmlns="http://www.w3.org/2000/svg">
<g id="Sport=featured, weight=light, Size=16">
<path id="featured" d="M7.37131 4.16327C7.6039 3.61224 8.3961 3.61224 8.62869 4.16327L9.37114 5.92217C9.4692 6.15447 9.69091 6.31318 9.94542 6.33329L11.8725 6.48552C12.4763 6.53321 12.7211 7.27559 12.2611 7.66383L10.7928 8.90313C10.5989 9.0668 10.5142 9.32361 10.5735 9.56834L11.0221 11.4213C11.1626 12.0018 10.5217 12.4606 10.0048 12.1496L8.35492 11.1566C8.13702 11.0254 7.86298 11.0254 7.64508 11.1566L5.99519 12.1496C5.47831 12.4606 4.83741 12.0018 4.97794 11.4213L5.42652 9.56834C5.48577 9.32361 5.40108 9.0668 5.20717 8.90313L3.7389 7.66383C3.27893 7.27559 3.52373 6.53321 4.12745 6.48552L6.05458 6.33329C6.3091 6.31318 6.5308 6.15447 6.62886 5.92217L7.37131 4.16327Z" stroke="black" stroke-linecap="round" stroke-linejoin="round"/>
</g>
</svg>
