<svg width="24" height="24" viewBox="0 0 24 24" fill="none" xmlns="http://www.w3.org/2000/svg">
<g id="Sport=handball, Size=24px, weight=light">
<path id="handball" d="M7.78236 8.35797L8.79083 9.3412C8.92363 9.48129 9.09045 9.56727 9.29002 9.58652L11.2192 9.77266M13.6563 8.99459L17.053 5.86091C17.33 5.60564 17.7788 5.614 18.0562 5.88034C18.3348 6.15928 18.3262 6.59268 18.0373 6.86179L15.0968 9.55783C14.8799 9.75652 14.8049 10.0562 14.8853 10.3285L15.9735 13.6479L18.6384 18.5883C18.8777 18.9982 18.7201 19.5221 18.2813 19.7418L18.2187 19.7732C17.806 19.9904 17.2779 19.8496 17.053 19.451L14.8492 15.5484C14.6593 15.2356 14.2198 15.1882 13.9688 15.441L11.9921 17.3064C11.7882 17.5039 11.5101 17.6193 11.218 17.5961L8.11213 17.3688C7.62038 17.3263 7.24807 16.9036 7.30508 16.4274C7.3516 15.9777 7.77885 15.6446 8.24322 15.6769L10.6342 15.8702C10.7933 15.8805 10.9591 15.8267 11.0663 15.7147L11.992 14.9158C12.2548 14.6492 12.3599 14.2575 12.2445 13.8995L11.5245 11.7412C11.4298 11.4576 11.1719 11.253 10.8654 11.2184L8.78889 11.0081C8.60237 10.9876 8.43682 10.9142 8.31835 10.7855L6.52205 9.14161C6.31633 8.93209 6.2856 8.62965 6.39175 8.37785M6.79211 4.12726C7.69024 4.08116 8.45701 4.74694 8.50474 5.61431C8.55247 6.48168 7.86309 7.22219 6.96496 7.26829C6.06684 7.31439 5.30007 6.64861 5.25234 5.78124C5.20461 4.91387 5.89399 4.17335 6.79211 4.12726ZM13.3512 6.80804C13.4471 7.75107 12.7332 8.59056 11.7567 8.6831C10.7802 8.77565 9.91096 8.08619 9.81514 7.14316C9.71932 6.20013 10.4332 5.36063 11.4097 5.26809C12.3861 5.17555 13.2554 5.86501 13.3512 6.80804Z" stroke="black" stroke-miterlimit="10" stroke-linecap="round" stroke-linejoin="round"/>
</g>
</svg>
