<svg width="24" height="24" viewBox="0 0 24 24" fill="none" xmlns="http://www.w3.org/2000/svg">
<g id="Sport=rugby, Size=24px, weight=light">
<path id="rugby" d="M5.13211 13.8543C6.40088 15.8883 8.10984 17.5984 10.1425 18.868M8.88389 12.1604C7.95607 13.6184 7.71912 15.0441 8.4089 15.7245C9.10412 16.4103 10.5435 16.1444 12.0005 15.1783M13.8444 5.13523C15.877 6.40487 17.586 8.11499 18.8548 10.149M12.3786 8.8719C13.7442 8.04296 15.0558 7.8464 15.7095 8.49123C16.347 9.1201 16.1929 10.3856 15.4334 11.7249M10.1423 13.8518L13.6491 10.4118M6.05102 18.9457C7.25506 19.1919 9.74081 19.4121 12.6668 17.9611C14.9583 16.8211 16.8226 14.9555 17.9619 12.6624C19.4119 9.74737 19.1919 7.25993 18.9459 6.04212C18.8423 5.53685 18.4539 5.14819 17.949 5.04455C16.732 4.81135 14.2462 4.5911 11.3332 6.04212C9.04169 7.1822 7.17738 9.04778 6.03807 11.3409C4.58805 14.2559 4.80814 16.7433 5.05413 17.9611C5.1577 18.4534 5.5461 18.8421 6.05102 18.9457Z" stroke="black" stroke-miterlimit="10" stroke-linecap="round" stroke-linejoin="round"/>
</g>
</svg>
