<svg width="24" height="24" viewBox="0 0 24 24" fill="none" xmlns="http://www.w3.org/2000/svg">
<g id="Sport=set-tennis, weight=light, Size=24">
<path id="set-tennis" d="M9.92243 5.75216C10.4182 6.43084 10.5797 7.33326 10.3384 8.13381C10.0822 9.02019 9.3903 9.73555 9.05349 10.5962C8.73719 11.387 8.72735 12.2863 9.03198 13.0852C9.32585 13.8788 9.79938 14.4936 10.6826 14.9211C11.5551 15.3434 12.331 15.3334 13.1465 15.0767C13.9513 14.8148 14.6613 14.2544 15.0853 13.5157C15.5514 12.7177 15.6832 11.7312 16.2194 10.9804C16.7084 10.2997 17.5163 9.86651 18.3454 9.82909M18.1478 14.9757C16.5043 18.3712 12.4195 19.7914 9.02404 18.148C5.62862 16.5045 4.20837 12.4197 5.85184 9.02423C7.49531 5.6288 11.5801 4.20855 14.9756 5.85202C18.371 7.49549 19.7912 11.5803 18.1478 14.9757Z" stroke="black" stroke-miterlimit="10" stroke-linecap="round" stroke-linejoin="round"/>
</g>
</svg>
