<svg width="24" height="24" viewBox="0 0 24 24" fill="none" xmlns="http://www.w3.org/2000/svg">
<g id="Sport=zed-run, weight=light, Size=24">
<path id="zed-run" d="M6 9.57815C5.72386 9.57815 5.5 9.802 5.5 10.0781C5.5 10.3543 5.72386 10.5781 6 10.5781V9.57815ZM8.70298 10.4324L9.13328 10.687H9.13328L8.70298 10.4324ZM6.20964 14.6457L6.63994 14.9004L6.63994 14.9004L6.20964 14.6457ZM8.91262 15.5C9.18876 15.5 9.41262 15.2761 9.41262 15C9.41262 14.7238 9.18876 14.5 8.91262 14.5V15.5ZM18.5 7.5C18.5 7.22386 18.2761 7 18 7C17.7239 7 17.5 7.22386 17.5 7.5H18.5ZM10.6602 9.57815C10.384 9.57815 10.1602 9.802 10.1602 10.0781C10.1602 10.3543 10.384 10.5781 10.6602 10.5781V9.57815ZM13.6893 10.5781C13.9654 10.5781 14.1893 10.3543 14.1893 10.0781C14.1893 9.802 13.9654 9.57815 13.6893 9.57815V10.5781ZM10.6602 12.0391C10.384 12.0391 10.1602 12.2629 10.1602 12.5391C10.1602 12.8152 10.384 13.0391 10.6602 13.0391V12.0391ZM13.6893 13.0391C13.9654 13.0391 14.1893 12.8152 14.1893 12.5391C14.1893 12.2629 13.9654 12.0391 13.6893 12.0391V13.0391ZM10.6602 14.5C10.384 14.5 10.1602 14.7239 10.1602 15C10.1602 15.2761 10.384 15.5 10.6602 15.5V14.5ZM13.6893 15.5C13.9654 15.5 14.1893 15.2761 14.1893 15C14.1893 14.7239 13.9654 14.5 13.6893 14.5V15.5ZM6 10.5781H8.50276V9.57815H6V10.5781ZM8.27268 10.1778L5.77934 14.3911L6.63994 14.9004L9.13328 10.687L8.27268 10.1778ZM6.40986 15.5H8.91262V14.5H6.40986V15.5ZM5.77934 14.3911C5.49224 14.8762 5.83673 15.5 6.40986 15.5V14.5C6.62149 14.5 6.74213 14.7277 6.63994 14.9004L5.77934 14.3911ZM8.50276 10.5781C8.29113 10.5781 8.17049 10.3504 8.27268 10.1778L9.13328 10.687C9.42038 10.2019 9.07589 9.57815 8.50276 9.57815V10.5781ZM17.5 7.5V14.5312H18.5V7.5H17.5ZM17.534 14.4999H15.6699V15.4999H17.534V14.4999ZM15.7039 14.5312V10.5468H14.7039V14.5312H15.7039ZM15.6699 10.5781H17.8835V9.5781H15.6699V10.5781ZM15.7039 10.5468C15.7039 10.5614 15.6914 10.5781 15.6699 10.5781V9.5781C15.1336 9.5781 14.7039 10.0146 14.7039 10.5468H15.7039ZM15.6699 14.4999C15.6914 14.4999 15.7039 14.5167 15.7039 14.5312H14.7039C14.7039 15.0635 15.1336 15.4999 15.6699 15.4999V14.4999ZM17.5 14.5312C17.5 14.5167 17.5125 14.4999 17.534 14.4999V15.4999C18.0702 15.4999 18.5 15.0635 18.5 14.5312H17.5ZM10.6602 10.5781H13.6893V9.57815H10.6602V10.5781ZM10.6602 13.0391H13.6893V12.0391H10.6602V13.0391ZM10.6602 15.5H13.6893V14.5H10.6602V15.5Z" fill="black"/>
<rect id="Rectangle 896" x="3" y="3" width="18" height="18" rx="4" stroke="black"/>
</g>
</svg>
