<svg width="24" height="24" viewBox="0 0 24 24" fill="none" xmlns="http://www.w3.org/2000/svg">
<g id="Sport=american-football, Size=24px, weight=light">
<path id="american-football" d="M8.31611 13.3506C8.85651 12.269 9.56204 11.2776 10.4177 10.4214C11.2733 9.56517 12.264 8.85917 13.3449 8.3184M9.91066 9.91398L11.0145 11.0186M8.43888 11.755L9.78806 12.6141M12.4864 9.79124L11.6278 8.44114M5.49334 13.7567C6.69533 15.6836 8.31434 17.3037 10.24 18.5065M13.7476 5.49655C15.6732 6.69936 17.2922 8.31947 18.4942 10.2464M6.36412 18.5802C7.50479 18.8134 9.85972 19.022 12.6317 17.6474C14.8026 16.5673 16.5688 14.7999 17.6481 12.6275C19.0218 9.86593 18.8133 7.50941 18.5803 6.35569C18.4822 5.87702 18.1142 5.50881 17.6359 5.41062C16.4829 5.1897 14.128 4.98105 11.3683 6.35569C9.19739 7.43576 7.4312 9.20316 6.35186 11.3756C4.97815 14.1371 5.18666 16.4937 5.4197 17.6474C5.51782 18.1138 5.88578 18.482 6.36412 18.5802Z" stroke="black" stroke-miterlimit="10" stroke-linecap="round" stroke-linejoin="round"/>
</g>
</svg>
