<svg width="24" height="24" viewBox="0 0 24 24" fill="none" xmlns="http://www.w3.org/2000/svg">
<g id="Sport=archery, weight=regular, Size=24">
<path id="Archery" d="M9.24461 7.7605L9.60356 7.40155C9.60356 7.40155 10.5907 4.74396 13.6946 4.97865C13.6946 4.97865 16.6054 5.16043 18.8166 4.78997L13.4853 5.65743C13.4853 5.65743 11.8309 5.86912 10.5654 8.36105L10.2064 8.72M19.875 4.125C19.875 4.125 19.523 4.59439 18.8189 4.78997M8.44158 8.56353L7.39925 9.60586C7.39925 9.60586 4.74396 10.5907 4.97865 13.6946C4.97865 13.6946 5.16043 16.6054 4.78997 18.8166L5.65743 13.4853C5.65743 13.4853 5.86912 11.8309 8.36105 10.5654L9.40338 9.52303M4.125 19.875C4.125 19.875 4.59439 19.523 4.78997 18.8189M4.93033 18.3794L18.3794 4.93263M6.46046 6.46046L17.1093 17.1093M14.4217 14.3527H16.2234L17.7903 15.9197H16.0209M14.355 14.4217V16.2211L15.922 17.788V16.0186M6.20966 6.82171L5.90363 5.90133L6.82171 6.20736L6.20966 6.82171Z" stroke="black" stroke-width="1.5" stroke-miterlimit="10" stroke-linecap="round" stroke-linejoin="round"/>
</g>
</svg>
