<svg width="16" height="16" viewBox="0 0 16 16" fill="none" xmlns="http://www.w3.org/2000/svg">
<g id="Sport=volleyball, Size=16px, weight=regular">
<path id="Vector" d="M10.3637 6.85547C9.51773 5.30154 7.66975 4.04845 5.28571 4.15476M7.99999 8.09957C9.6263 7.57028 11.1961 6.51624 11.7706 5.01886M7.99999 8.09957C7.65618 9.70552 7.73761 11.4924 8.56773 12.75M7.99999 8.09957C6.73559 6.92564 5.05952 6.06385 3.49881 6.30813M7.87785 10.8115C8.89368 10.8158 9.89003 10.5328 10.752 9.99537C11.6141 9.45791 12.3066 8.6878 12.75 7.7738M5.76297 6.64285C5.27305 7.50876 5.02466 8.49036 5.04376 9.48508C5.06286 10.4798 5.34874 11.4511 5.87154 12.2976M12.75 7.99999C12.75 10.6233 10.6233 12.75 7.99999 12.75C5.37664 12.75 3.25 10.6233 3.25 7.99999C3.25 5.37664 5.37664 3.25 7.99999 3.25C10.6233 3.25 12.75 5.37664 12.75 7.99999Z" stroke="black" stroke-width="1.5" stroke-miterlimit="10" stroke-linecap="round" stroke-linejoin="round"/>
</g>
</svg>
