<svg width="24" height="24" viewBox="0 0 24 24" fill="none" xmlns="http://www.w3.org/2000/svg">
<g id="Sport=harness, Size=24px, weight=light">
<path id="harness" d="M14.3342 12.1743L14.7629 11.4372C14.9018 11.1983 14.9671 10.9238 14.9504 10.648L14.9265 10.2529C14.9099 9.97783 14.9748 9.70398 15.113 9.46548L16.0855 7.78779M12.4198 5.66609C13.3483 5.66609 14.0357 5.76994 14.8697 5.29936L16.1446 4.46778C16.4875 4.24411 16.8882 4.125 17.2978 4.125H17.3868L17.4144 4.68352C17.4219 4.83499 17.4787 4.9797 17.5741 5.09772C18.4574 6.19037 19.1949 7.36469 19.837 8.61591C19.899 8.73684 19.8841 8.88267 19.7999 8.98948L19.5157 9.35036C19.4123 9.48177 19.2397 9.5381 19.0785 9.49312C18.9873 9.46769 18.9083 9.41128 18.85 9.33686C18.7352 9.1904 18.6086 9.05414 18.4717 8.92808L18.3837 8.85668C18.1394 8.72362 17.8657 8.65872 17.5888 8.6717C17.4943 8.67819 17.3966 8.6717 17.3021 8.66196C16.4453 8.55162 15.8393 7.76625 15.9501 6.91273M18.8364 6.96141L17.2954 8.66521M10.814 7.23837H11.9357C12.1318 7.23837 12.3258 7.27935 12.5051 7.35868L15.4385 8.65636M9.83182 8.83485H10.7733M14.6307 11.6713C14.6885 11.6413 16.888 12.3064 17.8955 12.6136C18.1905 12.7035 18.3903 12.9751 18.3903 13.2831V14.8865C18.3903 15.1239 18.2701 15.3452 18.0707 15.4746L16.5562 16.4581M15.0347 13.2745L17.0685 13.6996C17.2312 13.7336 17.3478 13.8769 17.3478 14.043V14.3552C17.3478 14.4833 17.278 14.6011 17.1655 14.6628L15.9502 15.3287M11.8745 12.4923C12.0465 12.6584 12.24 12.803 12.4532 12.9193C12.5508 12.9726 12.64 13.0409 12.7086 13.1283L14.6567 15.6111L15.8747 17.9246C15.9243 18.0188 15.9947 18.1005 16.0806 18.1636L16.4162 18.4098C16.508 18.4772 16.5821 18.5659 16.632 18.6682L16.9453 19.3114C17.0041 19.4321 17.1268 19.5087 17.2613 19.5087H18.0877C18.2818 19.5087 18.4391 19.3517 18.4391 19.1579V18.9058C18.4391 18.8138 18.4029 18.7255 18.3383 18.6599L17.2826 17.5875L15.6243 15.0886L13.9009 11.4701M9.67424 10.3517H5.12257M11.8295 16.0291C11.8295 18.1531 10.1048 19.875 7.97726 19.875C5.84972 19.875 4.125 18.1531 4.125 16.0291C4.125 13.905 5.84972 12.1831 7.97726 12.1831C10.1048 12.1831 11.8295 13.905 11.8295 16.0291Z" stroke="black" stroke-miterlimit="10" stroke-linecap="round" stroke-linejoin="round"/>
</g>
</svg>
