<svg width="32" height="32" viewBox="0 0 32 32" fill="none" xmlns="http://www.w3.org/2000/svg">
<g id="Sport=ski-jumping, Size=32px, weight=light">
<g id="Ski Jumping">
<path id="Vector" d="M25.0785 8.30216C23.8819 8.79643 22.5447 8.32245 22.0917 7.24351C21.6387 6.16456 22.2415 4.88922 23.438 4.39495C24.6345 3.90068 25.9717 4.37466 26.4247 5.4536C26.8777 6.53255 26.275 7.80789 25.0785 8.30216Z" stroke="black" stroke-linecap="round" stroke-linejoin="round"/>
<path id="Vector_2" d="M21.2749 8.21351C20.3765 7.44468 19.0654 7.37433 18.085 8.04207L11.6544 12.42C11.1129 12.7884 10.9883 13.5285 11.3792 14.0495C11.7558 14.5509 12.4684 14.6605 12.9821 14.2962L18.217 10.5826L17.4963 11.2039C13.5167 14.635 10.3963 18.9351 8.38309 23.7632L7.15435 26.71L10.2988 25.4111L10.4319 25.1335C12.5066 20.8152 15.4871 16.9817 19.1741 13.8905L21.2516 12.1479C22.4777 11.1194 22.489 9.25096 21.2749 8.21351V8.21351Z" stroke="black" stroke-linecap="round" stroke-linejoin="round"/>
<path id="Vector_3" d="M29.1797 15.3188C27.6697 17.4372 25.5518 19.1098 23.0942 20.125L2.82016 28.5" stroke="black" stroke-linecap="round" stroke-linejoin="round"/>
</g>
</g>
</svg>
