<svg width="16" height="16" viewBox="0 0 16 16" fill="none" xmlns="http://www.w3.org/2000/svg">
<g id="Sport=cycling, weight=regular, Size=16">
<path id="cycling" d="M3.32254 4.69758H8.00391M8.00391 4.69758L4.80235 8.59476M8.00391 4.69758L8.00399 3H9.98379C10.5201 3.00202 10.9515 3.4375 10.9475 3.97177C10.9455 4.50403 10.516 4.93347 9.98379 4.93548M8.00391 4.69758L9.61283 9.6129M3.86724 8.39967L3.02855 3.03677M3.02855 3H3.89749M4.12895 11.5484V9.6129M3.48404 11.8103H4.77434M8.98766 7.38137C9.21339 7.31825 9.45322 7.28805 9.7001 7.29734C10.9788 7.34542 11.9766 8.42132 11.9286 9.69999C11.8805 10.9787 10.8046 11.9766 9.52593 11.9285C8.24728 11.8804 7.24939 10.8045 7.29748 9.52582C7.32238 8.86382 7.62247 8.27712 8.0834 7.87178M5.25803 9.63711C5.25803 10.2607 4.75255 10.7661 4.12901 10.7661C3.50548 10.7661 3 10.2607 3 9.63711C3 9.01356 3.50548 8.50807 4.12901 8.50807C4.75255 8.50807 5.25803 9.01356 5.25803 9.63711ZM13 9.6129C13 11.4835 11.4836 13 9.61296 13C7.74234 13 6.22591 11.4835 6.22591 9.6129C6.22591 7.74226 7.74234 6.22581 9.61296 6.22581C11.4836 6.22581 13 7.74226 13 9.6129Z" stroke="black" stroke-width="1.5" stroke-miterlimit="10" stroke-linecap="round" stroke-linejoin="round"/>
</g>
</svg>
