<svg width="32" height="32" viewBox="0 0 32 32" fill="none" xmlns="http://www.w3.org/2000/svg">
<g id="Sport=afl, Size=32px, weight=light">
<g id="afl">
<path id="Vector 46" d="M10.7236 18.1886L12.4072 14.904C12.4474 14.8257 12.5279 14.7765 12.6158 14.7765H13.1299C13.2331 14.7765 13.3241 14.8439 13.3541 14.9426L14.2917 18.0225C14.3217 18.1212 14.4128 18.1886 14.5159 18.1886H15.5621C15.6915 18.1886 15.7965 18.0837 15.7965 17.9542V15.0109C15.7965 14.8814 15.9014 14.7765 16.0309 14.7765H19.3217" stroke="black" stroke-linecap="round" stroke-linejoin="round"/>
<path id="Vector 47" d="M11.373 17.3319H12.553H14.0444" stroke="black" stroke-linecap="round" stroke-linejoin="round"/>
<path id="Vector 48" d="M15.8379 16.7052H17.6568" stroke="black" stroke-linecap="round" stroke-linejoin="round"/>
<path id="Vector 49" d="M19.3564 14.7952L19.626 17.9728C19.6363 18.0942 19.7378 18.1874 19.8596 18.1874H21.8889" stroke="black" stroke-linecap="round" stroke-linejoin="round"/>
<path id="american-football" d="M7.92293 11.357C7.21432 14.4154 7.21324 17.5815 7.91977 20.6394M24.065 11.3512C24.7716 14.4092 24.7705 17.5753 24.0619 20.6337M4.05931 16.9229C4.94632 18.2658 7.04422 20.7716 11.0973 22.1374C14.2751 23.2037 17.729 23.2025 20.9075 22.1341C24.9495 20.7775 27.0491 18.2703 27.949 16.9148C28.321 16.351 28.3213 15.6314 27.9497 15.0679C27.0387 13.725 24.9408 11.2192 20.8997 9.86539C17.7219 8.79911 14.268 8.80028 11.0895 9.86873C7.04747 11.2253 4.94786 13.7325 4.04794 15.088C3.68797 15.6398 3.68772 16.3594 4.05931 16.9229Z" stroke="black" stroke-miterlimit="10" stroke-linecap="round" stroke-linejoin="round"/>
<path id="american-football_2" d="M20.3081 11.769C17.568 10.8496 14.5898 10.8506 11.8491 11.7719" stroke="black" stroke-miterlimit="10" stroke-linecap="round" stroke-linejoin="round"/>
</g>
</g>
</svg>
