<svg width="16" height="16" viewBox="0 0 16 16" fill="none" xmlns="http://www.w3.org/2000/svg">
<g id="Sport=call-of-duty, weight=regular, Size=16">
<path id="Call of Duty" d="M8.68769 10.8411C8.53002 10.7441 8.36932 10.6363 8.20589 10.5168C8.08333 10.4272 7.9199 10.4272 7.79703 10.5168C7.633 10.6363 7.47139 10.7441 7.31372 10.8414M12.8507 8.7955C13.2816 8.1903 13.4935 7.51365 13.4998 6.87335C13.5231 4.51262 11.2987 2.75 8 2.75C4.70126 2.75 2.47688 4.51262 2.50018 6.87335C2.50654 7.51365 2.71838 8.1903 3.14934 8.7955M9.2034 12.1997L9.19849 13.1655M3.74307 7.29321C3.91164 8.83131 2.66932 8.48143 2.66932 10.0999C2.66932 10.719 3.04701 11.5333 4.75449 11.5351C5.14943 11.5354 5.49595 11.8068 5.59158 12.1967L5.76438 12.8998C6.55427 13.1841 7.31207 13.2552 7.99966 13.2497M7.99966 13.2497C8.68755 13.2552 9.44505 13.1841 10.2349 12.8998L10.4077 12.1967C10.5034 11.8068 10.8499 11.5358 11.2448 11.5351C12.9523 11.5333 13.33 10.719 13.33 10.0999C13.33 8.48143 12.0877 8.83131 12.2562 7.29321M7.99966 13.2497L8 12.1997M6.79614 12.1997L6.80106 13.1655M10.75 10.3636C9.83085 10.3636 9.08667 9.66045 9.08667 9.06573C9.08667 8.37522 9.51762 8.30346 10.3892 8.36967C12.1832 8.50611 12.1808 10.3636 10.75 10.3636ZM5.61049 8.36967C6.48208 8.30346 6.91304 8.37522 6.91304 9.06573C6.91304 9.66076 6.16885 10.3636 5.24975 10.3636C3.81888 10.3636 3.81646 8.50611 5.61049 8.36967Z" stroke="black" stroke-width="1.5" stroke-linecap="round" stroke-linejoin="round"/>
</g>
</svg>
