<svg width="24" height="24" viewBox="0 0 24 24" fill="none" xmlns="http://www.w3.org/2000/svg">
<g id="Sport=gymnastics, Size=24px, weight=regular">
<path id="Gymnastics" d="M13.7257 13.1663V9.00908M12.0325 13.5847L14.3224 20.3306C14.4748 20.8213 14.9665 21.1046 15.4196 20.9639C15.8734 20.8232 16.1172 20.3108 15.9648 19.8202L13.7569 13.2527M10.279 13.3019L8.07852 19.8266C7.92681 20.3134 8.17131 20.8219 8.62509 20.9626C9.07887 21.1034 9.5699 20.8226 9.72162 20.3351L11.9783 13.5847M10.275 13.2175V9.00908L4.62573 8.56771C4.09 8.52421 3.70056 8.12633 3.75542 7.67856C3.81028 7.23015 4.28844 6.902 4.82417 6.94486L9.74193 7.36448M14.2581 7.36448L19.1758 6.94486C19.7116 6.902 20.1897 7.23015 20.2446 7.67856C20.2994 8.12633 19.91 8.52421 19.3743 8.56771L13.725 9.00908M15.5977 11.4526C18.3516 11.6317 20.25 12.0104 20.25 12.4486C20.25 13.0595 16.5561 13.5546 12 13.5546C7.44391 13.5546 3.75 13.0588 3.75 12.448C3.75 12.0111 5.64098 11.633 8.38533 11.4533M13.784 4.81411C13.784 5.81602 12.9853 6.62822 12 6.62822C11.0147 6.62822 10.216 5.81602 10.216 4.81411C10.216 3.81221 11.0147 3 12 3C12.9853 3 13.784 3.81221 13.784 4.81411Z" stroke="black" stroke-width="1.5" stroke-linecap="round" stroke-linejoin="round"/>
</g>
</svg>
