<svg width="24" height="24" viewBox="0 0 24 24" fill="none" xmlns="http://www.w3.org/2000/svg">
<g id="Sport=featured, weight=regular, Size=24">
<path id="featured" d="M11.057 6.2449C11.4059 5.41837 12.5941 5.41837 12.943 6.2449L14.0567 8.88325C14.2038 9.2317 14.5364 9.46978 14.9181 9.49993L17.8088 9.72828C18.7144 9.79982 19.0816 10.9134 18.3916 11.4958L16.1892 13.3547C15.8984 13.6002 15.7713 13.9854 15.8602 14.3525L16.5331 17.132C16.7439 18.0027 15.7825 18.691 15.0072 18.2243L12.5324 16.7349C12.2055 16.5382 11.7945 16.5382 11.4676 16.7349L8.99278 18.2243C8.21747 18.691 7.25612 18.0027 7.46692 17.132L8.13979 14.3525C8.22865 13.9854 8.10162 13.6002 7.81075 13.3547L5.60835 11.4958C4.91839 10.9134 5.28559 9.79982 6.19118 9.72828L9.08187 9.49993C9.46364 9.46978 9.79621 9.2317 9.94329 8.88325L11.057 6.2449Z" stroke="black" stroke-width="1.5" stroke-linecap="round" stroke-linejoin="round"/>
</g>
</svg>
