<svg width="24" height="24" viewBox="0 0 24 24" fill="none" xmlns="http://www.w3.org/2000/svg">
<g id="Sport=gaelic-hurling, weight=regular, Size=24">
<path id="Gaelic Hurling" d="M16.0826 5.66502L17.3533 6.71888M3.7883 16.6686L7.82287 20.1401M19.2731 3.13669L20.526 4.17753C20.7335 4.34987 20.5909 4.68059 20.3195 4.65611L19.31 4.56529C19.1994 4.55537 19.0911 4.6 19.0212 4.68431L8.64885 17.1955L6.61568 15.5217L18.4636 3.18132C18.6781 2.95815 19.0342 2.93831 19.2731 3.13669ZM6.44 15.333L8.96844 17.4881C9.02943 17.5402 9.05929 17.6186 9.04754 17.697C8.99862 18.0222 8.78069 18.9347 7.82256 20.1401C7.82256 20.1401 6.17918 21.8774 3.90934 20.4132C3.57323 20.1965 3.375 19.8264 3.375 19.4334V17.3771C3.375 17.0132 3.57768 16.6782 3.90426 16.5021L6.1328 15.3007C6.23192 15.2474 6.35454 15.2601 6.44 15.3326V15.333ZM15.4473 18.9003C15.4473 19.9787 14.5512 20.853 13.4459 20.853C12.3405 20.853 11.4445 19.9787 11.4445 18.9003C11.4445 17.8218 12.3405 16.9475 13.4459 16.9475C14.5512 16.9475 15.4473 17.8218 15.4473 18.9003Z" stroke="black" stroke-width="1.5" stroke-miterlimit="10" stroke-linecap="round" stroke-linejoin="round"/>
</g>
</svg>
