<svg width="16" height="16" viewBox="0 0 16 16" fill="none" xmlns="http://www.w3.org/2000/svg">
<g id="Sport=motorcycle-racing, Size=16px, weight=light">
<path id="Vector" d="M10.8958 4C10.8958 4 12.9297 4.97458 13.7942 7.33901C13.7942 7.33901 10.8958 7.47461 10.0484 11.3729H6.48901M12.8163 7.62772C12.8163 7.62772 14.0422 8.08535 14.2685 8.70654C14.2685 8.70654 13.3532 8.43535 12.7265 8.60484M11.8563 8.40675L12.6076 10.4347M14.2352 9.47634C14.4034 9.75643 14.5 10.0844 14.5 10.4348C14.5 11.4645 13.6652 12.2992 12.6356 12.2992C11.8538 12.2992 11.1847 11.8187 10.9076 11.1361M5.40467 9.79536C5.47755 9.99494 5.51738 10.2102 5.51738 10.4348C5.51738 11.4644 4.68263 12.2992 3.65296 12.2992C2.62329 12.2992 1.78853 11.4644 1.78853 10.4348C1.78853 9.40511 2.62329 8.57035 3.65296 8.57035C4.15042 8.57035 4.60254 8.76527 4.93686 9.08307M7.56235 10.5593L8.52295 10.2941C10.1797 9.89576 9.20516 8.89999 9.03143 8.35041C8.52804 6.75675 12.2349 6.20929 12.2349 6.20929M11.2687 5.63872L10.7034 4.90397L10.2093 4.97474M10.1386 6.05146C10.1386 6.05146 10.1331 5.29976 8.60769 5.29976C8.60769 5.29976 7.60768 5.24298 6.59072 6.37349H4.16146L3.59663 5.21501H1.5L3.69239 7.30528C3.69239 7.30528 6.30216 7.67817 6.47759 10.2939M6.20078 9.44057L3.65245 10.4346M3.8902 5.63829H6.44658M8.37882 9.06745C8.37882 9.41849 8.09426 9.70305 7.74322 9.70305C7.39219 9.70305 7.10763 9.41849 7.10763 9.06745C7.10763 8.71642 7.39219 8.43186 7.74322 8.43186C8.09426 8.43186 8.37882 8.71642 8.37882 9.06745Z" stroke="black" stroke-linecap="round" stroke-linejoin="round"/>
</g>
</svg>
