<svg width="16" height="16" viewBox="0 0 16 16" fill="none" xmlns="http://www.w3.org/2000/svg">
<g id="Sport=wrestling, Size=16px, weight=regular">
<path id="Wrestling" d="M8 2.5C10.6684 2.5 12.75 3.67777 12.75 6.09805C12.75 9.1661 12.4206 13.5 7.98415 13.5C3.54767 13.5 3.25 9.19936 3.25 6.09837C3.25 3.67777 5.33156 2.5 8 2.5ZM10.8794 4.16441C10.6325 4.71724 10.2489 5.2252 9.73598 5.5972C9.72436 5.6056 9.71203 5.61044 9.69723 5.61238C9.27275 5.66566 8.86729 5.83325 8.55659 6.1058C8.54496 6.11581 8.53263 6.12194 8.51713 6.12453C8.34699 6.15553 8.17367 6.17135 8.00035 6.17135C7.82704 6.17135 7.65407 6.15553 7.48393 6.12453C7.46843 6.12162 7.45574 6.11581 7.44412 6.1058C7.13307 5.83358 6.72725 5.66566 6.30277 5.61238C6.28797 5.61044 6.27564 5.6056 6.26402 5.5972C5.75111 5.2252 5.36749 4.71692 5.12055 4.16441C4.69536 4.73275 4.46885 5.40732 4.46885 6.09837V6.15714C4.46885 6.17587 4.46216 6.19169 4.44877 6.20558C4.18528 6.47812 4.03204 6.81848 4.03204 7.18467C4.03204 8.14116 5.01522 8.77569 5.99876 8.77569C6.07309 8.77569 6.14706 8.77214 6.22104 8.76568C6.25239 8.76278 6.28093 8.77602 6.29713 8.80056C6.31333 8.82542 6.31298 8.85449 6.29572 8.8787C6.12593 9.11637 6.03293 9.38827 6.03293 9.67341C6.03293 9.94272 6.11606 10.2014 6.2693 10.4303C6.28093 10.4478 6.2841 10.4665 6.27881 10.4865C6.27353 10.5062 6.26085 10.5217 6.24147 10.5321C5.95367 10.6858 5.64437 10.9386 5.64437 11.2696C5.64437 11.6267 6.00193 11.8922 6.3151 12.0449C6.81356 12.2881 7.43954 12.3843 7.9993 12.3843C8.55905 12.3843 9.18503 12.2881 9.6835 12.0449C9.99666 11.8922 10.3542 11.6264 10.3542 11.2696C10.3542 10.9386 10.0449 10.6858 9.75712 10.5321C9.73774 10.5217 9.72542 10.5065 9.71978 10.4865C9.71449 10.4668 9.71766 10.4478 9.72929 10.4303C9.88288 10.2014 9.96566 9.94272 9.96566 9.67341C9.96566 9.38859 9.87266 9.11637 9.70287 8.8787C9.68561 8.85449 9.6849 8.82542 9.70146 8.80056C9.71767 8.77602 9.74655 8.76278 9.7779 8.76568C9.85188 8.77246 9.92586 8.77569 10.0002 8.77569C10.9837 8.77569 11.9669 8.14116 11.9669 7.18467C11.9669 6.81848 11.8137 6.47812 11.5502 6.20558C11.5368 6.19169 11.5301 6.17555 11.5301 6.15714V6.09869C11.5301 5.40797 11.3036 4.73307 10.8784 4.16473L10.8794 4.16441ZM8 11.0129C8.21136 11.0129 9.40062 11.0323 9.40062 11.3468C9.40062 11.6613 8.21136 11.6807 8 11.6807C7.78864 11.6807 6.59938 11.6613 6.59938 11.3468C6.59938 11.0323 7.78864 11.0129 8 11.0129ZM6.14706 6.51784C6.43487 6.51784 6.74486 6.56886 7.00202 6.69125C7.19894 6.7849 7.3941 6.93796 7.43214 7.14915C7.43637 7.1724 7.43848 7.1963 7.43848 7.21987C7.43848 7.24344 7.43637 7.26734 7.43214 7.29059C7.39445 7.50178 7.19894 7.65484 7.00202 7.74849C6.74486 7.87087 6.43487 7.92189 6.14706 7.92189C5.85926 7.92189 5.54926 7.87087 5.29211 7.74849C5.09519 7.65484 4.89968 7.50178 4.86198 7.29059C4.85776 7.26734 4.85564 7.24344 4.85564 7.21987C4.85564 7.1963 4.85776 7.1724 4.86198 7.14915C4.89968 6.93796 5.09519 6.7849 5.29211 6.69125C5.54926 6.56886 5.85926 6.51784 6.14706 6.51784ZM9.85258 6.51784C10.1404 6.51784 10.4504 6.56886 10.7075 6.69125C10.9045 6.7849 11.0996 6.93796 11.1377 7.14915C11.1419 7.1724 11.144 7.1963 11.144 7.21987C11.144 7.24344 11.1419 7.26734 11.1377 7.29059C11.1 7.50178 10.9045 7.65484 10.7075 7.74849C10.4504 7.87087 10.1404 7.92189 9.85258 7.92189C9.56478 7.92189 9.25478 7.87087 8.99763 7.74849C8.80071 7.65484 8.6052 7.50178 8.56751 7.29059C8.56328 7.26734 8.56117 7.24344 8.56117 7.21987C8.56117 7.1963 8.56328 7.1724 8.56751 7.14915C8.6052 6.93796 8.80071 6.7849 8.99763 6.69125C9.25478 6.56886 9.56478 6.51784 9.85258 6.51784ZM7.14504 9.42928L7.68225 8.74114C7.75729 8.64491 7.87036 8.59163 7.99965 8.59163C8.12893 8.59163 8.24201 8.64491 8.31704 8.74114L8.85425 9.42928C8.94091 9.54037 8.95218 9.67987 8.8842 9.80128C8.81586 9.92302 8.68622 9.99536 8.53721 9.99536H7.46244C7.31343 9.99536 7.18344 9.9227 7.11545 9.80128C7.04711 9.67987 7.05838 9.54037 7.14504 9.42928Z" stroke="black" stroke-width="1.5" stroke-linecap="round" stroke-linejoin="round"/>
</g>
</svg>
