<svg width="16" height="16" viewBox="0 0 16 16" fill="none" xmlns="http://www.w3.org/2000/svg">
<g id="Sport=chess, weight=light, Size=16">
<path id="chess" d="M5.01852 5.359L4.38333 5.0616M5.54815 4.37193L4.98333 3.95776M4.71667 6.4227L4 6.21105M5.31111 4.10737C5.8537 3.36114 6.62222 3.33012 6.62222 3.33012C6.62222 3.33012 6.95926 2.42515 8.16296 2.25V3.36296L9.23148 3.54359L9.47593 3.97053C9.47593 3.97053 11.35 5.33893 11.7574 5.87534C11.7574 5.87534 12.0963 7.14886 11.1111 6.981C11.1111 6.981 8.10185 5.99211 8.14444 6.89707C8.14444 6.89707 10.7722 8.50266 10.6704 11.015H6.09259C6.09259 11.015 6.14259 9.75428 5.32222 9.24342C4.27593 8.59023 4.14815 7.78927 4.31852 6.39898M11.0685 12.2174C11.613 12.5184 12 13.75 12 13.75H4.69444C4.69444 13.75 5.08148 12.5184 5.62593 12.2174H11.0704H11.0685Z" stroke="black" stroke-miterlimit="10" stroke-linecap="round" stroke-linejoin="round"/>
</g>
</svg>
