<svg width="16" height="16" viewBox="0 0 16 16" fill="none" xmlns="http://www.w3.org/2000/svg">
<g id="Sport=formula-1, weight=regular, Size=16">
<path id="F" d="M3.13749 10.6223C3.0644 11.2155 3.52717 11.7387 4.12485 11.7387C4.62431 11.7387 5.04634 11.3684 5.11125 10.8732L5.23568 9.92377C5.2683 9.67487 5.48041 9.48874 5.73144 9.48874H7.95972C8.44419 9.48874 8.85071 9.12346 8.90233 8.64175C8.96237 8.08142 8.52326 7.59274 7.95973 7.59274H6.08484C5.78409 7.59274 5.55139 7.32914 5.5887 7.03071L5.64005 6.61997C5.67133 6.36976 5.88403 6.182 6.13619 6.182H8.3554C8.84553 6.182 9.25799 5.81494 9.31487 5.32811C9.38194 4.75408 8.93333 4.25 8.3554 4.25H4.80702C4.30202 4.25 3.87628 4.62651 3.81452 5.12771L3.13749 10.6223Z" stroke="black" stroke-width="1.5" stroke-linecap="round" stroke-linejoin="round"/>
<path id="Rectangle 808" d="M10.6038 5.13323C10.6631 4.62958 11.0899 4.25 11.597 4.25H11.876C12.4746 4.25 12.9391 4.7723 12.8692 5.36677L12.2225 10.8668C12.1633 11.3704 11.7364 11.75 11.2293 11.75H10.9503C10.3518 11.75 9.88727 11.2277 9.95717 10.6332L10.6038 5.13323Z" stroke="black" stroke-width="1.5" stroke-linecap="round" stroke-linejoin="round"/>
</g>
</svg>
