<svg width="24" height="24" viewBox="0 0 24 24" fill="none" xmlns="http://www.w3.org/2000/svg">
<g id="Sport=greyhound, weight=regular, Size=24">
<path id="dogs" d="M3.75 10.6177C4.37975 9.97379 5.76525 8.686 7.10342 8.14058C7.70111 7.77593 9.66113 7.00683 9.66113 7.00683L8.73131 6.80421C8.73131 6.80421 10.03 5.35891 10.4461 5.26661C10.8742 5.17573 11.1904 5.48278 11.4351 5.58184C11.7763 5.69218 12.538 5.67552 12.9063 5.76554C13.252 5.84117 13.3259 6.80101 13.3259 6.80101C13.3259 6.80101 13.9875 7.08972 14.3202 7.36347C14.6409 7.63581 15.6429 8.71586 15.9853 9.20213C16.3036 9.68557 16.931 10.6279 17.7098 11.2474C18.4886 11.8668 19.8734 13.3087 19.8734 13.3087C19.8734 13.3087 20.2093 13.6533 20.2494 13.9163C20.2697 14.1418 19.7883 14.5553 19.4477 14.6329C19.1191 14.7119 16.8696 14.5782 16.2475 14.3646C15.6253 14.151 14.0268 12.8485 13.5816 12.7847C13.135 12.7325 11.2055 12.2017 10.6635 12.5141C10.1229 12.815 8.51479 15.1519 7.83732 16.0474C7.21844 16.8675 6.66081 17.9767 6.24391 18.75M5.71304 9.12026C4.98136 11.7768 5.06109 16.5521 7.49999 16.3821M12.8934 9.41309C12.8934 9.55049 13.0096 9.66187 13.1529 9.66187C13.2963 9.66187 13.4125 9.55049 13.4125 9.41309C13.4125 9.2757 13.2963 9.16432 13.1529 9.16432C13.0096 9.16432 12.8934 9.2757 12.8934 9.41309Z" stroke="black" stroke-width="1.5" stroke-linecap="round" stroke-linejoin="round"/>
</g>
</svg>
