<svg width="16" height="16" viewBox="0 0 16 16" fill="none" xmlns="http://www.w3.org/2000/svg">
<g id="Sport=triathlon, weight=regular, Size=16">
<path id="Triathlon" d="M7.37097 8.94685C6.30242 8.06245 5.79839 7.90733 5.79839 7.90733C4.18548 7.36944 5.39516 6.11637 5.39516 6.11637L7.40726 4.41203C8.0504 3.91644 8.42944 3.9104 8.72177 3.88421C9.27621 3.83384 9.42742 4.04336 9.42742 4.04336C9.42742 4.04336 9.80847 4.34555 9.95565 4.96604C10.0484 5.35284 10.0524 6.39035 10.3851 6.70261C10.3851 6.70261 10.9738 6.87989 12.5101 7.33116M8.87298 5.72957L7.02419 6.97256L8.77218 8.34852C8.77218 8.34852 8.7379 8.8018 7.84879 12.1601M6.32056 10.9675C6.32056 12.2286 5.29839 13.25 4.03629 13.25C2.77419 13.25 1.75 12.2286 1.75 10.9675C1.75 9.70635 2.77218 8.68496 4.03427 8.68496C5.29637 8.68496 6.31855 9.70635 6.31855 10.9675H6.32056ZM14.25 10.9675C14.25 12.2286 13.2278 13.25 11.9657 13.25C10.7036 13.25 9.68145 12.2286 9.68145 10.9675C9.68145 9.70635 10.7036 8.68496 11.9657 8.68496C13.2278 8.68496 14.25 9.70635 14.25 10.9675ZM12.7621 3.77341C12.7621 4.33862 12.3036 4.79681 11.7379 4.79681C11.1723 4.79681 10.7137 4.33862 10.7137 3.77341C10.7137 3.2082 11.1723 2.75 11.7379 2.75C12.3036 2.75 12.7621 3.2082 12.7621 3.77341Z" stroke="black" stroke-width="1.5" stroke-miterlimit="10" stroke-linecap="round" stroke-linejoin="round"/>
</g>
</svg>
