<svg width="32" height="32" viewBox="0 0 32 32" fill="none" xmlns="http://www.w3.org/2000/svg">
<g id="Sport=call-of-duty, stroke width=1.5px">
<path id="Call of Duty" d="M17.3754 21.6823C17.06 21.4882 16.7386 21.2726 16.4118 21.0336C16.1667 20.8544 15.8398 20.8544 15.5941 21.0336C15.266 21.2726 14.9428 21.4882 14.6274 21.6829M25.7013 17.591C26.5632 16.3806 26.9869 15.0273 26.9996 13.7467C27.0462 9.02523 22.5975 5.5 16 5.5C9.40252 5.5 4.95376 9.02523 5.00036 13.7467C5.01307 15.0273 5.43676 16.3806 6.29867 17.591M18.4068 24.3993L18.397 26.331M7.48615 14.5864C7.82328 17.6626 5.33863 16.9629 5.33863 20.1998C5.33863 21.4379 6.09402 23.0666 9.50897 23.0703C10.2989 23.0709 10.9919 23.6136 11.1832 24.3934L11.5288 25.7997C13.1085 26.3682 14.6241 26.5105 15.9993 26.4994M15.9993 26.4994C17.3751 26.5105 18.8901 26.3682 20.4699 25.7997L20.8155 24.3934C21.0067 23.6136 21.6998 23.0715 22.4897 23.0703C25.9046 23.0666 26.66 21.4379 26.66 20.1998C26.66 16.9629 24.1754 17.6626 24.5125 14.5864M15.9993 26.4994L16 24.3993M13.5923 24.3993L13.6021 26.331M21.4999 20.7272C19.6617 20.7272 18.1733 19.3209 18.1733 18.1315C18.1733 16.7504 19.0352 16.6069 20.7784 16.7393C24.3665 17.0122 24.3617 20.7272 21.4999 20.7272ZM11.221 16.7393C12.9642 16.6069 13.8261 16.7504 13.8261 18.1315C13.8261 19.3215 12.3377 20.7272 10.4995 20.7272C7.63776 20.7272 7.63292 17.0122 11.221 16.7393Z" stroke="black" stroke-width="1.5" stroke-linecap="round" stroke-linejoin="round"/>
</g>
</svg>
