<svg width="32" height="32" viewBox="0 0 32 32" fill="none" xmlns="http://www.w3.org/2000/svg">
<g id="Sport=greyhound, stroke width=1.5px">
<path id="dogs" d="M5 14.1569C5.83966 13.2984 7.687 11.5813 9.47122 10.8541C10.2681 10.3679 12.8815 9.34244 12.8815 9.34244L11.6417 9.07228C11.6417 9.07228 13.3734 7.14521 13.9281 7.02215C14.4989 6.90097 14.9205 7.31038 15.2467 7.44245C15.7017 7.58958 16.7173 7.56735 17.2085 7.68738C17.6693 7.78822 17.7679 9.06802 17.7679 9.06802C17.7679 9.06802 18.65 9.45295 19.0937 9.81796C19.5212 10.1811 20.8572 11.6212 21.3137 12.2695C21.7381 12.9141 22.5747 14.1705 23.6131 14.9965C24.6515 15.8225 26.4978 17.7449 26.4978 17.7449C26.4978 17.7449 26.9458 18.2044 26.9992 18.5551C27.0263 18.8558 26.3844 19.4071 25.9302 19.5106C25.4921 19.6159 22.4928 19.4376 21.6633 19.1528C20.8338 18.8679 18.7024 17.1314 18.1088 17.0463C17.5133 16.9767 14.9407 16.269 14.218 16.6855C13.4972 17.0867 11.353 20.2025 10.4498 21.3965C9.62458 22.4901 8.88108 23.9689 8.32521 25M7.61738 12.1603C6.64181 15.7024 6.74811 22.0695 9.99999 21.8428M17.1912 12.5508C17.1912 12.734 17.3461 12.8825 17.5372 12.8825C17.7284 12.8825 17.8833 12.734 17.8833 12.5508C17.8833 12.3676 17.7284 12.2191 17.5372 12.2191C17.3461 12.2191 17.1912 12.3676 17.1912 12.5508Z" stroke="black" stroke-width="1.5" stroke-linecap="round" stroke-linejoin="round"/>
</g>
</svg>
