<svg width="16" height="16" viewBox="0 0 16 16" fill="none" xmlns="http://www.w3.org/2000/svg">
<g id="Sport=swimming, weight=light, Size=16">
<path id="Swimming" d="M10.2609 7.95676L7.78013 4.23424C7.62809 4.02398 7.35283 3.94428 7.11204 4.04037L4.28596 5.1708C3.996 5.28667 3.85526 5.61563 3.97113 5.90559C4.08757 6.19554 4.41652 6.33628 4.70591 6.22041L6.98317 5.30928L7.75074 6.6138L5.62665 7.95619M14.5 9.43763C14.236 9.67672 13.876 9.95763 13.1994 9.95763C12.5229 9.95763 12.1628 9.67672 11.9 9.43876V9.43706C11.6372 9.19911 11.2771 8.91819 10.6006 8.91819C9.924 8.91819 9.56396 9.19911 9.3 9.43819C9.03604 9.67728 8.676 9.95819 7.99943 9.95819C7.32287 9.95819 6.96283 9.67728 6.7 9.43932V9.43763C6.43717 9.19967 6.07713 8.91876 5.40057 8.91876C4.724 8.91876 4.36396 9.19967 4.1 9.43876C3.83604 9.67785 3.476 9.95876 2.79943 9.95876C2.12287 9.95876 1.76283 9.67785 1.5 9.43989M14.5 10.9976C14.236 11.2367 13.876 11.5176 13.1994 11.5176C12.5229 11.5176 12.1628 11.2367 11.9 10.9988V10.9971C11.6372 10.7591 11.2771 10.4782 10.6006 10.4782C9.924 10.4782 9.56396 10.7591 9.3 10.9982C9.03604 11.2373 8.676 11.5182 7.99943 11.5182C7.32287 11.5182 6.96283 11.2373 6.7 10.9993V10.9976C6.43717 10.7597 6.07713 10.4788 5.40057 10.4788C4.724 10.4788 4.36396 10.7597 4.1 10.9988C3.83604 11.2378 3.476 11.5188 2.79943 11.5188C2.12287 11.5188 1.76283 11.2378 1.5 10.9999M12.9739 5.69589C12.9739 6.47629 12.3413 7.10893 11.5609 7.10893C10.7805 7.10893 10.1478 6.47629 10.1478 5.69589C10.1478 4.91549 10.7805 4.28285 11.5609 4.28285C12.3413 4.28285 12.9739 4.91549 12.9739 5.69589Z" stroke="black" stroke-miterlimit="10" stroke-linecap="round" stroke-linejoin="round"/>
</g>
</svg>
