<svg width="32" height="32" viewBox="0 0 32 32" fill="none" xmlns="http://www.w3.org/2000/svg">
<g id="Sport=field-hockey, Size=32px, weight=light">
<path id="Vector" d="M19.0248 17.2294L28.2733 5.81508C28.6616 5.33297 28.5949 4.62928 28.1231 4.22865C27.6315 3.81131 26.8921 3.88357 26.4907 4.38817L17.2257 15.9751M12.602 21.0554L15.0712 23.0333M11.5038 22.3967L16.1491 16.5423C16.7162 15.8283 17.755 15.7098 18.4684 16.2777C19.1902 16.8524 19.3004 17.9073 18.7129 18.6188L13.5722 24.8753C11.9302 26.975 10.3108 27.7889 8.17659 27.2667C7.1531 27.0935 6.28496 26.4631 5.66601 25.5121C4.54659 23.8318 4.67043 21.717 4.84567 21.1423C5.05405 20.3716 5.74196 19.7627 6.48871 19.7278C6.64696 19.7143 6.76068 19.7335 6.87441 19.7528C7.32929 19.8297 7.71976 20.057 7.96999 20.4217C8.22022 20.7864 8.29894 21.243 8.26394 21.6803C8.21568 22.196 8.26603 23.0507 8.55417 23.4218C8.77975 23.7018 9.19358 23.8669 9.55463 23.8071C10.1529 23.8057 10.7003 23.2278 11.5038 22.3967Z" stroke="black" stroke-linecap="round" stroke-linejoin="round"/>
<circle id="Ellipse 70" cx="10.3796" cy="13.9078" r="2.5" transform="rotate(-3.71933 10.3796 13.9078)" stroke="black" stroke-linecap="round" stroke-linejoin="round"/>
</g>
</svg>
