<svg width="24" height="24" viewBox="0 0 24 24" fill="none" xmlns="http://www.w3.org/2000/svg">
<g id="Sport=floorball, weight=regular, Size=24">
<path id="Vector" d="M10.6192 4.91918C10.5838 5.02539 10.5838 5.16701 10.5838 5.27322C10.5838 6.0521 11.2211 6.68937 12 6.68937C12.7788 6.68937 13.4161 6.0521 13.4161 5.27322C13.4161 5.16701 13.4161 5.02539 13.3807 4.91918M13.4161 19.0807C13.4161 18.3018 12.7788 17.6645 12 17.6645C11.2211 17.6645 10.5838 18.3018 10.5838 19.0807M4.9193 13.4161C5.69818 13.4161 6.33545 12.7788 6.33545 11.9999C6.33545 11.221 5.69818 10.5838 4.9193 10.5838M19.0805 10.5838C18.3017 10.5838 17.6644 11.221 17.6644 11.9999C17.6644 12.7788 18.3017 13.4161 19.0805 13.4161M11.9999 13.4161C11.2211 13.4161 10.5838 12.7789 10.5838 12C10.5838 11.2211 11.2211 10.5838 11.9999 10.5838C12.7788 10.5838 13.4161 11.2211 13.4161 12C13.4161 12.7789 12.7788 13.4161 11.9999 13.4161ZM9.1678 10.5838C8.38891 10.5838 7.75165 9.94651 7.75165 9.16763C7.75165 8.38875 8.38891 7.75148 9.1678 7.75148C9.94668 7.75148 10.5839 8.38875 10.5839 9.16763C10.5839 9.94651 9.94668 10.5838 9.1678 10.5838ZM14.8323 10.5838C14.0534 10.5838 13.4162 9.94651 13.4162 9.16763C13.4162 8.38875 14.0534 7.75148 14.8323 7.75148C15.6112 7.75148 16.2485 8.38875 16.2485 9.16763C16.2485 9.94651 15.6112 10.5838 14.8323 10.5838ZM14.8323 16.2485C14.0534 16.2485 13.4162 15.6112 13.4162 14.8323C13.4162 14.0534 14.0534 13.4162 14.8323 13.4162C15.6112 13.4162 16.2485 14.0534 16.2485 14.8323C16.2485 15.6112 15.6112 16.2485 14.8323 16.2485ZM9.1678 16.2485C8.38891 16.2485 7.75165 15.6112 7.75165 14.8323C7.75165 14.0534 8.38891 13.4162 9.1678 13.4162C9.94668 13.4162 10.5839 14.0534 10.5839 14.8323C10.5839 15.6112 9.94668 16.2485 9.1678 16.2485ZM12 19.125C8.06429 19.125 4.875 15.9357 4.875 12C4.875 8.06429 8.06429 4.875 12 4.875C15.9357 4.875 19.125 8.06429 19.125 12C19.125 15.9357 15.9357 19.125 12 19.125Z" stroke="black" stroke-width="1.5" stroke-miterlimit="10" stroke-linecap="round" stroke-linejoin="round"/>
</g>
</svg>
