<svg width="24" height="24" viewBox="0 0 24 24" fill="none" xmlns="http://www.w3.org/2000/svg">
<g id="Sport=afl, Size=24px, weight=regular">
<g id="afl">
<path id="Vector 46" d="M8.04297 13.6415L9.28934 11.2099C9.32945 11.1316 9.40999 11.0824 9.49794 11.0824H9.80424C9.90741 11.0824 9.99844 11.1498 10.0285 11.2485L10.7064 13.4753C10.7364 13.574 10.8275 13.6415 10.9306 13.6415H11.6132C11.7427 13.6415 11.8476 13.5365 11.8476 13.4071V11.3168C11.8476 11.1873 11.9526 11.0824 12.082 11.0824H14.4915" stroke="black" stroke-width="1.5" stroke-linecap="round" stroke-linejoin="round"/>
<path id="Vector 47" d="M8.53027 12.9989H9.41524H10.5338" stroke="black" stroke-width="1.5" stroke-linecap="round" stroke-linejoin="round"/>
<path id="Vector 48" d="M11.8789 12.5289H13.2431" stroke="black" stroke-width="1.5" stroke-linecap="round" stroke-linejoin="round"/>
<path id="Vector 49" d="M14.5176 11.0964L14.7152 13.426C14.7255 13.5474 14.827 13.6406 14.9488 13.6406H16.4169" stroke="black" stroke-width="1.5" stroke-linecap="round" stroke-linejoin="round"/>
<path id="american-football" d="M5.9422 8.51773C5.41074 10.8115 5.40993 13.1861 5.93983 15.4796M18.0488 8.51342C18.5787 10.8069 18.5779 13.1815 18.0464 15.4753M3.04448 12.6922C3.70974 13.6994 5.28316 15.5787 8.323 16.6031C10.7063 17.4028 13.2968 17.4019 15.6806 16.6005C18.7121 15.5831 20.2868 13.7027 20.9618 12.6861C21.2408 12.2632 21.2409 11.7236 20.9623 11.3009C20.279 10.2937 18.7056 8.4144 15.6747 7.39904C13.2914 6.59933 10.701 6.60021 8.31714 7.40155C5.2856 8.41897 3.7109 10.2994 3.03595 11.316C2.76598 11.7299 2.76579 12.2695 3.04448 12.6922Z" stroke="black" stroke-width="1.5" stroke-miterlimit="10" stroke-linecap="round" stroke-linejoin="round"/>
<path id="american-football_2" d="M15.2318 8.82677C13.1768 8.13719 10.9431 8.13796 8.88752 8.82893" stroke="black" stroke-width="1.5" stroke-miterlimit="10" stroke-linecap="round" stroke-linejoin="round"/>
</g>
</g>
</svg>
