<svg width="24" height="24" viewBox="0 0 24 24" fill="none" xmlns="http://www.w3.org/2000/svg">
<g id="Sport=sailing, Size=24px, weight=light">
<path id="Sailing" d="M7.09947 20.0391C6.13516 19.2495 5.0699 17.9168 5.0699 17.9168C6.48316 18.208 17.7414 18.2657 17.7414 18.2657L18.2594 19.6246M14.7582 18.1844L14.1445 16.8727L10.5503 16.8018L9.78519 18.0716M11.14 4.76831L16.453 15.1989M11.14 15.1465H17.0215M11.0019 15.6921C7.76094 15.052 4.88661 16.4844 4.88661 16.4844C2.62593 8.28104 11.0178 3.49334 11.0178 3.49334M10.8 15.6712C10.8 15.6712 6.5602 12.8116 10.4573 3.8475M11.0922 16.7861V2.625H12.4098V3.32282H13.8045M19.5 20.4772C16.7133 22.4972 14.6944 20.4772 14.6944 20.4772H14.6652C11.8785 22.4972 9.85957 20.4772 9.85957 20.4772H9.83035C7.04368 22.4972 5.02474 20.4772 5.02474 20.4772" stroke="black" stroke-linecap="round" stroke-linejoin="round"/>
</g>
</svg>
