<svg width="24" height="24" viewBox="0 0 24 24" fill="none" xmlns="http://www.w3.org/2000/svg">
<g id="Sport=futsal, Size=24px, weight=regular">
<path id="futsal" d="M5.39961 18.75C5.39961 18.75 14.7419 18.75 20.25 18.75M9.24653 8.96402C9.24653 8.96402 8.53329 10.5768 8.42463 11.6004C8.42463 11.6004 9.4172 12.9338 10.3321 13.7247L13.1067 13.1199C13.1067 13.1199 13.789 11.9259 13.8995 10.4595M9.24653 8.96402C10.7509 8.40583 12.0526 8.34381 12.0526 8.34381M9.24653 8.96402C8.43 8.13187 7.37541 7.79075 7.37541 7.79075M13.8995 10.4595C13.8995 10.4595 13.1692 9.11907 12.0526 8.34381M13.8995 10.4595L15.7673 9.97967M12.0526 8.34381L12.8132 6.63801M15.7673 9.97967C15.7673 9.97967 15.7596 8.49886 15.2402 7.66927C15.2402 7.66927 14.7972 6.96373 12.8132 6.63801M15.7673 9.97967C15.7673 9.97967 16.6193 10.7141 16.8245 12.2154C16.8245 12.2154 16.4419 14.9653 14.0641 15.3165M12.8132 6.63801C12.1412 5.52653 10.8696 5.26002 10.8696 5.26002M8.54774 5.53679C8.54774 5.53679 7.63399 6.61212 7.37541 7.79075M7.37541 7.79075C7.37541 7.79075 5.85707 8.58956 5.40218 9.63272C5.40218 9.63272 5.3285 10.7393 5.96946 11.9988L8.42464 11.5992M5.96946 12C5.96946 12 5.27673 13.2285 5.47329 14.3346C5.47329 14.3346 6.07274 15.9164 7.29194 16.5056M7.29194 16.5056C7.29194 16.5056 8.44982 16.5781 9.71122 16.1025M7.29194 16.5056C7.29194 16.5056 7.10611 17.0983 7.22619 17.9046M9.71122 16.1025C9.71122 16.1025 10.0731 14.2726 10.3314 13.7242M9.71122 16.1025C9.71122 16.1025 11.1384 17.0433 11.9656 17.1051M4.24803 9.45063C4.24803 9.45063 4.66445 9.41379 5.39961 9.50682M4.16759 14.3423L5.43832 14.2549M11.9656 17.1051C11.9656 17.1051 13.5887 16.4021 14.0641 15.3165M11.9656 17.1051C11.9656 17.1051 11.9967 18.1447 11.888 18.6071M14.0641 15.3165C14.0641 15.3165 13.5369 13.7142 13.1081 13.1196M15.6757 14.5244C15.6757 14.5244 16.0254 15.1164 15.8301 16.1419M17.25 12C17.25 15.7279 14.2279 18.75 10.5 18.75C6.77208 18.75 3.75 15.7279 3.75 12C3.75 8.27208 6.77208 5.25 10.5 5.25C14.2279 5.25 17.25 8.27208 17.25 12Z" stroke="black" stroke-width="1.5" stroke-linecap="round" stroke-linejoin="round"/>
</g>
</svg>
