<svg width="16" height="16" viewBox="0 0 16 16" fill="none" xmlns="http://www.w3.org/2000/svg">
<g id="Sport=enba, Size=16px, weight=regular">
<path id="Vector" d="M12.4605 7.60199C12.4605 7.74676 12.4605 7.89152 12.4605 8.03629C12.4605 9.33916 11.9779 10.5455 11.0611 11.4624C10.1443 12.3792 8.93789 12.8617 7.63502 12.8617C6.33215 12.8617 5.12579 12.3792 4.20895 11.4624C3.29212 10.5455 2.80957 9.33916 2.80957 8.03629C2.80957 7.98803 2.80957 7.93978 2.80957 7.89152C2.85782 6.6369 3.34037 5.4788 4.20895 4.61021C5.07753 3.74163 6.23564 3.25909 7.49026 3.21083C7.53851 3.21083 7.58677 3.21083 7.63502 3.21083C7.86411 3.21083 8.09021 3.22575 8.31228 3.25533M7.05597 3.35574C6.51324 4.21857 6.43822 4.74377 6.76644 5.33403C6.76644 5.33403 6.86295 5.52705 7.05597 5.62356C7.46473 5.93799 7.91446 6.02705 8.39182 6.03758M8.11757 12.8617C6.23564 11.8966 6.18739 10.7868 6.13913 9.72519C6.13913 9.00138 6.09088 8.27756 5.46357 7.65025C5.46357 7.65025 5.41531 7.60199 5.36706 7.55374C5.31881 7.50549 5.02928 7.31247 5.02928 7.31247C4.45022 6.97469 3.72641 7.02294 2.80957 7.50549M11.2059 11.3176L4.40197 4.5137M3.54441 10.7147C3.8853 8.42587 5.29754 6.38055 7.48896 5.30919C7.75844 5.16859 8.03356 5.04773 8.31228 4.94592M10.2075 3.96743C10.2075 4.91403 10.772 5.57368 11.689 5.57368C12.1771 5.57368 12.6699 5.47997 13.1189 4.91877M10.2075 3.96743C10.2075 3.02084 10.772 2.37183 11.689 2.37183C12.6061 2.37183 13.1897 3.02084 13.1897 3.96743H10.2075Z" stroke="black" stroke-width="1.5" stroke-miterlimit="10" stroke-linecap="round" stroke-linejoin="round"/>
</g>
</svg>
