<svg width="24" height="24" viewBox="0 0 24 24" fill="none" xmlns="http://www.w3.org/2000/svg">
<g id="Sport=set-tennis, Size=24px, weight=light">
<path id="set-tennis" d="M9.92243 5.75218C10.4182 6.43086 10.5797 7.33327 10.3384 8.13382C10.0822 9.0202 9.3903 9.73557 9.05349 10.5962C8.73719 11.387 8.72735 12.2863 9.03198 13.0852C9.32585 13.8789 9.79938 14.4936 10.6826 14.9211C11.5551 15.3434 12.331 15.3334 13.1465 15.0767C13.9513 14.8148 14.6613 14.2544 15.0853 13.5158C15.5514 12.7177 15.6832 11.7312 16.2194 10.9804C16.7084 10.2997 17.5163 9.86653 18.3454 9.8291M18.1478 14.9758C16.5043 18.3712 12.4195 19.7914 9.02404 18.148C5.62862 16.5045 4.20837 12.4197 5.85184 9.02424C7.49531 5.62881 11.5801 4.20857 14.9756 5.85204C18.371 7.49551 19.7912 11.5803 18.1478 14.9758Z" stroke="black" stroke-miterlimit="10" stroke-linecap="round" stroke-linejoin="round"/>
</g>
</svg>
