<svg width="16" height="16" viewBox="0 0 16 16" fill="none" xmlns="http://www.w3.org/2000/svg">
<g id="Sport=fencing, weight=regular, Size=16">
<path id="fencing" d="M9.2143 6.66365L13.3005 2.5M8.63606 7.2506L9.71158 6.15522M5.85859 10.0794L7.96145 7.93767M4.96811 11.7185L3.3317 13.3852C3.18136 13.5383 2.93657 13.5383 2.78623 13.3852L2.61276 13.2085C2.46241 13.0554 2.46241 12.8061 2.61276 12.6529L3.6825 11.5634M10.1395 10.0794L2.69949 2.5M11.7508 10.9863L13.3872 12.6529C13.5376 12.8061 13.5376 13.0554 13.3872 13.2085L13.2138 13.3852C13.0634 13.5383 12.8186 13.5383 12.6683 13.3852L11.5735 12.2701M5.86052 10.0794C6.65078 10.8842 6.68547 11.7578 6.09953 12.7531L3.23533 9.83595C4.21062 9.23918 5.07026 9.27452 5.86052 10.0794ZM10.1414 10.0794C10.9317 9.27452 11.7894 9.23918 12.7666 9.83595L9.9024 12.7531C9.31645 11.7597 9.34922 10.8842 10.1414 10.0794Z" stroke="black" stroke-width="1.5" stroke-miterlimit="10" stroke-linecap="round" stroke-linejoin="round"/>
</g>
</svg>
