<svg width="24" height="24" viewBox="0 0 24 24" fill="none" xmlns="http://www.w3.org/2000/svg">
<g id="Sport=cross-country, weight=regular, Size=24">
<path id="cross-country" d="M10.0462 16.8939L10.7142 15.1923C10.7801 15.0081 10.765 14.8081 10.6794 14.6323L8.69383 10.7053C8.28335 9.88118 8.62492 8.8914 9.46935 8.50202L13.9451 6.39946M15.9876 8.71439L16.6965 10.2264C16.7678 10.3729 16.8987 10.4913 17.0528 10.5447L18.5719 11.0709C19.0012 11.2197 19.2294 11.6884 19.0783 12.111C18.9272 12.5335 18.451 12.7582 18.0217 12.6095L15.743 11.8201C15.5889 11.7667 15.4581 11.6483 15.3867 11.5018L14.3958 9.42935L11.7092 10.7148C11.486 10.8202 11.4079 11.0732 11.5187 11.2821L12.8766 13.92C12.9732 14.0996 12.9882 14.2996 12.9224 14.4838L11.8202 17.5924M4.875 15.4439L17.3517 19.445C17.6929 19.5632 18.078 19.4896 18.3296 19.2358C18.5812 18.982 18.7323 18.5595 18.3304 17.8844M17.2211 12.3616L6.67554 8.51291M18.222 5.36772C18.5925 6.12856 18.2663 7.04097 17.4933 7.40565C16.7203 7.77033 15.7933 7.44919 15.4228 6.68835C15.0523 5.92752 15.3786 5.01511 16.1515 4.65043C16.9245 4.28575 17.8515 4.60689 18.222 5.36772Z" stroke="black" stroke-width="1.5" stroke-miterlimit="10" stroke-linecap="round" stroke-linejoin="round"/>
</g>
</svg>
