<svg width="16" height="16" viewBox="0 0 16 16" fill="none" xmlns="http://www.w3.org/2000/svg">
<g id="Sport=afl, Size=16px, weight=regular">
<g id="afl">
<path id="Vector 46" d="M5.3623 9.0943L6.17144 7.51573C6.21155 7.43747 6.29209 7.38824 6.38004 7.38824H6.4786C6.58176 7.38824 6.6728 7.45569 6.70284 7.55439L7.12105 8.92816C7.15109 9.02685 7.24213 9.0943 7.3453 9.0943H7.66432C7.79378 9.0943 7.89873 8.98936 7.89873 8.8599V7.62265C7.89873 7.49319 8.00368 7.38824 8.13314 7.38824H9.66133" stroke="black" stroke-width="1.5" stroke-linecap="round" stroke-linejoin="round"/>
<path id="Vector 47" d="M5.68652 8.66595H6.2765H7.02222" stroke="black" stroke-width="1.5" stroke-linecap="round" stroke-linejoin="round"/>
<path id="Vector 48" d="M7.91895 8.3526H8.82838" stroke="black" stroke-width="1.5" stroke-linecap="round" stroke-linejoin="round"/>
<path id="Vector 49" d="M9.67871 7.39758L9.80439 8.87912C9.81469 9.00046 9.91618 9.09371 10.038 9.09371H10.945" stroke="black" stroke-width="1.5" stroke-linecap="round" stroke-linejoin="round"/>
<path id="american-football" d="M3.96147 5.67848C3.60716 7.20769 3.60662 8.79075 3.95989 10.3197M12.0325 5.67561C12.3858 7.20458 12.3853 8.78763 12.0309 10.3168M2.02965 8.46146C2.47316 9.1329 3.52211 10.3858 5.54867 11.0687C7.13754 11.6018 8.8645 11.6013 10.4537 11.067C12.4748 10.3887 13.5246 9.13514 13.9745 8.45739C14.1605 8.17549 14.1606 7.81571 13.9748 7.53394C13.5193 6.8625 12.4704 5.6096 10.4498 4.93269C8.86096 4.39955 7.13399 4.40014 5.54476 4.93436C3.52373 5.61265 2.47393 6.86626 2.02397 7.54401C1.84398 7.8199 1.84386 8.17969 2.02965 8.46146Z" stroke="black" stroke-width="1.5" stroke-miterlimit="10" stroke-linecap="round" stroke-linejoin="round"/>
<path id="american-football_2" d="M10.1546 5.88451C8.7845 5.4248 7.29538 5.4253 5.92501 5.88595" stroke="black" stroke-width="1.5" stroke-miterlimit="10" stroke-linecap="round" stroke-linejoin="round"/>
</g>
</g>
</svg>
