<svg width="16" height="16" viewBox="0 0 16 16" fill="none" xmlns="http://www.w3.org/2000/svg">
<g id="Sport=lol, weight=regular, Size=16">
<path id="lol" d="M4.48091 10.7728C3.78139 10.0196 3.32917 9.03753 3.25937 7.94322C3.19212 6.88898 3.49028 5.89502 4.04723 5.07941M12.4874 9.17977C12.689 8.61408 12.7812 8.00066 12.7406 7.36536C12.6314 5.65346 11.5864 4.21625 10.1227 3.5M6.4755 6.32785V9.92529C6.4755 10.5531 6.19387 11.1493 5.70502 11.5565C5.31709 11.8796 5.55084 12.5 6.06049 12.5H11.4033C11.6208 12.5 11.8271 12.4061 11.9669 12.2433L12.3403 11.809C12.7427 11.3409 12.4023 10.6265 11.7767 10.6265H9.26141C8.85484 10.6265 8.52526 10.3043 8.52526 9.90693V3.64847H6.28555C5.74028 3.64847 5.4542 4.28118 5.82125 4.67532C6.24221 5.12734 6.4755 5.7166 6.4755 6.32785Z" stroke="black" stroke-width="1.5" stroke-linecap="round" stroke-linejoin="round"/>
</g>
</svg>
