<svg width="24" height="24" viewBox="0 0 24 24" fill="none" xmlns="http://www.w3.org/2000/svg">
<g id="Sport=weightlifting, weight=regular, Size=24">
<path id="Weightlifting" d="M15.2738 15.2808C15.2738 15.2808 13.0491 11.8157 7.90655 14.3003M9.89916 13.5431C9.89916 13.5431 8.41972 10.6761 4.5 12.0133M6.95665 17.8142C6.95665 17.8142 6.00947 18.7228 5.26429 20.25M6.51172 18.5483C12.0037 21.8824 19.4446 17.8963 19.4446 17.8963C20.0014 10.3141 16.1773 5.02153 16.1773 5.02153L16.1227 4.95993C16.1227 4.95993 15.2983 3.70992 11.7526 3.75099C11.7526 3.75099 9.99197 4.60571 10.3168 6.56414L10.8136 7.20069L13.4422 6.91321C13.4422 6.91321 13.8544 5.83262 14.0755 5.53231M13.9035 6.27153C13.8789 6.251 15.1264 7.15706 15.2683 8.31979L15.2874 8.39679C15.4075 9.02308 15.5467 9.9625 15.413 10.3809C15.2519 10.8891 14.5886 11.749 14.3293 12.9348" stroke="black" stroke-width="1.5" stroke-miterlimit="10" stroke-linecap="round" stroke-linejoin="round"/>
</g>
</svg>
