<svg width="24" height="24" viewBox="0 0 24 24" fill="none" xmlns="http://www.w3.org/2000/svg">
<g id="Sport=car-racing, weight=light, Size=24">
<path id="Vector" d="M20.6675 15.8951V12.6146C20.6675 12.2852 20.6075 11.9593 20.4875 11.651L18.5933 6.98892C18.2594 6.16703 17.423 5.625 16.4928 5.625H7.58815C6.65793 5.625 5.82148 6.16703 5.48765 6.98892L3.59345 11.651C3.47342 11.9593 3.41341 12.2852 3.41341 12.6146V15.8951M20.6675 15.8951C20.6675 16.2848 20.3299 16.6037 19.9173 16.6037H4.16359C3.75099 16.6037 3.41341 16.2848 3.41341 15.8951M20.6675 15.8951V17.6665C20.6675 18.0562 20.3299 18.375 19.9173 18.375H18.7921C18.3795 18.375 18.0419 18.0562 18.0419 17.6665V16.6037M3.41341 15.8951V17.6665C3.41341 18.0562 3.75099 18.375 4.16359 18.375H5.28886C5.70145 18.375 6.03903 18.0562 6.03903 17.6665V16.6037M4.16359 10.5812L4.71122 10.7548C5.09381 10.8752 5.49515 10.9354 5.8965 10.9354H18.1844C18.5858 10.9354 18.9871 10.8752 19.3697 10.7548L19.9173 10.5812M15.0412 15.1866H9.03975M7.1643 14.1238H5.66394C5.0413 14.1238 4.53868 13.6491 4.53868 13.061C4.53868 12.8662 4.70747 12.7068 4.91377 12.7068H6.41412C7.03677 12.7068 7.53939 13.1815 7.53939 13.7696C7.53939 13.9644 7.3706 14.1238 7.1643 14.1238ZM18.417 14.1238H16.9166C16.7103 14.1238 16.5415 13.9644 16.5415 13.7696C16.5415 13.1815 17.0442 12.7068 17.6668 12.7068H19.1672C19.3735 12.7068 19.5423 12.8662 19.5423 13.061C19.5423 13.6491 19.0396 14.1238 18.417 14.1238ZM4.12554 10.2269H2.81272C2.2951 10.2269 1.875 9.83013 1.875 9.34124C1.875 9.0472 2.12631 8.80984 2.43763 8.80984H3.5629C3.87423 8.80984 4.12554 9.0472 4.12554 9.34124V10.2269ZM19.8745 10.2269H21.1873C21.7049 10.2269 22.125 9.83013 22.125 9.34124C22.125 9.0472 21.8737 8.80984 21.5624 8.80984H20.4371C20.1258 8.80984 19.8745 9.0472 19.8745 9.34124V10.2269Z" stroke="black" stroke-miterlimit="10" stroke-linecap="round" stroke-linejoin="round"/>
</g>
</svg>
