<svg width="16" height="16" viewBox="0 0 16 16" fill="none" xmlns="http://www.w3.org/2000/svg">
<g id="Sport=king-of-glory, weight=light, Size=16">
<path id="King of Glory" d="M12.6792 5.7274C11.891 3.96581 10.2156 2.75 8.27591 2.75V4.4686C9.28497 4.4686 10.1878 4.95761 10.7904 5.72774M10.2662 10.8093C9.71389 11.2624 9.02411 11.5314 8.27591 11.5314V13.25C10.3562 13.25 12.1325 11.8515 12.8363 9.88132M5.60019 10.8036C6.15377 11.26 6.84605 11.5314 7.59769 11.5314V13.25C5.51741 13.25 3.7411 11.8515 3.03757 9.88132M3.20283 5.70859C3.99445 3.95708 5.66486 2.75 7.59769 2.75V4.4686C6.57739 4.4686 5.66549 4.96869 5.06286 5.7536M3.77281 7.17172L3.47017 8.67277H5.35558M10.2662 7.17172H12.0716L12.3162 8.48215M10.1722 10.5258L10.6636 11.3604L12.3077 9.88099H14.75L14.0421 8.26886L13.7097 8.61043L13.3773 6.80854L14.0421 5.7274H9.05988L7.98053 4.14381L6.9015 5.70859H1.9579L2.62238 6.78973L2.2903 8.59128L1.9579 8.25005L1.25 9.86218H4.45742L5.35558 11.3413L5.84699 10.507L10.1722 10.5258ZM6.9015 6.71315H9.08356L9.61465 8.88725H6.46414L6.9015 6.71315Z" stroke="black" stroke-miterlimit="10" stroke-linecap="round" stroke-linejoin="round"/>
</g>
</svg>
