<svg width="16" height="16" viewBox="0 0 16 16" fill="none" xmlns="http://www.w3.org/2000/svg">
<g id="Sport=nordic-combined, weight=regular, Size=16">
<path id="Nordic Combined" d="M7.04 3.90741C7.70274 3.90741 8.24 3.36849 8.24 2.7037C8.24 2.03892 7.70274 1.5 7.04 1.5C6.37725 1.5 5.84 2.03892 5.84 2.7037C5.84 3.36849 6.37725 3.90741 7.04 3.90741ZM7.04 3.90741C7.42256 3.90741 7.75953 3.72396 7.97937 3.44422C8.52225 3.48755 9.04401 3.68111 9.47457 4.02055L11.0912 5.29455H11.0888C11.6461 5.73414 11.7699 6.53051 11.3725 7.11889L11.0701 7.56666C10.8219 7.81559 10.4293 7.84352 10.1485 7.63215C9.87585 7.42703 9.78849 7.05581 9.94065 6.75007L10.1576 6.31529L8.71761 5.35233L8.47761 7.75974L9.33201 10.7059C9.40113 10.9828 9.38673 11.2736 9.29121 11.5423L8.49537 13.7773C8.44209 13.9266 8.34801 14.0493 8.22993 14.1379C8.25297 13.8216 8.16849 13.5024 7.97649 13.2404L7.89057 13.123L7.74945 13.1576C7.44753 13.2313 7.18977 13.4114 7.00545 13.6526C6.98433 13.5341 6.98673 13.4099 7.02417 13.2871L7.58721 11.4484C7.69905 11.0839 7.70001 10.6944 7.59105 10.3294L7.03857 8.48196L7.42449 10.2235C7.48593 10.5008 7.46481 10.7902 7.36305 11.0555L6.53745 13.2091C6.44721 13.4441 6.24705 13.6054 6.01521 13.6617C5.97201 13.513 5.91201 13.3685 5.81793 13.24L5.73201 13.1225L5.59089 13.1571C5.45121 13.1913 5.32449 13.2534 5.20545 13.3276C5.09985 13.1528 5.06433 12.9347 5.13009 12.7209L5.67585 10.9419C5.78289 10.5928 5.78913 10.2206 5.69313 9.86863L5.34081 8.86859C5.19585 8.4574 5.16081 8.01492 5.23857 7.58592L5.60001 5.59259C5.60001 5.59259 4.80369 7.31196 3.92001 7.27777C3.40209 7.25755 2.83137 6.76452 2.44785 6.36007C2.18385 6.08129 2.18961 5.64314 2.46081 5.37111C2.73633 5.09474 3.18369 5.09474 3.45921 5.37111L3.92001 5.83333L4.66065 4.59448C4.99377 4.03837 5.53185 3.64981 6.14481 3.49814C6.36465 3.74707 6.6824 3.90741 7.04 3.90741ZM2.48 14.0185V6.39186M2.96 13.537H2M13.941 12.5741L9.91999 7.51852M14 11.8957L13.2646 12.5149M4.64575 14.006C4.79935 13.5818 5.15455 13.2631 5.59135 13.1567L5.73247 13.122L5.81839 13.2395C6.08479 13.603 6.15247 14.0763 5.99839 14.5L4.64527 14.006H4.64575ZM6.80575 14.006C6.95935 13.5818 7.31455 13.2631 7.75135 13.1567L7.89247 13.122L7.97839 13.2395C8.24479 13.603 8.31247 14.0763 8.15839 14.5L6.80527 14.006H6.80575Z" stroke="black" stroke-width="1.5" stroke-linecap="round" stroke-linejoin="round"/>
</g>
</svg>
