<svg width="16" height="16" viewBox="0 0 16 16" fill="none" xmlns="http://www.w3.org/2000/svg">
<g id="Sport=soccer, Size=16px, weight=light">
<path id="soccer" d="M7.11793 5.86357C7.11793 5.86357 6.61602 6.99848 6.53956 7.71878C6.53956 7.71878 7.23803 8.65713 7.88186 9.21367L9.83437 8.78806C9.83437 8.78806 10.3145 7.94782 10.3922 6.91595M7.11793 5.86357C8.17654 5.47077 9.09258 5.42712 9.09258 5.42712M7.11793 5.86357C6.54333 5.27798 5.80122 5.03794 5.80122 5.03794M10.3922 6.91595C10.3922 6.91595 9.87834 5.97268 9.09258 5.42712M10.3922 6.91595L11.7066 6.57828M9.09258 5.42712L9.6278 4.22674M11.7066 6.57828C11.7066 6.57828 11.7012 5.53624 11.3357 4.95245C11.3357 4.95245 11.0239 4.45596 9.6278 4.22674M11.7066 6.57828C11.7066 6.57828 12.3062 7.09512 12.4506 8.15161C12.4506 8.15161 12.1813 10.0867 10.5081 10.3338M9.6278 4.22674C9.15493 3.44459 8.26006 3.25705 8.26006 3.25705M6.62619 3.45181C6.62619 3.45181 5.98318 4.20853 5.80122 5.03794M5.80122 5.03794C5.80122 5.03794 4.73276 5.60006 4.41264 6.33414C4.41264 6.33414 4.3608 7.11284 4.81184 7.99918L6.53956 7.71795M4.81184 8C4.81184 8 4.32437 8.86452 4.46268 9.64289C4.46268 9.64289 4.88452 10.756 5.74248 11.1706M5.74248 11.1706C5.74248 11.1706 6.55728 11.2216 7.44493 10.8869M5.74248 11.1706C5.74248 11.1706 5.61171 11.5877 5.69621 12.1551M7.44493 10.8869C7.44493 10.8869 7.69957 9.59925 7.88137 9.21334M7.44493 10.8869C7.44493 10.8869 8.44924 11.549 9.03138 11.5924M3.60047 6.206C3.60047 6.206 3.8935 6.18007 4.41084 6.24554M3.54386 9.64831L4.43807 9.58678M9.03138 11.5924C9.03138 11.5924 10.1735 11.0978 10.5081 10.3338M9.03138 11.5924C9.03138 11.5924 9.0532 12.3241 8.97674 12.6494M10.5081 10.3338C10.5081 10.3338 10.1371 9.20629 9.83535 8.78789M11.6422 9.77645C11.6422 9.77645 11.8883 10.193 11.7508 10.9146M12.75 8C12.75 10.6234 10.6234 12.75 8 12.75C5.37665 12.75 3.25 10.6234 3.25 8C3.25 5.37665 5.37665 3.25 8 3.25C10.6234 3.25 12.75 5.37665 12.75 8Z" stroke="black" stroke-miterlimit="10" stroke-linecap="round" stroke-linejoin="round"/>
</g>
</svg>
