<svg width="16" height="16" viewBox="0 0 16 16" fill="none" xmlns="http://www.w3.org/2000/svg">
<g id="Sport=gymnastics, Size=16px, weight=light">
<path id="Gymnastics" d="M9.15048 8.77754V6.00605M8.02167 9.05644L9.54827 13.5538C9.64986 13.8808 9.97767 14.0698 10.2797 13.9759C10.5823 13.8821 10.7448 13.5405 10.6432 13.2135L9.17125 8.83511M6.85268 8.86795L5.38568 13.2177C5.28454 13.5422 5.44754 13.8813 5.75006 13.9751C6.05258 14.0689 6.37994 13.8817 6.48108 13.5567L7.98555 9.05644M6.84997 8.81166V6.00605L3.08382 5.71181C2.72666 5.68281 2.46704 5.41756 2.50361 5.11904C2.54019 4.8201 2.85896 4.60133 3.21612 4.62991L6.49462 4.90966M9.50538 4.90966L12.7839 4.62991C13.141 4.60133 13.4598 4.8201 13.4964 5.11904C13.533 5.41756 13.2733 5.68281 12.9162 5.71181L9.15003 6.00605M10.3985 7.63509C12.2344 7.75449 13.5 8.00695 13.5 8.29907C13.5 8.70632 11.0374 9.0364 8 9.0364C4.96261 9.0364 2.5 8.7059 2.5 8.29864C2.5 8.00738 3.76065 7.75535 5.59022 7.63551M9.18931 3.20941C9.18931 3.87734 8.65684 4.41881 8 4.41881C7.34316 4.41881 6.81069 3.87734 6.81069 3.20941C6.81069 2.54147 7.34316 2 8 2C8.65684 2 9.18931 2.54147 9.18931 3.20941Z" stroke="black" stroke-linecap="round" stroke-linejoin="round"/>
</g>
</svg>
