<svg width="24" height="24" viewBox="0 0 24 24" fill="none" xmlns="http://www.w3.org/2000/svg">
<g id="Sport=call-of-duty, weight=light, Size=24">
<path id="Call of Duty" d="M13.0315 16.2617C12.795 16.1162 12.554 15.9545 12.3088 15.7752C12.125 15.6408 11.8799 15.6408 11.6955 15.7752C11.4495 15.9545 11.2071 16.1162 10.9706 16.2622M19.276 13.1932C19.9224 12.2855 20.2402 11.2705 20.2497 10.31C20.2847 6.76892 16.9481 4.125 12 4.125C7.05189 4.125 3.71532 6.76892 3.75027 10.31C3.75981 11.2705 4.07757 12.2855 4.72401 13.1932M13.8051 18.2995L13.7977 19.7483M5.61461 10.9398C5.86746 13.247 4.00398 12.7221 4.00398 15.1499C4.00398 16.0785 4.57051 17.2999 7.13173 17.3027C7.72414 17.3032 8.24392 17.7102 8.38737 18.295L8.64658 19.3497C9.8314 19.7762 10.9681 19.8829 11.9995 19.8746M11.9995 19.8746C13.0313 19.8829 14.1676 19.7762 15.3524 19.3497L15.6116 18.295C15.7551 17.7102 16.2748 17.3036 16.8673 17.3027C19.4285 17.2999 19.995 16.0785 19.995 15.1499C19.995 12.7221 18.1315 13.247 18.3844 10.9398M11.9995 19.8746L12 18.2995M10.1942 18.2995L10.2016 19.7483M16.1249 15.5454C14.7463 15.5454 13.63 14.4907 13.63 13.5986C13.63 12.5628 14.2764 12.4552 15.5838 12.5545C18.2749 12.7592 18.2712 15.5454 16.1249 15.5454ZM8.41573 12.5545C9.72313 12.4552 10.3696 12.5628 10.3696 13.5986C10.3696 14.4911 9.25328 15.5454 7.87462 15.5454C5.72832 15.5454 5.72469 12.7592 8.41573 12.5545Z" stroke="black" stroke-linecap="round" stroke-linejoin="round"/>
</g>
</svg>
