<svg width="24" height="24" viewBox="0 0 24 24" fill="none" xmlns="http://www.w3.org/2000/svg">
<g id="Sport=olympics, weight=regular, Size=24">
<path id="olympics" d="M8.625 9.77116C8.625 11.6468 7.11396 13.1673 5.25 13.1673C3.38604 13.1673 1.875 11.6468 1.875 9.77116C1.875 7.89551 3.38604 6.375 5.25 6.375C7.11396 6.375 8.625 7.89551 8.625 9.77116ZM8.625 9.77116C8.625 11.6468 10.136 13.1673 12 13.1673C13.864 13.1673 15.375 11.6468 15.375 9.77116M8.625 9.77116C8.625 7.89551 10.136 6.375 12 6.375C13.864 6.375 15.375 7.89551 15.375 9.77116M15.375 9.77116C15.375 11.6468 16.886 13.1673 18.75 13.1673C20.614 13.1673 22.125 11.6468 22.125 9.77116C22.125 7.89551 20.614 6.375 18.75 6.375C16.886 6.375 15.375 7.89551 15.375 9.77116ZM11.5638 14.2288C11.5638 16.1045 10.0527 17.625 8.18878 17.625C6.32481 17.625 4.81378 16.1045 4.81378 14.2288C4.81378 12.3532 6.32481 10.8327 8.18878 10.8327C10.0527 10.8327 11.5638 12.3532 11.5638 14.2288ZM19.2321 14.2288C19.2321 16.1045 17.7211 17.625 15.8571 17.625C13.9932 17.625 12.4821 16.1045 12.4821 14.2288C12.4821 12.3532 13.9932 10.8327 15.8571 10.8327C17.7211 10.8327 19.2321 12.3532 19.2321 14.2288Z" stroke="black" stroke-width="1.5" stroke-miterlimit="10" stroke-linecap="round" stroke-linejoin="round"/>
</g>
</svg>
