<svg width="16" height="16" viewBox="0 0 16 16" fill="none" xmlns="http://www.w3.org/2000/svg">
<g id="Sport=speedway, weight=light, Size=16">
<path id="Speedway" d="M3.40188 10.1052C3.36953 10.1207 3.3331 10.1291 3.29502 10.1291C3.18448 10.1291 3.09031 10.0564 3.05551 9.95514M4.58672 10.4136C4.38201 10.8944 3.91446 11.2301 3.37076 11.2301C2.63791 11.2301 2.04426 10.6204 2.04426 9.86857C2.04426 9.11677 2.63832 8.50701 3.37076 8.50701C3.87966 8.50701 4.32183 8.80118 4.54455 9.23318M5.28927 10.5645C5.00842 11.3999 4.23544 12 3.32614 12C2.17937 12 1.25 11.0461 1.25 9.86899C1.25 8.69192 2.17937 7.73798 3.32614 7.73798C4.29808 7.73798 5.11404 8.42339 5.34004 9.34916M12.6739 9.86857L11.2372 6.48905M9.15455 8.7642L9.69293 8.89279L9.30644 9.9875C9.23152 10.2001 9.0309 10.3384 8.81064 10.3287L6.6473 10.2283L5.95416 10.0783M5.1206 8.79739C5.1206 8.79739 4.63339 7.59931 3.84896 7.01392C3.22255 6.5462 2.35337 6.52225 2.0287 6.53149C1.9501 6.53359 1.88254 6.47518 1.87354 6.39534C1.84979 6.18144 1.87026 5.7923 2.30342 5.69649C2.90976 5.56243 4.12204 5.57462 4.57403 5.69649C5.02561 5.81835 5.32203 6.81893 6.51055 6.34323C7.69908 5.86752 6.72099 5.32668 8.64728 4.96444C9.49108 4.80601 9.9787 5.08631 10.2403 5.65993C10.5019 6.23355 10.7275 6.48947 10.7275 6.48947C10.7275 6.48947 10.3365 6.98282 10.1269 7.45054C9.84768 8.07291 9.84768 8.28387 9.84768 8.28387M7.07964 5.99863C7.07964 5.99863 7.426 6.24531 7.54473 6.48905C7.66346 6.7332 7.09151 7.36103 5.9513 7.27993C5.18774 7.2253 5.13615 7.07191 4.66082 6.78363C3.83627 6.28397 4.0553 5.62126 4.0553 5.62126M10.8704 6.33356L12.4307 6.38861C12.4307 6.38861 12.8409 5.33634 11.9402 4.6501C11.0399 3.96386 10.8704 4.34795 10.8704 4.34795C10.8704 4.34795 10.3566 4.98797 9.56601 4.99764M9.64912 4C9.84523 4.02732 9.90746 4.1059 10.0147 4.24037M10.0147 4.24037C10.1216 4.37527 9.92547 4.73205 9.92547 4.73205M10.0147 4.24037L10.4069 4.65893M8.47246 8.29437C8.08762 7.63797 6.81761 8.10359 6.65917 8.91002M12.9083 9.76905C12.962 9.90199 12.9004 10.0544 12.7709 10.1095C12.6414 10.1645 12.4929 10.1014 12.4393 9.96846C12.3856 9.83552 12.4471 9.68311 12.5766 9.62804C12.7062 9.57298 12.8547 9.63611 12.9083 9.76905ZM14.0008 9.86857C14.0008 10.6208 13.4067 11.2301 12.6743 11.2301C11.9418 11.2301 11.3478 10.6204 11.3478 9.86857C11.3478 9.11677 11.9418 8.50701 12.6743 8.50701C13.4067 8.50701 14.0008 9.11677 14.0008 9.86857ZM14.75 9.86857C14.75 11.0456 13.8206 11.9996 12.6739 11.9996C11.5271 11.9996 10.5977 11.0456 10.5977 9.86857C10.5977 8.6915 11.5271 7.73756 12.6739 7.73756C13.8206 7.73756 14.75 8.6915 14.75 9.86857ZM5.8776 10.0724C5.95785 9.70006 5.58446 9.50297 5.58446 9.50297L3.22829 8.93817L2.97691 9.88034L5.39449 10.4548C5.39449 10.4548 5.79736 10.4447 5.8776 10.0724Z" stroke="black" stroke-linecap="round" stroke-linejoin="round"/>
</g>
</svg>
