<svg width="16" height="16" viewBox="0 0 16 16" fill="none" xmlns="http://www.w3.org/2000/svg">
<g id="Sport=specials, weight=regular, Size=16">
<path id="specials" d="M7.91979 13L9.77723 11.7674L12 11.9022L10.8248 8.54662M9.71418 11.7243L9.04158 9.76178M7.87774 12.9956L6.22277 11.8977L4 12.0325L5.18765 8.21473M6.31759 11.8789L6.92926 9.62832M11.4659 6.41263C11.4659 8.29737 9.94514 9.82525 8.0692 9.82525C6.19326 9.82525 4.67251 8.29737 4.67251 6.41263C4.67251 4.52789 6.19326 3 8.0692 3C9.94514 3 11.4659 4.52789 11.4659 6.41263ZM7.13401 6.4127C7.13401 6.52631 7.04234 6.61841 6.92926 6.61841C6.81618 6.61841 6.72452 6.52631 6.72452 6.4127C6.72452 6.29909 6.81618 6.207 6.92926 6.207C7.04234 6.207 7.13401 6.29909 7.13401 6.4127ZM8.25594 6.4127C8.25594 6.52631 8.16427 6.61841 8.0512 6.61841C7.93812 6.61841 7.84645 6.52631 7.84645 6.4127C7.84645 6.29909 7.93812 6.207 8.0512 6.207C8.16427 6.207 8.25594 6.29909 8.25594 6.4127ZM9.37789 6.4127C9.37789 6.52631 9.28623 6.61841 9.17315 6.61841C9.06007 6.61841 8.96841 6.52631 8.96841 6.4127C8.96841 6.29909 9.06007 6.207 9.17315 6.207C9.28623 6.207 9.37789 6.29909 9.37789 6.4127Z" stroke="black" stroke-width="1.5" stroke-miterlimit="10" stroke-linecap="round" stroke-linejoin="round"/>
</g>
</svg>
