<svg width="32" height="32" viewBox="0 0 32 32" fill="none" xmlns="http://www.w3.org/2000/svg">
<g id="Sport=cs-go, Size=32px, weight=regular">
<path id="cs-go" d="M11.7456 17.823H13.6288C14.7138 17.823 15.5868 16.9622 15.5868 15.8924V14.4783M12.8181 14.6013C12.8181 14.6013 12.7682 16.0892 14.0029 16.3351M8.11654 10.8877H13.5665M8.11644 12.351H13.5664M6.65731 17.2327L8.60283 15.1669M18.7811 14.4783V12.5109M27.5 11.8722C27.5 11.7739 27.4127 11.6878 27.3129 11.6878L25.4393 11.6747V11.6378C25.4393 11.2935 25.1524 11.0107 24.8032 11.0107H23.4065V10.5065C23.4065 10.1622 23.1196 9.87939 22.7704 9.87939H22.6332C22.7704 9.65805 22.8453 9.38752 22.8078 9.1047C22.7455 8.57595 22.2965 8.14557 21.7603 8.09638C21.0494 8.0226 20.4383 8.56365 20.4383 9.25226C20.4383 9.4859 20.5131 9.69494 20.6254 9.87939H18.3726C18.3041 8.99688 17.732 8.76655 17.3828 8.76655H15.986V7.94268C15.986 7.69675 15.7865 7.5 15.5371 7.5H14.926C14.6766 7.5 14.477 7.69675 14.477 7.94268V8.75425H5.79701C5.54759 8.75425 5.34805 8.95099 5.34805 9.19693V10.2975H4.93649C4.69954 10.2975 4.5 10.4942 4.5 10.7278V12.142C4.5 12.683 4.94897 13.1257 5.4977 13.1257H6.52035V19.5629C6.4954 20.313 6.91943 21.0262 7.64276 21.3705C7.90466 21.4935 8.1915 21.555 8.49081 21.555V24.1557C8.49081 24.3401 8.65294 24.5 8.84001 24.5H10.9102C11.1098 24.5 11.2719 24.3401 11.2719 24.1434V21.555C11.5338 21.555 11.7458 21.3459 11.7458 21.0877V14.466H18.7863V22.8154C19.6468 22.8154 20.9621 22.1268 20.9621 21.2783V14.257H22.6083C23.0448 14.257 23.4065 13.9004 23.4065 13.47H24.8032C25.1524 13.47 25.4393 13.1872 25.4393 12.8429L27.3129 12.856C27.4127 12.856 27.5 12.7699 27.5 12.6715V11.8722Z" stroke="black" stroke-width="1.5" stroke-miterlimit="10" stroke-linecap="round" stroke-linejoin="round"/>
</g>
</svg>
