<svg width="16" height="16" viewBox="0 0 16 16" fill="none" xmlns="http://www.w3.org/2000/svg">
<g id="Sport=formula-e, weight=regular, Size=16">
<g id="formula-e">
<path d="M2 8.86676C2.01461 8.77218 2.06628 8.73085 2.10536 8.68391C2.9751 7.64461 4.07901 7.13179 5.40826 7.13109C7.63953 7.13004 7.11783 7.12969 9.34876 7.12899C10.1019 7.12899 10.8551 7.13074 11.6082 7.12794C11.9512 7.12689 12.2401 6.86663 12.2805 6.5328C12.3162 6.23751 12.149 6.01543 11.8631 5.98356C11.7904 5.9755 11.716 5.97865 11.6426 5.97865C9.40008 5.97865 7.15759 5.97865 4.9151 5.97865H4.71424C4.69112 5.90229 4.7455 5.87357 4.77677 5.83889C5.6771 4.82691 6.77013 4.24684 8.12555 4.25034C9.46772 4.25349 10.8099 4.24614 12.152 4.25314C13.0758 4.25805 13.795 4.86299 13.9605 5.76218C14.0618 6.31212 13.9656 6.83755 13.7022 7.31849C13.1587 8.31015 12.3437 8.86501 11.2181 8.86571C7.29354 8.86886 6.12233 8.86711 2.19781 8.86711H2V8.86676Z" stroke="black" stroke-width="1.5" stroke-miterlimit="10" stroke-linecap="round" stroke-linejoin="round"/>
<path d="M13.9714 10.0374C13.8596 10.2133 13.7199 10.3495 13.5792 10.4826C12.7108 11.3061 11.7007 11.7549 10.5047 11.75C8.22276 11.7409 9.0337 11.7482 6.75178 11.7465C5.88136 11.7458 5.11733 11.4645 4.49842 10.8157C4.3108 10.6189 4.16058 10.3937 4.03211 10.1513C3.97229 10.0385 4.0056 10.0069 4.1164 10.0143C4.15582 10.0167 4.19559 10.0143 4.23535 10.0143C8.43688 10.0143 9.54555 10.0143 13.7471 10.015C13.8181 10.015 13.8922 10.001 13.9714 10.0371V10.0374Z" stroke="black" stroke-width="1.5" stroke-miterlimit="10" stroke-linecap="round" stroke-linejoin="round"/>
</g>
</g>
</svg>
