<svg width="24" height="24" viewBox="0 0 24 24" fill="none" xmlns="http://www.w3.org/2000/svg">
<g id="Sport=rowing, Size=24px, weight=regular">
<path id="Rowing" d="M12.2783 18.3009C13.0808 18.2126 13.7669 17.7497 14.1555 17.0941C14.589 17.8243 15.3908 18.3161 16.3115 18.3161C17.2322 18.3161 18.0348 17.8243 18.4674 17.0941C18.9009 17.8243 19.7027 18.3161 20.6234 18.3161M3.375 18.3161C4.29572 18.3161 5.09829 17.8243 5.53094 17.0941C5.96441 17.8243 6.76617 18.3161 7.68689 18.3161C7.97533 18.3161 8.25154 18.268 8.50902 18.1797M18.5864 13.3287L14.6591 8.318C13.8638 7.30382 12.4803 6.93635 11.2752 7.41936L4.94266 9.95801C4.56052 10.1129 4.37231 10.5445 4.53445 10.9305C4.69334 11.306 5.1431 11.4721 5.52769 11.3244L10.8874 9.26558L13.0059 11.8171H12.3296C11.1595 11.8171 10.0368 12.2752 9.20974 13.0896L8.96774 13.3279M5.74605 11.2971L9.43707 16.5036M9.43707 16.5036L9.11033 17.7657L9.72143 18.6258C10.0384 19.0727 10.6633 19.1819 11.1172 18.8689C11.571 18.5568 11.6818 17.9414 11.3641 17.4945L10.753 16.6344L9.43707 16.5036ZM6.53314 14.0508H3.375M20.625 14.0508H7.76837M12.1128 4.75796C12.1128 5.72885 11.3136 6.51591 10.3276 6.51591C9.34169 6.51591 8.54242 5.72885 8.54242 4.75796C8.54242 3.78706 9.34169 3 10.3276 3C11.3136 3 12.1128 3.78706 12.1128 4.75796Z" stroke="black" stroke-width="1.5" stroke-miterlimit="10" stroke-linecap="round" stroke-linejoin="round"/>
</g>
</svg>
