<svg width="32" height="32" viewBox="0 0 32 32" fill="none" xmlns="http://www.w3.org/2000/svg">
<g id="Sport=boat-racing">
<path id="boat-racing" d="M7.66211 14.7132L7.81529 15.1891L7.90076 15.1616L7.97133 15.1061L7.66211 14.7132ZM11.1128 11.9975L10.8469 11.5741L10.8244 11.5882L10.8036 11.6046L11.1128 11.9975ZM15.0107 10.4138L14.9536 9.91703L15.0107 10.4138ZM17.8625 10.6932L17.7165 11.1714L17.7212 11.1728L17.8625 10.6932ZM20.4246 11.4482L20.6152 10.986L20.591 10.976L20.5659 10.9686L20.4246 11.4482ZM22.0589 11.6239L22.0885 12.123L22.0589 11.6239ZM26.873 11.7483L26.7965 12.2425L26.8078 12.244L26.873 11.7483ZM27.9692 11.8926L27.904 12.3883L27.9856 12.3991L28.0664 12.3831L27.9692 11.8926ZM29.6321 11.5633L29.5655 11.0677L29.5502 11.0698L29.535 11.0728L29.6321 11.5633ZM30.1233 11.6239L30.5594 11.3792L30.521 11.3108L30.4635 11.2574L30.1233 11.6239ZM29.913 12.2295L29.5806 11.856V11.856L29.913 12.2295ZM23.7961 16.3547L24.0348 16.794L24.0508 16.7853L24.0661 16.7755L23.7961 16.3547ZM1.95333 19.2352C2.01274 19.5049 2.27952 19.6753 2.54919 19.6159C2.81887 19.5565 2.98933 19.2897 2.92992 19.02L1.95333 19.2352ZM2.02918 17.2553L2.51747 17.1477L2.02918 17.2553ZM2.88257 15.7703L2.81581 15.2748H2.81581L2.88257 15.7703ZM5.45368 15.4239L5.52044 15.9194L5.56452 15.9135L5.60686 15.8999L5.45368 15.4239ZM2.20743 16.2081L1.78223 15.9451H1.78223L2.20743 16.2081ZM15.0101 11.7066L15.1449 12.1881L15.1533 12.1856L15.0101 11.7066ZM14.2798 12.2152L13.8526 11.9554L13.8231 12.0038L13.8052 12.0577L14.2798 12.2152ZM13.9737 13.1375L13.4992 12.9801V12.9801L13.9737 13.1375ZM14.3402 13.5089L14.189 13.0323L14.3402 13.5089ZM16.3205 15.335L16.1345 14.8708L16.1212 14.8762L16.1081 14.8823L16.3205 15.335ZM23.4367 12.9805L23.3192 12.4944L23.3078 12.4974L23.4367 12.9805ZM2.67239 18.8296C2.51549 18.6023 2.20408 18.5453 1.97685 18.7022C1.74961 18.8591 1.69259 19.1705 1.84949 19.3978L2.67239 18.8296ZM6.69837 19.1137V18.6137C6.56159 18.6137 6.43078 18.6697 6.33641 18.7687L6.69837 19.1137ZM6.72714 19.1137L7.13865 18.8296C7.0453 18.6944 6.89147 18.6137 6.72714 18.6137V19.1137ZM11.1639 19.1137V18.6137C11.0271 18.6137 10.8963 18.6697 10.8019 18.7687L11.1639 19.1137ZM11.1912 19.1137L11.6027 18.8296C11.5094 18.6944 11.3556 18.6137 11.1912 18.6137V19.1137ZM15.6294 19.1137V18.6137C15.4926 18.6137 15.3619 18.6697 15.2675 18.7686L15.6294 19.1137ZM15.656 19.1137L16.0675 18.8296C15.9742 18.6944 15.8204 18.6137 15.656 18.6137V19.1137ZM20.0935 19.1137V18.6137C19.9567 18.6137 19.8259 18.6697 19.7316 18.7687L20.0935 19.1137ZM20.1201 19.1137L20.5316 18.8296C20.4383 18.6944 20.2845 18.6137 20.1201 18.6137V19.1137ZM24.5576 19.1137V18.6137C24.4208 18.6137 24.29 18.6697 24.1957 18.7687L24.5576 19.1137ZM24.5842 19.1137L24.9957 18.8296C24.9024 18.6944 24.7486 18.6137 24.5842 18.6137V19.1137ZM29.3836 19.4587C29.5741 19.2588 29.5666 18.9423 29.3667 18.7518C29.1668 18.5612 28.8503 18.5688 28.6598 18.7687L29.3836 19.4587ZM13.3547 21.9268C13.0786 21.9268 12.8547 22.1507 12.8547 22.4268C12.8547 22.7029 13.0786 22.9268 13.3547 22.9268V21.9268ZM13.3814 22.4268L13.7929 22.1428C13.6995 22.0075 13.5457 21.9268 13.3814 21.9268V22.4268ZM17.8188 22.4268V21.9268C17.6821 21.9268 17.5513 21.9828 17.4569 22.0818L17.8188 22.4268ZM17.8455 22.4268L18.257 22.1428C18.1636 22.0075 18.0098 21.9268 17.8455 21.9268V22.4268ZM22.2829 22.4268V21.9268C22.1462 21.9268 22.0154 21.9828 21.921 22.0818L22.2829 22.4268ZM22.3096 22.4268L22.7211 22.1428C22.6277 22.0075 22.4739 21.9268 22.3096 21.9268V22.4268ZM27.1089 22.7718C27.2995 22.5719 27.2919 22.2554 27.092 22.0649C26.8921 21.8744 26.5757 21.8819 26.3851 22.0818L27.1089 22.7718ZM7.97133 15.1061L11.422 12.3905L10.8036 11.6046L7.35289 14.3202L7.97133 15.1061ZM11.3787 12.421C11.7288 12.2011 12.3457 11.8552 13.0368 11.5467C13.7354 11.2348 14.4702 10.9793 15.0679 10.9105L14.9536 9.91703C14.2035 10.0034 13.3581 10.3081 12.6292 10.6335C11.8927 10.9623 11.2345 11.3307 10.8469 11.5741L11.3787 12.421ZM15.0679 10.9105C15.3159 10.8819 15.5921 10.8375 16.0032 10.8522C16.4128 10.8669 16.9654 10.942 17.7165 11.1714L18.0086 10.215C17.1824 9.96267 16.5436 9.87099 16.039 9.85289C15.5359 9.83484 15.1748 9.89156 14.9536 9.91703L15.0679 10.9105ZM17.7212 11.1728L20.2832 11.9279L20.5659 10.9686L18.0039 10.2136L17.7212 11.1728ZM20.234 11.9105C20.5098 12.0242 21.1842 12.1765 22.0885 12.123L22.0294 11.1247C21.2431 11.1713 20.7245 11.0311 20.6152 10.986L20.234 11.9105ZM22.0885 12.123C22.3716 12.1062 22.6232 12.0726 22.8655 12.0436C23.1106 12.0142 23.3625 11.987 23.677 11.9762C24.3059 11.9545 25.212 11.9971 26.7966 12.2424L26.9495 11.2542C25.3275 11.0031 24.3548 10.9522 23.6425 10.9768C23.2863 10.9891 23.002 11.02 22.7464 11.0507C22.488 11.0817 22.2745 11.1102 22.0294 11.1247L22.0885 12.123ZM26.8078 12.244L27.904 12.3883L28.0345 11.3969L26.9383 11.2526L26.8078 12.244ZM28.0664 12.3831L29.7293 12.0537L29.535 11.0728L27.8721 11.4021L28.0664 12.3831ZM29.6987 12.0588C29.7316 12.0544 29.763 12.0507 29.7931 12.0485C29.8237 12.0462 29.8478 12.0458 29.8655 12.0468C29.8845 12.0478 29.8858 12.0498 29.8751 12.0465C29.8643 12.0432 29.8257 12.0298 29.7832 11.9903L30.4635 11.2574C30.2758 11.0832 30.041 11.0547 29.9186 11.0482C29.7787 11.0408 29.6445 11.0571 29.5655 11.0677L29.6987 12.0588ZM29.6873 11.8685C29.6885 11.8706 29.6802 11.8562 29.6744 11.8369C29.6684 11.8172 29.6656 11.7953 29.6677 11.7741C29.6698 11.7523 29.6756 11.7459 29.6695 11.7567C29.6624 11.7691 29.6396 11.8035 29.5806 11.856L30.2454 12.6031C30.4954 12.3805 30.6377 12.1325 30.663 11.8703C30.6879 11.6127 30.5894 11.4327 30.5594 11.3792L29.6873 11.8685ZM29.5806 11.856C29.3001 12.1056 28.6031 12.6032 27.5441 13.3137C26.4975 14.0159 25.1273 14.9065 23.5261 15.9338L24.0661 16.7755C25.6689 15.7472 27.046 14.8521 28.1013 14.1441C29.1441 13.4444 29.9036 12.9072 30.2454 12.6031L29.5806 11.856ZM23.5573 15.9154C21.3079 17.138 19.6627 17.7414 15.7706 18.8611L16.0471 19.8221C19.9665 18.6946 21.6919 18.0675 24.0348 16.794L23.5573 15.9154ZM2.92992 19.02L2.51747 17.1477L1.54088 17.3629L1.95333 19.2352L2.92992 19.02ZM2.94933 16.2658L5.52044 15.9194L5.38692 14.9284L2.81581 15.2748L2.94933 16.2658ZM5.60686 15.8999L7.81529 15.1891L7.50893 14.2372L5.3005 14.9479L5.60686 15.8999ZM2.63263 16.4712C2.70217 16.3588 2.81836 16.2835 2.94934 16.2658L2.81581 15.2748C2.38837 15.3324 2.00916 15.5783 1.78223 15.9451L2.63263 16.4712ZM2.51747 17.1477C2.46638 16.9158 2.50769 16.6732 2.63263 16.4712L1.78223 15.9451C1.5204 16.3683 1.43382 16.8769 1.54088 17.3629L2.51747 17.1477ZM18.0155 10.2867L14.867 11.2275L15.1533 12.1856L18.3018 11.2449L18.0155 10.2867ZM14.8754 11.2251C14.748 11.2607 14.5678 11.3325 14.3888 11.4414C14.2123 11.5486 13.9989 11.7148 13.8526 11.9554L14.707 12.475C14.7391 12.4223 14.8063 12.3578 14.9081 12.2959C15.0073 12.2356 15.1032 12.1997 15.1449 12.1881L14.8754 11.2251ZM13.8052 12.0577L13.4992 12.9801L14.4483 13.295L14.7543 12.3726L13.8052 12.0577ZM14.4914 13.9854L20.7258 12.0072L20.4234 11.054L14.189 13.0323L14.4914 13.9854ZM13.4992 12.9801C13.2952 13.5947 13.8742 14.1813 14.4914 13.9854L14.189 13.0323C14.3503 12.9811 14.5016 13.1344 14.4483 13.295L13.4992 12.9801ZM7.48044 20.035L16.5329 15.7876L16.1081 14.8823L7.05567 19.1297L7.48044 20.035ZM16.5065 15.7991C19.1383 14.7446 20.3485 14.3222 23.5656 13.4636L23.3078 12.4974C20.0507 13.3667 18.8024 13.8019 16.1345 14.8708L16.5065 15.7991ZM23.5541 13.4666L28.1153 12.3645L27.8804 11.3925L23.3193 12.4945L23.5541 13.4666ZM2.26094 19.1137C1.84949 19.3978 1.84965 19.398 1.84982 19.3982C1.84988 19.3983 1.85006 19.3986 1.85019 19.3988C1.85046 19.3992 1.85075 19.3996 1.85108 19.4C1.85173 19.401 1.85249 19.4021 1.85338 19.4033C1.85515 19.4058 1.85739 19.409 1.8601 19.4128C1.86552 19.4203 1.87281 19.4304 1.88195 19.4426C1.90022 19.467 1.92594 19.5004 1.95884 19.5407C2.02449 19.6211 2.11965 19.7299 2.24225 19.8502C2.48489 20.0883 2.84886 20.3848 3.3178 20.5858C3.7931 20.7894 4.37694 20.8944 5.03424 20.7394C5.68764 20.5853 6.36798 20.1851 7.06032 19.4586L6.33641 18.7687C5.74217 19.3922 5.22454 19.6671 4.80468 19.7661C4.38873 19.8642 4.02403 19.8004 3.71163 19.6666C3.39286 19.53 3.12993 19.3203 2.94262 19.1365C2.85024 19.0458 2.77965 18.9648 2.73329 18.9081C2.71019 18.8798 2.69335 18.8578 2.68305 18.8441C2.67791 18.8372 2.67443 18.8324 2.67263 18.8299C2.67173 18.8286 2.67126 18.8279 2.67122 18.8279C2.6712 18.8279 2.67129 18.828 2.67148 18.8283C2.67158 18.8284 2.6717 18.8286 2.67185 18.8288C2.67193 18.8289 2.67206 18.8291 2.6721 18.8292C2.67224 18.8294 2.67239 18.8296 2.26094 19.1137ZM6.69837 19.6137H6.72714V18.6137H6.69837V19.6137ZM6.72714 19.1137C6.31564 19.3977 6.31581 19.3979 6.31597 19.3982C6.31604 19.3983 6.31622 19.3985 6.31635 19.3987C6.31662 19.3991 6.31691 19.3995 6.31723 19.4C6.31788 19.4009 6.31865 19.402 6.31953 19.4033C6.3213 19.4058 6.32354 19.4089 6.32625 19.4127C6.33167 19.4203 6.33896 19.4303 6.3481 19.4425C6.36636 19.467 6.39207 19.5004 6.42497 19.5407C6.49059 19.621 6.58572 19.7299 6.70829 19.8502C6.95087 20.0883 7.31475 20.3848 7.78361 20.5857C8.25885 20.7894 8.84262 20.8944 9.49986 20.7394C10.1532 20.5853 10.8335 20.1851 11.5258 19.4586L10.8019 18.7687C10.2077 19.3923 9.69007 19.6671 9.27029 19.7661C8.85441 19.8642 8.48982 19.8004 8.17752 19.6666C7.85885 19.53 7.59602 19.3203 7.40877 19.1365C7.31642 19.0459 7.24586 18.9649 7.19952 18.9081C7.17643 18.8799 7.15959 18.8579 7.1493 18.8441C7.14416 18.8372 7.14068 18.8324 7.13889 18.8299C7.13799 18.8287 7.13752 18.828 7.13748 18.828C7.13745 18.8279 7.13754 18.828 7.13774 18.8283C7.13783 18.8285 7.13796 18.8286 7.13811 18.8289C7.13818 18.829 7.13832 18.8292 7.13836 18.8292C7.1385 18.8294 7.13865 18.8296 6.72714 19.1137ZM11.1639 19.6137H11.1912V18.6137H11.1639V19.6137ZM11.1912 19.1137C10.7797 19.3977 10.7799 19.3979 10.7801 19.3982C10.7801 19.3983 10.7803 19.3985 10.7805 19.3987C10.7807 19.3991 10.781 19.3995 10.7813 19.4C10.782 19.4009 10.7828 19.402 10.7836 19.4033C10.7854 19.4058 10.7876 19.4089 10.7904 19.4127C10.7958 19.4203 10.8031 19.4303 10.8122 19.4425C10.8305 19.467 10.8562 19.5004 10.8891 19.5407C10.9547 19.621 11.0498 19.7299 11.1724 19.8502C11.415 20.0883 11.779 20.3848 12.2479 20.5858C12.7233 20.7894 13.3071 20.8944 13.9645 20.7394C14.618 20.5853 15.2985 20.1851 15.9912 19.4587L15.2675 18.7686C14.6729 19.3922 14.155 19.667 13.735 19.7661C13.3189 19.8642 12.9541 19.8004 12.6418 19.6666C12.323 19.53 12.0601 19.3203 11.8729 19.1365C11.7805 19.0459 11.71 18.9649 11.6636 18.9081C11.6405 18.8799 11.6237 18.8579 11.6134 18.8441C11.6083 18.8372 11.6048 18.8324 11.603 18.8299C11.6021 18.8287 11.6016 18.828 11.6016 18.828C11.6016 18.8279 11.6016 18.828 11.6018 18.8283C11.6019 18.8285 11.6021 18.8286 11.6022 18.8289C11.6023 18.829 11.6024 18.8292 11.6025 18.8292C11.6026 18.8294 11.6027 18.8296 11.1912 19.1137ZM15.6294 19.6137H15.656V18.6137H15.6294V19.6137ZM15.656 19.1137C15.2445 19.3977 15.2447 19.3979 15.2449 19.3982C15.2449 19.3983 15.2451 19.3985 15.2453 19.3987C15.2455 19.3991 15.2458 19.3995 15.2461 19.4C15.2468 19.4009 15.2476 19.402 15.2484 19.4033C15.2502 19.4058 15.2524 19.4089 15.2552 19.4127C15.2606 19.4203 15.2679 19.4303 15.277 19.4425C15.2953 19.467 15.321 19.5004 15.3539 19.5407C15.4195 19.621 15.5146 19.7299 15.6372 19.8502C15.8798 20.0883 16.2437 20.3848 16.7126 20.5857C17.1879 20.7894 17.7717 20.8944 18.429 20.7394C19.0825 20.5853 19.7629 20.1851 20.4554 19.4587L19.7316 18.7687C19.1371 19.3922 18.6194 19.667 18.1995 19.7661C17.7835 19.8642 17.4188 19.8004 17.1065 19.6666C16.7878 19.53 16.5249 19.3203 16.3377 19.1365C16.2453 19.0459 16.1748 18.9649 16.1284 18.9081C16.1053 18.8799 16.0885 18.8579 16.0782 18.8441C16.0731 18.8372 16.0696 18.8324 16.0678 18.8299C16.0669 18.8287 16.0664 18.828 16.0664 18.828C16.0664 18.8279 16.0664 18.828 16.0666 18.8283C16.0667 18.8285 16.0669 18.8286 16.067 18.8289C16.0671 18.829 16.0672 18.8292 16.0673 18.8292C16.0674 18.8294 16.0675 18.8296 15.656 19.1137ZM20.0935 19.6137H20.1201V18.6137H20.0935V19.6137ZM20.1201 19.1137C19.7086 19.3977 19.7088 19.3979 19.709 19.3982C19.709 19.3983 19.7092 19.3985 19.7094 19.3987C19.7096 19.3991 19.7099 19.3995 19.7102 19.4C19.7109 19.4009 19.7116 19.402 19.7125 19.4033C19.7143 19.4058 19.7165 19.4089 19.7193 19.4127C19.7247 19.4203 19.732 19.4303 19.7411 19.4425C19.7594 19.467 19.7851 19.5004 19.818 19.5407C19.8836 19.621 19.9787 19.7299 20.1013 19.8502C20.3439 20.0883 20.7078 20.3848 21.1767 20.5857C21.652 20.7894 22.2358 20.8944 22.8931 20.7394C23.5466 20.5853 24.227 20.1851 24.9195 19.4587L24.1957 18.7687C23.6012 19.3922 23.0835 19.667 22.6636 19.7661C22.2476 19.8642 21.8829 19.8004 21.5706 19.6666C21.2519 19.53 20.989 19.3203 20.8018 19.1365C20.7094 19.0459 20.6389 18.9649 20.5925 18.9081C20.5694 18.8799 20.5526 18.8579 20.5423 18.8441C20.5372 18.8372 20.5337 18.8324 20.5319 18.8299C20.531 18.8287 20.5305 18.828 20.5305 18.828C20.5305 18.8279 20.5305 18.828 20.5307 18.8283C20.5308 18.8285 20.531 18.8286 20.5311 18.8289C20.5312 18.829 20.5313 18.8292 20.5314 18.8292C20.5315 18.8294 20.5316 18.8296 20.1201 19.1137ZM24.5576 19.6137H24.5842V18.6137H24.5576V19.6137ZM24.5842 19.1137C24.1727 19.3977 24.1729 19.3979 24.1731 19.3982C24.1731 19.3983 24.1733 19.3985 24.1735 19.3987C24.1737 19.3991 24.174 19.3995 24.1743 19.4C24.175 19.4009 24.1758 19.402 24.1766 19.4033C24.1784 19.4058 24.1806 19.4089 24.1834 19.4127C24.1888 19.4203 24.1961 19.4303 24.2052 19.4425C24.2235 19.467 24.2492 19.5004 24.2821 19.5407C24.3477 19.621 24.4428 19.7299 24.5654 19.8502C24.808 20.0883 25.1719 20.3848 25.6408 20.5857C26.1161 20.7894 26.6999 20.8944 27.3572 20.7394C28.0107 20.5853 28.6911 20.1851 29.3836 19.4587L28.6598 18.7687C28.0653 19.3922 27.5476 19.667 27.1277 19.7661C26.7117 19.8642 26.347 19.8004 26.0347 19.6666C25.716 19.53 25.4531 19.3203 25.2659 19.1365C25.1735 19.0459 25.103 18.9649 25.0566 18.9081C25.0335 18.8799 25.0167 18.8579 25.0064 18.8441C25.0013 18.8372 24.9978 18.8324 24.996 18.8299C24.9951 18.8287 24.9946 18.828 24.9946 18.828C24.9946 18.8279 24.9946 18.828 24.9948 18.8283C24.9949 18.8285 24.9951 18.8286 24.9952 18.8289C24.9953 18.829 24.9954 18.8292 24.9955 18.8292C24.9956 18.8294 24.9957 18.8296 24.5842 19.1137ZM13.3547 22.9268H13.3814V21.9268H13.3547V22.9268ZM13.3814 22.4268C12.9699 22.7108 12.97 22.711 12.9702 22.7113C12.9703 22.7114 12.9705 22.7116 12.9706 22.7118C12.9709 22.7122 12.9712 22.7126 12.9715 22.7131C12.9721 22.714 12.9729 22.7151 12.9738 22.7164C12.9755 22.7189 12.9778 22.7221 12.9805 22.7258C12.9859 22.7334 12.9932 22.7434 13.0023 22.7557C13.0206 22.7801 13.0463 22.8135 13.0792 22.8538C13.1448 22.9342 13.24 23.043 13.3626 23.1633C13.6051 23.4014 13.9691 23.6979 14.438 23.8989C14.9132 24.1025 15.4971 24.2075 16.1544 24.0525C16.8078 23.8984 17.4882 23.4982 18.1807 22.7718L17.4569 22.0818C16.8625 22.7054 16.3447 22.9802 15.9248 23.0792C15.5088 23.1773 15.1442 23.1136 14.8318 22.9797C14.5131 22.8431 14.2503 22.6334 14.063 22.4496C13.9707 22.359 13.9001 22.278 13.8538 22.2213C13.8307 22.193 13.8138 22.171 13.8035 22.1573C13.7984 22.1504 13.7949 22.1456 13.7931 22.1431C13.7922 22.1418 13.7918 22.1412 13.7917 22.1411C13.7917 22.1411 13.7918 22.1412 13.792 22.1415C13.7921 22.1416 13.7922 22.1418 13.7924 22.142C13.7924 22.1421 13.7926 22.1423 13.7926 22.1424C13.7927 22.1426 13.7929 22.1428 13.3814 22.4268ZM17.8188 22.9268H17.8455V21.9268H17.8188V22.9268ZM17.8455 22.4268C17.434 22.7108 17.4341 22.711 17.4343 22.7113C17.4344 22.7114 17.4346 22.7116 17.4347 22.7118C17.435 22.7122 17.4353 22.7126 17.4356 22.7131C17.4362 22.714 17.437 22.7151 17.4379 22.7164C17.4396 22.7189 17.4419 22.7221 17.4446 22.7258C17.45 22.7334 17.4573 22.7434 17.4664 22.7557C17.4847 22.7801 17.5104 22.8135 17.5433 22.8538C17.6089 22.9342 17.7041 23.043 17.8267 23.1633C18.0692 23.4014 18.4332 23.6979 18.9021 23.8989C19.3773 24.1025 19.9612 24.2075 20.6185 24.0525C21.2719 23.8984 21.9523 23.4982 22.6448 22.7718L21.921 22.0818C21.3266 22.7054 20.8089 22.9802 20.3889 23.0792C19.9729 23.1773 19.6083 23.1136 19.2959 22.9797C18.9772 22.8431 18.7144 22.6334 18.5271 22.4496C18.4348 22.359 18.3642 22.278 18.3179 22.2213C18.2948 22.193 18.2779 22.171 18.2676 22.1573C18.2625 22.1504 18.259 22.1456 18.2572 22.1431C18.2563 22.1418 18.2559 22.1412 18.2558 22.1411C18.2558 22.1411 18.2559 22.1412 18.2561 22.1415C18.2562 22.1416 18.2563 22.1418 18.2565 22.142C18.2565 22.1421 18.2567 22.1423 18.2567 22.1424C18.2568 22.1426 18.257 22.1428 17.8455 22.4268ZM22.2829 22.9268H22.3096V21.9268H22.2829V22.9268ZM22.3096 22.4268C21.8981 22.7108 21.8983 22.711 21.8984 22.7113C21.8985 22.7114 21.8987 22.7116 21.8988 22.7118C21.8991 22.7122 21.8994 22.7126 21.8997 22.7131C21.9003 22.714 21.9011 22.7151 21.902 22.7164C21.9037 22.7189 21.906 22.7221 21.9087 22.7258C21.9141 22.7334 21.9214 22.7434 21.9305 22.7557C21.9488 22.7801 21.9745 22.8135 22.0074 22.8538C22.073 22.9342 22.1682 23.043 22.2908 23.1633C22.5334 23.4014 22.8973 23.6979 23.3662 23.8989C23.8414 24.1025 24.4253 24.2075 25.0826 24.0525C25.736 23.8984 26.4164 23.4982 27.1089 22.7718L26.3851 22.0818C25.7907 22.7054 25.273 22.9802 24.8531 23.0792C24.4371 23.1773 24.0724 23.1136 23.76 22.9797C23.4413 22.8431 23.1785 22.6334 22.9912 22.4496C22.8989 22.359 22.8283 22.278 22.782 22.2213C22.7589 22.193 22.742 22.171 22.7317 22.1573C22.7266 22.1504 22.7231 22.1456 22.7213 22.1431C22.7204 22.1418 22.72 22.1412 22.7199 22.1411C22.7199 22.1411 22.72 22.1412 22.7202 22.1415C22.7203 22.1416 22.7204 22.1418 22.7206 22.142C22.7206 22.1421 22.7208 22.1423 22.7208 22.1424C22.7209 22.1426 22.7211 22.1428 22.3096 22.4268Z" fill="black"/>
</g>
</svg>
