<svg width="24" height="24" viewBox="0 0 24 24" fill="none" xmlns="http://www.w3.org/2000/svg">
<g id="Sport=athletics, Size=24px, weight=light">
<path id="Athletics" d="M13.421 9.88024L15.8367 11.417C15.9836 11.5412 16.1636 11.6018 16.342 11.6018C16.5449 11.6018 16.747 11.5229 16.9001 11.3684L19.2685 8.97903C19.5772 8.66841 19.5772 8.16345 19.2685 7.85283C18.9606 7.54142 18.4601 7.54142 18.1522 7.85283L16.2857 9.48L13.4471 7.33035M8.70167 11.8909L6.80303 16.5446L4.63835 19.7535C4.39204 20.1167 4.48362 20.6121 4.84282 20.8606C4.9794 20.9554 5.13492 21 5.28807 21C5.53991 21 5.78701 20.8789 5.94016 20.6535L10.9729 14.3894M15.7894 4.59292C15.7894 5.47267 15.0825 6.18584 14.2105 6.18584C13.3385 6.18584 12.6316 5.47267 12.6316 4.59292C12.6316 3.71317 13.3385 3 14.2105 3C15.0825 3 15.7894 3.71317 15.7894 4.59292ZM15.7562 15.1269C15.6725 14.8346 15.502 14.5837 15.2825 14.3862C15.221 14.3312 15.1191 14.2516 15.0544 14.2094L11.7632 12.2939L13.6981 9.47681C13.9886 9.01487 14.0431 8.43584 13.8434 7.9277C13.6436 7.41956 13.211 7.03487 12.686 6.89947L7.85379 5.65301C7.5838 5.58292 7.29723 5.66257 7.09987 5.86168L4.73151 8.25106C4.42283 8.56168 4.42283 9.06664 4.73151 9.37726C5.03939 9.68867 5.53991 9.68867 5.84779 9.37726L7.898 7.30885L10.38 7.9492L8.72772 11.8248C8.55562 12.2294 8.5572 12.6929 8.73324 13.0959C8.90929 13.4989 9.24639 13.8135 9.65927 13.9585L13.421 15.6645L11.7782 18.6712C11.5058 19.0144 11.5611 19.5162 11.9013 19.791C12.0474 19.9089 12.221 19.9654 12.3939 19.9654C12.6252 19.9654 12.855 19.8635 13.0105 19.6667L15.4712 16.5637C15.791 16.1607 15.8967 15.6239 15.7554 15.1277L15.7562 15.1269Z" stroke="black" stroke-miterlimit="10" stroke-linecap="round" stroke-linejoin="round"/>
</g>
</svg>
