<svg width="32" height="32" viewBox="0 0 32 32" fill="none" xmlns="http://www.w3.org/2000/svg">
<g id="Sport=bombay, stroke width=1px">
<path id="bombay" d="M9.77331 22.125C11.0888 23.8636 13.2655 25 15.7282 25C19.7443 25 23 21.9779 23 18.25C23 15.4607 21.1774 13.0666 18.5774 12.0378M18.5561 12.0294C18.5632 12.0322 18.5703 12.035 18.5774 12.0378M18.5774 12.0378C18.8224 11.5736 18.9599 11.0517 18.9599 10.5C18.9599 8.567 17.2718 7 15.1893 7C14.6409 7 14.1199 7.10868 13.6498 7.30409M18.5774 12.0378C18.5703 12.0512 18.5632 12.0646 18.5559 12.0779C17.9344 13.2182 16.6602 14 15.1893 14M9.98021 22.378C9.3663 21.6548 9 20.742 9 19.7498C9 17.4025 11.0499 15.4998 13.5785 15.4998C15.4325 15.4998 17.029 16.5226 17.7491 17.9935M17.7491 17.9935L17.751 17.9975M17.7491 17.9935C17.6736 17.803 17.5719 17.6244 17.4481 17.4612M17.7491 17.9935C17.8478 18.2425 17.9016 18.5116 17.9016 18.7924C17.9016 20.0704 16.7855 21.1064 15.4087 21.1064C14.0319 21.1064 12.9158 20.0704 12.9158 18.7924M13.1076 10.3048C12.7338 9.94415 12.5138 9.44738 12.5398 8.90792C12.5742 8.19276 13.0319 7.58806 13.6783 7.29293" stroke="black" stroke-linecap="round" stroke-linejoin="round"/>
</g>
</svg>
