<svg width="16" height="16" viewBox="0 0 16 16" fill="none" xmlns="http://www.w3.org/2000/svg">
<g id="Sport=enba, Size=16px, weight=light">
<path id="Vector" d="M12.4605 7.60196C12.4605 7.74673 12.4605 7.89149 12.4605 8.03625C12.4605 9.33913 11.9779 10.5455 11.0611 11.4623C10.1443 12.3792 8.93789 12.8617 7.63502 12.8617C6.33215 12.8617 5.12579 12.3792 4.20895 11.4623C3.29212 10.5455 2.80957 9.33913 2.80957 8.03625C2.80957 7.988 2.80957 7.93975 2.80957 7.89149C2.85782 6.63687 3.34037 5.47876 4.20895 4.61018C5.07753 3.7416 6.23564 3.25906 7.49026 3.2108C7.53851 3.2108 7.58677 3.2108 7.63502 3.2108C7.86411 3.2108 8.09021 3.22572 8.31228 3.2553M7.05597 3.35571C6.51324 4.21854 6.43822 4.74374 6.76644 5.334C6.76644 5.334 6.86295 5.52702 7.05597 5.62353C7.46473 5.93796 7.91446 6.02701 8.39182 6.03755M8.11757 12.8617C6.23564 11.8966 6.18739 10.7868 6.13913 9.72516C6.13913 9.00135 6.09088 8.27753 5.46357 7.65022C5.46357 7.65022 5.41531 7.60196 5.36706 7.55371C5.31881 7.50545 5.02928 7.31244 5.02928 7.31244C4.45022 6.97466 3.72641 7.02291 2.80957 7.50546M11.2059 11.3176L4.40197 4.51367M3.54441 10.7147C3.8853 8.42584 5.29754 6.38052 7.48896 5.30916C7.75844 5.16856 8.03356 5.0477 8.31228 4.94588M10.2075 3.9674C10.2075 4.914 10.772 5.57365 11.689 5.57365C12.1771 5.57365 12.6699 5.47994 13.1189 4.91874M10.2075 3.9674C10.2075 3.02081 10.772 2.3718 11.689 2.3718C12.6061 2.3718 13.1897 3.02081 13.1897 3.9674H10.2075Z" stroke="black" stroke-miterlimit="10" stroke-linecap="round" stroke-linejoin="round"/>
</g>
</svg>
