<svg width="25" height="24" viewBox="0 0 25 24" fill="none" xmlns="http://www.w3.org/2000/svg">
<g id="Sport=boat-racing, weight=regular, Size=24">
<path id="boat-racing" d="M0.285187 8.09644C-0.0398871 8.35314 -0.0953083 8.82477 0.161401 9.14985C0.41811 9.47492 0.889738 9.53034 1.21481 9.27363L0.285187 8.09644ZM3.491 6.52048L3.07518 5.89631L3.04997 5.91311L3.02619 5.93189L3.491 6.52048ZM7.43448 4.82069L7.34355 4.07622L7.43448 4.82069ZM10.3196 5.12062L10.0884 5.83414L10.0958 5.83645L10.3196 5.12062ZM12.9116 5.93096L13.2121 5.24381L13.1745 5.22737L13.1354 5.21513L12.9116 5.93096ZM14.565 6.11945L14.612 6.86797L14.565 6.11945ZM19.4353 6.25298L19.3138 6.99307L19.3227 6.99452L19.3316 6.99576L19.4353 6.25298ZM20.5443 6.40789L20.4406 7.15067L20.5704 7.1688L20.6986 7.14186L20.5443 6.40789ZM22.2267 6.0544L22.1208 5.3119L22.0965 5.31537L22.0724 5.32042L22.2267 6.0544ZM22.7236 6.11945L23.3866 5.76886L23.3325 5.6664L23.2499 5.58507L22.7236 6.11945ZM22.5108 6.76949L21.996 6.22412V6.22412L22.5108 6.76949ZM16.3224 11.1968L16.6971 11.8465L16.7213 11.8325L16.7444 11.8168L16.3224 11.1968ZM7.43388 6.2082L7.64735 6.92731L7.6605 6.92314L7.43388 6.2082ZM6.69499 6.75407L6.04433 6.38105L6.00363 6.45205L5.9792 6.53016L6.69499 6.75407ZM6.38534 7.74398L5.66955 7.52008V7.52008L6.38534 7.74398ZM6.75612 8.14252L6.51684 7.43171H6.51684L6.75612 8.14252ZM0.697955 13.0732C0.323279 13.2498 0.162714 13.6967 0.339323 14.0714C0.515932 14.446 0.962837 14.6066 1.33751 14.43L0.697955 13.0732ZM8.75953 10.1024L8.46614 9.41215L8.45283 9.4178L8.43975 9.42397L8.75953 10.1024ZM15.9589 7.57549L15.7726 6.84898L15.7636 6.8513L15.7545 6.85386L15.9589 7.57549ZM3.54267 14.1579V13.4079C3.32982 13.4079 3.12699 13.4983 2.98474 13.6566L3.54267 14.1579ZM3.57036 14.1579L4.19902 13.7489C4.06064 13.5362 3.82411 13.4079 3.57036 13.4079V14.1579ZM8.06034 14.1579V13.4079C7.84756 13.4079 7.64479 13.4982 7.50255 13.6565L8.06034 14.1579ZM8.08733 14.1579L8.71598 13.7489C8.5776 13.5362 8.34107 13.4079 8.08733 13.4079V14.1579ZM12.5766 14.1579V13.4079C12.3638 13.4079 12.161 13.4983 12.0187 13.6566L12.5766 14.1579ZM12.6036 14.1579L13.2322 13.7489C13.0938 13.5362 12.8573 13.4079 12.6036 13.4079V14.1579ZM17.0928 14.1579V13.4079C16.88 13.4079 16.6772 13.4983 16.535 13.6566L17.0928 14.1579ZM17.1198 14.1579L17.7485 13.7489C17.6101 13.5362 17.3736 13.4079 17.1198 13.4079V14.1579ZM22.167 14.6592C22.4438 14.3511 22.4185 13.8769 22.1104 13.6C21.8023 13.3232 21.3281 13.3485 21.0512 13.6566L22.167 14.6592ZM5.75911 16.9637C5.34489 16.9637 5.00911 17.2995 5.00911 17.7137C5.00911 18.1279 5.34489 18.4637 5.75911 18.4637V16.9637ZM5.78609 17.7137L6.41475 17.3047C6.27637 17.092 6.03983 16.9637 5.78609 16.9637V17.7137ZM10.2754 17.7137V16.9637C10.0625 16.9637 9.85974 17.0541 9.7175 17.2124L10.2754 17.7137ZM10.3023 17.7137L10.931 17.3047C10.7926 17.092 10.5561 16.9637 10.3023 16.9637V17.7137ZM14.7916 17.7137V16.9637C14.5788 16.9637 14.376 17.0541 14.2338 17.2124L14.7916 17.7137ZM14.8186 17.7137L15.4473 17.3047C15.3089 17.092 15.0723 16.9637 14.8186 16.9637V17.7137ZM19.8657 18.215C20.1426 17.9069 20.1173 17.4327 19.8092 17.1558C19.5011 16.879 19.0269 16.9043 18.75 17.2124L19.8657 18.215ZM1.09219 14.6893C0.680022 14.6482 0.31256 14.949 0.271439 15.3611C0.230318 15.7733 0.531111 16.1408 0.943279 16.1819L1.09219 14.6893ZM1.21481 9.27363L3.95581 7.10908L3.02619 5.93189L0.285187 8.09644L1.21481 9.27363ZM3.90682 7.14466C4.2517 6.9149 4.86508 6.54986 5.55227 6.22443C6.25166 5.89322 6.96413 5.63371 7.52542 5.56516L7.34355 4.07622C6.54123 4.17422 5.65513 4.51602 4.91026 4.86876C4.15318 5.22729 3.47663 5.62887 3.07518 5.89631L3.90682 7.14466ZM7.52542 5.56516C7.784 5.53357 8.03886 5.48967 8.42812 5.50448C8.81501 5.5192 9.34943 5.59465 10.0884 5.8341L10.5508 4.40714C9.69407 4.12955 9.02325 4.02604 8.48516 4.00557C7.94944 3.98518 7.55961 4.04983 7.34355 4.07622L7.52542 5.56516ZM10.0958 5.83645L12.6878 6.64679L13.1354 5.21513L10.5434 4.40479L10.0958 5.83645ZM12.611 6.61811C12.9357 6.76012 13.6624 6.92762 14.612 6.86797L14.518 5.37092C14.1466 5.39425 13.8358 5.3714 13.6041 5.33593C13.4883 5.3182 13.3943 5.29764 13.3244 5.27906C13.2895 5.26979 13.262 5.26139 13.2419 5.25462C13.2209 5.24759 13.2116 5.24359 13.2121 5.24381L12.611 6.61811ZM14.612 6.86797C14.9095 6.84929 15.175 6.8117 15.4155 6.78108C15.6603 6.7499 15.9059 6.72198 16.2119 6.71079C16.824 6.68841 17.7215 6.7316 19.3138 6.99307L19.5569 5.51289C17.9052 5.24169 16.9019 5.18456 16.1571 5.21179C15.7847 5.22541 15.4877 5.25978 15.226 5.29309C14.96 5.32695 14.755 5.35604 14.518 5.37092L14.612 6.86797ZM19.3316 6.99576L20.4406 7.15067L20.6481 5.6651L19.5391 5.51019L19.3316 6.99576ZM20.6986 7.14186L22.3809 6.78837L22.0724 5.32042L20.3901 5.67391L20.6986 7.14186ZM22.3325 6.79689C22.3633 6.7925 22.3886 6.78942 22.411 6.78767C22.434 6.78586 22.4454 6.78617 22.4474 6.78629C22.4513 6.7865 22.4282 6.78596 22.3892 6.77334C22.3491 6.76036 22.273 6.7283 22.1974 6.65383L23.2499 5.58507C22.9956 5.33465 22.6788 5.29695 22.5319 5.28867C22.3616 5.27906 22.2031 5.30017 22.1208 5.3119L22.3325 6.79689ZM22.0606 6.47004C22.062 6.47274 22.0564 6.46232 22.0504 6.44847C22.0443 6.43465 22.0379 6.41778 22.0323 6.39827C22.0209 6.35799 22.0149 6.3119 22.0192 6.26426C22.0236 6.21571 22.0371 6.18421 22.0433 6.17277C22.0483 6.16348 22.0405 6.18207 21.996 6.22412L23.0257 7.31485C23.3109 7.04561 23.4825 6.73546 23.513 6.40039C23.5429 6.07193 23.4242 5.83989 23.3866 5.76886L22.0606 6.47004ZM21.996 6.22412C21.7265 6.47854 21.0362 7.00248 19.9612 7.76765C18.9045 8.51975 17.52 9.47445 15.9004 10.5767L16.7444 11.8168C18.3664 10.7129 19.7613 9.75111 20.831 8.98971C21.8824 8.24138 22.6656 7.65478 23.0257 7.31485L21.996 6.22412ZM15.9478 10.547C13.6966 11.8452 12.0536 12.4859 8.12418 13.6851L8.56201 15.1198C12.5352 13.9073 14.3023 13.2274 16.6971 11.8465L15.9478 10.547ZM10.3926 4.48359L7.20726 5.49326L7.6605 6.92314L10.8458 5.91348L10.3926 4.48359ZM7.22044 5.48921C7.06753 5.5346 6.86284 5.622 6.66152 5.7518C6.46251 5.88012 6.21516 6.08308 6.04433 6.38105L7.34565 7.12708C7.3553 7.11026 7.39184 7.06568 7.47437 7.01246C7.55461 6.96073 7.62913 6.93259 7.64731 6.92719L7.22044 5.48921ZM5.9792 6.53016L5.66955 7.52008L7.10114 7.96789L7.41079 6.97797L5.9792 6.53016ZM6.99539 8.85333L13.3026 6.73014L12.8241 5.30853L6.51684 7.43171L6.99539 8.85333ZM5.66955 7.52008C5.44159 8.24883 6.08757 9.15892 6.99539 8.85333L6.51684 7.43171C6.71314 7.36563 6.90181 7.44218 7.00478 7.55287C7.10486 7.66045 7.14775 7.8189 7.10114 7.96789L5.66955 7.52008ZM1.33751 14.43L9.07931 10.7808L8.43975 9.42397L0.697955 13.0732L1.33751 14.43ZM9.05292 10.7926C11.7058 9.66498 12.9196 9.21544 16.1632 8.29713L15.7545 6.85386C12.4482 7.78996 11.1749 8.26076 8.46614 9.41215L9.05292 10.7926ZM16.1451 8.302L20.7595 7.11921L20.3871 5.66618L15.7726 6.84898L16.1451 8.302ZM3.54267 14.9079H3.57036V13.4079H3.54267V14.9079ZM3.57036 14.1579C2.94171 14.5669 2.94193 14.5672 2.94216 14.5676C2.94225 14.5677 2.94249 14.5681 2.94267 14.5683C2.94302 14.5689 2.9434 14.5695 2.94381 14.5701C2.94463 14.5714 2.94558 14.5728 2.94665 14.5744C2.94878 14.5776 2.9514 14.5815 2.95451 14.5861C2.96071 14.5953 2.96886 14.6072 2.97891 14.6215C2.99901 14.65 3.02684 14.6883 3.06216 14.7342C3.13253 14.8256 3.23405 14.9488 3.36474 15.0849C3.62173 15.3525 4.01443 15.6938 4.52826 15.9273C5.05322 16.1659 5.70706 16.2918 6.44194 16.1079C7.16829 15.9263 7.89719 15.4613 8.61813 14.6592L7.50255 13.6565C6.92117 14.3033 6.43765 14.5628 6.07794 14.6528C5.72677 14.7406 5.42091 14.6854 5.14895 14.5618C4.86587 14.4331 4.62445 14.231 4.44655 14.0458C4.35979 13.9555 4.29367 13.875 4.25076 13.8192C4.22944 13.7915 4.21423 13.7704 4.20543 13.7579C4.20104 13.7517 4.19828 13.7477 4.1972 13.7461C4.19665 13.7452 4.19653 13.7451 4.19683 13.7455C4.19698 13.7457 4.19724 13.7461 4.1976 13.7467C4.19779 13.747 4.198 13.7473 4.19823 13.7476C4.19835 13.7478 4.19855 13.7481 4.19861 13.7482C4.19881 13.7485 4.19902 13.7489 3.57036 14.1579ZM8.06034 14.9079H8.08733V13.4079H8.06034V14.9079ZM8.08733 14.1579C7.45867 14.5669 7.45889 14.5672 7.45913 14.5676C7.45921 14.5677 7.45945 14.5681 7.45963 14.5683C7.45998 14.5689 7.46036 14.5695 7.46077 14.5701C7.4616 14.5713 7.46254 14.5728 7.46361 14.5744C7.46574 14.5776 7.46836 14.5815 7.47147 14.5861C7.47767 14.5953 7.48582 14.6072 7.49587 14.6215C7.51596 14.65 7.5438 14.6883 7.57911 14.7342C7.64948 14.8256 7.751 14.9488 7.88167 15.0849C8.13865 15.3524 8.53132 15.6937 9.0451 15.9273C9.57001 16.1659 10.2238 16.2918 10.9586 16.1079C11.6849 15.9262 12.4137 15.4612 13.1344 14.6592L12.0187 13.6566C11.4375 14.3034 10.9541 14.5628 10.5946 14.6528C10.2435 14.7406 9.93776 14.6854 9.66585 14.5618C9.38281 14.4331 9.14141 14.2311 8.96351 14.0458C8.87675 13.9555 8.81063 13.875 8.76773 13.8192C8.74641 13.7915 8.73119 13.7704 8.72239 13.7579C8.71801 13.7517 8.71525 13.7477 8.71416 13.7461C8.71362 13.7453 8.71349 13.7451 8.71379 13.7455C8.71395 13.7457 8.7142 13.7461 8.71457 13.7467C8.71475 13.747 8.71496 13.7473 8.71519 13.7476C8.71531 13.7478 8.71551 13.7481 8.71557 13.7482C8.71577 13.7485 8.71598 13.7489 8.08733 14.1579ZM12.5766 14.9079H12.6036V13.4079H12.5766V14.9079ZM12.6036 14.1579C11.9749 14.5669 11.9751 14.5672 11.9754 14.5676C11.9755 14.5677 11.9757 14.5681 11.9759 14.5683C11.9762 14.5689 11.9766 14.5695 11.977 14.5701C11.9778 14.5714 11.9788 14.5728 11.9799 14.5744C11.982 14.5776 11.9846 14.5815 11.9877 14.5861C11.9939 14.5953 12.0021 14.6072 12.0121 14.6215C12.0322 14.65 12.06 14.6883 12.0954 14.7342C12.1657 14.8256 12.2672 14.9488 12.3979 15.0849C12.6549 15.3524 13.0476 15.6937 13.5614 15.9273C14.0863 16.1659 14.7401 16.2918 15.4749 16.1079C16.2012 15.9262 16.9299 15.4612 17.6507 14.6592L16.535 13.6566C15.9538 14.3034 15.4704 14.5628 15.1108 14.6528C14.7598 14.7406 14.454 14.6854 14.1821 14.5618C13.8991 14.4331 13.6577 14.2311 13.4798 14.0458C13.393 13.9555 13.3269 13.875 13.284 13.8192C13.2627 13.7915 13.2474 13.7704 13.2386 13.7579C13.2343 13.7517 13.2315 13.7477 13.2304 13.7461C13.2299 13.7453 13.2297 13.7451 13.23 13.7455C13.2302 13.7457 13.2304 13.7461 13.2308 13.7467C13.231 13.747 13.2312 13.7473 13.2314 13.7476C13.2316 13.7478 13.2318 13.7481 13.2318 13.7482C13.232 13.7485 13.2322 13.7489 12.6036 14.1579ZM17.0928 14.9079H17.1198V13.4079H17.0928V14.9079ZM17.1198 14.1579C16.4912 14.5669 16.4914 14.5672 16.4916 14.5676C16.4917 14.5677 16.492 14.5681 16.4921 14.5683C16.4925 14.5689 16.4929 14.5695 16.4933 14.5701C16.4941 14.5714 16.495 14.5728 16.4961 14.5744C16.4982 14.5776 16.5009 14.5815 16.504 14.5861C16.5102 14.5953 16.5183 14.6072 16.5284 14.6215C16.5485 14.65 16.5763 14.6883 16.6116 14.7342C16.682 14.8256 16.7835 14.9488 16.9142 15.0849C17.1711 15.3524 17.5638 15.6937 18.0776 15.9273C18.6025 16.1659 19.2563 16.2918 19.9911 16.1079C20.7174 15.9262 21.4462 15.4612 22.167 14.6592L21.0512 13.6566C20.47 14.3034 19.9866 14.5628 19.6271 14.6528C19.276 14.7406 18.9703 14.6854 18.6984 14.5618C18.4153 14.4331 18.1739 14.2311 17.996 14.0458C17.9093 13.9555 17.8431 13.875 17.8002 13.8192C17.7789 13.7915 17.7637 13.7704 17.7549 13.7579C17.7505 13.7517 17.7477 13.7477 17.7467 13.7461C17.7461 13.7453 17.746 13.7451 17.7463 13.7455C17.7464 13.7457 17.7467 13.7461 17.7471 13.7467C17.7472 13.747 17.7475 13.7473 17.7477 13.7476C17.7478 13.7478 17.748 13.7481 17.7481 13.7482C17.7483 13.7485 17.7485 13.7489 17.1198 14.1579ZM5.75911 18.4637H5.78609V16.9637H5.75911V18.4637ZM5.78609 17.7137C5.15743 18.1227 5.15766 18.123 5.15789 18.1234C5.15798 18.1235 5.15822 18.1239 5.1584 18.1242C5.15875 18.1247 5.15913 18.1253 5.15954 18.1259C5.16036 18.1272 5.16131 18.1286 5.16238 18.1302C5.16451 18.1334 5.16713 18.1374 5.17023 18.1419C5.17644 18.1511 5.18459 18.163 5.19464 18.1773C5.21473 18.2058 5.24256 18.2442 5.27788 18.29C5.34825 18.3814 5.44976 18.5047 5.58044 18.6407C5.83742 18.9083 6.23009 19.2496 6.74387 19.4831C7.26878 19.7217 7.92258 19.8476 8.6574 19.6638C9.38369 19.4821 10.1125 19.0171 10.8332 18.215L9.7175 17.2124C9.13629 17.8592 8.65291 18.1187 8.29334 18.2086C7.9423 18.2964 7.63653 18.2412 7.36462 18.1176C7.08158 17.9889 6.84017 17.7869 6.66228 17.6017C6.57552 17.5113 6.5094 17.4308 6.4665 17.3751C6.44517 17.3474 6.42996 17.3263 6.42116 17.3138C6.41677 17.3075 6.41402 17.3035 6.41293 17.3019C6.41238 17.3011 6.41226 17.3009 6.41256 17.3013C6.41271 17.3016 6.41297 17.302 6.41333 17.3025C6.41352 17.3028 6.41373 17.3031 6.41396 17.3035C6.41408 17.3036 6.41428 17.304 6.41434 17.304C6.41454 17.3044 6.41475 17.3047 5.78609 17.7137ZM10.2754 18.4637H10.3023V16.9637H10.2754V18.4637ZM10.3023 17.7137C9.67368 18.1227 9.67391 18.123 9.67414 18.1234C9.67423 18.1235 9.67447 18.1239 9.67464 18.1242C9.675 18.1247 9.67538 18.1253 9.67579 18.1259C9.67661 18.1272 9.67756 18.1286 9.67863 18.1302C9.68076 18.1334 9.68338 18.1374 9.68648 18.1419C9.69269 18.1511 9.70083 18.163 9.71089 18.1773C9.73098 18.2058 9.75881 18.2442 9.79413 18.29C9.8645 18.3815 9.96601 18.5047 10.0967 18.6407C10.3537 18.9083 10.7463 19.2496 11.2601 19.4831C11.785 19.7217 12.4388 19.8476 13.1737 19.6638C13.8999 19.4821 14.6287 19.0171 15.3495 18.215L14.2338 17.2124C13.6525 17.8592 13.1692 18.1187 12.8096 18.2086C12.4586 18.2964 12.1528 18.2412 11.8809 18.1176C11.5978 17.9889 11.3564 17.7869 11.1785 17.6017C11.0918 17.5113 11.0256 17.4308 10.9827 17.3751C10.9614 17.3474 10.9462 17.3263 10.9374 17.3138C10.933 17.3075 10.9303 17.3035 10.9292 17.3019C10.9286 17.3011 10.9285 17.3009 10.9288 17.3013C10.929 17.3016 10.9292 17.302 10.9296 17.3025C10.9298 17.3028 10.93 17.3031 10.9302 17.3035C10.9303 17.3036 10.9305 17.3039 10.9306 17.304C10.9308 17.3044 10.931 17.3047 10.3023 17.7137ZM14.7916 18.4637H14.8186V16.9637H14.7916V18.4637ZM14.8186 17.7137C14.1899 18.1227 14.1902 18.123 14.1904 18.1234C14.1905 18.1235 14.1907 18.1239 14.1909 18.1242C14.1912 18.1247 14.1916 18.1253 14.192 18.1259C14.1929 18.1272 14.1938 18.1286 14.1949 18.1302C14.197 18.1334 14.1996 18.1374 14.2027 18.1419C14.2089 18.1511 14.2171 18.163 14.2271 18.1773C14.2472 18.2058 14.2751 18.2442 14.3104 18.29C14.3808 18.3815 14.4823 18.5047 14.6129 18.6407C14.8699 18.9083 15.2626 19.2496 15.7764 19.4831C16.3013 19.7217 16.9551 19.8476 17.6899 19.6638C18.4162 19.4821 19.145 19.0171 19.8657 18.215L18.75 17.2124C18.1688 17.8592 17.6854 18.1187 17.3258 18.2086C16.9748 18.2964 16.669 18.2412 16.3971 18.1176C16.1141 17.9889 15.8727 17.7869 15.6948 17.6017C15.608 17.5113 15.5419 17.4308 15.499 17.3751C15.4777 17.3474 15.4625 17.3263 15.4537 17.3138C15.4493 17.3075 15.4465 17.3035 15.4454 17.3019C15.4449 17.3011 15.4448 17.3009 15.4451 17.3013C15.4452 17.3016 15.4455 17.302 15.4458 17.3025C15.446 17.3028 15.4462 17.3031 15.4465 17.3035C15.4466 17.3036 15.4468 17.3039 15.4468 17.304C15.447 17.3044 15.4473 17.3047 14.8186 17.7137ZM0.943279 16.1819C1.95128 16.2825 3.03161 15.849 4.1006 14.6591L2.98474 13.6566C2.13701 14.6003 1.49523 14.7295 1.09219 14.6893L0.943279 16.1819Z" fill="black"/>
</g>
</svg>
