<svg width="24" height="24" viewBox="0 0 24 24" fill="none" xmlns="http://www.w3.org/2000/svg">
<g id="Sport=indy-racing, Size=24px, weight=regular">
<path id="Indy Racing" d="M7.09603 7.09159C8.46281 5.80933 10.2627 4.87522 12.6081 4.87522C12.6081 4.87522 21 4.72237 21 12.4103C21 12.4103 20.8847 16.7044 18.3846 18.7792C18.3846 18.7792 17.9937 19.1245 16.9391 19.1245H5.31585C5.31585 19.1245 4.78995 19.1528 4.205 18.7707C4.205 18.7707 2.82697 18.0885 3.01821 15.5155M3.13361 16.1185C3.13361 16.1185 4.41602 16.1695 6.93302 15.8949M3.50753 17.5734C3.50753 17.5734 4.78994 17.6243 7.30694 17.3497M3.24319 14.1541C3.45411 13.2992 4.23874 10.5224 6.05548 8.22958L6.25516 8.31733C6.25516 8.31733 8.36437 9.33635 11.576 8.73626C11.576 8.73626 13.9158 7.88708 14.512 9.82605C14.512 9.82605 15.2461 11.8556 12.8162 12.7812C12.8162 12.7812 8.7356 14.3041 3.36693 14.1569H3.24319V14.1541Z" stroke="black" stroke-width="1.5" stroke-miterlimit="10" stroke-linecap="round" stroke-linejoin="round"/>
</g>
</svg>
