<svg width="24" height="24" viewBox="0 0 24 24" fill="none" xmlns="http://www.w3.org/2000/svg">
<g id="Sport=motorcycle-racing, weight=light, Size=24">
<path id="Vector" d="M16.3437 6C16.3437 6 19.3946 7.46188 20.6912 11.0085C20.6912 11.0085 16.3437 11.2119 15.0725 17.0594H9.73352M19.2245 11.4416C19.2245 11.4416 21.0633 12.128 21.4027 13.0598C21.4027 13.0598 20.0298 12.653 19.0898 12.9073M17.7844 12.6101L18.9114 15.6521M21.3528 14.2145C21.6051 14.6346 21.75 15.1266 21.75 15.6522C21.75 17.1967 20.4979 18.4489 18.9534 18.4489C17.7807 18.4489 16.7771 17.7281 16.3614 16.7042M8.107 14.693C8.21632 14.9924 8.27607 15.3153 8.27607 15.6522C8.27607 17.1967 7.02394 18.4488 5.47943 18.4488C3.93493 18.4488 2.6828 17.1967 2.6828 15.6522C2.6828 14.1077 3.93493 12.8555 5.47943 12.8555C6.22563 12.8555 6.90381 13.1479 7.4053 13.6246M11.3435 15.839L12.7844 15.4411C15.2696 14.8436 13.8077 13.35 13.5471 12.5256C12.7921 10.1351 18.3523 9.31394 18.3523 9.31394M16.903 8.45809L16.0551 7.35596L15.314 7.4621M15.208 9.07719C15.208 9.07719 15.1997 7.94963 12.9115 7.94963C12.9115 7.94963 11.4115 7.86446 9.88608 9.56024H6.2422L5.39494 7.82251H2.25L5.53859 10.9579C5.53859 10.9579 9.45324 11.5173 9.71638 15.4408M9.30117 14.1608L5.47868 15.652M5.8353 8.45743H9.66987M12.5682 13.6012C12.5682 14.1277 12.1414 14.5546 11.6148 14.5546C11.0883 14.5546 10.6614 14.1277 10.6614 13.6012C10.6614 13.0746 11.0883 12.6478 11.6148 12.6478C12.1414 12.6478 12.5682 13.0746 12.5682 13.6012Z" stroke="black" stroke-linecap="round" stroke-linejoin="round"/>
</g>
</svg>
