<svg width="24" height="24" viewBox="0 0 24 24" fill="none" xmlns="http://www.w3.org/2000/svg">
<g id="Sport=boxing, Size=24px, weight=light">
<path id="boxing" d="M15.8624 15.2257C15.0622 15.2257 14.0108 15.9676 14.0108 16.7749C14.0108 17.5822 14.6608 18.2379 15.461 18.2379H16.1991M9.7255 16.1274L9.69396 18.1139C9.68178 18.8818 10.3243 19.5083 11.1154 19.4999L15.0846 19.4579C15.8598 19.4497 16.482 18.834 16.4755 18.0815L16.4499 15.1297M8.39386 9.93429C8.39386 9.43143 8.0132 8.97074 7.48979 8.92207C6.88481 8.86368 6.375 9.31463 6.375 9.87914V11.2291C6.375 14.0776 8.95805 14.6615 10.3889 15.2066H16.4455C16.629 14.6129 17.6385 11.7255 17.6249 7.74146V6.0739M9.58685 11.4367C9.58685 11.4367 11.1911 12.0726 11.1911 15.1384M17.5975 6.25883C17.2134 11.9947 8.37668 11.9915 7.99602 6.25558C7.97563 5.97657 8.00711 6.39714 7.98243 5.65172C7.97903 5.01584 8.51943 4.5 9.18558 4.5H16.4113C17.0775 4.5 17.6145 5.01584 17.6145 5.64848C17.6145 6.17295 17.6179 5.97333 17.5975 6.25883Z" stroke="black" stroke-miterlimit="10" stroke-linecap="round" stroke-linejoin="round"/>
</g>
</svg>
