<svg width="16" height="16" viewBox="0 0 16 16" fill="none" xmlns="http://www.w3.org/2000/svg">
<g id="Sport=zed-run, Size=16px, weight=regular">
<path id="zed-run" d="M4 5.96876C3.58579 5.96876 3.25 6.30455 3.25 6.71876C3.25 7.13298 3.58579 7.46876 4 7.46876V5.96876ZM5.80199 6.95493L6.44744 7.33689V7.33689L5.80199 6.95493ZM4.13976 9.76382L4.78521 10.1458L4.78521 10.1458L4.13976 9.76382ZM5.94175 10.75C6.35596 10.75 6.69175 10.4142 6.69175 9.99998C6.69175 9.58577 6.35596 9.24998 5.94175 9.24998V10.75ZM12.75 5C12.75 4.58579 12.4142 4.25 12 4.25C11.5858 4.25 11.25 4.58579 11.25 5H12.75ZM7.10677 5.96876C6.69256 5.96876 6.35677 6.30455 6.35677 6.71876C6.35677 7.13298 6.69256 7.46876 7.10677 7.46876V5.96876ZM9.12619 7.46876C9.5404 7.46876 9.87619 7.13298 9.87619 6.71876C9.87619 6.30455 9.5404 5.96876 9.12619 5.96876V7.46876ZM7.10677 7.60938C6.69256 7.60938 6.35677 7.94517 6.35677 8.35938C6.35677 8.7736 6.69256 9.10938 7.10677 9.10938V7.60938ZM9.12619 9.10938C9.5404 9.10938 9.87619 8.7736 9.87619 8.35938C9.87619 7.94517 9.5404 7.60938 9.12619 7.60938V9.10938ZM7.10677 9.25C6.69256 9.25 6.35677 9.58579 6.35677 10C6.35677 10.4142 6.69256 10.75 7.10677 10.75V9.25ZM9.12619 10.75C9.5404 10.75 9.87619 10.4142 9.87619 10C9.87619 9.58579 9.5404 9.25 9.12619 9.25V10.75ZM4 7.46876H5.66851V5.96876H4V7.46876ZM5.15654 6.57297L3.49431 9.38185L4.78521 10.1458L6.44744 7.33689L5.15654 6.57297ZM4.27324 10.75H5.94175V9.24998H4.27324V10.75ZM3.49431 9.38185C3.1407 9.97938 3.56417 10.75 4.27324 10.75V9.24998C4.74131 9.24998 5.01554 9.75655 4.78521 10.1458L3.49431 9.38185ZM5.66851 7.46876C5.20044 7.46876 4.92621 6.96219 5.15654 6.57297L6.44744 7.33689C6.80104 6.73936 6.37758 5.96876 5.66851 5.96876V7.46876ZM11.25 5V9.68746H12.75V5H11.25ZM11.6893 9.24995H10.4466V10.75H11.6893V9.24995ZM10.8859 9.68746V7.03123H9.38592V9.68746H10.8859ZM10.4466 7.46873H11.9223V5.96873H10.4466V7.46873ZM10.8859 7.03123C10.8859 7.26873 10.6934 7.46873 10.4466 7.46873V5.96873C9.85669 5.96873 9.38592 6.44856 9.38592 7.03123H10.8859ZM10.4466 9.24995C10.6933 9.24995 10.8859 9.44996 10.8859 9.68746H9.38592C9.38592 10.2701 9.85669 10.75 10.4466 10.75V9.24995ZM11.25 9.68746C11.25 9.44996 11.4426 9.24995 11.6893 9.24995V10.75C12.2792 10.75 12.75 10.2701 12.75 9.68746H11.25ZM7.10677 7.46876H9.12619V5.96876H7.10677V7.46876ZM7.10677 9.10938H9.12619V7.60938H7.10677V9.10938ZM7.10677 10.75H9.12619V9.25H7.10677V10.75Z" fill="black"/>
<rect id="Rectangle 896" x="2" y="2" width="12" height="12" rx="4" stroke="black" stroke-width="1.5"/>
</g>
</svg>
