<svg width="24" height="24" viewBox="0 0 24 24" fill="none" xmlns="http://www.w3.org/2000/svg">
<g id="Sport=basketball, weight=light, Size=24">
<path id="basketball" d="M11.2162 4.875C10.3612 6.3 10.005 7.08375 10.7175 8.01C10.7175 8.01 10.86 8.295 11.145 8.4375C12.0712 9.15 13.14 9.07875 14.28 9.0075C15.99 8.865 17.7712 8.7225 19.125 11.43M12.7125 19.125C9.93375 17.7 9.8625 16.0613 9.79125 14.4938C9.79125 13.425 9.72 12.3563 8.79375 11.43C8.79375 11.43 8.7225 11.3588 8.65125 11.2875C8.58 11.2163 8.1525 10.9313 8.1525 10.9313C7.2975 10.4325 6.22875 10.5037 4.875 11.2162M17.2725 16.845L7.22625 6.79875M16.9615 6.82284C15.2358 6.75094 13.4381 7.11046 11.7843 7.97332C8.54861 9.55523 6.46336 12.5752 5.96003 15.9548M19.125 11.3588C18.9825 9.64875 18.27 8.1525 17.0587 6.94125C15.705 5.5875 13.9237 4.875 12 4.875C11.9287 4.875 11.8575 4.875 11.7862 4.875C9.93375 4.94625 8.22375 5.65875 6.94125 6.94125C5.65875 8.22375 4.94625 9.93375 4.875 11.7863C4.875 11.8575 4.875 11.9287 4.875 12C4.875 13.9238 5.5875 15.705 6.94125 17.0588C8.295 18.4125 10.0762 19.125 12 19.125C13.9237 19.125 15.705 18.4125 17.0587 17.0588C18.4125 15.705 19.125 13.9238 19.125 12C19.125 11.7862 19.125 11.5725 19.125 11.3588Z" stroke="black" stroke-miterlimit="10" stroke-linecap="round" stroke-linejoin="round"/>
</g>
</svg>
