<svg width="16" height="16" viewBox="0 0 16 16" fill="none" xmlns="http://www.w3.org/2000/svg">
<g id="Sport=judo, Size=16px, weight=regular">
<path id="Judo" d="M9.69355 2.75H6.30645M9.69355 2.75L7.99704 7.77539M9.69355 2.75L10.3926 3.25806C11.3932 3.25806 11.9453 3.8923 12.2726 4.83793L12.974 6.86405C13.1566 7.3918 13.25 7.94644 13.25 8.50489V10.9055H11.0484M6.30645 2.75L8.33596 8.84402M6.30645 2.75L5.60744 3.25806C4.60676 3.25806 4.05467 3.8923 3.72739 4.83793L3.02605 6.86405C2.84336 7.3918 2.75 7.94644 2.75 8.50489V10.9055H4.95161M11.2177 4.95161V6.64516L10.879 9.35484M10.879 9.35484H9.05423M10.879 9.35484V10.2016M4.78226 4.95161V6.64516L5.12097 9.35484M5.12097 9.35484H6.96058M5.12097 9.35484V10.2016M5.12097 10.2016L4.78226 12.9113V13.25H11.2177V12.9113L10.879 10.2016M5.12097 10.2016H6.09328M10.879 10.2016H9.91265M7.17969 10.2016H8.81756M8.50806 8.84677L10.5403 10.879L10.0323 11.3871L8.01757 9.37241M8.50806 8.84677L5.96774 11.3871L5.45968 10.879L7.49194 8.84677M8.50806 8.84677H7.49194M7.49194 8.84677L5.62903 3.34274M10.5403 13.25L10.2863 11.2177M8.42339 8.84677L10.4556 3.34274" stroke="black" stroke-width="1.5" stroke-linecap="round" stroke-linejoin="round"/>
</g>
</svg>
