<svg width="16" height="16" viewBox="0 0 16 16" fill="none" xmlns="http://www.w3.org/2000/svg">
<g id="Sport=esport-generic, Size=16px, weight=regular">
<path id="e-sports" d="M5.50587 6.29817V7.28444M5.50587 7.28444V8.27057M5.50587 7.28444H4.56063M5.50587 7.28444H6.45112M11.4664 12C10.9655 12 10.4993 11.7415 10.2188 11.3082L10.1652 11.225C9.72919 10.5513 9.00329 10.1489 8.22374 10.1489H7.77626C6.99671 10.1489 6.27104 10.5513 5.83482 11.2252L5.78117 11.3082C5.50118 11.7415 5.03454 12 4.53362 12C4.05728 12 3.60439 11.7613 3.32192 11.3612L3.29329 11.3207C3.10167 11.049 3 10.727 3 10.3895V9.85723C3 8.13313 3.36971 6.39657 4.06878 4.835C4.29579 4.32788 4.78926 4 5.3258 4H5.46782C5.85872 4 6.23339 4.17312 6.4958 4.47536C6.6421 4.64377 6.85108 4.74044 7.06885 4.74044H8.93138C9.14915 4.74044 9.3579 4.64377 9.5042 4.47536C9.76661 4.17312 10.1413 4 10.5324 4H10.6742C11.211 4 11.7044 4.32788 11.9314 4.835C12.6305 6.3968 13 8.13337 13 9.85723V10.3895C13 10.727 12.8986 11.049 12.7067 11.3209L12.6781 11.3614C12.3956 11.7613 11.9427 12 11.4664 12ZM8.26358 8.86631C8.26358 9.01824 8.14554 9.1414 7.99992 9.1414C7.85445 9.1414 7.73642 9.01824 7.73642 8.86631C7.73642 8.71437 7.85445 8.59122 7.99992 8.59122C8.14554 8.59122 8.26358 8.71437 8.26358 8.86631ZM10.797 6.42315C10.797 6.55558 10.6941 6.66292 10.5671 6.66292C10.4403 6.66292 10.3375 6.55558 10.3375 6.42315C10.3375 6.29071 10.4403 6.18337 10.5671 6.18337C10.6941 6.18337 10.797 6.29071 10.797 6.42315ZM10.797 8.14552C10.797 8.27795 10.6941 8.3853 10.5671 8.3853C10.4403 8.3853 10.3375 8.27795 10.3375 8.14552C10.3375 8.01308 10.4403 7.90574 10.5671 7.90574C10.6941 7.90574 10.797 8.01308 10.797 8.14552ZM9.93308 7.2844C9.93308 7.41683 9.8302 7.52418 9.70327 7.52418C9.57648 7.52418 9.47359 7.41683 9.47359 7.2844C9.47359 7.15196 9.57648 7.04462 9.70327 7.04462C9.8302 7.04462 9.93308 7.15196 9.93308 7.2844ZM11.6288 7.2844C11.6288 7.41683 11.526 7.52418 11.399 7.52418C11.2722 7.52418 11.1694 7.41683 11.1694 7.2844C11.1694 7.15196 11.2722 7.04462 11.399 7.04462C11.526 7.04462 11.6288 7.15196 11.6288 7.2844Z" stroke="black" stroke-width="1.5" stroke-linecap="round" stroke-linejoin="round"/>
</g>
</svg>
