<svg width="24" height="24" viewBox="0 0 24 24" fill="none" xmlns="http://www.w3.org/2000/svg">
<g id="Sport=cycling, weight=regular, Size=24">
<path id="cycling" d="M4.98381 7.04637H12.0059M12.0059 7.04637L7.20353 12.8921M12.0059 7.04637L12.006 4.5H14.9757C15.7801 4.50302 16.4273 5.15625 16.4212 5.95766C16.4182 6.75605 15.7741 7.4002 14.9757 7.40323M12.0059 7.04637L14.4192 14.4194M5.80087 12.5995L4.54282 4.55515M4.54282 4.5H5.84623M6.19342 17.3226V14.4194M5.22606 17.7154H7.16152M13.4815 11.0721C13.8201 10.9774 14.1798 10.9321 14.5501 10.946C16.4681 11.0181 17.965 12.632 17.8928 14.55C17.8207 16.468 16.2069 17.9648 14.2889 17.8927C12.3709 17.8206 10.8741 16.2067 10.9462 14.2887C10.9836 13.2957 11.4337 12.4157 12.1251 11.8077M7.88704 14.4557C7.88704 15.391 7.12883 16.1492 6.19352 16.1492C5.25822 16.1492 4.5 15.391 4.5 14.4557C4.5 13.5203 5.25822 12.7621 6.19352 12.7621C7.12883 12.7621 7.88704 13.5203 7.88704 14.4557ZM19.5 14.4194C19.5 17.2253 17.2254 19.5 14.4194 19.5C11.6135 19.5 9.33887 17.2253 9.33887 14.4194C9.33887 11.6134 11.6135 9.33871 14.4194 9.33871C17.2254 9.33871 19.5 11.6134 19.5 14.4194Z" stroke="black" stroke-width="1.5" stroke-miterlimit="10" stroke-linecap="round" stroke-linejoin="round"/>
</g>
</svg>
