<svg width="17" height="16" viewBox="0 0 17 16" fill="none" xmlns="http://www.w3.org/2000/svg">
<g id="Sport=boat-racing, weight=regular, Size=16">
<path id="boat-racing" d="M0.285187 5.20142C-0.0398871 5.45813 -0.0953083 5.92976 0.161401 6.25484C0.41811 6.57991 0.889738 6.63533 1.21481 6.37862L0.285187 5.20142ZM2.57733 4.34699L2.16151 3.72282L2.1363 3.73961L2.11252 3.75839L2.57733 4.34699ZM5.20632 3.21379L5.11539 2.46933L5.20632 3.21379ZM7.12973 3.41374L6.89854 4.12726L6.90594 4.12958L7.12973 3.41374ZM8.85771 3.95397L9.15824 3.26682L9.12066 3.25038L9.0815 3.23814L8.85771 3.95397ZM9.95999 4.07963L10.007 4.82816L9.95999 4.07963ZM13.2069 4.16865L13.0854 4.90874L13.0942 4.9102L13.1031 4.91144L13.2069 4.16865ZM13.9462 4.27192L13.8425 5.01471L13.9722 5.03284L14.1005 5.0059L13.9462 4.27192ZM15.0678 4.03626L14.962 3.29377L14.9376 3.29724L14.9135 3.30229L15.0678 4.03626ZM15.3991 4.07963L16.0621 3.72904L16.0079 3.62658L15.9253 3.54525L15.3991 4.07963ZM15.2572 4.51299L14.7424 3.96763V3.96763L15.2572 4.51299ZM11.1316 7.46451L11.5063 8.11423L11.5305 8.10026L11.5536 8.08453L11.1316 7.46451ZM5.20592 4.1388L5.41939 4.85791L5.43254 4.85374L5.20592 4.1388ZM4.71333 4.50271L4.06267 4.12969L4.02196 4.2007L3.99753 4.27881L4.71333 4.50271ZM4.5069 5.16266L3.7911 4.93875L3.7911 4.93875L4.5069 5.16266ZM4.75408 5.42835L4.5148 4.71754V4.71754L4.75408 5.42835ZM0.608711 8.48931C0.234035 8.66592 0.0734695 9.11283 0.250078 9.4875C0.426687 9.86218 0.873592 10.0227 1.24827 9.84614L0.608711 8.48931ZM6.08969 6.73492L5.79629 6.04469L5.78299 6.05034L5.76991 6.05651L6.08969 6.73492ZM10.8892 5.05033L10.703 4.32381L10.6939 4.32614L10.6849 4.32869L10.8892 5.05033ZM2.61178 9.43858V8.68858C2.39893 8.68858 2.1961 8.77902 2.05385 8.93736L2.61178 9.43858ZM2.63024 9.43858L3.2589 9.02957C3.12052 8.81688 2.88398 8.68858 2.63024 8.68858V9.43858ZM5.62356 9.43858V8.68858C5.41078 8.68858 5.20801 8.77896 5.06577 8.93721L5.62356 9.43858ZM5.64155 9.43858L6.27021 9.02957C6.13183 8.81688 5.89529 8.68858 5.64155 8.68858V9.43858ZM8.63439 9.43858V8.68858C8.42158 8.68858 8.21878 8.77899 8.07653 8.93728L8.63439 9.43858ZM8.65238 9.43858L9.28104 9.02957C9.14266 8.81688 8.90612 8.68858 8.65238 8.68858V9.43858ZM11.6452 9.43858V8.68858C11.4324 8.68858 11.2296 8.77899 11.0874 8.93728L11.6452 9.43858ZM11.6632 9.43858L12.2919 9.02957C12.1535 8.81688 11.917 8.68858 11.6632 8.68858V9.43858ZM15.2139 9.93987C15.4908 9.63177 15.4655 9.15757 15.1574 8.88072C14.8493 8.60386 14.3751 8.62919 14.0982 8.93728L15.2139 9.93987ZM4.08941 11.0591C3.67519 11.0591 3.33941 11.3949 3.33941 11.8091C3.33941 12.2233 3.67519 12.5591 4.08941 12.5591V11.0591ZM4.10739 11.8091L4.73605 11.4001C4.59767 11.1874 4.36114 11.0591 4.10739 11.0591V11.8091ZM7.10024 11.8091V11.0591C6.88742 11.0591 6.68463 11.1495 6.54238 11.3078L7.10024 11.8091ZM7.11823 11.8091L7.74688 11.4001C7.60851 11.1874 7.37197 11.0591 7.11823 11.0591V11.8091ZM10.1111 11.8091V11.0591C9.89826 11.0591 9.69546 11.1495 9.55322 11.3078L10.1111 11.8091ZM10.1291 11.8091L10.7577 11.4001C10.6193 11.1874 10.3828 11.0591 10.1291 11.0591V11.8091ZM13.6798 12.3104C13.9566 12.0023 13.9313 11.5281 13.6232 11.2513C13.3151 10.9744 12.8409 10.9997 12.5641 11.3078L13.6798 12.3104ZM1.00295 9.5441C0.590778 9.50298 0.223315 9.80378 0.182194 10.2159C0.141074 10.6281 0.441866 10.9956 0.854034 11.0367L1.00295 9.5441ZM1.21481 6.37862L3.04215 4.93559L2.11252 3.75839L0.285187 5.20142L1.21481 6.37862ZM2.99316 4.97116C3.21365 4.82427 3.61204 4.587 4.05851 4.37556C4.51719 4.15834 4.96324 3.99906 5.29726 3.95826L5.11539 2.46933C4.54034 2.53957 3.92066 2.78114 3.41651 3.0199C2.90014 3.26443 2.43857 3.53824 2.16151 3.72282L2.99316 4.97116ZM5.29726 3.95826C5.47673 3.93634 5.62415 3.91053 5.85924 3.91947C6.09196 3.92833 6.42551 3.97395 6.89855 4.12723L7.36091 2.70026C6.77015 2.50885 6.30021 2.43517 5.91628 2.42056C5.53473 2.40604 5.25234 2.4526 5.11539 2.46933L5.29726 3.95826ZM6.90594 4.12958L8.63391 4.66981L9.0815 3.23814L7.35353 2.69791L6.90594 4.12958ZM8.55717 4.64112C8.81692 4.75473 9.34242 4.8699 10.007 4.82816L9.91298 3.33111C9.68412 3.34548 9.49486 3.33123 9.35725 3.31017C9.20938 3.28753 9.14453 3.26082 9.15824 3.26682L8.55717 4.64112ZM10.007 4.82816C10.2154 4.81507 10.4025 4.78859 10.5586 4.76872C10.719 4.74829 10.8741 4.73075 11.0671 4.72369C11.453 4.70958 12.0337 4.73606 13.0854 4.90874L13.3284 3.42856C12.2174 3.24614 11.5309 3.20573 11.0123 3.22469C10.7529 3.23418 10.5464 3.25816 10.3691 3.28073C10.1875 3.30384 10.0609 3.32181 9.91298 3.33111L10.007 4.82816ZM13.1031 4.91144L13.8425 5.01471L14.05 3.52914L13.3107 3.42586L13.1031 4.91144ZM14.1005 5.0059L15.222 4.77024L14.9135 3.30229L13.792 3.53795L14.1005 5.0059ZM15.1736 4.77876C15.217 4.77258 15.2189 4.77481 15.2009 4.77379C15.1895 4.77315 15.1516 4.77038 15.0992 4.75344C15.0457 4.73615 14.9578 4.69768 14.8728 4.61401L15.9253 3.54525C15.6897 3.31323 15.4018 3.28274 15.2853 3.27617C15.1455 3.26829 15.0191 3.28562 14.962 3.29377L15.1736 4.77876ZM14.7361 4.43022C14.7364 4.43081 14.7291 4.41725 14.7212 4.39928C14.7134 4.38135 14.705 4.35938 14.6977 4.33388C14.6829 4.28159 14.6745 4.21988 14.6805 4.15348C14.694 4.0059 14.7658 3.94553 14.7424 3.96763L15.7721 5.05836C15.9955 4.84739 16.1472 4.58719 16.1743 4.28961C16.2008 3.99865 16.0952 3.79165 16.0621 3.72904L14.7361 4.43022ZM14.7424 3.96763C14.5778 4.12299 14.1331 4.46184 13.4125 4.97476C12.7102 5.47461 11.7889 6.1099 10.7096 6.84449L11.5536 8.08453C12.6353 7.34831 13.567 6.70596 14.2823 6.19682C14.9793 5.70073 15.5169 5.29923 15.7721 5.05836L14.7424 3.96763ZM10.757 6.81478C9.28009 7.6664 8.2055 8.08707 5.59315 8.88431L6.03098 10.319C8.68706 9.50841 9.88585 9.04861 11.5063 8.11423L10.757 6.81478ZM7.10283 2.75075L4.9793 3.42386L5.43254 4.85374L7.55607 4.18063L7.10283 2.75075ZM4.99248 3.41981C4.86809 3.45674 4.70993 3.52488 4.55554 3.62442C4.40345 3.72249 4.20341 3.88419 4.06267 4.12969L5.36399 4.87573C5.35225 4.89621 5.34317 4.90431 5.34517 4.90238C5.34708 4.90055 5.35442 4.8941 5.36839 4.88509C5.38208 4.87626 5.39697 4.86832 5.41024 4.86223C5.41659 4.85932 5.42132 4.85741 5.4239 4.85643C5.4268 4.85532 5.42537 4.856 5.41935 4.85779L4.99248 3.41981ZM3.99753 4.27881L3.7911 4.93875L5.2227 5.38656L5.42913 4.72661L3.99753 4.27881ZM4.99335 6.13915L9.19817 4.7237L8.71961 3.30208L4.5148 4.71754L4.99335 6.13915ZM3.7911 4.93875C3.58855 5.58629 4.16241 6.41887 4.99336 6.13915L4.5148 4.71754C4.74954 4.63852 4.97545 4.72798 5.10289 4.86496C5.22744 4.99883 5.282 5.19697 5.2227 5.38656L3.7911 4.93875ZM1.24827 9.84614L6.40947 7.41333L5.76991 6.05651L0.608711 8.48931L1.24827 9.84614ZM6.38308 7.42515C8.14233 6.67736 8.94167 6.38121 11.0935 5.77196L10.6849 4.32869C8.47023 4.95573 7.61143 5.27313 5.79629 6.04469L6.38308 7.42515ZM11.0755 5.77684L14.1518 4.98831L13.7793 3.53528L10.703 4.32381L11.0755 5.77684ZM2.61178 10.1886H2.63024V8.68858H2.61178V10.1886ZM2.63024 9.43858C2.00158 9.84759 2.00181 9.84793 2.00204 9.84828C2.00212 9.84841 2.00235 9.84876 2.00252 9.84902C2.00285 9.84952 2.0032 9.85006 2.00358 9.85063C2.00432 9.85177 2.00515 9.85303 2.00607 9.85441C2.0079 9.85717 2.01006 9.8604 2.01256 9.8641C2.01754 9.87148 2.02387 9.88069 2.03152 9.89156C2.0468 9.91326 2.06746 9.94169 2.09334 9.97531C2.14483 10.0422 2.21841 10.1315 2.31286 10.2298C2.49737 10.4219 2.78438 10.6726 3.16539 10.8458C3.55753 11.024 4.05142 11.1197 4.60529 10.9812C5.15063 10.8447 5.67746 10.5005 6.18135 9.93994L5.06577 8.93721C4.70144 9.34254 4.41999 9.48129 4.2413 9.52599C4.07113 9.56856 3.92522 9.54349 3.78608 9.48024C3.63582 9.41194 3.50008 9.30046 3.39467 9.1907C3.34415 9.13811 3.30597 9.09152 3.28194 9.06032C3.27006 9.04488 3.26202 9.0337 3.25804 9.02804C3.25606 9.02523 3.25512 9.02384 3.25525 9.02402C3.25531 9.02412 3.25564 9.02461 3.25625 9.02553C3.25656 9.02599 3.25693 9.02655 3.25737 9.02722C3.25759 9.02756 3.25783 9.02792 3.25808 9.02831C3.25821 9.02851 3.25841 9.02882 3.25848 9.02892C3.25869 9.02924 3.2589 9.02957 2.63024 9.43858ZM5.62356 10.1886H5.64155V8.68858H5.62356V10.1886ZM5.64155 9.43858C5.01289 9.84759 5.01311 9.84793 5.01334 9.84828C5.01343 9.8484 5.01366 9.84876 5.01382 9.84902C5.01416 9.84952 5.01451 9.85006 5.01488 9.85063C5.01563 9.85177 5.01646 9.85303 5.01737 9.85441C5.0192 9.85717 5.02137 9.8604 5.02386 9.86409C5.02885 9.87147 5.03518 9.88069 5.04283 9.89155C5.0581 9.91325 5.07876 9.94169 5.10464 9.9753C5.15613 10.0422 5.2297 10.1314 5.32414 10.2298C5.50864 10.4219 5.79563 10.6726 6.17661 10.8458C6.56872 11.024 7.06259 11.1197 7.61643 10.9812C8.16174 10.8447 8.68849 10.5005 9.19225 9.93987L8.07653 8.93728C7.71232 9.3426 7.43097 9.48132 7.25237 9.526C7.08231 9.56855 6.93647 9.54349 6.79736 9.48026C6.64712 9.41196 6.5114 9.30048 6.40598 9.19072C6.35546 9.13812 6.31728 9.09153 6.29326 9.06033C6.28137 9.04489 6.27333 9.0337 6.26935 9.02805C6.26737 9.02523 6.26643 9.02384 6.26656 9.02403C6.26662 9.02412 6.26695 9.02462 6.26756 9.02553C6.26786 9.02599 6.26824 9.02655 6.26868 9.02722C6.2689 9.02756 6.26914 9.02792 6.26939 9.02831C6.26952 9.02851 6.26972 9.02882 6.26979 9.02892C6.26999 9.02924 6.27021 9.02957 5.64155 9.43858ZM8.63439 10.1886H8.65238V8.68858H8.63439V10.1886ZM8.65238 9.43858C8.02372 9.84759 8.02395 9.84793 8.02417 9.84828C8.02426 9.84841 8.02449 9.84876 8.02466 9.84902C8.02499 9.84953 8.02534 9.85006 8.02571 9.85063C8.02646 9.85177 8.02729 9.85303 8.02821 9.85441C8.03003 9.85717 8.0322 9.8604 8.03469 9.86409C8.03968 9.87147 8.04601 9.88069 8.05366 9.89156C8.06894 9.91325 8.08959 9.94169 8.11547 9.9753C8.16696 10.0422 8.24053 10.1314 8.33497 10.2298C8.51947 10.4219 8.80647 10.6726 9.18744 10.8458C9.57955 11.024 10.0734 11.1197 10.6273 10.9812C11.1726 10.8447 11.6993 10.5005 12.2031 9.93987L11.0874 8.93728C10.7232 9.3426 10.4418 9.48132 10.2632 9.526C10.0931 9.56855 9.9473 9.54349 9.80819 9.48026C9.65795 9.41196 9.52223 9.30047 9.41681 9.19072C9.36629 9.13812 9.32811 9.09153 9.30409 9.06032C9.2922 9.04488 9.28416 9.0337 9.28018 9.02805C9.2782 9.02523 9.27726 9.02384 9.27738 9.02402C9.27745 9.02412 9.27778 9.02461 9.27839 9.02553C9.27869 9.02599 9.27907 9.02655 9.27951 9.02722C9.27973 9.02756 9.27996 9.02792 9.28022 9.02831C9.28035 9.02851 9.28055 9.02882 9.28061 9.02892C9.28082 9.02924 9.28104 9.02957 8.65238 9.43858ZM11.6452 10.1886H11.6632V8.68858H11.6452V10.1886ZM11.6632 9.43858C11.0346 9.84759 11.0348 9.84793 11.035 9.84828C11.0351 9.84841 11.0353 9.84876 11.0355 9.84902C11.0358 9.84952 11.0362 9.85006 11.0365 9.85063C11.0373 9.85177 11.0381 9.85303 11.039 9.85441C11.0409 9.85717 11.043 9.8604 11.0455 9.86409C11.0505 9.87147 11.0568 9.88069 11.0645 9.89156C11.0798 9.91325 11.1004 9.94169 11.1263 9.9753C11.1778 10.0422 11.2514 10.1314 11.3458 10.2298C11.5303 10.4219 11.8173 10.6726 12.1983 10.8458C12.5904 11.024 13.0843 11.1197 13.6381 10.9812C14.1834 10.8447 14.7102 10.5005 15.2139 9.93987L14.0982 8.93728C13.734 9.3426 13.4526 9.48132 13.274 9.526C13.104 9.56855 12.9581 9.54349 12.819 9.48026C12.6688 9.41196 12.5331 9.30048 12.4276 9.19072C12.3771 9.13812 12.3389 9.09153 12.3149 9.06032C12.303 9.04489 12.295 9.0337 12.291 9.02805C12.289 9.02523 12.2881 9.02384 12.2882 9.02402C12.2883 9.02412 12.2886 9.02462 12.2892 9.02553C12.2895 9.02599 12.2899 9.02655 12.2903 9.02722C12.2906 9.02756 12.2908 9.02792 12.2911 9.02831C12.2912 9.02851 12.2914 9.02882 12.2915 9.02892C12.2917 9.02924 12.2919 9.02957 11.6632 9.43858ZM4.08941 12.5591H4.10739V11.0591H4.08941V12.5591ZM4.10739 11.8091C3.47874 12.2181 3.47896 12.2185 3.47919 12.2188C3.47927 12.219 3.4795 12.2193 3.47967 12.2196C3.48 12.2201 3.48035 12.2206 3.48073 12.2212C3.48147 12.2223 3.48231 12.2236 3.48322 12.225C3.48505 12.2277 3.48721 12.231 3.48971 12.2346C3.4947 12.242 3.50103 12.2512 3.50867 12.2621C3.52395 12.2838 3.54461 12.3122 3.57048 12.3458C3.62198 12.4127 3.69555 12.502 3.78999 12.6003C3.97449 12.7924 4.26148 13.0431 4.64246 13.2163C5.03456 13.3946 5.52843 13.4903 6.08228 13.3517C6.62759 13.2153 7.15433 12.871 7.6581 12.3104L6.54238 11.3078C6.17816 11.7131 5.89681 11.8519 5.71822 11.8965C5.54816 11.9391 5.40231 11.914 5.2632 11.8508C5.11297 11.7825 4.97724 11.671 4.87183 11.5613C4.82131 11.5087 4.78312 11.4621 4.7591 11.4309C4.74722 11.4154 4.73918 11.4043 4.73519 11.3986C4.73321 11.3958 4.73227 11.3944 4.7324 11.3946C4.73246 11.3947 4.7328 11.3952 4.73341 11.3961C4.73371 11.3965 4.73408 11.3971 4.73452 11.3978C4.73474 11.3981 4.73498 11.3985 4.73523 11.3989C4.73536 11.3991 4.73557 11.3994 4.73563 11.3995C4.73584 11.3998 4.73605 11.4001 4.10739 11.8091ZM7.10024 12.5591H7.11823V11.0591H7.10024V12.5591ZM7.11823 11.8091C6.48957 12.2181 6.48979 12.2185 6.49002 12.2188C6.4901 12.219 6.49034 12.2193 6.4905 12.2196C6.49083 12.2201 6.49119 12.2206 6.49156 12.2212C6.49231 12.2223 6.49314 12.2236 6.49405 12.225C6.49588 12.2277 6.49804 12.231 6.50054 12.2346C6.50553 12.242 6.51186 12.2512 6.51951 12.2621C6.53478 12.2838 6.55544 12.3122 6.58131 12.3458C6.63281 12.4127 6.70638 12.502 6.80082 12.6003C6.98532 12.7924 7.27231 13.0431 7.65329 13.2163C8.0454 13.3946 8.53927 13.4903 9.09311 13.3517C9.63842 13.2153 10.1652 12.871 10.6689 12.3104L9.55322 11.3078C9.189 11.7131 8.90765 11.8519 8.72905 11.8965C8.55899 11.9391 8.41315 11.914 8.27404 11.8508C8.1238 11.7825 7.98808 11.671 7.88266 11.5613C7.83214 11.5087 7.79396 11.4621 7.76993 11.4309C7.75805 11.4154 7.75001 11.4043 7.74603 11.3986C7.74404 11.3958 7.7431 11.3944 7.74323 11.3946C7.7433 11.3947 7.74363 11.3952 7.74424 11.3961C7.74454 11.3965 7.74491 11.3971 7.74535 11.3978C7.74557 11.3981 7.74581 11.3985 7.74607 11.3989C7.74619 11.3991 7.7464 11.3994 7.74646 11.3995C7.74667 11.3998 7.74688 11.4001 7.11823 11.8091ZM10.1111 12.5591H10.1291V11.0591H10.1111V12.5591ZM10.1291 11.8091C9.50041 12.2181 9.50063 12.2185 9.50086 12.2188C9.50094 12.219 9.50117 12.2193 9.50134 12.2196C9.50167 12.2201 9.50202 12.2206 9.5024 12.2212C9.50314 12.2223 9.50397 12.2236 9.50489 12.225C9.50672 12.2277 9.50888 12.231 9.51138 12.2346C9.51637 12.242 9.52269 12.2512 9.53034 12.2621C9.54562 12.2838 9.56628 12.3122 9.59215 12.3458C9.64364 12.4127 9.71722 12.502 9.81166 12.6003C9.99615 12.7924 10.2831 13.0431 10.6641 13.2163C11.0562 13.3946 11.5501 13.4903 12.1039 13.3517C12.6493 13.2153 13.176 12.871 13.6798 12.3104L12.5641 11.3078C12.1998 11.7131 11.9185 11.8519 11.7399 11.8965C11.5698 11.9391 11.424 11.914 11.2849 11.8508C11.1346 11.7825 10.9989 11.671 10.8935 11.5613C10.843 11.5087 10.8048 11.4621 10.7808 11.4309C10.7689 11.4154 10.7608 11.4043 10.7569 11.3986C10.7549 11.3958 10.7539 11.3944 10.7541 11.3946C10.7541 11.3947 10.7545 11.3952 10.7551 11.3961C10.7554 11.3965 10.7557 11.3971 10.7562 11.3978C10.7564 11.3981 10.7566 11.3985 10.7569 11.3989C10.757 11.3991 10.7572 11.3994 10.7573 11.3995C10.7575 11.3998 10.7577 11.4001 10.1291 11.8091ZM0.854034 11.0367C1.62686 11.1138 2.42017 10.7741 3.16971 9.93979L2.05385 8.93736C1.52558 9.52541 1.17081 9.56085 1.00295 9.5441L0.854034 11.0367Z" fill="black"/>
</g>
</svg>
