<svg width="24" height="24" viewBox="0 0 24 24" fill="none" xmlns="http://www.w3.org/2000/svg">
<g id="Sport=field-hockey, Size=24px, weight=light">
<path id="Vector" d="M14.2686 12.9221L21.205 4.36132C21.4962 3.99974 21.4462 3.47197 21.0923 3.17149C20.7236 2.85849 20.1691 2.91269 19.868 3.29114L12.9193 11.9813M9.45147 15.7916L11.3034 17.275M8.62786 16.7975L12.1118 12.4067C12.5371 11.8712 13.3163 11.7823 13.8513 12.2083C14.3926 12.6393 14.4753 13.4305 14.0347 13.9641L10.1792 18.6565C8.94766 20.2312 7.73309 20.8417 6.13245 20.45C5.36483 20.3201 4.71372 19.8473 4.24951 19.1341C3.40994 17.8738 3.50283 16.2878 3.63425 15.8567C3.79053 15.2787 4.30647 14.822 4.86653 14.7959C4.98522 14.7857 5.07051 14.8002 5.1558 14.8146C5.49697 14.8723 5.78982 15.0427 5.97749 15.3163C6.16517 15.5898 6.22421 15.9322 6.19796 16.2602C6.16176 16.647 6.19952 17.288 6.41563 17.5664C6.58481 17.7763 6.89518 17.9002 7.16597 17.8554C7.6147 17.8543 8.02523 17.4209 8.62786 16.7975Z" stroke="black" stroke-linecap="round" stroke-linejoin="round"/>
<circle id="Ellipse 70" cx="7.78467" cy="10.4308" r="1.875" transform="rotate(-3.71933 7.78467 10.4308)" stroke="black" stroke-linecap="round" stroke-linejoin="round"/>
</g>
</svg>
