<svg width="16" height="16" viewBox="0 0 16 16" fill="none" xmlns="http://www.w3.org/2000/svg">
<g id="Sport=rainbow-six, weight=light, Size=16">
<path id="Vector" d="M6.69565 4.78608L6.17391 6.32938M5.65217 4.78608L5.13043 6.32938M4.6087 4.78608L4.08696 6.32938M6.43478 9.15876L7.02696 7.6026C7.14174 7.30166 7.43391 7.10103 7.76 7.10103H10.087M7.73919 7.10103C7.55397 7.89325 8.00006 8.38711 8.00006 8.38711M13.4783 4.01443V3.5H12.4348V4.01443H5.3913L4.86957 3.5H3.82609V4.27165C3.63826 4.27165 3.42435 4.25622 3.30435 4.52887C3.24957 4.52887 3.15043 4.52887 3.04348 4.52887C2.72 4.20992 2.52174 4.78608 2.52174 4.78608L3.04348 5.55773V6.07216C2.97565 6.17505 2.85043 6.27279 2.78261 6.32938C2.56609 6.50686 2.26087 6.47085 2.26087 6.5866C2.26087 6.85153 2.18261 7.35825 2.78261 7.35825C3.26783 7.35825 3.30435 7.99614 3.30435 8.38711C3.30435 8.69577 2.9 9.18448 2.81391 9.39797C2.73043 9.61146 2.27391 10.7458 2.15391 11.1342C2.03391 11.5251 2 11.7746 2 11.9856C2 12.1965 2.3287 12.5 2.52174 12.5H5.3913C5.91304 12.5 5.43565 11.6975 5.65217 11.2139C5.88957 10.6841 6.21043 9.68862 6.43478 9.15619H8.36522C8.77739 9.15619 9.13739 9.01215 9.30435 8.64175L10.087 7.09846H11.3913C11.7722 7.09846 11.913 6.85153 11.913 6.58402H13.4783C13.76 6.58402 14 6.38597 14 6.06959V4.01443H13.4783Z" stroke="black" stroke-miterlimit="10" stroke-linecap="round" stroke-linejoin="round"/>
</g>
</svg>
