<svg width="24" height="24" viewBox="0 0 24 24" fill="none" xmlns="http://www.w3.org/2000/svg">
<g id="Sport=lol, Size=24px, weight=regular">
<path id="lol" d="M6.72137 16.1593C5.67208 15.0294 4.99376 13.5563 4.88905 11.9148C4.78818 10.3335 5.23542 8.84253 6.07085 7.61912M18.7312 13.7697C19.0335 12.9211 19.1717 12.001 19.1109 11.048C18.9471 8.48018 17.3796 6.32438 15.1841 5.25M9.71325 9.49178V14.8879C9.71325 15.8296 9.29081 16.7239 8.55752 17.3347C7.97563 17.8193 8.32626 18.75 9.09073 18.75H17.105C17.4311 18.75 17.7406 18.6091 17.9504 18.365L18.5105 17.7135C19.1141 17.0113 18.6034 15.9398 17.6651 15.9398H13.8921C13.2823 15.9398 12.7879 15.4565 12.7879 14.8604V5.47271H9.42833C8.61043 5.47271 8.1813 6.42177 8.73188 7.01298C9.36331 7.69101 9.71325 8.5749 9.71325 9.49178Z" stroke="black" stroke-width="1.5" stroke-linecap="round" stroke-linejoin="round"/>
</g>
</svg>
