<svg width="24" height="24" viewBox="0 0 24 24" fill="none" xmlns="http://www.w3.org/2000/svg">
<g id="Sport=e-ice-hockey, weight=regular, Size=24">
<path id="Vector" d="M18.3283 3.75C17.3314 5.86838 14.6183 11.1869 14.3214 11.7765C13.8866 12.6415 13.5048 12.8357 12.2004 12.8357H4.77692C2.56756 12.8357 4.26789 17.7786 6.62572 17.7786H9.01889M16.1081 17.0343C14.2459 17.5559 12.2758 17.5559 10.4136 17.0343M15.9617 15.6088L20.25 5.44367M13.2609 15.3071C10.8924 15.3071 9.01889 15.9779 9.01889 16.7194V18.8377C9.01889 19.5792 10.8924 20.25 13.2609 20.25C15.6293 20.25 17.5028 19.5792 17.5028 18.8377V16.7194C17.5028 15.9779 15.6293 15.3071 13.2609 15.3071Z" stroke="black" stroke-width="1.5" stroke-miterlimit="10" stroke-linecap="round" stroke-linejoin="round"/>
<path id="Vector_2" d="M4.5 6.07457C4.5 7.49446 5.34682 8.48394 6.72236 8.48394C7.45444 8.48394 8.19363 8.34337 8.86707 7.50157M4.5 6.07457C4.5 4.65467 5.34682 3.68115 6.72236 3.68115C8.0979 3.68115 8.97332 4.65467 8.97332 6.07457H4.5Z" stroke="black" stroke-width="1.5" stroke-miterlimit="10" stroke-linecap="round" stroke-linejoin="round"/>
</g>
</svg>
