<svg width="16" height="16" viewBox="0 0 16 16" fill="none" xmlns="http://www.w3.org/2000/svg">
<g id="Sport=golf, weight=light, Size=16">
<path id="golf" d="M6.5004 11.6578L8.13069 14L9.53794 11.6447M10.8417 5.3049C10.5526 5.0956 10.1452 5.12176 9.89546 5.3703C9.6326 5.63192 9.60632 6.03743 9.82974 6.31213M8.90987 7.21475C8.62073 7.00545 8.21331 7.03161 7.96359 7.28015C7.70074 7.54177 7.67446 7.94728 7.89788 8.22198M6.99104 9.1376C6.7019 8.9283 6.29448 8.95446 6.04477 9.203C5.78191 9.46462 5.75563 9.87013 5.97905 10.1448M6.52183 4.83784C6.23269 4.62855 5.82526 4.65471 5.57555 4.90325C5.3127 5.16486 5.28641 5.57037 5.50984 5.84507M6.32216 7.16023C6.03303 6.95093 5.6256 6.9771 5.37589 7.22563C5.11304 7.48725 5.08675 7.89276 5.31018 8.16746M7.61011 5.87838C7.39983 5.5906 7.42611 5.18509 7.67583 4.93656C7.93868 4.67494 8.3461 4.64878 8.6221 4.87115M8.094 2.75097C10.634 2.80242 12.6511 4.89351 12.5994 7.42154C12.5477 9.94957 10.4468 11.9572 7.90678 11.9058C5.36681 11.8543 3.34966 9.76323 3.40136 7.2352C3.45306 4.70717 5.55402 2.69951 8.094 2.75097Z" stroke="black" stroke-miterlimit="10" stroke-linecap="round" stroke-linejoin="round"/>
</g>
</svg>
