<svg width="32" height="32" viewBox="0 0 32 32" fill="none" xmlns="http://www.w3.org/2000/svg">
<g id="Sport=sailing, Size=32px, weight=light">
<path id="Sailing" d="M9.46596 26.7188C8.18021 25.666 6.75987 23.889 6.75987 23.889C8.64421 24.2773 23.6552 24.3543 23.6552 24.3543L24.3459 26.1661M19.6775 24.2458L18.8593 22.4969L14.067 22.4024L13.0469 24.0954M14.8533 6.35775L21.9373 20.2653M14.8533 20.1953H22.6953M14.6692 20.9229C10.3479 20.0694 6.51547 21.9792 6.51547 21.9792C3.50123 11.0414 14.6904 4.65779 14.6904 4.65779M14.4 20.8949C14.4 20.8949 8.74693 17.0822 13.943 5.13M14.7896 22.3815V3.5H16.5464V4.43043H18.406M26 27.303C22.2844 29.9963 19.5925 27.303 19.5925 27.303H19.5536C15.838 29.9963 13.1461 27.303 13.1461 27.303H13.1071C9.39158 29.9963 6.69966 27.303 6.69966 27.303" stroke="black" stroke-linecap="round" stroke-linejoin="round"/>
</g>
</svg>
