<svg width="16" height="16" viewBox="0 0 16 16" fill="none" xmlns="http://www.w3.org/2000/svg">
<g id="Sport=bombay, Size=16px, weight=regular">
<path id="bombay" d="M4.88665 11.0625C5.54439 11.9318 6.63277 12.5 7.86411 12.5C9.87216 12.5 11.5 10.989 11.5 9.125C11.5 7.73036 10.5887 6.5333 9.28869 6.0189M9.27807 6.01472C9.28161 6.01611 9.28515 6.0175 9.28869 6.0189M9.28869 6.0189C9.41118 5.78682 9.47995 5.52586 9.47995 5.25C9.47995 4.2835 8.63588 3.5 7.59467 3.5C7.32047 3.5 7.05994 3.55434 6.8249 3.65205M9.28869 6.0189C9.28516 6.0256 9.28158 6.03228 9.27795 6.03893C8.9672 6.60911 8.33011 7 7.59467 7M4.99011 11.189C4.68315 10.8274 4.5 10.371 4.5 9.87488C4.5 8.70127 5.52494 7.74988 6.78926 7.74988C7.71623 7.74988 8.51452 8.26129 8.87453 8.99674M8.87453 8.99674L8.87552 8.99875M8.87453 8.99674C8.8368 8.90152 8.78596 8.81219 8.72405 8.73061M8.87453 8.99674C8.92388 9.12124 8.95081 9.2558 8.95081 9.3962C8.95081 10.0352 8.39276 10.5532 7.70436 10.5532C7.01596 10.5532 6.4579 10.0352 6.4579 9.3962M6.55381 5.1524C6.3669 4.97207 6.25692 4.72369 6.26989 4.45396C6.28709 4.09638 6.51593 3.79403 6.83914 3.64647" stroke="black" stroke-width="1.5" stroke-linecap="round" stroke-linejoin="round"/>
</g>
</svg>
