<svg width="32" height="32" viewBox="0 0 32 32" fill="none" xmlns="http://www.w3.org/2000/svg">
<g id="Sport=special-sports, Size=32px, weight=light">
<path id="Vector" d="M8.3 19.8684L6.1 22.0789M10.0954 21.9011L5.69543 26.3222M11.9793 23.7051L10.8793 24.8104M21.5 6.60526L25.9 11.0263M11.6 12.1316C9.94619 12.3283 7.33591 13.1672 5 16.5526C5 16.5526 6.37564 15.9364 8.78776 16.3744M20.3366 19.8684C20.0963 21.5301 19.0518 24.1529 14.8366 26.5C14.8366 26.5 15.5992 25.114 15.0585 22.6941M19.3423 10.5239C19.7774 10.5239 20.2027 10.6536 20.5645 10.8965C20.9263 11.1394 21.2083 11.4846 21.3748 11.8885C21.5413 12.2924 21.5849 12.7369 21.5 13.1657C21.4151 13.5945 21.2056 13.9884 20.8979 14.2975C20.5902 14.6067 20.1982 14.8172 19.7715 14.9025C19.3447 14.9878 18.9024 14.944 18.5004 14.7767C18.0984 14.6094 17.7548 14.3261 17.513 13.9626C17.2713 13.599 17.1423 13.1717 17.1423 12.7345C17.1423 12.1482 17.3741 11.5859 17.7866 11.1714C18.1992 10.7568 18.7588 10.5239 19.3423 10.5239ZM26.8288 5.65731C25.5451 5.35703 17.5243 4.15202 9.4 18.4717L13.2303 22.0789C28.4851 14.3926 27.1435 6.82722 26.8288 5.65731Z" stroke="black" stroke-linecap="round" stroke-linejoin="round"/>
</g>
</svg>
