<svg width="24" height="24" viewBox="0 0 24 24" fill="none" xmlns="http://www.w3.org/2000/svg">
<g id="Sport=swimming, weight=light, Size=24">
<path id="Swimming" d="M15.3913 11.9351L11.6702 6.35136C11.4421 6.03597 11.0292 5.91642 10.6681 6.06055L6.42893 7.7562C5.994 7.93001 5.78289 8.42344 5.9567 8.85838C6.13135 9.29331 6.62478 9.50442 7.05887 9.33062L10.4748 7.96392L11.6261 9.9207L8.43998 11.9343M21.75 14.1564C21.3541 14.5151 20.814 14.9364 19.7992 14.9364C18.7843 14.9364 18.2442 14.5151 17.85 14.1581V14.1556C17.4558 13.7987 16.9157 13.3773 15.9008 13.3773C14.886 13.3773 14.3459 13.7987 13.95 14.1573C13.5541 14.5159 13.014 14.9373 11.9992 14.9373C10.9843 14.9373 10.4442 14.5159 10.05 14.159V14.1564C9.65576 13.7995 9.1157 13.3781 8.10085 13.3781C7.086 13.3781 6.54593 13.7995 6.15 14.1581C5.75407 14.5168 5.214 14.9381 4.19915 14.9381C3.1843 14.9381 2.64424 14.5168 2.25 14.1598M21.75 16.4964C21.3541 16.8551 20.814 17.2764 19.7992 17.2764C18.7843 17.2764 18.2442 16.8551 17.85 16.4981V16.4956C17.4558 16.1387 16.9157 15.7173 15.9008 15.7173C14.886 15.7173 14.3459 16.1387 13.95 16.4973C13.5541 16.8559 13.014 17.2773 11.9992 17.2773C10.9843 17.2773 10.4442 16.8559 10.05 16.499V16.4964C9.65576 16.1395 9.1157 15.7181 8.10085 15.7181C7.086 15.7181 6.54593 16.1395 6.15 16.4981C5.75407 16.8568 5.214 17.2781 4.19915 17.2781C3.1843 17.2781 2.64424 16.8568 2.25 16.4998M19.4609 8.54383C19.4609 9.71444 18.5119 10.6634 17.3413 10.6634C16.1707 10.6634 15.2217 9.71444 15.2217 8.54383C15.2217 7.37323 16.1707 6.42427 17.3413 6.42427C18.5119 6.42427 19.4609 7.37323 19.4609 8.54383Z" stroke="black" stroke-miterlimit="10" stroke-linecap="round" stroke-linejoin="round"/>
</g>
</svg>
