<svg width="24" height="24" viewBox="0 0 24 24" fill="none" xmlns="http://www.w3.org/2000/svg">
<g id="Sport=audl, Size=24px, weight=regular">
<path id="audl" d="M8.38645 13.9497C10.756 16.0426 13.529 17.4323 15.8051 17.6684M11.6835 10.2101L11.1142 11.2049C11.0816 11.2623 11.0774 11.3302 11.1027 11.3908C11.1279 11.4514 11.1804 11.4964 11.2445 11.5141L12.9502 11.9749L14.3745 13.6405C14.4155 13.6896 14.4764 13.7157 14.5384 13.7157C14.5625 13.7157 14.5877 13.7115 14.6119 13.7031C14.6959 13.6728 14.7537 13.5934 14.7537 13.5046L14.7642 12.1891L16.0939 12.1536C16.1832 12.1515 16.263 12.094 16.2924 12.0094C16.3208 11.9258 16.2945 11.8328 16.2242 11.7764L14.5121 10.4003L14.0132 8.72223C13.9943 8.65954 13.947 8.60834 13.8861 8.58431C13.8241 8.56027 13.7548 8.5655 13.6981 8.59893L12.7034 9.18093L10.9535 8.20606C10.8684 8.15904 10.7623 8.17367 10.6941 8.24263C10.6258 8.31159 10.6132 8.41608 10.6626 8.49967L11.6824 10.2101H11.6835ZM19.83 13.0219C18.8805 11.1777 17.1863 9.32617 15.0604 7.80796C14.9984 7.76408 14.9364 7.72019 14.8734 7.67736C14.8324 7.6481 14.7925 7.6178 14.7516 7.58854C13.4008 6.62517 11.9597 5.90211 10.6111 5.48834C9.43995 5.09025 8.30662 4.875 7.29408 4.875C5.76688 4.87396 4.61044 5.35146 3.95082 6.25424C3.11369 7.40046 3.19142 9.07853 4.17034 10.9771C5.11986 12.8213 6.81407 14.6728 8.93998 16.191C11.5144 18.0279 14.4176 19.125 16.7052 19.125C18.2335 19.125 19.3899 18.6475 20.0495 17.7447C20.8867 16.5985 20.8079 14.9204 19.83 13.0219ZM18.5885 11.6918C17.8974 10.3501 16.6653 9.0033 15.1181 7.89887C15.073 7.86648 15.0278 7.83513 14.9827 7.80379C14.9532 7.78184 14.9238 7.7599 14.8944 7.739C13.9123 7.03789 12.863 6.51232 11.8831 6.2114C11.0312 5.92092 10.2067 5.76523 9.46936 5.76523C8.35809 5.76523 7.51676 6.11213 7.03675 6.76936C6.42755 7.60317 6.48426 8.82358 7.1964 10.206C7.88753 11.5476 9.11959 12.8944 10.6668 13.9988C12.5395 15.3352 14.6518 16.1335 16.3166 16.1335C17.4279 16.1335 18.2692 15.7866 18.7492 15.1294C19.3584 14.2956 19.3017 13.0752 18.5896 11.6928L18.5885 11.6918Z" stroke="black" stroke-width="1.5" stroke-miterlimit="10" stroke-linecap="round" stroke-linejoin="round"/>
</g>
</svg>
