<svg width="16" height="16" viewBox="0 0 16 16" fill="none" xmlns="http://www.w3.org/2000/svg">
<g id="Sport=handball, Size=16px, weight=regular">
<path id="handball" d="M5.18824 5.57198L5.86055 6.22747C5.94909 6.32086 6.0603 6.37818 6.19335 6.39101L7.47945 6.5151M9.1042 5.9964L11.3686 3.90727C11.5534 3.73709 11.8525 3.74267 12.0374 3.92023C12.2232 4.10619 12.2174 4.39512 12.0249 4.57453L10.0645 6.37189C9.91991 6.50434 9.86995 6.70416 9.92353 6.88569L10.649 9.09859L12.4256 12.3922C12.5851 12.6655 12.4801 13.0147 12.1876 13.1612L12.1458 13.1821C11.8707 13.3269 11.5186 13.2331 11.3686 12.9674L9.89947 10.3656C9.77289 10.157 9.47985 10.1254 9.31254 10.294L7.99476 11.5376C7.85883 11.6692 7.67343 11.7462 7.47864 11.7307L5.40809 11.5792C5.08025 11.5509 4.83205 11.2691 4.87005 10.9516C4.90107 10.6518 5.1859 10.4297 5.49548 10.4513L7.08946 10.5801C7.19556 10.587 7.30608 10.5511 7.37754 10.4765L7.99469 9.94388C8.16985 9.76612 8.23993 9.50502 8.16298 9.26634L7.68303 7.82748C7.6199 7.63838 7.44795 7.502 7.24361 7.47895L5.85926 7.33873C5.73491 7.32507 5.62455 7.27615 5.54557 7.19034L4.34804 6.0944C4.21088 5.95473 4.1904 5.7531 4.26117 5.58524M4.52807 2.7515C5.12683 2.72077 5.638 3.16462 5.66982 3.74287C5.70165 4.32112 5.24206 4.8148 4.64331 4.84553C4.04456 4.87626 3.53338 4.43241 3.50156 3.85416C3.46974 3.27591 3.92932 2.78224 4.52807 2.7515ZM8.90082 4.53869C8.9647 5.16738 8.48877 5.72704 7.83779 5.78874C7.18682 5.85043 6.60731 5.39079 6.54343 4.76211C6.47954 4.13342 6.95548 3.57376 7.60645 3.51206C8.25743 3.45037 8.83694 3.91 8.90082 4.53869Z" stroke="black" stroke-width="1.5" stroke-miterlimit="10" stroke-linecap="round" stroke-linejoin="round"/>
</g>
</svg>
