<svg width="24" height="24" viewBox="0 0 24 24" fill="none" xmlns="http://www.w3.org/2000/svg">
<g id="Sport=lacrosse, weight=regular, Size=24">
<path id="Lacrosse" d="M15.7265 17.8599L14.4459 18.9785M4.39888 10.5391C4.82004 11.164 5.41308 11.6267 6.11358 11.8772C7.49021 12.3696 8.65336 13.1034 9.56482 14.0645C10.1061 14.6354 10.9975 14.6907 11.6192 14.2087C12.2476 13.7214 12.4064 12.8352 11.9788 12.1647C11.2863 11.0784 10.8639 9.76535 10.7652 8.35184C10.7173 7.66503 10.4678 7.01311 10.0436 6.46604M16.5 21.375L14.25 18.75L12.75 16.875C11.25 17.625 10.311 16.9131 9.61246 16.036C9.55919 15.9695 9.5099 15.9016 9.46354 15.8312C8.57939 14.4856 7.23289 13.5301 5.7161 12.9887C4.81555 12.6664 4.00382 12.0646 3.41992 11.1982C2.12915 9.28516 2.45541 6.66907 4.17541 5.13129C6.21358 3.30851 9.32966 3.62048 10.9754 5.74286C11.5628 6.50041 11.8804 7.38092 11.942 8.26905C12.0509 9.81759 12.6033 11.3241 13.6883 12.4342C13.7603 12.5078 13.8298 12.5867 13.8949 12.6707C14.602 13.5826 14.6384 14.8023 14.0794 15.7355L17.8421 20.25M6.81192 5.91936L6.58774 7.69172M6.58774 7.69172L6.35441 9.53544M6.58774 7.69172L8.43136 7.92491M6.58774 7.69172L4.81398 7.46736M6.35441 9.53544L6.20518 10.7162L6.20569 10.7169M6.35441 9.53544L8.19878 9.76933M6.35441 9.53544L4.82039 9.34212M7.96555 11.6132L8.19878 9.76933M8.19878 9.76933L8.43136 7.92491M8.19878 9.76933L10.0372 10.0495M8.43136 7.92491L8.62605 6.39238M8.43136 7.92491L9.6121 8.07438M18.4606 6.40978C19.811 6.58058 20.7672 7.8137 20.5964 9.16403C20.4256 10.5144 19.1924 11.4706 17.8421 11.2998C16.4918 11.129 15.5356 9.89583 15.7064 8.5455C15.8772 7.19517 17.1103 6.23898 18.4606 6.40978Z" stroke="black" stroke-width="1.5" stroke-linecap="round" stroke-linejoin="round"/>
</g>
</svg>
