<svg width="24" height="24" viewBox="0 0 24 24" fill="none" xmlns="http://www.w3.org/2000/svg">
<g id="Sport=speedway, weight=regular, Size=24">
<path id="Speedway" d="M5.10282 15.1577C5.0543 15.1811 4.99964 15.1937 4.94253 15.1937C4.77672 15.1937 4.63547 15.0846 4.58327 14.9327M6.88008 15.6204C6.57302 16.3415 5.87169 16.8452 5.05614 16.8452C3.95687 16.8452 3.06639 15.9306 3.06639 14.8029C3.06639 13.6752 3.95748 12.7605 5.05614 12.7605C5.81949 12.7605 6.48274 13.2018 6.81683 13.8498M7.93391 15.8467C7.51262 17.0999 6.35316 18 4.9892 18C3.26905 18 1.875 16.5691 1.875 14.8035C1.875 13.0379 3.26905 11.607 4.9892 11.607C6.44713 11.607 7.67107 12.6351 8.01006 14.0237M19.0108 14.8029L16.8558 9.73357M13.7318 13.1463L14.5394 13.3392L13.9597 14.9812C13.8473 15.3002 13.5464 15.5076 13.216 15.4931L9.97095 15.3424L8.93124 15.1174M7.68089 13.1961C7.68089 13.1961 6.95009 11.399 5.77344 10.5209C4.83383 9.8193 3.53005 9.78337 3.04306 9.79724C2.92515 9.80039 2.82382 9.71277 2.81031 9.593C2.77469 9.27215 2.80539 8.68845 3.45513 8.54473C4.36464 8.34365 6.18305 8.36193 6.86104 8.54473C7.53842 8.72753 7.98304 10.2284 9.76583 9.51484C11.5486 8.80128 10.0815 7.99002 12.9709 7.44666C14.2366 7.20901 14.968 7.62946 15.3605 8.48989C15.7529 9.35032 16.0913 9.7342 16.0913 9.7342C16.0913 9.7342 15.5048 10.4742 15.1904 11.1758C14.7715 12.1094 14.7715 12.4258 14.7715 12.4258M10.6195 8.99795C10.6195 8.99795 11.139 9.36797 11.3171 9.73357C11.4952 10.0998 10.6373 11.0416 8.92694 10.9199C7.78161 10.8379 7.70423 10.6079 6.99124 10.1754C5.7544 9.42596 6.08295 8.4319 6.08295 8.4319M16.3056 9.50034L18.646 9.58292C18.646 9.58292 19.2614 8.00452 17.9103 6.97515C16.5598 5.94579 16.3056 6.52193 16.3056 6.52193C16.3056 6.52193 15.5349 7.48196 14.349 7.49645M14.4737 6C14.7678 6.04097 14.8612 6.15885 15.0221 6.36056M15.0221 6.36056C15.1824 6.5629 14.8882 7.09807 14.8882 7.09807M15.0221 6.36056L15.6104 6.98839M12.7087 12.4416C12.1314 11.457 10.2264 12.1554 9.98876 13.365M19.3625 14.6536C19.4429 14.853 19.3507 15.0816 19.1564 15.1642C18.9621 15.2468 18.7394 15.1521 18.6589 14.9527C18.5784 14.7533 18.6707 14.5247 18.865 14.4421C19.0592 14.3595 19.282 14.4542 19.3625 14.6536ZM21.0012 14.8029C21.0012 15.9312 20.1101 16.8452 19.0114 16.8452C17.9128 16.8452 17.0217 15.9306 17.0217 14.8029C17.0217 13.6752 17.9128 12.7605 19.0114 12.7605C20.1101 12.7605 21.0012 13.6752 21.0012 14.8029ZM22.125 14.8029C22.125 16.5685 20.7309 17.9994 19.0108 17.9994C17.2906 17.9994 15.8966 16.5685 15.8966 14.8029C15.8966 13.0372 17.2906 11.6063 19.0108 11.6063C20.7309 11.6063 22.125 13.0372 22.125 14.8029ZM8.8164 15.1086C8.93677 14.5501 8.37669 14.2545 8.37669 14.2545L4.84243 13.4073L4.46536 14.8205L8.09174 15.6822C8.09174 15.6822 8.69603 15.6671 8.8164 15.1086Z" stroke="black" stroke-width="1.5" stroke-linecap="round" stroke-linejoin="round"/>
</g>
</svg>
