<svg width="16" height="16" viewBox="0 0 16 16" fill="none" xmlns="http://www.w3.org/2000/svg">
<g id="Sport=audl, Size=16px, weight=regular">
<path id="audl" d="M5.59097 9.29982C7.17069 10.6951 9.01931 11.6215 10.5367 11.779M7.789 6.80675L7.40947 7.4699C7.38777 7.50821 7.38496 7.55349 7.40177 7.59389C7.41858 7.63429 7.45359 7.66425 7.4963 7.67609L8.63348 7.98328L9.583 9.09364C9.61031 9.12637 9.65092 9.14379 9.69223 9.14379C9.70834 9.14379 9.72515 9.141 9.74125 9.13543C9.79727 9.11523 9.83578 9.06229 9.83578 9.00308L9.84278 8.12608L10.7293 8.1024C10.7888 8.101 10.842 8.06269 10.8616 8.00627C10.8805 7.95054 10.863 7.88855 10.8161 7.85093L9.67473 6.93353L9.34212 5.81482C9.32951 5.77302 9.298 5.73889 9.25739 5.72287C9.21608 5.70685 9.16986 5.71033 9.13205 5.73262L8.46893 6.12062L7.30234 5.47071C7.24562 5.43936 7.17489 5.44911 7.12938 5.49509C7.08386 5.54106 7.07546 5.61072 7.10837 5.66645L7.7883 6.80675H7.789ZM13.22 8.68126C12.587 7.45179 11.4575 6.21744 10.0403 5.20531C9.99894 5.17605 9.95762 5.1468 9.91561 5.11824C9.8883 5.09873 9.86169 5.07853 9.83438 5.05903C8.93388 4.41678 7.97316 3.93474 7.07406 3.6589C6.2933 3.3935 5.53775 3.25 4.86272 3.25C3.84458 3.2493 3.07363 3.56764 2.63388 4.16949C2.07579 4.93364 2.12761 6.05235 2.78023 7.31805C3.41324 8.54751 4.54272 9.78186 5.95999 10.794C7.67626 12.0186 9.61171 12.75 11.1368 12.75C12.1557 12.75 12.9266 12.4317 13.3664 11.8298C13.9244 11.0657 13.8719 9.94695 13.22 8.68126ZM12.3923 7.79451C11.9316 6.9001 11.1102 6.0022 10.0788 5.26591C10.0487 5.24432 10.0185 5.22342 9.98843 5.20252C9.96883 5.18789 9.94922 5.17327 9.92961 5.15933C9.2749 4.69193 8.57536 4.34155 7.92204 4.14093C7.35415 3.94728 6.80447 3.84349 6.31291 3.84349C5.57206 3.84349 5.01117 4.07476 4.69117 4.51291C4.28503 5.06878 4.32284 5.88239 4.7976 6.80397C5.25836 7.69838 6.07973 8.59628 7.11117 9.33256C8.35969 10.2235 9.76786 10.7557 10.8777 10.7557C11.6186 10.7557 12.1795 10.5244 12.4995 10.0863C12.9056 9.53039 12.8678 8.71678 12.393 7.79521L12.3923 7.79451Z" stroke="black" stroke-width="1.5" stroke-miterlimit="10" stroke-linecap="round" stroke-linejoin="round"/>
</g>
</svg>
