<svg width="32" height="32" viewBox="0 0 32 32" fill="none" xmlns="http://www.w3.org/2000/svg">
<g id="Sport=afl, stroke width=1px">
<g id="afl">
<path id="Vector 46" d="M10.7231 18.1885L12.4068 14.9039C12.4469 14.8257 12.5274 14.7764 12.6154 14.7764H13.1294C13.2326 14.7764 13.3236 14.8439 13.3536 14.9426L14.2912 18.0224C14.3213 18.1211 14.4123 18.1885 14.5155 18.1885H15.5616C15.6911 18.1885 15.796 18.0836 15.796 17.9541V15.0108C15.796 14.8814 15.9009 14.7764 16.0304 14.7764H19.3212" stroke="black" stroke-linecap="round" stroke-linejoin="round"/>
<path id="Vector 47" d="M11.373 17.3319H12.553H14.0444" stroke="black" stroke-linecap="round" stroke-linejoin="round"/>
<path id="Vector 48" d="M15.8374 16.7052H17.6563" stroke="black" stroke-linecap="round" stroke-linejoin="round"/>
<path id="Vector 49" d="M19.3555 14.7952L19.625 17.9728C19.6353 18.0942 19.7368 18.1874 19.8586 18.1874H21.888" stroke="black" stroke-linecap="round" stroke-linejoin="round"/>
<path id="american-football" d="M7.92293 11.357C7.21432 14.4154 7.21324 17.5815 7.91977 20.6394M24.065 11.3512C24.7716 14.4092 24.7705 17.5753 24.0619 20.6337M4.05931 16.9229C4.94632 18.2658 7.04422 20.7716 11.0973 22.1374C14.2751 23.2037 17.729 23.2025 20.9075 22.1341C24.9495 20.7775 27.0491 18.2703 27.949 16.9148C28.321 16.351 28.3213 15.6314 27.9497 15.0679C27.0387 13.725 24.9408 11.2192 20.8997 9.86539C17.7219 8.79911 14.268 8.80028 11.0895 9.86873C7.04747 11.2253 4.94786 13.7325 4.04794 15.088C3.68797 15.6398 3.68772 16.3594 4.05931 16.9229Z" stroke="black" stroke-miterlimit="10" stroke-linecap="round" stroke-linejoin="round"/>
<path id="american-football_2" d="M20.3076 11.769C17.5675 10.8496 14.5893 10.8506 11.8486 11.7719" stroke="black" stroke-miterlimit="10" stroke-linecap="round" stroke-linejoin="round"/>
</g>
</g>
</svg>
