<svg width="16" height="16" viewBox="0 0 16 16" fill="none" xmlns="http://www.w3.org/2000/svg">
<g id="Sport=kabaddi, Size=16px, weight=regular">
<path id="Kabaddi" d="M1.54628 5.21951C1.54628 5.21951 5.76467 5.43317 5.97001 5.43317C6.809 5.43317 7.94426 5.60293 8 6.39024M8 6.39024V9.31707M8 6.39024C8.05574 5.60293 9.191 5.43317 10.03 5.43317C10.2353 5.43317 14.4537 5.21951 14.4537 5.21951M8 9.31707C8 9.90244 6.9498 9.98732 6.53031 9.70341C6.11082 9.41951 5.16917 8.84878 5.03129 8.70829C4.94035 8.45073 4.91102 8.00293 4.85528 7.56976C5.2601 7.78927 5.86441 7.69561 6.11376 7.69561C6.19003 7.82146 6.36604 7.95902 6.45111 8.04683M8 9.31707C8 9.90244 9.0502 9.98732 9.46969 9.70341C9.88918 9.41951 10.8308 8.84878 10.9687 8.70829C11.0596 8.45073 11.089 8.00293 11.1447 7.56976C10.7399 7.78927 10.1356 7.69561 9.88625 7.69561C9.80997 7.82146 9.63396 7.95902 9.54889 8.04683M6.45404 7.28L6.11082 7.69268M6.64765 9.77366C6.809 10.1307 6.62125 11.4185 5.55052 10.9854C4.85235 10.7015 4.71154 10.558 3.73468 10.2741C3.04824 10.0751 2.87516 9.80878 2.45567 9.38439C2.03618 8.95707 1.7487 8.44195 1.25 8.44195M9.54596 7.28L9.88918 7.69268M9.35235 9.77366C9.191 10.1307 9.37875 11.4185 10.4495 10.9854C11.1477 10.7015 11.2885 10.558 12.2653 10.2741C12.9518 10.0751 13.1248 9.80878 13.5443 9.38439C13.9638 8.95707 14.2513 8.44195 14.75 8.44195M5.65319 2.58537L6.53325 3.7561M10.3468 2.58537L9.46675 3.7561M8 3.7561V2M5.65319 13.4146L6.53325 12.2439M10.3468 13.4146L9.46675 12.2439M8 12.2439V14" stroke="black" stroke-width="1.5" stroke-miterlimit="10" stroke-linecap="round" stroke-linejoin="round"/>
</g>
</svg>
