<svg width="16" height="16" viewBox="0 0 16 16" fill="none" xmlns="http://www.w3.org/2000/svg">
<g id="Sport=rowing, weight=light, Size=16">
<path id="Rowing" d="M8.1855 12.2006C8.72055 12.1417 9.17792 11.8331 9.43702 11.3961C9.726 11.8829 10.2605 12.2108 10.8743 12.2108C11.4881 12.2108 12.0232 11.8829 12.3116 11.3961C12.6006 11.8829 13.1351 12.2108 13.7489 12.2108M2.25 12.2108C2.86381 12.2108 3.39886 11.8829 3.6873 11.3961C3.97628 11.8829 4.51078 12.2108 5.12459 12.2108C5.31688 12.2108 5.50103 12.1787 5.67268 12.1198M12.3909 8.8858L9.77272 5.54533C9.24256 4.86922 8.32021 4.62423 7.51683 4.94624L3.29511 6.63867C3.04035 6.74191 2.91487 7.02969 3.02297 7.28697C3.12889 7.53731 3.42874 7.64803 3.68512 7.54961L7.25827 6.17705L8.67058 7.87804H8.21972C7.43969 7.87804 6.69117 8.18347 6.13983 8.7264L5.9785 8.88526M3.8307 7.53143L6.29138 11.0024M6.29138 11.0024L6.07356 11.8438L6.48095 12.4172C6.69226 12.7152 7.10889 12.7879 7.41145 12.5793C7.71401 12.3712 7.78788 11.961 7.57604 11.663L7.16864 11.0896L6.29138 11.0024ZM4.35543 9.36721H2.25M13.75 9.36721H5.17891M8.07523 3.17197C8.07523 3.81923 7.54239 4.34394 6.88509 4.34394C6.22779 4.34394 5.69495 3.81923 5.69495 3.17197C5.69495 2.52471 6.22779 2 6.88509 2C7.54239 2 8.07523 2.52471 8.07523 3.17197Z" stroke="black" stroke-miterlimit="10" stroke-linecap="round" stroke-linejoin="round"/>
</g>
</svg>
