<svg width="16" height="16" viewBox="0 0 16 16" fill="none" xmlns="http://www.w3.org/2000/svg">
<g id="Sport=lacrosse, weight=light, Size=16">
<path id="Lacrosse" d="M10.4844 11.9066L9.63059 12.6524M2.93259 7.02604C3.21336 7.44266 3.60872 7.7511 4.07572 7.91815C4.99347 8.24638 5.76891 8.73558 6.37655 9.37631C6.73737 9.75692 7.33167 9.79383 7.74612 9.47245C8.16506 9.14759 8.27092 8.55678 7.98589 8.10977C7.52418 7.38563 7.24261 6.51024 7.17681 5.56789C7.14485 5.11002 6.97854 4.67541 6.69573 4.3107M11 14.25L9.5 12.5L8.5 11.25C7.5 11.75 6.874 11.2754 6.40831 10.6907C6.37279 10.6463 6.33993 10.6011 6.30903 10.5541C5.7196 9.65709 4.82193 9.02008 3.81074 8.65915C3.21037 8.44426 2.66921 8.04306 2.27995 7.46544C1.41943 6.1901 1.63694 4.44604 2.7836 3.42086C4.14239 2.20567 6.21977 2.41366 7.31694 3.82857C7.70855 4.33361 7.92029 4.92061 7.96132 5.5127C8.03391 6.54506 8.40223 7.54941 9.12553 8.28949C9.17355 8.33852 9.21985 8.39114 9.26327 8.44712C9.73468 9.05507 9.75894 9.86822 9.38625 10.4903L11.8947 13.5M4.54128 3.94624L4.39183 5.12781M4.39183 5.12781L4.23627 6.35696M4.39183 5.12781L5.62091 5.28328M4.39183 5.12781L3.20932 4.97824M4.23627 6.35696L4.13678 7.14414L4.13713 7.14458M4.23627 6.35696L5.46585 6.51289M4.23627 6.35696L3.21359 6.22808M5.31037 7.74213L5.46585 6.51289M5.46585 6.51289L5.62091 5.28328M5.46585 6.51289L6.69145 6.69967M5.62091 5.28328L5.7507 4.26158M5.62091 5.28328L6.40807 5.38292M12.3071 4.27319C13.2073 4.38705 13.8448 5.20913 13.7309 6.10935C13.617 7.00957 12.795 7.64704 11.8947 7.53317C10.9945 7.4193 10.3571 6.59722 10.4709 5.697C10.5848 4.79678 11.4069 4.15932 12.3071 4.27319Z" stroke="black" stroke-linecap="round" stroke-linejoin="round"/>
</g>
</svg>
