<svg width="16" height="16" viewBox="0 0 16 16" fill="none" xmlns="http://www.w3.org/2000/svg">
<g id="Sport=mma, Size=16px, weight=light">
<path id="mma" d="M6.31985 6.7368L3.1133 5.05469C2.78929 4.88963 2.65774 4.48846 2.81863 4.15606C2.97951 3.82366 3.37055 3.68871 3.69456 3.85376L7.15195 5.66365C7.15195 5.66365 7.69155 8.3712 6.06959 10.6994M5.79654 4.31828C5.7125 4.11507 5.71185 3.87414 5.81564 3.65969C5.98691 3.30585 6.27372 3.22472 6.49299 3.25623C6.51908 3.25615 6.52953 3.26148 6.55044 3.27212C6.77497 3.31967 6.97362 3.4476 7.12024 3.62922C7.38723 3.93899 7.95234 4.4942 8.89783 4.82881C9.4463 5.01464 9.69757 5.30304 9.99123 5.82689C10.1696 6.15833 10.3741 6.54323 10.537 6.93361C10.537 6.93361 10.8264 7.81618 11.5162 8.16758L13.25 9.0279M5.38306 7.75672L3.21823 6.65392C2.89422 6.48887 2.76268 6.0877 2.92356 5.7553L3.19513 5.1942M4.57717 8.82978L3.39213 8.22609C3.06813 8.06104 2.93658 7.65987 3.09747 7.32747L3.37671 6.75053M11.7179 12.75L9.8666 11.8183C8.8109 11.2538 8.56034 11.2331 8.56034 11.2331C8.56034 11.2331 8.2731 11.1536 7.87629 11.0851C6.6494 10.9012 5.68323 10.6362 4.55977 10.104L3.73961 9.68622C3.4156 9.52117 3.17726 9.0656 3.33814 8.7332L3.54383 8.30823M12.7774 8.81738L11.0388 12.4094M8.2319 5.81484C8.36594 5.48408 8.61114 5.02562 9.37284 5.11965" stroke="black" stroke-miterlimit="10" stroke-linecap="round" stroke-linejoin="round"/>
</g>
</svg>
