<svg width="16" height="16" viewBox="0 0 16 16" fill="none" xmlns="http://www.w3.org/2000/svg">
<g id="Sport=table-tennis, Size=16px, weight=light">
<path id="table-tennis" d="M7.86488 9.06793C7.86488 9.06793 7.881 9.07609 7.90518 9.10054C8.40487 9.50815 8.69501 10.1359 8.69501 10.788V13.0299C8.69501 13.1522 8.79173 13.25 8.91262 13.25H9.76693C9.88782 13.25 9.98454 13.1522 9.98454 13.0299V10.7799C9.98454 10.1277 10.2747 9.50815 10.7744 9.09239C10.7985 9.07609 10.8147 9.05978 10.8147 9.05978M7.86488 9.06793C7.86488 9.06793 6.94604 8.85598 6.56724 7.72283C6.48665 7.49456 6.45441 7.25815 6.43829 7.02174C6.38993 6.01902 6.43829 2.75 9.33972 2.75C12.2411 2.75 12.2895 6.01902 12.2411 7.02174C12.225 7.25815 12.1847 7.49456 12.1122 7.72283C11.7334 8.85598 10.8146 9.06793 10.8146 9.06793L7.86488 9.06793ZM5.3547 10.3782C6.05593 10.5457 6.49016 11.2564 6.32458 11.9657C6.159 12.675 5.45631 13.1142 4.75509 12.9467C4.05386 12.7793 3.61963 12.0685 3.78521 11.3592C3.95079 10.6499 4.65348 10.2107 5.3547 10.3782Z" stroke="black" stroke-miterlimit="10" stroke-linecap="round" stroke-linejoin="round"/>
</g>
</svg>
