<svg width="16" height="16" viewBox="0 0 16 16" fill="none" xmlns="http://www.w3.org/2000/svg">
<g id="Sport=ski-jumping, Size=16px, weight=regular">
<g id="Ski Jumping">
<path id="Vector" d="M12.5397 4.15108C11.9415 4.39821 11.2728 4.16123 11.0463 3.62175C10.8198 3.08228 11.1212 2.44461 11.7195 2.19748C12.3177 1.95034 12.9864 2.18733 13.2129 2.7268C13.4394 3.26627 13.138 3.90395 12.5397 4.15108Z" stroke="black" stroke-width="1.5" stroke-linecap="round" stroke-linejoin="round"/>
<path id="Vector_2" d="M10.6374 4.10678C10.1882 3.72236 9.53268 3.68719 9.04252 4.02106L5.82719 6.21001C5.55647 6.39423 5.49414 6.76427 5.68961 7.02478C5.87789 7.27548 6.2342 7.33025 6.49103 7.14812L9.10848 5.29131L8.74817 5.60196C6.75833 7.31752 5.19812 9.46755 4.19154 11.8816L3.57718 13.355L5.14938 12.7056L5.21593 12.5668C6.2533 10.4076 7.74356 8.49089 9.58705 6.94527L10.6258 6.07395C11.2389 5.55974 11.2445 4.6255 10.6374 4.10678V4.10678Z" stroke="black" stroke-width="1.5" stroke-linecap="round" stroke-linejoin="round"/>
<path id="Vector_3" d="M14.5898 7.65936C13.8349 8.71857 12.7759 9.55488 11.5471 10.0625L1.41008 14.25" stroke="black" stroke-width="1.5" stroke-linecap="round" stroke-linejoin="round"/>
</g>
</g>
</svg>
