<svg width="16" height="16" viewBox="0 0 16 16" fill="none" xmlns="http://www.w3.org/2000/svg">
<g id="Sport=diving, Size=16px, weight=regular">
<path id="Diving" d="M10.8337 11.8855C10.5393 12.6033 9.81835 13.0869 8.98739 13.0869H8.66975M10.9617 6.86955V4.89129C10.9617 4.73515 11.2141 4.60868 11.5257 4.60868C11.8374 4.60868 12.0898 4.73515 12.0898 4.89129V11.3913C12.0898 12.952 10.827 14.2174 9.26943 14.2174H8.60523M3.69143 9.52678C3.74396 9.28515 3.88004 8.67365 3.88004 8.67365C3.93504 8.44333 3.94702 8.34653 4.20051 8.24762C4.36515 8.19498 4.57421 8.12822 4.77622 8.09325M7.85924 13.3695C7.85924 13.9939 7.35415 14.5 6.73109 14.5C6.10803 14.5 5.60294 13.9939 5.60294 13.3695C5.60294 12.7452 6.10803 12.2391 6.73109 12.2391C7.35415 12.2391 7.85924 12.7452 7.85924 13.3695ZM10.3976 3.47824C10.3976 3.94649 10.0188 4.32607 9.55147 4.32607C9.08417 4.32607 8.70536 3.94649 8.70536 3.47824C8.70536 3.01 9.08417 2.63042 9.55147 2.63042C10.0188 2.63042 10.3976 3.01 10.3976 3.47824ZM13.5 2.63042C13.5 3.09866 13.1212 3.47824 12.6539 3.47824C12.1866 3.47824 11.8078 3.09866 11.8078 2.63042C11.8078 2.16218 12.1866 1.78259 12.6539 1.78259C13.1212 1.78259 13.5 2.16218 13.5 2.63042ZM6.73109 6.86955C7.93116 6.86955 9.08434 7.02781 9.93046 7.30547C10.4092 7.49694 10.5566 8.03107 10.6296 8.39246C10.7025 8.75384 10.7833 9.12335 10.9331 9.82458C11.0829 10.5258 10.6232 11.2758 9.93504 11.3952C9.30716 11.5096 9.22677 11.5647 8.59536 11.6668C7.96395 11.7689 7.59342 10.5438 6.73074 10.5438C5.86806 10.5438 5.49753 11.7689 4.86612 11.6668C4.2347 11.5647 4.15432 11.5096 3.52644 11.3952C2.83826 11.2758 2.37854 10.5258 2.52837 9.82458C2.67821 9.12335 2.75894 8.75384 2.83192 8.39246C2.90489 8.03107 3.05226 7.49694 3.53102 7.30547C4.37713 7.02781 5.53032 6.86955 6.73039 6.86955H6.73109Z" stroke="black" stroke-width="1.5" stroke-miterlimit="10" stroke-linecap="round" stroke-linejoin="round"/>
</g>
</svg>
