<svg width="16" height="16" viewBox="0 0 16 16" fill="none" xmlns="http://www.w3.org/2000/svg">
<g id="Sport=motor, Size=16px, weight=light">
<path id="Vector" d="M8.00383 5.58668V6.0234M6.47677 6.00387L6.69076 6.38122M5.35928 7.14216L5.72973 7.36013M4.94971 8.69764H5.37845M5.35928 10.2523L5.72973 10.0344M10.6484 10.2523L10.2772 10.0344M11.0572 8.69764H10.6285M10.6484 7.14216L10.2772 7.36013M9.53013 6.00387L9.31614 6.38122M9.19266 7.48591L8.42414 8.26873M8.42414 8.26873C8.65657 8.50548 8.65702 8.88945 8.42459 9.12621C8.19216 9.36297 7.81531 9.36296 7.58288 9.12621C7.35045 8.88945 7.35045 8.50559 7.58288 8.26883C7.81531 8.03208 8.19171 8.03197 8.42414 8.26873ZM10.0195 12.65L9.03926 10.9703H6.96764L5.98744 12.65M9.39514 11.5805H11.1063C11.655 10.9677 12.0169 10.2056 12.1482 9.38706C12.2794 8.56851 12.1742 7.72876 11.8454 6.97C11.5166 6.21124 10.9783 5.56619 10.2962 5.11336C9.61399 4.66053 8.81731 4.41944 8.00307 4.41944C7.18883 4.41944 6.39214 4.66053 5.70997 5.11336C5.0278 5.56619 4.48955 6.21124 4.16075 6.97C3.83194 7.72876 3.72675 8.56851 3.85797 9.38706C3.98919 10.2056 4.35117 10.9677 4.89985 11.5805H6.61176M11.5366 12.65C12.3193 11.9233 12.8679 10.9725 13.1105 9.9224C13.353 8.87231 13.2781 7.77204 12.8956 6.76611C12.513 5.76017 11.8408 4.8956 10.9671 4.28593C10.0934 3.67627 9.05906 3.35001 8 3.35001C6.94094 3.35001 5.90665 3.67627 5.03294 4.28593C4.15923 4.8956 3.48697 5.76017 3.10444 6.76611C2.72191 7.77204 2.64699 8.87231 2.88953 9.9224C3.13207 10.9725 3.68073 11.9233 4.46344 12.65H11.5366Z" stroke="black" stroke-linecap="round" stroke-linejoin="round"/>
</g>
</svg>
