<svg width="24" height="24" viewBox="0 0 24 24" fill="none" xmlns="http://www.w3.org/2000/svg">
<g id="Sport=esoccer, weight=light, Size=24">
<path id="Vector" d="M10.1089 8.79896C10.1089 8.79896 9.3441 10.5284 9.22758 11.626C9.22758 11.626 10.2919 13.0559 11.273 13.904L14.2483 13.2554C14.2483 13.2554 14.788 12.3108 15.0154 11.0479M10.1089 8.79896C9.23333 7.90662 8.10247 7.54083 8.10247 7.54083M10.1089 8.79896C11.0502 8.4497 11.9175 8.28159 12.4767 8.20214M9.3596 5.12385C9.3596 5.12385 8.37975 6.27696 8.10247 7.54083M8.10247 7.54083C8.10247 7.54083 6.47432 8.39742 5.98652 9.51603C5.98652 9.51603 5.90751 10.7026 6.59483 12.0533L9.22759 11.6247M6.59483 12.0545C6.59483 12.0545 5.852 13.3719 6.06277 14.558C6.06277 14.558 6.70559 16.2542 8.01297 16.886C8.01297 16.886 9.25459 16.9638 10.6072 16.4537C10.6072 16.4537 10.9953 14.4915 11.2723 13.9035M4.7489 9.32076C4.7489 9.32076 5.19544 9.28126 5.98376 9.38102M4.66264 14.5663L6.02527 14.4725M8.01372 16.886C8.01372 16.886 7.8137 17.5216 7.94246 18.3861M10.608 16.4537C10.608 16.4537 12.1376 17.4626 13.0247 17.5288M13.0247 17.5288C13.0247 17.5288 14.7651 16.775 15.2749 15.6109M13.0247 17.5288C13.0247 17.5288 13.058 18.6437 12.9415 19.1395M15.2749 15.6109C15.2749 15.6109 14.7096 13.8927 14.2498 13.2551M15.2749 15.6109C17.8247 15.2343 18.235 12.2856 18.235 12.2856C18.1683 11.7979 17.9605 11.5231 17.8112 11.1854M17.0031 14.7615C17.0031 14.7615 17.3781 15.3964 17.1686 16.496M12.4767 4.88813C12.1423 4.8408 11.8005 4.81632 11.4531 4.81632C7.4555 4.81632 4.21484 8.05697 4.21484 12.0545C4.21484 16.0521 7.4555 19.2927 11.4531 19.2927C15.4506 19.2927 18.6913 16.0521 18.6913 12.0545C18.6913 11.7129 18.6676 11.3769 18.6218 11.0479M15.3117 5.95116C15.3117 7.37106 16.1586 8.36055 17.5341 8.36055C18.2662 8.36055 19.0054 8.21998 19.6788 7.37818M15.3117 5.95116C15.3117 4.53126 16.1586 3.55774 17.5341 3.55774C18.9097 3.55774 19.7851 4.53126 19.7851 5.95116H15.3117Z" stroke="black" stroke-miterlimit="10" stroke-linecap="round" stroke-linejoin="round"/>
</g>
</svg>
