<svg width="24" height="24" viewBox="0 0 24 24" fill="none" xmlns="http://www.w3.org/2000/svg">
<g id="Sport=cricket, weight=light, Size=24">
<path id="cricket" d="M18.0124 17.1152L15.0378 14.195C14.9209 14.0802 14.7334 14.0805 14.6168 14.1956L14.3814 14.4281M17.1212 17.9955L14.1532 15.0817C14.0337 14.9643 14.0334 14.7719 14.1526 14.6542L14.3814 14.4281M14.2947 9.15598L17.8415 5.65208M15.3679 10.0643L18.8382 6.63609M14.3814 14.4281L10.4198 10.458M7.78498 4.64973L15.6075 12.9405C15.8303 13.1766 15.8237 13.5445 15.5927 13.7726L13.7159 15.6263C13.4709 15.8683 13.0743 15.8707 12.8263 15.6316L4.64368 7.74368C4.49361 7.59902 4.45695 7.37444 4.55337 7.19051L5.40519 5.56557C5.45089 5.4784 5.52303 5.40753 5.61153 5.36288L7.21992 4.5515C7.40935 4.45594 7.63996 4.49603 7.78498 4.64973ZM17.3202 17.4821L16.9141 18.562C16.8812 18.6495 16.9038 18.748 16.9717 18.8129L17.621 19.4338C17.7144 19.5231 17.8631 19.5219 17.955 19.4311L19.4302 17.9741C19.5243 17.8811 19.5231 17.7301 19.4275 17.6386L18.7784 17.0179C18.7133 16.9557 18.618 16.9353 18.5327 16.9654L17.4634 17.3424C17.3971 17.3658 17.3447 17.4169 17.3202 17.4821ZM19.247 7.93008C19.247 9.33236 18.0963 10.4691 16.6768 10.4691C15.2573 10.4691 14.1066 9.33236 14.1066 7.93008C14.1066 6.5278 15.2573 5.39102 16.6768 5.39102C18.0963 5.39102 19.247 6.5278 19.247 7.93008Z" stroke="black" stroke-linecap="round" stroke-linejoin="round"/>
</g>
</svg>
