<svg width="32" height="32" viewBox="0 0 32 32" fill="none" xmlns="http://www.w3.org/2000/svg">
<g id="Sport=enba, Size=32px, weight=light">
<path id="Vector" d="M24.9219 15.204C24.9219 15.4935 24.9219 15.783 24.9219 16.0725C24.9219 18.6783 23.9568 21.091 22.1232 22.9247C20.2895 24.7584 17.8768 25.7234 15.271 25.7234C12.6653 25.7234 10.2526 24.7584 8.41888 22.9247C6.58521 21.091 5.62012 18.6783 5.62012 16.0725C5.62012 15.976 5.62012 15.8795 5.62012 15.783C5.71663 13.2738 6.68172 10.9576 8.41888 9.2204C10.156 7.48323 12.4723 6.51814 14.9815 6.42163C15.078 6.42163 15.1745 6.42163 15.271 6.42163C15.7292 6.42163 16.1814 6.45147 16.6255 6.51062M14.1129 6.71145C13.0275 8.43711 12.8774 9.48752 13.5339 10.668C13.5339 10.668 13.7269 11.0541 14.1129 11.2471C14.9304 11.8759 15.8299 12.0541 16.7846 12.0751M16.2361 25.7234C12.4723 23.7933 12.3758 21.5736 12.2792 19.4504C12.2792 18.0027 12.1827 16.5551 10.9281 15.3005C10.9281 15.3005 10.8316 15.204 10.7351 15.1074C10.6386 15.0109 10.0595 14.6249 10.0595 14.6249C8.90142 13.9493 7.45379 14.0458 5.62012 15.0109M22.4127 22.6352L8.80492 9.02738M7.0898 21.4293C7.77157 16.8517 10.5961 12.7611 14.9789 10.6184C15.5179 10.3372 16.0681 10.0954 16.6255 9.8918M20.4159 7.93484C20.4159 9.82803 21.545 11.1473 23.3791 11.1473C24.3552 11.1473 25.3408 10.9599 26.2387 9.83751M20.4159 7.93484C20.4159 6.04165 21.545 4.74362 23.3791 4.74362C25.2131 4.74362 26.3804 6.04165 26.3804 7.93484H20.4159Z" stroke="black" stroke-miterlimit="10" stroke-linecap="round" stroke-linejoin="round"/>
</g>
</svg>
