<svg width="25" height="24" viewBox="0 0 25 24" fill="none" xmlns="http://www.w3.org/2000/svg">
<g id="Sport=boat-racing, weight=light, Size=24">
<path id="boat-racing" d="M0.190125 8.29263C-0.0265914 8.46377 -0.0635388 8.77819 0.1076 8.99491C0.27874 9.21163 0.593159 9.24857 0.809875 9.07743L0.190125 8.29263ZM3.241 6.52048L2.96379 6.10437L2.94698 6.11557L2.93113 6.12809L3.241 6.52048ZM7.18448 4.82069L7.12386 4.32438L7.18448 4.82069ZM10.0696 5.12062L9.91547 5.5963L9.9204 5.59784L10.0696 5.12062ZM12.6616 5.93096L12.8619 5.47286L12.8369 5.4619L12.8108 5.45374L12.6616 5.93096ZM14.315 6.11945L14.3463 6.61846L14.315 6.11945ZM19.1853 6.25298L19.1043 6.74651L19.1162 6.74817L19.1853 6.25298ZM20.2943 6.40789L20.2252 6.90308L20.3117 6.91516L20.3972 6.8972L20.2943 6.40789ZM21.9767 6.0544L21.9061 5.5594L21.8899 5.56171L21.8738 5.56508L21.9767 6.0544ZM22.4736 6.11945L22.9156 5.88572L22.8795 5.81741L22.8244 5.76319L22.4736 6.11945ZM22.2608 6.76949L21.9176 6.40591L22.2608 6.76949ZM16.0724 11.1968L16.3222 11.6299L16.3383 11.6206L16.3538 11.6101L16.0724 11.1968ZM7.18388 6.2082L7.32619 6.68761L7.33496 6.68483L7.18388 6.2082ZM6.44499 6.75407L6.01122 6.50539L5.98408 6.55272L5.96779 6.6048L6.44499 6.75407ZM6.13534 7.74398L5.65815 7.59471L5.65815 7.59472L6.13534 7.74398ZM6.50612 8.14252L6.3466 7.66865L6.50612 8.14252ZM0.554548 13.2993C0.304764 13.4171 0.197721 13.715 0.31546 13.9648C0.433199 14.2146 0.731136 14.3216 0.98092 14.2039L0.554548 13.2993ZM8.50953 10.1024L8.31393 9.64222L8.30506 9.646L8.29634 9.65011L8.50953 10.1024ZM15.7089 7.57549L15.5847 7.091L15.5726 7.0944L15.7089 7.57549ZM3.29267 14.1579V13.6579C3.15077 13.6579 3.01555 13.7182 2.92072 13.8237L3.29267 14.1579ZM3.32036 14.1579L3.73947 13.8852C3.64722 13.7434 3.48952 13.6579 3.32036 13.6579V14.1579ZM7.81034 14.1579V13.6579C7.66849 13.6579 7.53331 13.7181 7.43848 13.8236L7.81034 14.1579ZM7.83733 14.1579L8.25643 13.8852C8.16418 13.7434 8.00649 13.6579 7.83733 13.6579V14.1579ZM12.3266 14.1579V13.6579C12.1847 13.6579 12.0495 13.7181 11.9547 13.8237L12.3266 14.1579ZM12.3536 14.1579L12.7727 13.8852C12.6804 13.7434 12.5227 13.6579 12.3536 13.6579V14.1579ZM16.8428 14.1579V13.6579C16.701 13.6579 16.5658 13.7181 16.4709 13.8237L16.8428 14.1579ZM16.8698 14.1579L17.2889 13.8852C17.1967 13.7434 17.039 13.6579 16.8698 13.6579V14.1579ZM21.731 14.4921C21.9156 14.2867 21.8987 13.9705 21.6933 13.786C21.4879 13.6014 21.1718 13.6183 20.9872 13.8237L21.731 14.4921ZM5.50911 17.2137C5.23297 17.2137 5.00911 17.4375 5.00911 17.7137C5.00911 17.9898 5.23297 18.2137 5.50911 18.2137V17.2137ZM5.53609 17.7137L5.9552 17.441C5.86295 17.2992 5.70525 17.2137 5.53609 17.2137V17.7137ZM10.0254 17.7137V17.2137C9.88348 17.2137 9.74828 17.274 9.65345 17.3795L10.0254 17.7137ZM10.0523 17.7137L10.4714 17.441C10.3792 17.2992 10.2215 17.2137 10.0523 17.2137V17.7137ZM14.5416 17.7137V17.2137C14.3997 17.2137 14.2645 17.274 14.1697 17.3795L14.5416 17.7137ZM14.5686 17.7137L14.9877 17.441C14.8954 17.2992 14.7378 17.2137 14.5686 17.2137V17.7137ZM19.4298 18.0479C19.6143 17.8425 19.5975 17.5264 19.3921 17.3418C19.1867 17.1572 18.8705 17.1741 18.686 17.3795L19.4298 18.0479ZM0.817371 14.9381C0.542593 14.9107 0.297618 15.1112 0.270204 15.386C0.24279 15.6607 0.443319 15.9057 0.718097 15.9331L0.817371 14.9381ZM0.809875 9.07743L3.55088 6.91288L2.93113 6.12809L0.190125 8.29263L0.809875 9.07743ZM3.51822 6.9366C3.87252 6.70056 4.49643 6.32943 5.19526 5.99848C5.90224 5.66368 6.64365 5.39046 7.2451 5.317L7.12386 4.32438C6.36171 4.41747 5.50455 4.74555 4.76726 5.09471C4.02183 5.44772 3.35581 5.84321 2.96379 6.10437L3.51822 6.9366ZM7.2451 5.317C7.4966 5.28628 7.77396 5.23892 8.18763 5.25466C8.59971 5.27034 9.15687 5.35047 9.91548 5.59627L10.2237 4.64496C9.38663 4.37373 8.73854 4.2749 8.22565 4.25539C7.71435 4.23593 7.347 4.29712 7.12386 4.32438L7.2451 5.317ZM9.9204 5.59784L12.5124 6.40818L12.8108 5.45374L10.2188 4.6434L9.9204 5.59784ZM12.4612 6.38906C12.7426 6.51214 13.4282 6.67613 14.3463 6.61846L14.2836 5.62043C13.4915 5.67019 12.9702 5.5202 12.8619 5.47286L12.4612 6.38906ZM14.3463 6.61846C14.6337 6.60042 14.8891 6.56424 15.1339 6.53308C15.3816 6.50155 15.6357 6.47255 15.9528 6.46096C16.587 6.43777 17.5021 6.48329 19.1043 6.74637L19.2664 5.75958C17.6246 5.49001 16.639 5.4352 15.9162 5.46162C15.5549 5.47484 15.2665 5.50813 15.0076 5.54109C14.7459 5.57441 14.5307 5.60491 14.2836 5.62043L14.3463 6.61846ZM19.1162 6.74817L20.2252 6.90308L20.3635 5.91269L19.2545 5.75778L19.1162 6.74817ZM20.3972 6.8972L22.0795 6.54371L21.8738 5.56508L20.1915 5.91857L20.3972 6.8972ZM22.0472 6.5494C22.0803 6.54468 22.1115 6.54078 22.1414 6.53843C22.1717 6.53605 22.1949 6.53575 22.2115 6.53668C22.2293 6.53769 22.2288 6.53956 22.2161 6.53546C22.2027 6.53113 22.1639 6.51615 22.1228 6.4757L22.8244 5.76319C22.6362 5.57785 22.3962 5.54551 22.2678 5.53827C22.1238 5.53015 21.9861 5.548 21.9061 5.5594L22.0472 6.5494ZM22.0316 6.35317C22.0332 6.35612 22.027 6.34462 22.0228 6.32991C22.0186 6.31505 22.017 6.29996 22.0182 6.28695C22.0194 6.27333 22.0226 6.2742 22.0135 6.29103C22.0037 6.30929 21.9781 6.34874 21.9176 6.40591L22.6041 7.13306C22.8559 6.89531 22.9903 6.63858 23.014 6.3777C23.0374 6.12123 22.9451 5.9415 22.9156 5.88572L22.0316 6.35317ZM21.9176 6.40591C21.633 6.67458 20.9273 7.20897 19.8562 7.97133C18.7973 8.72498 17.4111 9.68086 15.7911 10.7834L16.3538 11.6101C17.9753 10.5065 19.3685 9.54588 20.436 8.78603C21.4914 8.03489 22.2591 7.45874 22.6041 7.13306L21.9176 6.40591ZM15.8227 10.7636C13.5475 12.0755 11.8839 12.7228 7.94715 13.9242L8.23904 14.8807C12.2049 13.6704 13.9514 12.997 16.3222 11.6299L15.8227 10.7636ZM10.2181 4.7219L7.0328 5.73157L7.33496 6.68483L10.5203 5.67516L10.2181 4.7219ZM7.04159 5.72887C6.91113 5.7676 6.72813 5.84512 6.547 5.96191C6.3674 6.07771 6.15518 6.25428 6.01122 6.50539L6.87877 7.00274C6.91528 6.93906 6.98695 6.86809 7.0889 6.80235C7.18932 6.73761 7.28553 6.69959 7.32617 6.68752L7.04159 5.72887ZM5.96779 6.6048L5.65815 7.59471L6.61254 7.89325L6.92219 6.90333L5.96779 6.6048ZM6.66564 8.61639L12.9729 6.49321L12.6538 5.54547L6.3466 7.66865L6.66564 8.61639ZM5.65815 7.59472C5.48077 8.16176 5.98354 8.846 6.66564 8.61639L6.3466 7.66865C6.43903 7.63753 6.52756 7.67566 6.57174 7.72315C6.614 7.76858 6.63091 7.83453 6.61254 7.89325L5.65815 7.59472ZM0.98092 14.2039L8.72272 10.5547L8.29634 9.65011L0.554548 13.2993L0.98092 14.2039ZM8.70512 10.5625C11.3673 9.43094 12.5911 8.97786 15.8451 8.05658L15.5726 7.0944C12.2768 8.02754 11.0134 8.49479 8.31393 9.64222L8.70512 10.5625ZM15.833 8.05983L20.4475 6.87704L20.1992 5.90835L15.5847 7.09115L15.833 8.05983ZM3.29267 14.6579H3.32036V13.6579H3.29267V14.6579ZM3.32036 14.1579C2.90126 14.4305 2.90141 14.4308 2.90157 14.431C2.90163 14.4311 2.9018 14.4314 2.90193 14.4316C2.90218 14.432 2.90246 14.4324 2.90278 14.4329C2.9034 14.4338 2.90415 14.4349 2.90501 14.4362C2.90674 14.4389 2.90894 14.4422 2.91162 14.4461C2.91697 14.454 2.92422 14.4646 2.93333 14.4775C2.95154 14.5034 2.97727 14.5389 3.01026 14.5817C3.07605 14.6672 3.17167 14.7833 3.29504 14.9117C3.53885 15.1656 3.90634 15.4836 4.38171 15.6997C4.8645 15.9192 5.46034 16.0332 6.13127 15.8654C6.79652 15.699 7.48452 15.2683 8.1822 14.4921L7.43848 13.8236C6.83384 14.4963 6.30942 14.79 5.88861 14.8953C5.47348 14.9991 5.10963 14.9321 4.7955 14.7893C4.47396 14.6432 4.20733 14.4179 4.01625 14.219C3.92216 14.1211 3.85014 14.0334 3.80266 13.9717C3.77901 13.941 3.76169 13.917 3.75101 13.9019C3.74568 13.8943 3.74202 13.8889 3.74008 13.8861C3.73911 13.8846 3.73857 13.8838 3.73847 13.8837C3.73842 13.8836 3.73847 13.8837 3.73864 13.8839C3.73872 13.884 3.73883 13.8842 3.73897 13.8844C3.73904 13.8845 3.73916 13.8847 3.7392 13.8848C3.73933 13.885 3.73947 13.8852 3.32036 14.1579ZM7.81034 14.6579H7.83733V13.6579H7.81034V14.6579ZM7.83733 14.1579C7.41822 14.4305 7.41837 14.4308 7.41853 14.431C7.4186 14.4311 7.41876 14.4314 7.41889 14.4316C7.41914 14.432 7.41943 14.4324 7.41974 14.4329C7.42036 14.4338 7.42111 14.4349 7.42197 14.4362C7.4237 14.4389 7.42591 14.4422 7.42858 14.4461C7.43393 14.454 7.44118 14.4646 7.45029 14.4775C7.4685 14.5034 7.49423 14.5389 7.52721 14.5817C7.59301 14.6672 7.68862 14.7833 7.81198 14.9117C8.05578 15.1655 8.42324 15.4836 8.89856 15.6997C9.3813 15.9192 9.9771 16.0333 10.648 15.8654C11.3131 15.699 12.001 15.2683 12.6985 14.4921L11.9547 13.8237C11.3502 14.4963 10.8259 14.7901 10.4052 14.8953C9.99025 14.9991 9.62647 14.9321 9.31239 14.7894C8.99089 14.6432 8.72428 14.418 8.53321 14.219C8.43913 14.1211 8.36711 14.0334 8.31963 13.9717C8.29597 13.941 8.27865 13.917 8.26797 13.9019C8.26264 13.8943 8.25899 13.8889 8.25704 13.8861C8.25607 13.8846 8.25553 13.8838 8.25543 13.8837C8.25538 13.8836 8.25543 13.8837 8.2556 13.8839C8.25568 13.884 8.2558 13.8842 8.25593 13.8844C8.256 13.8845 8.25613 13.8847 8.25616 13.8848C8.25629 13.885 8.25643 13.8852 7.83733 14.1579ZM12.3266 14.6579H12.3536V13.6579H12.3266V14.6579ZM12.3536 14.1579C11.9345 14.4305 11.9346 14.4308 11.9348 14.431C11.9348 14.4311 11.935 14.4314 11.9351 14.4316C11.9354 14.432 11.9357 14.4324 11.936 14.4329C11.9366 14.4338 11.9374 14.4349 11.9382 14.4362C11.9399 14.4389 11.9422 14.4422 11.9448 14.4461C11.9502 14.454 11.9574 14.4646 11.9665 14.4775C11.9847 14.5034 12.0105 14.5389 12.0435 14.5817C12.1093 14.6672 12.2049 14.7833 12.3282 14.9117C12.572 15.1655 12.9395 15.4836 13.4148 15.6997C13.8976 15.9192 14.4934 16.0333 15.1642 15.8654C15.8294 15.699 16.5172 15.2683 17.2147 14.4921L16.4709 13.8237C15.8665 14.4963 15.3422 14.7901 14.9215 14.8953C14.5065 14.9991 14.1427 14.9321 13.8286 14.7894C13.5071 14.6432 13.2405 14.418 13.0495 14.219C12.9554 14.1211 12.8834 14.0334 12.8359 13.9717C12.8122 13.941 12.7949 13.917 12.7842 13.9019C12.7789 13.8943 12.7752 13.8889 12.7733 13.8861C12.7723 13.8846 12.7718 13.8838 12.7717 13.8837C12.7716 13.8836 12.7717 13.8837 12.7718 13.8839C12.7719 13.884 12.772 13.8842 12.7722 13.8844C12.7722 13.8845 12.7724 13.8847 12.7724 13.8848C12.7725 13.885 12.7727 13.8852 12.3536 14.1579ZM16.8428 14.6579H16.8698V13.6579H16.8428V14.6579ZM16.8698 14.1579C16.4507 14.4305 16.4509 14.4308 16.451 14.431C16.4511 14.4311 16.4513 14.4314 16.4514 14.4316C16.4516 14.432 16.4519 14.4324 16.4522 14.4329C16.4529 14.4338 16.4536 14.4349 16.4545 14.4362C16.4562 14.4389 16.4584 14.4422 16.4611 14.4461C16.4664 14.454 16.4737 14.4646 16.4828 14.4775C16.501 14.5034 16.5267 14.5389 16.5597 14.5817C16.6255 14.6672 16.7211 14.7833 16.8445 14.9117C17.0883 15.1655 17.4557 15.4836 17.9311 15.6997C18.4138 15.9192 19.0096 16.0333 19.6805 15.8654C20.3456 15.699 21.0335 15.2683 21.731 14.4921L20.9872 13.8237C20.3827 14.4963 19.8584 14.7901 19.4378 14.8953C19.0227 14.9991 18.659 14.9321 18.3449 14.7894C18.0234 14.6432 17.7568 14.418 17.5657 14.219C17.4716 14.1211 17.3996 14.0334 17.3521 13.9717C17.3285 13.941 17.3112 13.917 17.3005 13.9019C17.2951 13.8943 17.2915 13.8889 17.2895 13.8861C17.2886 13.8846 17.288 13.8838 17.2879 13.8837C17.2879 13.8836 17.2879 13.8837 17.2881 13.8839C17.2882 13.884 17.2883 13.8842 17.2884 13.8844C17.2885 13.8845 17.2886 13.8847 17.2887 13.8848C17.2888 13.885 17.2889 13.8852 16.8698 14.1579ZM5.50911 18.2137H5.53609V17.2137H5.50911V18.2137ZM5.53609 17.7137C5.11699 17.9864 5.11714 17.9866 5.1173 17.9868C5.11736 17.9869 5.11753 17.9872 5.11766 17.9874C5.11791 17.9878 5.11819 17.9882 5.11851 17.9887C5.11913 17.9896 5.11988 17.9908 5.12074 17.9921C5.12247 17.9947 5.12467 17.998 5.12735 18.0019C5.1327 18.0099 5.13995 18.0204 5.14906 18.0334C5.16727 18.0592 5.193 18.0947 5.22598 18.1375C5.29178 18.223 5.38739 18.3391 5.51075 18.4675C5.75454 18.7214 6.12201 19.0395 6.59733 19.2555C7.08007 19.475 7.67587 19.5891 8.34672 19.4212C9.01189 19.2548 9.69976 18.8241 10.3973 18.0479L9.65345 17.3795C9.04898 18.0522 8.52471 18.3459 8.10402 18.4511C7.68902 18.555 7.32524 18.488 7.01116 18.3452C6.68966 18.199 6.42305 17.9738 6.23197 17.7748C6.1379 17.6769 6.06588 17.5892 6.01839 17.5275C5.99474 17.4968 5.97742 17.4729 5.96674 17.4577C5.96141 17.4501 5.95775 17.4448 5.95581 17.4419C5.95484 17.4405 5.9543 17.4396 5.9542 17.4395C5.95414 17.4394 5.9542 17.4395 5.95437 17.4397C5.95445 17.4399 5.95456 17.44 5.9547 17.4403C5.95477 17.4404 5.95489 17.4405 5.95493 17.4406C5.95506 17.4408 5.9552 17.441 5.53609 17.7137ZM10.0254 18.2137H10.0523V17.2137H10.0254V18.2137ZM10.0523 17.7137C9.63324 17.9864 9.63339 17.9866 9.63355 17.9868C9.63361 17.9869 9.63378 17.9872 9.63391 17.9874C9.63416 17.9878 9.63444 17.9882 9.63475 17.9887C9.63538 17.9896 9.63612 17.9908 9.63699 17.9921C9.63872 17.9947 9.64092 17.998 9.6436 18.0019C9.64895 18.0099 9.6562 18.0204 9.66531 18.0334C9.68352 18.0592 9.70925 18.0947 9.74223 18.1375C9.80803 18.223 9.90364 18.3391 10.027 18.4675C10.2708 18.7214 10.6383 19.0395 11.1136 19.2555C11.5963 19.475 12.1921 19.5891 12.863 19.4212C13.5281 19.2548 14.216 18.8241 14.9135 18.0479L14.1697 17.3795C13.5652 18.0522 13.041 18.3459 12.6203 18.4511C12.2053 18.555 11.8415 18.488 11.5274 18.3452C11.2059 18.199 10.9393 17.9738 10.7482 17.7748C10.6541 17.6769 10.5821 17.5892 10.5346 17.5275C10.511 17.4968 10.4937 17.4729 10.483 17.4577C10.4777 17.4501 10.474 17.4448 10.4721 17.4419C10.4711 17.4405 10.4705 17.4396 10.4704 17.4395C10.4704 17.4394 10.4704 17.4395 10.4706 17.4397C10.4707 17.4399 10.4708 17.44 10.4709 17.4403C10.471 17.4404 10.4711 17.4405 10.4712 17.4406C10.4713 17.4408 10.4714 17.441 10.0523 17.7137ZM14.5416 18.2137H14.5686V17.2137H14.5416V18.2137ZM14.5686 17.7137C14.1495 17.9864 14.1496 17.9866 14.1498 17.9868C14.1499 17.9869 14.15 17.9872 14.1502 17.9874C14.1504 17.9878 14.1507 17.9882 14.151 17.9887C14.1516 17.9896 14.1524 17.9908 14.1532 17.9921C14.155 17.9947 14.1572 17.998 14.1599 18.0019C14.1652 18.0099 14.1725 18.0204 14.1816 18.0334C14.1998 18.0592 14.2255 18.0947 14.2585 18.1375C14.3243 18.223 14.4199 18.3391 14.5433 18.4675C14.787 18.7214 15.1545 19.0395 15.6298 19.2555C16.1126 19.475 16.7084 19.5891 17.3792 19.4212C18.0444 19.2548 18.7323 18.8241 19.4298 18.0479L18.686 17.3795C18.0815 18.0522 17.5572 18.3459 17.1365 18.4511C16.7215 18.555 16.3577 18.488 16.0437 18.3452C15.7222 18.199 15.4556 17.9738 15.2645 17.7748C15.1704 17.6769 15.0984 17.5892 15.0509 17.5275C15.0272 17.4968 15.0099 17.4729 14.9992 17.4577C14.9939 17.4501 14.9903 17.4448 14.9883 17.4419C14.9873 17.4405 14.9868 17.4396 14.9867 17.4395C14.9866 17.4394 14.9867 17.4395 14.9869 17.4397C14.987 17.4399 14.9871 17.44 14.9872 17.4403C14.9873 17.4404 14.9874 17.4405 14.9874 17.4406C14.9876 17.4408 14.9877 17.441 14.5686 17.7137ZM0.718097 15.9331C1.62527 16.0236 2.63251 15.6409 3.66462 14.492L2.92072 13.8237C2.03611 14.8084 1.32123 14.9883 0.817371 14.9381L0.718097 15.9331Z" fill="black"/>
</g>
</svg>
