<svg width="24" height="24" viewBox="0 0 24 24" fill="none" xmlns="http://www.w3.org/2000/svg">
<g id="Sport=special-sports, weight=light, Size=24">
<path id="Vector" d="M6.225 14.9013L4.575 16.5592M7.57157 16.4258L4.27157 19.7416M8.98446 17.7788L8.15946 18.6078M16.125 4.95395L19.425 8.26974M8.7 9.09868C7.45964 9.24624 5.50193 9.87543 3.75 12.4145C3.75 12.4145 4.78173 11.9523 6.59082 12.2808M15.2525 14.9013C15.0722 16.1476 14.2888 18.1147 11.1275 19.875C11.1275 19.875 11.6994 18.8355 11.2939 17.0206M14.5067 7.89294C14.833 7.89294 15.1521 7.99018 15.4234 8.17235C15.6947 8.35452 15.9062 8.61345 16.0311 8.91639C16.156 9.21933 16.1887 9.55268 16.125 9.87428C16.0613 10.1959 15.9042 10.4913 15.6734 10.7231C15.4427 10.955 15.1487 11.1129 14.8286 11.1769C14.5085 11.2408 14.1768 11.208 13.8753 11.0825C13.5738 10.9571 13.3161 10.7446 13.1348 10.4719C12.9535 10.1993 12.8567 9.87874 12.8567 9.55084C12.8567 9.11114 13.0305 8.68945 13.34 8.37853C13.6494 8.06762 14.0691 7.89294 14.5067 7.89294ZM20.1216 4.24298C19.1589 4.01777 13.1433 3.11401 7.05 13.8538L9.92271 16.5592C21.3639 10.7945 20.3576 5.12041 20.1216 4.24298Z" stroke="black" stroke-linecap="round" stroke-linejoin="round"/>
</g>
</svg>
