<svg width="16" height="16" viewBox="0 0 16 16" fill="none" xmlns="http://www.w3.org/2000/svg">
<g id="Sport=diving, Size=16px, weight=light">
<path id="Diving" d="M10.8337 11.8855C10.5393 12.6034 9.81835 13.087 8.98739 13.087H8.66975M10.9617 6.86958V4.89132C10.9617 4.73518 11.2141 4.60871 11.5257 4.60871C11.8374 4.60871 12.0898 4.73518 12.0898 4.89132V11.3913C12.0898 12.952 10.827 14.2174 9.26943 14.2174H8.60523M3.69143 9.52681C3.74396 9.28518 3.88004 8.67368 3.88004 8.67368C3.93504 8.44336 3.94702 8.34656 4.20051 8.24765C4.36515 8.19501 4.57421 8.12825 4.77622 8.09328M7.85924 13.3696C7.85924 13.9939 7.35415 14.5 6.73109 14.5C6.10803 14.5 5.60294 13.9939 5.60294 13.3696C5.60294 12.7453 6.10803 12.2391 6.73109 12.2391C7.35415 12.2391 7.85924 12.7453 7.85924 13.3696ZM10.3976 3.47828C10.3976 3.94652 10.0188 4.3261 9.55147 4.3261C9.08417 4.3261 8.70536 3.94652 8.70536 3.47828C8.70536 3.01003 9.08417 2.63045 9.55147 2.63045C10.0188 2.63045 10.3976 3.01003 10.3976 3.47828ZM13.5 2.63045C13.5 3.09869 13.1212 3.47828 12.6539 3.47828C12.1866 3.47828 11.8078 3.09869 11.8078 2.63045C11.8078 2.16221 12.1866 1.78262 12.6539 1.78262C13.1212 1.78262 13.5 2.16221 13.5 2.63045ZM6.73109 6.86958C7.93116 6.86958 9.08434 7.02784 9.93046 7.3055C10.4092 7.49697 10.5566 8.0311 10.6296 8.39249C10.7025 8.75387 10.7833 9.12338 10.9331 9.82461C11.0829 10.5258 10.6232 11.2758 9.93504 11.3952C9.30716 11.5097 9.22677 11.5648 8.59536 11.6669C7.96395 11.769 7.59342 10.5438 6.73074 10.5438C5.86806 10.5438 5.49753 11.769 4.86612 11.6669C4.2347 11.5648 4.15432 11.5097 3.52644 11.3952C2.83826 11.2758 2.37854 10.5258 2.52837 9.82461C2.67821 9.12338 2.75894 8.75387 2.83192 8.39249C2.90489 8.0311 3.05226 7.49697 3.53102 7.3055C4.37713 7.02784 5.53032 6.86958 6.73039 6.86958H6.73109Z" stroke="black" stroke-miterlimit="10" stroke-linecap="round" stroke-linejoin="round"/>
</g>
</svg>
