<svg width="24" height="24" viewBox="0 0 24 24" fill="none" xmlns="http://www.w3.org/2000/svg">
<g id="Sport=nordic-combined, weight=light, Size=24">
<path id="Nordic Combined" d="M10.56 5.86111C11.5541 5.86111 12.36 5.05274 12.36 4.05556C12.36 3.05838 11.5541 2.25 10.56 2.25C9.56588 2.25 8.76 3.05838 8.76 4.05556C8.76 5.05274 9.56588 5.86111 10.56 5.86111ZM10.56 5.86111C11.1338 5.86111 11.6393 5.58594 11.9691 5.16633C12.7834 5.23133 13.566 5.52166 14.2118 6.03083L16.6368 7.94183H16.6332C17.4691 8.60122 17.6549 9.79577 17.0587 10.6783L16.6051 11.35C16.2329 11.7234 15.6439 11.7653 15.2227 11.4482C14.8138 11.1406 14.6827 10.5837 14.911 10.1251L15.2364 9.47294L13.0764 8.02849L12.7164 11.6396L13.998 16.0589C14.1017 16.4742 14.0801 16.9104 13.9368 17.3134L12.7431 20.6659C12.6631 20.8898 12.522 21.074 12.3449 21.2069C12.3794 20.7324 12.2527 20.2536 11.9647 19.8607L11.8359 19.6844L11.6242 19.7364C11.1713 19.8469 10.7847 20.1171 10.5082 20.4789C10.4765 20.3012 10.4801 20.1149 10.5363 19.9307L11.3808 17.1726C11.5486 16.6258 11.55 16.0416 11.3866 15.4941L10.5579 12.7229L11.1367 15.3352C11.2289 15.7512 11.1972 16.1853 11.0446 16.5832L9.80617 19.8137C9.67081 20.1662 9.37057 20.4081 9.02281 20.4926C8.95801 20.2694 8.86801 20.0528 8.72689 19.8599L8.59801 19.6837L8.38633 19.7357C8.17681 19.787 7.98673 19.8802 7.80817 19.9914C7.64977 19.7292 7.59649 19.4021 7.69513 19.0814L8.51377 16.4128C8.67433 15.8892 8.68369 15.3309 8.53969 14.8029L8.01121 13.3029C7.79377 12.6861 7.74121 12.0224 7.85785 11.3789L8.40001 8.38888C8.40001 8.38888 7.20553 10.9679 5.88002 10.9167C5.10314 10.8863 4.24706 10.1468 3.67178 9.54011C3.27578 9.12194 3.28442 8.46472 3.69122 8.05666C4.1045 7.64211 4.77554 7.64211 5.18882 8.05666L5.88002 8.74999L6.99097 6.89172C7.49065 6.05755 8.29777 5.47472 9.21721 5.24722C9.54697 5.6206 10.0236 5.86111 10.56 5.86111ZM3.72 21.0278V9.58779M4.44 20.3056H3M20.9114 18.8611L14.88 11.2778M21 17.8435L19.897 18.7723M6.96863 21.009C7.19903 20.3727 7.73183 19.8946 8.38703 19.735L8.59871 19.683L8.72759 19.8592C9.12719 20.4045 9.22871 21.1144 8.99759 21.75L6.96791 21.009H6.96863ZM10.2086 21.009C10.439 20.3727 10.9718 19.8946 11.627 19.735L11.8387 19.683L11.9676 19.8592C12.3672 20.4045 12.4687 21.1144 12.2376 21.75L10.2079 21.009H10.2086Z" stroke="black" stroke-linecap="round" stroke-linejoin="round"/>
</g>
</svg>
