<svg width="24" height="24" viewBox="0 0 24 24" fill="none" xmlns="http://www.w3.org/2000/svg">
<g id="Sport=formula-1, Size=24px, weight=light">
<path id="F" d="M4.70673 15.9334C4.59709 16.8232 5.29124 17.6081 6.18777 17.6081C6.93695 17.6081 7.57 17.0526 7.66736 16.3098L7.854 14.8856C7.90293 14.5123 8.2211 14.2331 8.59764 14.2331H11.9401C12.6668 14.2331 13.2766 13.6852 13.354 12.9626C13.444 12.1221 12.7854 11.3891 11.9401 11.3891H9.12775C8.67662 11.3891 8.32758 10.9937 8.38354 10.5461L8.46057 9.92996C8.50749 9.55465 8.82654 9.273 9.20477 9.273H12.5336C13.2688 9.273 13.8875 8.7224 13.9728 7.99217C14.0734 7.13112 13.4005 6.375 12.5336 6.375H7.21101C6.45352 6.375 5.81491 6.93976 5.72227 7.69156L4.70673 15.9334Z" stroke="black" stroke-linecap="round" stroke-linejoin="round"/>
<path id="Rectangle 808" d="M15.9053 7.69984C15.9941 6.94437 16.6344 6.375 17.395 6.375H17.8135C18.7114 6.375 19.4081 7.15845 19.3032 8.05016L18.3332 16.3002C18.2444 17.0556 17.6042 17.625 16.8435 17.625H16.425C15.5272 17.625 14.8304 16.8415 14.9353 15.9498L15.9053 7.69984Z" stroke="black" stroke-linecap="round" stroke-linejoin="round"/>
</g>
</svg>
