<svg width="32" height="32" viewBox="0 0 32 32" fill="none" xmlns="http://www.w3.org/2000/svg">
<g id="Sport=cycling, Size=32px, weight=regular">
<path id="cycling" d="M6.64507 9.39516H16.0078M16.0078 9.39516L9.60471 17.1895M16.0078 9.39516L16.008 6H19.9676C21.0401 6.00403 21.903 6.875 21.895 7.94355C21.8909 9.00806 21.0321 9.86694 19.9676 9.87097M16.0078 9.39516L19.2257 19.2258M7.73449 16.7993L6.0571 6.07354M6.0571 6H7.79497M8.2579 23.0968V19.2258M6.96808 23.6205H9.54869M17.9753 14.7627C18.4268 14.6365 18.9064 14.5761 19.4002 14.5947C21.9575 14.6908 23.9533 16.8426 23.8571 19.4C23.7609 21.9573 21.6092 23.9531 19.0519 23.8569C16.4946 23.7608 14.4988 21.609 14.595 19.0516C14.6448 17.7276 15.2449 16.5542 16.1668 15.7436M10.5161 19.2742C10.5161 20.5213 9.5051 21.5323 8.25803 21.5323C7.01095 21.5323 6 20.5213 6 19.2742C6 18.0271 7.01095 17.0161 8.25803 17.0161C9.5051 17.0161 10.5161 18.0271 10.5161 19.2742ZM26 19.2258C26 22.9671 22.9671 26 19.2259 26C15.4847 26 12.4518 22.9671 12.4518 19.2258C12.4518 15.4845 15.4847 12.4516 19.2259 12.4516C22.9671 12.4516 26 15.4845 26 19.2258Z" stroke="black" stroke-width="1.5" stroke-miterlimit="10" stroke-linecap="round" stroke-linejoin="round"/>
</g>
</svg>
