<svg width="32" height="32" viewBox="0 0 32 32" fill="none" xmlns="http://www.w3.org/2000/svg">
<g id="Sport=zed-run, weight=regular, Size=32">
<path id="zed-run" d="M8 12.6875C7.58579 12.6875 7.25 13.0233 7.25 13.4375C7.25 13.8517 7.58579 14.1875 8 14.1875V12.6875ZM11.604 13.9099L12.2494 14.2918L11.604 13.9099ZM8.27952 19.5276L8.92497 19.9096H8.92497L8.27952 19.5276ZM11.8835 20.75C12.2977 20.75 12.6335 20.4142 12.6335 20C12.6335 19.5858 12.2977 19.25 11.8835 19.25V20.75ZM24.75 10C24.75 9.58579 24.4142 9.25 24 9.25C23.5858 9.25 23.25 9.58579 23.25 10H24.75ZM14.2135 12.6875C13.7993 12.6875 13.4635 13.0233 13.4635 13.4375C13.4635 13.8517 13.7993 14.1875 14.2135 14.1875V12.6875ZM18.2524 14.1875C18.6666 14.1875 19.0024 13.8517 19.0024 13.4375C19.0024 13.0233 18.6666 12.6875 18.2524 12.6875V14.1875ZM14.2135 15.9688C13.7993 15.9688 13.4635 16.3046 13.4635 16.7188C13.4635 17.133 13.7993 17.4688 14.2135 17.4688V15.9688ZM18.2524 17.4688C18.6666 17.4688 19.0024 17.133 19.0024 16.7188C19.0024 16.3046 18.6666 15.9688 18.2524 15.9688V17.4688ZM14.2135 19.25C13.7993 19.25 13.4635 19.5858 13.4635 20C13.4635 20.4142 13.7993 20.75 14.2135 20.75V19.25ZM18.2524 20.75C18.6666 20.75 19.0024 20.4142 19.0024 20C19.0024 19.5858 18.6666 19.25 18.2524 19.25V20.75ZM8 14.1875H11.337V12.6875H8V14.1875ZM10.9585 13.5279L7.63407 19.1457L8.92497 19.9096L12.2494 14.2918L10.9585 13.5279ZM8.54648 20.75H11.8835V19.25H8.54648V20.75ZM7.63407 19.1457C7.21883 19.8473 7.71691 20.75 8.54648 20.75V19.25C8.89405 19.25 9.09367 19.6245 8.92497 19.9096L7.63407 19.1457ZM11.337 14.1875C10.9894 14.1875 10.7898 13.813 10.9585 13.5279L12.2494 14.2918C12.6647 13.5901 12.1666 12.6875 11.337 12.6875V14.1875ZM23.25 10V19.3749H24.75V10H23.25ZM23.3786 19.2499H20.8932V20.7499H23.3786V19.2499ZM21.0218 19.3749V14.0625H19.5218V19.3749H21.0218ZM20.8932 14.1875H23.8447V12.6875H20.8932V14.1875ZM21.0218 14.0625C21.0218 14.1274 20.9684 14.1875 20.8932 14.1875V12.6875C20.1317 12.6875 19.5218 13.3072 19.5218 14.0625H21.0218ZM20.8932 19.2499C20.9684 19.2499 21.0218 19.31 21.0218 19.3749H19.5218C19.5218 20.1302 20.1317 20.7499 20.8932 20.7499V19.2499ZM23.25 19.3749C23.25 19.31 23.3035 19.2499 23.3786 19.2499V20.7499C24.1401 20.7499 24.75 20.1302 24.75 19.3749H23.25ZM14.2135 14.1875H18.2524V12.6875H14.2135V14.1875ZM14.2135 17.4688H18.2524V15.9688H14.2135V17.4688ZM14.2135 20.75H18.2524V19.25H14.2135V20.75Z" fill="black"/>
<rect id="Rectangle 896" x="4" y="4" width="24" height="24" rx="4" stroke="black" stroke-width="1.5"/>
</g>
</svg>
