<svg width="32" height="32" viewBox="0 0 32 32" fill="none" xmlns="http://www.w3.org/2000/svg">
<g id="Sport=waterpolo, Size=32px, weight=regular">
<path id="Vector" d="M9.46765 13.9001L11.1103 15.6122C11.3266 15.856 11.5979 16.0061 11.9221 16.0406L15.0551 16.3738M19.0077 15.0364L24.5053 9.61453C24.9537 9.17287 25.6824 9.18973 26.1341 9.65352C26.5881 10.1392 26.5763 10.8915 26.1089 11.3571L21.3495 16.0217C20.9983 16.3654 20.8783 16.8853 21.0102 17.3584L23.7199 25.1243M17.1101 25.103L15.5616 19.793C15.4063 19.3001 14.9865 18.9437 14.4886 18.8821L11.1162 18.5061C10.8133 18.4695 10.5441 18.3413 10.351 18.1172L7.42576 15.2542C7.09062 14.8894 7.03909 14.3643 7.21007 13.9277M7.83697 6.55034C9.29486 6.47503 10.5434 7.63475 10.6256 9.14065C10.7078 10.6465 9.59254 11.9284 8.13464 12.0037C6.67675 12.079 5.42826 10.9193 5.34606 9.41337C5.26386 7.90748 6.37908 6.62566 7.83697 6.55034ZM18.5001 11.2377C18.6608 12.8752 17.5063 14.3287 15.9215 14.4843C14.3367 14.6398 12.9217 13.4384 12.761 11.8009C12.6003 10.1634 13.7548 8.70993 15.3396 8.55441C16.9244 8.39888 18.3394 9.60025 18.5001 11.2377Z" stroke="black" stroke-width="1.5" stroke-miterlimit="10" stroke-linecap="round" stroke-linejoin="round"/>
<path id="Vector 35" d="M29.7265 24.6646C28.8118 23.8687 27.4548 23.8643 26.5451 24.6544L26.3265 24.8442C25.3135 25.7238 23.8091 25.7402 22.7662 24.8828L22.6404 24.7794C21.5683 23.898 20.0216 23.9148 18.9802 24.8191C17.9601 25.705 16.4511 25.7413 15.3786 24.9058L15.1693 24.7427C14.0263 23.8521 12.4296 23.847 11.292 24.7302L11.0579 24.912C9.99887 25.7342 8.50691 25.7097 7.46477 24.853L7.17103 24.6115C6.1973 23.811 4.7811 23.8706 3.88867 24.7496" stroke="black" stroke-width="1.5" stroke-linecap="round" stroke-linejoin="round"/>
</g>
</svg>
