<svg width="16" height="16" viewBox="0 0 16 16" fill="none" xmlns="http://www.w3.org/2000/svg">
<g id="Sport=special-sports, Size=16px, weight=regular">
<path id="Vector" d="M4.15 9.93421L3.05 11.0395M5.04771 10.9506L2.84771 13.1611M5.98964 11.8526L5.43964 12.4052M10.75 3.30263L12.95 5.51316M5.8 6.06579C4.97309 6.16416 3.66796 6.58362 2.5 8.27632C2.5 8.27632 3.18782 7.96821 4.39388 8.18722M10.1683 9.93421C10.0481 10.7651 9.52588 12.0765 7.41832 13.25C7.41832 13.25 7.79962 12.557 7.52924 11.3471M9.67114 5.26196C9.88869 5.26196 10.1014 5.32679 10.2823 5.44823C10.4632 5.56968 10.6041 5.7423 10.6874 5.94426C10.7707 6.14622 10.7924 6.36845 10.75 6.58285C10.7076 6.79725 10.6028 6.99419 10.449 7.14876C10.2951 7.30334 10.0991 7.4086 9.88574 7.45125C9.67236 7.4939 9.45118 7.47201 9.25019 7.38836C9.04919 7.3047 8.87739 7.16304 8.75652 6.98128C8.63565 6.79952 8.57114 6.58583 8.57114 6.36723C8.57114 6.07409 8.68703 5.79297 8.89332 5.58569C9.09961 5.37841 9.3794 5.26196 9.67114 5.26196ZM13.4144 2.82865C12.7726 2.67851 8.76217 2.07601 4.7 9.23586L6.61514 11.0395C14.2426 7.19632 13.5718 3.41361 13.4144 2.82865Z" stroke="black" stroke-width="1.5" stroke-linecap="round" stroke-linejoin="round"/>
</g>
</svg>
