<svg width="24" height="24" viewBox="0 0 24 24" fill="none" xmlns="http://www.w3.org/2000/svg">
<g id="Text=bold, Size=24px, stroke width=1.5px">
<g id="bold">
<path d="M9.61975 7.84617H12.5533C13.2702 7.84617 13.8513 8.42733 13.8513 9.14424C13.8513 9.86115 13.2702 10.4423 12.5533 10.4423H9.61975V7.84617Z" stroke="black" stroke-width="1.5" stroke-linecap="round" stroke-linejoin="round"/>
<path d="M9.61975 13.5577H12.5533C13.2702 13.5577 13.8513 14.1389 13.8513 14.8558C13.8513 15.5727 13.2702 16.1538 12.5533 16.1538H9.61975V13.5577Z" stroke="black" stroke-width="1.5" stroke-linecap="round" stroke-linejoin="round"/>
<path d="M7.50392 5.25H12.7934C14.8383 5.25 16.496 6.87729 16.496 8.88462C16.496 10.1059 15.8823 11.1865 14.9411 11.8456C16.1748 12.4352 17.025 13.6779 17.025 15.1154C17.025 17.1227 15.3672 18.75 13.3223 18.75H7.50392C7.21179 18.75 6.97498 18.5175 6.97498 18.2308V5.76923C6.97498 5.48247 7.21179 5.25 7.50392 5.25Z" stroke="black" stroke-width="1.5" stroke-linecap="round" stroke-linejoin="round"/>
</g>
</g>
</svg>
