<svg width="24" height="24" viewBox="0 0 24 24" fill="none" xmlns="http://www.w3.org/2000/svg">
<g id="Text=anchor, Size=24px, weight=light">
<path id="ancor" d="M12 19.125V9.25962M12 19.125C15.5683 19.125 18.524 16.7036 19.0439 13.5438C19.1335 12.9989 18.6773 12.5481 18.125 12.5481H17.4808M12 19.125C8.43167 19.125 5.47601 16.7036 4.95613 13.5438C4.86647 12.9989 5.32272 12.5481 5.875 12.5481H6.51923M12 9.25962C13.2108 9.25962 14.1923 8.27809 14.1923 7.06731C14.1923 5.85653 13.2108 4.875 12 4.875C10.7892 4.875 9.80769 5.85653 9.80769 7.06731C9.80769 8.27809 10.7892 9.25962 12 9.25962Z" stroke="black" stroke-linecap="round" stroke-linejoin="round"/>
</g>
</svg>
