<svg width="16" height="16" viewBox="0 0 16 16" fill="none" xmlns="http://www.w3.org/2000/svg">
<g id="Text=bold, Size=16px, stroke width=1px">
<g id="bold">
<path d="M6.41321 5.23078H8.36888C8.84681 5.23078 9.23426 5.61822 9.23426 6.09616C9.23426 6.5741 8.84681 6.96155 8.36888 6.96155H6.41321V5.23078Z" stroke="black" stroke-linecap="round" stroke-linejoin="round"/>
<path d="M6.41321 9.03846H8.36888C8.84681 9.03846 9.23426 9.42591 9.23426 9.90385C9.23426 10.3818 8.84681 10.7692 8.36888 10.7692H6.41321V9.03846Z" stroke="black" stroke-linecap="round" stroke-linejoin="round"/>
<path d="M5.00266 3.5H8.52897C9.89223 3.5 10.9974 4.58486 10.9974 5.92308C10.9974 6.73729 10.5883 7.4577 9.96081 7.89707C10.7833 8.29017 11.35 9.11858 11.35 10.0769C11.35 11.4151 10.2449 12.5 8.8816 12.5H5.00266C4.8079 12.5 4.65002 12.345 4.65002 12.1538V3.84615C4.65002 3.65498 4.8079 3.5 5.00266 3.5Z" stroke="black" stroke-linecap="round" stroke-linejoin="round"/>
</g>
</g>
</svg>
