<svg width="24" height="24" viewBox="0 0 24 24" fill="none" xmlns="http://www.w3.org/2000/svg">
<g id="Text=numbers-list, Size=24px, stroke width=1.5px">
<path id="numbers-list" d="M8.71155 16.59H19.125M8.71155 11.73H19.125M8.71155 6.87003H19.125M5.97118 7.95V5.25L4.87502 6.06M6.51923 13.35H4.875C4.875 12.54 6.51923 11.46 6.51923 10.92C6.51923 10.38 6.15116 10.11 5.69712 10.11C5.24307 10.11 4.875 10.4726 4.875 10.92M4.875 15.51H6.51923C6.51923 16.1079 5.69712 16.86 5.69712 16.86C6.13128 17.329 6.51923 17.6538 6.51923 17.94C6.51923 18.48 6.15116 18.75 5.69712 18.75C5.24307 18.75 4.875 18.3873 4.875 17.94" stroke="black" stroke-width="1.5" stroke-linecap="round" stroke-linejoin="round"/>
</g>
</svg>
