<svg width="16" height="16" viewBox="0 0 16 16" fill="none" xmlns="http://www.w3.org/2000/svg">
<g id="Text=bold, Size=16px, weight=light">
<g id="bold">
<path d="M6.41309 5.23078H8.36875C8.84669 5.23078 9.23414 5.61822 9.23414 6.09616C9.23414 6.5741 8.84669 6.96155 8.36875 6.96155H6.41309V5.23078Z" stroke="black" stroke-linecap="round" stroke-linejoin="round"/>
<path d="M6.41309 9.03846H8.36875C8.84669 9.03846 9.23414 9.42591 9.23414 9.90385C9.23414 10.3818 8.84669 10.7692 8.36875 10.7692H6.41309V9.03846Z" stroke="black" stroke-linecap="round" stroke-linejoin="round"/>
<path d="M5.00253 3.5H8.52885C9.89211 3.5 10.9973 4.58486 10.9973 5.92308C10.9973 6.73729 10.5881 7.4577 9.96068 7.89707C10.7831 8.29017 11.3499 9.11858 11.3499 10.0769C11.3499 11.4151 10.2447 12.5 8.88148 12.5H5.00253C4.80778 12.5 4.6499 12.345 4.6499 12.1538V3.84615C4.6499 3.65498 4.80778 3.5 5.00253 3.5Z" stroke="black" stroke-linecap="round" stroke-linejoin="round"/>
</g>
</g>
</svg>
