<svg width="16" height="16" viewBox="0 0 16 16" fill="none" xmlns="http://www.w3.org/2000/svg">
<g id="Text=cards, Size=16px, stroke width=1px">
<g id="cards">
<path id="Squircle" d="M5.984 3C3.52668 3 3 3.52668 3 5.984C3 6.54512 3.45488 7 4.016 7H11.984C12.5451 7 13 6.54512 13 5.984C13 3.52668 12.4733 3 10.016 3H5.984Z" stroke="black" stroke-linecap="round" stroke-linejoin="round"/>
<g id="Squircle_2">
<path d="M10.016 13C12.4733 13 13 12.4733 13 10.016C13 9.45488 12.5451 9 11.984 9H10.4C9.6268 9 9 9.6268 9 10.4V11.984C9 12.5451 9.45488 13 10.016 13Z" stroke="black" stroke-linecap="round" stroke-linejoin="round"/>
<path d="M3 10.016C3 12.4733 3.52668 13 5.984 13C6.54512 13 7 12.5451 7 11.984V10.4C7 9.6268 6.3732 9 5.6 9H4.016C3.45488 9 3 9.45488 3 10.016Z" stroke="black" stroke-linecap="round" stroke-linejoin="round"/>
</g>
</g>
</g>
</svg>
