<svg width="32" height="32" viewBox="0 0 32 32" fill="none" xmlns="http://www.w3.org/2000/svg">
<g id="Text=math, Size=32px, stroke width=1.5px">
<path id="math" d="M25 10.0184H19.4616M25 21.9814H19.4616M13.9232 10.0184H7.00012M10.4615 6.5L10.4615 13.537M13.2309 24.7963L7.69241 19.1667M13.2309 19.1666L7.69241 24.7962M22.7308 19.1666C22.7308 19.4428 22.5069 19.6666 22.2308 19.6666C21.9546 19.6666 21.7308 19.4428 21.7308 19.1666C21.7308 18.8905 21.9546 18.6666 22.2308 18.6666C22.5069 18.6666 22.7308 18.8905 22.7308 19.1666ZM22.7308 24.7963C22.7308 25.0724 22.5069 25.2963 22.2308 25.2963C21.9546 25.2963 21.7308 25.0724 21.7308 24.7963C21.7308 24.5201 21.9546 24.2963 22.2308 24.2963C22.5069 24.2963 22.7308 24.5201 22.7308 24.7963Z" stroke="black" stroke-width="1.5" stroke-linecap="round" stroke-linejoin="round"/>
</g>
</svg>
