<svg width="16" height="16" viewBox="0 0 16 16" fill="none" xmlns="http://www.w3.org/2000/svg">
<g id="Text=numbers-list, Size=16px, weight=regular">
<path id="numbers-list" d="M5.8077 11.06H12.75M5.8077 7.82001H12.75M5.8077 4.58002H12.75M3.98078 5.3V3.5L3.25001 4.04M4.34615 8.89998H3.25C3.25 8.35998 4.34615 7.63998 4.34615 7.27998C4.34615 6.91998 4.10077 6.73998 3.79808 6.73998C3.49538 6.73998 3.25 6.98175 3.25 7.27998M3.25 10.34H4.34615C4.34615 10.7386 3.79808 11.24 3.79808 11.24C4.08752 11.5526 4.34615 11.7692 4.34615 11.96C4.34615 12.32 4.10077 12.5 3.79808 12.5C3.49538 12.5 3.25 12.2582 3.25 11.96" stroke="black" stroke-width="1.5" stroke-linecap="round" stroke-linejoin="round"/>
</g>
</svg>
