<svg width="24" height="24" viewBox="0 0 24 24" fill="none" xmlns="http://www.w3.org/2000/svg">
<g id="Text=table-alternative, Size=24px, weight=light">
<g id="table-alternative">
<path id="Squircle" d="M13.008 4.5H10.992L10.9127 4.5C7.31704 4.4999 5.64434 4.49986 4.9433 6.3679C4.72784 6.94204 5.21747 7.5 5.8307 7.5H18.1693C18.7825 7.5 19.2721 6.94204 19.0567 6.3679C18.3556 4.49986 16.6829 4.4999 13.0872 4.5L13.008 4.5Z" stroke="black" stroke-linecap="round" stroke-linejoin="round"/>
<path id="Squircle_2" d="M13.008 19.5H10.992L10.9127 19.5C7.31704 19.5001 5.64434 19.5001 4.9433 17.6321C4.72784 17.058 5.21747 16.5 5.8307 16.5H18.1693C18.7825 16.5 19.2721 17.058 19.0567 17.6321C18.3556 19.5001 16.6829 19.5001 13.0872 19.5L13.008 19.5Z" stroke="black" stroke-linecap="round" stroke-linejoin="round"/>
<rect id="Rectangle 6" x="4.5" y="10.5" width="15" height="3" rx="1" stroke="black" stroke-linecap="round" stroke-linejoin="round"/>
</g>
</g>
</svg>
