<svg width="16" height="16" viewBox="0 0 16 16" fill="none" xmlns="http://www.w3.org/2000/svg">
<g id="Text=math, Size=16px, weight=regular">
<path id="math" d="M12.4999 4.75922H9.73072M12.4999 10.7407H9.73072M6.96154 4.75922H3.5M5.23069 3L5.23069 6.51852M6.61537 12.1481L3.84615 9.33333M6.61537 9.33331L3.84615 12.1481M11.3653 9.33331C11.3653 9.47138 11.2534 9.58331 11.1153 9.58331C10.9773 9.58331 10.8653 9.47138 10.8653 9.33331C10.8653 9.19524 10.9773 9.08331 11.1153 9.08331C11.2534 9.08331 11.3653 9.19524 11.3653 9.33331ZM11.3653 12.1481C11.3653 12.2862 11.2534 12.3981 11.1153 12.3981C10.9773 12.3981 10.8653 12.2862 10.8653 12.1481C10.8653 12.0101 10.9773 11.8981 11.1153 11.8981C11.2534 11.8981 11.3653 12.0101 11.3653 12.1481Z" stroke="black" stroke-width="1.5" stroke-linecap="round" stroke-linejoin="round"/>
</g>
</svg>
