<svg width="16" height="16" viewBox="0 0 16 16" fill="none" xmlns="http://www.w3.org/2000/svg">
<g id="Text=bullets-list, Size=16px, weight=light">
<path id="bullets-list" d="M6.61538 11.073H12.5M6.61538 7.95759H12.5M6.61538 4.84221H12.5M4.88462 4.84221C4.88462 5.22456 4.57466 5.53452 4.19231 5.53452C3.80996 5.53452 3.5 5.22456 3.5 4.84221C3.5 4.45986 3.80996 4.1499 4.19231 4.1499C4.57466 4.1499 4.88462 4.45986 4.88462 4.84221ZM4.88462 7.95759C4.88462 8.33995 4.57466 8.6499 4.19231 8.6499C3.80996 8.6499 3.5 8.33995 3.5 7.95759C3.5 7.57524 3.80996 7.26529 4.19231 7.26529C4.57466 7.26529 4.88462 7.57524 4.88462 7.95759ZM4.88462 11.073C4.88462 11.4553 4.57466 11.7653 4.19231 11.7653C3.80996 11.7653 3.5 11.4553 3.5 11.073C3.5 10.6906 3.80996 10.3807 4.19231 10.3807C4.57466 10.3807 4.88462 10.6906 4.88462 11.073Z" stroke="black" stroke-linecap="round" stroke-linejoin="round"/>
</g>
</svg>
