<svg width="32" height="32" viewBox="0 0 32 32" fill="none" xmlns="http://www.w3.org/2000/svg">
<g id="Text=bold, Size=32px, weight=regular">
<g id="bold">
<path d="M12.8262 10.4616H16.7375C17.6934 10.4616 18.4683 11.2364 18.4683 12.1923C18.4683 13.1482 17.6934 13.9231 16.7375 13.9231H12.8262V10.4616Z" stroke="black" stroke-width="1.5" stroke-linecap="round" stroke-linejoin="round"/>
<path d="M12.8262 18.0769H16.7375C17.6934 18.0769 18.4683 18.8518 18.4683 19.8077C18.4683 20.7636 17.6934 21.5385 16.7375 21.5385H12.8262V18.0769Z" stroke="black" stroke-width="1.5" stroke-linecap="round" stroke-linejoin="round"/>
<path d="M10.0051 7H17.0577C19.7842 7 21.9945 9.16972 21.9945 11.8462C21.9945 13.4746 21.1763 14.9154 19.9214 15.7941C21.5663 16.5803 22.6998 18.2372 22.6998 20.1538C22.6998 22.8303 20.4895 25 17.763 25H10.0051C9.61556 25 9.2998 24.69 9.2998 24.3077V7.69231C9.2998 7.30996 9.61556 7 10.0051 7Z" stroke="black" stroke-width="1.5" stroke-linecap="round" stroke-linejoin="round"/>
</g>
</g>
</svg>
