<svg width="24" height="24" viewBox="0 0 24 24" fill="none" xmlns="http://www.w3.org/2000/svg">
<g id="Text=bold, Size=24px, weight=regular">
<g id="bold">
<path d="M9.61987 7.84617H12.5534C13.2703 7.84617 13.8515 8.42733 13.8515 9.14424C13.8515 9.86115 13.2703 10.4423 12.5534 10.4423H9.61987V7.84617Z" stroke="black" stroke-width="1.5" stroke-linecap="round" stroke-linejoin="round"/>
<path d="M9.61987 13.5577H12.5534C13.2703 13.5577 13.8515 14.1389 13.8515 14.8558C13.8515 15.5727 13.2703 16.1538 12.5534 16.1538H9.61987V13.5577Z" stroke="black" stroke-width="1.5" stroke-linecap="round" stroke-linejoin="round"/>
<path d="M7.50404 5.25H12.7935C14.8384 5.25 16.4961 6.87729 16.4961 8.88462C16.4961 10.1059 15.8825 11.1865 14.9413 11.8456C16.175 12.4352 17.0251 13.6779 17.0251 15.1154C17.0251 17.1227 15.3674 18.75 13.3225 18.75H7.50404C7.21192 18.75 6.9751 18.5175 6.9751 18.2308V5.76923C6.9751 5.48247 7.21192 5.25 7.50404 5.25Z" stroke="black" stroke-width="1.5" stroke-linecap="round" stroke-linejoin="round"/>
</g>
</g>
</svg>
