<svg width="16" height="16" viewBox="0 0 16 16" fill="none" xmlns="http://www.w3.org/2000/svg">
<g id="Text=ancor, Size=16px, stroke width=1.5px">
<path id="ancor" d="M8 12.75V6.17308M8 12.75C10.2544 12.75 12.142 11.3003 12.6283 9.3557C12.7623 8.81991 12.3023 8.36538 11.75 8.36538H11.6538M8 12.75C5.7456 12.75 3.85801 11.3003 3.37166 9.35569C3.23766 8.81991 3.69772 8.36538 4.25 8.36538H4.34615M8 6.17308C8.80719 6.17308 9.46154 5.51872 9.46154 4.71154C9.46154 3.90435 8.80719 3.25 8 3.25C7.19281 3.25 6.53846 3.90435 6.53846 4.71154C6.53846 5.51872 7.19281 6.17308 8 6.17308Z" stroke="black" stroke-width="1.5" stroke-linecap="round" stroke-linejoin="round"/>
</g>
</svg>
