<svg width="24" height="24" viewBox="0 0 24 24" fill="none" xmlns="http://www.w3.org/2000/svg">
<g id="Text=cards, Size=24px, stroke width=1px">
<g id="cards">
<path id="Squircle" d="M8.976 4.5C5.29001 4.5 4.5 5.29001 4.5 8.976C4.5 9.81768 5.18232 10.5 6.024 10.5H17.976C18.8177 10.5 19.5 9.81768 19.5 8.976C19.5 5.29001 18.71 4.5 15.024 4.5H8.976Z" stroke="black" stroke-linecap="round" stroke-linejoin="round"/>
<g id="Squircle_2">
<path d="M15.024 19.5C18.71 19.5 19.5 18.71 19.5 15.024C19.5 14.1823 18.8177 13.5 17.976 13.5H14.9C14.1268 13.5 13.5 14.1268 13.5 14.9V18.1C13.5 18.8732 14.1268 19.5 14.9 19.5H15.024Z" stroke="black" stroke-linecap="round" stroke-linejoin="round"/>
<path d="M4.5 15.024C4.5 18.71 5.29001 19.5 8.976 19.5H9.1C9.8732 19.5 10.5 18.8732 10.5 18.1V14.9C10.5 14.1268 9.8732 13.5 9.1 13.5H6.024C5.18232 13.5 4.5 14.1823 4.5 15.024Z" stroke="black" stroke-linecap="round" stroke-linejoin="round"/>
</g>
</g>
</g>
</svg>
