<svg width="16" height="16" viewBox="0 0 16 16" fill="none" xmlns="http://www.w3.org/2000/svg">
<g id="Text=math, Size=16px, weight=light">
<path id="math" d="M12.4999 5.00922H9.73072M12.4999 10.9907H9.73072M6.96154 5.00922H3.5M5.23069 3.25L5.23069 6.76852M6.61537 12.3981L3.84615 9.58333M6.61537 9.58331L3.84615 12.3981M11.3653 9.58331C11.3653 9.72138 11.2534 9.83331 11.1153 9.83331C10.9773 9.83331 10.8653 9.72138 10.8653 9.58331C10.8653 9.44524 10.9773 9.33331 11.1153 9.33331C11.2534 9.33331 11.3653 9.44524 11.3653 9.58331ZM11.3653 12.3981C11.3653 12.5362 11.2534 12.6481 11.1153 12.6481C10.9773 12.6481 10.8653 12.5362 10.8653 12.3981C10.8653 12.2601 10.9773 12.1481 11.1153 12.1481C11.2534 12.1481 11.3653 12.2601 11.3653 12.3981Z" stroke="black" stroke-linecap="round" stroke-linejoin="round"/>
</g>
</svg>
