<svg width="16" height="16" viewBox="0 0 16 16" fill="none" xmlns="http://www.w3.org/2000/svg">
<g id="Text=cut, Size=16px, weight=regular">
<path id="cut" d="M9.09616 10.5577L4.34616 3.25M6.90384 10.5577L11.6538 3.25M12.75 10.9231C12.75 11.932 11.9321 12.75 10.9231 12.75C9.9141 12.75 9.09616 11.932 9.09616 10.9231C9.09616 9.91408 9.9141 9.09614 10.9231 9.09614C11.9321 9.09614 12.75 9.91408 12.75 10.9231ZM6.90385 10.9231C6.90385 11.932 6.0859 12.75 5.07692 12.75C4.06794 12.75 3.25 11.932 3.25 10.9231C3.25 9.91408 4.06794 9.09614 5.07692 9.09614C6.0859 9.09614 6.90385 9.91408 6.90385 10.9231Z" stroke="black" stroke-width="1.5" stroke-linecap="round" stroke-linejoin="round"/>
</g>
</svg>
