<svg width="24" height="24" viewBox="0 0 24 24" fill="none" xmlns="http://www.w3.org/2000/svg">
<g id="Text=bullets-list, Size=24px, stroke width=1px">
<path id="bullets-list" d="M9.92308 16.6097H18.75M9.92308 11.9366H18.75M9.92308 7.2635H18.75M7.32692 7.2635C7.32692 7.83702 6.86199 8.30196 6.28846 8.30196C5.71494 8.30196 5.25 7.83702 5.25 7.2635C5.25 6.68997 5.71494 6.22504 6.28846 6.22504C6.86199 6.22504 7.32692 6.68997 7.32692 7.2635ZM7.32692 11.9366C7.32692 12.5101 6.86199 12.975 6.28846 12.975C5.71494 12.975 5.25 12.5101 5.25 11.9366C5.25 11.363 5.71494 10.8981 6.28846 10.8981C6.86199 10.8981 7.32692 11.363 7.32692 11.9366ZM7.32692 16.6097C7.32692 17.1832 6.86199 17.6481 6.28846 17.6481C5.71494 17.6481 5.25 17.1832 5.25 16.6097C5.25 16.0361 5.71494 15.5712 6.28846 15.5712C6.86199 15.5712 7.32692 16.0361 7.32692 16.6097Z" stroke="black" stroke-linecap="round" stroke-linejoin="round"/>
</g>
</svg>
