<svg width="32" height="32" viewBox="0 0 32 32" fill="none" xmlns="http://www.w3.org/2000/svg">
<g id="Text=math, Size=32px, weight=light">
<path id="math" d="M24.9999 10.0184H19.4614M24.9999 21.9814H19.4614M13.9231 10.0184H7M10.4614 6.5L10.4614 13.537M13.2307 24.7963L7.69229 19.1667M13.2307 19.1666L7.69229 24.7962M22.7307 19.1666C22.7307 19.4428 22.5068 19.6666 22.2307 19.6666C21.9545 19.6666 21.7307 19.4428 21.7307 19.1666C21.7307 18.8905 21.9545 18.6666 22.2307 18.6666C22.5068 18.6666 22.7307 18.8905 22.7307 19.1666ZM22.7307 24.7963C22.7307 25.0724 22.5068 25.2963 22.2307 25.2963C21.9545 25.2963 21.7307 25.0724 21.7307 24.7963C21.7307 24.5201 21.9545 24.2963 22.2307 24.2963C22.5068 24.2963 22.7307 24.5201 22.7307 24.7963Z" stroke="black" stroke-linecap="round" stroke-linejoin="round"/>
</g>
</svg>
