<svg width="24" height="24" viewBox="0 0 24 24" fill="none" xmlns="http://www.w3.org/2000/svg">
<g id="Text=math, Size=24px, stroke width=1.5px">
<path id="math" d="M18.7499 7.51382H14.5961M18.7499 16.4861H14.5961M10.4423 7.51382H5.25M7.84604 4.875L7.84604 10.1528M9.92305 18.5972L5.76922 14.375M9.92305 14.375L5.76922 18.5972M17.048 14.375C17.048 14.5821 16.8801 14.75 16.673 14.75C16.4659 14.75 16.298 14.5821 16.298 14.375C16.298 14.1679 16.4659 14 16.673 14C16.8801 14 17.048 14.1679 17.048 14.375ZM17.048 18.5972C17.048 18.8043 16.8801 18.9722 16.673 18.9722C16.4659 18.9722 16.298 18.8043 16.298 18.5972C16.298 18.3901 16.4659 18.2222 16.673 18.2222C16.8801 18.2222 17.048 18.3901 17.048 18.5972Z" stroke="black" stroke-width="1.5" stroke-linecap="round" stroke-linejoin="round"/>
</g>
</svg>
