<svg width="16" height="16" viewBox="0 0 16 16" fill="none" xmlns="http://www.w3.org/2000/svg">
<g id="Text=table-alternative, Size=16px, weight=light">
<g id="table-alternative">
<path id="Squircle" d="M8.67199 3H7.32799L7.27516 3C5.12764 2.99994 4.00903 2.99991 3.46332 3.89533C3.14419 4.41898 3.66278 5 4.27602 5H11.724C12.3372 5 12.8558 4.41898 12.5367 3.89533C11.9909 2.99991 10.8723 2.99994 8.72482 3L8.67199 3Z" stroke="black" stroke-linecap="round" stroke-linejoin="round"/>
<path id="Squircle_2" d="M8.67199 13H7.32799L7.27516 13C5.12764 13.0001 4.00903 13.0001 3.46332 12.1047C3.14419 11.581 3.66278 11 4.27602 11H11.724C12.3372 11 12.8558 11.581 12.5367 12.1047C11.9909 13.0001 10.8723 13.0001 8.72482 13L8.67199 13Z" stroke="black" stroke-linecap="round" stroke-linejoin="round"/>
<rect id="Rectangle 6" x="3" y="7" width="10" height="2" rx="1" stroke="black" stroke-linecap="round" stroke-linejoin="round"/>
</g>
</g>
</svg>
