<svg width="24" height="24" viewBox="0 0 24 24" fill="none" xmlns="http://www.w3.org/2000/svg">
<g id="Text=cut, Size=24px, stroke width=1px">
<path id="cut" d="M13.6442 15.8365L6.51924 4.875M10.3558 15.8365L17.4808 4.875M19.125 16.3846C19.125 17.8981 17.8981 19.125 16.3846 19.125C14.8712 19.125 13.6442 17.8981 13.6442 16.3846C13.6442 14.8711 14.8712 13.6442 16.3846 13.6442C17.8981 13.6442 19.125 14.8711 19.125 16.3846ZM10.3558 16.3846C10.3558 17.8981 9.12886 19.125 7.61538 19.125C6.10191 19.125 4.875 17.8981 4.875 16.3846C4.875 14.8711 6.10191 13.6442 7.61538 13.6442C9.12886 13.6442 10.3558 14.8711 10.3558 16.3846Z" stroke="black" stroke-linecap="round" stroke-linejoin="round"/>
</g>
</svg>
