<svg width="32" height="32" viewBox="0 0 32 32" fill="none" xmlns="http://www.w3.org/2000/svg">
<g id="Text=bold, Size=32px, stroke width=1px">
<g id="bold">
<path d="M12.8264 10.4616H16.7378C17.6936 10.4616 18.4685 11.2364 18.4685 12.1923C18.4685 13.1482 17.6936 13.9231 16.7378 13.9231H12.8264V10.4616Z" stroke="black" stroke-linecap="round" stroke-linejoin="round"/>
<path d="M12.8264 18.0769H16.7378C17.6936 18.0769 18.4685 18.8518 18.4685 19.8077C18.4685 20.7636 17.6936 21.5385 16.7378 21.5385H12.8264V18.0769Z" stroke="black" stroke-linecap="round" stroke-linejoin="round"/>
<path d="M10.0053 7H17.0579C19.7845 7 21.9948 9.16972 21.9948 11.8462C21.9948 13.4746 21.1765 14.9154 19.9216 15.7941C21.5665 16.5803 22.7 18.2372 22.7 20.1538C22.7 22.8303 20.4897 25 17.7632 25H10.0053C9.61581 25 9.30005 24.69 9.30005 24.3077V7.69231C9.30005 7.30996 9.61581 7 10.0053 7Z" stroke="black" stroke-linecap="round" stroke-linejoin="round"/>
</g>
</g>
</svg>
