<svg width="16" height="16" viewBox="0 0 16 16" fill="none" xmlns="http://www.w3.org/2000/svg">
<g id="Time=calendar-date, Size=16px, weight=light">
<path id="calendar-date" d="M12.75 6.53846H3.25M5.80769 4.71154V3.25M10.1923 4.71154L10.1923 3.25M5.44231 8.73077H6.17308M7.63461 8.73077H8.36538M9.82692 8.73077H10.5577M5.44231 10.5577H6.17308M7.63461 10.5577H8.36538M9.82692 10.5577H10.5577M3.25 5.44231L3.25 11.2885C3.25 12.0956 3.90435 12.75 4.71154 12.75L11.2885 12.75C12.0956 12.75 12.75 12.0956 12.75 11.2885V5.44232C12.75 4.63514 12.0956 3.98079 11.2885 3.98079L4.71154 3.98077C3.90435 3.98077 3.25 4.63512 3.25 5.44231Z" stroke="black" stroke-linecap="round" stroke-linejoin="round"/>
</g>
</svg>
