<svg width="24" height="24" viewBox="0 0 24 24" fill="none" xmlns="http://www.w3.org/2000/svg">
<g id="Time=calendar-date, Size=24px, weight=light">
<path id="calendar-date" d="M19.125 9.80769H4.875M8.71154 7.06731V4.875M15.2885 7.06731L15.2885 4.875M8.16346 13.0962H9.25961M11.4519 13.0962H12.5481M14.7404 13.0962H15.8365M8.16346 15.8365H9.25961M11.4519 15.8365H12.5481M14.7404 15.8365H15.8365M4.875 8.16347L4.875 16.9327C4.875 18.1435 5.85653 19.125 7.06731 19.125L16.9327 19.125C18.1435 19.125 19.125 18.1435 19.125 16.9327V8.16349C19.125 6.95271 18.1435 5.97118 16.9327 5.97118L7.06731 5.97116C5.85653 5.97116 4.875 6.95269 4.875 8.16347Z" stroke="black" stroke-linecap="round" stroke-linejoin="round"/>
</g>
</svg>
