<svg width="24" height="24" viewBox="0 0 24 24" fill="none" xmlns="http://www.w3.org/2000/svg">
<g id="Time=calendar-add, Size=24px, weight=regular">
<path id="calendar-add" d="M19.125 9.43269L5.42308 9.43269M8.71154 6.69231V4.5M15.2885 6.69231L15.2885 4.5M12 11.625L12 13.8173M12 13.8173L12 16.0096M12 13.8173L9.80769 13.8173M12 13.8173H14.1923M4.875 7.78847L4.875 16.5577C4.875 17.7685 5.85653 18.75 7.06731 18.75L16.9327 18.75C18.1435 18.75 19.125 17.7685 19.125 16.5577V7.78849C19.125 6.57771 18.1435 5.59618 16.9327 5.59618L7.06731 5.59616C5.85653 5.59616 4.875 6.57769 4.875 7.78847Z" stroke="black" stroke-width="1.5" stroke-linecap="round" stroke-linejoin="round"/>
</g>
</svg>
