<svg width="32" height="32" viewBox="0 0 32 32" fill="none" xmlns="http://www.w3.org/2000/svg">
<g id="Travel=room, Size=32px, stroke width=1.5px">
<path id="room" d="M14.4092 19.6502L15.824 20.7825L17.6311 18.4716M21.5 10.9294V10.9029C21.4912 9.47039 20.91 8.09919 19.8829 7.08744C18.8559 6.0757 17.4658 5.50521 16.0151 5.5C13.1888 5.5 10.9861 7.23477 10.671 9.94617C10.6562 10.0911 10.6717 10.2374 10.7166 10.3762C10.7615 10.5149 10.8348 10.643 10.932 10.7526C11.0291 10.8622 11.1481 10.9509 11.2814 11.0132C11.4147 11.0755 11.5595 11.1101 11.7069 11.1148C11.9981 11.1534 12.2943 11.1253 12.5727 11.0329C12.8512 10.9405 13.1044 10.7862 13.3129 10.5818C13.4849 10.3801 13.6302 10.1576 13.7453 9.91969C14.2751 8.5524 14.9724 8.23127 16.0922 8.37362C16.4051 8.39256 16.709 8.48507 16.9784 8.64343C17.2478 8.80179 17.4751 9.02142 17.6411 9.28404C18.7575 11.4525 16.5046 12.694 16.5046 12.694C14.2047 13.8229 12.0959 15.0512 12.0959 15.0512C12.0959 15.0512 11.3918 15.4915 11.3985 15.4915C10.6006 16.0708 10.5 16.7892 10.5 17.5606V23.5535C10.5018 24.3339 10.8162 25.0818 11.3747 25.6339C11.9332 26.186 12.6903 26.4974 13.4805 26.5H18.5094C19.2997 26.4974 20.0568 26.186 20.6152 25.6339C21.1737 25.0818 21.4882 24.3339 21.4899 23.5535V10.9327L21.5 10.9294ZM19.4717 19.7829C19.4717 20.462 19.2675 21.1258 18.8851 21.6901C18.5027 22.2545 17.9593 22.6941 17.3236 22.9532C16.688 23.2123 15.9887 23.2793 15.3145 23.1456C14.6403 23.0119 14.0215 22.6836 13.5364 22.2023C13.0513 21.7209 12.7218 21.1083 12.5897 20.4419C12.4576 19.7755 12.5288 19.0853 12.7942 18.4589C13.0597 17.8325 13.5075 17.298 14.0809 16.9231C14.6543 16.5482 15.3274 16.3499 16.0151 16.3531C16.9334 16.3575 17.8125 16.7208 18.4603 17.3635C19.108 18.0063 19.4717 18.8762 19.4717 19.7829Z" stroke="black" stroke-width="1.5" stroke-miterlimit="10" stroke-linecap="round" stroke-linejoin="round"/>
</g>
</svg>
