<svg width="16" height="16" viewBox="0 0 16 16" fill="none" xmlns="http://www.w3.org/2000/svg">
<g id="Travel=rest, Size=16px, stroke width=1.5px">
<path id="rest" d="M4.6087 8.14087C4.91382 7.59359 5.26278 7.07177 5.65217 6.5805C6.0513 6.15139 6.46609 6.06037 7.73913 6.06037C9.01217 6.06037 11.5374 6.5805 12.1896 6.76774C12.8417 6.95498 12.9565 7.18904 12.9565 7.62074V8.14087M4.6087 8.14087L6.69565 10.7198H7.21739C7.21739 10.7198 9.56522 8.14087 10.6087 8.14087H12.9565M4.6087 8.14087H2M12.9565 8.14087H14M14 5.80031V11.7021C14 11.8666 13.8666 12 13.7021 12V12C13.5695 12 13.4529 11.9124 13.416 11.785L12.9565 10.1997H8M2 4.5V8.14087M2 8.14087V11.7021C2 11.8666 2.13338 12 2.29791 12V12C2.4305 12 2.54714 11.9124 2.58404 11.785L3.04348 10.1997H6.17391M5.34174 6.97059C5.23994 6.76343 5.07875 6.59106 4.87859 6.47531C4.67843 6.35957 4.44831 6.30567 4.21739 6.32043C3.56783 6.32043 3.04348 6.5805 3.04348 7.23065V7.62074C3.05523 7.75475 3.11398 7.88035 3.2094 7.97547C3.30481 8.07059 3.43079 8.12915 3.56522 8.14087" stroke="black" stroke-width="1.5" stroke-miterlimit="10" stroke-linecap="round" stroke-linejoin="round"/>
</g>
</svg>
