<svg width="24" height="24" viewBox="0 0 24 24" fill="none" xmlns="http://www.w3.org/2000/svg">
<g id="Travel=bed, Size=24px, stroke width=1.5px">
<path id="Vector" d="M18.6 10.1379V7.65517C18.6 6.74105 17.8613 6 16.95 6H7.05C6.13873 6 5.4 6.74105 5.4 7.65517V10.1379M5.4 16.3448V18M18.6 16.3448V18M7.4625 10.1379V8.89655C7.4625 8.43949 7.83187 8.06897 8.2875 8.06897H9.9375C10.3931 8.06897 10.7625 8.43949 10.7625 8.89655V10.1379M13.2375 10.1379V8.89655C13.2375 8.43949 13.6069 8.06897 14.0625 8.06897H15.7125C16.1681 8.06897 16.5375 8.43949 16.5375 8.89655V10.1379M4.575 15.931H19.425C19.8806 15.931 20.25 15.5605 20.25 15.1034V12.6207C20.25 12.1636 19.8806 11.7931 19.425 11.7931H4.575C4.11937 11.7931 3.75 12.1636 3.75 12.6207V15.1034C3.75 15.5605 4.11937 15.931 4.575 15.931Z" stroke="black" stroke-width="1.5" stroke-linecap="round" stroke-linejoin="round"/>
</g>
</svg>
