<svg width="24" height="24" viewBox="0 0 24 24" fill="none" xmlns="http://www.w3.org/2000/svg">
<g id="Travel=train, Size=24px, weight=regular">
<path id="Vector" d="M8.9625 17.9063L6.9375 19.875M15.0375 17.9063L17.0625 19.875M9.3 6.09375H14.7M7.6125 19.2188H16.3875M16.05 17.9063C17.5417 17.9063 18.75 16.7316 18.75 15.2813V7.73438C18.75 6.15609 18.4125 4.125 12 4.125C5.5875 4.125 5.25 6.15609 5.25 7.73438V15.2813C5.25 16.7316 6.45825 17.9063 7.95 17.9063H16.05ZM8.9625 14.2969C8.9625 14.8405 8.50919 15.2813 7.95 15.2813C7.39081 15.2813 6.9375 14.8405 6.9375 14.2969C6.9375 13.7532 7.39081 13.3125 7.95 13.3125C8.50919 13.3125 8.9625 13.7532 8.9625 14.2969ZM17.0625 14.2969C17.0625 14.8405 16.6092 15.2813 16.05 15.2813C15.4908 15.2813 15.0375 14.8405 15.0375 14.2969C15.0375 13.7532 15.4908 13.3125 16.05 13.3125C16.6092 13.3125 17.0625 13.7532 17.0625 14.2969ZM6.6 7.40625H17.4V12H6.6V7.40625Z" stroke="black" stroke-width="1.5" stroke-linecap="round" stroke-linejoin="round"/>
</g>
</svg>
