<svg width="32" height="32" viewBox="0 0 32 32" fill="none" xmlns="http://www.w3.org/2000/svg">
<g id="Travel=train, Size=32px, weight=light">
<path id="Vector" d="M11.95 23.875L9.25 26.5M20.05 23.875L22.75 26.5M12.4 8.125H19.6M10.15 25.625H21.85M21.4 23.875C23.389 23.875 25 22.3088 25 20.375V10.3125C25 8.20813 24.55 5.5 16 5.5C7.45 5.5 7 8.20813 7 10.3125V20.375C7 22.3088 8.611 23.875 10.6 23.875H21.4ZM11.95 19.0625C11.95 19.7874 11.3456 20.375 10.6 20.375C9.85442 20.375 9.25 19.7874 9.25 19.0625C9.25 18.3376 9.85442 17.75 10.6 17.75C11.3456 17.75 11.95 18.3376 11.95 19.0625ZM22.75 19.0625C22.75 19.7874 22.1456 20.375 21.4 20.375C20.6544 20.375 20.05 19.7874 20.05 19.0625C20.05 18.3376 20.6544 17.75 21.4 17.75C22.1456 17.75 22.75 18.3376 22.75 19.0625ZM8.8 9.875H23.2V16H8.8V9.875Z" stroke="black" stroke-linecap="round" stroke-linejoin="round"/>
</g>
</svg>
