<svg width="32" height="32" viewBox="0 0 32 32" fill="none" xmlns="http://www.w3.org/2000/svg">
<g id="Travel=bus, Size=32px, stroke width=1.5px">
<path id="Vector" d="M13.36 7.73913H18.64M6.76 9.47826H25.24M12.48 21.2174H19.52M21.72 23.8261V25.1304C21.72 25.6087 22.116 26 22.6 26H23.48C23.964 26 24.36 25.6087 24.36 25.1304V23.8261M24.36 23.8261C24.844 23.8261 25.24 23.4348 25.24 22.9565V8.6087C25.24 7.16957 24.0564 6 22.6 6H9.4C7.9436 6 6.76 7.16957 6.76 8.6087V22.9565C6.76 23.4348 7.156 23.8261 7.64 23.8261M24.36 23.8261H7.64M7.64 23.8261V25.1304C7.64 25.6087 8.036 26 8.52 26H9.4C9.884 26 10.28 25.6087 10.28 25.1304V23.8261M6.76 14.6957H5.88C5.396 14.6957 5 14.3043 5 13.8261V11.2174C5 10.7391 5.396 10.3478 5.88 10.3478H6.76M25.24 10.3478H26.12C26.604 10.3478 27 10.7391 27 11.2174V13.8261C27 14.3043 26.604 14.6957 26.12 14.6957H25.24M6.76 17.3043L7.4024 17.5174C7.8512 17.6652 8.322 17.7391 8.7928 17.7391H23.2028C23.6736 17.7391 24.1444 17.6652 24.5932 17.5174L25.2356 17.3043M9.84 21.2174C9.84 21.6976 9.44601 22.087 8.96 22.087C8.47399 22.087 8.08 21.6976 8.08 21.2174C8.08 20.7371 8.47399 20.3478 8.96 20.3478C9.44601 20.3478 9.84 20.7371 9.84 21.2174ZM23.92 21.2174C23.92 21.6976 23.526 22.087 23.04 22.087C22.554 22.087 22.16 21.6976 22.16 21.2174C22.16 20.7371 22.554 20.3478 23.04 20.3478C23.526 20.3478 23.92 20.7371 23.92 21.2174Z" stroke="black" stroke-width="1.5" stroke-linecap="round" stroke-linejoin="round"/>
</g>
</svg>
