<svg width="16" height="16" viewBox="0 0 16 16" fill="none" xmlns="http://www.w3.org/2000/svg">
<g id="Travel=yacht, Size=16px, stroke width=1.5px">
<path id="Vector" d="M2.66082 9.75331C2.77856 9.43461 2.88235 9.21402 2.94804 9.08612C2.99322 8.99815 3.07292 8.9345 3.16979 8.9037C7.14746 7.63931 14 7.84346 14 7.84346C14 7.84346 13.2474 8.7634 12.1891 9.84118M6.45525 6.96675C7.21801 6.82041 8.8782 6.67454 9.69047 6.67454C9.11527 6.21793 7.93828 5.36787 6.63411 5.55479C6.63411 5.55479 4.65658 5.83183 3.16979 6.32167L5.15897 6.55813M4.62076 5.89255L4.03187 5.06528M4.54795 6.50765C4.54795 6.50765 4.47828 6.92939 4.24278 7.57205M2 10.1176C2 10.1176 2.77354 10.9781 3.84123 10.1176H3.85317C3.85317 10.1176 4.62641 10.9781 5.6941 10.1176H5.70546C5.70546 10.1176 6.4787 10.9781 7.54698 10.1176H7.55804C7.55804 10.1176 8.33129 10.9781 9.39927 10.1176H9.41034C9.41034 10.1176 10.1836 10.9781 11.2516 10.1176H11.2626C11.2626 10.1176 12.0359 10.9781 13.1039 10.1176" stroke="black" stroke-width="1.5" stroke-linecap="round" stroke-linejoin="round"/>
</g>
</svg>
