<svg width="32" height="32" viewBox="0 0 32 32" fill="none" xmlns="http://www.w3.org/2000/svg">
<g id="Travel=beach-chair, Size=32px, weight=regular">
<g id="beach-chair">
<path id="Vector" d="M5.00684 15.9715C5.00684 12.3385 8.16012 8.98943 12.578 8.1995C16.996 7.40956 21.1517 9.45621 22.4396 12.8575" stroke="black" stroke-width="1.5" stroke-miterlimit="10" stroke-linecap="round" stroke-linejoin="round"/>
<path id="Vector_2" d="M10.0552 15.2603C10.0552 15.2603 7.8612 13.9546 5 15.9425" stroke="black" stroke-width="1.5" stroke-miterlimit="10" stroke-linecap="round" stroke-linejoin="round"/>
<path id="Vector_3" d="M17.1953 13.9417C17.1953 13.9417 18.8749 11.8918 22.4265 12.858" stroke="black" stroke-width="1.5" stroke-miterlimit="10" stroke-linecap="round" stroke-linejoin="round"/>
<path id="Vector_4" d="M17.1946 13.9414C17.1946 13.9414 13.0123 12.5704 10.0449 15.2471" stroke="black" stroke-width="1.5" stroke-miterlimit="10" stroke-linecap="round" stroke-linejoin="round"/>
<path id="Vector_5" d="M12.3757 8.23926C12.3757 8.23926 9.40496 9.69182 10.0522 15.2148" stroke="black" stroke-width="1.5" stroke-miterlimit="10" stroke-linecap="round" stroke-linejoin="round"/>
<path id="Vector_6" d="M12.3916 8.25488C12.3916 8.25488 15.8038 8.49644 17.1713 13.8889" stroke="black" stroke-width="1.5" stroke-miterlimit="10" stroke-linecap="round" stroke-linejoin="round"/>
<path id="Vector_7" d="M12.1361 6.30031L12.083 6" stroke="black" stroke-width="1.5" stroke-miterlimit="10" stroke-linecap="round" stroke-linejoin="round"/>
<path id="Vector_8" d="M12.2457 6.89439L12.083 6" stroke="black" stroke-width="1.5" stroke-miterlimit="10" stroke-linecap="round" stroke-linejoin="round"/>
<path id="Vector_9" d="M15.3066 24.4658L15.5987 26" stroke="black" stroke-width="1.5" stroke-miterlimit="10" stroke-linecap="round" stroke-linejoin="round"/>
<path id="Vector_10" d="M15.4258 25.1016L15.5984 25.9992" stroke="black" stroke-width="1.5" stroke-miterlimit="10" stroke-linecap="round" stroke-linejoin="round"/>
<path id="Vector_11" d="M13.5439 15.1362L14.7887 21.7234" stroke="black" stroke-width="1.5" stroke-miterlimit="10" stroke-linecap="round" stroke-linejoin="round"/>
<path id="Vector_12" d="M27.0001 16.2007L23.6079 23.0783H7.87793" stroke="black" stroke-width="1.5" stroke-linecap="round" stroke-linejoin="round"/>
<path id="Vector_13" d="M17.9619 20.3398H24.9523" stroke="black" stroke-width="1.5" stroke-linecap="round" stroke-linejoin="round"/>
<path id="Vector_14" d="M9.30859 25.9863L11.0778 23.0845" stroke="black" stroke-width="1.5" stroke-linecap="round" stroke-linejoin="round"/>
<path id="Vector_15" d="M18.8115 23.0587L20.4711 20.356" stroke="black" stroke-width="1.5" stroke-linecap="round" stroke-linejoin="round"/>
<path id="Vector_16" d="M25.0246 25.9863L23.2588 23.0845" stroke="black" stroke-width="1.5" stroke-linecap="round" stroke-linejoin="round"/>
</g>
</g>
</svg>
