<svg width="16" height="16" viewBox="0 0 16 16" fill="none" xmlns="http://www.w3.org/2000/svg">
<g id="Travel=airplane, Size=16px, weight=light">
<path id="airplane" d="M10.2759 7.48005C10.7798 7.48041 11.2919 7.48078 11.937 7.48124C12.363 7.47809 13.5 7.82781 13.5 8.25001C13.508 8.68008 12.3678 9.0172 11.9418 9.01405H9.89285L9.67584 9.01879L6.88648 13.6095C6.7653 13.809 6.48983 13.8433 6.32348 13.6796C6.22826 13.5859 6.19239 13.4474 6.23016 13.3193L6.9327 10.9368C7.00064 10.7064 7.03502 10.4674 7.03478 10.2272L7.03354 9.01879L6.85788 9.01405H5.09729C4.94454 9.01405 4.80017 9.08387 4.70533 9.20361L3.78953 10.3599C3.6937 10.4809 3.53106 10.5268 3.38613 10.4737C3.21388 10.4106 3.11731 10.2274 3.16258 10.0496L3.46305 8.86956C3.47969 8.80421 3.44175 8.73739 3.3771 8.7182C2.88621 8.5916 2.49935 8.43012 2.5 8.24528C2.50063 8.06519 2.8681 7.90729 3.34083 7.78219C3.5488 7.72716 3.45223 7.54856 3.39915 7.34008L3.16239 6.41025C3.11724 6.23293 3.21356 6.05021 3.38537 5.98726C3.5306 5.93405 3.69357 5.98049 3.78894 6.10226L4.71511 7.28481C4.80988 7.40582 4.95504 7.47651 5.10875 7.47651L6.54523 7.47739L7.04476 7.48287V6.27158C7.04476 6.03221 7.01038 5.79409 6.94268 5.56449L6.23978 3.18077C6.202 3.05266 6.23788 2.91415 6.3331 2.82048C6.49945 2.65683 6.77492 2.69111 6.89609 2.89053L9.68546 7.48129H10.2759" stroke="black" stroke-linecap="round" stroke-linejoin="round"/>
</g>
</svg>
