<svg width="16" height="16" viewBox="0 0 16 16" fill="none" xmlns="http://www.w3.org/2000/svg">
<g id="Travel=seats, Size=16px, weight=regular">
<path id="seats" d="M6.89542 11.2513L6.12121 12.7844C6.10977 12.8071 6.10432 12.8323 6.10538 12.8576C6.10643 12.883 6.11396 12.9076 6.12725 12.9292C6.14054 12.9508 6.15914 12.9687 6.18128 12.9811C6.20342 12.9935 6.22837 13 6.25374 13H11.1432C11.1685 13 11.1935 12.9935 11.2156 12.9811C11.2378 12.9687 11.2564 12.9508 11.2697 12.9292C11.2829 12.9076 11.2905 12.883 11.2915 12.8576C11.2926 12.8323 11.2871 12.8071 11.2757 12.7844L10.5015 11.2513M6.20501 7.11653H8.96845C9.01574 7.11653 9.06109 7.13532 9.09452 7.16875C9.12796 7.20219 9.14674 7.24754 9.14674 7.29482V7.85939C9.14674 7.90668 9.12796 7.95203 9.09452 7.98546C9.06109 8.0189 9.01574 8.03768 8.96845 8.03768H6.41301M4.28843 3.76891L4.84869 3.18338C4.91806 3.11091 5.00464 3.05717 5.10038 3.02718C5.19612 2.99718 5.29789 2.99192 5.39621 3.01187C5.49453 3.03182 5.5862 3.07633 5.66268 3.14126C5.73915 3.20619 5.79795 3.28943 5.83358 3.38321L6.53261 5.22284C6.55874 5.29179 6.55829 5.36801 6.53135 5.43665C6.50441 5.5053 6.45291 5.56148 6.38686 5.59427L5.97428 5.79885C5.91041 5.83052 5.86005 5.88409 5.8324 5.94979C5.80474 6.0155 5.80163 6.08895 5.82362 6.15676L6.81416 9.21141C6.85678 9.34278 6.93993 9.45728 7.05166 9.53847C7.16339 9.61967 7.29796 9.66339 7.43608 9.66336H11.5066C11.8606 9.66336 12.0732 10.0562 11.8798 10.3527L11.4718 10.9778C11.4178 11.0605 11.344 11.1285 11.2571 11.1756C11.1702 11.2227 11.0729 11.2473 10.9741 11.2473H6.80643C6.61859 11.2472 6.43558 11.1878 6.2835 11.0776C6.13142 10.9674 6.01805 10.8119 5.95957 10.6334L4.05175 4.81174C3.99308 4.63277 3.98411 4.44124 4.02579 4.25757C4.06748 4.07391 4.15825 3.90501 4.28843 3.76891Z" stroke="black" stroke-width="1.5" stroke-miterlimit="10" stroke-linecap="round" stroke-linejoin="round"/>
</g>
</svg>
