<svg width="32" height="32" viewBox="0 0 32 32" fill="none" xmlns="http://www.w3.org/2000/svg">
<g id="Travel=hotel, Size=32px, stroke width=1px">
<g id="hotel">
<path id="Vector" d="M13.9443 27C13.9443 20.4165 13.9443 12.1418 13.9443 12.1418C13.9443 11.8466 14.0638 11.5635 14.2764 11.3548C14.489 11.1461 14.7774 11.0288 15.0781 11.0288H24.8665C25.1672 11.0288 25.4556 11.1461 25.6682 11.3548C25.8808 11.5635 26.0003 11.8466 26.0003 12.1418C26.0003 12.1418 26.0003 20.4165 26.0003 27" stroke="black" stroke-linecap="round" stroke-linejoin="round"/>
<path id="Vector_2" d="M6 26.9998V20.8044C6 20.5092 6.11945 20.2261 6.33208 20.0174C6.54471 19.8087 6.83309 19.6914 7.13379 19.6914H12.0166" stroke="black" stroke-linecap="round" stroke-linejoin="round"/>
<path id="Vector_3" d="M17.7762 8.87323V5" stroke="black" stroke-miterlimit="10" stroke-linecap="round" stroke-linejoin="round"/>
<path id="Vector_4" d="M22.1641 8.87323V5" stroke="black" stroke-miterlimit="10" stroke-linecap="round" stroke-linejoin="round"/>
<path id="Vector_5" d="M21.9826 6.93652H17.9728" stroke="black" stroke-miterlimit="10" stroke-linecap="round" stroke-linejoin="round"/>
<path id="Vector_6" d="M16.1924 13.9077H23.7472" stroke="black" stroke-miterlimit="10" stroke-linecap="round" stroke-linejoin="round"/>
<path id="Vector_7" d="M16.1924 16.7793H23.7472" stroke="black" stroke-miterlimit="10" stroke-linecap="round" stroke-linejoin="round"/>
<path id="Vector_8" d="M16.1924 19.6543H23.7472" stroke="black" stroke-miterlimit="10" stroke-linecap="round" stroke-linejoin="round"/>
<path id="Vector_9" d="M16.1924 22.5259H23.7472" stroke="black" stroke-miterlimit="10" stroke-linecap="round" stroke-linejoin="round"/>
<path id="Vector_10" d="M16.1924 25.3975H23.7472" stroke="black" stroke-miterlimit="10" stroke-linecap="round" stroke-linejoin="round"/>
<path id="Vector_11" d="M8.08203 22.5259H12.0125" stroke="black" stroke-miterlimit="10" stroke-linecap="round" stroke-linejoin="round"/>
<path id="Vector_12" d="M8.08203 25.3975H12.0125" stroke="black" stroke-miterlimit="10" stroke-linecap="round" stroke-linejoin="round"/>
</g>
</g>
</svg>
