<svg width="24" height="24" viewBox="0 0 24 24" fill="none" xmlns="http://www.w3.org/2000/svg">
<g id="Travel=bill, Size=24px, weight=light">
<path id="bill" d="M15.75 15V4.5L14.5313 5.625L13.3125 4.5L12.0938 5.625L10.875 4.5L9.65625 5.625L8.4375 4.5L7.21875 5.625L6 4.5V16.5C6 17.7426 7.00736 18.75 8.25 18.75M8.25 18.75C9.49264 18.75 10.5 17.7426 10.5 16.5H19.125C19.125 17.7426 18.1176 18.75 16.875 18.75H8.25ZM8.25 12.975H13.125M8.25 14.625H12.375M10.975 7.89841H10.2875C9.90784 7.89841 9.60004 8.18698 9.60004 8.54295C9.60004 8.89892 9.90784 9.18748 10.2875 9.18748H11.6625C12.0422 9.18748 12.35 9.47605 12.35 9.83202C12.35 10.188 12.0422 10.4766 11.6625 10.4766H10.975M10.975 7.89841H12.35M10.975 7.89841V7.125M10.975 10.4766H9.60004M10.975 10.4766V11.25" stroke="black" stroke-miterlimit="10" stroke-linecap="round" stroke-linejoin="round"/>
</g>
</svg>
