<svg width="32" height="32" viewBox="0 0 32 32" fill="none" xmlns="http://www.w3.org/2000/svg">
<g id="Travel=swimming-pool, Size=32px, weight=light">
<path id="swimming-pool" d="M13.0933 9.74234H18.64M13.0933 12.9088H18.6567M8.33333 18.9416L9.73216 17.5171C9.7981 17.4478 9.87871 17.3924 9.96874 17.3545C10.0588 17.3166 10.1562 17.297 10.2548 17.297C10.3534 17.297 10.4508 17.3166 10.5408 17.3545C10.6309 17.3924 10.7115 17.4478 10.7774 17.5171L11.6037 18.3747C11.6703 18.4435 11.7513 18.4985 11.8416 18.5361C11.9319 18.5738 12.0295 18.5932 12.1282 18.5932C12.2269 18.5932 12.3245 18.5738 12.4148 18.5361C12.5051 18.4985 12.5862 18.4435 12.6528 18.3747L13.5251 17.5171C13.5911 17.4478 13.6717 17.3924 13.7617 17.3545C13.8518 17.3166 13.9492 17.297 14.0478 17.297C14.1463 17.297 14.2438 17.3166 14.3338 17.3545C14.4239 17.3924 14.5045 17.4478 14.5704 17.5171L15.5042 18.4655C15.5702 18.5348 15.6508 18.5902 15.7408 18.6281C15.8309 18.666 15.9283 18.6856 16.0269 18.6856C16.1254 18.6856 16.2229 18.666 16.3129 18.6281C16.403 18.5902 16.4836 18.5348 16.5495 18.4655L17.4488 17.5534C17.5147 17.4841 17.5953 17.4288 17.6854 17.3909C17.7754 17.353 17.8729 17.3334 17.9714 17.3334C18.07 17.3334 18.1674 17.353 18.2575 17.3909C18.3475 17.4288 18.4281 17.4841 18.494 17.5534L19.3472 18.4183C19.4135 18.4877 19.4944 18.5431 19.5848 18.581C19.6751 18.619 19.7729 18.6386 19.8717 18.6386C19.9706 18.6386 20.0684 18.619 20.1587 18.581C20.2491 18.5431 20.33 18.4877 20.3963 18.4183L21.2494 17.5534C21.3154 17.4841 21.396 17.4288 21.486 17.3909C21.5761 17.353 21.6735 17.3334 21.7721 17.3334C21.8706 17.3334 21.9681 17.353 22.0581 17.3909C22.1482 17.4288 22.2288 17.4841 22.2947 17.5534L23.6666 18.9707M8.33333 22.2852L9.73216 20.8629C9.79842 20.794 9.87913 20.739 9.96912 20.7014C10.0591 20.6638 10.1564 20.6443 10.2548 20.6443C10.3532 20.6443 10.4505 20.6638 10.5405 20.7014C10.6305 20.739 10.7112 20.794 10.7774 20.8629L11.6037 21.7177C11.6703 21.7867 11.7513 21.8417 11.8416 21.8794C11.9319 21.917 12.0295 21.9365 12.1282 21.9365C12.2269 21.9365 12.3245 21.917 12.4148 21.8794C12.5051 21.8417 12.5862 21.7867 12.6528 21.7177L13.5251 20.8629C13.5914 20.794 13.6721 20.739 13.7621 20.7014C13.8521 20.6638 13.9494 20.6443 14.0478 20.6443C14.1462 20.6443 14.2434 20.6638 14.3334 20.7014C14.4234 20.739 14.5041 20.794 14.5704 20.8629L15.5042 21.8123C15.5702 21.8817 15.6508 21.9371 15.7408 21.9751C15.8309 22.013 15.9283 22.0326 16.0269 22.0326C16.1254 22.0326 16.2229 22.013 16.3129 21.9751C16.403 21.9371 16.4836 21.8817 16.5495 21.8123L17.4488 20.8992C17.5147 20.8299 17.5953 20.7745 17.6854 20.7365C17.7754 20.6986 17.8729 20.6789 17.9714 20.6789C18.07 20.6789 18.1674 20.6986 18.2575 20.7365C18.3475 20.7745 18.4281 20.8299 18.494 20.8992L19.3472 21.7687C19.4138 21.8376 19.4948 21.8926 19.5851 21.9303C19.6755 21.968 19.7731 21.9874 19.8717 21.9874C19.9704 21.9874 20.068 21.968 20.1583 21.9303C20.2487 21.8926 20.3297 21.8376 20.3963 21.7687L21.2494 20.8992C21.3154 20.8299 21.396 20.7745 21.486 20.7365C21.5761 20.6986 21.6735 20.6789 21.7721 20.6789C21.8706 20.6789 21.9681 20.6986 22.0581 20.7365C22.1482 20.7745 22.2288 20.8299 22.2947 20.8992L23.6666 22.318M13.0567 9.25358V15.1883M14.35 6C13.1433 6 13.06 7.37238 13.06 7.80753V10.1941M18.7066 9.25358V15.1883M20 6C18.7933 6 18.71 7.37238 18.71 7.80753V10.1941M10.5 10.6025H9.63636C7.62805 10.6025 6 12.2306 6 14.2389V22.3636C6 24.3719 7.62805 26 9.63636 26H22.3636C24.3719 26 26 24.3719 26 22.3636V14.2389C26 12.2306 24.3719 10.6025 22.3636 10.6025H21" stroke="black" stroke-linecap="round" stroke-linejoin="round"/>
</g>
</svg>
