<svg width="16" height="16" viewBox="0 0 16 16" fill="none" xmlns="http://www.w3.org/2000/svg">
<g id="Travel=no-suitcase, Size=16px, stroke width=1px">
<path id="no-suitcase" d="M5.92857 13.5V12.7787M10.5714 13.5V12.7787M9.85714 3.94262V2.75353M6.64286 2.75353V3.94262M4.5 11.3999C4.5 12.0807 5.05699 12.6326 5.74408 12.6326H10.7559C11.443 12.6326 12 12.0807 12 11.3999V8.17004M6 2.5H10.5M4.5 9.5V5.20963C4.5 4.5288 5.05699 3.97687 5.74408 3.97687H10.7559C11.443 3.97687 12 4.5288 12 5.20963V6M6.42858 8.60146V5.45199M6.42858 11.2261V10.74M8.25 7.75V5.45199M8.25 11.2261V9.86044M10.0714 6.75V5.45197M10.0714 11.2261V9M3.25 10.25L13.5 5.25" stroke="black" stroke-linecap="round" stroke-linejoin="round"/>
</g>
</svg>
