<svg width="24" height="24" viewBox="0 0 24 24" fill="none" xmlns="http://www.w3.org/2000/svg">
<g id="Travel=room, Size=24px, stroke width=1.5px">
<path id="room" d="M10.8069 14.7377L11.868 15.5868L13.2233 13.8537M16.125 8.19707V8.17721C16.1184 7.1028 15.6825 6.07439 14.9122 5.31558C14.1419 4.55677 13.0994 4.12891 12.0113 4.125C9.89161 4.125 8.2396 5.42607 8.00324 7.45963C7.99215 7.56831 8.00381 7.67808 8.03748 7.78213C8.07116 7.88618 8.12613 7.98228 8.19899 8.06447C8.27185 8.14666 8.36104 8.21319 8.46102 8.25992C8.56101 8.30665 8.66965 8.33258 8.78021 8.33612C8.99857 8.36502 9.22073 8.34401 9.42956 8.2747C9.63839 8.20539 9.8283 8.08963 9.98465 7.93636C10.1137 7.7851 10.2227 7.61823 10.309 7.43977C10.7063 6.4143 11.2293 6.17345 12.0691 6.28022C12.3039 6.29442 12.5317 6.3638 12.7338 6.48257C12.9359 6.60134 13.1063 6.76607 13.2308 6.96303C14.0682 8.58938 12.3784 9.5205 12.3784 9.5205C10.6535 10.3672 9.07189 11.2884 9.07189 11.2884C9.07189 11.2884 8.54385 11.6186 8.54888 11.6186C7.95043 12.0531 7.875 12.5919 7.875 13.1705V17.6652C7.87633 18.2504 8.11218 18.8114 8.53104 19.2254C8.94989 19.6395 9.51769 19.873 10.1104 19.875H13.8821C14.4748 19.873 15.0426 19.6395 15.4614 19.2254C15.8803 18.8114 16.1161 18.2504 16.1175 17.6652V8.19956L16.125 8.19707ZM14.6037 14.8372C14.6037 15.3465 14.4506 15.8443 14.1638 16.2676C13.877 16.6909 13.4694 17.0206 12.9927 17.2149C12.516 17.4092 11.9916 17.4595 11.4859 17.3592C10.9802 17.2589 10.5161 17.0127 10.1523 16.6517C9.78847 16.2907 9.54137 15.8312 9.44228 15.3314C9.34319 14.8316 9.39657 14.314 9.59567 13.8442C9.79477 13.3744 10.1306 12.9735 10.5606 12.6923C10.9907 12.4112 11.4956 12.2624 12.0113 12.2648C12.7 12.2681 13.3594 12.5406 13.8452 13.0227C14.331 13.5047 14.6038 14.1571 14.6037 14.8372Z" stroke="black" stroke-width="1.5" stroke-miterlimit="10" stroke-linecap="round" stroke-linejoin="round"/>
</g>
</svg>
