<svg width="32" height="32" viewBox="0 0 32 32" fill="none" xmlns="http://www.w3.org/2000/svg">
<g id="Travel=yacht, Size=32px, stroke width=1.5px">
<path id="Vector" d="M4.43179 20.2079C4.68687 19.443 4.91176 18.9136 5.05408 18.6067C5.15197 18.3955 5.32465 18.2428 5.53455 18.1689C14.1528 15.1343 29 15.6243 29 15.6243C29 15.6243 27.3694 17.8321 25.0763 20.4188M17.6989 12.3523C15.3767 12.3523 12.027 13.0153 12.027 13.0153L12.7701 14.5591C14.4227 14.2078 17.8397 13.898 19.5997 13.898L19.8249 13.8957C18.5787 12.7999 15.746 10.7262 12.9203 11.1748C12.9203 11.1748 8.63564 11.8397 5.41428 13.0153L9.72416 13.5828M8.55803 11.9854L7.28211 10M8.40028 13.4617C8.40028 13.4617 8.88932 14.5737 8.01031 15.9142M3 21.0821C3 21.0821 4.67599 23.1473 6.98932 21.0821H7.01519C7.01519 21.0821 8.69056 23.1473 11.0039 21.0821H11.0285C11.0285 21.0821 12.7039 23.1473 15.0184 21.0821H15.0424C15.0424 21.0821 16.7178 23.1473 19.0317 21.0821H19.0557C19.0557 21.0821 20.7311 23.1473 23.045 21.0821H23.069C23.069 21.0821 24.7444 23.1473 27.0583 21.0821" stroke="black" stroke-width="1.5" stroke-linecap="round" stroke-linejoin="round"/>
<g id="Ellipse 68">
</g>
<g id="Ellipse 69">
</g>
</g>
</svg>
