<svg width="16" height="16" viewBox="0 0 16 16" fill="none" xmlns="http://www.w3.org/2000/svg">
<g id="Travel=yacht, Size=16px, weight=light">
<path id="Vector" d="M2.66082 9.75321C2.77856 9.43451 2.88235 9.21392 2.94804 9.08602C2.99322 8.99806 3.07292 8.93441 3.16979 8.90361C7.14746 7.63922 14 7.84337 14 7.84337C14 7.84337 13.2474 8.7633 12.1891 9.84109M6.45525 6.96666C7.21801 6.82032 8.8782 6.67445 9.69047 6.67445C9.11527 6.21784 7.93828 5.36778 6.63411 5.5547C6.63411 5.5547 4.65658 5.83174 3.16979 6.32158L5.15897 6.55803M4.62076 5.89245L4.03187 5.06519M4.54795 6.50756C4.54795 6.50756 4.47828 6.9293 4.24278 7.57196M2 10.1175C2 10.1175 2.77354 10.978 3.84123 10.1175H3.85317C3.85317 10.1175 4.62641 10.978 5.6941 10.1175H5.70546C5.70546 10.1175 6.4787 10.978 7.54698 10.1175H7.55804C7.55804 10.1175 8.33129 10.978 9.39927 10.1175H9.41034C9.41034 10.1175 10.1836 10.978 11.2516 10.1175H11.2626C11.2626 10.1175 12.0359 10.978 13.1039 10.1175" stroke="black" stroke-linecap="round" stroke-linejoin="round"/>
</g>
</svg>
