<svg width="16" height="16" viewBox="0 0 16 16" fill="none" xmlns="http://www.w3.org/2000/svg">
<g id="Travel=bed, Size=16px, weight=light">
<path id="Vector" d="M12.4 6.75862V5.10345C12.4 4.49403 11.9075 4 11.3 4H4.7C4.09249 4 3.6 4.49403 3.6 5.10345V6.75862M3.6 10.8966V12M12.4 10.8966V12M4.975 6.75862V5.93103C4.975 5.62633 5.22124 5.37931 5.525 5.37931H6.625C6.92876 5.37931 7.175 5.62633 7.175 5.93103V6.75862M8.825 6.75862V5.93103C8.825 5.62633 9.07124 5.37931 9.375 5.37931H10.475C10.7788 5.37931 11.025 5.62633 11.025 5.93103V6.75862M3.05 10.6207H12.95C13.2538 10.6207 13.5 10.3737 13.5 10.069V8.41379C13.5 8.10908 13.2538 7.86207 12.95 7.86207H3.05C2.74624 7.86207 2.5 8.10908 2.5 8.41379V10.069C2.5 10.3737 2.74624 10.6207 3.05 10.6207Z" stroke="black" stroke-linecap="round" stroke-linejoin="round"/>
</g>
</svg>
