<svg width="16" height="16" viewBox="0 0 16 16" fill="none" xmlns="http://www.w3.org/2000/svg">
<g id="Travel=hotel, Size=16px, stroke width=1px">
<g id="hotel">
<path id="Vector" d="M6.97168 13.5003C6.97168 10.2085 6.97168 6.07115 6.97168 6.07115C6.97168 5.92355 7.03141 5.78201 7.13772 5.67765C7.24403 5.57328 7.38822 5.51465 7.53857 5.51465H12.4328C12.5831 5.51465 12.7273 5.57328 12.8336 5.67765C12.9399 5.78201 12.9996 5.92355 12.9996 6.07115C12.9996 6.07115 12.9996 10.2085 12.9996 13.5003" stroke="black" stroke-linecap="round" stroke-linejoin="round"/>
<path id="Vector_2" d="M3 13.4999V10.4022C3 10.2546 3.05973 10.1131 3.16604 10.0087C3.27235 9.90433 3.41654 9.8457 3.56689 9.8457H6.00831" stroke="black" stroke-linecap="round" stroke-linejoin="round"/>
<path id="Vector_3" d="M8.8877 4.43662V2.5" stroke="black" stroke-miterlimit="10" stroke-linecap="round" stroke-linejoin="round"/>
<path id="Vector_4" d="M11.082 4.43662V2.5" stroke="black" stroke-miterlimit="10" stroke-linecap="round" stroke-linejoin="round"/>
<path id="Vector_5" d="M10.9912 3.46826H8.98633" stroke="black" stroke-miterlimit="10" stroke-linecap="round" stroke-linejoin="round"/>
<path id="Vector_6" d="M8.09668 6.9541H11.8741" stroke="black" stroke-miterlimit="10" stroke-linecap="round" stroke-linejoin="round"/>
<path id="Vector_7" d="M8.09668 8.38965H11.8741" stroke="black" stroke-miterlimit="10" stroke-linecap="round" stroke-linejoin="round"/>
<path id="Vector_8" d="M8.09668 9.82715H11.8741" stroke="black" stroke-miterlimit="10" stroke-linecap="round" stroke-linejoin="round"/>
<path id="Vector_9" d="M8.09668 11.2627H11.8741" stroke="black" stroke-miterlimit="10" stroke-linecap="round" stroke-linejoin="round"/>
<path id="Vector_10" d="M8.09668 12.6987H11.8741" stroke="black" stroke-miterlimit="10" stroke-linecap="round" stroke-linejoin="round"/>
<path id="Vector_11" d="M4.04102 11.2627H6.00625" stroke="black" stroke-miterlimit="10" stroke-linecap="round" stroke-linejoin="round"/>
<path id="Vector_12" d="M4.04114 12.6987H6.00637" stroke="black" stroke-miterlimit="10" stroke-linecap="round" stroke-linejoin="round"/>
</g>
</g>
</svg>
