<svg width="16" height="16" viewBox="0 0 16 16" fill="none" xmlns="http://www.w3.org/2000/svg">
<g id="Travel=bus, Size=16px, weight=light">
<path id="Vector" d="M6.68 3.86957H9.32M3.38 4.73913H12.62M6.24 10.6087H9.76M10.86 11.913V12.5652C10.86 12.8043 11.058 13 11.3 13H11.74C11.982 13 12.18 12.8043 12.18 12.5652V11.913M12.18 11.913C12.422 11.913 12.62 11.7174 12.62 11.4783V4.30435C12.62 3.58478 12.0282 3 11.3 3H4.7C3.9718 3 3.38 3.58478 3.38 4.30435V11.4783C3.38 11.7174 3.578 11.913 3.82 11.913M12.18 11.913H3.82M3.82 11.913V12.5652C3.82 12.8043 4.018 13 4.26 13H4.7C4.942 13 5.14 12.8043 5.14 12.5652V11.913M3.38 7.34783H2.94C2.698 7.34783 2.5 7.15217 2.5 6.91304V5.6087C2.5 5.36957 2.698 5.17391 2.94 5.17391H3.38M12.62 5.17391H13.06C13.302 5.17391 13.5 5.36957 13.5 5.6087V6.91304C13.5 7.15217 13.302 7.34783 13.06 7.34783H12.62M3.38 8.65217L3.7012 8.7587C3.9256 8.83261 4.161 8.86957 4.3964 8.86957H11.6014C11.8368 8.86957 12.0722 8.83261 12.2966 8.7587L12.6178 8.65217M4.92 10.6087C4.92 10.8488 4.72301 11.0435 4.48 11.0435C4.23699 11.0435 4.04 10.8488 4.04 10.6087C4.04 10.3686 4.23699 10.1739 4.48 10.1739C4.72301 10.1739 4.92 10.3686 4.92 10.6087ZM11.96 10.6087C11.96 10.8488 11.763 11.0435 11.52 11.0435C11.277 11.0435 11.08 10.8488 11.08 10.6087C11.08 10.3686 11.277 10.1739 11.52 10.1739C11.763 10.1739 11.96 10.3686 11.96 10.6087Z" stroke="black" stroke-linecap="round" stroke-linejoin="round"/>
</g>
</svg>
