<svg width="32" height="32" viewBox="0 0 32 32" fill="none" xmlns="http://www.w3.org/2000/svg">
<g id="Travel=no-suitcase, Size=32px, stroke width=1.5px">
<path id="no-suitcase" d="M11.8571 27V25.5574M21.1429 27V25.5574M19.7143 7.88525V5.50706M13.2857 5.50706V7.88525M9 22.7997C9 24.1614 10.114 25.2652 11.4882 25.2652H21.5118C22.886 25.2652 24 24.1614 24 22.7997V16.3401M12 5H21M9 19V10.4193C9 9.0576 10.114 7.95375 11.4882 7.95375H21.5118C22.886 7.95375 24 9.0576 24 10.4193V12M12.8572 17.2029V10.904M12.8572 22.4522V21.4801M16.5 15.5V10.904M16.5 22.4522V19.7209M20.1428 13.5V10.9039M20.1428 22.4521V18M6.5 20.5L27 10.5" stroke="black" stroke-width="1.5" stroke-linecap="round" stroke-linejoin="round"/>
</g>
</svg>
