<svg width="16" height="16" viewBox="0 0 16 16" fill="none" xmlns="http://www.w3.org/2000/svg">
<g id="Travel=airplane, Size=16px, stroke width=1px">
<path id="airplane" d="M10.2759 7.48C10.7798 7.48036 11.2919 7.48073 11.937 7.48119C12.363 7.47804 13.5 7.82777 13.5 8.24996C13.508 8.68003 12.3678 9.01716 11.9418 9.014H9.89285L9.67584 9.01874L6.88648 13.6095C6.7653 13.8089 6.48983 13.8432 6.32348 13.6796C6.22826 13.5859 6.19239 13.4474 6.23016 13.3193L6.9327 10.9368C7.00064 10.7064 7.03502 10.4674 7.03478 10.2272L7.03354 9.01874L6.85788 9.014H5.09729C4.94454 9.014 4.80017 9.08383 4.70533 9.20357L3.78953 10.3599C3.6937 10.4809 3.53106 10.5267 3.38613 10.4736C3.21388 10.4105 3.11731 10.2273 3.16258 10.0496L3.46305 8.86951C3.47969 8.80417 3.44175 8.73735 3.3771 8.71816C2.88621 8.59155 2.49935 8.43008 2.5 8.24523C2.50063 8.06515 2.8681 7.90724 3.34083 7.78215C3.5488 7.72711 3.45223 7.54851 3.39915 7.34003L3.16239 6.4102C3.11724 6.23289 3.21356 6.05016 3.38537 5.98722C3.5306 5.93401 3.69357 5.98045 3.78894 6.10222L4.71511 7.28476C4.80988 7.40577 4.95504 7.47646 5.10875 7.47646L6.54523 7.47734L7.04476 7.48282V6.27154C7.04476 6.03217 7.01038 5.79404 6.94268 5.56445L6.23978 3.18073C6.202 3.05261 6.23788 2.9141 6.3331 2.82043C6.49945 2.65678 6.77492 2.69106 6.89609 2.89049L9.68546 7.48125H10.2759" stroke="black" stroke-linecap="round" stroke-linejoin="round"/>
</g>
</svg>
