<svg width="24" height="24" viewBox="0 0 24 24" fill="none" xmlns="http://www.w3.org/2000/svg">
<g id="Travel=airplane, Size=24px, stroke width=1.5px">
<path id="airplane" d="M15.4138 11.22C16.1698 11.2206 16.9378 11.2211 17.9055 11.2218C18.5445 11.2171 20.2499 11.7417 20.2499 12.3749C20.2619 13.0201 18.5517 13.5257 17.9127 13.521H14.8393L14.5138 13.5281L10.3297 20.4143C10.148 20.7134 9.73475 20.7648 9.48522 20.5193C9.34239 20.3788 9.28858 20.1711 9.34525 19.9789L10.399 16.4052C10.501 16.0596 10.5525 15.7011 10.5522 15.3407L10.5503 13.5281L10.2868 13.521H7.64593C7.41681 13.521 7.20025 13.6257 7.058 13.8054L5.68429 15.5398C5.54055 15.7213 5.29658 15.7901 5.07919 15.7104C4.82082 15.6158 4.67597 15.341 4.74387 15.0743L5.19458 13.3043C5.21953 13.2063 5.16262 13.106 5.06566 13.0772C4.32931 12.8873 3.74903 12.6451 3.75 12.3679C3.75095 12.0977 4.30214 11.8609 5.01124 11.6732C5.3232 11.5907 5.17835 11.3228 5.09872 11.0101L4.74358 9.61531C4.67585 9.34934 4.82034 9.07525 5.07805 8.98083C5.2959 8.90102 5.54036 8.97068 5.68341 9.15333L7.07266 10.9271C7.21482 11.1087 7.43256 11.2147 7.66312 11.2147L9.81785 11.216L10.5671 11.2242V9.40731C10.5671 9.04826 10.5156 8.69107 10.414 8.34668L9.35967 4.7711C9.303 4.57892 9.35681 4.37116 9.49964 4.23065C9.74917 3.98518 10.1624 4.0366 10.3441 4.33574L14.5282 11.2219H15.4138" stroke="black" stroke-width="1.5" stroke-linecap="round" stroke-linejoin="round"/>
</g>
</svg>
