<svg width="24" height="24" viewBox="0 0 24 24" fill="none" xmlns="http://www.w3.org/2000/svg">
<g id="Travel=cocktail, Size=24px, weight=light">
<path id="Vector" d="M12 17.9348C9.44279 17.9348 6.375 15.9805 6.375 13.2717C6.375 10.9059 7.43466 8.58026 8.68084 6.53246C8.85893 6.23981 9.17876 6.06522 9.52134 6.06522H14.4787C14.8212 6.06522 15.1411 6.23981 15.3192 6.53246C16.5653 8.58026 17.625 10.9059 17.625 13.2717C17.625 15.9805 14.5572 17.9348 12 17.9348ZM12 17.9348V21.75M8.10577 21.75H12M12 21.75H15.8942M13.6356 16.3112L11.2543 3.73007C11.1814 3.34499 10.8903 3.03798 10.5096 2.94475L7.67308 2.25M7.02404 9.88043H10.8447M12.4197 9.88043H16.976M12 14.535L11.0012 14.0717C10.4515 13.8167 9.76079 14.1152 9.81482 14.7188C9.87052 15.3409 10.1979 15.8392 10.8274 16.201C11.2558 16.4468 11.7404 16.5232 12.1947 16.4468M8.41298 13.4032L8.65802 12.6811C8.83397 12.1626 9.39416 11.8821 9.91474 12.0517L10.7971 12.3391M14.7043 14.5096L15.0477 14.3982C15.5778 14.2262 15.865 13.6542 15.6864 13.1264L15.5024 12.5828C15.3299 12.0731 14.7849 11.7913 14.2692 11.9452L14.0856 12" stroke="black" stroke-linecap="round" stroke-linejoin="round"/>
</g>
</svg>
