<svg width="32" height="32" viewBox="0 0 32 32" fill="none" xmlns="http://www.w3.org/2000/svg">
<g id="Travel=meal, Size=32px, stroke width=1px">
<path id="meal" d="M18.5861 16.9781C18.5859 15.7939 18.1626 14.6482 17.3917 13.7454C16.6208 12.8427 15.5524 12.2417 14.3772 12.0497C13.2019 11.8576 11.9963 12.087 10.9753 12.6968C9.95439 13.3067 9.18458 14.2574 8.80325 15.3794M15.1989 16.9781C15.1989 16.547 15.0266 16.1335 14.7201 15.8287C14.4135 15.5238 13.9976 15.3526 13.5641 15.3526C13.1305 15.3526 12.7147 15.5238 12.4081 15.8287C12.1015 16.1335 11.9292 16.547 11.9292 16.9781M24.0047 16.9781C24.0047 15.6977 23.5101 14.4663 22.623 13.5382C21.9066 12.7887 20.9786 12.2833 19.9707 12.0822M20.6175 16.9781C20.6175 16.5476 20.4456 16.1348 20.1394 15.8304C19.8333 15.526 19.4181 15.355 18.9852 15.355C18.795 15.3546 18.6063 15.3876 18.4277 15.4524M14.7201 10.5631L14.3459 6.29941C14.3297 6.11459 14.3197 5.92472 14.3825 5.75012C14.5509 5.28123 15.0182 4.96409 15.5398 5.00327C16.1761 5.05107 16.6485 5.60978 16.5866 6.24134L16.8606 13.18M16.8786 13.15L19.9916 6.78123C20.2258 6.22308 20.8533 5.93894 21.4305 6.12958C22.0721 6.34147 22.3972 7.05102 22.1368 7.67139L18.659 14.9112M10.6282 25.0531C6.26001 22.3571 6.50242 17.0341 6.50242 17.0341H25.4975C25.4975 17.0341 25.7424 22.3571 21.3725 25.0531L15.2242 25.0539M10.6266 25.0588V27H21.3733V25.0588M12.6924 25.0539H10.5458" stroke="black" stroke-linecap="round" stroke-linejoin="round"/>
</g>
</svg>
