<svg width="16" height="16" viewBox="0 0 16 16" fill="none" xmlns="http://www.w3.org/2000/svg">
<g id="Travel=bill, Size=16px, weight=light">
<path id="bill" d="M10.5 10V3L9.6875 3.75L8.875 3L8.0625 3.75L7.25 3L6.4375 3.75L5.625 3L4.8125 3.75L4 3V11C4 11.8284 4.67157 12.5 5.5 12.5M5.5 12.5C6.32843 12.5 7 11.8284 7 11H12.75C12.75 11.8284 12.0784 12.5 11.25 12.5H5.5ZM5.5 8.65002H8.75M5.5 9.75H8.25M7.31669 5.26561H6.85836C6.60523 5.26561 6.40002 5.45799 6.40002 5.6953C6.40002 5.93261 6.60523 6.12499 6.85836 6.12499H7.77502C8.02816 6.12499 8.23336 6.31737 8.23336 6.55468C8.23336 6.79199 8.02816 6.98437 7.77502 6.98437H7.31669M7.31669 5.26561H8.23336M7.31669 5.26561V4.75M7.31669 6.98437H6.40002M7.31669 6.98437V7.5" stroke="black" stroke-miterlimit="10" stroke-linecap="round" stroke-linejoin="round"/>
</g>
</svg>
