<svg width="16" height="16" viewBox="0 0 16 16" fill="none" xmlns="http://www.w3.org/2000/svg">
<g id="Travel=cocktail, Size=16px, weight=light">
<path id="Vector" d="M8 11.9565C6.29519 11.9565 4.25 10.6537 4.25 8.84783C4.25 7.3308 4.90354 5.83858 5.69267 4.51211C5.86782 4.21769 6.18838 4.04348 6.53096 4.04348H9.46904C9.81162 4.04348 10.1322 4.21769 10.3073 4.51211C11.0965 5.83858 11.75 7.3308 11.75 8.84783C11.75 10.6537 9.70481 11.9565 8 11.9565ZM8 11.9565V14.5M5.40385 14.5H8M8 14.5H10.5962M9.09038 10.8741L7.54274 2.69746C7.46986 2.31238 7.17875 2.00537 6.79809 1.91214L5.11538 1.5M4.68269 6.58696H7.22981M8.27981 6.58696H11.3173M8 9.69L7.68054 9.54182C7.13084 9.28684 6.39631 9.62428 6.63378 10.1818C6.73896 10.4287 6.93164 10.6359 7.21827 10.8007C7.50385 10.9646 7.82692 11.0154 8.12981 10.9646M5.60865 8.93543L5.66619 8.76589C5.84215 8.24741 6.40233 7.96684 6.92292 8.13644L7.19808 8.22609M9.80288 9.67304L9.84544 9.65924C10.3014 9.51133 10.5484 9.01931 10.3948 8.5653L10.3759 8.50955C10.238 8.10218 9.80249 7.87699 9.39038 8V8" stroke="black" stroke-linecap="round" stroke-linejoin="round"/>
</g>
</svg>
