<svg width="16" height="16" viewBox="0 0 16 16" fill="none" xmlns="http://www.w3.org/2000/svg">
<g id="Travel=meal, Size=16px, stroke width=1px">
<path id="meal" d="M9.29303 8.48906C9.29296 7.89693 9.08132 7.32408 8.69587 6.87272C8.31041 6.42137 7.77621 6.12086 7.18859 6.02483C6.60096 5.9288 5.99813 6.04348 5.48766 6.34842C4.97719 6.65336 4.59229 7.12872 4.40162 7.68968M7.59944 8.48905C7.59944 8.27349 7.51332 8.06676 7.36003 7.91434C7.20673 7.76191 6.99882 7.67629 6.78203 7.67629C6.56524 7.67629 6.35733 7.76191 6.20404 7.91434C6.05074 8.06676 5.96462 8.27349 5.96462 8.48905M12.0024 8.48906C12.0024 7.84887 11.755 7.23314 11.3115 6.76909C10.9533 6.39435 10.4893 6.14165 9.98533 6.04111M10.3088 8.48905C10.3088 8.27381 10.2228 8.06739 10.0697 7.9152C9.91665 7.763 9.70905 7.6775 9.49259 7.6775C9.39752 7.67731 9.30317 7.6938 9.21386 7.72619M7.36003 5.28153L7.18513 3.28862C7.16891 3.1038 7.15039 2.90481 7.25414 2.751C7.3647 2.58706 7.55838 2.48574 7.76988 2.50163C8.08806 2.52553 8.32427 2.80489 8.2933 3.12067L8.43032 6.59002M8.4393 6.575L9.99578 3.39062C10.1129 3.11154 10.4266 2.96947 10.7153 3.06479C11.0361 3.17074 11.1986 3.52551 11.0684 3.8357L9.32949 7.45562M5.31412 12.5265C3.13001 11.1786 3.25121 8.51707 3.25121 8.51707H12.7488C12.7488 8.51707 12.8712 11.1786 10.6863 12.5265L7.61209 12.5269M5.31331 12.5294V13.5H10.6867V12.5294M6.34619 12.5269H5.2729" stroke="black" stroke-linecap="round" stroke-linejoin="round"/>
</g>
</svg>
