<svg width="16" height="16" viewBox="0 0 16 16" fill="none" xmlns="http://www.w3.org/2000/svg">
<g id="Travel=passport, Size=16px, weight=regular">
<path id="passport" d="M6.15385 11.2531H9.84615M10.4615 7.14199C10.4615 8.46476 9.35947 9.53707 8 9.53707M10.4615 7.14199C10.4615 5.81923 9.35947 4.74692 8 4.74692M10.4615 7.14199H5.53846M8 9.53707C6.64053 9.53707 5.53846 8.46476 5.53846 7.14199M8 9.53707C8.61176 9.53707 9.10766 8.46476 9.10766 7.14199C9.10766 5.81923 8.61176 4.74692 8 4.74692M8 9.53707C7.38824 9.53707 6.89228 8.46476 6.89228 7.14199C6.89228 5.81923 7.38824 4.74692 8 4.74692M5.53846 7.14199C5.53846 5.81923 6.64053 4.74692 8 4.74692M5.23077 12.75H10.7692C11.449 12.75 12 12.2138 12 11.5525V4.44754C12 3.78616 11.449 3.25 10.7692 3.25H5.23077C4.55103 3.25 4 3.78616 4 4.44754V11.5525C4 12.2138 4.55103 12.75 5.23077 12.75Z" stroke="black" stroke-width="1.5" stroke-linecap="round" stroke-linejoin="round"/>
</g>
</svg>
