<svg width="24" height="24" viewBox="0 0 24 24" fill="none" xmlns="http://www.w3.org/2000/svg">
<g id="Travel=yacht, Size=24px, weight=regular">
<path id="Vector" d="M4.43617 14.8053C4.60295 14.2954 4.75 13.9424 4.84305 13.7378C4.90706 13.597 5.01996 13.4952 5.15721 13.4459C10.7922 11.4229 20.5 11.7495 20.5 11.7495C20.5 11.7495 19.4159 13.0808 17.9166 14.8053M9.69635 10.7485C10.7769 10.5143 13.0111 10.3078 14.1618 10.3078C13.347 9.57722 11.8339 8.48414 9.98634 8.78323C9.98634 8.78323 7.18484 9.22648 5.07856 10.0102L7.89656 10.3886M7.1341 9.32363L6.29984 8M7.03095 10.3078C7.03095 10.3078 7.35071 11.0491 6.77597 11.9428M3.5 15.3881C3.5 15.3881 4.59584 16.7649 6.1084 15.3881H6.12532C6.12532 15.3881 7.22075 16.7649 8.73331 15.3881H8.7494C8.7494 15.3881 9.84483 16.7649 11.3582 15.3881H11.3739C11.3739 15.3881 12.4693 16.7649 13.9823 15.3881H13.998C13.998 15.3881 15.0934 16.7649 16.6064 15.3881H16.6221C16.6221 15.3881 17.7175 16.7649 19.2305 15.3881" stroke="black" stroke-width="1.5" stroke-linecap="round" stroke-linejoin="round"/>
</g>
</svg>
