<svg width="24" height="24" viewBox="0 0 24 24" fill="none" xmlns="http://www.w3.org/2000/svg">
<g id="Travel=swimming-pool, Size=24px, stroke width=1.5px">
<path id="swimming-pool" d="M9.82 7.30676H13.98M9.82 9.68163H13.9925M6.25 14.2062L7.29912 13.1378C7.34858 13.0859 7.40903 13.0443 7.47656 13.0159C7.54408 12.9875 7.61718 12.9728 7.6911 12.9728C7.76502 12.9728 7.83811 12.9875 7.90564 13.0159C7.97316 13.0443 8.03362 13.0859 8.08308 13.1378L8.70275 13.781C8.75271 13.8327 8.81349 13.8739 8.88122 13.9021C8.94895 13.9303 9.02216 13.9449 9.09617 13.9449C9.17019 13.9449 9.24339 13.9303 9.31112 13.9021C9.37885 13.8739 9.43963 13.8327 9.48959 13.781L10.1439 13.1378C10.1933 13.0859 10.2538 13.0443 10.3213 13.0159C10.3888 12.9875 10.4619 12.9728 10.5358 12.9728C10.6097 12.9728 10.6828 12.9875 10.7504 13.0159C10.8179 13.0443 10.8784 13.0859 10.9278 13.1378L11.6282 13.8492C11.6776 13.9011 11.7381 13.9426 11.8056 13.9711C11.8732 13.9995 11.9462 14.0142 12.0202 14.0142C12.0941 14.0142 12.1672 13.9995 12.2347 13.9711C12.3022 13.9426 12.3627 13.9011 12.4121 13.8492L13.0866 13.1651C13.136 13.1131 13.1965 13.0716 13.264 13.0431C13.3315 13.0147 13.4046 13 13.4786 13C13.5525 13 13.6256 13.0147 13.6931 13.0431C13.7606 13.0716 13.8211 13.1131 13.8705 13.1651L14.5104 13.8137C14.5601 13.8657 14.6208 13.9073 14.6886 13.9358C14.7563 13.9642 14.8297 13.9789 14.9038 13.9789C14.978 13.9789 15.0513 13.9642 15.119 13.9358C15.1868 13.9073 15.2475 13.8657 15.2972 13.8137L15.9371 13.1651C15.9865 13.1131 16.047 13.0716 16.1145 13.0431C16.182 13.0147 16.2551 13 16.3291 13C16.403 13 16.4761 13.0147 16.5436 13.0431C16.6111 13.0716 16.6716 13.1131 16.721 13.1651L17.75 14.228M6.25 16.7139L7.29912 15.6471C7.34882 15.5955 7.40935 15.5543 7.47684 15.5261C7.54434 15.4978 7.61731 15.4833 7.6911 15.4833C7.76488 15.4833 7.83786 15.4978 7.90535 15.5261C7.97285 15.5543 8.03338 15.5955 8.08308 15.6471L8.70275 16.2883C8.75271 16.34 8.81349 16.3813 8.88122 16.4095C8.94895 16.4378 9.02216 16.4524 9.09617 16.4524C9.17019 16.4524 9.24339 16.4378 9.31112 16.4095C9.37885 16.3813 9.43963 16.34 9.48959 16.2883L10.1439 15.6471C10.1936 15.5955 10.2541 15.5543 10.3216 15.5261C10.3891 15.4978 10.462 15.4833 10.5358 15.4833C10.6096 15.4833 10.6826 15.4978 10.7501 15.5261C10.8176 15.5543 10.8781 15.5955 10.9278 15.6471L11.6282 16.3592C11.6776 16.4112 11.7381 16.4528 11.8056 16.4813C11.8732 16.5098 11.9462 16.5245 12.0202 16.5245C12.0941 16.5245 12.1672 16.5098 12.2347 16.4813C12.3022 16.4528 12.3627 16.4112 12.4121 16.3592L13.0866 15.6744C13.136 15.6224 13.1965 15.5808 13.264 15.5524C13.3315 15.5239 13.4046 15.5092 13.4786 15.5092C13.5525 15.5092 13.6256 15.5239 13.6931 15.5524C13.7606 15.5808 13.8211 15.6224 13.8705 15.6744L14.5104 16.3265C14.5603 16.3782 14.6211 16.4195 14.6889 16.4477C14.7566 16.476 14.8298 16.4906 14.9038 16.4906C14.9778 16.4906 15.051 16.476 15.1188 16.4477C15.1865 16.4195 15.2473 16.3782 15.2972 16.3265L15.9371 15.6744C15.9865 15.6224 16.047 15.5808 16.1145 15.5524C16.182 15.5239 16.2551 15.5092 16.3291 15.5092C16.403 15.5092 16.4761 15.5239 16.5436 15.5524C16.6111 15.5808 16.6716 15.6224 16.721 15.6744L17.75 16.7385M9.79249 6.94018V11.3912M10.7625 4.5C9.85749 4.5 9.79499 5.52929 9.79499 5.85565V7.6456M14.03 6.94018V11.3912M15 4.5C14.095 4.5 14.0325 5.52929 14.0325 5.85565V7.6456M7.875 7.9519H7.22727C5.72104 7.9519 4.5 9.17294 4.5 10.6792V16.7727C4.5 18.279 5.72104 19.5 7.22727 19.5H16.7727C18.2789 19.5 19.5 18.279 19.5 16.7727V10.6792C19.5 9.17294 18.2789 7.9519 16.7727 7.9519H15.75" stroke="black" stroke-width="1.5" stroke-linecap="round" stroke-linejoin="round"/>
</g>
</svg>
