<svg width="16" height="16" viewBox="0 0 16 16" fill="none" xmlns="http://www.w3.org/2000/svg">
<g id="Travel=room, Size=16px, stroke width=1px">
<path id="room" d="M7.20459 9.82511L7.91199 10.3912L8.81553 9.23582M10.75 5.46471V5.45147C10.7456 4.7352 10.455 4.04959 9.94147 3.54372C9.42793 3.03785 8.73292 2.7526 8.00754 2.75C6.59441 2.75 5.49307 3.61738 5.33549 4.97309C5.3281 5.04554 5.33587 5.11872 5.35832 5.18809C5.38077 5.25745 5.41742 5.32152 5.46599 5.37632C5.51457 5.43111 5.57403 5.47546 5.64068 5.50661C5.70734 5.53776 5.77977 5.55505 5.85347 5.55741C5.99904 5.57668 6.14715 5.56267 6.28637 5.51647C6.42559 5.47026 6.5522 5.39309 6.65643 5.29091C6.74246 5.19007 6.81512 5.07882 6.87267 4.95984C7.13753 4.2762 7.48621 4.11563 8.0461 4.18681C8.20257 4.19628 8.3545 4.24253 8.48921 4.32171C8.62392 4.4009 8.73753 4.51071 8.82056 4.64202C9.37877 5.72625 8.25229 6.347 8.25229 6.347C7.10233 6.91146 6.04793 7.52558 6.04793 7.52558C6.04793 7.52558 5.6959 7.74574 5.69925 7.74574C5.30029 8.03542 5.25 8.39462 5.25 8.78031V11.7768C5.25088 12.1669 5.40812 12.5409 5.68736 12.817C5.96659 13.093 6.34513 13.2487 6.74025 13.25H9.25472C9.64984 13.2487 10.0284 13.093 10.3076 12.817C10.5868 12.5409 10.7441 12.1669 10.745 11.7768V5.46637L10.75 5.46471ZM9.73583 9.89147C9.73583 10.231 9.63376 10.5629 9.44256 10.8451C9.25136 11.1273 8.97963 11.3471 8.66181 11.4766C8.34399 11.6062 7.99437 11.6396 7.65726 11.5728C7.32016 11.5059 7.01073 11.3418 6.76819 11.1011C6.52565 10.8605 6.36091 10.5541 6.29485 10.2209C6.22879 9.88773 6.26438 9.54266 6.39711 9.22945C6.52984 8.91624 6.75374 8.64898 7.04043 8.46155C7.32713 8.27411 7.66371 8.17493 8.00755 8.17657C8.46669 8.17875 8.90626 8.3604 9.23014 8.68177C9.55402 9.00314 9.73584 9.43808 9.73583 9.89147Z" stroke="black" stroke-miterlimit="10" stroke-linecap="round" stroke-linejoin="round"/>
</g>
</svg>
