<svg width="24" height="24" viewBox="0 0 24 24" fill="none" xmlns="http://www.w3.org/2000/svg">
<g id="Travel=luggage, Size=24px, weight=regular">
<path id="luggage" d="M6.75 10.875V7.125M6.75 19.125V16.875M17.25 7.125V19.125M9.375 7.125V5.625C9.375 5.42609 9.46982 5.23532 9.6386 5.09467C9.80739 4.95402 10.0363 4.875 10.275 4.875H13.725C13.9637 4.875 14.1926 4.95402 14.3614 5.09467C14.5302 5.23532 14.625 5.42609 14.625 5.625V7.125M4.97727 7.125H19.0227C19.7005 7.125 20.25 7.66466 20.25 8.33036V17.9196C20.25 18.5853 19.7005 19.125 19.0227 19.125H4.97727C4.29947 19.125 3.75 18.5853 3.75 17.9196V8.33036C3.75 7.66466 4.29947 7.125 4.97727 7.125ZM5.44958 11.9222L9.20593 13.3491L8.31482 15.6949L5.30847 14.268L5.44958 11.9222ZM13.5 12.75L10.5 11.6384L12.7852 9L13.5 12.75ZM15 15.75C15 16.3713 14.4963 16.875 13.875 16.875C13.2537 16.875 12.75 16.3713 12.75 15.75C12.75 15.1287 13.2537 14.625 13.875 14.625C14.4963 14.625 15 15.1287 15 15.75Z" stroke="black" stroke-width="1.5" stroke-linecap="round" stroke-linejoin="round"/>
</g>
</svg>
