<svg width="24" height="24" viewBox="0 0 24 24" fill="none" xmlns="http://www.w3.org/2000/svg">
<g id="Travel=airplane, Size=24px, weight=light">
<path id="airplane" d="M15.4138 11.22C16.1698 11.2205 16.9378 11.221 17.9055 11.2217C18.5445 11.217 20.2499 11.7416 20.2499 12.3749C20.2619 13.02 18.5517 13.5257 17.9127 13.521H14.8393L14.5138 13.5281L10.3297 20.4142C10.148 20.7133 9.73475 20.7648 9.48522 20.5193C9.34239 20.3788 9.28858 20.171 9.34525 19.9788L10.399 16.4051C10.501 16.0595 10.5525 15.701 10.5522 15.3407L10.5503 13.5281L10.2868 13.521H7.64593C7.41681 13.521 7.20025 13.6257 7.058 13.8053L5.68429 15.5397C5.54055 15.7212 5.29658 15.79 5.07919 15.7104C4.82082 15.6157 4.67597 15.3409 4.74387 15.0743L5.19458 13.3042C5.21953 13.2062 5.16262 13.106 5.06566 13.0772C4.32931 12.8873 3.74903 12.6451 3.75 12.3678C3.75095 12.0977 4.30214 11.8608 5.01124 11.6732C5.3232 11.5906 5.17835 11.3227 5.09872 11.01L4.74358 9.61525C4.67585 9.34928 4.82034 9.07519 5.07805 8.98077C5.2959 8.90096 5.54036 8.97062 5.68341 9.15327L7.07266 10.9271C7.21482 11.1086 7.43256 11.2146 7.66312 11.2146L9.81785 11.216L10.5671 11.2242V9.40725C10.5671 9.0482 10.5156 8.69101 10.414 8.34662L9.35967 4.77104C9.303 4.57886 9.35681 4.3711 9.49964 4.23059C9.74917 3.98512 10.1624 4.03654 10.3441 4.33568L14.5282 11.2218H15.4138" stroke="black" stroke-linecap="round" stroke-linejoin="round"/>
</g>
</svg>
