<svg width="32" height="32" viewBox="0 0 32 32" fill="none" xmlns="http://www.w3.org/2000/svg">
<g id="Travel=suitcase, Size=32px, weight=light">
<path id="suitcase" d="M11.8571 27V25.5574M21.1429 27V25.5574M20.1428 22.4521C20.1428 22.4521 20.1428 15.4138 20.1428 10.9039M12.8572 22.4522C12.8572 22.4522 12.8572 15.4138 12.8572 10.904M16.5 22.4522V10.904M19.7143 7.88525V5.50706M13.2857 5.50706V7.88525M12 5H21M11.4882 7.95375H21.5118C22.886 7.95375 24 9.0576 24 10.4193V22.7997C24 24.1614 22.886 25.2652 21.5118 25.2652H11.4882C10.114 25.2652 9 24.1614 9 22.7997V10.4193C9 9.0576 10.114 7.95375 11.4882 7.95375Z" stroke="black" stroke-miterlimit="10" stroke-linecap="round" stroke-linejoin="round"/>
</g>
</svg>
