<svg width="24" height="24" viewBox="0 0 24 24" fill="none" xmlns="http://www.w3.org/2000/svg">
<g id="Travel=rest, Size=24px, weight=light">
<path id="rest" d="M6.91304 12.2113C7.37073 11.3904 7.89417 10.6077 8.47826 9.87074C9.07696 9.22709 9.69913 9.09056 11.6087 9.09056C13.5183 9.09056 17.3061 9.87074 18.2843 10.1516C19.2626 10.4325 19.4348 10.7836 19.4348 11.4311V12.2113M6.91304 12.2113L10.0435 16.0797H10.8261C10.8261 16.0797 14.3478 12.2113 15.913 12.2113H19.4348M6.91304 12.2113H3M19.4348 12.2113H21M21 8.70046V17.5531C21 17.7999 20.7999 18 20.5531 18V18C20.3542 18 20.1793 17.8686 20.1239 17.6775L19.4348 15.2995H12M3 6.75V12.2113M3 12.2113V17.5531C3 17.7999 3.20007 18 3.44686 18V18C3.64575 18 3.8207 17.8686 3.87606 17.6775L4.56522 15.2995H9.26087M8.01261 10.4559C7.85992 10.1451 7.61813 9.88659 7.31789 9.71297C7.01765 9.53936 6.67247 9.4585 6.32609 9.48065C5.35174 9.48065 4.56522 9.87074 4.56522 10.846V11.4311C4.58285 11.6321 4.67097 11.8205 4.81409 11.9632C4.95722 12.1059 5.14619 12.1937 5.34783 12.2113" stroke="black" stroke-miterlimit="10" stroke-linecap="round" stroke-linejoin="round"/>
</g>
</svg>
