<svg width="16" height="16" viewBox="0 0 16 16" fill="none" xmlns="http://www.w3.org/2000/svg">
<g id="Travel=swimming-pool, Size=16px, weight=light">
<path id="swimming-pool" d="M6.54667 4.87117H9.32M6.54667 6.45442H9.32833M4.16667 9.47079L4.86608 8.75854C4.89905 8.72391 4.93935 8.69621 4.98437 8.67726C5.02939 8.6583 5.07812 8.64851 5.1274 8.64851C5.17668 8.64851 5.22541 8.6583 5.27042 8.67726C5.31544 8.69621 5.35575 8.72391 5.38872 8.75854L5.80183 9.18734C5.83514 9.22177 5.87566 9.24926 5.92081 9.26807C5.96597 9.28688 6.01477 9.2966 6.06412 9.2966C6.11346 9.2966 6.16226 9.28688 6.20741 9.26807C6.25257 9.24926 6.29309 9.22177 6.32639 9.18734L6.76257 8.75854C6.79554 8.72391 6.83584 8.69621 6.88086 8.67726C6.92588 8.6583 6.97461 8.64851 7.02389 8.64851C7.07317 8.64851 7.12189 8.6583 7.16691 8.67726C7.21193 8.69621 7.25223 8.72391 7.28521 8.75854L7.75212 9.23277C7.7851 9.2674 7.8254 9.29509 7.87042 9.31404C7.91544 9.333 7.96416 9.34279 8.01344 9.34279C8.06272 9.34279 8.11145 9.333 8.15647 9.31404C8.20149 9.29509 8.24179 9.2674 8.27476 9.23277L8.72439 8.77671C8.75736 8.74207 8.79766 8.71438 8.84268 8.69543C8.8877 8.67648 8.93643 8.66668 8.98571 8.66668C9.03499 8.66668 9.08372 8.67648 9.12873 8.69543C9.17375 8.71438 9.21405 8.74207 9.24703 8.77671L9.67359 9.20915C9.70674 9.24383 9.74721 9.27154 9.79238 9.29051C9.83756 9.30948 9.88644 9.31928 9.93587 9.31928C9.9853 9.31928 10.0342 9.30948 10.0794 9.29051C10.1245 9.27154 10.165 9.24383 10.1982 9.20915L10.6247 8.77671C10.6577 8.74207 10.698 8.71438 10.743 8.69543C10.788 8.67648 10.8368 8.66668 10.886 8.66668C10.9353 8.66668 10.984 8.67648 11.0291 8.69543C11.0741 8.71438 11.1144 8.74207 11.1474 8.77671L11.8333 9.48533M4.16667 11.1426L4.86608 10.4314C4.89921 10.397 4.93956 10.3695 4.98456 10.3507C5.02956 10.3319 5.07821 10.3222 5.1274 10.3222C5.17659 10.3222 5.22524 10.3319 5.27023 10.3507C5.31523 10.3695 5.35559 10.397 5.38872 10.4314L5.80183 10.8589C5.83514 10.8933 5.87566 10.9209 5.92081 10.9397C5.96597 10.9585 6.01477 10.9682 6.06412 10.9682C6.11346 10.9682 6.16226 10.9585 6.20741 10.9397C6.25257 10.9209 6.29309 10.8933 6.32639 10.8589L6.76257 10.4314C6.7957 10.397 6.83606 10.3695 6.88105 10.3507C6.92605 10.3319 6.9747 10.3222 7.02389 10.3222C7.07308 10.3222 7.12173 10.3319 7.16672 10.3507C7.21172 10.3695 7.25207 10.397 7.28521 10.4314L7.75212 10.9062C7.7851 10.9408 7.8254 10.9686 7.87042 10.9875C7.91544 11.0065 7.96416 11.0163 8.01344 11.0163C8.06272 11.0163 8.11145 11.0065 8.15647 10.9875C8.20149 10.9686 8.24179 10.9408 8.27476 10.9062L8.72439 10.4496C8.75736 10.4149 8.79766 10.3872 8.84268 10.3683C8.8877 10.3493 8.93643 10.3395 8.98571 10.3395C9.03499 10.3395 9.08372 10.3493 9.12873 10.3683C9.17375 10.3872 9.21405 10.4149 9.24702 10.4496L9.67359 10.8843C9.7069 10.9188 9.74742 10.9463 9.79257 10.9652C9.83773 10.984 9.88653 10.9937 9.93587 10.9937C9.98521 10.9937 10.034 10.984 10.0792 10.9652C10.1243 10.9463 10.1648 10.9188 10.1982 10.8843L10.6247 10.4496C10.6577 10.4149 10.698 10.3872 10.743 10.3683C10.788 10.3493 10.8368 10.3395 10.886 10.3395C10.9353 10.3395 10.984 10.3493 11.0291 10.3683C11.0741 10.3872 11.1144 10.4149 11.1474 10.4496L11.8333 11.159M6.52833 4.62679V7.59415M7.17499 3C6.57166 3 6.52999 3.68619 6.52999 3.90376V5.09707M9.35332 4.62679V7.59415M9.99999 3C9.39666 3 9.35499 3.68619 9.35499 3.90376V5.09707M5.25 5.30127H4.81818C3.81403 5.30127 3 6.11529 3 7.11945V11.1818C3 12.186 3.81403 13 4.81818 13H11.1818C12.186 13 13 12.186 13 11.1818V7.11945C13 6.11529 12.186 5.30127 11.1818 5.30127H10.5" stroke="black" stroke-linecap="round" stroke-linejoin="round"/>
</g>
</svg>
