<svg width="16" height="16" viewBox="0 0 16 16" fill="none" xmlns="http://www.w3.org/2000/svg">
<g id="Travel=beach-chair, Size=16px, weight=light">
<g id="beach-chair">
<path id="Vector" d="M2.50293 7.98577C2.50293 6.16925 4.07957 4.49472 6.28854 4.09975C8.4975 3.70478 10.5754 4.7281 11.2193 6.42875" stroke="black" stroke-miterlimit="10" stroke-linecap="round" stroke-linejoin="round"/>
<path id="Vector_2" d="M5.02761 7.63014C5.02761 7.63014 3.9306 6.9773 2.5 7.97124" stroke="black" stroke-miterlimit="10" stroke-linecap="round" stroke-linejoin="round"/>
<path id="Vector_3" d="M8.59766 6.97084C8.59766 6.97084 9.43743 5.94588 11.2132 6.42898" stroke="black" stroke-miterlimit="10" stroke-linecap="round" stroke-linejoin="round"/>
<path id="Vector_4" d="M8.5973 6.97045C8.5973 6.97045 6.50617 6.28497 5.02246 7.62329" stroke="black" stroke-miterlimit="10" stroke-linecap="round" stroke-linejoin="round"/>
<path id="Vector_5" d="M6.18736 4.11963C6.18736 4.11963 4.70199 4.84591 5.02562 7.60742" stroke="black" stroke-miterlimit="10" stroke-linecap="round" stroke-linejoin="round"/>
<path id="Vector_6" d="M6.19629 4.12744C6.19629 4.12744 7.90238 4.24822 8.58615 6.94445" stroke="black" stroke-miterlimit="10" stroke-linecap="round" stroke-linejoin="round"/>
<path id="Vector_7" d="M6.06855 3.15015L6.04199 3" stroke="black" stroke-miterlimit="10" stroke-linecap="round" stroke-linejoin="round"/>
<path id="Vector_8" d="M6.12331 3.4472L6.04199 3" stroke="black" stroke-miterlimit="10" stroke-linecap="round" stroke-linejoin="round"/>
<path id="Vector_9" d="M7.65332 12.2329L7.79937 13" stroke="black" stroke-miterlimit="10" stroke-linecap="round" stroke-linejoin="round"/>
<path id="Vector_10" d="M7.71289 12.5508L7.79919 12.9996" stroke="black" stroke-miterlimit="10" stroke-linecap="round" stroke-linejoin="round"/>
<path id="Vector_11" d="M6.77148 7.56787L7.39384 10.8614" stroke="black" stroke-miterlimit="10" stroke-linecap="round" stroke-linejoin="round"/>
<path id="Vector_12" d="M13.4996 8.10059L11.8034 11.5394H3.93848" stroke="black" stroke-linecap="round" stroke-linejoin="round"/>
<path id="Vector_13" d="M8.98047 10.1699H12.4756" stroke="black" stroke-linecap="round" stroke-linejoin="round"/>
<path id="Vector_14" d="M4.6543 12.9932L5.53888 11.5422" stroke="black" stroke-linecap="round" stroke-linejoin="round"/>
<path id="Vector_15" d="M9.40527 11.5291L10.2351 10.1777" stroke="black" stroke-linecap="round" stroke-linejoin="round"/>
<path id="Vector_16" d="M12.5128 12.9929L11.6299 11.542" stroke="black" stroke-linecap="round" stroke-linejoin="round"/>
</g>
</g>
</svg>
