<svg width="24" height="24" viewBox="0 0 24 24" fill="none" xmlns="http://www.w3.org/2000/svg">
<g id="Travel=passport, Size=24px, weight=light">
<path id="passport" d="M9.23077 16.8796H14.7692M15.6923 10.713C15.6923 12.6971 14.0392 14.3056 12 14.3056M15.6923 10.713C15.6923 8.72885 14.0392 7.12038 12 7.12038M15.6923 10.713H8.30769M12 14.3056C9.96079 14.3056 8.30769 12.6971 8.30769 10.713M12 14.3056C12.9176 14.3056 13.6615 12.6971 13.6615 10.713C13.6615 8.72885 12.9176 7.12038 12 7.12038M12 14.3056C11.0824 14.3056 10.3384 12.6971 10.3384 10.713C10.3384 8.72885 11.0824 7.12038 12 7.12038M8.30769 10.713C8.30769 8.72885 9.96079 7.12038 12 7.12038M7.84615 19.125H16.1538C17.1734 19.125 18 18.3208 18 17.3287V6.6713C18 5.67923 17.1734 4.875 16.1538 4.875H7.84615C6.82655 4.875 6 5.67923 6 6.6713V17.3287C6 18.3208 6.82655 19.125 7.84615 19.125Z" stroke="black" stroke-linecap="round" stroke-linejoin="round"/>
</g>
</svg>
