<svg width="16" height="16" viewBox="0 0 16 16" fill="none" xmlns="http://www.w3.org/2000/svg">
<g id="Travel=yacht, Size=16px, weight=regular">
<path id="Vector" d="M2.66082 9.75346C2.77856 9.43476 2.88235 9.21417 2.94804 9.08627C2.99322 8.9983 3.07292 8.93465 3.16979 8.90386C7.14746 7.63947 14 7.84361 14 7.84361C14 7.84361 13.2474 8.76355 12.1891 9.84133M6.45525 6.96691C7.21801 6.82056 8.8782 6.67469 9.69047 6.67469C9.11527 6.21808 7.93828 5.36802 6.63411 5.55495C6.63411 5.55495 4.65658 5.83198 3.16979 6.32182L5.15897 6.55828M4.62076 5.8927L4.03187 5.06543M4.54795 6.5078C4.54795 6.5078 4.47828 6.92954 4.24278 7.57221M2 10.1177C2 10.1177 2.77354 10.9782 3.84123 10.1177H3.85317C3.85317 10.1177 4.62641 10.9782 5.6941 10.1177H5.70546C5.70546 10.1177 6.4787 10.9782 7.54698 10.1177H7.55804C7.55804 10.1177 8.33129 10.9782 9.39927 10.1177H9.41034C9.41034 10.1177 10.1836 10.9782 11.2516 10.1177H11.2626C11.2626 10.1177 12.0359 10.9782 13.1039 10.1177" stroke="black" stroke-width="1.5" stroke-linecap="round" stroke-linejoin="round"/>
</g>
</svg>
