<svg width="24" height="24" viewBox="0 0 24 24" fill="none" xmlns="http://www.w3.org/2000/svg">
<g id="Travel=hotel, Size=24px, stroke width=1px">
<g id="hotel">
<path id="Vector" d="M10.458 20.25C10.458 15.3124 10.458 9.10636 10.458 9.10636C10.458 8.88497 10.5476 8.67265 10.7071 8.5161C10.8665 8.35956 11.0828 8.27161 11.3083 8.27161H18.6496C18.8751 8.27161 19.0914 8.35956 19.2509 8.5161C19.4104 8.67265 19.5 8.88497 19.5 9.10636C19.5 9.10636 19.5 15.3124 19.5 20.25" stroke="black" stroke-linecap="round" stroke-linejoin="round"/>
<path id="Vector_2" d="M4.5 20.2498V15.6033C4.5 15.3819 4.58959 15.1696 4.74906 15.013C4.90853 14.8565 5.12482 14.7686 5.35034 14.7686H9.01247" stroke="black" stroke-linecap="round" stroke-linejoin="round"/>
<path id="Vector_3" d="M13.3322 6.65493V3.75" stroke="black" stroke-miterlimit="10" stroke-linecap="round" stroke-linejoin="round"/>
<path id="Vector_4" d="M16.623 6.65493V3.75" stroke="black" stroke-miterlimit="10" stroke-linecap="round" stroke-linejoin="round"/>
<path id="Vector_5" d="M16.4869 5.20215H13.4795" stroke="black" stroke-miterlimit="10" stroke-linecap="round" stroke-linejoin="round"/>
<path id="Vector_6" d="M12.1445 10.4308H17.8106" stroke="black" stroke-miterlimit="10" stroke-linecap="round" stroke-linejoin="round"/>
<path id="Vector_7" d="M12.1445 12.5845H17.8106" stroke="black" stroke-miterlimit="10" stroke-linecap="round" stroke-linejoin="round"/>
<path id="Vector_8" d="M12.1445 14.7407H17.8106" stroke="black" stroke-miterlimit="10" stroke-linecap="round" stroke-linejoin="round"/>
<path id="Vector_9" d="M12.1445 16.8944H17.8106" stroke="black" stroke-miterlimit="10" stroke-linecap="round" stroke-linejoin="round"/>
<path id="Vector_10" d="M12.1445 19.0479H17.8106" stroke="black" stroke-miterlimit="10" stroke-linecap="round" stroke-linejoin="round"/>
<path id="Vector_11" d="M6.06152 16.8945H9.00937" stroke="black" stroke-miterlimit="10" stroke-linecap="round" stroke-linejoin="round"/>
<path id="Vector_12" d="M6.06152 19.0479H9.00937" stroke="black" stroke-miterlimit="10" stroke-linecap="round" stroke-linejoin="round"/>
</g>
</g>
</svg>
