<svg width="24" height="24" viewBox="0 0 24 24" fill="none" xmlns="http://www.w3.org/2000/svg">
<g id="Travel=bus, Size=24px, weight=light">
<path id="Vector" d="M10.02 5.80435H13.98M5.07 7.1087H18.93M9.36 15.913H14.64M16.29 17.8696V18.8478C16.29 19.2065 16.587 19.5 16.95 19.5H17.61C17.973 19.5 18.27 19.2065 18.27 18.8478V17.8696M18.27 17.8696C18.633 17.8696 18.93 17.5761 18.93 17.2174V6.45652C18.93 5.37717 18.0423 4.5 16.95 4.5H7.05C5.9577 4.5 5.07 5.37717 5.07 6.45652V17.2174C5.07 17.5761 5.367 17.8696 5.73 17.8696M18.27 17.8696H5.73M5.73 17.8696V18.8478C5.73 19.2065 6.027 19.5 6.39 19.5H7.05C7.413 19.5 7.71 19.2065 7.71 18.8478V17.8696M5.07 11.0217H4.41C4.047 11.0217 3.75 10.7283 3.75 10.3696V8.41304C3.75 8.05435 4.047 7.76087 4.41 7.76087H5.07M18.93 7.76087H19.59C19.953 7.76087 20.25 8.05435 20.25 8.41304V10.3696C20.25 10.7283 19.953 11.0217 19.59 11.0217H18.93M5.07 12.9783L5.5518 13.138C5.8884 13.2489 6.2415 13.3043 6.5946 13.3043H17.4021C17.7552 13.3043 18.1083 13.2489 18.4449 13.138L18.9267 12.9783M7.38 15.913C7.38 16.2732 7.08451 16.5652 6.72 16.5652C6.35549 16.5652 6.06 16.2732 6.06 15.913C6.06 15.5529 6.35549 15.2609 6.72 15.2609C7.08451 15.2609 7.38 15.5529 7.38 15.913ZM17.94 15.913C17.94 16.2732 17.6445 16.5652 17.28 16.5652C16.9155 16.5652 16.62 16.2732 16.62 15.913C16.62 15.5529 16.9155 15.2609 17.28 15.2609C17.6445 15.2609 17.94 15.5529 17.94 15.913Z" stroke="black" stroke-linecap="round" stroke-linejoin="round"/>
</g>
</svg>
