<svg width="24" height="24" viewBox="0 0 24 24" fill="none" xmlns="http://www.w3.org/2000/svg">
<g id="Travel=beach-chair, Size=24px, weight=regular">
<g id="beach-chair">
<path id="Vector" d="M3.75488 11.9784C3.75488 9.25363 6.11985 6.74183 9.43329 6.14938C12.7467 5.55693 15.8635 7.09191 16.8294 9.64288" stroke="black" stroke-width="1.5" stroke-miterlimit="10" stroke-linecap="round" stroke-linejoin="round"/>
<path id="Vector_2" d="M7.54142 11.4451C7.54142 11.4451 5.8959 10.4658 3.75 11.9567" stroke="black" stroke-width="1.5" stroke-miterlimit="10" stroke-linecap="round" stroke-linejoin="round"/>
<path id="Vector_3" d="M12.8965 10.4561C12.8965 10.4561 14.1561 8.9187 16.8198 9.64335" stroke="black" stroke-width="1.5" stroke-miterlimit="10" stroke-linecap="round" stroke-linejoin="round"/>
<path id="Vector_4" d="M12.8964 10.4562C12.8964 10.4562 9.75974 9.42794 7.53418 11.4354" stroke="black" stroke-width="1.5" stroke-miterlimit="10" stroke-linecap="round" stroke-linejoin="round"/>
<path id="Vector_5" d="M9.28152 6.17969C9.28152 6.17969 7.05348 7.26911 7.53892 11.4114" stroke="black" stroke-width="1.5" stroke-miterlimit="10" stroke-linecap="round" stroke-linejoin="round"/>
<path id="Vector_6" d="M9.29395 6.19141C9.29395 6.19141 11.8531 6.37257 12.8787 10.4169" stroke="black" stroke-width="1.5" stroke-miterlimit="10" stroke-linecap="round" stroke-linejoin="round"/>
<path id="Vector_7" d="M9.10233 4.72523L9.0625 4.5" stroke="black" stroke-width="1.5" stroke-miterlimit="10" stroke-linecap="round" stroke-linejoin="round"/>
<path id="Vector_8" d="M9.18448 5.17079L9.0625 4.5" stroke="black" stroke-width="1.5" stroke-miterlimit="10" stroke-linecap="round" stroke-linejoin="round"/>
<path id="Vector_9" d="M11.4795 18.3496L11.6986 19.5002" stroke="black" stroke-width="1.5" stroke-miterlimit="10" stroke-linecap="round" stroke-linejoin="round"/>
<path id="Vector_10" d="M11.5693 18.8262L11.6988 19.4994" stroke="black" stroke-width="1.5" stroke-miterlimit="10" stroke-linecap="round" stroke-linejoin="round"/>
<path id="Vector_11" d="M10.1582 11.3521L11.0917 16.2924" stroke="black" stroke-width="1.5" stroke-miterlimit="10" stroke-linecap="round" stroke-linejoin="round"/>
<path id="Vector_12" d="M20.2499 12.1504L17.7057 17.3086H5.9082" stroke="black" stroke-width="1.5" stroke-linecap="round" stroke-linejoin="round"/>
<path id="Vector_13" d="M13.4717 15.2549H18.7144" stroke="black" stroke-width="1.5" stroke-linecap="round" stroke-linejoin="round"/>
<path id="Vector_14" d="M6.98145 19.4899L8.30832 17.3135" stroke="black" stroke-width="1.5" stroke-linecap="round" stroke-linejoin="round"/>
<path id="Vector_15" d="M14.1084 17.2942L15.3531 15.2671" stroke="black" stroke-width="1.5" stroke-linecap="round" stroke-linejoin="round"/>
<path id="Vector_16" d="M18.7687 19.4899L17.4443 17.3135" stroke="black" stroke-width="1.5" stroke-linecap="round" stroke-linejoin="round"/>
</g>
</g>
</svg>
