<svg width="32" height="32" viewBox="0 0 32 32" fill="none" xmlns="http://www.w3.org/2000/svg">
<g id="Travel=bill, Size=32px, stroke width=1px">
<path id="bill" d="M21 20V6L19.375 7.5L17.75 6L16.125 7.5L14.5 6L12.875 7.5L11.25 6L9.625 7.5L8 6V22C8 23.6569 9.34315 25 11 25M11 25C12.6569 25 14 23.6569 14 22H25.5C25.5 23.6569 24.1569 25 22.5 25H11ZM11 17.3H17.5M11 19.5H16.5M14.6334 10.5312H13.7167C13.2105 10.5312 12.8 10.916 12.8 11.3906C12.8 11.8652 13.2105 12.25 13.7167 12.25H15.55C16.0563 12.25 16.4667 12.6347 16.4667 13.1094C16.4667 13.584 16.0563 13.9687 15.55 13.9687H14.6334M14.6334 10.5312H16.4667M14.6334 10.5312V9.5M14.6334 13.9687H12.8M14.6334 13.9687V15" stroke="black" stroke-miterlimit="10" stroke-linecap="round" stroke-linejoin="round"/>
</g>
</svg>
