<svg width="16" height="16" viewBox="0 0 16 16" fill="none" xmlns="http://www.w3.org/2000/svg">
<g id="Travel=airplane, Size=16px, stroke width=1.5px">
<path id="airplane" d="M10.2759 7.48002C10.7798 7.48038 11.2919 7.48074 11.937 7.48121C12.363 7.47805 13.5 7.82778 13.5 8.24997C13.508 8.68004 12.3678 9.01717 11.9418 9.01402H9.89285L9.67584 9.01876L6.88648 13.6095C6.7653 13.8089 6.48983 13.8432 6.32348 13.6796C6.22826 13.5859 6.19239 13.4474 6.23016 13.3193L6.9327 10.9368C7.00064 10.7064 7.03502 10.4674 7.03478 10.2272L7.03354 9.01876L6.85788 9.01402H5.09729C4.94454 9.01402 4.80017 9.08384 4.70533 9.20358L3.78953 10.3599C3.6937 10.4809 3.53106 10.5267 3.38613 10.4736C3.21388 10.4105 3.11731 10.2273 3.16258 10.0496L3.46305 8.86953C3.47969 8.80418 3.44175 8.73736 3.3771 8.71817C2.88621 8.59156 2.49935 8.43009 2.5 8.24525C2.50063 8.06516 2.8681 7.90726 3.34083 7.78216C3.5488 7.72713 3.45223 7.54853 3.39915 7.34005L3.16239 6.41022C3.11724 6.2329 3.21356 6.05018 3.38537 5.98723C3.5306 5.93402 3.69357 5.98046 3.78894 6.10223L4.71511 7.28478C4.80988 7.40579 4.95504 7.47648 5.10875 7.47648L6.54523 7.47736L7.04476 7.48284V6.27155C7.04476 6.03218 7.01038 5.79406 6.94268 5.56446L6.23978 3.18074C6.202 3.05263 6.23788 2.91412 6.3331 2.82045C6.49945 2.6568 6.77492 2.69108 6.89609 2.8905L9.68546 7.48126H10.2759" stroke="black" stroke-width="1.5" stroke-linecap="round" stroke-linejoin="round"/>
</g>
</svg>
