<svg width="16" height="16" viewBox="0 0 16 16" fill="none" xmlns="http://www.w3.org/2000/svg">
<g id="Travel=luggage, Size=16px, stroke width=1.5px">
<path id="luggage" d="M4.5 7.25V4.75M4.5 12.75V11.25M11.5 4.75V12.75M6.25 4.75V3.75C6.25 3.61739 6.31321 3.49021 6.42574 3.39645C6.53826 3.30268 6.69087 3.25 6.85 3.25H9.15C9.30913 3.25 9.46174 3.30268 9.57426 3.39645C9.68679 3.49021 9.75 3.61739 9.75 3.75V4.75M3.31818 4.75H12.6818C13.1337 4.75 13.5 5.10977 13.5 5.55357V11.9464C13.5 12.3902 13.1337 12.75 12.6818 12.75H3.31818C2.86631 12.75 2.5 12.3902 2.5 11.9464V5.55357C2.5 5.10977 2.86631 4.75 3.31818 4.75ZM3.63306 7.94812L6.13729 8.89939L5.54321 10.4633L3.53898 9.51203L3.63306 7.94812ZM9 8.5L7 7.75894L8.52347 6L9 8.5ZM10 10.5C10 10.9142 9.66421 11.25 9.25 11.25C8.83579 11.25 8.5 10.9142 8.5 10.5C8.5 10.0858 8.83579 9.75 9.25 9.75C9.66421 9.75 10 10.0858 10 10.5Z" stroke="black" stroke-width="1.5" stroke-linecap="round" stroke-linejoin="round"/>
</g>
</svg>
