<svg width="16" height="16" viewBox="0 0 16 16" fill="none" xmlns="http://www.w3.org/2000/svg">
<g id="Travel=train, Size=16px, weight=light">
<path id="Vector" d="M5.975 11.9375L4.625 13.25M10.025 11.9375L11.375 13.25M6.2 4.0625H9.8M5.075 12.8125H10.925M10.7 11.9375C11.6945 11.9375 12.5 11.1544 12.5 10.1875V5.15625C12.5 4.10406 12.275 2.75 8 2.75C3.725 2.75 3.5 4.10406 3.5 5.15625V10.1875C3.5 11.1544 4.3055 11.9375 5.3 11.9375H10.7ZM5.975 9.53125C5.975 9.89369 5.67279 10.1875 5.3 10.1875C4.92721 10.1875 4.625 9.89369 4.625 9.53125C4.625 9.16881 4.92721 8.875 5.3 8.875C5.67279 8.875 5.975 9.16881 5.975 9.53125ZM11.375 9.53125C11.375 9.89369 11.0728 10.1875 10.7 10.1875C10.3272 10.1875 10.025 9.89369 10.025 9.53125C10.025 9.16881 10.3272 8.875 10.7 8.875C11.0728 8.875 11.375 9.16881 11.375 9.53125ZM4.4 4.9375H11.6V8H4.4V4.9375Z" stroke="black" stroke-linecap="round" stroke-linejoin="round"/>
</g>
</svg>
