<svg width="24" height="24" viewBox="0 0 24 24" fill="none" xmlns="http://www.w3.org/2000/svg">
<g id="Travel=no-suitcase, Size=24px, weight=light">
<path id="no-suitcase" d="M8.89286 20.25V19.168M15.8571 20.25V19.168M14.7857 5.91393V4.13029M9.96429 4.13029V5.91393M6.75 17.0998C6.75 18.121 7.58549 18.9489 8.61611 18.9489H16.1339C17.1645 18.9489 18 18.121 18 17.0998V12.2551M9 3.75H15.75M6.75 14.25V7.81445C6.75 6.7932 7.58549 5.96531 8.61611 5.96531H16.1339C17.1645 5.96531 18 6.7932 18 7.81445V9M9.64287 12.9022V8.17798M9.64287 16.8391V16.11M12.375 11.625V8.17798M12.375 16.8391V14.7907M15.1071 10.125V8.17795M15.1071 16.8391V13.5M4.875 15.375L20.25 7.875" stroke="black" stroke-linecap="round" stroke-linejoin="round"/>
</g>
</svg>
