<svg width="16" height="16" viewBox="0 0 16 16" fill="none" xmlns="http://www.w3.org/2000/svg">
<g id="Travel=suitcase, Size=16px, stroke width=1.5px">
<path id="suitcase" d="M5.92857 13.5V12.7787M10.5714 13.5V12.7787M10.0714 11.2261C10.0714 11.2261 10.0714 7.70689 10.0714 5.45197M6.42858 11.2261C6.42858 11.2261 6.42858 7.70691 6.42858 5.45199M8.25 11.2261V5.45199M9.85714 3.94262V2.75353M6.64286 2.75353V3.94262M6 2.5H10.5M5.74408 3.97687H10.7559C11.443 3.97687 12 4.5288 12 5.20963V11.3999C12 12.0807 11.443 12.6326 10.7559 12.6326H5.74408C5.05699 12.6326 4.5 12.0807 4.5 11.3999V5.20963C4.5 4.5288 5.05699 3.97687 5.74408 3.97687Z" stroke="black" stroke-width="1.5" stroke-miterlimit="10" stroke-linecap="round" stroke-linejoin="round"/>
</g>
</svg>
