<svg width="24" height="24" viewBox="0 0 24 24" fill="none" xmlns="http://www.w3.org/2000/svg">
<g id="Travel=suitcase, Size=24px, weight=light">
<path id="suitcase" d="M8.89286 20.25V19.168M15.8571 20.25V19.168M15.1071 16.8391C15.1071 16.8391 15.1071 11.5603 15.1071 8.17795M9.64287 16.8391C9.64287 16.8391 9.64287 11.5604 9.64287 8.17798M12.375 16.8391V8.17798M14.7857 5.91393V4.13029M9.96429 4.13029V5.91393M9 3.75H15.75M8.61611 5.96531H16.1339C17.1645 5.96531 18 6.7932 18 7.81445V17.0998C18 18.121 17.1645 18.9489 16.1339 18.9489H8.61611C7.58549 18.9489 6.75 18.121 6.75 17.0998V7.81445C6.75 6.7932 7.58549 5.96531 8.61611 5.96531Z" stroke="black" stroke-miterlimit="10" stroke-linecap="round" stroke-linejoin="round"/>
</g>
</svg>
