<svg width="24" height="24" viewBox="0 0 24 24" fill="none" xmlns="http://www.w3.org/2000/svg">
<g id="Travel=seats, Size=24px, stroke width=1px">
<path id="seats" d="M10.3431 16.877L9.18182 19.1766C9.16466 19.2106 9.15648 19.2484 9.15806 19.2864C9.15965 19.3244 9.17094 19.3614 9.19087 19.3939C9.21081 19.4263 9.23871 19.4531 9.27192 19.4716C9.30513 19.4902 9.34255 19.5 9.38061 19.5H16.7147C16.7528 19.5 16.7902 19.4902 16.8234 19.4716C16.8566 19.4531 16.8845 19.4263 16.9045 19.3939C16.9244 19.3614 16.9357 19.3244 16.9373 19.2864C16.9389 19.2484 16.9307 19.2106 16.9135 19.1766L15.7522 16.877M9.30751 10.6748H13.4527C13.5236 10.6748 13.5916 10.703 13.6418 10.7531C13.6919 10.8033 13.7201 10.8713 13.7201 10.9422V11.7891C13.7201 11.86 13.6919 11.928 13.6418 11.9782C13.5916 12.0283 13.5236 12.0565 13.4527 12.0565H9.61951M6.43264 5.65336L7.27304 4.77508C7.37709 4.66636 7.50697 4.58575 7.65057 4.54076C7.79418 4.49578 7.94683 4.48788 8.09431 4.5178C8.24179 4.54772 8.3793 4.6145 8.49401 4.71189C8.60873 4.80929 8.69692 4.93415 8.75037 5.07482L9.79892 7.83425C9.83811 7.93769 9.83743 8.05201 9.79703 8.15498C9.75662 8.25795 9.67937 8.34222 9.58029 8.3914L8.96141 8.69828C8.86561 8.74577 8.79008 8.82613 8.74859 8.92469C8.70711 9.02324 8.70244 9.13343 8.73544 9.23514L10.2212 13.8171C10.2852 14.0142 10.4099 14.1859 10.5775 14.3077C10.7451 14.4295 10.9469 14.4951 11.1541 14.495H17.2599C17.7909 14.495 18.1098 15.0843 17.8197 15.5291L17.2077 16.4667C17.1267 16.5908 17.016 16.6928 16.8856 16.7634C16.7553 16.834 16.6094 16.8709 16.4611 16.8709H10.2096C9.92789 16.8709 9.65336 16.7818 9.42524 16.6164C9.19712 16.451 9.02707 16.2178 8.93935 15.9501L6.07763 7.2176C5.98962 6.94916 5.97616 6.66185 6.03869 6.38636C6.10121 6.11086 6.23738 5.85752 6.43264 5.65336Z" stroke="black" stroke-miterlimit="10" stroke-linecap="round" stroke-linejoin="round"/>
</g>
</svg>
