<svg width="24" height="24" viewBox="0 0 24 24" fill="none" xmlns="http://www.w3.org/2000/svg">
<g id="Travel=meal, Size=24px, weight=regular">
<path id="meal" d="M13.9395 12.7336C13.9394 11.8454 13.622 10.9861 13.0438 10.3091C12.4656 9.63205 11.6643 9.18129 10.7829 9.03724C9.90144 8.89319 8.9972 9.06522 8.2315 9.52263C7.46579 9.98004 6.88843 10.6931 6.60244 11.5345M11.3992 12.7336C11.3992 12.4102 11.27 12.1001 11.04 11.8715C10.8101 11.6429 10.4982 11.5144 10.173 11.5144C9.84786 11.5144 9.53599 11.6429 9.30605 11.8715C9.07611 12.1001 8.94693 12.4102 8.94693 12.7336M18.0035 12.7336C18.0035 11.7733 17.6326 10.8497 16.9672 10.1536C16.43 9.59153 15.7339 9.21247 14.978 9.06166M15.4632 12.7336C15.4632 12.4107 15.3342 12.1011 15.1046 11.8728C14.875 11.6445 14.5636 11.5162 14.2389 11.5162C14.0963 11.516 13.9548 11.5407 13.8208 11.5893M11.04 7.92229L10.7655 4.79402C10.7493 4.6092 10.7361 4.4168 10.8131 4.248C10.9572 3.93222 11.2881 3.7249 11.6548 3.75245C12.1321 3.7883 12.4864 4.20734 12.4399 4.681L12.6455 9.88503M12.6589 9.8625L14.9937 5.08592C15.1694 4.66731 15.64 4.45421 16.0729 4.59719C16.5541 4.7561 16.7979 5.28827 16.6026 5.75355L13.9942 11.1834M7.97118 18.7898C4.69501 16.7678 4.87681 12.7756 4.87681 12.7756H19.1231C19.1231 12.7756 19.3068 16.7678 16.0294 18.7898L11.4181 18.7904M7.96996 18.7941V20.25H16.03V18.7941M9.51928 18.7904H7.90936" stroke="black" stroke-width="1.5" stroke-linecap="round" stroke-linejoin="round"/>
</g>
</svg>
