<svg width="24" height="24" viewBox="0 0 24 24" fill="none" xmlns="http://www.w3.org/2000/svg">
<g id="Travel=hotel, Size=24px, weight=light">
<g id="hotel">
<path id="Vector" d="M10.458 20.2499C10.458 15.3122 10.458 9.10623 10.458 9.10623C10.458 8.88484 10.5476 8.67253 10.7071 8.51598C10.8665 8.35943 11.0828 8.27148 11.3083 8.27148H18.6496C18.8751 8.27148 19.0914 8.35943 19.2509 8.51598C19.4104 8.67253 19.5 8.88484 19.5 9.10623C19.5 9.10623 19.5 15.3122 19.5 20.2499" stroke="black" stroke-linecap="round" stroke-linejoin="round"/>
<path id="Vector_2" d="M4.5 20.2498V15.6033C4.5 15.3819 4.58959 15.1696 4.74906 15.013C4.90853 14.8565 5.12482 14.7686 5.35034 14.7686H9.01247" stroke="black" stroke-linecap="round" stroke-linejoin="round"/>
<path id="Vector_3" d="M13.332 6.65493V3.75" stroke="black" stroke-miterlimit="10" stroke-linecap="round" stroke-linejoin="round"/>
<path id="Vector_4" d="M16.623 6.65493V3.75" stroke="black" stroke-miterlimit="10" stroke-linecap="round" stroke-linejoin="round"/>
<path id="Vector_5" d="M16.4869 5.20215H13.4795" stroke="black" stroke-miterlimit="10" stroke-linecap="round" stroke-linejoin="round"/>
<path id="Vector_6" d="M12.1445 10.4307H17.8106" stroke="black" stroke-miterlimit="10" stroke-linecap="round" stroke-linejoin="round"/>
<path id="Vector_7" d="M12.1445 12.5845H17.8106" stroke="black" stroke-miterlimit="10" stroke-linecap="round" stroke-linejoin="round"/>
<path id="Vector_8" d="M12.1445 14.7407H17.8106" stroke="black" stroke-miterlimit="10" stroke-linecap="round" stroke-linejoin="round"/>
<path id="Vector_9" d="M12.1445 16.8945H17.8106" stroke="black" stroke-miterlimit="10" stroke-linecap="round" stroke-linejoin="round"/>
<path id="Vector_10" d="M12.1445 19.0479H17.8106" stroke="black" stroke-miterlimit="10" stroke-linecap="round" stroke-linejoin="round"/>
<path id="Vector_11" d="M6.06152 16.8945H9.00937" stroke="black" stroke-miterlimit="10" stroke-linecap="round" stroke-linejoin="round"/>
<path id="Vector_12" d="M6.06152 19.0479H9.00937" stroke="black" stroke-miterlimit="10" stroke-linecap="round" stroke-linejoin="round"/>
</g>
</g>
</svg>
